<svg xmlns="http://www.w3.org/2000/svg" xmlns:xlink="http://www.w3.org/1999/xlink" width="40" height="40" viewBox="0 0 40 40"><defs><clipPath id="a"><rect width="40" height="40" fill="none"/></clipPath></defs><g clip-path="url(#a)"><g clip-path="url(#a)"><g transform="translate(11.504 14.999)"><g transform="translate(5.268 5.269)"><path d="M875.969,543.461a3.408,3.408,0,1,0-.994-2.406A3.277,3.277,0,0,0,875.969,543.461Z" transform="translate(-874.975 -537.656)" fill="#fff"/></g><path d="M872.237,534.918a8.669,8.669,0,0,1,14.806,6.137,11.635,11.635,0,0,1-.9,4.131,25.469,25.469,0,0,1-2.182,4.363q-1.279,2.037-2.53,3.81t-2.123,2.823l-.931.988q-.349-.406-.931-1.076t-2.094-2.676a44.241,44.241,0,0,1-2.647-3.9,28.19,28.19,0,0,1-2.066-4.277,11.756,11.756,0,0,1-.93-4.189,8.357,8.357,0,0,1,2.528-6.134Zm3.956,8.319a3.091,3.091,0,1,0-.9-2.182,2.968,2.968,0,0,0,.9,2.182Z" transform="translate(-869.707 -532.387)"/></g><rect width="40" height="40" transform="translate(-0.496)" fill="none"/></g></g></svg>