<svg xmlns="http://www.w3.org/2000/svg" width="117.611" height="78.394" viewBox="0 0 117.611 78.394">
  <g id="deleg-nantes" transform="translate(11562.736 1253.054)">
    <path id="Tracé_2489" data-name="Tracé 2489" d="M273.009,194.4l-2.892.085-1.872-1.276-1.276-1.276-.851-4.254-.425-3.658-6.04.681-2.382,1.446-1.616,2.807-5.444,2.3-8.847-1.531-1.7,4.254-2.637-1.531.425-2.467-.766-2.127-5.955-6.55-5.274,6.04,1.7,1.872,2.722,6.55-1.616,2.637.51,7.656-1.191-.766-1.191.255-4.339-7.146-5.274-3.573-1.872,1.021-1.276-.766-1.361,3.063-2.127-1.021-3.658,4.168-5.785.766.255,2.382-.51,2.467-4.764,9.1-4.424,1.361-1.957,2.382-7.061-.6-4.254-4.679-3.148-.34-.936-1.786-1.446-.17-8.082-8.422-5.274-1.786.255,2.212,2.892,3.488,8,7.571.425,4.254,5.87,3.148,3.573,3.658-1.786,4,3.148.766,1.616-1.021,1.872,1.616,6.465,1.191.085,1.616-1.957,2.637,4,1.106,2.977,3.063,5.274.085-5.1,4.339-.766,1.872,3.488,2.977L203,248.165h3.658l3.148-.6,2.127,4.083.851-1.191,1.276,1.446,4.168.255-2.382,3.573.851,1.957,5.274-4.254,1.531.255-.255-2.042,4.168-6.976,2.722-1.191-.34-1.361,3.828-.51L236,243.146l-.6,1.531,2.382,2.212-.766,3.318,2.892,2.467,4.168-3.658,3.318-.6,3.233,4.424,3.913-1.021,3.658-5.019.085-2.042-1.872-1.276,1.276-1.361,1.191-.34,1.786-3.828,3.658-3.233-.51-1.276-6.636-1.106-1.021-7.146,2.127-3.658-4.254-6.465,2.892-3.828,5.615-3.063,1.7-3.743,8.167-6.465,2.3-1.106-.425-1.531Z" transform="translate(-11720.836 -1433.354)" fill="none" stroke="#000" stroke-linecap="round" stroke-linejoin="round" stroke-miterlimit="10" stroke-width="2"/>
    <circle id="Ellipse_59" data-name="Ellipse 59" cx="5.925" cy="5.925" r="5.925" transform="translate(-11492.302 -1215.323)"/>
  </g>
</svg>
