<svg id="deleg-st_nazaire" xmlns="http://www.w3.org/2000/svg" width="175" height="109.268" viewBox="0 0 175 109.268">
  <path id="Tracé_2174" data-name="Tracé 2174" d="M123.114,88.662l8.9,1.757,5.44,1.927,7.99,8.386,1.53.113.907,1.813,3.117.34,4.25,4.647,7.083.623,1.983-2.38,4.42-1.36,4.76-9.066.51-2.493L160.91,80.275l.283-1.53-1.643-1.87V73.589l-2.04,1.927-1.133-.623-7.763-8.047V61.179l-8.047,2.267v-2.04l-5.383,1.133-2.153-.623-.4-1.757,1.643-4.023-1.87-4.533,1.133-4.023-2.493-3.627,3.23-1.643.623-6.233,2.153.963,4.647-1.87,4.647-5.78-5.553-7.31-7.99.793h-5.157l-.793-4.023-2.89-.623-.34-5.78-1.757-.793-5.27.283-1.417-3.8-5.893-4.363L98.635,1,95.972,2.927l.113.057-1.87,7.083,1.53,2.607-.51,2.267-9.916,3-1.53,1.53.4,3.4-.4,3.23-2.267,1.643-4.25-.623-.793-2.153,1.133-2.72-2.607-.4L70.7,22.76l-5.5,4.363L61.576,24.97l1.247-3-.907-.737-4.137.51-3.91-1.417.283,2.89-.907,3.91-2.267,3L50.866,36.7l-8.783,1.983-1.757-2.493H37.663l-3.4,1.643-3.343-.68-1.927-2.72-.453-2.153-1.53.4-2.267,3-2.777,1.36-1.02,4.307,2.55,2.72-1.643,3.91,4.533,2.493L26.1,51.886l-6.233-.113-1.417-1.133-6.63,4.25-6.4,5.78L1,62.539l.113,1.247L7.29,67.072l3.91,6.4,1.133,4.93v2.38L9.67,86.905l-.907-.85-1.757.227-3.343.283-.793,1.87,9.293,3.4,2.153,1.983,6.913,1.643,1.643,1.757,5.893,1.133-.51-4.363,5.667-2.437,7.027,2.04,3.4,2.89,1.473,3.627,8.84,5.667,5.383-1.247,4.137-4.647,4.533-.793,1.02-2.607,5.157-1.87.85-2.267,1.87-.793.4-4.873.907.113L80.9,89.058l5.157-3,6.007-1.87,8.67.227,5.553-2.493,1.643.227.963,2.493L112.4,81.3l1.417.113-.17,5.1,2.55-.34Z" transform="translate(0 0)" fill="none" stroke="#000" stroke-linecap="round" stroke-linejoin="round" stroke-miterlimit="10" stroke-width="2"/>
  <circle id="Ellipse_55" data-name="Ellipse 55" cx="5.925" cy="5.925" r="5.925" transform="translate(67.699 88.645)"/>
</svg>
