<?xml version="1.0" encoding="utf-8"?>
<!-- Generator: Adobe Illustrator 23.0.3, SVG Export Plug-In . SVG Version: 6.00 Build 0)  -->
<svg version="1.1" id="Calque_1" xmlns="http://www.w3.org/2000/svg" xmlns:xlink="http://www.w3.org/1999/xlink" x="0px" y="0px"
	 viewBox="0 0 467.7 161.1" style="enable-background:new 0 0 467.7 161.1;" xml:space="preserve">
<style type="text/css">
	.st0{fill:#FFFFFF;}
	.st1{fill:none;}
	.st2{fill:url(#SVGID_1_);}
	.st3{fill:url(#SVGID_2_);}
	.st4{fill:url(#SVGID_3_);}
	.st5{fill:url(#SVGID_4_);}
</style>
<path d="M466.9,137.4c0,14.2-10.4,23-24.6,23h-416c-14.2,0-25.6-11.5-25.6-25.6V26.4c0-14.2,11.5-25.6,25.6-25.6h416
	c14.1,0,24.6,11.5,24.6,25.6V137.4z"/>
<g>
	<g>
		<path class="st0" d="M319.3,115.3l-3.5,3.3c-0.8,0.4-1.6,1-2.4,1.3c-2.4,1.1-4.9,1.4-7.1,1.4c-2.3,0-6-0.2-9.7-2.9
			c-5.2-3.7-7.5-9.9-7.5-15.4c0-11.3,9.2-16.9,16.8-16.9c2.6,0,5.3,0.7,7.5,2c3.7,2.4,4.6,5.6,5.1,7.2l-17.2,6.9l-5.6,0.4
			c1.8,9.3,8.1,14.7,15.1,14.7c3.5,0,6.1-1.1,8.4-2.3C319.2,115.2,319.7,115,319.3,115.3z M308.9,96.8c1.4-0.5,2.1-0.9,2.1-2
			c0-2.9-3.3-6.3-7.3-6.3c-2.9,0-8.4,2.3-8.4,10.2c0,1.2,0.1,2.5,0.2,3.9L308.9,96.8z"/>
		<path class="st0" d="M283.4,114.8c0,2.8,0.5,3.3,2.9,3.5c1.3,0.1,2.5,0.2,3.7,0.4l-2.7,1.6h-12.9c1.7-2.2,2-2.4,2-3.9v-1.6l0-43.5
			h-5.7l5.5-2.6h10.5c-2.3,1.3-2.9,2.1-3.2,4.7L283.4,114.8z"/>
		<path class="st0" d="M263.4,89.7c1.7,1.4,5.2,4.3,5.2,9.9c0,5.4-3.1,8-6.1,10.4c-0.9,1-2,2-2,3.6c0,1.6,1.1,2.5,1.9,3.2l2.6,2
			c3.2,2.7,6.1,5.2,6.1,10.3c0,6.9-6.7,13.8-19.3,13.8c-10.6,0-15.7-5-15.7-10.5c0-2.6,1.3-6.4,5.6-8.9c4.5-2.8,10.7-3.1,14-3.4
			c-1-1.3-2.2-2.7-2.2-5c0-1.2,0.4-2,0.7-2.9c-0.8,0.1-1.6,0.2-2.3,0.2c-7.8,0-12.2-5.8-12.2-11.5c0-3.4,1.5-7.1,4.7-9.8
			c4.2-3.4,9.1-4,13.1-4h15.1l-4.7,2.6L263.4,89.7L263.4,89.7z M258.2,122.2c-0.6-0.1-1-0.1-1.7-0.1c-0.7,0-4.6,0.1-7.7,1.2
			c-1.6,0.6-6.3,2.3-6.3,7.5c0,5.2,5.1,8.9,12.9,8.9c7,0,10.8-3.4,10.8-7.9C266.1,128.2,263.7,126.2,258.2,122.2z M260.3,108.3
			c1.7-1.7,1.8-4,1.8-5.3c0-5.3-3.1-13.5-9.2-13.5c-1.9,0-4,1-5.1,2.4c-1.2,1.5-1.6,3.5-1.6,5.4c0,4.9,2.9,13,9.1,13
			C257.1,110.4,259.1,109.5,260.3,108.3z"/>
		<path class="st0" d="M218,121.2c-11.6,0-17.9-9.1-17.9-17.3c0-9.6,7.8-17.8,19-17.8c10.8,0,17.5,8.4,17.5,17.3
			C236.6,112,229.9,121.2,218,121.2z M227.1,115.3c1.8-2.3,2.2-5.3,2.2-8.1c0-6.4-3.1-18.7-12.1-18.7c-2.4,0-4.8,0.9-6.6,2.5
			c-2.9,2.6-3.4,5.8-3.4,8.9c0,7.2,3.6,19.2,12.4,19.2C222.5,119,225.4,117.6,227.1,115.3z"/>
		<path class="st0" d="M179,121.2c-11.6,0-17.9-9.1-17.9-17.3c0-9.6,7.8-17.8,19-17.8c10.8,0,17.5,8.4,17.5,17.3
			C197.6,112,191,121.2,179,121.2z M188.2,115.3c1.8-2.3,2.2-5.3,2.2-8.1c0-6.4-3.1-18.7-12.1-18.7c-2.4,0-4.8,0.9-6.6,2.5
			c-2.9,2.6-3.4,5.8-3.4,8.9c0,7.2,3.6,19.2,12.4,19.2C183.6,119,186.5,117.6,188.2,115.3z"/>
		<path class="st0" d="M156.5,118.7l-9.8,2.2c-4,0.6-7.5,1.2-11.3,1.2c-18.9,0-26.1-13.9-26.1-24.8c0-13.3,10.2-25.7,27.7-25.7
			c3.7,0,7.3,0.5,10.5,1.4c5.1,1.4,7.5,3.2,9.1,4.3l-5.7,5.4l-2.4,0.5l1.7-2.7c-2.3-2.3-6.6-6.4-14.7-6.4c-10.8,0-19,8.2-19,20.2
			c0,12.9,9.3,25,24.3,25c4.4,0,6.7-0.9,8.7-1.7v-11.1l-10.4,0.6l5.5-2.9h14.5l-1.8,1.7c-0.5,0.4-0.5,0.5-0.7,1.1
			c-0.1,0.6-0.1,2.6-0.1,3.3L156.5,118.7L156.5,118.7L156.5,118.7z"/>
	</g>
	<g>
		<path class="st0" d="M340.4,115.6v18.6h-3.7V86.9h3.7v5.4c2.4-3.5,6.8-6.3,11.9-6.3c9.2,0,15.4,7,15.4,18
			c0,10.9-6.2,18.1-15.4,18.1C347.5,122,343.2,119.5,340.4,115.6z M363.7,104c0-8.3-4.3-14.6-12-14.6c-4.8,0-9.3,3.8-11.3,7v15.2
			c2,3.3,6.5,7.2,11.3,7.2C359.4,118.7,363.7,112.3,363.7,104z"/>
		<path class="st0" d="M372.8,121.2V73.8h3.7v47.4H372.8z"/>
		<path class="st0" d="M418,131.2c0.8,0.4,2.1,0.6,3,0.6c2.3,0,3.8-0.9,5.3-4.2l2.7-6.1l-14.6-34.6h4.1l12.5,30l12.4-30h4.2
			l-17.8,41.9c-1.8,4.3-4.7,6.4-8.7,6.4c-1.2,0-2.8-0.2-3.7-0.5L418,131.2z"/>
		<path class="st0" d="M407.2,121.1c-0.2-1.2-0.4-2.2-0.6-3.1c-0.1-0.9-0.2-1.8-0.2-2.7c-1.3,1.9-3.1,3.4-5.4,4.6
			c-2.3,1.2-4.5,1.8-7.5,1.8c-3.6,0-6.4-0.9-8.4-2.7c-2-1.8-3-4.2-3-7.3c0-3.1,1.5-5.6,4.3-7.5c2.9-1.9,6.6-2.9,11.3-2.9h8.6v-4.3
			c0-2.5-0.8-4.4-2.5-5.8c-1.7-1.4-4-2.1-7.1-2.1c-2.8,0-5.1,0.6-6.8,1.9c-1.7,1.3-2.6,2.9-2.6,4.8h-3.8l-0.1-0.2
			c-0.1-2.6,1-4.9,3.6-6.8c2.5-2,5.8-2.9,9.9-2.9c4,0,7.3,1,9.8,2.9c2.5,1.9,3.7,4.7,3.7,8.3v16.9c0,1.2,0.1,2.4,0.2,3.5
			c0.2,1.1,0.4,2.3,0.7,3.4L407.2,121.1L407.2,121.1z M394.1,118.4c3.1,0,5.4-0.7,7.7-2.1c2.3-1.4,3.9-3.2,4.7-5.4v-6.6h-8.7
			c-3.3,0-6.1,0.7-8.2,2.2c-2.2,1.5-3.3,3.3-3.3,5.3c0,2,0.7,3.5,2.1,4.7C389.8,117.8,391.7,118.4,394.1,118.4z"/>
	</g>
</g>
<g>
	<polygon class="st1" points="60.9,102 72.8,90.2 72.8,90.2 60.9,102 23,64.2 23,64.2 60.9,102.1 23,140 23,140 60.9,102.1 
		72.9,114 72.9,114 	"/>
	
		<linearGradient id="SVGID_1_" gradientUnits="userSpaceOnUse" x1="-435.7129" y1="-79.8321" x2="-458.7893" y2="-94.2743" gradientTransform="matrix(1.5334 1.5334 -1.5334 1.5334 598.6487 889.5577)">
		<stop  offset="0" style="stop-color:#C6E77F"/>
		<stop  offset="0.3264" style="stop-color:#8BCF86"/>
		<stop  offset="1" style="stop-color:#3C9A99"/>
	</linearGradient>
	<path class="st2" d="M72.8,90.2L26.5,64.7C25.2,64,24,63.8,23,64.1L60.9,102L72.8,90.2z"/>
	
		<linearGradient id="SVGID_2_" gradientUnits="userSpaceOnUse" x1="-449.1329" y1="-92.173" x2="-419.2133" y2="-84.3517" gradientTransform="matrix(1.5334 1.5334 -1.5334 1.5334 598.6487 889.5577)">
		<stop  offset="0" style="stop-color:#F31976"/>
		<stop  offset="0.6721" style="stop-color:#FC925A"/>
		<stop  offset="1" style="stop-color:#F9F658"/>
	</linearGradient>
	<path class="st3" d="M72.9,114l15.8-8.7c3.2-1.8,3.2-4.6,0-6.4l-15.9-8.7L60.9,102L72.9,114z"/>
	
		<linearGradient id="SVGID_3_" gradientUnits="userSpaceOnUse" x1="-432.4272" y1="-68.8782" x2="-464.8712" y2="-87.9664" gradientTransform="matrix(1.5334 1.5334 -1.5334 1.5334 598.6487 889.5577)">
		<stop  offset="0" style="stop-color:#7DCAA0"/>
		<stop  offset="0.4854" style="stop-color:#46939D"/>
		<stop  offset="0.8349" style="stop-color:#224798"/>
		<stop  offset="1" style="stop-color:#162C90"/>
	</linearGradient>
	<path class="st4" d="M23,64.2c-1.4,0.4-2.3,1.9-2.3,4l0,67.8c0,2.1,0.9,3.5,2.3,4l38-38L23,64.2z"/>
	
		<linearGradient id="SVGID_4_" gradientUnits="userSpaceOnUse" x1="-420.6643" y1="-84.0297" x2="-440.6408" y2="-57.7117" gradientTransform="matrix(1.5334 1.5334 -1.5334 1.5334 598.6487 889.5577)">
		<stop  offset="0" style="stop-color:#FD2F18"/>
		<stop  offset="0.3411" style="stop-color:#D92255"/>
		<stop  offset="0.7935" style="stop-color:#6C258E"/>
		<stop  offset="1" style="stop-color:#4E278F"/>
	</linearGradient>
	<path class="st5" d="M23,140c1,0.3,2.2,0.2,3.6-0.6L72.9,114l-11.9-11.9L23,140z"/>
</g>
<g>
	<g>
		<path class="st0" d="M109.3,46.4V23.3h8.6c7.3,0,12.1,4.8,12.1,11.6c0,6.8-4.9,11.6-12.1,11.6C117.9,46.4,109.3,46.4,109.3,46.4z
			 M125.8,34.8c0-4.4-2.8-8-7.9-8h-4.6v16h4.6C122.9,42.8,125.8,39.2,125.8,34.8z"/>
		<path class="st0" d="M134.8,46.4V23.3h4.1v23.2C138.8,46.4,134.8,46.4,134.8,46.4z"/>
		<path class="st0" d="M143.1,43.1l2.3-3.2c1.6,1.7,4.1,3.2,7.3,3.2c3.3,0,4.6-1.6,4.6-3.2c0-4.9-13.5-1.8-13.5-10.3
			c0-3.9,3.3-6.8,8.4-6.8c3.6,0,6.5,1.2,8.6,3.3l-2.3,3c-1.8-1.8-4.3-2.7-6.7-2.7c-2.4,0-3.9,1.2-3.9,2.9c0,4.3,13.5,1.7,13.5,10.3
			c0,3.9-2.7,7.2-9,7.2C148.3,46.8,145.2,45.3,143.1,43.1z"/>
		<path class="st0" d="M166.1,46.4V23.3h10.2c4.9,0,7.5,3.3,7.5,7.3c0,3.9-2.7,7.2-7.5,7.2h-6.1v8.7L166.1,46.4z M179.7,30.5
			c0-2.2-1.6-3.7-3.9-3.7h-5.6v7.3h5.6C178.1,34.2,179.7,32.7,179.7,30.5z"/>
		<path class="st0" d="M187.1,34.8c0-6.9,4.9-12,11.8-12c6.9,0,11.8,5.1,11.8,12s-4.9,12-11.8,12C192,46.8,187.1,41.8,187.1,34.8z
			 M206.6,34.8c0-4.8-3-8.4-7.7-8.4c-4.7,0-7.7,3.6-7.7,8.4c0,4.8,3,8.4,7.7,8.4C203.6,43.2,206.6,39.6,206.6,34.8z"/>
		<path class="st0" d="M231.7,46.4l-12.1-16.6v16.6h-4.1V23.3h4.2l11.8,16v-16h4.1v23.2C235.6,46.4,231.7,46.4,231.7,46.4z"/>
		<path class="st0" d="M241.4,46.4V23.3h4.1v23.2C245.4,46.4,241.4,46.4,241.4,46.4z"/>
		<path class="st0" d="M251.2,46.4V23.3h11.4c4.3,0,6.6,2.6,6.6,5.9c0,2.9-1.9,4.9-4,5.3c2.5,0.4,4.5,2.8,4.5,5.7
			c0,3.6-2.4,6.3-6.7,6.3L251.2,46.4L251.2,46.4z M265,29.8c0-1.7-1.2-3-3.2-3h-6.5v6h6.5C263.9,32.8,265,31.6,265,29.8z
			 M265.5,39.6c0-1.7-1.2-3.2-3.5-3.2h-6.7v6.5h6.7C264.2,42.8,265.5,41.6,265.5,39.6z"/>
		<path class="st0" d="M274.3,46.4V23.3h4.1v19.6h10.2v3.6L274.3,46.4L274.3,46.4L274.3,46.4z"/>
		<path class="st0" d="M293,46.4V23.3h15.9v3.6h-11.8v6h11.6v3.6h-11.6v6.5h11.8v3.6L293,46.4z"/>
		<path class="st0" d="M322.3,43.1l2.3-3.2c1.6,1.7,4.1,3.2,7.3,3.2c3.3,0,4.6-1.6,4.6-3.2c0-4.9-13.5-1.8-13.5-10.3
			c0-3.9,3.3-6.8,8.4-6.8c3.6,0,6.5,1.2,8.6,3.3l-2.3,3c-1.8-1.8-4.3-2.7-6.7-2.7c-2.4,0-3.9,1.2-3.9,2.9c0,4.3,13.5,1.7,13.5,10.3
			c0,3.9-2.7,7.2-9,7.2C327.4,46.8,324.3,45.3,322.3,43.1z"/>
		<path class="st0" d="M345.2,37.2v-14h4.1v13.9c0,3.7,2,6.1,5.9,6.1c3.8,0,5.9-2.4,5.9-6.1V23.3h4.1v14c0,5.7-3.3,9.6-10,9.6
			C348.6,46.8,345.2,43,345.2,37.2z"/>
		<path class="st0" d="M384.3,46.4l-5.1-8.6h-4.1v8.6h-4.1V23.3h10.2c4.6,0,7.6,3,7.6,7.3c0,4.1-2.7,6.4-5.5,6.8l5.7,9.1H384.3z
			 M384.7,30.5c0-2.2-1.7-3.6-4-3.6h-5.6v7.4h5.6C383,34.2,384.7,32.7,384.7,30.5z"/>
	</g>
</g>
</svg>
