<svg id="Calque_1" data-name="Calque 1" xmlns="http://www.w3.org/2000/svg" width="480" height="480" viewBox="0 0 480 480"><defs><style>.cls-1{fill:#99e6d1;}</style></defs><rect class="cls-1" width="480" height="480"/><path d="M147.19385,341.15723,122.1582,366.1925V100.45068a6.25,6.25,0,0,0-12.5,0V366.1925L84.62256,341.15723a6.24968,6.24968,0,0,0-8.83887,8.83789l35.50928,35.5097q.1962.21525.41131.41132l4.20392,4.204,4.20392-4.204q.21534-.1962.41132-.41132l35.50927-35.5097a6.24967,6.24967,0,0,0-8.83886-8.83789Z"/><path d="M404.62207,130.30615,369.1178,94.80188q-.20033-.22028-.42047-.42047l-4.19928-4.19928-4.19928,4.19928q-.22027.20031-.42047.42047L324.374,130.30615a6.24968,6.24968,0,1,0,8.83789,8.83887l25.03614-25.03534V379.85059a6.25,6.25,0,0,0,12.5,0V114.10968L395.78418,139.145a6.24968,6.24968,0,1,0,8.83789-8.83887Z"/><path d="M244.1178,94.80188q-.20032-.22028-.42047-.42047l-4.19928-4.19928-4.20172,4.20166q-.21753.19812-.41541.41547l-35.50738,35.50689a6.25,6.25,0,0,0,8.83886,8.83887l25.03565-25.03528V379.85059a6.25,6.25,0,0,0,12.5,0V114.10968L270.78418,139.145a6.24968,6.24968,0,1,0,8.83789-8.83887Z"/></svg>