<svg xmlns="http://www.w3.org/2000/svg" width="279.501" height="250.249" viewBox="0 0 279.501 250.249">
  <g id="cd44-carte-secteurs" transform="translate(-4.05 -6.85)">
    <g id="secteurs" transform="translate(4.8 7.6)">
      <path id="Tracé_2300" data-name="Tracé 2300" d="M107.075,173.679l7.4,1.495,4.555,1.566,6.761,7.046,1.21.142.783,1.495,2.633.285,3.559,3.915,5.907.5,1.637-1.993,3.7-1.139,3.986-7.615.427-2.064-10.961-10.676.214-1.21-1.352-1.566v-2.776l-1.637,1.566-1-.5-6.477-6.761v-4.7l-6.761,1.85V150.9l-4.555.925-1.779-.5-.285-1.495,1.352-3.345-1.566-3.843.925-3.345-2.064-3.06,2.7-1.352.5-5.267,1.85.854,3.843-1.566,3.914-4.84-4.626-6.121-6.761.641h-4.27l-.641-3.345-2.42-.569-.356-4.84-1.423-.641-4.413.214-1.21-3.132-4.911-3.7L86.506,100.3l-2.135,1.637h.071l-1.566,5.907,1.21,2.206-.427,1.922L75.4,114.463l-1.281,1.281.285,2.847-.285,2.7L72.2,122.719l-3.559-.569L68,120.371l.925-2.278-2.206-.356-3.559.783-4.626,3.63-3.06-1.779,1.068-2.491-.712-.641-3.487.427-3.274-1.21.214,2.42-.712,3.274-1.922,2.562-.071,5.48-7.4,1.637-1.423-2.064H35.475L32.7,131.118l-2.847-.5-1.637-2.349-.356-1.779-1.281.285-1.922,2.562-2.278,1.139-.854,3.559,2.064,2.349-1.352,3.274,3.772,2.064-.142,1.139L20.6,142.79l-1.21-.925-5.551,3.559L8.5,150.263l-3.7,1.566.071,1.068,5.2,2.7,3.274,5.409.925,4.057v1.993l-2.206,5.2-.712-.783-1.495.214-2.847.214-.641,1.637,7.758,2.776,1.85,1.708,5.765,1.352,1.352,1.495,4.982.925-.427-3.63,4.7-2.064,5.907,1.708,2.847,2.42,1.281,3.06,7.331,4.769,4.555-1.068,3.416-3.914,3.843-.641.783-2.206,4.342-1.566.712-1.922,1.566-.641.356-4.057.712.071,1.708,1.922,4.342-2.562,4.982-1.566,7.26.214,4.626-2.064,1.423.214.854,2.064,2.918-2.847,1.139.142-.071,4.27,2.064-.285Z" transform="translate(-4.8 -34.323)" fill="#99e6d1" stroke="#000" stroke-linecap="round" stroke-linejoin="round" stroke-miterlimit="10" stroke-width="1.5"/>
      <path id="Tracé_2301" data-name="Tracé 2301" d="M203.773,262.093l-6.406-.5,1.495-3.06,1.352.285h1.922l-.214-2.349-2.633-3.559.285-1.068,4.342-3.345.285-1.922-2.42-2.135.641-2.7-1.993-1.922.5-1.281-1.993-1.281-3.274.427.285,1.139-2.349.925-3.487,5.907.214,1.708-1.281-.214-4.413,3.559L183.916,249l1.993-2.918-3.487-.214-1.068-1.281-.712,1.068-1.779-3.487-2.633.5h-3.06l-2.918,1.993-2.918-2.491.641-1.566,4.342-3.559-4.413-.071-2.491-2.491-3.345-.925,1.708-2.206-.071-1.352-5.338-.925-1.566-1.352-1.352.854-2.633-.641,1.495-3.345-2.918-3.06-4.911-2.633-.285-3.559L139.433,209l-2.42-2.918-.214-1.85h-.071l-7.473-1.495L123.49,200.6l-2.135.285-.071,3.487-5.694-1.779-.854.854.214.712-2.633,1.068-12.6,1.708s-1.708,1.139-1.993,1.281c-.285.071-3.772.427-3.772.427l-.214,6.406-1.566,1.922,3.559,6.406.214,3.345-.641,1.068-.854,6.406-1.495,2.42-6.619.427-2.42,1.495-.285,1.708L81,242.378l5.053,2.847,6.406.5.641.712,4.84,1.922,4.626.427,2.349-.641.641,1.495,8.541,3.274,3.559,5.48,4.911,3.06,4.128,7.971h1.352l1.495,1.779,2.135,5.48,1.993,1.922,3.7.071.214,4.413,4.413,4.128,3.274,1.495,4.342-.214,3.274.5.641,1.139-.641,3.132-1.139.925,6.619.854,1.566-.641,1.495,1.139,5.053-1.281,1.352,2.206-.712.854,1.708,1.495-.427,2.135,1.281,3.986,2.918,1.139,4.2-1.566,4.413,4.128,3.132-1.281,5.694,1.495.712.712,1.495-.641,3.986,2.135,4.911.925.285-3.132,1.566-.427,2.135.285,4.2-2.349-.5-2.7-3.559-2.7-3.559-5.48,3.274.214,1.139-2.206-.285-1.993-2.349-1.352-1.566-2.633.285-1.281L200,282.235l.641-3.274,1.566-3.06-2.135-2.918,3.487-2.135,2.7-.641,2.206-2.918,1.139-.641-2.989-2.064Z" transform="translate(-26.766 -63.237)" fill="#99e6d1" stroke="#000" stroke-linecap="round" stroke-linejoin="round" stroke-miterlimit="10" stroke-width="1.5"/>
      <path id="Tracé_2302" data-name="Tracé 2302" d="M271.688,205.646l-1.423,3.132-4.7,2.562-2.42,3.2,3.559,5.409-1.779,3.06.854,5.979,5.551.925.427,1.068-3.06,2.7-1.495,3.2-1,.285-1.068,1.139,1.566,1.068-.071,1.708-3.06,4.2-3.274.854-2.7-3.7-2.776.5L251.333,246l-.285,1.922-4.342,3.345-.285,1.068,2.633,3.559.214,2.349h-1.922l-1.352-.356-1.495,3.06,6.406.569,2.42,2.278,3.06,2.064.641-.356,2.349.712.427,1.139,1.21.783-.427,2.42,1.423,4.484.783,1.922-.214,1.779-1.423.427-.569,1.779.569,2.633,2.206,3.7-2.206,5.623,1.423,1.85,1.21.071,7.046-4.84,4.626-.712,1.85-1.566,1,.5,1.21-1.352-.214-2.42,1.21-1.068.071-2.7-2.7-2.135,1.993-3.132-.641-3.986-1.352-2.847L280.158,266l3.2-.712-.356-.854,1.566.5,2.989,2.42,3.487-.071-.214-2.562,2.278-3.63-.854-2.349,1-2.064,3.345-2.135,3.274,4.2,3.416,1.139,5.48,6.263,8.47,2.278,5.2-2.491-.5-3.416L323,260.022l-6.192-1.708-1.993-2.491-1.637-3.487-1.21-.5-8.683-1.21-2.42,1.281-1.423-.5,2.918-2.847,1.139-1.708-.925-2.918.214-1.281-1.281-.854,3.416-2.491,1.85-.142,6.192-5.694,1.708-4.626-2.491-1.637.071-1.779-.854-1.993,1.068-1.068.285-1.068-2.776-.925,1.637-5.48-1.068-.569-1.423-2.42-2.349-.071-.925,1.779-3.487,1.566-3.914-3.06-2.278-2.7-1.352-1.779-.142-4.84-.925-1.922-2.135-1.566-4.484-.712-3.06,1.068-2.562-.854-2.989,1.423Z" transform="translate(-73.899 -62.66)" fill="#99e6d1" stroke="#000" stroke-linecap="round" stroke-linejoin="round" stroke-miterlimit="10" stroke-width="1.5"/>
      <path id="Tracé_2303" data-name="Tracé 2303" d="M254.4,192.261l-2.42.071-1.566-1.068-1.068-1.068-.712-3.559-.356-3.06-5.053.569-1.993,1.21-1.352,2.349-4.555,1.922-7.4-1.281L226.5,191.9l-2.206-1.281.356-2.064-.641-1.779-4.982-5.48-4.413,5.053,1.423,1.566,2.278,5.48-1.352,2.206.427,6.406-1-.641-1,.214-3.63-5.979-4.413-2.989-1.566.854-1.068-.641-1.139,2.562-1.779-.854-3.06,3.487-4.84.641.214,1.993-.427,2.064-3.986,7.615-3.7,1.139-1.637,1.993-5.907-.5-3.559-3.915-2.633-.285-.783-1.495-1.21-.142-6.761-7.046-4.413-1.495.214,1.85,2.42,2.918,6.69,6.334.356,3.559,4.911,2.633,2.989,3.06-1.495,3.345,2.633.641,1.352-.854,1.566,1.352,5.409,1,.071,1.352-1.637,2.206,3.345.925,2.491,2.562,4.413.071-4.27,3.63-.641,1.566,2.918,2.491,2.989-1.993h3.06l2.633-.5,1.779,3.416.712-1,1.068,1.21,3.487.214-1.993,2.989.712,1.637,4.413-3.559,1.281.214-.214-1.708,3.487-5.836,2.278-1-.285-1.139,3.2-.427,1.993,1.281-.5,1.281,1.993,1.85-.641,2.776,2.42,2.064,3.487-3.06,2.776-.5,2.7,3.7,3.274-.854,3.06-4.2.071-1.708-1.566-1.068,1.068-1.139,1-.285,1.495-3.2,3.06-2.7-.427-1.068L241.162,224l-.854-5.979,1.779-3.06-3.559-5.409,2.42-3.2,4.7-2.562,1.423-3.132,6.833-5.409,1.922-.925-.356-1.281Z" transform="translate(-49.281 -57.673)" fill="#99e6d1" stroke="#000" stroke-linecap="round" stroke-linejoin="round" stroke-miterlimit="10" stroke-width="1.5"/>
      <g id="Groupe_2663" data-name="Groupe 2663" transform="translate(77.649)">
        <path id="Tracé_2304" data-name="Tracé 2304" d="M238.452,129.021l-7.544-4.555.712-2.491,1.352-1.922-.5-3.06-1.495-1.068-.214-3.986,1.281-.5,2.847.925,2.918-.854,2.135-3.986h1.922l.5,1.779,1.779-.071v-1.566l-1.352-.854-.854-1.566-3.132.285-3.06-2.135-.285-2.135.5-1.708-4.769-.925-3.274-.925-2.42,2.42-3.7.427-.5-1.779,1.922-1.068.712-1.566-1.068-2.847-5.765-.285.641-2.633.854.214-.427-1.495,1.352.427,2.491-2.491,3.559-1.922,3.772-.925.214-1.352,4.84,1.779,5.48-.854,3.7-1.779V78.488l1.993.5.285.925,7.758,1.566,1.993-1.139,2.349.214-.641-1.352,2.491-3.559,1.779-3.7-.071-2.135,1.993-.854,6.833,1.922,2.847.285,1.352-4.626.427-1.779,4.84-.925,1.495-.854-.071-1.139-3.559-3.7.071-2.349-.925-3.487-1.922.214-1.566-2.42,1.495-3.06-.854-1.708.925-1.779L273.54,42.9l-2.491-3.772.214-2.349-3.772.641a27.541,27.541,0,0,0-2.918-1.495,37.448,37.448,0,0,1-3.487-2.135l-.214-2.918,2.42.071.854-3.559-1.922-1.566.285-3.487-20.284-5.694-.285-1.779-1.922-.854-.641-3.132-1.922-1.922-2.847,1.068-.925-.854-1.068.214-1.495-1.139L226,8.454,224.929,7.6h-2.7L221.8,8.668l1.495,1.922L224.431,15l-.5.854-4.911,1.068-1.352-.5-4.2,4.413-4.84.071L205.57,22.4l-1.708-.427-1.708,1.139-.214,1.779-1.068.925h-2.847l-1.281,1.068.071,1.352-1.993,3.986.285,4.128-1.495.071L190.482,40.2l-3.7-1.281L182.8,40.055l-.925,2.491-3.06-.214-1.068-1.495-2.206-.5-4.128,2.349-4.2-.712L162.8,40.624l-1.139-.854-2.206,1.352-2.633-.925-3.487,3.487-2.206-.285-8.4,2.847-2.7,3.487-1.281.071-1.281-1.068V45.25l-.854-1.566L129.985,51.3l-3.487-.641-2.491,1.566-.641,3.132-5.338.214-2.206,4.84,1.708,1.566.5,3.487-.641,2.135-2.847,1.779.712,4.413-1.352.071,1.922,1.281,2.206-1.637L127,75.855l4.911,3.7,1.139,3.132,4.413-.214,1.495.641.285,4.84,2.42.5L142.3,91.8h4.342l6.761-.641,4.626,6.121-3.915,4.84-3.914,1.566-1.779-.854-.5,5.267-2.7,1.352,2.135,3.06-.925,3.345,1.566,3.772-1.352,3.345.285,1.495,1.779.5,4.555-.925v1.708l6.761-1.922v4.769l6.548,6.761.925.5,1.708-1.566v2.7l1.352,1.566-.214,1.281,10.961,10.6-.214-1.993,4.84-.641,3.06-3.487,1.779.854,1.139-2.491,1.068.641,1.566-.854,4.413,2.918,3.559,5.979,1.068-.214.925.641-.427-6.406,1.352-2.206-2.349-5.48-1.352-1.566,4.413-5.053,4.911,5.48.641,1.779-.285,2.135,2.206,1.281,1.352-3.559,7.473,1.281,4.555-1.922,1.352-2.349,1.993-1.281,5.053-.5,1.495-2.847Z" transform="translate(-113.9 -7.6)" fill="#99e6d1" stroke="#000" stroke-linecap="round" stroke-linejoin="round" stroke-miterlimit="10" stroke-width="1.5"/>
        <path id="Tracé_2305" data-name="Tracé 2305" d="M355.225,140.726l.712-.5-1.566-1.495-.214-1.281-.712-.925-.071-.925,1.495-.214,1.139.214.071-1.495-1.352-2.206.214-4.2-2.633-3.772.071-1.495,1.708-1.708-1.068-2.633-1.566-.427-1.566.641-2.42-.427-1.566.925-.925-.5h-.712l-1.495-2.42-2.633-1.566-1.708-.071.214-2.847,1.281-2.206.285-2.135-.285-2.206.427-1.708-2.491.285-.285-1.993L337.5,99.3l1.993.5.5-.712-.925-.925,2.633-.712,1.352-1.281h.925l.5-1.708,1.281-.712.071-1.281L344.336,91.4l-1.708-.641-.5-.854-1.495-.071s-.641-.925-.925-.925a13.079,13.079,0,0,0-1.708.5l-1.566.071-3.06-1.068-2.491-1.708-.427-1.281-1.779-.925-2.633.214L323.2,85l-1.495.854-4.84.925-.427,1.779-1.352,4.626-2.847-.285L305.4,90.977l-1.993.854.071,2.135-1.779,3.7-2.491,3.559.641,1.352-2.349-.214-1.993,1.139-7.758-1.566-.285-.925-1.993-.5V104l-3.7,1.779-5.48.854-4.84-1.779-.214,1.352-3.772.925-3.559,1.922-2.491,2.491-1.352-.427.427,1.495-.854-.214L259,115.033l5.765.285,1.068,2.847-.712,1.566L263.2,120.8l.5,1.779,3.7-.427,2.42-2.42,3.274.925,4.769.925-.5,1.708.285,2.135,3.06,2.135,3.132-.285.854,1.566,1.352.854v1.566l-1.779.071-.5-1.779h-1.922l-2.135,3.986-2.918.854-2.847-.925-1.281.5.214,3.986,1.495,1.068.5,3.06L273.519,144l-.712,2.491,7.544,4.555-1.708,1.708-1.495,2.847.285,3.06.712,3.559,1.068,1.068,1.566,1.068,2.42-.071,1.068.854.356,1.281,1.068-.5,2.135-2.135,1.068-1.779,2.918-.641.071-.925,1.495-1.281,3.274-2.7,6.121-.071,3.06-.925,1.708-1.139,1.779.071.712-.925.925.427.214.925,1.495-.925,2.135-.641,2.206-1.281.641-1.993,2.847.214,1.495-.925.925.854.712-.641,1.281.5,2.847-.214.925.427,2.633-1.068,5.551.214,2.135.925,2.491.214,1.139-.712,1.993.285s.854-.854,1.139-.854h1.566l.925-1.068.712.5,2.135.071,4.911-3.772-.854-.712-.071-1.281.925-.427Z" transform="translate(-155.728 -29.768)" fill="#99e6d1" stroke="#000" stroke-linecap="round" stroke-linejoin="round" stroke-miterlimit="10" stroke-width="1.5"/>
      </g>
    </g>
    <g id="villes_noms" transform="translate(45.582 66.033)">
      <g id="Groupe_2664" data-name="Groupe 2664" transform="translate(105.905 93.165)">
        <path id="Tracé_2306" data-name="Tracé 2306" d="M210.9,221.3h1.993a2.808,2.808,0,0,1,2.064.712,3.146,3.146,0,0,1,0,3.986,2.808,2.808,0,0,1-2.064.712H210.9Zm1.922,4.626a1.923,1.923,0,0,0,0-3.843H211.9v3.843Z" transform="translate(-210.9 -220.802)"/>
        <path id="Tracé_2307" data-name="Tracé 2307" d="M222.159,224.586h-2.633a1.585,1.585,0,0,0,.285.925,1.04,1.04,0,0,0,.854.285,1.745,1.745,0,0,0,1.139-.427l.285.641a2.886,2.886,0,0,1-.641.356,3.672,3.672,0,0,1-.783.142,1.847,1.847,0,0,1-2.064-1.922,2.856,2.856,0,0,1,.214-1.068,1.558,1.558,0,0,1,.641-.712,2.057,2.057,0,0,1,1-.285,1.715,1.715,0,0,1,1.281.5,2.125,2.125,0,0,1,.427,1.423Zm-2.278-1.139a.9.9,0,0,0-.285.641h1.779a.9.9,0,0,0-.285-.641.808.808,0,0,0-.569-.214A.87.87,0,0,0,219.881,223.447Zm.854-1.281h-.641l.783-1.566h1Z" transform="translate(-213.12 -220.6)"/>
        <path id="Tracé_2308" data-name="Tracé 2308" d="M224.7,226.623V221h.925v5.623Z" transform="translate(-214.878 -220.715)"/>
        <path id="Tracé_2309" data-name="Tracé 2309" d="M230.759,224.586h-2.633a1.585,1.585,0,0,0,.285.925,1.04,1.04,0,0,0,.854.285,1.745,1.745,0,0,0,1.139-.427l.285.641a2.886,2.886,0,0,1-.641.356,3.673,3.673,0,0,1-.783.142,1.847,1.847,0,0,1-2.064-1.922,2.856,2.856,0,0,1,.214-1.068,1.558,1.558,0,0,1,.641-.712,2.057,2.057,0,0,1,1-.285,1.715,1.715,0,0,1,1.281.5,2.125,2.125,0,0,1,.427,1.423Zm-2.278-1.139a.9.9,0,0,0-.285.641h1.779a.9.9,0,0,0-.285-.641.808.808,0,0,0-.569-.214A.87.87,0,0,0,228.481,223.447Zm.925-1.281h-.641l.783-1.566h1Z" transform="translate(-215.599 -220.6)"/>
        <path id="Tracé_2310" data-name="Tracé 2310" d="M236.986,223.5v3.7a1.674,1.674,0,0,1-.5,1.352,2.143,2.143,0,0,1-1.423.5,3.623,3.623,0,0,1-1.566-.356l.142-.712a3.5,3.5,0,0,0,1.423.356.871.871,0,0,0,1-1v-.783a1.663,1.663,0,0,1-.5.5,1.435,1.435,0,0,1-.783.214,1.97,1.97,0,0,1-.925-.214,1.4,1.4,0,0,1-.641-.641,2.432,2.432,0,0,1,0-1.993,1.4,1.4,0,0,1,.641-.641,1.97,1.97,0,0,1,.925-.214,1.435,1.435,0,0,1,.783.214,1.663,1.663,0,0,1,.5.5v-.569h.925Zm-1.21,2.633a1.423,1.423,0,0,0,0-1.708,1.032,1.032,0,0,0-1.423,0,1.424,1.424,0,0,0,0,1.708,1.032,1.032,0,0,0,1.423,0Z" transform="translate(-217.271 -221.436)"/>
        <path id="Tracé_2311" data-name="Tracé 2311" d="M243.672,223.414v3.843h-.925v-.641a1.663,1.663,0,0,1-.5.5,1.283,1.283,0,0,1-.712.142,1.518,1.518,0,0,1-.854-.214,1.421,1.421,0,0,1-.569-.712,2.377,2.377,0,0,1-.214-1.068,2.6,2.6,0,0,1,.214-1.068,1.938,1.938,0,0,1,.569-.712,1.744,1.744,0,0,1,.854-.285,1.2,1.2,0,0,1,.712.214,1.663,1.663,0,0,1,.5.5v-.569h.925Zm-1.21,2.847a1.585,1.585,0,0,0,.285-.925,1.208,1.208,0,0,0-.285-.925.988.988,0,0,0-.712-.356.876.876,0,0,0-.712.356,1.78,1.78,0,0,0-.285.925,1.208,1.208,0,0,0,.285.925,1.032,1.032,0,0,0,1.423,0Z" transform="translate(-219.26 -221.35)"/>
        <path id="Tracé_2312" data-name="Tracé 2312" d="M247.608,223.693V225.4a.566.566,0,0,0,.641.641.642.642,0,0,0,.356-.071v.783a1.579,1.579,0,0,1-.641.071,1.408,1.408,0,0,1-1-.356,1.473,1.473,0,0,1-.356-1.068v-1.779H245.9v-.712h.712v-.925l.925-.285v1.281h1v.712Z" transform="translate(-220.99 -220.917)"/>
        <path id="Tracé_2313" data-name="Tracé 2313" d="M250.6,221h1.068v.925H250.6Zm.071,5.623v-3.843h.925v3.843Z" transform="translate(-222.344 -220.715)"/>
        <path id="Tracé_2314" data-name="Tracé 2314" d="M254.025,227.072a2.262,2.262,0,0,1-.712-.712,2.776,2.776,0,0,1,0-2.135,1.706,1.706,0,0,1,.712-.712,1.978,1.978,0,0,1,2.7.712,1.7,1.7,0,0,1,.214,1.068,2.377,2.377,0,0,1-.214,1.068,1.707,1.707,0,0,1-.712.712,2.273,2.273,0,0,1-1,.214A1.7,1.7,0,0,1,254.025,227.072Zm1.779-.783a1.584,1.584,0,0,0,.285-.925,1.208,1.208,0,0,0-.285-.925.89.89,0,0,0-1.423,0,1.585,1.585,0,0,0-.285.925,1.208,1.208,0,0,0,.285.925.914.914,0,0,0,.712.285A.825.825,0,0,0,255.8,226.289Z" transform="translate(-223.065 -221.378)"/>
        <path id="Tracé_2315" data-name="Tracé 2315" d="M263.33,224.937v2.349H262.4v-2.278a1.421,1.421,0,0,0-.142-.641.7.7,0,0,0-.569-.214.973.973,0,0,0-1,1v2.206h-.925V224.51a4.713,4.713,0,0,0-.071-1.068h.854l.071.641a1.457,1.457,0,0,1,.569-.569,1.435,1.435,0,0,1,.783-.214C262.832,223.3,263.33,223.869,263.33,224.937Z" transform="translate(-224.968 -221.378)"/>
        <path id="Tracé_2316" data-name="Tracé 2316" d="M224.03,235.3h.925v5.409h-.712l-2.918-3.772v3.772H220.4V235.3h.712l2.918,3.772Z" transform="translate(-213.639 -224.838)"/>
        <path id="Tracé_2317" data-name="Tracé 2317" d="M231.972,237.414v3.843h-.925v-.641a1.663,1.663,0,0,1-.5.5,1.283,1.283,0,0,1-.712.142,1.518,1.518,0,0,1-.854-.214,1.421,1.421,0,0,1-.569-.712,2.377,2.377,0,0,1-.214-1.068,2.6,2.6,0,0,1,.214-1.068,1.938,1.938,0,0,1,.569-.712,1.744,1.744,0,0,1,.854-.285,1.2,1.2,0,0,1,.712.214,1.663,1.663,0,0,1,.5.5v-.569h.925Zm-1.139,2.847a1.584,1.584,0,0,0,.285-.925,1.208,1.208,0,0,0-.285-.925.988.988,0,0,0-.712-.356.876.876,0,0,0-.712.356,1.78,1.78,0,0,0-.285.925,1.208,1.208,0,0,0,.285.925.825.825,0,0,0,.712.285A.914.914,0,0,0,230.833,240.26Z" transform="translate(-215.887 -225.385)"/>
        <path id="Tracé_2318" data-name="Tracé 2318" d="M238.53,238.937v2.349H237.6v-2.278a1.421,1.421,0,0,0-.142-.641.7.7,0,0,0-.569-.214.973.973,0,0,0-1,1v2.206h-.925V238.51a4.713,4.713,0,0,0-.071-1.068h.854l.071.641a1.457,1.457,0,0,1,.569-.569,1.435,1.435,0,0,1,.783-.214C238.1,237.3,238.53,237.869,238.53,238.937Z" transform="translate(-217.819 -225.414)"/>
        <path id="Tracé_2319" data-name="Tracé 2319" d="M242.408,237.693V239.4a.566.566,0,0,0,.641.641.641.641,0,0,0,.356-.071v.783a1.579,1.579,0,0,1-.641.071,1.408,1.408,0,0,1-1-.356,1.473,1.473,0,0,1-.356-1.068v-1.779H240.7v-.712h.712v-.925l.925-.285v1.281h1v.712Z" transform="translate(-219.491 -224.953)"/>
        <path id="Tracé_2320" data-name="Tracé 2320" d="M248.759,239.364h-2.633a1.585,1.585,0,0,0,.285.925,1.04,1.04,0,0,0,.854.285,1.745,1.745,0,0,0,1.139-.427l.285.641a2.886,2.886,0,0,1-.641.356,3.673,3.673,0,0,1-.783.142,1.847,1.847,0,0,1-2.064-1.922,2.856,2.856,0,0,1,.214-1.068,1.558,1.558,0,0,1,.641-.712,2.057,2.057,0,0,1,1-.285,1.715,1.715,0,0,1,1.281.5,2.125,2.125,0,0,1,.427,1.423Zm-2.349-1.139a.9.9,0,0,0-.285.641H247.9a.9.9,0,0,0-.285-.641.808.808,0,0,0-.569-.214A.993.993,0,0,0,246.41,238.225Z" transform="translate(-220.788 -225.414)"/>
        <path id="Tracé_2321" data-name="Tracé 2321" d="M250.9,240.859l.285-.641a2.4,2.4,0,0,0,1.423.427.83.83,0,0,0,.5-.142.381.381,0,0,0,.214-.285.37.37,0,0,0-.142-.285,1.159,1.159,0,0,0-.427-.214l-.641-.142q-1.068-.214-1.068-1.068a1.148,1.148,0,0,1,.214-.641.884.884,0,0,1,.569-.427,2.654,2.654,0,0,1,.854-.142,2.559,2.559,0,0,1,.783.142,1.866,1.866,0,0,1,.641.356l-.285.641a1.933,1.933,0,0,0-1.21-.427,1.029,1.029,0,0,0-.5.142.391.391,0,0,0-.214.356.37.37,0,0,0,.142.285.544.544,0,0,0,.356.142l.641.142a1.623,1.623,0,0,1,.854.427,1.265,1.265,0,0,1,.285.712,1.015,1.015,0,0,1-.427.854,1.806,1.806,0,0,1-1.139.285A3.037,3.037,0,0,1,250.9,240.859Z" transform="translate(-222.431 -225.414)"/>
      </g>
      <g id="Groupe_2665" data-name="Groupe 2665" transform="translate(175.156 30.675)">
        <path id="Tracé_2322" data-name="Tracé 2322" d="M308.2,133.5h1.993a2.808,2.808,0,0,1,2.064.712,3.146,3.146,0,0,1,0,3.986,2.808,2.808,0,0,1-2.064.712H308.2Zm1.993,4.626a1.923,1.923,0,0,0,0-3.843h-.925v3.843Z" transform="translate(-308.2 -133.002)"/>
        <path id="Tracé_2323" data-name="Tracé 2323" d="M319.559,136.857h-2.633a1.585,1.585,0,0,0,.285.925,1.039,1.039,0,0,0,.854.285,1.745,1.745,0,0,0,1.139-.427l.285.641a2.884,2.884,0,0,1-.641.356,3.671,3.671,0,0,1-.783.142A1.847,1.847,0,0,1,316,136.857a2.856,2.856,0,0,1,.214-1.068,1.558,1.558,0,0,1,.641-.712,2.057,2.057,0,0,1,1-.285,1.715,1.715,0,0,1,1.281.5,2.125,2.125,0,0,1,.427,1.423Zm-2.278-1.21a.9.9,0,0,0-.285.641h1.779a.9.9,0,0,0-.285-.641.808.808,0,0,0-.569-.214A.87.87,0,0,0,317.281,135.647Zm.854-1.281h-.641l.783-1.566h1Z" transform="translate(-310.449 -132.8)"/>
        <path id="Tracé_2324" data-name="Tracé 2324" d="M322.1,138.823V133.2h.925v5.623Z" transform="translate(-312.207 -132.915)"/>
        <path id="Tracé_2325" data-name="Tracé 2325" d="M328.159,136.857h-2.633a1.585,1.585,0,0,0,.285.925,1.039,1.039,0,0,0,.854.285,1.745,1.745,0,0,0,1.139-.427l.285.641a2.884,2.884,0,0,1-.641.356,3.671,3.671,0,0,1-.783.142,1.847,1.847,0,0,1-2.064-1.922,2.856,2.856,0,0,1,.214-1.068,1.558,1.558,0,0,1,.641-.712,2.058,2.058,0,0,1,1-.285,1.715,1.715,0,0,1,1.281.5,2.125,2.125,0,0,1,.427,1.423Zm-2.278-1.21a.9.9,0,0,0-.285.641h1.779a.9.9,0,0,0-.285-.641.808.808,0,0,0-.569-.214A.87.87,0,0,0,325.881,135.647Zm.854-1.281h-.641l.783-1.566h1Z" transform="translate(-312.928 -132.8)"/>
        <path id="Tracé_2326" data-name="Tracé 2326" d="M334.386,135.7v3.7a1.674,1.674,0,0,1-.5,1.352,2.143,2.143,0,0,1-1.423.5,3.623,3.623,0,0,1-1.566-.356l.142-.712a3.5,3.5,0,0,0,1.423.356.871.871,0,0,0,1-1v-.783a1.662,1.662,0,0,1-.5.5,1.435,1.435,0,0,1-.783.214,1.97,1.97,0,0,1-.925-.214,1.4,1.4,0,0,1-.641-.641,2.432,2.432,0,0,1,0-1.993,1.4,1.4,0,0,1,.641-.641,1.97,1.97,0,0,1,.925-.214,1.435,1.435,0,0,1,.783.214,1.663,1.663,0,0,1,.5.5v-.569h.925Zm-1.21,2.633a1.424,1.424,0,0,0,0-1.708,1.032,1.032,0,0,0-1.423,0,1.424,1.424,0,0,0,0,1.708,1.032,1.032,0,0,0,1.423,0Z" transform="translate(-314.6 -133.636)"/>
        <path id="Tracé_2327" data-name="Tracé 2327" d="M340.972,135.642v3.843h-.925v-.641a1.664,1.664,0,0,1-.5.5,1.373,1.373,0,0,1-.712.214,1.518,1.518,0,0,1-.854-.214,1.421,1.421,0,0,1-.569-.712,2.377,2.377,0,0,1-.214-1.068,2.6,2.6,0,0,1,.214-1.068,1.938,1.938,0,0,1,.569-.712,1.743,1.743,0,0,1,.854-.285,1.2,1.2,0,0,1,.712.214,1.664,1.664,0,0,1,.5.5v-.569Zm-1.139,2.847a1.585,1.585,0,0,0,.285-.925,1.208,1.208,0,0,0-.285-.925.988.988,0,0,0-.712-.356.876.876,0,0,0-.712.356,1.78,1.78,0,0,0-.285.925,1.208,1.208,0,0,0,.285.925.825.825,0,0,0,.712.285A.914.914,0,0,0,339.833,138.489Z" transform="translate(-316.56 -133.578)"/>
        <path id="Tracé_2328" data-name="Tracé 2328" d="M345.008,135.893V137.6a.566.566,0,0,0,.641.641.642.642,0,0,0,.356-.071v.783a1.58,1.58,0,0,1-.641.071,1.408,1.408,0,0,1-1-.356,1.473,1.473,0,0,1-.356-1.068v-1.779H343.3v-.712h.712v-.925l.925-.285v1.281h1v.712Z" transform="translate(-318.318 -133.117)"/>
        <path id="Tracé_2329" data-name="Tracé 2329" d="M348,133.2h1.068v.925H348Zm0,5.623v-3.843h.925v3.843Z" transform="translate(-319.673 -132.915)"/>
        <path id="Tracé_2330" data-name="Tracé 2330" d="M351.425,139.272a2.262,2.262,0,0,1-.712-.712,2.776,2.776,0,0,1,0-2.135,1.788,1.788,0,0,1,1.708-.925,1.788,1.788,0,0,1,1.708.925,2.776,2.776,0,0,1,0,2.135,1.706,1.706,0,0,1-.712.712,2.273,2.273,0,0,1-1,.214A1.589,1.589,0,0,1,351.425,139.272Zm1.779-.783a1.584,1.584,0,0,0,.285-.925,1.208,1.208,0,0,0-.285-.925.988.988,0,0,0-.712-.356.876.876,0,0,0-.712.356,1.584,1.584,0,0,0-.285.925,1.208,1.208,0,0,0,.285.925,1.032,1.032,0,0,0,1.423,0Z" transform="translate(-320.394 -133.578)"/>
        <path id="Tracé_2331" data-name="Tracé 2331" d="M360.73,137.166v2.349H359.8v-2.278a1.421,1.421,0,0,0-.142-.641.7.7,0,0,0-.569-.214.973.973,0,0,0-1,1v2.206h-.925V136.81a4.713,4.713,0,0,0-.071-1.068h.854l.071.641a1.457,1.457,0,0,1,.569-.569,1.435,1.435,0,0,1,.783-.214C360.232,135.6,360.73,136.1,360.73,137.166Z" transform="translate(-322.297 -133.607)"/>
        <path id="Tracé_2332" data-name="Tracé 2332" d="M319.769,152.909l-.569-1.281h-2.633L316,152.909h-1l2.42-5.409h.783l2.42,5.409Zm-2.918-2.064h1.993l-1-2.278Z" transform="translate(-310.16 -137.038)"/>
        <path id="Tracé_2333" data-name="Tracé 2333" d="M327.33,151.166v2.349H326.4v-2.278a1.421,1.421,0,0,0-.142-.641.7.7,0,0,0-.569-.214.973.973,0,0,0-1,1v2.206h-.925V150.81a4.713,4.713,0,0,0-.071-1.068h.854l.071.641a1.457,1.457,0,0,1,.569-.569,1.435,1.435,0,0,1,.783-.214C326.832,149.6,327.33,150.1,327.33,151.166Z" transform="translate(-312.668 -137.643)"/>
        <path id="Tracé_2334" data-name="Tracé 2334" d="M330.854,153.243a1.273,1.273,0,0,1-.641-.712,2.776,2.776,0,0,1,0-2.135,1.715,1.715,0,0,1,.712-.712,2.358,2.358,0,0,1,1.068-.285,2.559,2.559,0,0,1,.783.142,1.867,1.867,0,0,1,.641.356l-.285.641a1.784,1.784,0,0,0-.5-.285,1.567,1.567,0,0,0-.569-.071.918.918,0,0,0-.783.356,1.646,1.646,0,0,0,0,1.85.972.972,0,0,0,.783.285,1.769,1.769,0,0,0,.569-.071,1.148,1.148,0,0,0,.5-.285l.285.641a1.377,1.377,0,0,1-.641.356,3.027,3.027,0,0,1-.783.142A1.821,1.821,0,0,1,330.854,153.243Z" transform="translate(-314.484 -137.585)"/>
        <path id="Tracé_2335" data-name="Tracé 2335" d="M338.859,151.664h-2.633a1.585,1.585,0,0,0,.285.925,1.04,1.04,0,0,0,.854.285,1.745,1.745,0,0,0,1.139-.427l.285.641a2.886,2.886,0,0,1-.641.356,3.672,3.672,0,0,1-.783.142,1.847,1.847,0,0,1-2.064-1.922,2.856,2.856,0,0,1,.214-1.068,1.558,1.558,0,0,1,.641-.712,2.057,2.057,0,0,1,1-.285,1.715,1.715,0,0,1,1.281.5,2.125,2.125,0,0,1,.427,1.423v.142Zm-2.349-1.21a.9.9,0,0,0-.285.641H338a.9.9,0,0,0-.285-.641.808.808,0,0,0-.569-.214A.994.994,0,0,0,336.51,150.454Z" transform="translate(-316.012 -137.643)"/>
        <path id="Tracé_2336" data-name="Tracé 2336" d="M344.93,151.166v2.349H344v-2.278a1.421,1.421,0,0,0-.142-.641.7.7,0,0,0-.569-.214.973.973,0,0,0-1,1v2.206h-.925V150.81a4.713,4.713,0,0,0-.071-1.068h.854l.071.641a1.457,1.457,0,0,1,.569-.569,1.435,1.435,0,0,1,.783-.214C344.5,149.6,344.93,150.1,344.93,151.166Z" transform="translate(-317.742 -137.643)"/>
        <path id="Tracé_2337" data-name="Tracé 2337" d="M347.7,147.2h1.068v.925H347.7Zm.071,5.623v-3.843h.925v3.843Z" transform="translate(-319.587 -136.951)"/>
        <path id="Tracé_2338" data-name="Tracé 2338" d="M350.3,153.059l.285-.641a2.4,2.4,0,0,0,1.423.427.83.83,0,0,0,.5-.142.381.381,0,0,0,.214-.285.37.37,0,0,0-.142-.285,1.159,1.159,0,0,0-.427-.214l-.641-.142q-1.068-.214-1.068-1.068a1.148,1.148,0,0,1,.214-.641,1.207,1.207,0,0,1,.569-.427,2.655,2.655,0,0,1,.854-.142,2.559,2.559,0,0,1,.783.142,1.376,1.376,0,0,1,.641.356l-.285.641a1.933,1.933,0,0,0-1.21-.427,1.029,1.029,0,0,0-.5.142.391.391,0,0,0-.214.356.37.37,0,0,0,.142.285.544.544,0,0,0,.356.142l.641.142a1.623,1.623,0,0,1,.854.427,1.264,1.264,0,0,1,.285.712,1.015,1.015,0,0,1-.427.854,1.806,1.806,0,0,1-1.139.285A2.711,2.711,0,0,1,350.3,153.059Z" transform="translate(-320.336 -137.614)"/>
      </g>
      <g id="Groupe_2666" data-name="Groupe 2666" transform="translate(0 45.835)">
        <path id="Tracé_2339" data-name="Tracé 2339" d="M70.1,154.8h1.993a2.808,2.808,0,0,1,2.064.712,3.146,3.146,0,0,1,0,3.986,2.808,2.808,0,0,1-2.064.712H70.1Zm1.922,4.555a1.923,1.923,0,0,0,0-3.843H71.1v3.843Z" transform="translate(-64.406 -154.302)"/>
        <path id="Tracé_2340" data-name="Tracé 2340" d="M81.459,158.086H78.825a1.585,1.585,0,0,0,.285.925,1.04,1.04,0,0,0,.854.285,1.745,1.745,0,0,0,1.139-.427l.285.641a2.885,2.885,0,0,1-.641.356,3.672,3.672,0,0,1-.783.142,1.847,1.847,0,0,1-2.064-1.922,2.856,2.856,0,0,1,.214-1.068,1.558,1.558,0,0,1,.641-.712,2.057,2.057,0,0,1,1-.285,1.715,1.715,0,0,1,1.281.5,2.125,2.125,0,0,1,.427,1.423v.142Zm-2.349-1.139a.9.9,0,0,0-.285.641H80.6a.9.9,0,0,0-.285-.641.808.808,0,0,0-.569-.214A1.148,1.148,0,0,0,79.11,156.947Zm.925-1.281h-.641l.783-1.566h1Z" transform="translate(-66.655 -154.1)"/>
        <path id="Tracé_2341" data-name="Tracé 2341" d="M84,160.123V154.5h.925v5.623Z" transform="translate(-68.413 -154.215)"/>
        <path id="Tracé_2342" data-name="Tracé 2342" d="M90.059,158.086H87.425a1.585,1.585,0,0,0,.285.925,1.04,1.04,0,0,0,.854.285,1.745,1.745,0,0,0,1.139-.427l.285.641a2.885,2.885,0,0,1-.641.356,3.672,3.672,0,0,1-.783.142,1.847,1.847,0,0,1-2.064-1.922,2.856,2.856,0,0,1,.214-1.068,1.558,1.558,0,0,1,.641-.712,2.057,2.057,0,0,1,1-.285,1.715,1.715,0,0,1,1.281.5,2.125,2.125,0,0,1,.427,1.423v.142Zm-2.278-1.139a.9.9,0,0,0-.285.641h1.779a.9.9,0,0,0-.285-.641.808.808,0,0,0-.569-.214A.87.87,0,0,0,87.781,156.947Zm.854-1.281h-.641l.783-1.566h1Z" transform="translate(-69.134 -154.1)"/>
        <path id="Tracé_2343" data-name="Tracé 2343" d="M96.286,157v3.7a1.674,1.674,0,0,1-.5,1.352,2.143,2.143,0,0,1-1.423.5A3.623,3.623,0,0,1,92.8,162.2l.142-.712a3.5,3.5,0,0,0,1.423.356.871.871,0,0,0,1-1v-.783a1.663,1.663,0,0,1-.5.5,1.435,1.435,0,0,1-.783.214,1.97,1.97,0,0,1-.925-.214,1.4,1.4,0,0,1-.641-.641,2.432,2.432,0,0,1,0-1.993,1.4,1.4,0,0,1,.641-.641,1.97,1.97,0,0,1,.925-.214,1.435,1.435,0,0,1,.783.214,1.663,1.663,0,0,1,.5.5V157ZM95,159.633a1.423,1.423,0,0,0,0-1.708,1.032,1.032,0,0,0-1.423,0,1.423,1.423,0,0,0,0,1.708.914.914,0,0,0,.712.285A.825.825,0,0,0,95,159.633Z" transform="translate(-70.806 -154.936)"/>
        <path id="Tracé_2344" data-name="Tracé 2344" d="M102.872,156.942v3.843h-.925v-.641a1.663,1.663,0,0,1-.5.5,1.373,1.373,0,0,1-.712.214,1.518,1.518,0,0,1-.854-.214,1.421,1.421,0,0,1-.569-.712,2.377,2.377,0,0,1-.214-1.068,2.6,2.6,0,0,1,.214-1.068,1.938,1.938,0,0,1,.569-.712,1.744,1.744,0,0,1,.854-.285,1.2,1.2,0,0,1,.712.214,1.663,1.663,0,0,1,.5.5v-.569Zm-1.139,2.776a1.585,1.585,0,0,0,.285-.925,1.208,1.208,0,0,0-.285-.925.988.988,0,0,0-.712-.356.876.876,0,0,0-.712.356,1.78,1.78,0,0,0-.285.925,1.208,1.208,0,0,0,.285.925.825.825,0,0,0,.712.285A.727.727,0,0,0,101.733,159.718Z" transform="translate(-72.766 -154.878)"/>
        <path id="Tracé_2345" data-name="Tracé 2345" d="M106.908,157.222v1.708a.566.566,0,0,0,.641.641.642.642,0,0,0,.356-.071v.783a1.58,1.58,0,0,1-.641.071,1.408,1.408,0,0,1-1-.356,1.473,1.473,0,0,1-.356-1.068v-1.708H105.2v-.712h.712v-.925l.925-.285v1.281h1v.712h-.925Z" transform="translate(-74.525 -154.446)"/>
        <path id="Tracé_2346" data-name="Tracé 2346" d="M109.9,154.5h1.068v.925H109.9Zm0,5.623v-3.843h.925v3.843Z" transform="translate(-75.879 -154.215)"/>
        <path id="Tracé_2347" data-name="Tracé 2347" d="M113.325,160.572a2.262,2.262,0,0,1-.712-.712,2.776,2.776,0,0,1,0-2.135,1.788,1.788,0,0,1,1.708-.925,1.788,1.788,0,0,1,1.708.925,2.776,2.776,0,0,1,0,2.135,1.706,1.706,0,0,1-.712.712,2.432,2.432,0,0,1-1.993,0Zm1.779-.783a1.585,1.585,0,0,0,.285-.925,1.208,1.208,0,0,0-.285-.925.988.988,0,0,0-.712-.356.876.876,0,0,0-.712.356,1.585,1.585,0,0,0-.285.925,1.208,1.208,0,0,0,.285.925,1.032,1.032,0,0,0,1.423,0Z" transform="translate(-76.6 -154.878)"/>
        <path id="Tracé_2348" data-name="Tracé 2348" d="M122.53,158.463v2.349H121.6v-2.278a1.421,1.421,0,0,0-.142-.641.7.7,0,0,0-.569-.214.973.973,0,0,0-1,1v2.206h-.925v-2.776a4.712,4.712,0,0,0-.071-1.068h.854l.071.641a1.457,1.457,0,0,1,.569-.569,1.435,1.435,0,0,1,.783-.214C122.1,156.826,122.53,157.4,122.53,158.463Z" transform="translate(-78.474 -154.905)"/>
        <path id="Tracé_2349" data-name="Tracé 2349" d="M63.025,174.009a3.835,3.835,0,0,1-.925-.5l.356-.712a2.4,2.4,0,0,0,.854.427,3.606,3.606,0,0,0,.925.142,1.518,1.518,0,0,0,.854-.214.578.578,0,0,0,.285-.569.537.537,0,0,0-.285-.5,2.365,2.365,0,0,0-.925-.285,4.36,4.36,0,0,1-1.495-.569,1.245,1.245,0,0,1-.5-1,1.368,1.368,0,0,1,.285-.854,1.808,1.808,0,0,1,.712-.569,2.6,2.6,0,0,1,1.068-.214,5.494,5.494,0,0,1,1.068.142,2.461,2.461,0,0,1,.854.5l-.356.712a2.645,2.645,0,0,0-1.566-.569,1.518,1.518,0,0,0-.854.214.647.647,0,0,0-.285.569.537.537,0,0,0,.285.5,2.365,2.365,0,0,0,.925.285,3.751,3.751,0,0,1,1.068.356,1.55,1.55,0,0,1,.641.5,1.2,1.2,0,0,1,.214.712,1.134,1.134,0,0,1-.285.854,1.938,1.938,0,0,1-.712.569,2.95,2.95,0,0,1-1.139.214A1.941,1.941,0,0,1,63.025,174.009Z" transform="translate(-62.1 -158.28)"/>
        <path id="Tracé_2350" data-name="Tracé 2350" d="M72.872,170.942v3.843h-.925v-.641a1.663,1.663,0,0,1-.5.5,1.373,1.373,0,0,1-.712.214,1.518,1.518,0,0,1-.854-.214,1.421,1.421,0,0,1-.569-.712,2.377,2.377,0,0,1-.214-1.068,2.6,2.6,0,0,1,.214-1.068,1.938,1.938,0,0,1,.569-.712,1.744,1.744,0,0,1,.854-.285,1.2,1.2,0,0,1,.712.214,1.663,1.663,0,0,1,.5.5v-.569Zm-1.139,2.776a1.585,1.585,0,0,0,.285-.925,1.208,1.208,0,0,0-.285-.925.988.988,0,0,0-.712-.356.876.876,0,0,0-.712.356,1.78,1.78,0,0,0-.285.925,1.208,1.208,0,0,0,.285.925.825.825,0,0,0,.712.285A.727.727,0,0,0,71.733,173.718Z" transform="translate(-64.118 -158.914)"/>
        <path id="Tracé_2351" data-name="Tracé 2351" d="M75.8,168.5h1.068v.925H75.8Zm.071,5.623v-3.843H76.8v3.843Z" transform="translate(-66.049 -158.251)"/>
        <path id="Tracé_2352" data-name="Tracé 2352" d="M82.23,172.463v2.349H81.3v-2.278a1.421,1.421,0,0,0-.142-.641.7.7,0,0,0-.569-.214.973.973,0,0,0-1,1v2.206h-.925v-2.776a4.713,4.713,0,0,0-.071-1.068h.854l.071.641a1.457,1.457,0,0,1,.569-.569,1.435,1.435,0,0,1,.783-.214C81.732,170.826,82.23,171.4,82.23,172.463Z" transform="translate(-66.857 -158.941)"/>
        <path id="Tracé_2353" data-name="Tracé 2353" d="M86.108,171.222v1.708a.566.566,0,0,0,.641.641.642.642,0,0,0,.356-.071v.783a1.58,1.58,0,0,1-.641.071,1.408,1.408,0,0,1-1-.356,1.473,1.473,0,0,1-.356-1.068v-1.708H84.4v-.712h.712v-.925l.925-.285v1.281h1v.712h-.925Z" transform="translate(-68.528 -158.482)"/>
        <path id="Tracé_2354" data-name="Tracé 2354" d="M89,173.683V172.9h2.278v.783Z" transform="translate(-69.855 -159.52)"/>
        <path id="Tracé_2355" data-name="Tracé 2355" d="M97.43,168.8h.925v5.409h-.712l-2.918-3.772v3.772H93.8V168.8h.712l2.918,3.772Z" transform="translate(-71.238 -158.338)"/>
        <path id="Tracé_2356" data-name="Tracé 2356" d="M105.372,170.942v3.843h-.925v-.641a1.663,1.663,0,0,1-.5.5,1.373,1.373,0,0,1-.712.214,1.518,1.518,0,0,1-.854-.214,1.421,1.421,0,0,1-.569-.712,2.377,2.377,0,0,1-.214-1.068,2.6,2.6,0,0,1,.214-1.068,1.938,1.938,0,0,1,.569-.712,1.744,1.744,0,0,1,.854-.285,1.2,1.2,0,0,1,.712.214,1.663,1.663,0,0,1,.5.5v-.569Zm-1.21,2.776a1.585,1.585,0,0,0,.285-.925,1.208,1.208,0,0,0-.285-.925.988.988,0,0,0-.712-.356.876.876,0,0,0-.712.356,1.78,1.78,0,0,0-.285.925,1.208,1.208,0,0,0,.285.925.825.825,0,0,0,.712.285A.677.677,0,0,0,104.162,173.718Z" transform="translate(-73.487 -158.914)"/>
        <path id="Tracé_2357" data-name="Tracé 2357" d="M109.239,174.032h2.206v.712H108.1V174.1l2.135-2.491h-2.064V170.9h3.2v.641Z" transform="translate(-75.361 -158.943)"/>
        <path id="Tracé_2358" data-name="Tracé 2358" d="M117.372,170.942v3.843h-.925v-.641a1.663,1.663,0,0,1-.5.5,1.373,1.373,0,0,1-.712.214,1.518,1.518,0,0,1-.854-.214,1.421,1.421,0,0,1-.569-.712,2.377,2.377,0,0,1-.214-1.068,2.6,2.6,0,0,1,.214-1.068,1.938,1.938,0,0,1,.569-.712,1.744,1.744,0,0,1,.854-.285,1.2,1.2,0,0,1,.712.214,1.663,1.663,0,0,1,.5.5v-.569Zm-1.139,2.776a1.585,1.585,0,0,0,.285-.925,1.208,1.208,0,0,0-.285-.925.988.988,0,0,0-.712-.356.876.876,0,0,0-.712.356,1.78,1.78,0,0,0-.285.925,1.208,1.208,0,0,0,.285.925.825.825,0,0,0,.712.285A.727.727,0,0,0,116.233,173.718Z" transform="translate(-76.946 -158.914)"/>
        <path id="Tracé_2359" data-name="Tracé 2359" d="M120.3,168.5h1.068v.925H120.3Zm.071,5.623v-3.843h.925v3.843Z" transform="translate(-78.878 -158.251)"/>
        <path id="Tracé_2360" data-name="Tracé 2360" d="M125.591,170.842v.854a1.211,1.211,0,0,0-.5-.071.75.75,0,0,0-.712.285,1.265,1.265,0,0,0-.285.712v2.064h-.925V171.91a4.712,4.712,0,0,0-.071-1.068h.854l.071.641a1.107,1.107,0,0,1,.427-.569,1.2,1.2,0,0,1,.712-.214A2.8,2.8,0,0,0,125.591,170.842Z" transform="translate(-79.685 -158.885)"/>
        <path id="Tracé_2361" data-name="Tracé 2361" d="M130.559,172.864h-2.633a1.585,1.585,0,0,0,.285.925,1.04,1.04,0,0,0,.854.285,1.745,1.745,0,0,0,1.139-.427l.285.641a2.886,2.886,0,0,1-.641.356,3.672,3.672,0,0,1-.783.142A1.847,1.847,0,0,1,127,172.864a2.856,2.856,0,0,1,.214-1.068,1.558,1.558,0,0,1,.641-.712,2.057,2.057,0,0,1,1-.285,1.715,1.715,0,0,1,1.281.5,2.125,2.125,0,0,1,.427,1.423Zm-2.349-1.139a.9.9,0,0,0-.285.641H129.7a.9.9,0,0,0-.285-.641.808.808,0,0,0-.569-.214A.993.993,0,0,0,128.21,171.725Z" transform="translate(-80.809 -158.914)"/>
      </g>
      <g id="Groupe_2667" data-name="Groupe 2667" transform="translate(58.077 119.997)">
        <path id="Tracé_2362" data-name="Tracé 2362" d="M143.7,259h1.993a2.808,2.808,0,0,1,2.064.712,3.146,3.146,0,0,1,0,3.986,2.808,2.808,0,0,1-2.064.712H143.7Zm1.922,4.555a1.923,1.923,0,0,0,0-3.843H144.7v3.843h.925Z" transform="translate(-143.7 -258.502)"/>
        <path id="Tracé_2363" data-name="Tracé 2363" d="M155.059,262.286h-2.633a1.584,1.584,0,0,0,.285.925,1.039,1.039,0,0,0,.854.285,1.745,1.745,0,0,0,1.139-.427l.285.641a2.885,2.885,0,0,1-.641.356,3.671,3.671,0,0,1-.783.142,1.847,1.847,0,0,1-2.064-1.922,2.856,2.856,0,0,1,.214-1.068,1.558,1.558,0,0,1,.641-.712,2.057,2.057,0,0,1,1-.285,1.715,1.715,0,0,1,1.281.5,2.125,2.125,0,0,1,.427,1.423Zm-2.349-1.139a.9.9,0,0,0-.285.641H154.2a.9.9,0,0,0-.285-.641.808.808,0,0,0-.569-.214A1.148,1.148,0,0,0,152.71,261.147Zm.925-1.281h-.641l.783-1.566h1Z" transform="translate(-145.949 -258.3)"/>
        <path id="Tracé_2364" data-name="Tracé 2364" d="M157.6,264.323V258.7h.925v5.623Z" transform="translate(-147.707 -258.415)"/>
        <path id="Tracé_2365" data-name="Tracé 2365" d="M163.659,262.286h-2.633a1.584,1.584,0,0,0,.285.925,1.039,1.039,0,0,0,.854.285,1.745,1.745,0,0,0,1.139-.427l.285.641a2.885,2.885,0,0,1-.641.356,3.671,3.671,0,0,1-.783.142,1.847,1.847,0,0,1-2.064-1.922,2.856,2.856,0,0,1,.214-1.068,1.558,1.558,0,0,1,.641-.712,2.057,2.057,0,0,1,1-.285,1.715,1.715,0,0,1,1.281.5,2.125,2.125,0,0,1,.427,1.423v.142Zm-2.278-1.139a.9.9,0,0,0-.285.641h1.779a.9.9,0,0,0-.285-.641.808.808,0,0,0-.569-.214A.87.87,0,0,0,161.381,261.147Zm.854-1.281h-.641l.783-1.566h1Z" transform="translate(-148.428 -258.3)"/>
        <path id="Tracé_2366" data-name="Tracé 2366" d="M169.786,261.2v3.7a1.674,1.674,0,0,1-.5,1.352,2.143,2.143,0,0,1-1.423.5,3.624,3.624,0,0,1-1.566-.356l.142-.712a3.5,3.5,0,0,0,1.423.356.871.871,0,0,0,1-1v-.783a1.663,1.663,0,0,1-.5.5,1.435,1.435,0,0,1-.783.214,1.97,1.97,0,0,1-.925-.214,1.4,1.4,0,0,1-.641-.641,2.432,2.432,0,0,1,0-1.993,1.4,1.4,0,0,1,.641-.641,1.97,1.97,0,0,1,.925-.214,1.435,1.435,0,0,1,.783.214,1.662,1.662,0,0,1,.5.5v-.569h.925Zm-1.21,2.633a1.423,1.423,0,0,0,0-1.708,1.032,1.032,0,0,0-1.423,0,1.423,1.423,0,0,0,0,1.708.914.914,0,0,0,.712.285A.825.825,0,0,0,168.576,263.833Z" transform="translate(-150.071 -259.136)"/>
        <path id="Tracé_2367" data-name="Tracé 2367" d="M176.472,261.114v3.843h-.925v-.641a1.663,1.663,0,0,1-.5.5,1.283,1.283,0,0,1-.712.142,1.518,1.518,0,0,1-.854-.214,1.421,1.421,0,0,1-.569-.712,2.377,2.377,0,0,1-.214-1.068,2.6,2.6,0,0,1,.214-1.068,1.938,1.938,0,0,1,.569-.712,1.744,1.744,0,0,1,.854-.285,1.2,1.2,0,0,1,.712.214,1.663,1.663,0,0,1,.5.5v-.569h.925Zm-1.139,2.776a1.585,1.585,0,0,0,.285-.925,1.208,1.208,0,0,0-.285-.925.988.988,0,0,0-.712-.356.876.876,0,0,0-.712.356,1.78,1.78,0,0,0-.285.925,1.208,1.208,0,0,0,.285.925.825.825,0,0,0,.712.285A.614.614,0,0,0,175.333,263.889Z" transform="translate(-152.06 -259.05)"/>
        <path id="Tracé_2368" data-name="Tracé 2368" d="M180.508,261.393V263.1a.566.566,0,0,0,.641.641.642.642,0,0,0,.356-.071v.783a1.579,1.579,0,0,1-.641.071,1.408,1.408,0,0,1-1-.356,1.473,1.473,0,0,1-.356-1.068v-1.779H178.8v-.712h.712v-.925l.925-.285v1.281h1v.712Z" transform="translate(-153.818 -258.617)"/>
        <path id="Tracé_2369" data-name="Tracé 2369" d="M183.4,258.7h1.068v.925H183.4Zm.071,5.623v-3.843h.925v3.843Z" transform="translate(-155.144 -258.415)"/>
        <path id="Tracé_2370" data-name="Tracé 2370" d="M186.925,264.772a2.263,2.263,0,0,1-.712-.712,2.776,2.776,0,0,1,0-2.135,1.706,1.706,0,0,1,.712-.712,1.978,1.978,0,0,1,2.7.712,1.7,1.7,0,0,1,.214,1.068,2.377,2.377,0,0,1-.214,1.068,1.706,1.706,0,0,1-.712.712,2.432,2.432,0,0,1-1.993,0Zm1.779-.783a1.585,1.585,0,0,0,.285-.925,1.208,1.208,0,0,0-.285-.925.89.89,0,0,0-1.423,0,1.585,1.585,0,0,0-.285.925,1.208,1.208,0,0,0,.285.925.914.914,0,0,0,.712.285A.825.825,0,0,0,188.7,263.989Z" transform="translate(-155.894 -259.078)"/>
        <path id="Tracé_2371" data-name="Tracé 2371" d="M196.13,262.663v2.349H195.2v-2.278a1.421,1.421,0,0,0-.142-.641.7.7,0,0,0-.569-.214.973.973,0,0,0-1,1v2.206h-.925v-2.776a4.713,4.713,0,0,0-.071-1.068h.854l.071.641a1.457,1.457,0,0,1,.569-.569,1.435,1.435,0,0,1,.783-.214C195.7,261.026,196.13,261.6,196.13,262.663Z" transform="translate(-157.768 -259.105)"/>
        <path id="Tracé_2373" data-name="Tracé 2373" d="M148.772,275.114v3.843h-.925v-.641a1.663,1.663,0,0,1-.5.5,1.283,1.283,0,0,1-.712.142,1.518,1.518,0,0,1-.854-.214,1.421,1.421,0,0,1-.569-.712,2.377,2.377,0,0,1-.214-1.068,2.6,2.6,0,0,1,.214-1.068,1.938,1.938,0,0,1,.569-.712,1.744,1.744,0,0,1,.854-.285,1.2,1.2,0,0,1,.712.214,1.662,1.662,0,0,1,.5.5v-.569h.925Zm-1.21,2.776a1.585,1.585,0,0,0,.285-.925,1.208,1.208,0,0,0-.285-.925.988.988,0,0,0-.712-.356.876.876,0,0,0-.712.356,1.78,1.78,0,0,0-.285.925,1.208,1.208,0,0,0,.285.925.825.825,0,0,0,.712.285A.583.583,0,0,0,147.562,277.889Z" transform="translate(-142.651 -263.085)"/>
        <path id="Tracé_2374" data-name="Tracé 2374" d="M155.228,275.2l-1.779,4.057a2.1,2.1,0,0,1-.783,1.068,3.145,3.145,0,0,1-1.139.427l-.214-.712a3.081,3.081,0,0,0,.783-.285.884.884,0,0,0,.427-.569l.142-.285-1.566-3.7h1l1.068,2.776L154.3,275.2Z" transform="translate(-144.41 -263.172)"/>
        <path id="Tracé_2375" data-name="Tracé 2375" d="M157.1,278.559l.285-.641a2.4,2.4,0,0,0,1.423.427.829.829,0,0,0,.5-.142.381.381,0,0,0,.214-.285.37.37,0,0,0-.142-.285,1.158,1.158,0,0,0-.427-.214l-.641-.142q-1.068-.214-1.068-1.068a1.148,1.148,0,0,1,.214-.641.884.884,0,0,1,.569-.427,2.655,2.655,0,0,1,.854-.142,2.559,2.559,0,0,1,.783.142,1.866,1.866,0,0,1,.641.356l-.285.641a1.933,1.933,0,0,0-1.21-.427,1.029,1.029,0,0,0-.5.142.391.391,0,0,0-.214.356.37.37,0,0,0,.142.285.544.544,0,0,0,.356.142l.641.142a1.624,1.624,0,0,1,.854.427,1.265,1.265,0,0,1,.285.712,1.015,1.015,0,0,1-.427.854,1.806,1.806,0,0,1-1.139.285A3.732,3.732,0,0,1,157.1,278.559Z" transform="translate(-146.139 -263.114)"/>
        <path id="Tracé_2377" data-name="Tracé 2377" d="M171.272,272.671v5.623h-.925v-.641a1.663,1.663,0,0,1-.5.5,1.283,1.283,0,0,1-.712.142,1.134,1.134,0,0,1-.854-.285,2.786,2.786,0,0,1-.569-.712,2.377,2.377,0,0,1-.214-1.068,2.6,2.6,0,0,1,.214-1.068,2.787,2.787,0,0,1,.569-.712,1.9,1.9,0,0,1,.854-.214,2.106,2.106,0,0,1,.712.142,1.663,1.663,0,0,1,.5.5V272.6h.925Zm-1.21,4.555a1.585,1.585,0,0,0,.285-.925,1.208,1.208,0,0,0-.285-.925.988.988,0,0,0-.712-.356.876.876,0,0,0-.712.356,1.584,1.584,0,0,0-.285.925,1.208,1.208,0,0,0,.285.925.876.876,0,0,0,.712.356A.723.723,0,0,0,170.062,277.226Z" transform="translate(-150.561 -262.422)"/>
        <path id="Tracé_2378" data-name="Tracé 2378" d="M177.559,277.064h-2.633a1.584,1.584,0,0,0,.285.925,1.04,1.04,0,0,0,.854.285,1.745,1.745,0,0,0,1.139-.427l.285.641a2.885,2.885,0,0,1-.641.356,3.673,3.673,0,0,1-.783.142A1.847,1.847,0,0,1,174,277.064a2.856,2.856,0,0,1,.214-1.068,1.558,1.558,0,0,1,.641-.712,2.057,2.057,0,0,1,1-.285,1.715,1.715,0,0,1,1.281.5,2.125,2.125,0,0,1,.427,1.423v.142Zm-2.349-1.139a.9.9,0,0,0-.285.641H176.7a.9.9,0,0,0-.285-.641.808.808,0,0,0-.569-.214A.994.994,0,0,0,175.21,275.925Z" transform="translate(-152.435 -263.114)"/>
        <path id="Tracé_2381" data-name="Tracé 2381" d="M192.259,277.064h-2.633a1.584,1.584,0,0,0,.285.925,1.04,1.04,0,0,0,.854.285,1.745,1.745,0,0,0,1.139-.427l.285.641a2.885,2.885,0,0,1-.641.356,3.673,3.673,0,0,1-.783.142,1.847,1.847,0,0,1-2.064-1.922,2.856,2.856,0,0,1,.214-1.068,1.558,1.558,0,0,1,.641-.712,2.057,2.057,0,0,1,1-.285,1.715,1.715,0,0,1,1.281.5,2.125,2.125,0,0,1,.427,1.423v.142Zm-2.278-1.139a.9.9,0,0,0-.285.641h1.779a.9.9,0,0,0-.285-.641.808.808,0,0,0-.569-.214A.87.87,0,0,0,189.981,275.925Z" transform="translate(-155.961 -263.114)"/>
        <path id="Tracé_2382" data-name="Tracé 2382" d="M195.808,275.393V277.1a.566.566,0,0,0,.641.641.642.642,0,0,0,.356-.071v.783a1.579,1.579,0,0,1-.641.071,1.408,1.408,0,0,1-1-.356,1.473,1.473,0,0,1-.356-1.068v-1.779H194.1v-.712h.712v-.925l.925-.285v1.281h1v.712Z" transform="translate(-157.517 -262.653)"/>
        <path id="Tracé_2383" data-name="Tracé 2383" d="M199.739,278.332h2.206v.712H198.6V278.4l2.135-2.491h-2.064V275.2h3.2v.641Z" transform="translate(-158.814 -263.172)"/>
      </g>
      <g id="Groupe_2668" data-name="Groupe 2668" transform="translate(157.647 109.748)">
        <path id="Tracé_2384" data-name="Tracé 2384" d="M283.6,244.6h1.85a2.61,2.61,0,0,1,1.922.641,2.578,2.578,0,0,1,.712,1.85,2.315,2.315,0,0,1-.712,1.85,2.61,2.61,0,0,1-1.922.641H283.6Zm1.85,4.342a1.582,1.582,0,0,0,1.779-1.779,1.554,1.554,0,0,0-1.779-1.779H284.6v3.559Z" transform="translate(-283.6 -244.102)"/>
        <path id="Tracé_2385" data-name="Tracé 2385" d="M294.216,247.672h-2.491a1.526,1.526,0,0,0,.285.854.887.887,0,0,0,.783.285,1.748,1.748,0,0,0,1.068-.356l.285.641a2.561,2.561,0,0,1-.641.356,3.027,3.027,0,0,1-.783.142,1.939,1.939,0,0,1-1.423-.5,1.772,1.772,0,0,1-.5-1.352,2.273,2.273,0,0,1,.214-1,1.4,1.4,0,0,1,.641-.641,1.97,1.97,0,0,1,.925-.214,1.327,1.327,0,0,1,1.139.5,2.052,2.052,0,0,1,.427,1.352v-.071Zm-2.135-1.068a1.341,1.341,0,0,0-.285.641H293.5a1.351,1.351,0,0,0-.214-.641c-.071-.142-.356-.214-.569-.214A.767.767,0,0,0,292.081,246.6Zm.783-1.21h-.569l.712-1.495h.925Z" transform="translate(-285.676 -243.9)"/>
        <path id="Tracé_2386" data-name="Tracé 2386" d="M296.6,249.567V244.3h.854v5.267Z" transform="translate(-287.348 -244.015)"/>
        <path id="Tracé_2387" data-name="Tracé 2387" d="M302.316,247.672h-2.491a1.526,1.526,0,0,0,.285.854.887.887,0,0,0,.783.285,1.748,1.748,0,0,0,1.068-.356l.285.641a2.56,2.56,0,0,1-.641.356,3.026,3.026,0,0,1-.783.142,1.939,1.939,0,0,1-1.423-.5,1.772,1.772,0,0,1-.5-1.352,2.273,2.273,0,0,1,.214-1,1.4,1.4,0,0,1,.641-.641,1.97,1.97,0,0,1,.925-.214,1.327,1.327,0,0,1,1.139.5,2.052,2.052,0,0,1,.427,1.352v-.071ZM300.11,246.6a1.341,1.341,0,0,0-.285.641h1.708a1.351,1.351,0,0,0-.214-.641c-.071-.142-.356-.214-.569-.214A.994.994,0,0,0,300.11,246.6Zm.854-1.21h-.569l.712-1.495h.925Z" transform="translate(-288.011 -243.9)"/>
        <path id="Tracé_2388" data-name="Tracé 2388" d="M308.1,246.7v3.487a1.74,1.74,0,0,1-.427,1.281,1.927,1.927,0,0,1-1.352.427,3.308,3.308,0,0,1-1.495-.356l.142-.712a2.9,2.9,0,0,0,1.281.356c.641,0,1-.285,1-.925v-.712a1.663,1.663,0,0,1-.5.5,1.2,1.2,0,0,1-.712.214,1.9,1.9,0,0,1-.854-.214,1.256,1.256,0,0,1-.569-.641,2.112,2.112,0,0,1,0-1.85,1.681,1.681,0,0,1,.569-.641,1.518,1.518,0,0,1,.854-.214,2.106,2.106,0,0,1,.712.142,1.663,1.663,0,0,1,.5.5v-.569h.854Zm-1.139,2.491a1.3,1.3,0,0,0,.285-.783.887.887,0,0,0-.285-.783,1.264,1.264,0,0,0-.712-.285.914.914,0,0,0-.712.285,1.492,1.492,0,0,0-.285.783.887.887,0,0,0,.285.783.825.825,0,0,0,.712.285A.949.949,0,0,0,306.962,249.191Z" transform="translate(-289.596 -244.707)"/>
        <path id="Tracé_2389" data-name="Tracé 2389" d="M314.3,246.671v3.559h-.854v-.569a1.663,1.663,0,0,1-.5.5,1.171,1.171,0,0,1-.712.142,1.9,1.9,0,0,1-.854-.214,1.68,1.68,0,0,1-.569-.641,2.067,2.067,0,0,1-.214-1,2.274,2.274,0,0,1,.214-1,1.68,1.68,0,0,1,.569-.641,1.518,1.518,0,0,1,.854-.214,2.106,2.106,0,0,1,.712.142,1.663,1.663,0,0,1,.5.5v-.569Zm-1.139,2.633a1.815,1.815,0,0,0,0-1.708.75.75,0,0,0-.712-.285.914.914,0,0,0-.712.285,1.109,1.109,0,0,0-.214.854,1.518,1.518,0,0,0,.214.854.825.825,0,0,0,.712.285A.749.749,0,0,0,313.162,249.3Z" transform="translate(-291.383 -244.678)"/>
        <path id="Tracé_2390" data-name="Tracé 2390" d="M318.037,246.879v1.637c0,.427.214.641.569.641a.641.641,0,0,0,.356-.071v.712a1.387,1.387,0,0,1-.569.071,1.23,1.23,0,0,1-.925-.356,1.408,1.408,0,0,1-.356-1v-1.637H316.4v-.641h.712v-.854l.854-.285v1.21h.925v.641h-.854Z" transform="translate(-293.055 -244.246)"/>
        <path id="Tracé_2391" data-name="Tracé 2391" d="M320.9,244.4h1v.854h-1Zm0,5.2v-3.559h.854V249.6Z" transform="translate(-294.353 -244.044)"/>
        <path id="Tracé_2392" data-name="Tracé 2392" d="M324.154,250.087a1.4,1.4,0,0,1-.641-.641,2.432,2.432,0,0,1,0-1.993,1.4,1.4,0,0,1,.641-.641,2.067,2.067,0,0,1,1-.214,1.781,1.781,0,0,1,.925.214,1.4,1.4,0,0,1,.641.641,2.432,2.432,0,0,1,0,1.993,1.4,1.4,0,0,1-.641.641,1.97,1.97,0,0,1-.925.214A2.067,2.067,0,0,1,324.154,250.087Zm1.637-.783a1.518,1.518,0,0,0,.214-.854,1.368,1.368,0,0,0-.214-.854.949.949,0,0,0-.712-.285.914.914,0,0,0-.712.285,1.109,1.109,0,0,0-.214.854,1.368,1.368,0,0,0,.214.854,1.032,1.032,0,0,0,1.423,0Z" transform="translate(-295.044 -244.678)"/>
        <path id="Tracé_2393" data-name="Tracé 2393" d="M332.845,248.043v2.206h-.854v-2.135a1.421,1.421,0,0,0-.142-.641.554.554,0,0,0-.5-.214.694.694,0,0,0-.641.285,1.265,1.265,0,0,0-.285.712v2.064h-.854v-2.562a4.377,4.377,0,0,0-.071-1h.854l.071.569a1.662,1.662,0,0,1,.5-.5,1.171,1.171,0,0,1,.712-.142C332.418,246.548,332.845,247.046,332.845,248.043Z" transform="translate(-296.832 -244.697)"/>
        <path id="Tracé_2395" data-name="Tracé 2395" d="M285.9,258.4h1v.854h-1Zm.071,5.2v-3.559h.854V263.6Z" transform="translate(-284.263 -248.08)"/>
        <path id="Tracé_2396" data-name="Tracé 2396" d="M292,260.7v3.487a1.74,1.74,0,0,1-.427,1.281,1.927,1.927,0,0,1-1.352.427,3.309,3.309,0,0,1-1.495-.356l.142-.712a2.9,2.9,0,0,0,1.281.356c.641,0,1-.285,1-.925v-.712a1.664,1.664,0,0,1-.5.5,1.2,1.2,0,0,1-.712.214,1.9,1.9,0,0,1-.854-.214,1.256,1.256,0,0,1-.569-.641,2.112,2.112,0,0,1,0-1.85,1.68,1.68,0,0,1,.569-.641,1.518,1.518,0,0,1,.854-.214,2.106,2.106,0,0,1,.712.142,1.664,1.664,0,0,1,.5.5v-.569H292Zm-1.139,2.491a1.3,1.3,0,0,0,.285-.783.887.887,0,0,0-.285-.783,1.264,1.264,0,0,0-.712-.285.914.914,0,0,0-.712.285,1.492,1.492,0,0,0-.285.783.887.887,0,0,0,.285.783.825.825,0,0,0,.712.285A1.087,1.087,0,0,0,290.862,263.191Z" transform="translate(-284.955 -248.743)"/>
        <path id="Tracé_2397" data-name="Tracé 2397" d="M298.145,262.043v2.206h-.854v-2.135a1.421,1.421,0,0,0-.142-.641.554.554,0,0,0-.5-.214.694.694,0,0,0-.641.285,1.265,1.265,0,0,0-.285.712v2.064h-.854v-2.562a4.377,4.377,0,0,0-.071-1h.854l.071.569a1.663,1.663,0,0,1,.5-.5,1.171,1.171,0,0,1,.712-.142C297.718,260.548,298.145,261.046,298.145,262.043Z" transform="translate(-286.829 -248.733)"/>
        <path id="Tracé_2398" data-name="Tracé 2398" d="M301.454,264.087a1.4,1.4,0,0,1-.641-.641,2.432,2.432,0,0,1,0-1.993,1.4,1.4,0,0,1,.641-.641,2.067,2.067,0,0,1,1-.214,1.781,1.781,0,0,1,.925.214,1.4,1.4,0,0,1,.641.641,2.432,2.432,0,0,1,0,1.993,1.4,1.4,0,0,1-.641.641,1.97,1.97,0,0,1-.925.214A2.067,2.067,0,0,1,301.454,264.087Zm1.637-.783a1.518,1.518,0,0,0,.214-.854,1.368,1.368,0,0,0-.214-.854.949.949,0,0,0-.712-.285.914.914,0,0,0-.712.285,1.109,1.109,0,0,0-.214.854,1.368,1.368,0,0,0,.214.854,1.032,1.032,0,0,0,1.423,0Z" transform="translate(-288.501 -248.714)"/>
        <path id="Tracé_2399" data-name="Tracé 2399" d="M309.618,260.05a1.68,1.68,0,0,1,.569.641,2.432,2.432,0,0,1,0,1.993,1.68,1.68,0,0,1-.569.641,1.518,1.518,0,0,1-.854.214,2.106,2.106,0,0,1-.712-.142,1.121,1.121,0,0,1-.5-.5v.569H306.7V258.2h.854v2.206a1.663,1.663,0,0,1,.5-.5,1.171,1.171,0,0,1,.712-.142A2.4,2.4,0,0,1,309.618,260.05Zm-.356,2.562a1.815,1.815,0,0,0,0-1.708.75.75,0,0,0-.712-.285.825.825,0,0,0-.712.285,1.815,1.815,0,0,0,0,1.708.825.825,0,0,0,.712.285A.749.749,0,0,0,309.262,262.613Z" transform="translate(-290.259 -248.022)"/>
        <path id="Tracé_2400" data-name="Tracé 2400" d="M313,263.567V258.3h.854v5.267Z" transform="translate(-292.075 -248.051)"/>
        <path id="Tracé_2401" data-name="Tracé 2401" d="M318.616,262.479h-2.491a1.526,1.526,0,0,0,.285.854.887.887,0,0,0,.783.285,1.748,1.748,0,0,0,1.068-.356l.285.641a2.562,2.562,0,0,1-.641.356,3.027,3.027,0,0,1-.783.142,1.939,1.939,0,0,1-1.423-.5,1.772,1.772,0,0,1-.5-1.352,2.273,2.273,0,0,1,.214-1,1.4,1.4,0,0,1,.641-.641,1.97,1.97,0,0,1,.925-.214,1.327,1.327,0,0,1,1.139.5,2.052,2.052,0,0,1,.427,1.352v-.071Zm-2.135-1.068a1.341,1.341,0,0,0-.285.641H317.9a1.351,1.351,0,0,0-.214-.641c-.071-.142-.356-.214-.569-.214A.87.87,0,0,0,316.481,261.412Z" transform="translate(-292.709 -248.743)"/>
      </g>
      <g id="Groupe_2669" data-name="Groupe 2669" transform="translate(81.35 0)">
        <path id="Tracé_2402" data-name="Tracé 2402" d="M185.9,90.4h1.993a2.808,2.808,0,0,1,2.064.712,3.146,3.146,0,0,1,0,3.986,2.808,2.808,0,0,1-2.064.712H185.9Zm1.922,4.626a1.923,1.923,0,0,0,0-3.843H186.9v3.843Z" transform="translate(-179.139 -89.902)"/>
        <path id="Tracé_2403" data-name="Tracé 2403" d="M197.159,93.757h-2.633a1.585,1.585,0,0,0,.285.925,1.039,1.039,0,0,0,.854.285,1.745,1.745,0,0,0,1.139-.427l.285.641a2.885,2.885,0,0,1-.641.356,3.672,3.672,0,0,1-.783.142,1.847,1.847,0,0,1-2.064-1.922,2.856,2.856,0,0,1,.214-1.068,1.558,1.558,0,0,1,.641-.712,2.057,2.057,0,0,1,1-.285,1.715,1.715,0,0,1,1.281.5,2.125,2.125,0,0,1,.427,1.423Zm-2.278-1.21a.9.9,0,0,0-.285.641h1.779a.9.9,0,0,0-.285-.641.808.808,0,0,0-.569-.214A.87.87,0,0,0,194.881,92.547Zm.854-1.281h-.641l.783-1.566h1Z" transform="translate(-181.358 -89.7)"/>
        <path id="Tracé_2404" data-name="Tracé 2404" d="M199.7,95.723V90.1h.925v5.623Z" transform="translate(-183.117 -89.815)"/>
        <path id="Tracé_2405" data-name="Tracé 2405" d="M205.759,93.757h-2.633a1.585,1.585,0,0,0,.285.925,1.039,1.039,0,0,0,.854.285,1.745,1.745,0,0,0,1.139-.427l.285.641a2.885,2.885,0,0,1-.641.356,3.673,3.673,0,0,1-.783.142,1.847,1.847,0,0,1-2.064-1.922,2.856,2.856,0,0,1,.214-1.068,1.558,1.558,0,0,1,.641-.712,2.057,2.057,0,0,1,1-.285,1.715,1.715,0,0,1,1.281.5,2.125,2.125,0,0,1,.427,1.423v.142Zm-2.278-1.21a.9.9,0,0,0-.285.641h1.779a.9.9,0,0,0-.285-.641.808.808,0,0,0-.569-.214A.87.87,0,0,0,203.481,92.547Zm.925-1.281h-.641l.783-1.566h1Z" transform="translate(-183.837 -89.7)"/>
        <path id="Tracé_2406" data-name="Tracé 2406" d="M211.986,92.6v3.7a1.674,1.674,0,0,1-.5,1.352,2.143,2.143,0,0,1-1.423.5A3.623,3.623,0,0,1,208.5,97.8l.142-.712a3.5,3.5,0,0,0,1.423.356.871.871,0,0,0,1-1V95.66a1.663,1.663,0,0,1-.5.5,1.435,1.435,0,0,1-.783.214,1.97,1.97,0,0,1-.925-.214,1.4,1.4,0,0,1-.641-.641,2.432,2.432,0,0,1,0-1.993,1.4,1.4,0,0,1,.641-.641,1.97,1.97,0,0,1,.925-.214,1.435,1.435,0,0,1,.783.214,1.663,1.663,0,0,1,.5.5v-.569h.925Zm-1.21,2.633a1.423,1.423,0,0,0,0-1.708,1.032,1.032,0,0,0-1.423,0,1.424,1.424,0,0,0,0,1.708,1.032,1.032,0,0,0,1.423,0Z" transform="translate(-185.509 -90.536)"/>
        <path id="Tracé_2407" data-name="Tracé 2407" d="M218.672,92.542v3.843h-.925v-.641a1.663,1.663,0,0,1-.5.5,1.373,1.373,0,0,1-.712.214,1.518,1.518,0,0,1-.854-.214,1.421,1.421,0,0,1-.569-.712,2.377,2.377,0,0,1-.214-1.068,2.6,2.6,0,0,1,.214-1.068,1.938,1.938,0,0,1,.569-.712,1.744,1.744,0,0,1,.854-.285,1.2,1.2,0,0,1,.712.214,1.663,1.663,0,0,1,.5.5v-.569Zm-1.21,2.847a1.585,1.585,0,0,0,.285-.925,1.208,1.208,0,0,0-.285-.925.988.988,0,0,0-.712-.356.876.876,0,0,0-.712.356,1.78,1.78,0,0,0-.285.925,1.208,1.208,0,0,0,.285.925.825.825,0,0,0,.712.285A.914.914,0,0,0,217.462,95.389Z" transform="translate(-187.499 -90.478)"/>
        <path id="Tracé_2408" data-name="Tracé 2408" d="M222.608,92.793V94.5a.566.566,0,0,0,.641.641.642.642,0,0,0,.356-.071v.783a1.58,1.58,0,0,1-.641.071,1.408,1.408,0,0,1-1-.356,1.473,1.473,0,0,1-.356-1.068V92.722H220.9V92.01h.712v-.925l.925-.285v1.281h1v.712Z" transform="translate(-189.228 -90.017)"/>
        <path id="Tracé_2409" data-name="Tracé 2409" d="M225.6,90.2h1.068v.925H225.6Zm.071,5.551V91.908h.925v3.843Z" transform="translate(-190.583 -89.844)"/>
        <path id="Tracé_2410" data-name="Tracé 2410" d="M229.025,96.172a2.262,2.262,0,0,1-.712-.712,2.776,2.776,0,0,1,0-2.135,1.788,1.788,0,0,1,1.708-.925,1.788,1.788,0,0,1,1.708.925,2.776,2.776,0,0,1,0,2.135,1.706,1.706,0,0,1-.712.712,2.273,2.273,0,0,1-1,.214A1.235,1.235,0,0,1,229.025,96.172Zm1.779-.783a1.585,1.585,0,0,0,.285-.925,1.208,1.208,0,0,0-.285-.925.988.988,0,0,0-.712-.356.876.876,0,0,0-.712.356,1.585,1.585,0,0,0-.285.925,1.208,1.208,0,0,0,.285.925,1.032,1.032,0,0,0,1.423,0Z" transform="translate(-191.304 -90.478)"/>
        <path id="Tracé_2411" data-name="Tracé 2411" d="M238.33,94.037v2.349H237.4V94.108a1.421,1.421,0,0,0-.142-.641.7.7,0,0,0-.569-.214.973.973,0,0,0-1,1v2.135h-.925V93.61a4.713,4.713,0,0,0-.071-1.068h.854l.071.641a1.457,1.457,0,0,1,.569-.569,1.435,1.435,0,0,1,.783-.214C237.832,92.471,238.33,92.969,238.33,94.037Z" transform="translate(-193.206 -90.478)"/>
        <path id="Tracé_2412" data-name="Tracé 2412" d="M177.61,109.438a2.1,2.1,0,0,1-.925-1,4.066,4.066,0,0,1,0-2.989,2.479,2.479,0,0,1,.925-1,3.009,3.009,0,0,1,1.423-.356,4.2,4.2,0,0,1,1,.142,2.12,2.12,0,0,1,.783.5l-.285.712a1.9,1.9,0,0,0-.712-.427,2.559,2.559,0,0,0-.783-.142,1.466,1.466,0,0,0-1.21.5,2.259,2.259,0,0,0-.427,1.423,2.335,2.335,0,0,0,.427,1.495,1.466,1.466,0,0,0,1.21.5,3.027,3.027,0,0,0,.783-.142,1.9,1.9,0,0,0,.712-.427l.285.712a2.939,2.939,0,0,1-.783.5,2.422,2.422,0,0,1-1,.142A1.632,1.632,0,0,1,177.61,109.438Z" transform="translate(-176.4 -93.851)"/>
        <path id="Tracé_2413" data-name="Tracé 2413" d="M187.459,107.4v2.349h-.925v-2.278a1.421,1.421,0,0,0-.142-.641.7.7,0,0,0-.569-.214.973.973,0,0,0-1,1v2.206H183.9V104.2h.925v2.278a1.663,1.663,0,0,1,.5-.5,1.17,1.17,0,0,1,.712-.142C186.96,105.837,187.459,106.335,187.459,107.4Z" transform="translate(-178.562 -93.88)"/>
        <path id="Tracé_2414" data-name="Tracé 2414" d="M193.872,105.764v3.843h-.925v-.641a1.663,1.663,0,0,1-.5.5,1.373,1.373,0,0,1-.712.214,1.518,1.518,0,0,1-.854-.214,1.421,1.421,0,0,1-.569-.712,2.377,2.377,0,0,1-.214-1.068,2.6,2.6,0,0,1,.214-1.068,1.938,1.938,0,0,1,.569-.712,1.744,1.744,0,0,1,.854-.285,1.2,1.2,0,0,1,.712.214,1.663,1.663,0,0,1,.5.5v-.569h.925Zm-2.278-.5h-.783l.925-1.566h.569l.925,1.566h-.783l-.5-1Zm1.139,3.345a1.585,1.585,0,0,0,.285-.925,1.208,1.208,0,0,0-.285-.925.988.988,0,0,0-.712-.356.876.876,0,0,0-.712.356,1.78,1.78,0,0,0-.285.925,1.208,1.208,0,0,0,.285.925.825.825,0,0,0,.712.285A.914.914,0,0,0,192.733,108.611Z" transform="translate(-180.349 -93.736)"/>
        <path id="Tracé_2415" data-name="Tracé 2415" d="M197.908,106.793V108.5a.566.566,0,0,0,.641.641.642.642,0,0,0,.356-.071v.783a1.58,1.58,0,0,1-.641.071,1.408,1.408,0,0,1-1-.356,1.473,1.473,0,0,1-.356-1.068v-1.779H196.2v-.712h.712v-.925l.925-.285v1.281h1v.712Z" transform="translate(-182.108 -94.053)"/>
        <path id="Tracé_2416" data-name="Tracé 2416" d="M204.159,108.564h-2.633a1.585,1.585,0,0,0,.285.925,1.039,1.039,0,0,0,.854.285,1.745,1.745,0,0,0,1.139-.427l.285.641a2.886,2.886,0,0,1-.641.356,3.672,3.672,0,0,1-.783.142,1.847,1.847,0,0,1-2.064-1.922,2.856,2.856,0,0,1,.214-1.068,1.558,1.558,0,0,1,.641-.712,2.057,2.057,0,0,1,1-.285,1.715,1.715,0,0,1,1.281.5,2.125,2.125,0,0,1,.427,1.423Zm-2.278-1.21a.9.9,0,0,0-.285.641h1.779a.9.9,0,0,0-.285-.641.808.808,0,0,0-.569-.214A.87.87,0,0,0,201.881,107.354Z" transform="translate(-183.376 -94.543)"/>
        <path id="Tracé_2417" data-name="Tracé 2417" d="M210.372,106.542v3.843h-.925v-.641a1.663,1.663,0,0,1-.5.5,1.373,1.373,0,0,1-.712.214,1.518,1.518,0,0,1-.854-.214,1.421,1.421,0,0,1-.569-.712,2.377,2.377,0,0,1-.214-1.068,2.6,2.6,0,0,1,.214-1.068,1.938,1.938,0,0,1,.569-.712,1.744,1.744,0,0,1,.854-.285,1.2,1.2,0,0,1,.712.214,1.663,1.663,0,0,1,.5.5v-.569h.925Zm-1.139,2.847a1.585,1.585,0,0,0,.285-.925,1.208,1.208,0,0,0-.285-.925.988.988,0,0,0-.712-.356.876.876,0,0,0-.712.356,1.78,1.78,0,0,0-.285.925,1.208,1.208,0,0,0,.285.925.825.825,0,0,0,.712.285A.914.914,0,0,0,209.233,109.389Z" transform="translate(-185.106 -94.514)"/>
        <path id="Tracé_2418" data-name="Tracé 2418" d="M216.859,106.6v3.843h-.925v-.569a1.663,1.663,0,0,1-.5.5,1.17,1.17,0,0,1-.712.142c-.925,0-1.423-.5-1.423-1.566V106.6h.925v2.349a1.421,1.421,0,0,0,.142.641.646.646,0,0,0,.5.214.694.694,0,0,0,.641-.285,1.265,1.265,0,0,0,.285-.712v-2.135h1.068Z" transform="translate(-187.037 -94.572)"/>
        <path id="Tracé_2419" data-name="Tracé 2419" d="M222.86,106.05a1.421,1.421,0,0,1,.569.712,2.377,2.377,0,0,1,.214,1.068,2.6,2.6,0,0,1-.214,1.068,1.938,1.938,0,0,1-.569.712,2.023,2.023,0,0,1-.854.285,1.435,1.435,0,0,1-.783-.214,1.663,1.663,0,0,1-.5-.5v.641H219.8V104.2h.925v2.349a1.663,1.663,0,0,1,.5-.5,1.373,1.373,0,0,1,.712-.214A1.97,1.97,0,0,1,222.86,106.05Zm-.427,2.7a1.78,1.78,0,0,0,.285-.925,1.208,1.208,0,0,0-.285-.925.988.988,0,0,0-.712-.356.876.876,0,0,0-.712.356,1.584,1.584,0,0,0-.285.925,1.208,1.208,0,0,0,.285.925.876.876,0,0,0,.712.356A1.356,1.356,0,0,0,222.433,108.755Z" transform="translate(-188.911 -93.88)"/>
        <path id="Tracé_2420" data-name="Tracé 2420" d="M228.791,106.542v.854a1.211,1.211,0,0,0-.5-.071.75.75,0,0,0-.712.285,1.265,1.265,0,0,0-.285.712v2.064h-.925V107.61a4.713,4.713,0,0,0-.071-1.068h.854l.071.641a1.107,1.107,0,0,1,.427-.569,1.2,1.2,0,0,1,.712-.214A2.967,2.967,0,0,1,228.791,106.542Z" transform="translate(-190.785 -94.514)"/>
        <path id="Tracé_2421" data-name="Tracé 2421" d="M230.4,104.2h1.068v.925H230.4Zm.071,5.551v-3.843h.925v3.843Z" transform="translate(-191.967 -93.88)"/>
        <path id="Tracé_2422" data-name="Tracé 2422" d="M236.972,106.542v3.843h-.925v-.641a1.663,1.663,0,0,1-.5.5,1.373,1.373,0,0,1-.712.214,1.518,1.518,0,0,1-.854-.214,1.421,1.421,0,0,1-.569-.712,2.377,2.377,0,0,1-.214-1.068,2.6,2.6,0,0,1,.214-1.068,1.938,1.938,0,0,1,.569-.712,1.744,1.744,0,0,1,.854-.285,1.2,1.2,0,0,1,.712.214,1.663,1.663,0,0,1,.5.5v-.569h.925Zm-1.21,2.847a1.585,1.585,0,0,0,.285-.925,1.208,1.208,0,0,0-.285-.925.988.988,0,0,0-.712-.356.876.876,0,0,0-.712.356,1.78,1.78,0,0,0-.285.925,1.208,1.208,0,0,0,.285.925,1.032,1.032,0,0,0,1.423,0Z" transform="translate(-192.774 -94.514)"/>
        <path id="Tracé_2423" data-name="Tracé 2423" d="M243.43,108.066v2.349H242.5v-2.278a1.421,1.421,0,0,0-.142-.641.7.7,0,0,0-.569-.214.973.973,0,0,0-1,1v2.206h-.925V107.71a4.713,4.713,0,0,0-.071-1.068h.854l.071.641a1.457,1.457,0,0,1,.569-.569,1.435,1.435,0,0,1,.783-.214C243,106.5,243.43,107,243.43,108.066Z" transform="translate(-194.677 -94.543)"/>
        <path id="Tracé_2424" data-name="Tracé 2424" d="M247.308,106.793V108.5a.566.566,0,0,0,.641.641.642.642,0,0,0,.356-.071v.783a1.58,1.58,0,0,1-.641.071,1.408,1.408,0,0,1-1-.356,1.473,1.473,0,0,1-.356-1.068v-1.779H245.6v-.712h.712v-.925l.925-.285v1.281h1v.712Z" transform="translate(-196.349 -94.053)"/>
      </g>
    </g>
    <text id="p" transform="translate(100.8 201.848)" font-size="8" font-family="Muli-Bold, Muli" font-weight="700"><tspan x="0" y="0">p</tspan></text>
    <text id="v" transform="translate(200.8 190.848)" font-size="7" font-family="Muli-Bold, Muli" font-weight="700"><tspan x="0" y="0">v</tspan></text>
    <text id="R" transform="translate(130.8 201.848)" font-size="8" font-family="Muli-Bold, Muli" font-weight="700"><tspan x="0" y="0">R</tspan></text>
  </g>
</svg>
