<svg xmlns="http://www.w3.org/2000/svg" xmlns:xlink="http://www.w3.org/1999/xlink" width="40" height="40" viewBox="0 0 40 40"><defs><clipPath id="a"><rect width="40" height="40" fill="none"/></clipPath></defs><g clip-path="url(#a)"><g clip-path="url(#a)"><g transform="translate(7 3.105)"><g transform="translate(7.796 7.798)"><path d="M876.446,546.247a5.043,5.043,0,1,0-1.471-3.561A4.85,4.85,0,0,0,876.446,546.247Z" transform="translate(-874.975 -537.656)" fill="#99e6d1"/></g><path d="M873.451,536.133a12.829,12.829,0,0,1,21.912,9.082,17.219,17.219,0,0,1-1.335,6.114,37.682,37.682,0,0,1-3.229,6.457q-1.893,3.015-3.744,5.639t-3.142,4.178l-1.378,1.462q-.517-.6-1.378-1.592t-3.1-3.96a65.512,65.512,0,0,1-3.917-5.767,41.7,41.7,0,0,1-3.057-6.33,17.4,17.4,0,0,1-1.376-6.2,12.368,12.368,0,0,1,3.744-9.083Zm5.855,12.312a4.575,4.575,0,1,0-1.333-3.229,4.393,4.393,0,0,0,1.333,3.228Z" transform="translate(-869.707 -532.387)"/></g><rect width="40" height="40" fill="none"/></g></g></svg>