<svg xmlns="http://www.w3.org/2000/svg" width="392.1" height="351" viewBox="0 0 392.1 351">
  <g id="cd44-carte-secteurs" transform="translate(-4.05 -6.85)">
    <g id="secteurs">
      <path id="Tracé_2300" data-name="Tracé 2300" d="M148.5,203.4l10.4,2.1,6.4,2.2,9.5,9.9,1.7.2,1.1,2.1,3.7.4,5,5.5,8.3.7,2.3-2.8,5.2-1.6,5.6-10.7.6-2.9-15.4-15,.3-1.7-1.9-2.2v-3.9l-2.3,2.2-1.4-.7-9.1-9.5v-6.6l-9.5,2.6v-2.3l-6.4,1.3-2.5-.7-.4-2.1,1.9-4.7-2.2-5.4,1.3-4.7-2.9-4.3,3.8-1.9.7-7.4,2.6,1.2,5.4-2.2,5.5-6.8-6.5-8.6-9.5.9h-6l-.9-4.7-3.4-.8-.5-6.8-2-.9-6.2.3-1.7-4.4-6.9-5.2-12.6-3.2-3,2.3h.1l-2.2,8.3,1.7,3.1-.6,2.7L104,120.2l-1.8,1.8.4,4-.4,3.8-2.7,2-5-.8-.9-2.5,1.3-3.2-3.1-.5-5,1.1L80.3,131,76,128.5l1.5-3.5-1-.9-4.9.6L67,123l.3,3.4-1,4.6-2.7,3.6-.1,7.7-10.4,2.3-2-2.9H47.9L44,143.6l-4-.7-2.3-3.3-.5-2.5-1.8.4-2.7,3.6-3.2,1.6-1.2,5,2.9,3.3-1.9,4.6,5.3,2.9-.2,1.6L27,160l-1.7-1.3-7.8,5L10,170.5l-5.2,2.2.1,1.5,7.3,3.8,4.6,7.6,1.3,5.7v2.8L15,201.4l-1-1.1-2.1.3-4,.3L7,203.2l10.9,3.9,2.6,2.4,8.1,1.9,1.9,2.1,7,1.3-.6-5.1,6.6-2.9,8.3,2.4,4,3.4,1.8,4.3,10.3,6.7,6.4-1.5,4.8-5.5,5.4-.9,1.1-3.1,6.1-2.2,1-2.7,2.2-.9.5-5.7,1,.1,2.4,2.7,6.1-3.6,7-2.2,10.2.3,6.5-2.9,2,.3,1.2,2.9,4.1-4,1.6.2-.1,6,2.9-.4Z" fill="#99e6d1" stroke="#000" stroke-linecap="round" stroke-linejoin="round" stroke-miterlimit="10" stroke-width="1.5"/>
      <path id="Tracé_2301" data-name="Tracé 2301" d="M253.5,287l-9-.7,2.1-4.3,1.9.4h2.7l-.3-3.3-3.7-5,.4-1.5,6.1-4.7.4-2.7-3.4-3,.9-3.8-2.8-2.7.7-1.8-2.8-1.8-4.6.6.4,1.6-3.3,1.3-4.9,8.3.3,2.4-1.8-.3-6.2,5-1-2.4,2.8-4.1-4.9-.3-1.5-1.8-1,1.5-2.5-4.9-3.7.7h-4.3l-4.1,2.8-4.1-3.5.9-2.2,6.1-5-6.2-.1-3.5-3.5-4.7-1.3,2.4-3.1-.1-1.9-7.5-1.3-2.2-1.9-1.9,1.2-3.7-.9,2.1-4.7-4.1-4.3-6.9-3.7-.4-5-9.5-8.9-3.4-4.1-.3-2.6h-.1l-10.5-2.1-8.1-3-3,.4-.1,4.9-8-2.5-1.2,1.2.3,1-3.7,1.5-17.7,2.4s-2.4,1.6-2.8,1.8c-.4.1-5.3.6-5.3.6l-.3,9-2.2,2.7,5,9,.3,4.7-.9,1.5-1.2,9-2.1,3.4-9.3.6-3.4,2.1-.4,2.4-3.7,3,7.1,4,9,.7.9,1,6.8,2.7,6.5.6,3.3-.9.9,2.1,12,4.6,5,7.7,6.9,4.3,5.8,11.2h1.9l2.1,2.5,3,7.7,2.8,2.7,5.2.1.3,6.2,6.2,5.8,4.6,2.1,6.1-.3,4.6.7.9,1.6-.9,4.4-1.6,1.3,9.3,1.2,2.2-.9L194,334l7.1-1.8,1.9,3.1-1,1.2,2.4,2.1-.6,3,1.8,5.6,4.1,1.6,5.9-2.2,6.2,5.8,4.4-1.8,8,2.1,1,1,2.1-.9,5.6,3,6.9,1.3.4-4.4,2.2-.6,3,.4,5.9-3.3-.7-3.8-5-3.8-5-7.7,4.6.3,1.6-3.1-.4-2.8-3.3-1.9-2.2-3.7.4-1.8-3.1-5.6.9-4.6,2.2-4.3-3-4.1,4.9-3,3.8-.9,3.1-4.1,1.6-.9-4.2-2.9Z" fill="#99e6d1" stroke="#000" stroke-linecap="round" stroke-linejoin="round" stroke-miterlimit="10" stroke-width="1.5"/>
      <path id="Tracé_2302" data-name="Tracé 2302" d="M282.7,208.5l-2,4.4-6.6,3.6-3.4,4.5,5,7.6-2.5,4.3,1.2,8.4,7.8,1.3.6,1.5-4.3,3.8-2.1,4.5-1.4.4-1.5,1.6,2.2,1.5-.1,2.4-4.3,5.9-4.6,1.2-3.8-5.2-3.9.7-4.9,4.3-.4,2.7-6.1,4.7-.4,1.5,3.7,5,.3,3.3h-2.7l-1.9-.5-2.1,4.3,9,.8,3.4,3.2,4.3,2.9.9-.5,3.3,1,.6,1.6,1.7,1.1-.6,3.4,2,6.3,1.1,2.7-.3,2.5-2,.6-.8,2.5.8,3.7,3.1,5.2-3.1,7.9,2,2.6,1.7.1,9.9-6.8,6.5-1,2.6-2.2,1.4.7,1.7-1.9-.3-3.4,1.7-1.5.1-3.8-3.8-3,2.8-4.4-.9-5.6-1.9-4,3.2-3.6,4.5-1-.5-1.2,2.2.7,4.2,3.4,4.9-.1-.3-3.6,3.2-5.1-1.2-3.3,1.4-2.9,4.7-3,4.6,5.9,4.8,1.6,7.7,8.8,11.9,3.2,7.3-3.5-.7-4.8,1.5-3.5-8.7-2.4-2.8-3.5-2.3-4.9-1.7-.7-12.2-1.7-3.4,1.8-2-.7,4.1-4,1.6-2.4-1.3-4.1.3-1.8-1.8-1.2,4.8-3.5,2.6-.2,8.7-8,2.4-6.5-3.5-2.3.1-2.5-1.2-2.8L340,232l.4-1.5-3.9-1.3,2.3-7.7-1.5-.8-2-3.4-3.3-.1-1.3,2.5-4.9,2.2-5.5-4.3-3.2-3.8-1.9-2.5-.2-6.8-1.3-2.7-3-2.2-6.3-1-4.3,1.5-3.6-1.2-4.2,2Z" fill="#99e6d1" stroke="#000" stroke-linecap="round" stroke-linejoin="round" stroke-miterlimit="10" stroke-width="1.5"/>
      <path id="Tracé_2303" data-name="Tracé 2303" d="M293,196.7l-3.4.1-2.2-1.5-1.5-1.5-1-5-.5-4.3-7.1.8-2.8,1.7-1.9,3.3-6.4,2.7-10.4-1.8-2,5-3.1-1.8.5-2.9-.9-2.5-7-7.7-6.2,7.1,2,2.2,3.2,7.7-1.9,3.1.6,9-1.4-.9-1.4.3-5.1-8.4-6.2-4.2-2.2,1.2-1.5-.9-1.6,3.6-2.5-1.2-4.3,4.9-6.8.9.3,2.8-.6,2.9-5.6,10.7-5.2,1.6-2.3,2.8-8.3-.7-5-5.5-3.7-.4-1.1-2.1-1.7-.2-9.5-9.9-6.2-2.1.3,2.6,3.4,4.1,9.4,8.9.5,5,6.9,3.7,4.2,4.3-2.1,4.7,3.7.9,1.9-1.2,2.2,1.9,7.6,1.4.1,1.9-2.3,3.1,4.7,1.3,3.5,3.6,6.2.1-6,5.1-.9,2.2,4.1,3.5,4.2-2.8H215l3.7-.7,2.5,4.8,1-1.4,1.5,1.7,4.9.3-2.8,4.2,1,2.3,6.2-5,1.8.3-.3-2.4,4.9-8.2,3.2-1.4-.4-1.6,4.5-.6,2.8,1.8-.7,1.8,2.8,2.6-.9,3.9,3.4,2.9,4.9-4.3,3.9-.7,3.8,5.2,4.6-1.2,4.3-5.9.1-2.4-2.2-1.5,1.5-1.6,1.4-.4,2.1-4.5,4.3-3.8-.6-1.5-7.8-1.3-1.2-8.4,2.5-4.3-5-7.6,3.4-4.5,6.6-3.6,2-4.4,9.6-7.6,2.7-1.3-.5-1.8Z" fill="#99e6d1" stroke="#000" stroke-linecap="round" stroke-linejoin="round" stroke-miterlimit="10" stroke-width="1.5"/>
      <g id="Groupe_2663" data-name="Groupe 2663">
        <path id="Tracé_2304" data-name="Tracé 2304" d="M288.9,178.2l-10.6-6.4,1-3.5,1.9-2.7-.7-4.3-2.1-1.5-.3-5.6,1.8-.7,4,1.3,4.1-1.2,3-5.6h2.7l.7,2.5,2.5-.1v-2.2L295,147l-1.2-2.2-4.4.4-4.3-3-.4-3,.7-2.4-6.7-1.3-4.6-1.3-3.4,3.4-5.2.6-.7-2.5,2.7-1.5,1-2.2-1.5-4-8.1-.4.9-3.7,1.2.3-.6-2.1,1.9.6,3.5-3.5,5-2.7,5.3-1.3.3-1.9,6.8,2.5,7.7-1.2,5.2-2.5v-4.9l2.8.7.4,1.3,10.9,2.2,2.8-1.6,3.3.3-.9-1.9,3.5-5,2.5-5.2-.1-3,2.8-1.2,9.6,2.7,4,.4,1.9-6.5.6-2.5,6.8-1.3,2.1-1.2-.1-1.6-5-5.2.1-3.3-1.3-4.9-2.7.3-2.2-3.4L340,63l-1.2-2.4,1.3-2.5-1.9-.9-3.5-5.3.3-3.3-5.3.9a38.7,38.7,0,0,0-4.1-2.1,52.618,52.618,0,0,1-4.9-3l-.3-4.1,3.4.1,1.2-5-2.7-2.2.4-4.9-28.5-8-.4-2.5-2.7-1.2-.9-4.4-2.7-2.7-4,1.5-1.3-1.2-1.5.3-2.1-1.6-7.2.3-1.5-1.2h-3.8l-.6,1.5,2.1,2.7,1.6,6.2-.7,1.2-6.9,1.5-1.9-.7-5.9,6.2-6.8.1-4.3,2.1-2.4-.6-2.4,1.6-.3,2.5-1.5,1.3h-4l-1.8,1.5.1,1.9-2.8,5.6L228,48l-2.1.1-4.4,5.3-5.2-1.8-5.6,1.6-1.3,3.5-4.3-.3-1.5-2.1-3.1-.7-5.8,3.3-5.9-1L182.6,54,181,52.8l-3.1,1.9-3.7-1.3-4.9,4.9-3.1-.4-11.8,4-3.8,4.9-1.8.1L147,65.4V60.5l-1.2-2.2L136.5,69l-4.9-.9-3.5,2.2-.9,4.4-7.5.3-3.1,6.8L119,84l.7,4.9-.9,3-4,2.5,1,6.2-1.9.1,2.7,1.8,3.1-2.3,12.6,3.3,6.9,5.2,1.6,4.4,6.2-.3,2.1.9.4,6.8,3.4.7.9,4.7h6.1l9.5-.9,6.5,8.6-5.5,6.8-5.5,2.2-2.5-1.2-.7,7.4-3.8,1.9,3,4.3-1.3,4.7,2.2,5.3-1.9,4.7.4,2.1,2.5.7,6.4-1.3v2.4l9.5-2.7v6.7l9.2,9.5,1.3.7,2.4-2.2v3.8l1.9,2.2-.3,1.8,15.4,14.9-.3-2.8,6.8-.9,4.3-4.9,2.5,1.2,1.6-3.5,1.5.9,2.2-1.2,6.2,4.1,5,8.4,1.5-.3,1.3.9-.6-9,1.9-3.1-3.3-7.7-1.9-2.2,6.2-7.1,6.9,7.7.9,2.5-.4,3,3.1,1.8,1.9-5,10.5,1.8,6.4-2.7,1.9-3.3,2.8-1.8,7.1-.7,2.1-4Z" fill="#99e6d1" stroke="#000" stroke-linecap="round" stroke-linejoin="round" stroke-miterlimit="10" stroke-width="1.5"/>
        <path id="Tracé_2305" data-name="Tracé 2305" d="M394.2,163.5l1-.7-2.2-2.1-.3-1.8-1-1.3-.1-1.3,2.1-.3,1.6.3.1-2.1-1.9-3.1.3-5.9-3.7-5.3.1-2.1,2.4-2.4-1.5-3.7-2.2-.6-2.2.9-3.4-.6-2.2,1.3-1.3-.7h-1l-2.1-3.4-3.7-2.2-2.4-.1.3-4,1.8-3.1.4-3-.4-3.1.6-2.4-3.5.4-.4-2.8-.1-3,2.8.7.7-1-1.3-1.3,3.7-1,1.9-1.8h1.3l.7-2.4,1.8-1,.1-1.8-2.1-1.5-2.4-.9-.7-1.2-2.1-.1s-.9-1.3-1.3-1.3a18.376,18.376,0,0,0-2.4.7l-2.2.1L363.5,90,360,87.6l-.6-1.8-2.5-1.3-3.7.3-4,.4-2.1,1.2-6.8,1.3-.6,2.5-1.9,6.5-4-.4-9.6-2.7-2.8,1.2.1,3L319,103l-3.5,5,.9,1.9-3.3-.3-2.8,1.6L299.4,109l-.4-1.3-2.8-.7v4.9l-5.2,2.5-7.7,1.2-6.8-2.5-.3,1.9-5.3,1.3-5,2.7-3.5,3.5-1.9-.6.6,2.1-1.2-.3-.9,3.7,8.1.4,1.5,4-1,2.2-2.7,1.5.7,2.5,5.2-.6,3.4-3.4,4.6,1.3,6.7,1.3-.7,2.4.4,3,4.3,3,4.4-.4,1.2,2.2L297,148v2.2l-2.5.1-.7-2.5h-2.7l-3,5.6-4.1,1.2-4-1.3-1.8.7.3,5.6,2.1,1.5.7,4.3-1.9,2.7-1,3.5L289,178l-2.4,2.4-2.1,4,.4,4.3,1,5,1.5,1.5,2.2,1.5,3.4-.1,1.5,1.2.5,1.8,1.5-.7,3-3,1.5-2.5,4.1-.9.1-1.3,2.1-1.8,4.6-3.8,8.6-.1,4.3-1.3,2.4-1.6,2.5.1,1-1.3,1.3.6.3,1.3,2.1-1.3,3-.9,3.1-1.8.9-2.8,4,.3,2.1-1.3,1.3,1.2,1-.9,1.8.7,4-.3,1.3.6,3.7-1.5,7.8.3,3,1.3,3.5.3,1.6-1,2.8.4s1.2-1.2,1.6-1.2h2.2l1.3-1.5,1,.7,3,.1,6.9-5.3-1.2-1-.1-1.8,1.3-.6Z" fill="#99e6d1" stroke="#000" stroke-linecap="round" stroke-linejoin="round" stroke-miterlimit="10" stroke-width="1.5"/>
      </g>
    </g>
    <g id="villes_noms">
      <g id="Groupe_2664" data-name="Groupe 2664">
        <path id="Tracé_2306" data-name="Tracé 2306" d="M210.9,221.3h2.8a3.945,3.945,0,0,1,2.9,1,4.42,4.42,0,0,1,0,5.6,3.945,3.945,0,0,1-2.9,1h-2.8Zm2.7,6.5c1.7,0,2.6-.9,2.6-2.7s-.9-2.7-2.6-2.7h-1.3v5.4Z"/>
        <path id="Tracé_2307" data-name="Tracé 2307" d="M223.6,226.2h-3.7a2.226,2.226,0,0,0,.4,1.3,1.461,1.461,0,0,0,1.2.4,2.452,2.452,0,0,0,1.6-.6l.4.9a4.054,4.054,0,0,1-.9.5,5.159,5.159,0,0,1-1.1.2,2.6,2.6,0,0,1-2.9-2.7,4.013,4.013,0,0,1,.3-1.5,2.189,2.189,0,0,1,.9-1,2.891,2.891,0,0,1,1.4-.4,2.41,2.41,0,0,1,1.8.7,2.986,2.986,0,0,1,.6,2v.2Zm-3.2-1.6a1.268,1.268,0,0,0-.4.9h2.5a1.268,1.268,0,0,0-.4-.9,1.136,1.136,0,0,0-.8-.3A1.222,1.222,0,0,0,220.4,224.6Zm1.2-1.8h-.9l1.1-2.2h1.4Z"/>
        <path id="Tracé_2308" data-name="Tracé 2308" d="M224.7,228.9V221H226v7.9Z"/>
        <path id="Tracé_2309" data-name="Tracé 2309" d="M232.2,226.2h-3.7a2.226,2.226,0,0,0,.4,1.3,1.461,1.461,0,0,0,1.2.4,2.452,2.452,0,0,0,1.6-.6l.4.9a4.054,4.054,0,0,1-.9.5,5.159,5.159,0,0,1-1.1.2,2.6,2.6,0,0,1-2.9-2.7,4.013,4.013,0,0,1,.3-1.5,2.189,2.189,0,0,1,.9-1,2.891,2.891,0,0,1,1.4-.4,2.41,2.41,0,0,1,1.8.7,2.986,2.986,0,0,1,.6,2v.2Zm-3.2-1.6a1.268,1.268,0,0,0-.4.9h2.5a1.268,1.268,0,0,0-.4-.9,1.136,1.136,0,0,0-.8-.3A1.222,1.222,0,0,0,229,224.6Zm1.3-1.8h-.9l1.1-2.2h1.4Z"/>
        <path id="Tracé_2310" data-name="Tracé 2310" d="M238.6,223.5v5.2a2.352,2.352,0,0,1-.7,1.9,3.011,3.011,0,0,1-2,.7,5.091,5.091,0,0,1-2.2-.5l.2-1a4.919,4.919,0,0,0,2,.5,1.224,1.224,0,0,0,1.4-1.4v-1.1a2.336,2.336,0,0,1-.7.7,2.016,2.016,0,0,1-1.1.3,2.768,2.768,0,0,1-1.3-.3,1.962,1.962,0,0,1-.9-.9,3.417,3.417,0,0,1,0-2.8,1.962,1.962,0,0,1,.9-.9,2.768,2.768,0,0,1,1.3-.3,2.016,2.016,0,0,1,1.1.3,2.336,2.336,0,0,1,.7.7v-.8h1.3Zm-1.7,3.7a2,2,0,0,0,0-2.4,1.45,1.45,0,0,0-2,0,2,2,0,0,0,0,2.4,1.45,1.45,0,0,0,2,0Z"/>
        <path id="Tracé_2311" data-name="Tracé 2311" d="M245.2,223.5v5.4h-1.3V228a2.336,2.336,0,0,1-.7.7,1.8,1.8,0,0,1-1,.2,2.133,2.133,0,0,1-1.2-.3,2,2,0,0,1-.8-1,3.339,3.339,0,0,1-.3-1.5,3.653,3.653,0,0,1,.3-1.5,2.723,2.723,0,0,1,.8-1,2.45,2.45,0,0,1,1.2-.4,1.689,1.689,0,0,1,1,.3,2.336,2.336,0,0,1,.7.7v-.8h1.3Zm-1.7,4a2.226,2.226,0,0,0,.4-1.3,1.7,1.7,0,0,0-.4-1.3,1.389,1.389,0,0,0-1-.5,1.231,1.231,0,0,0-1,.5,2.5,2.5,0,0,0-.4,1.3,1.7,1.7,0,0,0,.4,1.3,1.45,1.45,0,0,0,2,0Z"/>
        <path id="Tracé_2312" data-name="Tracé 2312" d="M248.3,224.5v2.4a.8.8,0,0,0,.9.9.9.9,0,0,0,.5-.1v1.1a2.219,2.219,0,0,1-.9.1,1.978,1.978,0,0,1-1.4-.5,2.07,2.07,0,0,1-.5-1.5v-2.5h-1v-1h1v-1.3l1.3-.4v1.8h1.4v1Z"/>
        <path id="Tracé_2313" data-name="Tracé 2313" d="M250.6,221h1.5v1.3h-1.5Zm.1,7.9v-5.4H252v5.4Z"/>
        <path id="Tracé_2314" data-name="Tracé 2314" d="M254.4,228.6a3.178,3.178,0,0,1-1-1,3.9,3.9,0,0,1,0-3,2.4,2.4,0,0,1,1-1,2.778,2.778,0,0,1,3.8,1,2.392,2.392,0,0,1,.3,1.5,3.34,3.34,0,0,1-.3,1.5,2.4,2.4,0,0,1-1,1,3.194,3.194,0,0,1-1.4.3A2.382,2.382,0,0,1,254.4,228.6Zm2.5-1.1a2.226,2.226,0,0,0,.4-1.3,1.7,1.7,0,0,0-.4-1.3,1.25,1.25,0,0,0-2,0,2.226,2.226,0,0,0-.4,1.3,1.7,1.7,0,0,0,.4,1.3,1.284,1.284,0,0,0,1,.4A1.159,1.159,0,0,0,256.9,227.5Z"/>
        <path id="Tracé_2315" data-name="Tracé 2315" d="M264.8,225.6v3.3h-1.3v-3.2a2,2,0,0,0-.2-.9.984.984,0,0,0-.8-.3,1.367,1.367,0,0,0-1.4,1.4V229h-1.3v-4a6.621,6.621,0,0,0-.1-1.5h1.2l.1.9a2.047,2.047,0,0,1,.8-.8,2.016,2.016,0,0,1,1.1-.3C264.1,223.3,264.8,224.1,264.8,225.6Z"/>
        <path id="Tracé_2316" data-name="Tracé 2316" d="M225.5,235.3h1.3v7.6h-1l-4.1-5.3v5.3h-1.3v-7.6h1l4.1,5.3Z"/>
        <path id="Tracé_2317" data-name="Tracé 2317" d="M233.5,237.5v5.4h-1.3V242a2.336,2.336,0,0,1-.7.7,1.8,1.8,0,0,1-1,.2,2.133,2.133,0,0,1-1.2-.3,2,2,0,0,1-.8-1,3.339,3.339,0,0,1-.3-1.5,3.653,3.653,0,0,1,.3-1.5,2.723,2.723,0,0,1,.8-1,2.45,2.45,0,0,1,1.2-.4,1.689,1.689,0,0,1,1,.3,2.336,2.336,0,0,1,.7.7v-.8h1.3Zm-1.6,4a2.226,2.226,0,0,0,.4-1.3,1.7,1.7,0,0,0-.4-1.3,1.389,1.389,0,0,0-1-.5,1.231,1.231,0,0,0-1,.5,2.5,2.5,0,0,0-.4,1.3,1.7,1.7,0,0,0,.4,1.3,1.159,1.159,0,0,0,1,.4A1.284,1.284,0,0,0,231.9,241.5Z"/>
        <path id="Tracé_2318" data-name="Tracé 2318" d="M240,239.6v3.3h-1.3v-3.2a2,2,0,0,0-.2-.9.984.984,0,0,0-.8-.3,1.367,1.367,0,0,0-1.4,1.4V243H235v-4a6.621,6.621,0,0,0-.1-1.5h1.2l.1.9a2.047,2.047,0,0,1,.8-.8,2.016,2.016,0,0,1,1.1-.3C239.4,237.3,240,238.1,240,239.6Z"/>
        <path id="Tracé_2319" data-name="Tracé 2319" d="M243.1,238.5v2.4a.8.8,0,0,0,.9.9.9.9,0,0,0,.5-.1v1.1a2.219,2.219,0,0,1-.9.1,1.978,1.978,0,0,1-1.4-.5,2.07,2.07,0,0,1-.5-1.5v-2.5h-1v-1h1v-1.3l1.3-.4v1.8h1.4v1Z"/>
        <path id="Tracé_2320" data-name="Tracé 2320" d="M250.2,240.2h-3.7a2.226,2.226,0,0,0,.4,1.3,1.461,1.461,0,0,0,1.2.4,2.452,2.452,0,0,0,1.6-.6l.4.9a4.054,4.054,0,0,1-.9.5,5.159,5.159,0,0,1-1.1.2,2.6,2.6,0,0,1-2.9-2.7,4.013,4.013,0,0,1,.3-1.5,2.189,2.189,0,0,1,.9-1,2.891,2.891,0,0,1,1.4-.4,2.41,2.41,0,0,1,1.8.7,2.986,2.986,0,0,1,.6,2v.2Zm-3.3-1.6a1.268,1.268,0,0,0-.4.9H249a1.268,1.268,0,0,0-.4-.9,1.136,1.136,0,0,0-.8-.3A1.4,1.4,0,0,0,246.9,238.6Z"/>
        <path id="Tracé_2321" data-name="Tracé 2321" d="M250.9,242.3l.4-.9a3.379,3.379,0,0,0,2,.6,1.166,1.166,0,0,0,.7-.2.536.536,0,0,0,.3-.4.52.52,0,0,0-.2-.4,1.628,1.628,0,0,0-.6-.3l-.9-.2q-1.5-.3-1.5-1.5a1.613,1.613,0,0,1,.3-.9,1.242,1.242,0,0,1,.8-.6,3.73,3.73,0,0,1,1.2-.2,3.6,3.6,0,0,1,1.1.2,2.622,2.622,0,0,1,.9.5l-.4.9a2.716,2.716,0,0,0-1.7-.6,1.445,1.445,0,0,0-.7.2.55.55,0,0,0-.3.5.52.52,0,0,0,.2.4.764.764,0,0,0,.5.2l.9.2a2.281,2.281,0,0,1,1.2.6,1.777,1.777,0,0,1,.4,1,1.425,1.425,0,0,1-.6,1.2,2.537,2.537,0,0,1-1.6.4A4.267,4.267,0,0,1,250.9,242.3Z"/>
      </g>
      <g id="Groupe_2665" data-name="Groupe 2665">
        <path id="Tracé_2322" data-name="Tracé 2322" d="M308.2,133.5H311a3.945,3.945,0,0,1,2.9,1,4.42,4.42,0,0,1,0,5.6,3.945,3.945,0,0,1-2.9,1h-2.8ZM311,140c1.7,0,2.6-.9,2.6-2.7s-.9-2.7-2.6-2.7h-1.3V140Z"/>
        <path id="Tracé_2323" data-name="Tracé 2323" d="M321,138.5h-3.7a2.227,2.227,0,0,0,.4,1.3,1.461,1.461,0,0,0,1.2.4,2.452,2.452,0,0,0,1.6-.6l.4.9a4.054,4.054,0,0,1-.9.5,5.159,5.159,0,0,1-1.1.2,2.6,2.6,0,0,1-2.9-2.7,4.013,4.013,0,0,1,.3-1.5,2.189,2.189,0,0,1,.9-1,2.891,2.891,0,0,1,1.4-.4,2.41,2.41,0,0,1,1.8.7,2.986,2.986,0,0,1,.6,2v.2Zm-3.2-1.7a1.267,1.267,0,0,0-.4.9h2.5a1.268,1.268,0,0,0-.4-.9,1.136,1.136,0,0,0-.8-.3A1.222,1.222,0,0,0,317.8,136.8ZM319,135h-.9l1.1-2.2h1.4Z"/>
        <path id="Tracé_2324" data-name="Tracé 2324" d="M322.1,141.1v-7.9h1.3v7.9Z"/>
        <path id="Tracé_2325" data-name="Tracé 2325" d="M329.6,138.5h-3.7a2.227,2.227,0,0,0,.4,1.3,1.461,1.461,0,0,0,1.2.4,2.452,2.452,0,0,0,1.6-.6l.4.9a4.054,4.054,0,0,1-.9.5,5.159,5.159,0,0,1-1.1.2,2.6,2.6,0,0,1-2.9-2.7,4.013,4.013,0,0,1,.3-1.5,2.189,2.189,0,0,1,.9-1,2.891,2.891,0,0,1,1.4-.4,2.41,2.41,0,0,1,1.8.7,2.986,2.986,0,0,1,.6,2v.2Zm-3.2-1.7a1.267,1.267,0,0,0-.4.9h2.5a1.268,1.268,0,0,0-.4-.9,1.136,1.136,0,0,0-.8-.3A1.222,1.222,0,0,0,326.4,136.8Zm1.2-1.8h-.9l1.1-2.2h1.4Z"/>
        <path id="Tracé_2326" data-name="Tracé 2326" d="M336,135.7v5.2a2.352,2.352,0,0,1-.7,1.9,3.011,3.011,0,0,1-2,.7,5.091,5.091,0,0,1-2.2-.5l.2-1a4.919,4.919,0,0,0,2,.5,1.224,1.224,0,0,0,1.4-1.4V140a2.336,2.336,0,0,1-.7.7,2.016,2.016,0,0,1-1.1.3,2.768,2.768,0,0,1-1.3-.3,1.962,1.962,0,0,1-.9-.9,3.417,3.417,0,0,1,0-2.8,1.962,1.962,0,0,1,.9-.9,2.768,2.768,0,0,1,1.3-.3,2.016,2.016,0,0,1,1.1.3,2.337,2.337,0,0,1,.7.7V136H336Zm-1.7,3.7a2,2,0,0,0,0-2.4,1.45,1.45,0,0,0-2,0,2,2,0,0,0,0,2.4,1.45,1.45,0,0,0,2,0Z"/>
        <path id="Tracé_2327" data-name="Tracé 2327" d="M342.5,135.7v5.4h-1.3v-.9a2.336,2.336,0,0,1-.7.7,1.93,1.93,0,0,1-1,.3,2.133,2.133,0,0,1-1.2-.3,2,2,0,0,1-.8-1,3.339,3.339,0,0,1-.3-1.5,3.653,3.653,0,0,1,.3-1.5,2.723,2.723,0,0,1,.8-1,2.45,2.45,0,0,1,1.2-.4,1.689,1.689,0,0,1,1,.3,2.337,2.337,0,0,1,.7.7v-.8Zm-1.6,4a2.226,2.226,0,0,0,.4-1.3,1.7,1.7,0,0,0-.4-1.3,1.389,1.389,0,0,0-1-.5,1.231,1.231,0,0,0-1,.5,2.5,2.5,0,0,0-.4,1.3,1.7,1.7,0,0,0,.4,1.3,1.159,1.159,0,0,0,1,.4A1.284,1.284,0,0,0,340.9,139.7Z"/>
        <path id="Tracé_2328" data-name="Tracé 2328" d="M345.7,136.7v2.4a.8.8,0,0,0,.9.9.9.9,0,0,0,.5-.1V141a2.22,2.22,0,0,1-.9.1,1.978,1.978,0,0,1-1.4-.5,2.07,2.07,0,0,1-.5-1.5v-2.5h-1v-1h1v-1.3l1.3-.4v1.8H347v1Z"/>
        <path id="Tracé_2329" data-name="Tracé 2329" d="M348,133.2h1.5v1.3H348Zm0,7.9v-5.4h1.3v5.4Z"/>
        <path id="Tracé_2330" data-name="Tracé 2330" d="M351.8,140.8a3.178,3.178,0,0,1-1-1,3.9,3.9,0,0,1,0-3,2.512,2.512,0,0,1,2.4-1.3,2.512,2.512,0,0,1,2.4,1.3,3.9,3.9,0,0,1,0,3,2.4,2.4,0,0,1-1,1,3.194,3.194,0,0,1-1.4.3A2.233,2.233,0,0,1,351.8,140.8Zm2.5-1.1a2.226,2.226,0,0,0,.4-1.3,1.7,1.7,0,0,0-.4-1.3,1.389,1.389,0,0,0-1-.5,1.231,1.231,0,0,0-1,.5,2.226,2.226,0,0,0-.4,1.3,1.7,1.7,0,0,0,.4,1.3,1.45,1.45,0,0,0,2,0Z"/>
        <path id="Tracé_2331" data-name="Tracé 2331" d="M362.2,137.8v3.3h-1.3v-3.2a2,2,0,0,0-.2-.9.984.984,0,0,0-.8-.3,1.367,1.367,0,0,0-1.4,1.4v3.1h-1.3v-3.9a6.621,6.621,0,0,0-.1-1.5h1.2l.1.9a2.047,2.047,0,0,1,.8-.8,2.016,2.016,0,0,1,1.1-.3C361.5,135.6,362.2,136.3,362.2,137.8Z"/>
        <path id="Tracé_2332" data-name="Tracé 2332" d="M321.7,155.1l-.8-1.8h-3.7l-.8,1.8H315l3.4-7.6h1.1l3.4,7.6Zm-4.1-2.9h2.8L319,149Z"/>
        <path id="Tracé_2333" data-name="Tracé 2333" d="M328.8,151.8v3.3h-1.3v-3.2a2,2,0,0,0-.2-.9.984.984,0,0,0-.8-.3,1.367,1.367,0,0,0-1.4,1.4v3.1h-1.3v-3.9a6.621,6.621,0,0,0-.1-1.5h1.2l.1.9a2.047,2.047,0,0,1,.8-.8,2.016,2.016,0,0,1,1.1-.3C328.1,149.6,328.8,150.3,328.8,151.8Z"/>
        <path id="Tracé_2334" data-name="Tracé 2334" d="M331.2,154.8a1.789,1.789,0,0,1-.9-1,3.9,3.9,0,0,1,0-3,2.41,2.41,0,0,1,1-1,3.313,3.313,0,0,1,1.5-.4,3.6,3.6,0,0,1,1.1.2,2.622,2.622,0,0,1,.9.5l-.4.9a2.506,2.506,0,0,0-.7-.4,2.2,2.2,0,0,0-.8-.1,1.29,1.29,0,0,0-1.1.5,2.313,2.313,0,0,0,0,2.6,1.366,1.366,0,0,0,1.1.4,2.485,2.485,0,0,0,.8-.1,1.612,1.612,0,0,0,.7-.4l.4.9a1.934,1.934,0,0,1-.9.5,4.253,4.253,0,0,1-1.1.2A2.559,2.559,0,0,1,331.2,154.8Z"/>
        <path id="Tracé_2335" data-name="Tracé 2335" d="M340.3,152.5h-3.7a2.227,2.227,0,0,0,.4,1.3,1.461,1.461,0,0,0,1.2.4,2.452,2.452,0,0,0,1.6-.6l.4.9a4.054,4.054,0,0,1-.9.5,5.159,5.159,0,0,1-1.1.2,2.6,2.6,0,0,1-2.9-2.7,4.013,4.013,0,0,1,.3-1.5,2.189,2.189,0,0,1,.9-1,2.891,2.891,0,0,1,1.4-.4,2.41,2.41,0,0,1,1.8.7,2.986,2.986,0,0,1,.6,2v.2Zm-3.3-1.7a1.267,1.267,0,0,0-.4.9h2.5a1.268,1.268,0,0,0-.4-.9,1.136,1.136,0,0,0-.8-.3A1.4,1.4,0,0,0,337,150.8Z"/>
        <path id="Tracé_2336" data-name="Tracé 2336" d="M346.4,151.8v3.3h-1.3v-3.2a2,2,0,0,0-.2-.9.984.984,0,0,0-.8-.3,1.367,1.367,0,0,0-1.4,1.4v3.1h-1.3v-3.9a6.621,6.621,0,0,0-.1-1.5h1.2l.1.9a2.047,2.047,0,0,1,.8-.8,2.016,2.016,0,0,1,1.1-.3C345.8,149.6,346.4,150.3,346.4,151.8Z"/>
        <path id="Tracé_2337" data-name="Tracé 2337" d="M347.7,147.2h1.5v1.3h-1.5Zm.1,7.9v-5.4h1.3v5.4Z"/>
        <path id="Tracé_2338" data-name="Tracé 2338" d="M350.3,154.5l.4-.9a3.379,3.379,0,0,0,2,.6,1.166,1.166,0,0,0,.7-.2.536.536,0,0,0,.3-.4.52.52,0,0,0-.2-.4,1.628,1.628,0,0,0-.6-.3l-.9-.2q-1.5-.3-1.5-1.5a1.613,1.613,0,0,1,.3-.9,1.7,1.7,0,0,1,.8-.6,3.73,3.73,0,0,1,1.2-.2,3.6,3.6,0,0,1,1.1.2,1.934,1.934,0,0,1,.9.5l-.4.9a2.716,2.716,0,0,0-1.7-.6,1.446,1.446,0,0,0-.7.2.55.55,0,0,0-.3.5.52.52,0,0,0,.2.4.764.764,0,0,0,.5.2l.9.2a2.281,2.281,0,0,1,1.2.6,1.777,1.777,0,0,1,.4,1,1.426,1.426,0,0,1-.6,1.2,2.537,2.537,0,0,1-1.6.4A3.809,3.809,0,0,1,350.3,154.5Z"/>
      </g>
      <g id="Groupe_2666" data-name="Groupe 2666">
        <path id="Tracé_2339" data-name="Tracé 2339" d="M70.1,154.8h2.8a3.945,3.945,0,0,1,2.9,1,4.42,4.42,0,0,1,0,5.6,3.945,3.945,0,0,1-2.9,1H70.1Zm2.7,6.4c1.7,0,2.6-.9,2.6-2.7s-.9-2.7-2.6-2.7H71.5v5.4Z"/>
        <path id="Tracé_2340" data-name="Tracé 2340" d="M82.9,159.7H79.2a2.226,2.226,0,0,0,.4,1.3,1.461,1.461,0,0,0,1.2.4,2.452,2.452,0,0,0,1.6-.6l.4.9a4.054,4.054,0,0,1-.9.5,5.16,5.16,0,0,1-1.1.2,2.6,2.6,0,0,1-2.9-2.7,4.012,4.012,0,0,1,.3-1.5,2.189,2.189,0,0,1,.9-1,2.891,2.891,0,0,1,1.4-.4,2.41,2.41,0,0,1,1.8.7,2.986,2.986,0,0,1,.6,2v.2Zm-3.3-1.6a1.268,1.268,0,0,0-.4.9h2.5a1.268,1.268,0,0,0-.4-.9,1.136,1.136,0,0,0-.8-.3A1.613,1.613,0,0,0,79.6,158.1Zm1.3-1.8H80l1.1-2.2h1.4Z"/>
        <path id="Tracé_2341" data-name="Tracé 2341" d="M84,162.4v-7.9h1.3v7.9Z"/>
        <path id="Tracé_2342" data-name="Tracé 2342" d="M91.5,159.7H87.8a2.226,2.226,0,0,0,.4,1.3,1.461,1.461,0,0,0,1.2.4,2.452,2.452,0,0,0,1.6-.6l.4.9a4.054,4.054,0,0,1-.9.5,5.16,5.16,0,0,1-1.1.2,2.6,2.6,0,0,1-2.9-2.7,4.012,4.012,0,0,1,.3-1.5,2.189,2.189,0,0,1,.9-1,2.891,2.891,0,0,1,1.4-.4,2.41,2.41,0,0,1,1.8.7,2.986,2.986,0,0,1,.6,2v.2Zm-3.2-1.6a1.268,1.268,0,0,0-.4.9h2.5a1.268,1.268,0,0,0-.4-.9,1.136,1.136,0,0,0-.8-.3A1.222,1.222,0,0,0,88.3,158.1Zm1.2-1.8h-.9l1.1-2.2h1.4Z"/>
        <path id="Tracé_2343" data-name="Tracé 2343" d="M97.9,157v5.2a2.352,2.352,0,0,1-.7,1.9,3.011,3.011,0,0,1-2,.7,5.091,5.091,0,0,1-2.2-.5l.2-1a4.919,4.919,0,0,0,2,.5,1.224,1.224,0,0,0,1.4-1.4v-1.1a2.336,2.336,0,0,1-.7.7,2.016,2.016,0,0,1-1.1.3,2.768,2.768,0,0,1-1.3-.3,1.962,1.962,0,0,1-.9-.9,3.417,3.417,0,0,1,0-2.8,1.962,1.962,0,0,1,.9-.9,2.768,2.768,0,0,1,1.3-.3,2.016,2.016,0,0,1,1.1.3,2.336,2.336,0,0,1,.7.7V157Zm-1.8,3.7a2,2,0,0,0,0-2.4,1.45,1.45,0,0,0-2,0,2,2,0,0,0,0,2.4,1.284,1.284,0,0,0,1,.4A1.159,1.159,0,0,0,96.1,160.7Z"/>
        <path id="Tracé_2344" data-name="Tracé 2344" d="M104.4,157v5.4h-1.3v-.9a2.336,2.336,0,0,1-.7.7,1.929,1.929,0,0,1-1,.3,2.133,2.133,0,0,1-1.2-.3,2,2,0,0,1-.8-1,3.339,3.339,0,0,1-.3-1.5,3.653,3.653,0,0,1,.3-1.5,2.723,2.723,0,0,1,.8-1,2.45,2.45,0,0,1,1.2-.4,1.689,1.689,0,0,1,1,.3,2.336,2.336,0,0,1,.7.7V157Zm-1.6,3.9a2.226,2.226,0,0,0,.4-1.3,1.7,1.7,0,0,0-.4-1.3,1.389,1.389,0,0,0-1-.5,1.231,1.231,0,0,0-1,.5,2.5,2.5,0,0,0-.4,1.3,1.7,1.7,0,0,0,.4,1.3,1.159,1.159,0,0,0,1,.4A1.022,1.022,0,0,0,102.8,160.9Z"/>
        <path id="Tracé_2345" data-name="Tracé 2345" d="M107.6,158v2.4a.8.8,0,0,0,.9.9.9.9,0,0,0,.5-.1v1.1a2.219,2.219,0,0,1-.9.1,1.978,1.978,0,0,1-1.4-.5,2.07,2.07,0,0,1-.5-1.5V158h-1v-1h1v-1.3l1.3-.4v1.8h1.4v1h-1.3Z"/>
        <path id="Tracé_2346" data-name="Tracé 2346" d="M109.9,154.5h1.5v1.3h-1.5Zm0,7.9V157h1.3v5.4Z"/>
        <path id="Tracé_2347" data-name="Tracé 2347" d="M113.7,162.1a3.178,3.178,0,0,1-1-1,3.9,3.9,0,0,1,0-3,2.512,2.512,0,0,1,2.4-1.3,2.512,2.512,0,0,1,2.4,1.3,3.9,3.9,0,0,1,0,3,2.4,2.4,0,0,1-1,1,3.417,3.417,0,0,1-2.8,0Zm2.5-1.1a2.226,2.226,0,0,0,.4-1.3,1.7,1.7,0,0,0-.4-1.3,1.389,1.389,0,0,0-1-.5,1.231,1.231,0,0,0-1,.5,2.226,2.226,0,0,0-.4,1.3,1.7,1.7,0,0,0,.4,1.3,1.45,1.45,0,0,0,2,0Z"/>
        <path id="Tracé_2348" data-name="Tracé 2348" d="M124,159.1v3.3h-1.3v-3.2a2,2,0,0,0-.2-.9.984.984,0,0,0-.8-.3,1.367,1.367,0,0,0-1.4,1.4v3.1H119v-3.9a6.622,6.622,0,0,0-.1-1.5h1.2l.1.9a2.047,2.047,0,0,1,.8-.8,2.016,2.016,0,0,1,1.1-.3C123.4,156.8,124,157.6,124,159.1Z"/>
        <path id="Tracé_2349" data-name="Tracé 2349" d="M63.4,176.2a5.387,5.387,0,0,1-1.3-.7l.5-1a3.379,3.379,0,0,0,1.2.6,5.066,5.066,0,0,0,1.3.2,2.133,2.133,0,0,0,1.2-.3.812.812,0,0,0,.4-.8.755.755,0,0,0-.4-.7,3.323,3.323,0,0,0-1.3-.4,6.126,6.126,0,0,1-2.1-.8,1.75,1.75,0,0,1-.7-1.4,1.922,1.922,0,0,1,.4-1.2,2.539,2.539,0,0,1,1-.8,3.653,3.653,0,0,1,1.5-.3,7.72,7.72,0,0,1,1.5.2,3.458,3.458,0,0,1,1.2.7l-.5,1a3.716,3.716,0,0,0-2.2-.8,2.133,2.133,0,0,0-1.2.3.909.909,0,0,0-.4.8.755.755,0,0,0,.4.7,3.323,3.323,0,0,0,1.3.4,5.271,5.271,0,0,1,1.5.5,2.178,2.178,0,0,1,.9.7,1.689,1.689,0,0,1,.3,1,1.594,1.594,0,0,1-.4,1.2,2.723,2.723,0,0,1-1,.8,4.146,4.146,0,0,1-1.6.3A2.727,2.727,0,0,1,63.4,176.2Z"/>
        <path id="Tracé_2350" data-name="Tracé 2350" d="M74.4,171v5.4H73.1v-.9a2.336,2.336,0,0,1-.7.7,1.929,1.929,0,0,1-1,.3,2.133,2.133,0,0,1-1.2-.3,2,2,0,0,1-.8-1,3.339,3.339,0,0,1-.3-1.5,3.653,3.653,0,0,1,.3-1.5,2.723,2.723,0,0,1,.8-1,2.45,2.45,0,0,1,1.2-.4,1.689,1.689,0,0,1,1,.3,2.336,2.336,0,0,1,.7.7V171Zm-1.6,3.9a2.226,2.226,0,0,0,.4-1.3,1.7,1.7,0,0,0-.4-1.3,1.389,1.389,0,0,0-1-.5,1.231,1.231,0,0,0-1,.5,2.5,2.5,0,0,0-.4,1.3,1.7,1.7,0,0,0,.4,1.3,1.159,1.159,0,0,0,1,.4A1.022,1.022,0,0,0,72.8,174.9Z"/>
        <path id="Tracé_2351" data-name="Tracé 2351" d="M75.8,168.5h1.5v1.3H75.8Zm.1,7.9V171h1.3v5.4Z"/>
        <path id="Tracé_2352" data-name="Tracé 2352" d="M83.7,173.1v3.3H82.4v-3.2a2,2,0,0,0-.2-.9.984.984,0,0,0-.8-.3,1.367,1.367,0,0,0-1.4,1.4v3.1H78.7v-3.9a6.622,6.622,0,0,0-.1-1.5h1.2l.1.9a2.047,2.047,0,0,1,.8-.8,2.016,2.016,0,0,1,1.1-.3C83,170.8,83.7,171.6,83.7,173.1Z"/>
        <path id="Tracé_2353" data-name="Tracé 2353" d="M86.8,172v2.4a.8.8,0,0,0,.9.9.9.9,0,0,0,.5-.1v1.1a2.219,2.219,0,0,1-.9.1,1.978,1.978,0,0,1-1.4-.5,2.07,2.07,0,0,1-.5-1.5V172h-1v-1h1v-1.3l1.3-.4v1.8h1.4v1H86.8Z"/>
        <path id="Tracé_2354" data-name="Tracé 2354" d="M89,174v-1.1h3.2V174Z"/>
        <path id="Tracé_2355" data-name="Tracé 2355" d="M98.9,168.8h1.3v7.6h-1l-4.1-5.3v5.3H93.8v-7.6h1l4.1,5.3Z"/>
        <path id="Tracé_2356" data-name="Tracé 2356" d="M106.9,171v5.4h-1.3v-.9a2.336,2.336,0,0,1-.7.7,1.929,1.929,0,0,1-1,.3,2.133,2.133,0,0,1-1.2-.3,2,2,0,0,1-.8-1,3.339,3.339,0,0,1-.3-1.5,3.653,3.653,0,0,1,.3-1.5,2.723,2.723,0,0,1,.8-1,2.45,2.45,0,0,1,1.2-.4,1.689,1.689,0,0,1,1,.3,2.336,2.336,0,0,1,.7.7V171Zm-1.7,3.9a2.226,2.226,0,0,0,.4-1.3,1.7,1.7,0,0,0-.4-1.3,1.389,1.389,0,0,0-1-.5,1.231,1.231,0,0,0-1,.5,2.5,2.5,0,0,0-.4,1.3,1.7,1.7,0,0,0,.4,1.3,1.159,1.159,0,0,0,1,.4A.951.951,0,0,0,105.2,174.9Z"/>
        <path id="Tracé_2357" data-name="Tracé 2357" d="M109.7,175.3h3.1v1h-4.7v-.9l3-3.5h-2.9v-1h4.5v.9Z"/>
        <path id="Tracé_2358" data-name="Tracé 2358" d="M118.9,171v5.4h-1.3v-.9a2.336,2.336,0,0,1-.7.7,1.929,1.929,0,0,1-1,.3,2.133,2.133,0,0,1-1.2-.3,2,2,0,0,1-.8-1,3.339,3.339,0,0,1-.3-1.5,3.653,3.653,0,0,1,.3-1.5,2.723,2.723,0,0,1,.8-1,2.45,2.45,0,0,1,1.2-.4,1.689,1.689,0,0,1,1,.3,2.336,2.336,0,0,1,.7.7V171Zm-1.6,3.9a2.226,2.226,0,0,0,.4-1.3,1.7,1.7,0,0,0-.4-1.3,1.389,1.389,0,0,0-1-.5,1.231,1.231,0,0,0-1,.5,2.5,2.5,0,0,0-.4,1.3,1.7,1.7,0,0,0,.4,1.3,1.159,1.159,0,0,0,1,.4A1.022,1.022,0,0,0,117.3,174.9Z"/>
        <path id="Tracé_2359" data-name="Tracé 2359" d="M120.3,168.5h1.5v1.3h-1.5Zm.1,7.9V171h1.3v5.4Z"/>
        <path id="Tracé_2360" data-name="Tracé 2360" d="M126.6,170.9v1.2a1.7,1.7,0,0,0-.7-.1,1.053,1.053,0,0,0-1,.4,1.777,1.777,0,0,0-.4,1v2.9h-1.3v-3.9a6.622,6.622,0,0,0-.1-1.5h1.2l.1.9a1.555,1.555,0,0,1,.6-.8,1.689,1.689,0,0,1,1-.3A3.93,3.93,0,0,0,126.6,170.9Z"/>
        <path id="Tracé_2361" data-name="Tracé 2361" d="M132,173.7h-3.7a2.226,2.226,0,0,0,.4,1.3,1.461,1.461,0,0,0,1.2.4,2.452,2.452,0,0,0,1.6-.6l.4.9a4.054,4.054,0,0,1-.9.5,5.159,5.159,0,0,1-1.1.2,2.6,2.6,0,0,1-2.9-2.7,4.012,4.012,0,0,1,.3-1.5,2.189,2.189,0,0,1,.9-1,2.891,2.891,0,0,1,1.4-.4,2.41,2.41,0,0,1,1.8.7,2.986,2.986,0,0,1,.6,2Zm-3.3-1.6a1.268,1.268,0,0,0-.4.9h2.5a1.268,1.268,0,0,0-.4-.9,1.136,1.136,0,0,0-.8-.3A1.4,1.4,0,0,0,128.7,172.1Z"/>
      </g>
      <g id="Groupe_2667" data-name="Groupe 2667">
        <path id="Tracé_2362" data-name="Tracé 2362" d="M143.7,259h2.8a3.945,3.945,0,0,1,2.9,1,4.42,4.42,0,0,1,0,5.6,3.945,3.945,0,0,1-2.9,1h-2.8Zm2.7,6.4c1.7,0,2.6-.9,2.6-2.7s-.9-2.7-2.6-2.7h-1.3v5.4h1.3Z"/>
        <path id="Tracé_2363" data-name="Tracé 2363" d="M156.5,263.9h-3.7a2.226,2.226,0,0,0,.4,1.3,1.461,1.461,0,0,0,1.2.4,2.452,2.452,0,0,0,1.6-.6l.4.9a4.053,4.053,0,0,1-.9.5,5.16,5.16,0,0,1-1.1.2,2.6,2.6,0,0,1-2.9-2.7,4.013,4.013,0,0,1,.3-1.5,2.189,2.189,0,0,1,.9-1,2.89,2.89,0,0,1,1.4-.4,2.41,2.41,0,0,1,1.8.7,2.986,2.986,0,0,1,.6,2v.2Zm-3.3-1.6a1.268,1.268,0,0,0-.4.9h2.5a1.268,1.268,0,0,0-.4-.9,1.135,1.135,0,0,0-.8-.3A1.613,1.613,0,0,0,153.2,262.3Zm1.3-1.8h-.9l1.1-2.2h1.4Z"/>
        <path id="Tracé_2364" data-name="Tracé 2364" d="M157.6,266.6v-7.9h1.3v7.9Z"/>
        <path id="Tracé_2365" data-name="Tracé 2365" d="M165.1,263.9h-3.7a2.226,2.226,0,0,0,.4,1.3,1.461,1.461,0,0,0,1.2.4,2.452,2.452,0,0,0,1.6-.6l.4.9a4.053,4.053,0,0,1-.9.5,5.16,5.16,0,0,1-1.1.2,2.6,2.6,0,0,1-2.9-2.7,4.013,4.013,0,0,1,.3-1.5,2.189,2.189,0,0,1,.9-1,2.89,2.89,0,0,1,1.4-.4,2.41,2.41,0,0,1,1.8.7,2.986,2.986,0,0,1,.6,2v.2Zm-3.2-1.6a1.268,1.268,0,0,0-.4.9H164a1.268,1.268,0,0,0-.4-.9,1.135,1.135,0,0,0-.8-.3A1.222,1.222,0,0,0,161.9,262.3Zm1.2-1.8h-.9l1.1-2.2h1.4Z"/>
        <path id="Tracé_2366" data-name="Tracé 2366" d="M171.4,261.2v5.2a2.352,2.352,0,0,1-.7,1.9,3.011,3.011,0,0,1-2,.7,5.091,5.091,0,0,1-2.2-.5l.2-1a4.919,4.919,0,0,0,2,.5,1.224,1.224,0,0,0,1.4-1.4v-1.1a2.337,2.337,0,0,1-.7.7,2.016,2.016,0,0,1-1.1.3,2.768,2.768,0,0,1-1.3-.3,1.962,1.962,0,0,1-.9-.9,3.417,3.417,0,0,1,0-2.8,1.962,1.962,0,0,1,.9-.9,2.768,2.768,0,0,1,1.3-.3,2.016,2.016,0,0,1,1.1.3,2.336,2.336,0,0,1,.7.7v-.8h1.3Zm-1.7,3.7a2,2,0,0,0,0-2.4,1.45,1.45,0,0,0-2,0,2,2,0,0,0,0,2.4,1.284,1.284,0,0,0,1,.4A1.159,1.159,0,0,0,169.7,264.9Z"/>
        <path id="Tracé_2367" data-name="Tracé 2367" d="M178,261.2v5.4h-1.3v-.9a2.337,2.337,0,0,1-.7.7,1.8,1.8,0,0,1-1,.2,2.133,2.133,0,0,1-1.2-.3,2,2,0,0,1-.8-1,3.339,3.339,0,0,1-.3-1.5,3.653,3.653,0,0,1,.3-1.5,2.723,2.723,0,0,1,.8-1,2.45,2.45,0,0,1,1.2-.4,1.69,1.69,0,0,1,1,.3,2.336,2.336,0,0,1,.7.7v-.8H178Zm-1.6,3.9a2.226,2.226,0,0,0,.4-1.3,1.7,1.7,0,0,0-.4-1.3,1.389,1.389,0,0,0-1-.5,1.231,1.231,0,0,0-1,.5,2.5,2.5,0,0,0-.4,1.3,1.7,1.7,0,0,0,.4,1.3,1.16,1.16,0,0,0,1,.4A.863.863,0,0,0,176.4,265.1Z"/>
        <path id="Tracé_2368" data-name="Tracé 2368" d="M181.2,262.2v2.4a.8.8,0,0,0,.9.9.9.9,0,0,0,.5-.1v1.1a2.219,2.219,0,0,1-.9.1,1.978,1.978,0,0,1-1.4-.5,2.07,2.07,0,0,1-.5-1.5v-2.5h-1v-1h1v-1.3l1.3-.4v1.8h1.4v1Z"/>
        <path id="Tracé_2369" data-name="Tracé 2369" d="M183.4,258.7h1.5V260h-1.5Zm.1,7.9v-5.4h1.3v5.4Z"/>
        <path id="Tracé_2370" data-name="Tracé 2370" d="M187.3,266.3a3.178,3.178,0,0,1-1-1,3.9,3.9,0,0,1,0-3,2.4,2.4,0,0,1,1-1,2.778,2.778,0,0,1,3.8,1,2.392,2.392,0,0,1,.3,1.5,3.339,3.339,0,0,1-.3,1.5,2.4,2.4,0,0,1-1,1,3.417,3.417,0,0,1-2.8,0Zm2.5-1.1a2.226,2.226,0,0,0,.4-1.3,1.7,1.7,0,0,0-.4-1.3,1.25,1.25,0,0,0-2,0,2.226,2.226,0,0,0-.4,1.3,1.7,1.7,0,0,0,.4,1.3,1.284,1.284,0,0,0,1,.4A1.16,1.16,0,0,0,189.8,265.2Z"/>
        <path id="Tracé_2371" data-name="Tracé 2371" d="M197.6,263.3v3.3h-1.3v-3.2a2,2,0,0,0-.2-.9.984.984,0,0,0-.8-.3,1.367,1.367,0,0,0-1.4,1.4v3.1h-1.3v-3.9a6.621,6.621,0,0,0-.1-1.5h1.2l.1.9a2.047,2.047,0,0,1,.8-.8,2.016,2.016,0,0,1,1.1-.3C197,261,197.6,261.8,197.6,263.3Z"/>
        <path id="Tracé_2373" data-name="Tracé 2373" d="M150.3,275.2v5.4H149v-.9a2.337,2.337,0,0,1-.7.7,1.8,1.8,0,0,1-1,.2,2.133,2.133,0,0,1-1.2-.3,2,2,0,0,1-.8-1,3.339,3.339,0,0,1-.3-1.5,3.653,3.653,0,0,1,.3-1.5,2.723,2.723,0,0,1,.8-1,2.45,2.45,0,0,1,1.2-.4,1.69,1.69,0,0,1,1,.3,2.336,2.336,0,0,1,.7.7v-.8h1.3Zm-1.7,3.9a2.226,2.226,0,0,0,.4-1.3,1.7,1.7,0,0,0-.4-1.3,1.389,1.389,0,0,0-1-.5,1.231,1.231,0,0,0-1,.5,2.5,2.5,0,0,0-.4,1.3,1.7,1.7,0,0,0,.4,1.3,1.16,1.16,0,0,0,1,.4A.819.819,0,0,0,148.6,279.1Z" transform="translate(2)"/>
        <path id="Tracé_2374" data-name="Tracé 2374" d="M156.9,275.2l-2.5,5.7a2.955,2.955,0,0,1-1.1,1.5,4.419,4.419,0,0,1-1.6.6l-.3-1a4.33,4.33,0,0,0,1.1-.4,1.242,1.242,0,0,0,.6-.8l.2-.4-2.2-5.2h1.4l1.5,3.9,1.6-3.9h1.3Z" transform="translate(2)"/>
        <path id="Tracé_2375" data-name="Tracé 2375" d="M157.1,280l.4-.9a3.379,3.379,0,0,0,2,.6,1.165,1.165,0,0,0,.7-.2.536.536,0,0,0,.3-.4.52.52,0,0,0-.2-.4,1.628,1.628,0,0,0-.6-.3l-.9-.2q-1.5-.3-1.5-1.5a1.613,1.613,0,0,1,.3-.9,1.242,1.242,0,0,1,.8-.6,3.729,3.729,0,0,1,1.2-.2,3.6,3.6,0,0,1,1.1.2,2.622,2.622,0,0,1,.9.5l-.4.9a2.716,2.716,0,0,0-1.7-.6,1.445,1.445,0,0,0-.7.2.55.55,0,0,0-.3.5.52.52,0,0,0,.2.4.764.764,0,0,0,.5.2l.9.2a2.281,2.281,0,0,1,1.2.6,1.777,1.777,0,0,1,.4,1,1.426,1.426,0,0,1-.6,1.2,2.537,2.537,0,0,1-1.6.4A5.243,5.243,0,0,1,157.1,280Z" transform="translate(2)"/>
        <path id="Tracé_2377" data-name="Tracé 2377" d="M172.8,272.7v7.9h-1.3v-.9a2.337,2.337,0,0,1-.7.7,1.8,1.8,0,0,1-1,.2,1.594,1.594,0,0,1-1.2-.4,3.915,3.915,0,0,1-.8-1,3.339,3.339,0,0,1-.3-1.5,3.653,3.653,0,0,1,.3-1.5,3.915,3.915,0,0,1,.8-1,2.662,2.662,0,0,1,1.2-.3,2.958,2.958,0,0,1,1,.2,2.336,2.336,0,0,1,.7.7v-3.2h1.3Zm-1.7,6.4a2.226,2.226,0,0,0,.4-1.3,1.7,1.7,0,0,0-.4-1.3,1.389,1.389,0,0,0-1-.5,1.231,1.231,0,0,0-1,.5,2.226,2.226,0,0,0-.4,1.3,1.7,1.7,0,0,0,.4,1.3,1.231,1.231,0,0,0,1,.5A1.016,1.016,0,0,0,171.1,279.1Z"/>
        <path id="Tracé_2378" data-name="Tracé 2378" d="M179,277.9h-3.7a2.226,2.226,0,0,0,.4,1.3,1.461,1.461,0,0,0,1.2.4,2.452,2.452,0,0,0,1.6-.6l.4.9a4.053,4.053,0,0,1-.9.5,5.16,5.16,0,0,1-1.1.2,2.6,2.6,0,0,1-2.9-2.7,4.013,4.013,0,0,1,.3-1.5,2.189,2.189,0,0,1,.9-1,2.89,2.89,0,0,1,1.4-.4,2.41,2.41,0,0,1,1.8.7,2.986,2.986,0,0,1,.6,2v.2Zm-3.3-1.6a1.268,1.268,0,0,0-.4.9h2.5a1.268,1.268,0,0,0-.4-.9,1.135,1.135,0,0,0-.8-.3A1.4,1.4,0,0,0,175.7,276.3Z"/>
        <path id="Tracé_2381" data-name="Tracé 2381" d="M193.7,277.9H190a2.226,2.226,0,0,0,.4,1.3,1.461,1.461,0,0,0,1.2.4,2.452,2.452,0,0,0,1.6-.6l.4.9a4.053,4.053,0,0,1-.9.5,5.16,5.16,0,0,1-1.1.2,2.6,2.6,0,0,1-2.9-2.7,4.013,4.013,0,0,1,.3-1.5,2.189,2.189,0,0,1,.9-1,2.89,2.89,0,0,1,1.4-.4,2.41,2.41,0,0,1,1.8.7,2.986,2.986,0,0,1,.6,2v.2Zm-3.2-1.6a1.268,1.268,0,0,0-.4.9h2.5a1.268,1.268,0,0,0-.4-.9,1.135,1.135,0,0,0-.8-.3A1.222,1.222,0,0,0,190.5,276.3Z" transform="translate(1)"/>
        <path id="Tracé_2382" data-name="Tracé 2382" d="M196.5,276.2v2.4a.8.8,0,0,0,.9.9.9.9,0,0,0,.5-.1v1.1a2.219,2.219,0,0,1-.9.1,1.978,1.978,0,0,1-1.4-.5,2.07,2.07,0,0,1-.5-1.5v-2.5h-1v-1h1v-1.3l1.3-.4v1.8h1.4v1Z" transform="translate(1)"/>
        <path id="Tracé_2383" data-name="Tracé 2383" d="M200.2,279.6h3.1v1h-4.7v-.9l3-3.5h-2.9v-1h4.5v.9Z" transform="translate(1)"/>
      </g>
      <g id="Groupe_2668" data-name="Groupe 2668">
        <path id="Tracé_2384" data-name="Tracé 2384" d="M283.6,244.6h2.6a3.667,3.667,0,0,1,2.7.9,3.622,3.622,0,0,1,1,2.6,3.253,3.253,0,0,1-1,2.6,3.667,3.667,0,0,1-2.7.9h-2.6Zm2.6,6.1a2.223,2.223,0,0,0,2.5-2.5,2.184,2.184,0,0,0-2.5-2.5H285v5Z"/>
        <path id="Tracé_2385" data-name="Tracé 2385" d="M295.6,249.2h-3.5a2.144,2.144,0,0,0,.4,1.2,1.246,1.246,0,0,0,1.1.4,2.456,2.456,0,0,0,1.5-.5l.4.9a3.6,3.6,0,0,1-.9.5,4.253,4.253,0,0,1-1.1.2,2.724,2.724,0,0,1-2-.7,2.489,2.489,0,0,1-.7-1.9,3.194,3.194,0,0,1,.3-1.4,1.962,1.962,0,0,1,.9-.9,2.768,2.768,0,0,1,1.3-.3,1.865,1.865,0,0,1,1.6.7,2.883,2.883,0,0,1,.6,1.9v-.1Zm-3-1.5a1.884,1.884,0,0,0-.4.9h2.4a1.9,1.9,0,0,0-.3-.9c-.1-.2-.5-.3-.8-.3A1.078,1.078,0,0,0,292.6,247.7Zm1.1-1.7h-.8l1-2.1h1.3Z"/>
        <path id="Tracé_2386" data-name="Tracé 2386" d="M296.6,251.7v-7.4h1.2v7.4Z"/>
        <path id="Tracé_2387" data-name="Tracé 2387" d="M303.7,249.2h-3.5a2.144,2.144,0,0,0,.4,1.2,1.246,1.246,0,0,0,1.1.4,2.456,2.456,0,0,0,1.5-.5l.4.9a3.6,3.6,0,0,1-.9.5,4.253,4.253,0,0,1-1.1.2,2.724,2.724,0,0,1-2-.7,2.489,2.489,0,0,1-.7-1.9,3.194,3.194,0,0,1,.3-1.4,1.962,1.962,0,0,1,.9-.9,2.768,2.768,0,0,1,1.3-.3,1.865,1.865,0,0,1,1.6.7,2.883,2.883,0,0,1,.6,1.9v-.1Zm-3.1-1.5a1.884,1.884,0,0,0-.4.9h2.4a1.9,1.9,0,0,0-.3-.9c-.1-.2-.5-.3-.8-.3A1.4,1.4,0,0,0,300.6,247.7Zm1.2-1.7H301l1-2.1h1.3Z"/>
        <path id="Tracé_2388" data-name="Tracé 2388" d="M309.6,246.7v4.9a2.445,2.445,0,0,1-.6,1.8,2.707,2.707,0,0,1-1.9.6,4.648,4.648,0,0,1-2.1-.5l.2-1a4.075,4.075,0,0,0,1.8.5c.9,0,1.4-.4,1.4-1.3v-1a2.336,2.336,0,0,1-.7.7,1.689,1.689,0,0,1-1,.3,2.663,2.663,0,0,1-1.2-.3,1.764,1.764,0,0,1-.8-.9,2.967,2.967,0,0,1,0-2.6,2.361,2.361,0,0,1,.8-.9,2.133,2.133,0,0,1,1.2-.3,2.959,2.959,0,0,1,1,.2,2.337,2.337,0,0,1,.7.7v-.8h1.2Zm-1.6,3.5a1.82,1.82,0,0,0,.4-1.1,1.246,1.246,0,0,0-.4-1.1,1.777,1.777,0,0,0-1-.4,1.284,1.284,0,0,0-1,.4,2.1,2.1,0,0,0-.4,1.1,1.246,1.246,0,0,0,.4,1.1,1.159,1.159,0,0,0,1,.4A1.333,1.333,0,0,0,308,250.2Z"/>
        <path id="Tracé_2389" data-name="Tracé 2389" d="M315.8,246.7v5h-1.2v-.8a2.336,2.336,0,0,1-.7.7,1.645,1.645,0,0,1-1,.2,2.663,2.663,0,0,1-1.2-.3,2.361,2.361,0,0,1-.8-.9,2.9,2.9,0,0,1-.3-1.4,3.194,3.194,0,0,1,.3-1.4,2.361,2.361,0,0,1,.8-.9,2.133,2.133,0,0,1,1.2-.3,2.959,2.959,0,0,1,1,.2,2.337,2.337,0,0,1,.7.7v-.8Zm-1.6,3.7a2.55,2.55,0,0,0,0-2.4,1.053,1.053,0,0,0-1-.4,1.284,1.284,0,0,0-1,.4,1.558,1.558,0,0,0-.3,1.2,2.133,2.133,0,0,0,.3,1.2,1.159,1.159,0,0,0,1,.4A1.053,1.053,0,0,0,314.2,250.4Z"/>
        <path id="Tracé_2390" data-name="Tracé 2390" d="M318.7,247.6v2.3c0,.6.3.9.8.9a.9.9,0,0,0,.5-.1v1a1.949,1.949,0,0,1-.8.1,1.727,1.727,0,0,1-1.3-.5,1.978,1.978,0,0,1-.5-1.4v-2.3h-1v-.9h1v-1.2l1.2-.4v1.7h1.3v.9h-1.2Z"/>
        <path id="Tracé_2391" data-name="Tracé 2391" d="M320.9,244.4h1.4v1.2h-1.4Zm0,7.3v-5h1.2v5Z"/>
        <path id="Tracé_2392" data-name="Tracé 2392" d="M324.5,251.5a1.962,1.962,0,0,1-.9-.9,3.417,3.417,0,0,1,0-2.8,1.962,1.962,0,0,1,.9-.9,2.9,2.9,0,0,1,1.4-.3,2.5,2.5,0,0,1,1.3.3,1.962,1.962,0,0,1,.9.9,3.417,3.417,0,0,1,0,2.8,1.962,1.962,0,0,1-.9.9,2.768,2.768,0,0,1-1.3.3A2.9,2.9,0,0,1,324.5,251.5Zm2.3-1.1a2.132,2.132,0,0,0,.3-1.2,1.923,1.923,0,0,0-.3-1.2,1.333,1.333,0,0,0-1-.4,1.284,1.284,0,0,0-1,.4,1.558,1.558,0,0,0-.3,1.2,1.923,1.923,0,0,0,.3,1.2,1.45,1.45,0,0,0,2,0Z"/>
        <path id="Tracé_2393" data-name="Tracé 2393" d="M334.2,248.6v3.1H333v-3a2,2,0,0,0-.2-.9.779.779,0,0,0-.7-.3.975.975,0,0,0-.9.4,1.777,1.777,0,0,0-.4,1v2.9h-1.2v-3.6a6.149,6.149,0,0,0-.1-1.4h1.2l.1.8a2.336,2.336,0,0,1,.7-.7,1.645,1.645,0,0,1,1-.2C333.6,246.5,334.2,247.2,334.2,248.6Z"/>
        <path id="Tracé_2395" data-name="Tracé 2395" d="M285.9,258.4h1.4v1.2h-1.4Zm.1,7.3v-5h1.2v5Z"/>
        <path id="Tracé_2396" data-name="Tracé 2396" d="M293.5,260.7v4.9a2.445,2.445,0,0,1-.6,1.8,2.707,2.707,0,0,1-1.9.6,4.649,4.649,0,0,1-2.1-.5l.2-1a4.075,4.075,0,0,0,1.8.5c.9,0,1.4-.4,1.4-1.3v-1a2.337,2.337,0,0,1-.7.7,1.689,1.689,0,0,1-1,.3,2.663,2.663,0,0,1-1.2-.3,1.764,1.764,0,0,1-.8-.9,2.967,2.967,0,0,1,0-2.6,2.361,2.361,0,0,1,.8-.9,2.133,2.133,0,0,1,1.2-.3,2.958,2.958,0,0,1,1,.2,2.337,2.337,0,0,1,.7.7v-.8h1.2Zm-1.6,3.5a1.82,1.82,0,0,0,.4-1.1,1.246,1.246,0,0,0-.4-1.1,1.777,1.777,0,0,0-1-.4,1.284,1.284,0,0,0-1,.4,2.1,2.1,0,0,0-.4,1.1,1.246,1.246,0,0,0,.4,1.1,1.16,1.16,0,0,0,1,.4A1.528,1.528,0,0,0,291.9,264.2Z"/>
        <path id="Tracé_2397" data-name="Tracé 2397" d="M299.5,262.6v3.1h-1.2v-3a2,2,0,0,0-.2-.9.779.779,0,0,0-.7-.3.975.975,0,0,0-.9.4,1.777,1.777,0,0,0-.4,1v2.9h-1.2v-3.6a6.149,6.149,0,0,0-.1-1.4H296l.1.8a2.337,2.337,0,0,1,.7-.7,1.644,1.644,0,0,1,1-.2C298.9,260.5,299.5,261.2,299.5,262.6Z"/>
        <path id="Tracé_2398" data-name="Tracé 2398" d="M301.8,265.5a1.962,1.962,0,0,1-.9-.9,3.417,3.417,0,0,1,0-2.8,1.962,1.962,0,0,1,.9-.9,2.9,2.9,0,0,1,1.4-.3,2.5,2.5,0,0,1,1.3.3,1.962,1.962,0,0,1,.9.9,3.417,3.417,0,0,1,0,2.8,1.962,1.962,0,0,1-.9.9,2.768,2.768,0,0,1-1.3.3A2.9,2.9,0,0,1,301.8,265.5Zm2.3-1.1a2.133,2.133,0,0,0,.3-1.2,1.923,1.923,0,0,0-.3-1.2,1.333,1.333,0,0,0-1-.4,1.284,1.284,0,0,0-1,.4,1.558,1.558,0,0,0-.3,1.2,1.923,1.923,0,0,0,.3,1.2,1.45,1.45,0,0,0,2,0Z"/>
        <path id="Tracé_2399" data-name="Tracé 2399" d="M310.8,260.8a2.361,2.361,0,0,1,.8.9,3.417,3.417,0,0,1,0,2.8,2.361,2.361,0,0,1-.8.9,2.133,2.133,0,0,1-1.2.3,2.958,2.958,0,0,1-1-.2,1.576,1.576,0,0,1-.7-.7v.8h-1.2v-7.4h1.2v3.1a2.337,2.337,0,0,1,.7-.7,1.644,1.644,0,0,1,1-.2A3.376,3.376,0,0,1,310.8,260.8Zm-.5,3.6a2.55,2.55,0,0,0,0-2.4,1.053,1.053,0,0,0-1-.4,1.159,1.159,0,0,0-1,.4,2.55,2.55,0,0,0,0,2.4,1.159,1.159,0,0,0,1,.4A1.053,1.053,0,0,0,310.3,264.4Z"/>
        <path id="Tracé_2400" data-name="Tracé 2400" d="M313,265.7v-7.4h1.2v7.4Z"/>
        <path id="Tracé_2401" data-name="Tracé 2401" d="M320,263.2h-3.5a2.145,2.145,0,0,0,.4,1.2,1.246,1.246,0,0,0,1.1.4,2.456,2.456,0,0,0,1.5-.5l.4.9a3.6,3.6,0,0,1-.9.5,4.253,4.253,0,0,1-1.1.2,2.724,2.724,0,0,1-2-.7,2.489,2.489,0,0,1-.7-1.9,3.194,3.194,0,0,1,.3-1.4,1.962,1.962,0,0,1,.9-.9,2.768,2.768,0,0,1,1.3-.3,1.865,1.865,0,0,1,1.6.7,2.883,2.883,0,0,1,.6,1.9v-.1Zm-3-1.5a1.884,1.884,0,0,0-.4.9H319a1.9,1.9,0,0,0-.3-.9c-.1-.2-.5-.3-.8-.3A1.222,1.222,0,0,0,317,261.7Z"/>
      </g>
      <g id="Groupe_2669" data-name="Groupe 2669">
        <path id="Tracé_2402" data-name="Tracé 2402" d="M185.9,90.4h2.8a3.945,3.945,0,0,1,2.9,1,4.42,4.42,0,0,1,0,5.6,3.945,3.945,0,0,1-2.9,1h-2.8Zm2.7,6.5c1.7,0,2.6-.9,2.6-2.7s-.9-2.7-2.6-2.7h-1.3v5.4h1.3Z"/>
        <path id="Tracé_2403" data-name="Tracé 2403" d="M198.6,95.4h-3.7a2.226,2.226,0,0,0,.4,1.3,1.461,1.461,0,0,0,1.2.4,2.452,2.452,0,0,0,1.6-.6l.4.9a4.054,4.054,0,0,1-.9.5,5.16,5.16,0,0,1-1.1.2,2.6,2.6,0,0,1-2.9-2.7,4.013,4.013,0,0,1,.3-1.5,2.189,2.189,0,0,1,.9-1,2.891,2.891,0,0,1,1.4-.4,2.41,2.41,0,0,1,1.8.7,2.986,2.986,0,0,1,.6,2v.2Zm-3.2-1.7a1.268,1.268,0,0,0-.4.9h2.5a1.268,1.268,0,0,0-.4-.9,1.136,1.136,0,0,0-.8-.3A1.222,1.222,0,0,0,195.4,93.7Zm1.2-1.8h-.9l1.1-2.2h1.4Z"/>
        <path id="Tracé_2404" data-name="Tracé 2404" d="M199.7,98V90.1H201V98Z"/>
        <path id="Tracé_2405" data-name="Tracé 2405" d="M207.2,95.4h-3.7a2.226,2.226,0,0,0,.4,1.3,1.461,1.461,0,0,0,1.2.4,2.452,2.452,0,0,0,1.6-.6l.4.9a4.054,4.054,0,0,1-.9.5,5.16,5.16,0,0,1-1.1.2,2.6,2.6,0,0,1-2.9-2.7,4.013,4.013,0,0,1,.3-1.5,2.189,2.189,0,0,1,.9-1,2.891,2.891,0,0,1,1.4-.4,2.41,2.41,0,0,1,1.8.7,2.986,2.986,0,0,1,.6,2v.2ZM204,93.7a1.268,1.268,0,0,0-.4.9h2.5a1.268,1.268,0,0,0-.4-.9,1.136,1.136,0,0,0-.8-.3A1.222,1.222,0,0,0,204,93.7Zm1.3-1.8h-.9l1.1-2.2h1.4Z"/>
        <path id="Tracé_2406" data-name="Tracé 2406" d="M213.6,92.6v5.2a2.352,2.352,0,0,1-.7,1.9,3.011,3.011,0,0,1-2,.7,5.091,5.091,0,0,1-2.2-.5l.2-1a4.919,4.919,0,0,0,2,.5,1.224,1.224,0,0,0,1.4-1.4V96.9a2.336,2.336,0,0,1-.7.7,2.016,2.016,0,0,1-1.1.3,2.768,2.768,0,0,1-1.3-.3,1.962,1.962,0,0,1-.9-.9,3.417,3.417,0,0,1,0-2.8,1.962,1.962,0,0,1,.9-.9,2.768,2.768,0,0,1,1.3-.3,2.016,2.016,0,0,1,1.1.3,2.336,2.336,0,0,1,.7.7v-.8h1.3Zm-1.7,3.7a2,2,0,0,0,0-2.4,1.45,1.45,0,0,0-2,0,2,2,0,0,0,0,2.4,1.45,1.45,0,0,0,2,0Z"/>
        <path id="Tracé_2407" data-name="Tracé 2407" d="M220.2,92.6V98h-1.3v-.9a2.336,2.336,0,0,1-.7.7,1.929,1.929,0,0,1-1,.3,2.133,2.133,0,0,1-1.2-.3,2,2,0,0,1-.8-1,3.339,3.339,0,0,1-.3-1.5,3.653,3.653,0,0,1,.3-1.5,2.723,2.723,0,0,1,.8-1,2.45,2.45,0,0,1,1.2-.4,1.689,1.689,0,0,1,1,.3,2.336,2.336,0,0,1,.7.7v-.8h1.3Zm-1.7,4a2.226,2.226,0,0,0,.4-1.3,1.7,1.7,0,0,0-.4-1.3,1.389,1.389,0,0,0-1-.5,1.231,1.231,0,0,0-1,.5,2.5,2.5,0,0,0-.4,1.3,1.7,1.7,0,0,0,.4,1.3,1.159,1.159,0,0,0,1,.4A1.284,1.284,0,0,0,218.5,96.6Z"/>
        <path id="Tracé_2408" data-name="Tracé 2408" d="M223.3,93.6V96a.8.8,0,0,0,.9.9.9.9,0,0,0,.5-.1v1.1a2.22,2.22,0,0,1-.9.1,1.978,1.978,0,0,1-1.4-.5,2.07,2.07,0,0,1-.5-1.5V93.5h-1v-1h1V91.2l1.3-.4v1.8h1.4v1Z"/>
        <path id="Tracé_2409" data-name="Tracé 2409" d="M225.6,90.2h1.5v1.3h-1.5Zm.1,7.8V92.6H227V98Z"/>
        <path id="Tracé_2410" data-name="Tracé 2410" d="M229.4,97.7a3.178,3.178,0,0,1-1-1,3.9,3.9,0,0,1,0-3,2.512,2.512,0,0,1,2.4-1.3,2.512,2.512,0,0,1,2.4,1.3,3.9,3.9,0,0,1,0,3,2.4,2.4,0,0,1-1,1,3.194,3.194,0,0,1-1.4.3A1.735,1.735,0,0,1,229.4,97.7Zm2.5-1.1a2.226,2.226,0,0,0,.4-1.3,1.7,1.7,0,0,0-.4-1.3,1.389,1.389,0,0,0-1-.5,1.231,1.231,0,0,0-1,.5,2.226,2.226,0,0,0-.4,1.3,1.7,1.7,0,0,0,.4,1.3,1.45,1.45,0,0,0,2,0Z"/>
        <path id="Tracé_2411" data-name="Tracé 2411" d="M239.8,94.7V98h-1.3V94.8a2,2,0,0,0-.2-.9.984.984,0,0,0-.8-.3,1.367,1.367,0,0,0-1.4,1.4v3h-1.3V94.1a6.621,6.621,0,0,0-.1-1.5h1.2l.1.9a2.047,2.047,0,0,1,.8-.8,2.016,2.016,0,0,1,1.1-.3C239.1,92.5,239.8,93.2,239.8,94.7Z"/>
        <path id="Tracé_2412" data-name="Tracé 2412" d="M178.1,111.6a2.949,2.949,0,0,1-1.3-1.4,5.713,5.713,0,0,1,0-4.2,3.483,3.483,0,0,1,1.3-1.4,4.228,4.228,0,0,1,2-.5,5.9,5.9,0,0,1,1.4.2,2.979,2.979,0,0,1,1.1.7l-.4,1a2.664,2.664,0,0,0-1-.6,3.6,3.6,0,0,0-1.1-.2,2.06,2.06,0,0,0-1.7.7,3.173,3.173,0,0,0-.6,2,3.281,3.281,0,0,0,.6,2.1,2.06,2.06,0,0,0,1.7.7,4.253,4.253,0,0,0,1.1-.2,2.664,2.664,0,0,0,1-.6l.4,1a4.129,4.129,0,0,1-1.1.7,3.4,3.4,0,0,1-1.4.2A2.293,2.293,0,0,1,178.1,111.6Z"/>
        <path id="Tracé_2413" data-name="Tracé 2413" d="M188.9,108.7V112h-1.3v-3.2a2,2,0,0,0-.2-.9.984.984,0,0,0-.8-.3,1.367,1.367,0,0,0-1.4,1.4v3.1h-1.3v-7.9h1.3v3.2a2.336,2.336,0,0,1,.7-.7,1.645,1.645,0,0,1,1-.2C188.2,106.5,188.9,107.2,188.9,108.7Z"/>
        <path id="Tracé_2414" data-name="Tracé 2414" d="M195.4,106.6V112h-1.3v-.9a2.336,2.336,0,0,1-.7.7,1.929,1.929,0,0,1-1,.3,2.133,2.133,0,0,1-1.2-.3,2,2,0,0,1-.8-1,3.339,3.339,0,0,1-.3-1.5,3.653,3.653,0,0,1,.3-1.5,2.723,2.723,0,0,1,.8-1,2.45,2.45,0,0,1,1.2-.4,1.689,1.689,0,0,1,1,.3,2.336,2.336,0,0,1,.7.7v-.8h1.3Zm-3.2-.7h-1.1l1.3-2.2h.8l1.3,2.2h-1.1l-.7-1.4Zm1.6,4.7a2.226,2.226,0,0,0,.4-1.3,1.7,1.7,0,0,0-.4-1.3,1.389,1.389,0,0,0-1-.5,1.231,1.231,0,0,0-1,.5,2.5,2.5,0,0,0-.4,1.3,1.7,1.7,0,0,0,.4,1.3,1.159,1.159,0,0,0,1,.4A1.284,1.284,0,0,0,193.8,110.6Z"/>
        <path id="Tracé_2415" data-name="Tracé 2415" d="M198.6,107.6V110a.8.8,0,0,0,.9.9.9.9,0,0,0,.5-.1v1.1a2.22,2.22,0,0,1-.9.1,1.978,1.978,0,0,1-1.4-.5,2.07,2.07,0,0,1-.5-1.5v-2.5h-1v-1h1v-1.3l1.3-.4v1.8h1.4v1Z"/>
        <path id="Tracé_2416" data-name="Tracé 2416" d="M205.6,109.4h-3.7a2.226,2.226,0,0,0,.4,1.3,1.461,1.461,0,0,0,1.2.4,2.452,2.452,0,0,0,1.6-.6l.4.9a4.054,4.054,0,0,1-.9.5,5.16,5.16,0,0,1-1.1.2,2.6,2.6,0,0,1-2.9-2.7,4.013,4.013,0,0,1,.3-1.5,2.189,2.189,0,0,1,.9-1,2.891,2.891,0,0,1,1.4-.4,2.41,2.41,0,0,1,1.8.7,2.986,2.986,0,0,1,.6,2v.2Zm-3.2-1.7a1.268,1.268,0,0,0-.4.9h2.5a1.268,1.268,0,0,0-.4-.9,1.136,1.136,0,0,0-.8-.3A1.222,1.222,0,0,0,202.4,107.7Z"/>
        <path id="Tracé_2417" data-name="Tracé 2417" d="M211.9,106.6V112h-1.3v-.9a2.336,2.336,0,0,1-.7.7,1.929,1.929,0,0,1-1,.3,2.133,2.133,0,0,1-1.2-.3,2,2,0,0,1-.8-1,3.339,3.339,0,0,1-.3-1.5,3.653,3.653,0,0,1,.3-1.5,2.723,2.723,0,0,1,.8-1,2.45,2.45,0,0,1,1.2-.4,1.689,1.689,0,0,1,1,.3,2.336,2.336,0,0,1,.7.7v-.8h1.3Zm-1.6,4a2.226,2.226,0,0,0,.4-1.3,1.7,1.7,0,0,0-.4-1.3,1.389,1.389,0,0,0-1-.5,1.231,1.231,0,0,0-1,.5,2.5,2.5,0,0,0-.4,1.3,1.7,1.7,0,0,0,.4,1.3,1.159,1.159,0,0,0,1,.4A1.284,1.284,0,0,0,210.3,110.6Z"/>
        <path id="Tracé_2418" data-name="Tracé 2418" d="M218.3,106.6V112H217v-.8a2.336,2.336,0,0,1-.7.7,1.645,1.645,0,0,1-1,.2c-1.3,0-2-.7-2-2.2v-3.3h1.3v3.3a2,2,0,0,0,.2.9.908.908,0,0,0,.7.3.975.975,0,0,0,.9-.4,1.777,1.777,0,0,0,.4-1v-3h1.5Z"/>
        <path id="Tracé_2419" data-name="Tracé 2419" d="M224.1,106.8a2,2,0,0,1,.8,1,3.339,3.339,0,0,1,.3,1.5,3.653,3.653,0,0,1-.3,1.5,2.723,2.723,0,0,1-.8,1,2.843,2.843,0,0,1-1.2.4,2.016,2.016,0,0,1-1.1-.3,2.336,2.336,0,0,1-.7-.7v.9h-1.3v-7.9h1.3v3.3a2.336,2.336,0,0,1,.7-.7,1.929,1.929,0,0,1,1-.3A2.768,2.768,0,0,1,224.1,106.8Zm-.6,3.8a2.5,2.5,0,0,0,.4-1.3,1.7,1.7,0,0,0-.4-1.3,1.389,1.389,0,0,0-1-.5,1.231,1.231,0,0,0-1,.5,2.226,2.226,0,0,0-.4,1.3,1.7,1.7,0,0,0,.4,1.3,1.231,1.231,0,0,0,1,.5A1.905,1.905,0,0,0,223.5,110.6Z"/>
        <path id="Tracé_2420" data-name="Tracé 2420" d="M229.8,106.6v1.2a1.7,1.7,0,0,0-.7-.1,1.053,1.053,0,0,0-1,.4,1.777,1.777,0,0,0-.4,1V112h-1.3v-3.9a6.621,6.621,0,0,0-.1-1.5h1.2l.1.9a1.555,1.555,0,0,1,.6-.8,1.689,1.689,0,0,1,1-.3A4.17,4.17,0,0,1,229.8,106.6Z"/>
        <path id="Tracé_2421" data-name="Tracé 2421" d="M230.4,104.2h1.5v1.3h-1.5Zm.1,7.8v-5.4h1.3V112Z"/>
        <path id="Tracé_2422" data-name="Tracé 2422" d="M238.5,106.6V112h-1.3v-.9a2.336,2.336,0,0,1-.7.7,1.929,1.929,0,0,1-1,.3,2.133,2.133,0,0,1-1.2-.3,2,2,0,0,1-.8-1,3.339,3.339,0,0,1-.3-1.5,3.653,3.653,0,0,1,.3-1.5,2.723,2.723,0,0,1,.8-1,2.45,2.45,0,0,1,1.2-.4,1.689,1.689,0,0,1,1,.3,2.336,2.336,0,0,1,.7.7v-.8h1.3Zm-1.7,4a2.226,2.226,0,0,0,.4-1.3,1.7,1.7,0,0,0-.4-1.3,1.389,1.389,0,0,0-1-.5,1.231,1.231,0,0,0-1,.5,2.5,2.5,0,0,0-.4,1.3,1.7,1.7,0,0,0,.4,1.3,1.45,1.45,0,0,0,2,0Z"/>
        <path id="Tracé_2423" data-name="Tracé 2423" d="M244.9,108.7V112h-1.3v-3.2a2,2,0,0,0-.2-.9.984.984,0,0,0-.8-.3,1.367,1.367,0,0,0-1.4,1.4v3.1h-1.3v-3.9a6.621,6.621,0,0,0-.1-1.5H241l.1.9a2.047,2.047,0,0,1,.8-.8,2.016,2.016,0,0,1,1.1-.3C244.3,106.5,244.9,107.2,244.9,108.7Z"/>
        <path id="Tracé_2424" data-name="Tracé 2424" d="M248,107.6V110a.8.8,0,0,0,.9.9.9.9,0,0,0,.5-.1v1.1a2.22,2.22,0,0,1-.9.1,1.978,1.978,0,0,1-1.4-.5,2.07,2.07,0,0,1-.5-1.5v-2.5h-1v-1h1v-1.3l1.3-.4v1.8h1.4v1Z"/>
      </g>
    </g>
    <text id="p" transform="translate(139.8 280.6)" font-size="10.7" font-family="Muli-Bold, Muli" font-weight="700"><tspan x="0" y="0">p</tspan></text>
    <text id="v" transform="translate(279.8 265.6)" font-size="10" font-family="Muli-Bold, Muli" font-weight="700"><tspan x="0" y="0">v</tspan></text>
    <text id="R" transform="translate(181.8 280.6)" font-size="10.7" font-family="Muli-Bold, Muli" font-weight="700"><tspan x="0" y="0">R</tspan></text>
  </g>
</svg>
