<svg xmlns="http://www.w3.org/2000/svg" width="155.722" height="135.135" viewBox="0 0 155.722 135.135">
  <g id="deleg-pays_retz" transform="translate(11571.176 834.635)">
    <path id="Tracé_2488" data-name="Tracé 2488" d="M227.746,274.1l-7.656-.6,1.786-3.658,1.616.34h2.3l-.255-2.807-3.148-4.254.34-1.276,5.189-4,.34-2.3L225.364,253l.766-3.233-2.382-2.3.6-1.531-2.382-1.531-3.913.51.34,1.361-2.807,1.106-4.168,7.061.255,2.042-1.531-.255-5.274,4.254-.851-2.042,2.382-3.488-4.168-.255-1.276-1.531-.851,1.276-2.127-4.168-3.148.6h-3.658l-3.488,2.382-3.488-2.977.766-1.872,5.189-4.254-5.274-.085-2.977-2.977-4-1.106,2.042-2.637-.085-1.616-6.38-1.106-1.872-1.616-1.616,1.021-3.148-.766,1.786-4-3.488-3.658-5.87-3.148-.34-4.254-8.082-7.571-2.892-3.488-.255-2.212h-.085l-8.932-1.786-6.891-2.552-2.552.34-.085,4.168-6.806-2.127L121.323,204l.255.851-3.148,1.276-15.057,2.042s-2.042,1.361-2.382,1.531c-.34.085-4.509.51-4.509.51l-.255,7.656-1.872,2.3,4.254,7.656.255,4L98.1,233.1l-1.021,7.656-1.786,2.892-7.912.51-2.892,1.786-.34,2.042L81,250.536l6.04,3.4,7.656.6.766.851,5.785,2.3,5.53.51,2.807-.766.766,1.786,10.208,3.913,4.254,6.55,5.87,3.658,4.934,9.528h1.616l1.786,2.127,2.552,6.55,2.382,2.3,4.424.085.255,5.274,5.274,4.934,3.913,1.786,5.189-.255,3.913.6.766,1.361-.766,3.743-1.361,1.106,7.912,1.021,1.872-.766,1.786,1.361,6.04-1.531,1.616,2.637-.851,1.021L185.977,318l-.51,2.552L187,325.313l3.488,1.361L195.5,324.8l5.274,4.934,3.743-1.531,6.806,1.786.851.851,1.786-.766,4.764,2.552,5.87,1.106.34-3.743,1.872-.51,2.552.34,5.019-2.807-.6-3.233-4.254-3.233L225.279,314l3.913.255,1.361-2.637-.34-2.382-2.807-1.616-1.872-3.148.34-1.531-2.637-4.764.766-3.913,1.872-3.658-2.552-3.488,4.168-2.552,3.233-.766,2.637-3.488,1.361-.766-3.573-2.467Z" transform="translate(-11651.176 -1034.235)" fill="none" stroke="#000" stroke-linecap="round" stroke-linejoin="round" stroke-miterlimit="10" stroke-width="2"/>
    <circle id="Ellipse_62" data-name="Ellipse 62" cx="5.925" cy="5.925" r="5.925" transform="translate(-11545.302 -782.323)"/>
  </g>
</svg>
