<svg xmlns="http://www.w3.org/2000/svg" width="202.085" height="174.353" viewBox="0 0 202.085 174.353">
  <g id="deleg-chateaubriant" transform="translate(11575.188 1618.821)">
    <g id="Groupe_2725" data-name="Groupe 2725" transform="translate(-11574.188 -1617.821)">
      <path id="Tracé_2304" data-name="Tracé 2304" d="M262.773,152.73l-9.017-5.445.851-2.977,1.616-2.3-.6-3.658-1.786-1.276-.255-4.764,1.531-.6,3.4,1.106,3.488-1.021,2.552-4.764h2.3l.6,2.127,2.127-.085v-1.872l-1.616-1.021-1.021-1.872-3.743.34L259.54,122.1l-.34-2.552.6-2.042-5.7-1.106-3.913-1.106-2.892,2.892-4.424.51-.6-2.127,2.3-1.276.851-1.872-1.276-3.4-6.891-.34.766-3.148,1.021.255-.51-1.786,1.616.51,2.977-2.977,4.254-2.3,4.509-1.106.255-1.616,5.785,2.127,6.55-1.021L268.9,96.5V92.33l2.382.6.34,1.106,9.273,1.872,2.382-1.361,2.807.255-.766-1.616,2.977-4.254,2.127-4.424-.085-2.552,2.382-1.021,8.167,2.3,3.4.34,1.616-5.53.51-2.127,5.785-1.106,1.786-1.021-.085-1.361L309.647,68l.085-2.807-1.106-4.168-2.3.255-1.872-2.892,1.786-3.658-1.021-2.042,1.106-2.127-1.616-.766-2.977-4.509.255-2.807-4.509.766a32.918,32.918,0,0,0-3.488-1.786,44.763,44.763,0,0,1-4.168-2.552l-.255-3.488,2.892.085,1.021-4.254-2.3-1.872.34-4.168L267.282,18.4l-.34-2.127-2.3-1.021-.766-3.743-2.3-2.3-3.4,1.276-1.106-1.021-1.276.255-1.786-1.361-6.125.255L246.61,7.6h-3.233l-.51,1.276,1.786,2.3,1.361,5.274-.6,1.021-5.87,1.276-1.616-.6-5.019,5.274-5.785.085-3.658,1.786-2.042-.51-2.042,1.361-.255,2.127-1.276,1.106h-3.4l-1.531,1.276.085,1.616-2.382,4.764.34,4.934-1.786.085-3.743,4.509-4.424-1.531-4.764,1.361-1.106,2.977-3.658-.255-1.276-1.786-2.637-.6-4.934,2.807-5.019-.851-5.274-1.616-1.361-1.021-2.637,1.616L165.2,46.562l-4.168,4.168-2.637-.34-10.038,3.4-3.233,4.168-1.531.085-1.531-1.276V52.6l-1.021-1.872-7.911,9.1-4.168-.766-2.977,1.872-.766,3.743-6.38.255L116.2,70.722l2.042,1.872.6,4.168-.766,2.552-3.4,2.127.851,5.274L113.9,86.8l2.3,1.531,2.637-1.957,10.719,2.807,5.87,4.424,1.361,3.743,5.274-.255,1.786.766.34,5.785,2.892.6.766,4h5.189l8.082-.766,5.53,7.316-4.679,5.785-4.679,1.872-2.127-1.021-.6,6.3-3.233,1.616,2.552,3.658-1.106,4,1.872,4.509-1.616,4,.34,1.786,2.127.6,5.445-1.106v2.042l8.082-2.3v5.7l7.826,8.082,1.106.6L180,159.025v3.233l1.616,1.872-.255,1.531,13.1,12.675-.255-2.382,5.785-.766,3.658-4.168,2.127,1.021,1.361-2.977,1.276.766,1.872-1.021,5.274,3.488,4.254,7.146,1.276-.255,1.106.766-.51-7.656,1.616-2.637-2.807-6.55-1.616-1.872,5.274-6.04,5.87,6.55.766,2.127-.34,2.552,2.637,1.531L234.7,163.7l8.932,1.531,5.445-2.3,1.616-2.807,2.382-1.531,6.04-.6,1.786-3.4Z" transform="translate(-113.9 -7.6)" fill="none" stroke="#000" stroke-linecap="round" stroke-linejoin="round" stroke-miterlimit="10" stroke-width="2"/>
    </g>
    <circle id="Ellipse_61" data-name="Ellipse 61" cx="5.925" cy="5.925" r="5.925" transform="translate(-11431.302 -1591.323)"/>
  </g>
</svg>
