<svg xmlns="http://www.w3.org/2000/svg" width="118.036" height="99.916" viewBox="0 0 118.036 99.916">
  <g id="deleg-ancenis" transform="translate(11532.751 1401.402)">
    <path id="Tracé_2490" data-name="Tracé 2490" d="M374.015,151.706l.851-.6-1.872-1.786-.255-1.531-.851-1.106-.085-1.106,1.786-.255,1.361.255.085-1.786-1.616-2.637.255-5.019-3.148-4.509.085-1.786,2.042-2.042-1.276-3.148-1.872-.51-1.872.766-2.892-.51-1.872,1.106-1.106-.6h-.851l-1.786-2.892-3.148-1.872-2.042-.085.255-3.4,1.531-2.637.34-2.552-.34-2.637.51-2.042-2.977.34-.34-2.382-.085-2.552,2.382.6.6-.851-1.106-1.106,3.148-.851,1.616-1.531h1.106l.6-2.042,1.531-.851.085-1.531L361,92.752l-2.042-.766-.6-1.021-1.786-.085s-.766-1.106-1.106-1.106a15.633,15.633,0,0,0-2.042.6l-1.872.085L347.9,89.179l-2.977-2.042-.51-1.531L342.284,84.5l-3.148.255-3.4.34-1.786,1.021-5.785,1.106-.51,2.127-1.616,5.53-3.4-.34-8.167-2.3-2.382,1.021.085,2.552-2.127,4.424-2.977,4.254.766,1.616-2.807-.255-2.382,1.361-9.273-1.872-.34-1.106-2.382-.6v4.168l-4.424,2.127-6.55,1.021-5.785-2.127-.255,1.616-4.509,1.106-4.254,2.3-2.977,2.977-1.616-.51.51,1.786-1.021-.255L259,121l6.891.34,1.276,3.4-.851,1.872-2.3,1.276.6,2.127,4.424-.51,2.892-2.892,3.913,1.106,5.7,1.106-.6,2.042.34,2.552,3.658,2.552,3.743-.34,1.021,1.872,1.616,1.021v1.872l-2.127.085-.6-2.127h-2.3l-2.552,4.764-3.488,1.021-3.4-1.106-1.531.6.255,4.764,1.786,1.276.6,3.658-1.616,2.3L275.5,158.6l9.017,5.444-2.042,2.042-1.786,3.4.34,3.658.851,4.254,1.276,1.276,1.872,1.276,2.892-.085,1.276,1.021.425,1.531,1.276-.6,2.552-2.552,1.276-2.127,3.488-.766.085-1.106,1.786-1.531L304,170.506l7.316-.085,3.658-1.106,2.042-1.361,2.127.085.851-1.106,1.106.51.255,1.106,1.786-1.106,2.552-.766,2.637-1.531.766-2.382,3.4.255,1.786-1.106,1.106,1.021.851-.766,1.531.6,3.4-.255,1.106.51,3.148-1.276,6.635.255,2.552,1.106,2.977.255,1.361-.851,2.382.34s1.021-1.021,1.361-1.021h1.872l1.106-1.276.851.6,2.552.085,5.87-4.509-1.021-.851-.085-1.531,1.106-.51Z" transform="translate(-11790.751 -1484.902)" fill="none" stroke="#000" stroke-linecap="round" stroke-linejoin="round" stroke-miterlimit="10" stroke-width="2"/>
    <circle id="Ellipse_60" data-name="Ellipse 60" cx="5.925" cy="5.925" r="5.925" transform="translate(-11473.302 -1326.323)"/>
  </g>
</svg>
