<svg xmlns="http://www.w3.org/2000/svg" width="95.833" height="117.015" viewBox="0 0 95.833 117.015">
  <g id="deleg-vignoble" transform="translate(11533.086 1117.336)">
    <path id="Tracé_2491" data-name="Tracé 2491" d="M277,207.022l-1.7,3.743-5.615,3.063-2.892,3.828,4.254,6.465-2.127,3.658,1.021,7.146,6.635,1.106.51,1.276-3.658,3.233-1.786,3.828-1.191.34-1.276,1.361,1.872,1.276-.085,2.042-3.658,5.019-3.913,1.021L260.153,251l-3.318.6-4.168,3.658-.34,2.3-5.189,4-.34,1.276,3.148,4.254.255,2.807h-2.3l-1.616-.425-1.786,3.658,7.656.681,2.892,2.722,3.658,2.467.766-.425,2.807.851.51,1.361,1.446.936-.51,2.892,1.7,5.359.936,2.3-.255,2.127-1.7.51-.681,2.127.681,3.148,2.637,4.424-2.637,6.721,1.7,2.212,1.446.085,8.422-5.785,5.53-.851,2.212-1.872,1.191.6,1.446-1.616-.255-2.892,1.446-1.276.085-3.233-3.233-2.552,2.382-3.743-.766-4.764-1.616-3.4,2.722-3.063,3.828-.851-.425-1.021,1.872.6,3.573,2.892,4.168-.085-.255-3.063,2.722-4.339-1.021-2.807,1.191-2.467,4-2.552,3.913,5.019,4.083,1.361,6.55,7.486,10.123,2.722,6.21-2.977-.6-4.083,1.276-2.977-7.4-2.042L328.549,267l-1.957-4.168-1.446-.6-10.379-1.446-2.892,1.531-1.7-.6,3.488-3.4,1.361-2.042-1.106-3.488.255-1.531-1.531-1.021,4.083-2.977,2.212-.17,7.4-6.806,2.042-5.53L325.4,232.8l.085-2.127-1.021-2.382,1.276-1.276.34-1.276-3.318-1.106,1.957-6.55-1.276-.681-1.7-2.892-2.807-.085-1.106,2.127-4.168,1.872-4.679-3.658-2.722-3.233-1.616-2.127-.17-5.785-1.106-2.3-2.552-1.872-5.359-.851-3.658,1.276-3.063-1.021-3.573,1.7Z" transform="translate(-11776.586 -1314.937)" fill="none" stroke="#000" stroke-linecap="round" stroke-linejoin="round" stroke-miterlimit="10" stroke-width="2"/>
    <circle id="Ellipse_58" data-name="Ellipse 58" cx="5.925" cy="5.925" r="5.925" transform="translate(-11470.302 -1063.323)"/>
  </g>
</svg>
