<?xml version="1.0" encoding="utf-8"?>
<!-- Generator: Adobe Illustrator 23.0.3, SVG Export Plug-In . SVG Version: 6.00 Build 0)  -->
<svg version="1.1" id="Capa_1" xmlns="http://www.w3.org/2000/svg" xmlns:xlink="http://www.w3.org/1999/xlink" x="0px" y="0px"
	 viewBox="0 0 515.9 172.2" style="enable-background:new 0 0 515.9 172.2;" xml:space="preserve">
<style type="text/css">
	.st0{fill:#FFFFFF;}
	.st1{font-family:'HelveticaNeue-Medium';}
	.st2{font-size:47.6326px;}
</style>
<path d="M514.4,147.8c0,12.5-10.1,22.6-22.6,22.6H25.6C13.1,170.4,3,160.3,3,147.8V25.7C3,13.2,13.1,3.1,25.6,3.1h466.3
	c12.5,0,22.6,10.1,22.6,22.6L514.4,147.8L514.4,147.8z"/>
<g>
	<path class="st0" d="M92.2,24.3H48.5c-5.6,0-10.2,4.6-10.2,10.2v97c0,5.6,4.6,10.2,10.2,10.2h43.7c5.6,0,10.2-4.6,10.2-10.2v-97
		C102.4,28.9,97.8,24.3,92.2,24.3 M65.3,34.6h10.1c0.7,0,1.2,0.5,1.2,1.2c0,0.7-0.5,1.2-1.2,1.2H65.3c-0.7,0-1.2-0.5-1.2-1.2
		C64.1,35.1,64.6,34.6,65.3,34.6 M70.3,137.2c-3.4,0-6.2-2.8-6.2-6.2c0-3.4,2.8-6.2,6.2-6.2c3.4,0,6.2,2.8,6.2,6.2
		C76.5,134.4,73.7,137.2,70.3,137.2 M97.3,122.3h-54V43.6h54V122.3z"/>
	<g>
		<g>
			<g>
				<g>
					<path class="st0" d="M183.4,134h-10.6l-5.8-18.2h-20.2l-5.5,18.2H131l20-62.1h12.4L183.4,134z M165.2,108.1L160,91.9
						c-0.6-1.7-1.6-5.6-3.2-11.7h-0.2c-0.6,2.6-1.6,6.5-3,11.7l-5.2,16.2H165.2z"/>
					<path class="st0" d="M232.2,111.1c0,7.6-2.1,13.6-6.2,18.1c-3.7,3.9-8.3,5.9-13.8,5.9c-5.9,0-10.2-2.1-12.8-6.4v23.5h-9.9V104
						c0-4.8-0.1-9.7-0.4-14.7h8.8l0.5,7.1h0.2c3.3-5.3,8.4-8,15.1-8c5.3,0,9.7,2.1,13.2,6.3C230.5,98.8,232.2,104.3,232.2,111.1z
						 M222.1,111.4c0-4.4-1-8-2.9-10.8c-2.2-2.9-5-4.4-8.7-4.4c-2.5,0-4.7,0.8-6.7,2.4c-2,1.7-3.3,3.8-3.9,6.4
						c-0.3,1.2-0.5,2.2-0.5,3v7.5c0,3.3,1,6,3,8.3c2,2.2,4.6,3.3,7.8,3.3c3.7,0,6.7-1.4,8.8-4.3C221.1,120,222.1,116.2,222.1,111.4z
						"/>
					<path class="st0" d="M281.4,111.1c0,7.6-2.1,13.6-6.2,18.1c-3.7,3.9-8.3,5.9-13.8,5.9c-5.9,0-10.2-2.1-12.8-6.4v23.5h-10V104
						c0-4.8-0.1-9.7-0.4-14.7h8.7l0.6,7.1h0.2c3.3-5.3,8.4-8,15.1-8c5.3,0,9.7,2.1,13.2,6.3C279.7,98.8,281.4,104.3,281.4,111.1z
						 M271.3,111.4c0-4.4-1-8-2.9-10.8c-2.2-2.9-5-4.4-8.7-4.4c-2.5,0-4.7,0.8-6.7,2.4c-2,1.7-3.3,3.8-3.9,6.4
						c-0.3,1.2-0.5,2.2-0.5,3v7.5c0,3.3,1,6,3,8.3c2,2.2,4.6,3.3,7.8,3.3c3.8,0,6.7-1.4,8.8-4.3C270.3,120,271.3,116.2,271.3,111.4z
						"/>
					<path class="st0" d="M337.7,116.6c0,5.3-1.8,9.6-5.5,12.9c-4.1,3.6-9.7,5.4-16.9,5.4c-6.7,0-12.1-1.3-16.1-3.9l2.3-8.3
						c4.4,2.6,9.1,3.9,14.4,3.9c3.8,0,6.7-0.8,8.8-2.5c2.1-1.7,3.1-3.9,3.1-6.8c0-2.5-0.9-4.6-2.6-6.3c-1.7-1.7-4.6-3.3-8.6-4.8
						c-10.9-4-16.3-10-16.3-17.8c0-5.1,1.9-9.3,5.8-12.5c3.8-3.3,8.9-4.9,15.2-4.9c5.7,0,10.3,1,14.1,2.9l-2.5,8.1
						c-3.5-1.9-7.5-2.9-11.9-2.9c-3.5,0-6.3,0.9-8.2,2.6c-1.7,1.6-2.5,3.4-2.5,5.6c0,2.4,0.9,4.5,2.8,6.1c1.7,1.5,4.7,3.1,9,4.8
						c5.4,2.1,9.3,4.7,11.8,7.6C336.4,108.7,337.7,112.3,337.7,116.6z"/>
					<path class="st0" d="M367.2,96.7h-11v21.8c0,5.5,1.9,8.3,5.8,8.3c1.8,0,3.2-0.1,4.4-0.4l0.3,7.5c-2,0.7-4.5,1.1-7.7,1.1
						c-3.9,0-7-1.2-9.2-3.6c-2.2-2.4-3.3-6.4-3.3-12.1V96.7H340v-7.5h6.5V81l9.8-2.9v11.1h11L367.2,96.7L367.2,96.7z"/>
					<path class="st0" d="M414,111.3c0,6.9-2,12.5-5.9,17c-4.1,4.5-9.6,6.8-16.4,6.8c-6.6,0-11.8-2.2-15.7-6.5
						c-3.9-4.4-5.8-9.9-5.8-16.5c0-6.9,2-12.6,6-17c4-4.4,9.4-6.6,16.3-6.6c6.6,0,11.9,2.2,15.9,6.5C412.1,99.1,414,104.6,414,111.3
						z M403.6,111.5c0-4.1-0.9-7.6-2.7-10.6c-2.1-3.6-5.1-5.3-9-5.3c-4,0-7,1.8-9.1,5.3c-1.8,2.9-2.7,6.5-2.7,10.7
						c0,4.1,0.9,7.6,2.7,10.6c2.1,3.6,5.1,5.3,9,5.3c3.8,0,6.8-1.8,8.9-5.4C402.7,119.2,403.6,115.6,403.6,111.5z"/>
					<path class="st0" d="M443.9,98c-1-0.2-2-0.3-3.1-0.3c-3.5,0-6.2,1.3-8.1,4c-1.7,2.3-2.5,5.2-2.5,8.8V134h-10v-30.7
						c0-5.1-0.1-9.8-0.3-14.1h8.7l0.4,8.6h0.3c1-2.9,2.7-5.3,5-7.1c2.2-1.6,4.6-2.4,7.2-2.4c0.9,0,1.8,0.1,2.5,0.2L443.9,98
						L443.9,98z"/>
					<path class="st0" d="M486.9,109.5c0,1.8-0.1,3.3-0.4,4.5h-29.9c0.1,4.4,1.6,7.8,4.3,10.1c2.5,2.1,5.8,3.1,9.8,3.1
						c4.4,0,8.4-0.7,12.1-2.1l1.6,6.9c-4.2,1.9-9.3,2.8-15,2.8c-6.9,0-12.4-2-16.3-6.1c-3.9-4.1-6-9.6-6-16.4
						c0-6.8,1.9-12.4,5.5-16.9c3.9-4.8,9.1-7.2,15.7-7.2c6.5,0,11.3,2.4,14.7,7.2C485.5,99.2,486.9,103.9,486.9,109.5z M477.4,106.9
						c0.1-2.9-0.6-5.5-1.9-7.6c-1.7-2.8-4.4-4.2-7.9-4.2c-3.2,0-5.9,1.4-7.9,4.1c-1.7,2.1-2.6,4.7-3,7.7L477.4,106.9z"/>
				</g>
			</g>
		</g>
	</g>
</g>
<text transform="matrix(1 0 0 1 130.973 58.5332)" class="st0 st1 st2">Disponible sur</text>
</svg>
