<svg xmlns="http://www.w3.org/2000/svg" width="98.846" height="98.551" viewBox="0 0 98.846 98.551"><defs><style>.a{fill:none;stroke:#000;stroke-linecap:round;stroke-linejoin:round;stroke-miterlimit:10;stroke-width:2px;}</style></defs><g transform="translate(1 1)"><rect class="a" width="8.144" height="8.144" transform="translate(0 22.274)"/><rect class="a" width="14.031" height="8.144" transform="translate(8.144 22.274)"/><rect class="a" width="14.031" height="8.144" transform="translate(0 30.418)"/><rect class="a" width="14.031" height="8.144" transform="translate(14.031 30.418)"/><rect class="a" width="8.144" height="8.144" transform="translate(22.175 22.274)"/><rect class="a" width="8.144" height="8.144" transform="translate(0 38.562)"/><rect class="a" width="8.144" height="8.144" transform="translate(42.094 62.896)"/><rect class="a" width="14.031" height="8.144" transform="translate(8.144 38.562)"/><rect class="a" width="8.144" height="8.144" transform="translate(22.175 38.562)"/><rect class="a" width="8.144" height="8.144" transform="translate(0 54.752)"/><rect class="a" width="14.031" height="8.144" transform="translate(8.144 54.752)"/><rect class="a" width="14.031" height="8.144" transform="translate(22.175 54.752)"/><rect class="a" width="14.031" height="8.144" transform="translate(36.207 54.752)"/><rect class="a" width="8.144" height="8.144" transform="translate(28.063 30.418)"/><rect class="a" width="14.031" height="8.144" transform="translate(0 46.608)"/><rect class="a" width="14.031" height="8.144" transform="translate(14.031 46.608)"/><rect class="a" width="14.031" height="8.144" transform="translate(28.063 46.608)"/><rect class="a" width="14.031" height="8.144" transform="translate(0 62.896)"/><rect class="a" width="14.031" height="8.144" transform="translate(14.031 62.896)"/><rect class="a" width="14.031" height="8.144" transform="translate(28.063 62.896)"/><rect class="a" width="8.144" height="8.144" transform="translate(42.094 79.086)"/><rect class="a" width="8.144" height="8.144" transform="translate(0 71.04)"/><rect class="a" width="14.031" height="8.144" transform="translate(8.144 71.04)"/><rect class="a" width="14.031" height="8.144" transform="translate(22.175 71.04)"/><rect class="a" width="14.031" height="8.144" transform="translate(36.207 71.04)"/><rect class="a" width="8.144" height="8.144" transform="translate(0 87.23)"/><rect class="a" width="14.031" height="8.144" transform="translate(8.144 87.23)"/><rect class="a" width="14.031" height="8.144" transform="translate(22.175 87.23)"/><rect class="a" width="14.031" height="8.144" transform="translate(36.207 87.23)"/><rect class="a" width="14.031" height="8.144" transform="translate(0 79.086)"/><rect class="a" width="14.031" height="8.144" transform="translate(14.031 79.086)"/><rect class="a" width="14.031" height="8.144" transform="translate(28.063 79.086)"/><path class="a" d="M125.542,34.593H70.3l4.612-4.415L107.39,23.8Z" transform="translate(-28.696 -23.8)"/><line class="a" y1="19.624" transform="translate(48.766 10.793)"/><path class="a" d="M77.478,54.8,71.1,60.295H83.856Z" transform="translate(-28.712 -24.382)"/><path class="a" d="M109.4,34.8h-7.752L93.9,111.236h23.255Z" transform="translate(-29.14 -24.007)"/><rect class="a" width="30.712" height="9.322" transform="translate(61.032 87.23)"/><line class="a" x2="9.518" transform="translate(71.629 19.232)"/><line class="a" x2="10.695" transform="translate(71.04 25.021)"/><line class="a" x2="12.461" transform="translate(70.157 33.656)"/><line class="a" x2="13.737" y2="13.737" transform="translate(70.157 33.656)"/><line class="a" x1="14.031" y2="13.933" transform="translate(68.587 33.656)"/><line class="a" x2="16.583" y2="16.582" transform="translate(68.587 47.589)"/><line class="a" x1="16.583" y2="16.484" transform="translate(67.311 47.393)"/><line class="a" x2="20.115" y2="20.115" transform="translate(67.311 63.877)"/><line class="a" x1="20.017" y2="20.017" transform="translate(65.153 64.171)"/></g></svg>