<svg xmlns="http://www.w3.org/2000/svg" width="99.925" height="94.823" viewBox="0 0 99.925 94.823"><defs><style>.a,.b{fill:none;stroke:#000;stroke-miterlimit:10;stroke-width:2px;}.a{stroke-linecap:round;stroke-linejoin:round;}</style></defs><g transform="translate(1 1)"><g transform="translate(0 0)"><g transform="translate(53.967)"><path class="a" d="M80.1,38.69c0-6.084,9.812-10.99,21.979-10.99s21.979,4.906,21.979,10.99" transform="translate(-80.1 -27.7)"/><path class="a" d="M124.058,49.2c0,6.084-9.812,10.99-21.979,10.99S80.1,55.284,80.1,49.2" transform="translate(-80.1 -28.104)"/><path class="a" d="M124.058,38.9c0,6.084-9.812,10.99-21.979,10.99S80.1,44.984,80.1,38.9" transform="translate(-80.1 -27.91)"/><path class="a" d="M124.058,59.5c0,6.084-9.812,10.99-21.979,10.99S80.1,65.584,80.1,59.5" transform="translate(-80.1 -28.297)"/><path class="a" d="M124.058,69.8c0,6.084-9.812,10.99-21.979,10.99S80.1,75.884,80.1,69.8" transform="translate(-80.1 -28.491)"/><path class="a" d="M124.058,80.2c0,6.084-9.812,10.99-21.979,10.99S80.1,86.284,80.1,80.2" transform="translate(-80.1 -28.686)"/><path class="a" d="M124.058,90.5c0,6.084-9.812,10.99-21.979,10.99S80.1,96.584,80.1,90.5" transform="translate(-80.1 -28.88)"/><path class="a" d="M124.058,100.8c0,6.084-9.812,10.99-21.979,10.99S80.1,106.884,80.1,100.8" transform="translate(-80.1 -29.073)"/><path class="a" d="M124.058,111.1c0,6.084-9.812,10.99-21.979,10.99S80.1,117.184,80.1,111.1" transform="translate(-80.1 -29.267)"/><line class="b" y1="70.843" transform="translate(0 10.99)"/><line class="a" y1="70.843" transform="translate(43.958 10.99)"/></g><g transform="translate(0 20.213)"><path class="a" d="M25.1,59.29c0-6.084,9.812-10.99,21.979-10.99s21.979,4.906,21.979,10.99" transform="translate(-25.1 -48.3)"/><path class="a" d="M69.058,59.5c0,6.084-9.812,10.99-21.979,10.99S25.1,65.584,25.1,59.5" transform="translate(-25.1 -48.51)"/><path class="a" d="M69.058,69.8c0,6.084-9.812,10.99-21.979,10.99S25.1,75.884,25.1,69.8" transform="translate(-25.1 -48.704)"/><path class="a" d="M69.058,80.2c0,6.084-9.812,10.99-21.979,10.99S25.1,86.284,25.1,80.2" transform="translate(-25.1 -48.899)"/><path class="a" d="M69.058,90.5c0,6.084-9.812,10.99-21.979,10.99S25.1,96.584,25.1,90.5" transform="translate(-25.1 -49.093)"/><path class="a" d="M69.058,100.8c0,6.084-9.812,10.99-21.979,10.99S25.1,106.884,25.1,100.8" transform="translate(-25.1 -49.286)"/><path class="a" d="M69.058,111.1c0,6.084-9.812,10.99-21.979,10.99S25.1,117.184,25.1,111.1" transform="translate(-25.1 -49.48)"/><line class="b" y1="50.631" transform="translate(0 10.99)"/><line class="a" y1="50.631" transform="translate(43.958 10.99)"/></g><g transform="translate(11.167 24.984)"><path d="M39.934,59.97l-.883-.392c-3.14-1.57-3.63-3.336-.2-5.1,2.257-1.079,5.3-1.668,6.574-1.079.589.294.589.785-.1,1.177a4.868,4.868,0,0,1-1.276.294,7.575,7.575,0,0,0-2.846.687c-1.962.981-1.472,1.864.392,2.747l.883.392,3.827-1.962a2.211,2.211,0,0,1,1.766,0c.491.2.491.589,0,.883l-3.827,1.962,1.276.687,2.944-1.472a2.211,2.211,0,0,1,1.766,0c.491.2.491.589,0,.883l-2.944,1.472.785.392a5.738,5.738,0,0,0,5.495.2,2.25,2.25,0,0,0,1.374-1.472c.2-.294.2-.392.589-.589a2.991,2.991,0,0,1,2.257,0c1.177.589.1,2.159-2.061,3.238a11.105,11.105,0,0,1-10.107-.1l-.785-.392-.981.491a1.877,1.877,0,0,1-1.766,0c-.491-.2-.392-.687,0-.883l.981-.491L41.7,60.853l-.981.491a1.877,1.877,0,0,1-1.766,0c-.491-.2-.392-.687,0-.883Z" transform="translate(-36.481 -53.163)"/></g><g transform="translate(64.153 4.477)"><path d="M93.934,39.07l-.883-.392c-3.14-1.57-3.63-3.336-.2-5.1,2.257-1.079,5.3-1.668,6.574-1.079.589.294.589.785-.1,1.177a4.868,4.868,0,0,1-1.276.294,7.575,7.575,0,0,0-2.846.687c-1.962.981-1.472,1.864.392,2.747l.883.392,3.827-1.962a2.211,2.211,0,0,1,1.766,0c.491.2.491.589,0,.883l-3.827,1.962,1.276.687,2.944-1.472a2.211,2.211,0,0,1,1.766,0c.491.2.491.589,0,.883l-2.944,1.472.785.392a5.738,5.738,0,0,0,5.495.2,2.249,2.249,0,0,0,1.374-1.472c.2-.294.2-.392.589-.589a2.991,2.991,0,0,1,2.257,0c1.177.589.1,2.159-2.061,3.238a11.105,11.105,0,0,1-10.107-.1l-.785-.392-.981.491a1.877,1.877,0,0,1-1.766,0c-.491-.2-.392-.687,0-.883l.981-.491L95.8,39.953l-.981.491a1.877,1.877,0,0,1-1.766,0c-.491-.2-.392-.687,0-.883Z" transform="translate(-90.481 -32.263)"/></g></g></g></svg>