<svg xmlns="http://www.w3.org/2000/svg" width="104.635" height="104.635" viewBox="0 0 104.635 104.635"><defs><style>.a{fill:none;stroke:#000;stroke-linecap:round;stroke-linejoin:round;stroke-miterlimit:10;stroke-width:2px;}</style></defs><g transform="translate(1 1)"><ellipse class="a" cx="51.318" cy="51.317" rx="51.318" ry="51.317" transform="translate(0 0)"/><ellipse class="a" cx="31.791" cy="31.791" rx="31.791" ry="31.791" transform="translate(19.526 19.526)"/><line class="a" y1="19.526" transform="translate(51.318 0)"/><line class="a" y1="19.526" transform="translate(51.318 0)"/><line class="a" x1="11.284" y1="15.896" transform="translate(21.587 9.518)"/><line class="a" x1="19.232" y2="3.434" transform="translate(0.785 57.008)"/><line class="a" x2="9.42" y2="17.073" transform="translate(66.625 79.184)"/><g transform="translate(42.683 40.254)"><path d="M66.2,68.312c0-2.551,1.374-4.514,4.023-4.514s4.023,1.962,4.023,4.514-1.374,4.514-4.023,4.514S66.2,70.863,66.2,68.312Zm5.593-.1c0-1.276-.491-2.061-1.57-2.061s-1.57.785-1.57,2.061c0,1.374.491,2.257,1.57,2.257S71.793,69.686,71.793,68.214ZM71.5,82.343a1.528,1.528,0,0,1-1.668.687,1.312,1.312,0,0,1-.785-1.668l.1-.294,9.027-16.681a1.4,1.4,0,0,1,1.668-.589,1.162,1.162,0,0,1,.883,1.472c0,.1-.1.294-.1.392Zm3.827-3.63c0-2.551,1.374-4.514,4.023-4.514s4.023,1.962,4.023,4.514S82,83.227,79.348,83.227C76.8,83.227,75.325,81.264,75.325,78.713Zm5.593,0c0-1.276-.491-2.061-1.57-2.061s-1.57.785-1.57,2.061c0,1.374.491,2.257,1.57,2.257C80.428,80.872,80.918,80.087,80.918,78.713Z" transform="translate(-66.2 -63.725)"/></g></g></svg>