<svg xmlns="http://www.w3.org/2000/svg" xmlns:xlink="http://www.w3.org/1999/xlink" width="20" height="20" viewBox="0 0 20 20">
  <defs>
    <clipPath id="clip-path">
      <rect width="20" height="20" fill="none"/>
    </clipPath>
  </defs>
  <g id="cd44-marker-black" clip-path="url(#clip-path)">
    <rect id="Rectangle_902" data-name="Rectangle 902" width="20" height="20" fill="none"/>
    <g id="Groupe_2231" data-name="Groupe 2231" transform="translate(-565.773 -351.49)">
      <path id="Tracé_1080" data-name="Tracé 1080" d="M573.114,355.836a4.576,4.576,0,0,1,7.817,3.24,6.134,6.134,0,0,1-.476,2.181,13.51,13.51,0,0,1-1.152,2.3q-.676,1.075-1.336,2.012t-1.121,1.49l-.492.522c-.122-.143-.287-.333-.491-.568s-.574-.706-1.106-1.413a23.5,23.5,0,0,1-1.4-2.058,14.939,14.939,0,0,1-1.091-2.257,6.2,6.2,0,0,1-.492-2.212,4.414,4.414,0,0,1,1.34-3.237Z" fill="none" stroke="#000" stroke-linejoin="round" stroke-width="1.5"/>
      <path id="Tracé_1081" data-name="Tracé 1081" d="M575.2,360.228a1.63,1.63,0,1,0-.477-1.152A1.564,1.564,0,0,0,575.2,360.228Z"/>
    </g>
    <rect id="Rectangle_903" data-name="Rectangle 903" width="20" height="20" fill="none"/>
  </g>
</svg>
