<svg xmlns="http://www.w3.org/2000/svg" xmlns:xlink="http://www.w3.org/1999/xlink" width="246" height="61.874" viewBox="0 0 246 61.874">
  <defs>
    <clipPath id="clip-path">
      <rect width="121.93" height="61.874" fill="none"/>
    </clipPath>
  </defs>
  <g id="Groupe_2464" data-name="Groupe 2464" transform="translate(-125 -66)">
    <g id="logo-loire-atlantique-rvb" transform="translate(125 66)" clip-path="url(#clip-path)">
      <path id="Tracé_695" data-name="Tracé 695" d="M44.106,9.815A3.288,3.288,0,0,0,42.445,9.4a2.948,2.948,0,0,0-2.214.969,3.143,3.143,0,0,0-.83,2.214V13Z" transform="translate(15.13 3.618)" fill="#004461"/>
      <path id="Tracé_696" data-name="Tracé 696" d="M80.106,23.315a3.287,3.287,0,0,0-1.661-.415,2.948,2.948,0,0,0-2.214.969,3.143,3.143,0,0,0-.83,2.214V26.5Z" transform="translate(28.953 8.803)" fill="#004461"/>
      <path id="Tracé_697" data-name="Tracé 697" d="M25.745,15.528a3.393,3.393,0,0,0,2.214-.83,3.266,3.266,0,0,0,.969-2.214,2.948,2.948,0,0,0-.969-2.214A3.266,3.266,0,0,0,25.745,9.3,3.071,3.071,0,0,0,22.7,12.483a3.394,3.394,0,0,0,.83,2.214A3.393,3.393,0,0,0,25.745,15.528Z" transform="translate(8.717 3.58)" fill="#004461"/>
      <path id="Tracé_698" data-name="Tracé 698" d="M61.445,22.8A3.071,3.071,0,0,0,58.4,25.983a3.393,3.393,0,0,0,.83,2.214,2.922,2.922,0,0,0,2.214.83,3.393,3.393,0,0,0,2.214-.83,3.266,3.266,0,0,0,.969-2.214A3.316,3.316,0,0,0,61.445,22.8Z" transform="translate(22.426 8.764)" fill="#004461"/>
      <path id="Tracé_699" data-name="Tracé 699" d="M36.345,28.928a3.393,3.393,0,0,0,2.214-.83,3.266,3.266,0,0,0,.969-2.214,2.948,2.948,0,0,0-.969-2.214,3.266,3.266,0,0,0-2.214-.969A3.071,3.071,0,0,0,33.3,25.883a3.394,3.394,0,0,0,.83,2.214A3.393,3.393,0,0,0,36.345,28.928Z" transform="translate(12.787 8.726)" fill="#004461"/>
      <path id="Tracé_700" data-name="Tracé 700" d="M86.915,45.4v-6.09a5.545,5.545,0,0,1-3.183,1.107,5.237,5.237,0,0,1-3.875-1.661,5.676,5.676,0,1,1,9.688-4.014V45.4h-.277c9.273.138,19.93.554,32.524,1.384V13.427C76.12-4.288,21.037-3.319,0,9.552L17.438,61.867c2.906-1.8,5.674-3.46,8.581-4.982h0C39.721,49.55,53.976,45.121,86.915,45.4Zm16.608-14.67a5.543,5.543,0,0,1,4.014-1.661,5.385,5.385,0,0,1,3.183.969,5.925,5.925,0,0,1,2.076,2.491l.138.277-6.92,4.567a3.287,3.287,0,0,0,1.661.415,2.948,2.948,0,0,0,2.214-.969,2.231,2.231,0,0,0,.554-.969h2.768a6.125,6.125,0,0,1-1.522,2.768A5.674,5.674,0,0,1,102,34.6,4.652,4.652,0,0,1,103.523,30.727ZM91.067,29.2H93.7v6.366a2.216,2.216,0,0,0,4.429,0V29.2h2.63v6.366a4.651,4.651,0,0,1-1.522,3.322,4.706,4.706,0,0,1-8.027-3.322V29.2ZM37.506,31.7H35.845V40h-2.63V31.7H31.555v-2.63h1.661v-3.6h2.63v3.6h1.661Zm4.429,8.442h-2.63V25.468h2.63Zm31.97-14.67h2.63V28.1h-2.63Zm0,3.737h2.63V40.139h-2.63Zm-7.058,0h1.661v-3.6h2.63v3.6H72.8v2.63H71.137v8.3h-2.63v-8.3H66.847Zm-.83,4.567v6.366h-2.63V33.772a2.216,2.216,0,0,0-4.429,0v6.366h-2.63V33.772a5.107,5.107,0,0,1,1.384-3.322,4.385,4.385,0,0,1,6.643,0A3.933,3.933,0,0,1,66.017,33.772ZM53.561,12.043a5.543,5.543,0,0,1,4.014-1.661,5.385,5.385,0,0,1,3.183.969,5.925,5.925,0,0,1,2.076,2.491l.138.277-6.92,4.567a3.288,3.288,0,0,0,1.661.415,2.948,2.948,0,0,0,2.214-.969,2.231,2.231,0,0,0,.554-.969h2.768a6.125,6.125,0,0,1-1.522,2.768,5.674,5.674,0,0,1-9.688-4.014A4.815,4.815,0,0,1,53.561,12.043Zm-7.2,3.183a4.717,4.717,0,0,1,1.522-3.46,4.8,4.8,0,0,1,3.46-1.384h.277v2.63h-.277a2.292,2.292,0,0,0-1.661.692,2.223,2.223,0,0,0-.692,1.522v6.366h-2.63V15.226Zm2.768,13.7A5.67,5.67,0,0,1,54.806,34.6v5.536h-2.63v-.83a5.545,5.545,0,0,1-3.183,1.107,5.237,5.237,0,0,1-3.875-1.661,5.68,5.68,0,0,1,0-8.027A5.685,5.685,0,0,1,49.132,28.928ZM41.8,6.922h2.491v2.63h-2.63V6.922Zm0,3.6h2.491V21.455h-2.63V10.521ZM30.448,12.043a5.674,5.674,0,0,1,9.688,4.014,5.674,5.674,0,1,1-9.688-4.014ZM19.93,6.922H22.7v11.9h5.951v2.768H19.93V6.922Zm1.938,33.216H18.961l5.121-14.67h3.045l5.259,14.67H29.479l-.83-2.491H22.836Z" transform="translate(0 0.006)" fill="#004461"/>
      <path id="Tracé_701" data-name="Tracé 701" d="M17.1,27.036h4.014L19.176,21.5Z" transform="translate(6.566 8.265)" fill="#004461"/>
      <path id="Tracé_702" data-name="Tracé 702" d="M18.8,44.426h95.634V34.185C59.074,30.863,39.7,33.216,18.8,44.426Z" transform="translate(7.219 12.604)" fill="#afca00"/>
      <path id="Tracé_703" data-name="Tracé 703" d="M88.177,33.8Z" transform="translate(33.753 12.988)" fill="#afca00"/>
      <path id="Tracé_704" data-name="Tracé 704" d="M114.434,34.187h0c-12.594-.83-23.251-1.246-32.524-1.384H79.7C46.757,32.527,32.5,36.955,18.8,44.429h0C39.7,33.219,59.074,30.866,114.434,34.187Z" transform="translate(7.219 12.601)" fill="#afca00"/>
      <path id="Tracé_705" data-name="Tracé 705" d="M26.474,18.849a5.67,5.67,0,0,0,5.674-5.674,5.674,5.674,0,1,0-9.688,4.014A5.543,5.543,0,0,0,26.474,18.849ZM24.26,10.96a3.266,3.266,0,0,1,2.214-.969,3.564,3.564,0,0,1,2.214.969,3.266,3.266,0,0,1,.969,2.214,3.071,3.071,0,0,1-3.183,3.045,3.393,3.393,0,0,1-2.214-.83,2.922,2.922,0,0,1-.83-2.214A3.394,3.394,0,0,1,24.26,10.96Z" transform="translate(7.987 2.889)" fill="#fff"/>
      <rect id="Rectangle_526" data-name="Rectangle 526" width="2.63" height="10.934" transform="translate(41.797 10.527)" fill="#fff"/>
      <path id="Tracé_706" data-name="Tracé 706" d="M36.13,12.344a1.983,1.983,0,0,1,.692-1.522,2.292,2.292,0,0,1,1.661-.692h.277V7.5h-.277a5.176,5.176,0,0,0-3.46,1.384,4.717,4.717,0,0,0-1.522,3.46V18.71h2.63V12.344Z" transform="translate(12.864 2.889)" fill="#fff"/>
      <path id="Tracé_707" data-name="Tracé 707" d="M27.09,18.4h-2.63v3.737H22.8v2.491h1.661V33.07h2.63V24.628h1.661V22.137H27.09Z" transform="translate(8.755 7.074)" fill="#fff"/>
      <rect id="Rectangle_527" data-name="Rectangle 527" width="2.63" height="14.67" transform="translate(39.306 25.475)" fill="#fff"/>
      <path id="Tracé_708" data-name="Tracé 708" d="M33.061,30.588a5.237,5.237,0,0,0,3.875,1.661,4.935,4.935,0,0,0,3.183-1.107v.969h2.63V26.574a5.674,5.674,0,1,0-9.688,4.014ZM35,24.5a3.266,3.266,0,0,1,2.214-.969,2.948,2.948,0,0,1,2.214.969,3.266,3.266,0,0,1,.969,2.214,3.071,3.071,0,0,1-3.183,3.045A3.393,3.393,0,0,1,35,28.927a2.922,2.922,0,0,1-.83-2.214A2.191,2.191,0,0,1,35,24.5Z" transform="translate(12.058 8.034)" fill="#fff"/>
      <path id="Tracé_709" data-name="Tracé 709" d="M42.184,22.422A4.5,4.5,0,0,0,40.8,25.744V32.11h2.63V25.744a2.216,2.216,0,0,1,4.429,0V32.11h2.63V25.744a4.651,4.651,0,0,0-1.522-3.322A4.651,4.651,0,0,0,45.644,20.9,4.717,4.717,0,0,0,42.184,22.422Z" transform="translate(15.667 8.034)" fill="#fff"/>
      <path id="Tracé_710" data-name="Tracé 710" d="M49.961,33.07h2.63V24.628h1.661V22.137H52.59V18.4h-2.63v3.737H48.3v2.491h1.661Z" transform="translate(18.547 7.074)" fill="#fff"/>
      <rect id="Rectangle_528" data-name="Rectangle 528" width="2.63" height="10.934" transform="translate(73.905 29.211)" fill="#fff"/>
      <rect id="Rectangle_529" data-name="Rectangle 529" width="2.63" height="2.63" transform="translate(73.905 25.475)" fill="#fff"/>
      <path id="Tracé_711" data-name="Tracé 711" d="M67.849,26.574a5.674,5.674,0,1,0-9.688,4.014,5.237,5.237,0,0,0,3.875,1.661,4.935,4.935,0,0,0,3.183-1.107v6.09H67.71V26.574Zm-3.6,2.214a2.922,2.922,0,0,1-2.214.83,3.393,3.393,0,0,1-2.214-.83,2.922,2.922,0,0,1-.83-2.214,3.394,3.394,0,0,1,.83-2.214,3.266,3.266,0,0,1,2.214-.969,2.948,2.948,0,0,1,2.214.969,3.266,3.266,0,0,1,.969,2.214A2.754,2.754,0,0,1,64.25,28.789Z" transform="translate(21.695 8.034)" fill="#fff"/>
      <path id="Tracé_712" data-name="Tracé 712" d="M62.8,32.8h0Z" transform="translate(24.115 12.604)" fill="#fff"/>
      <path id="Tracé_713" data-name="Tracé 713" d="M70.644,32.172a4.5,4.5,0,0,0,3.322-1.384,4.651,4.651,0,0,0,1.522-3.322V21.1h-2.63v6.366a2.216,2.216,0,0,1-4.429,0V21.1H65.8v6.366a5.107,5.107,0,0,0,1.384,3.322A4.8,4.8,0,0,0,70.644,32.172Z" transform="translate(25.267 8.111)" fill="#fff"/>
      <path id="Tracé_714" data-name="Tracé 714" d="M43.313,18.849a5.543,5.543,0,0,0,4.014-1.661,6.783,6.783,0,0,0,1.522-2.768H46.081a3.469,3.469,0,0,1-.554.969,2.581,2.581,0,0,1-2.214.969,3.685,3.685,0,0,1-1.661-.415l6.92-4.567-.138-.415a5.325,5.325,0,0,0-2.076-2.491A5.108,5.108,0,0,0,43.174,7.5,5.67,5.67,0,0,0,37.5,13.174a5.543,5.543,0,0,0,1.661,4.014A5.633,5.633,0,0,0,43.313,18.849ZM41.1,10.96a3.011,3.011,0,0,1,2.214-.969,3.685,3.685,0,0,1,1.661.415l-4.567,3.045v-.415A1.893,1.893,0,0,1,41.1,10.96Z" transform="translate(14.399 2.889)" fill="#fff"/>
      <path id="Tracé_715" data-name="Tracé 715" d="M79.313,32.21a5.543,5.543,0,0,0,4.014-1.661,6.783,6.783,0,0,0,1.522-2.768H82.081a3.469,3.469,0,0,1-.554.969,2.581,2.581,0,0,1-2.214.969,3.685,3.685,0,0,1-1.661-.415l6.92-4.567-.138-.277a5.325,5.325,0,0,0-2.076-2.491A5.108,5.108,0,0,0,79.174,21a5.676,5.676,0,0,0-4.014,9.688A6.675,6.675,0,0,0,79.313,32.21ZM77.1,24.46a3.011,3.011,0,0,1,2.214-.969,3.685,3.685,0,0,1,1.661.415l-4.567,3.045v-.415A2.285,2.285,0,0,1,77.1,24.46Z" transform="translate(28.224 8.073)" fill="#fff"/>
      <path id="Tracé_716" data-name="Tracé 716" d="M23.119,16.9H17.03V5H14.4V19.67h8.719Z" transform="translate(5.529 1.929)" fill="#fff"/>
      <path id="Tracé_717" data-name="Tracé 717" d="M24.18,33.07h2.906L21.966,18.4H18.921L13.8,33.07h2.906l.83-2.491H23.35Zm-5.813-4.844,2.076-5.536,2.076,5.536Z" transform="translate(5.299 7.074)" fill="#fff"/>
      <rect id="Rectangle_530" data-name="Rectangle 530" width="2.63" height="2.63" transform="translate(41.797 6.929)" fill="#fff"/>
    </g>
    <text id="Circuit_interne_d_information" data-name="Circuit interne
d’information" transform="translate(264 97)" font-size="16" font-family="Muli-Bold, Muli" font-weight="700"><tspan x="0" y="0">Circuit interne</tspan><tspan x="0" y="17">d’information</tspan></text>
  </g>
</svg>
