<svg id="_ÎÓÈ_1" data-name="—ÎÓÈ_1" xmlns="http://www.w3.org/2000/svg" xmlns:xlink="http://www.w3.org/1999/xlink" viewBox="0 0 640 640"><defs><style>.cls-1{fill:none;}.cls-2{fill:#fff;}.cls-3{fill:url(#ÕÓ_È_Ó·_ÁÂ_ÛÁÓ_29);}</style><pattern id="ÕÓ_È_Ó·_ÁÂ_ÛÁÓ_29" data-name="ÕÓ‚˚È Ó·‡ÁÂˆ ÛÁÓ‡ 29" width="1417.32" height="1417.32" patternTransform="matrix(-0.11, 0, 0, 0.11, -559.73, -91.29)" patternUnits="userSpaceOnUse" viewBox="0 0 1417.32 1417.32"><rect class="cls-1" width="1417.32" height="1417.32"/><path class="cls-2" d="M31.36,103c10.14-3.76,20.1-13,31.62-11.39C75.31,93.32,73.09,106,73.16,115.47c.11,11.46-.28,25.09,8.66,33.74,10,9.71,24.51,6.54,35.54.57,8.67-4.69,1-17.91-7.72-13.21-7,3.77-16.91,6.62-19.78-3.22s-1-20.66-1.54-30.67c-.57-10.54-5-19.4-15-23.8C63.71,74.64,53.39,76,43.89,79.94c-5.07,2.12-9.77,4.85-14.66,7.31C25.17,89.31,21,90.54,16.9,88c-8.64-5.42-3.12-19.87-3.13-28.08,0-10.47-3-21.28-11.11-28.39A29.2,29.2,0,0,0,0,29.43V91.61c.29.54.58,1.07.92,1.6C7.45,103.43,20.19,107.09,31.36,103Z"/><path class="cls-2" d="M277.71,182a25.11,25.11,0,0,0-15.66,25.88c1.17,11.35,9,24,4.1,35.41s-17.56,5.74-26.69,3.8c-11.14-2.38-24.1-5.27-34.13,2-10.84,7.81-11,22-7.63,33.7,2.7,9.46,17.48,5.43,14.77-4.07-2-7-3.36-17.44,6.18-18.85s20.14,2.89,29.32,4.69c10.77,2.1,20.89.73,28-8.31,7-8.83,7.71-19.85,5.81-30.57-1.43-8-8.95-21.16-1.27-27.8,3.62-3.13,7.93-2.4,12.17-1.16,5.31,1.57,10.38,3.76,15.83,4.88,10.06,2.06,20.79,1.53,29.39-4.6s12.19-15.88,10.36-26.24c-1.62-9.23-9.34-19.58-5.37-29,4.2-10,15.74-11.28,23.77-5.2,3.33,2.52,8.53.5,10.48-2.74,2.33-3.91.53-8-2.75-10.47-19.12-14.47-46.34-.73-47.86,22.58-.69,10.71,6.44,19.47,7,29.79.62,11.4-13.66,12.81-21.81,11C300.4,184.1,289.52,177.27,277.71,182Z"/><path class="cls-2" d="M643.18,270.64c-8.62,4.75-18.58-6.22-25.78-9.85-9.41-4.74-20.26-7.16-30.4-3.23s-15.86,12.51-16.61,23.14c-.7,9.62,4.39,21.57-2.44,29.85-6.66,8.08-17.73,6.2-23.77-1.39-2.6-3.26-8.11-2.66-10.82,0-3.24,3.16-2.57,7.61,0,10.82,14.56,18.31,44.18,12.61,51.72-9.25,3.67-10.58-1.42-21.23.91-31.73,2.41-10.91,16.36-8.63,23.69-5,10.81,5.37,19.72,14.92,32.82,12.8,11.42-1.85,19.45-11.13,20.82-22.39,1.28-10.47-2.08-22.34,3.32-32,1.78-3.2,5-6.47,8.83-6.88,5.75-.64,12.61,4.48,17.52,6.92,11.17,5.53,24.43,12.73,36.89,6.67,11.22-5.44,14.43-18.45,14.09-30-.29-9.82-15.59-9.87-15.3,0,.2,7-.76,17.57-10.08,16.94-10.24-.73-20.26-8.39-29.37-12.51-10.14-4.6-20.44-4.49-29.17,3-8.11,7-11.06,17.33-11.72,27.64C647.84,252.1,651.63,266,643.18,270.64Z"/><path class="cls-2" d="M30,764.1c11.31-3.06,18.54-13.55,18.48-25.05-.06-11.13-6.16-23.54-.73-34.26,5.9-11.69,18.68-4.35,28-1.33,11.28,3.67,24.59,7.71,35.24.14,10.42-7.38,11.08-20.84,9.06-32.32-1.72-9.7-16.47-5.59-14.77,4.06,1.18,6.64,1.12,16.5-7.55,17.26-4.38.4-8.84-1-13-2.3-5.75-1.77-11.42-3.83-17.17-5.57-10.19-3.09-20.39-2.35-28.11,5.63-7.35,7.62-9.66,18.21-8.93,28.52.39,5.61,1.73,11.08,2.4,16.67.56,4.7.32,9.27-3.77,12.26-3.61,2.65-7.61,1.87-11.54.39-5.43-2.08-10.46-5-16-6.87L0,740.84V757C9.79,760.85,18.94,767.08,30,764.1Z"/><path class="cls-2" d="M221.36,1301.7a37,37,0,0,0-16-2.68c-5.49.16-11.39,1.42-16.81.24-10.86-2.42-9-15.85-5.1-23.3,5.11-9.85,14.46-18,14.43-29.91a25.25,25.25,0,0,0-18.63-24c-11.16-2.92-23.68,1.1-34.28-4.35-3.45-1.78-7-5.12-7.59-9.17-.74-5.4,4.27-11.83,6.67-16.32,6.1-11.42,14.45-25.05,8.47-38.22-5.18-11.41-18.12-14.88-29.65-14.9-9.85,0-9.87,15.3,0,15.31,7.18,0,17.5,1.54,16.34,11-.62,5-3.43,9.78-5.77,14.19-2.85,5.35-6,10.63-8.48,16.18-4.52,10-3.4,20.41,4.07,28.7,7.2,8,17.79,10.7,28.15,11.43,7.85.55,21-2.48,24.73,6.76,3.38,8.32-7.21,17.57-10.9,24.19-5,8.88-7.86,19.47-4.76,29.51A25.53,25.53,0,0,0,188,1314.58c9.49,1.18,21.89-3.46,30.13,2.77,7.57,5.7,7.92,17.66.16,23.45-3.33,2.49-5,6.6-2.75,10.47,1.87,3.29,7.17,5.22,10.48,2.75,8.66-6.46,14.28-16.49,13.21-27.56A30.39,30.39,0,0,0,221.36,1301.7Z"/><path class="cls-2" d="M314.14,284.79c-3.92-2.35-8-.51-10.47,2.74-14.41,18.78-1.32,45.78,21.63,47.92,5.3.5,10.69-.81,15.68-2.46s10.66-4.67,16.09-4.27c11,.8,11.25,14.92,9.31,22.8-2.81,11.45-9.4,22.2-4.24,34.07,4.56,10.46,15.27,16.07,26.45,14.75,11-1.3,23.38-8.53,34.4-3.69,11.49,5,5.38,18.42,3.34,27.64-2.48,11.19-5.08,24.18,2.57,34,7.92,10.17,21.68,10.17,33.08,7,9.48-2.62,5.45-17.39-4.07-14.76-7,2-17.47,3.2-18.77-6.38s3.08-20.1,4.92-29.28c2.09-10.42,1-20.48-7.61-27.66-8.35-6.9-18.83-8.22-29.27-6.68-5.52.81-10.77,2.5-16.17,3.82-4.71,1.15-9.61,1.72-13.16-2.21-6.56-7.29,1.71-19.59,3.5-27.44,2.36-10.28,2-21.42-4.24-30.3-6.05-8.56-15.57-12.17-25.82-10.51-9.55,1.52-20.15,9.4-29.83,5s-10.58-15.82-4.58-23.66C319.42,292,317.37,286.72,314.14,284.79Z"/><path class="cls-2" d="M23.7,315.28c5.21-8.67,4.51-18.91-.77-27.34-4.77-7.62-15-14.68-14.53-24.56.47-10.37,10.31-16.24,19.86-13.29s13.46-11.85,4.07-14.77A30.43,30.43,0,0,0,0,245.15v37.67c3.82,4.95,8.38,9.38,11,15.09,3.87,8.48-3.61,14.43-11,17v15.77C9.58,328.7,18.5,323.9,23.7,315.28Z"/><path class="cls-2" d="M948.13,115.46c5.24.11,10.23-1.45,15-3.43,4.94-2.07,10.06-5.27,15.46-5.94,10.81-1.37,13.61,11.6,12.82,19.73-1.19,12.16-8.08,23.85-2,35.85,5.21,10.23,16.38,15.07,27.45,13.11s22.76-10.73,34.39-6.76c11.8,4,7.17,17.36,5.91,26.82-1.52,11.46-3.22,24.44,5.11,33.85s22.27,8.68,33.19,4.61c9.15-3.4,5.19-18.21-4.08-14.75-6.62,2.46-17.15,5.21-19.66-3.93s.93-20.66,2.08-29.83c1.37-10.81-.56-20.53-9.78-27.22-8.5-6.19-19.24-6.64-29.18-4.42-5.45,1.22-10.53,3.43-15.78,5.19-4.58,1.54-9.34,2.86-13.45-.43-3.63-2.91-3.88-7.07-3.15-11.4,1-6.1,3.15-11.89,3.94-18.07,1.31-10.48-.53-21.37-7.82-29.41-6.75-7.44-16.64-9.79-26.21-7.21-9.06,2.45-18.73,10.86-28.5,7.56S931.32,85,936.65,76.7s-7.92-16-13.21-7.73C910.89,88.61,924.68,115,948.13,115.46Z"/><path class="cls-2" d="M1250.09,14.81c6.21,9,17.09,14.88,20.74,25.58,1.28,3.76,1.54,8.72-1,12-3.19,4.11-10.49,5.19-15.11,6.68-11.15,3.59-24.55,6.77-31.35,17.28-8.07,12.49-.78,26.63,8.66,35.82,7.06,6.89,17.9-3.93,10.82-10.82-3.29-3.21-7.41-7.51-7.7-12.4-.26-4.12,2.78-6.71,6-8.59,8.85-5.08,19.48-6.57,28.89-10.34,10.14-4.07,16.5-12.19,17-23.28s-5.46-20.5-12.59-28.26c-4.54-5-13.88-11.06-13.53-18.51h-15.19A25.37,25.37,0,0,0,1250.09,14.81Z"/><path class="cls-2" d="M705.22,16.12c-.76,5.38-6.64,10.08-10,13.94-8.59,9.82-19.73,21-17.1,35.33,2.24,12.18,14.2,18.69,25.27,21.27C713,88.9,717,74.14,707.44,71.89c-7.43-1.72-17.36-5.69-13.5-15.09,4-9.63,13.6-17,19.95-25,7.14-9,8.77-20,2.76-30.15-.32-.55-.66-1.09-1-1.6H690.34a28,28,0,0,1,9.48,5.09C702.87,7.67,705.8,11.91,705.22,16.12Z"/><path class="cls-2" d="M168,43.06c-3.14,6.85-12.58,4.12-18.3,3.12-8.5-1.49-17-2.06-24.75,2.55-14.94,8.94-16.69,27.82-6.5,41,2.55,3.3,8.13,2.64,10.82,0,3.26-3.19,2.52-7.57,0-10.82a11.75,11.75,0,0,1,.07-14c4.1-5.21,10.35-4.91,16.29-3.91,12.69,2.14,27.52,3.9,35.09-9.19,2.92-5.06,3.86-11.12,3.75-16.89-.12-6.63-2.07-13.9.47-20.29,4.4-11.08,17.38-13.49,26.68-7.14,5.91,4,11.54-1.81,11.15-7.43H176.11a33.9,33.9,0,0,0-7.66,20.2C168.09,27.42,171.14,36.19,168,43.06Z"/><path class="cls-2" d="M538.19,198.87a27.69,27.69,0,0,0-23,36.21c3.07,9.3,17.85,5.3,14.76-4.08-1.76-5.33-.83-11.18,3.93-14.69s10.29-2.58,15.22-.09c12,6,25.14,15.33,38.23,6,5.26-3.76,8.53-9.4,10.73-15.36,2.34-6.34,2.83-13.91,7-19.44a18.12,18.12,0,0,1,28.87.28c2.44,3.36,6.63,4.93,10.47,2.74,3.33-1.89,5.16-7.13,2.74-10.48-10.06-13.91-28.11-19.23-43.61-10.89a34,34,0,0,0-15.21,17.53c-2.75,6.86-3.11,16-8.18,21.65-5.35,6-13.77.15-19.08-2.9C554,201.27,546.58,197.89,538.19,198.87Z"/><path class="cls-2" d="M1179.9,6.18c10.76,5.57,12.67,19.78,4.58,28.46-6.7,7.19,4.1,18,10.83,10.82,11.32-12.16,12.86-30.53,2.46-43.77-.44-.6-.93-1.14-1.41-1.69h-47.17a40.49,40.49,0,0,0,11.91,3.06C1167.33,3.81,1174.18,3.23,1179.9,6.18Z"/><path class="cls-2" d="M819.19,190.45c7,1.16,15.75-1.42,22.3,1.48,6.15,2.72,3.33,10.58,2.17,15.59-1.78,7.69-2.5,15.32,1.19,22.56,6.73,13.24,24,17.29,36.12,8.91,8-5.58.39-18.85-7.72-13.23-3.81,2.63-8.59,3.52-12.42.33-4.23-3.52-3.7-8.73-2.62-13.59,2.57-11.57,4.71-24.77-6.7-32.49-4.64-3.14-10.33-4.21-15.83-4.4s-11.89,1.19-17.21-1.22c-9.47-4.29-10.4-15.39-4.62-23,2.51-3.32.5-8.52-2.75-10.47-3.89-2.33-8-.54-10.47,2.75a29.56,29.56,0,0,0,18.56,46.82Z"/><path class="cls-2" d="M1338.34,136.24c4.5,4.83,12.16,8.1,15.05,14.27,2.58,5.54-4.2,9.78-8,12.64-6.14,4.64-11.78,9.62-13.88,17.36-4.28,15.82,7.58,29.77,23.06,31.16,9.81.89,9.75-14.42,0-15.29a9.5,9.5,0,0,1-8.59-9.07c-.16-5.27,3.93-8.49,7.75-11.41,9.21-7,18.49-15.86,14.76-28.62-1.55-5.31-5.32-9.9-9.44-13.45s-9.31-6.41-11.93-11.2c-5-9,.76-19,10.27-21.16s5.53-17-4.07-14.76c-13.68,3.13-23.87,15.69-23.29,29.88A30.52,30.52,0,0,0,1338.34,136.24Z"/><path class="cls-2" d="M767.27,302.91c.24,6.18,3.41,11.67,7.36,16.24,3.59,4.15,8.72,7.35,11.41,12.19,5.61,10.07-1.65,20.18-12.11,21.64-4.09.56-6.35,5.81-5.34,9.42,1.23,4.41,5.28,5.93,9.41,5.35a29.78,29.78,0,0,0,25.26-28.85,30.53,30.53,0,0,0-7.51-20.13c-3.73-4.43-12.8-9.76-13.16-16.1-.33-5.75,8.08-9.16,12-11.73,5.94-3.87,10.89-8.6,13.17-15.49,4.64-14.07-4.67-29.27-19.14-31.9-9.63-1.74-13.76,13-4.07,14.77,4.59.83,8.62,3.56,9.1,8.56.43,4.68-2.53,8-6.15,10.43C778.15,283.69,766.75,289.78,767.27,302.91Z"/><path class="cls-2" d="M991.93,274.69c9.54,11.15,26.38,10.9,36.56.83,7-6.95-3.82-17.77-10.83-10.83-3,3-7.28,4.21-11.26,2.27-4.72-2.3-5.53-7.22-5.44-12,.22-11.19,1.35-23.9-9.72-30.69A25.64,25.64,0,0,0,976,221c-6,.48-12.2,3.05-18.28,2.56-10.33-.84-16.17-12-11.56-21.08,4.45-8.76-8.75-16.51-13.22-7.72-6.77,13.35-3.83,29.55,8.57,38.49a29.89,29.89,0,0,0,19.8,5.52c6.16-.47,15.21-4.73,21.2-1.89,5.57,2.63,3.39,12.38,3.22,17.1C985.43,261.6,986.89,268.8,991.93,274.69Z"/><path class="cls-2" d="M1120.49,302.05a29.51,29.51,0,0,0,16.37,10.22c6.85,1.55,15-.34,21.45,2.68,6.12,2.89,3,10.51,1.48,15.41-2.23,7.42-3.68,14.91-.66,22.32,5.84,14.34,23,19.58,36.14,11.7,8.44-5.06.75-18.31-7.72-13.22-4,2.41-8.93,2.47-12.32-1.11-3.77-4-2.62-9-1.22-13.85,3.25-11.15,6-24-4.62-32.27-4.28-3.33-9.43-4.78-14.74-5.38-5.59-.66-11.9.31-17.15-2.09a14.47,14.47,0,0,1-4.82-22.56c6.41-7.43-4.38-18.3-10.83-10.83C1112.18,274.26,1111,290.32,1120.49,302.05Z"/><path class="cls-2" d="M1100,548.28a29.57,29.57,0,0,0,16.36,10.22c6.85,1.55,15-.35,21.46,2.69,6.11,2.87,3,10.48,1.48,15.4-2.23,7.41-3.69,14.88-.67,22.3a25,25,0,0,0,36.15,11.7c8.44-5.05.75-18.31-7.72-13.21-4,2.4-8.94,2.47-12.32-1.1-3.77-4-2.63-9-1.22-13.85,3.26-11.17,6-24-4.62-32.28-4.28-3.33-9.43-4.77-14.74-5.4-5.59-.65-11.91.32-17.15-2.06a14.5,14.5,0,0,1-4.83-22.58c6.41-7.41-4.37-18.3-10.82-10.82C1091.64,520.48,1090.42,536.55,1100,548.28Z"/><path class="cls-2" d="M728.75,389.82c-13.57,5.13-22,16.9-24,31.07-1.53,10.82-.59,29.63-16.7,26.53-7.7-1.48-14.61-5.53-22.38-6.81A31,31,0,0,0,645,444c-14.6,8.25-18.81,26.64-11,41.06,4.66,8.67,17.88,1,13.21-7.72a14.83,14.83,0,0,1,2-17.39c5.11-5.36,11.92-5.17,18.52-3.14,7.66,2.37,14.8,5.88,23,6.26a24.8,24.8,0,0,0,19.88-8c4.85-5.51,7-12.66,7.93-19.8,1-7.45.58-15.71,4.7-22.31,7.35-11.78,23.39-13,33.08-3.49,7,6.92,17.87-3.9,10.83-10.82C757.13,388.94,742,384.8,728.75,389.82Z"/><path class="cls-2" d="M517.89,370.57a30,30,0,0,0-47.13-27.33c-8,5.63-.35,18.9,7.72,13.22,5.38-3.78,12.32-4.92,18-.85,5.79,4.18,6.92,10.7,5.8,17.37-1.33,7.88-4.23,15.41-3.74,23.53s3.9,15.27,10.66,19.89c5.88,4,13.28,5.27,20.27,5.39,7.43.15,15.59-1.38,22.58,1.88,13.38,6.26,15.49,22.29,6.93,33.41-2.54,3.29-.47,8.54,2.75,10.47,3.92,2.34,8,.5,10.47-2.75a36.72,36.72,0,0,0,3.18-39.17c-6.85-12.83-20.27-19.12-34.37-19.31-6.49-.08-13.3,1-19.6-.93s-8-6.64-7.55-12.79C514.33,385.15,517.27,378.06,517.89,370.57Z"/><path class="cls-2" d="M145.81,445.93c5.17,3.23,11.62,4.12,17.62,3.84,6.32-.3,13.19-2.38,19.39-.37,11.16,3.58,14.57,16.2,8.53,25.66-5.31,8.34,7.93,16,13.22,7.73,8.53-13.38,6.27-31.53-6-41.81a33,33,0,0,0-20.76-7.68c-7.06-.13-16.57,3.49-23.19,0-6.4-3.35-3.5-13.41-2.72-19,1.11-8,.9-16.1-3.74-23.06-9.29-13.94-27.68-15.21-40.13-4.92-3.21,2.65-2.7,8.07,0,10.83,3.12,3.18,7.65,2.62,10.82,0a11.35,11.35,0,0,1,13.94-.35c4.36,3.4,4.8,8.5,4.28,13.65C135.75,423.3,132.77,437.81,145.81,445.93Z"/><path class="cls-2" d="M275.14,453.68c-5.31,8.33,7.93,16,13.22,7.72,2.48-3.88,7.27-5.91,11.71-4,4.67,2,5.93,6.63,6.82,11.2,2.07,10.85,4.34,23.08,16.5,26.87,5.75,1.8,12,.88,17.57-1.18,5.1-1.92,10.11-5.3,15.63-5.81,10.25-.95,17.45,8.84,15,18.39s12.31,13.63,14.76,4.09c3.71-14.54-3.17-29.67-17.19-35.48a30,30,0,0,0-20.25-1c-6.06,1.84-13.57,7.87-20.16,6.55-5.81-1.18-6-10.35-6.83-14.88-1.26-7.12-3.65-13.9-9.29-18.72C300.72,437.24,283.34,440.83,275.14,453.68Z"/><path class="cls-2" d="M11.7,662.58C14.85,658,16,652.24,16,646.75c.06-5.71-1.72-12.09.25-17.62,3.52-9.89,14.71-12,22.8-6.4s15.78-7.63,7.73-13.22c-11.81-8.17-28.51-6.73-38.4,3.83A30.69,30.69,0,0,0,.29,631.57c-.63,6.29,2.19,14.5-.29,20.58v18.39A18.57,18.57,0,0,0,11.7,662.58Z"/><path class="cls-2" d="M602.16,81.31c4,3.92,9.46,7.18,11.84,12.42,4.33,9.57-2.46,18.68-12,20.35-9.69,1.69-5.58,16.44,4.06,14.75a29.83,29.83,0,0,0,24.46-28.91,30.34,30.34,0,0,0-7-19.33c-4.26-5.2-12.28-9.14-14.61-15.64-2.2-6.16,6.24-10.14,10.31-13,5.78-4,10.94-8.69,13.17-15.57C637,22.15,627.59,6.47,612.66,4.33c-4.12-.59-8.17,1-9.41,5.37-1,3.57,1.25,8.81,5.34,9.4,4.57.66,8.91,3,9.69,8,.81,5.28-2.79,8.86-6.75,11.63-9.41,6.58-20.09,14-18.06,27.13C594.39,71.89,597.9,77.09,602.16,81.31Z"/><path class="cls-2" d="M365.75,81c13.82-1.47,24.6-10.38,29.82-23.05,2.49-6.07,3.69-12.92,7.44-18.42,4.08-6,9.74-5.53,15.7-2.37s11.22,7.62,17.58,10.27a29.3,29.3,0,0,0,19.62,1.3c15.5-4.53,23.89-20.71,19.71-36.07-2.58-9.49-17.36-5.47-14.76,4.07,1.6,5.9-.19,12.23-5.5,15.64s-11.23,2.3-16.5-.65c-6.66-3.76-12.45-8.6-19.85-11s-15.37-1.6-21.7,3c-5.65,4.06-9.12,10.11-11.61,16.49-2.64,6.71-3.87,14.63-9.23,19.9a19.9,19.9,0,0,1-30.78-3.73c-5.28-8.28-18.53-.6-13.22,7.74C339.57,75.24,352.34,82.43,365.75,81Z"/><path class="cls-2" d="M462.43,288.42c-5.73-2-7.95-6.92-9.12-12.49-2.58-12.34-3.5-26.69-17.19-32-6.21-2.42-13.22-1.8-19.47.23-6.68,2.16-13,6.64-20.21,7.06-12.73.75-21.34-11.52-18.1-23.33,2.61-9.51-12.15-13.57-14.76-4.06A33.55,33.55,0,0,0,384,264.43a34.56,34.56,0,0,0,24.11-.35c6.25-2.32,15.59-8.78,22.52-6,5.88,2.39,6.32,11.88,7.13,17.1,1.26,8.07,3.48,15.93,9.66,21.65,13.06,12.08,33,8.52,42.45-6,5.38-8.3-7.87-16-13.21-7.73C473.61,287.79,467.82,290.29,462.43,288.42Z"/><path class="cls-2" d="M997.59,0H981.23a20.63,20.63,0,0,1,2.12,3C987.34,9.91,996.75,6.21,997.59,0Z"/><path class="cls-2" d="M909.71,17.8c-5.62-3.48-10.51-7.93-16.64-10.59a29.23,29.23,0,0,0-19.55-1.48c-15.19,4.29-23.3,19.79-19.89,34.83,2.18,9.61,16.94,5.55,14.76-4.07a13.37,13.37,0,0,1,6.37-14.85c5.53-3,11-1.51,16.07,1.65,6.15,3.86,11.47,8.64,18.34,11.27,7.11,2.74,15.21,2.65,21.75-1.58,5.88-3.8,9.72-9.71,12.44-16,2.4-5.58,4-12.1,7.86-16.94H933.74c-2.49,5.77-4,12.47-8.09,17.41C921,23,915.23,21.19,909.71,17.8Z"/><path class="cls-2" d="M301.77,3.68c-8.92,4.18-1.16,17.37,7.72,13.23A29.74,29.74,0,0,0,324.77,0H306.94A17.28,17.28,0,0,1,301.77,3.68Z"/><path class="cls-2" d="M195.74,119.78c4.69,2.68,10,3.89,15.13,5.32,4.39,1.22,9.07,2.61,11.24,7,4.46,9-4.51,14.81-9.43,21-7.66,9.65-7.48,21.65-1.56,32.16,4.84,8.59,18.07.87,13.22-7.73-2.28-4.06-3.46-8.67-1.11-13,2.11-3.88,6-6.73,8.79-10.13,6.39-7.84,8.45-17.85,4.54-27.37-4-9.76-12.65-14.29-22.38-16.94-8.46-2.3-17.52-5.22-18.49-15.44C195.3,90.57,192.45,87,188,87c-3.84,0-8,3.52-7.65,7.66C181.36,105,186.52,114.54,195.74,119.78Z"/><path class="cls-2" d="M181.16,376.44a38.58,38.58,0,0,0,40-.36c9.24-5.77,18.38-18.81,30.62-16.37,14.67,3,13.19,18.21,17,29.41,4.77,14,17,21.32,31.27,22.68,4.12.39,7.65-3.81,7.65-7.67,0-4.47-3.52-7.25-7.65-7.65-5.25-.5-10.92-2.73-14.23-7-3.76-4.85-4-11.92-5.26-17.71-2.81-13-11.29-23.8-24.73-26.8s-24.12,3.33-34.15,11.59c-4.44,3.67-9,7.69-14.63,9.28a23.22,23.22,0,0,1-18.2-2.59C180.37,358.22,172.66,371.45,181.16,376.44Z"/><path class="cls-2" d="M19.18,1000.33c4.44-9.71,2-19.11-2.94-28.07-4.35-7.91-9-16.44-2.14-24.59,6.3-7.5-4.47-18.37-10.83-10.83A38.1,38.1,0,0,0,0,941.41v33.08c1.1,2.09,2.28,4.12,3.4,6.19,2.05,3.78,3.93,7.86,2.4,12.18A10,10,0,0,1,0,999.1V1015C8.33,1013.28,15.44,1008.49,19.18,1000.33Z"/><path class="cls-2" d="M163.46,550.9c4.77-2.92,10.58-4.85,15.95-2.29,4.53,2.15,7.94,6.29,11.79,9.4,8.92,7.18,20,9.86,30.83,5.41,11.35-4.62,16.42-14.65,19.12-26,2.46-10.36,5.81-21.76,18.26-23.31,4.1-.49,7.65-3.14,7.65-7.65,0-3.73-3.52-8.15-7.65-7.65-12.38,1.54-23.43,8.37-28.65,20-2.52,5.64-3.53,11.59-5.12,17.52-1.36,5.1-3.28,10.09-8.31,12.54-10.36,5-17.15-3.79-24.51-9.61-11.19-8.85-25-9-37.09-1.58C147.35,542.82,155,556.07,163.46,550.9Z"/><path class="cls-2" d="M96.73,549.46c-1.11-4-1.45-8.44,1.13-12s7.12-5.34,10.59-7.78c8.55-6,13.65-15,12.34-25.72-1.26-10.38-8.23-17.14-17-22.07-7.67-4.34-16.57-9.24-15-19.68.61-4.12-1-8.18-5.34-9.42-3.61-1-8.81,1.26-9.42,5.35-1.6,10.79,1.3,21.83,9.83,29.14,3.92,3.35,8.44,5.64,12.88,8.18,3.89,2.24,7.88,4.76,8.79,9.49,1.95,10.19-9.21,13.65-15.55,18.86-8.9,7.3-11,19-8,29.71C84.62,563,99.39,559,96.73,549.46Z"/><path class="cls-2" d="M18.89,521.85c6.33,7.92-1.45,16.26-4.15,24-3.72,10.69.4,21.76,8.36,29.3,7.14,6.78,18-4,10.82-10.83-2.88-2.72-5.5-6.23-5.34-10.4.16-4.56,3.38-8.82,5.17-12.86,4-9.11,4-19.07-1.95-27.4-6.32-8.76-16-11.33-26.35-11.11-1.78,0-3.62.09-5.45.06V518l5.45-.13C10.28,517.73,15.61,517.73,18.89,521.85Z"/><path class="cls-2" d="M57,910.6c6.4,4.84,19.22,7.52,20.78,16.59,1.69,9.82-9,13.43-15.08,18.57C54,953.2,52,965,55.25,975.65,58.13,985,72.9,981,70,971.56c-1.23-4-1.81-8.86.95-12.45s7.2-5.52,10.66-8.13c8.5-6.38,13-15.81,11.2-26.48C91.13,914.33,83.61,908,75,903.41c-9-4.76-16.18-9.56-14.77-20.91.51-4.11-3.88-7.66-7.66-7.66-4.54,0-7.13,3.54-7.64,7.66A30.77,30.77,0,0,0,57,910.6Z"/><path class="cls-2" d="M264.27,930.1a35.06,35.06,0,0,0-23.38-24.93c-9.78-3.08-25.6.2-31.42-10.32s4-18.18,8.47-26.8c6.28-12.19,3.19-24.84-5.07-35.14-2.6-3.26-8.1-2.67-10.82,0-3.23,3.16-2.57,7.62,0,10.82,3,3.72,4.92,8.84,3.8,13.61-1.2,5.1-5.36,9.33-8.11,13.67-6.17,9.68-7.31,21.38-1.49,31.56,6.23,10.9,17.27,14.14,29,15.44,11.14,1.23,21.19,4,24.24,16.16C251.9,943.72,266.67,939.67,264.27,930.1Z"/><path class="cls-2" d="M426.85,90.9c-4.56,0-7.13,3.55-7.65,7.67a34.94,34.94,0,0,0,14.15,32.12c7.92,5.87,22.64,8.74,24.76,19.85,2.27,11.92-9.49,16.34-17,22.5-10.45,8.53-13.18,22-9.21,34.55,2.95,9.36,17.73,5.37,14.76-4.06-1.58-5-2.19-10.74.9-15.32,2.92-4.34,8.18-6.74,12.28-9.77,10-7.37,15.44-18,13.33-30.58s-12-19.29-22.45-24.7c-4.5-2.32-9.37-4.62-12.5-8.77-3.49-4.65-4.38-10.17-3.67-15.82C435,94.45,430.62,90.9,426.85,90.9Z"/><path class="cls-2" d="M695.5,154.46c2.78-3.05,6.37-5.9,10.75-5.66s8.69,3.21,12.67,4.9c9.48,4.05,19.65,3.46,27.93-3,8.79-6.91,10.37-17.11,9.83-27.68-.51-10,.39-18.13,10.45-22.5,3.83-1.67,4.61-7.19,2.75-10.47-2.25-3.94-6.71-4.39-10.48-2.75a30.71,30.71,0,0,0-17.48,21.3c-1.26,6-.51,11.93-.38,18,.09,4.5-.26,9-4,12.07-7.92,6.4-16.61-1.66-24.45-4-10.54-3.13-21.22,1.15-28.42,9C678.06,150.92,688.85,161.77,695.5,154.46Z"/><path class="cls-2" d="M1057.94,4.13a31.64,31.64,0,0,0,1-4.13h-15.7V.07C1040.3,9.51,1055.08,13.55,1057.94,4.13Z"/><path class="cls-2" d="M1024.89,79.53c3.91-3.15,9.35-5,14.24-3.22,4.6,1.7,8.39,5.35,12.56,7.86,9.48,5.68,20.86,6.21,30.45.36,10.39-6.33,13.11-17.24,14.29-28.6,1.08-10.34,4-19.45,15.14-22.28,9.54-2.44,5.5-17.19-4.07-14.77a33.94,33.94,0,0,0-23.62,21.3c-3.36,9.4,0,25-9.47,31.13-9.78,6.37-17.73-3.16-25.94-7.46-11.9-6.24-24.3-3.26-34.41,4.86-3.25,2.6-2.67,8.09,0,10.82C1017.21,82.75,1021.68,82.11,1024.89,79.53Z"/><path class="cls-2" d="M777.94,25c9.07,4.45,16.65,9,15.59,20.35-.92,9.79,14.39,9.73,15.31,0A31,31,0,0,0,796,17.54c-6.49-4.7-19.43-6.93-21.4-15.85A12,12,0,0,1,774.36,0H759.14a27.67,27.67,0,0,0,.44,4.39C761.41,14.5,769.2,20.75,777.94,25Z"/><path class="cls-2" d="M86.12,328.34c10.06,6.22,21,4,31.44.12,4.91-1.84,10.07-4,15.44-3.48s9.51,3.35,12.88,7.25c6.45,7.49,17.23-3.38,10.83-10.81a34.27,34.27,0,0,0-31.84-11.2c-9.25,1.6-20.5,10.25-29.86,5.58-11.43-5.73-6-18.41-5.81-28.28.21-12.37-7.55-22.71-18.55-27.77-3.78-1.74-8.2-1-10.47,2.74-2,3.29-1,8.75,2.75,10.47,4.44,2.06,8.84,5,10.42,9.92,1.72,5.37-.4,11.64-.91,17.06C71.36,311.44,76.17,322.2,86.12,328.34Z"/><path class="cls-2" d="M5.66,173.4c5.56-.81,10.55-3.14,15.86-4.86,4.15-1.36,8.4-2.26,12.26.32,8.87,5.93,3.08,17.08,3.64,25.66.67,10.38,7.45,18.84,16.74,23.13,3.78,1.74,8.21,1,10.47-2.74,2-3.3,1-8.75-2.75-10.47-3.56-1.65-7.15-3.9-8.62-7.75-1.63-4.28,0-9.58.52-13.95,1.24-10.48-2.34-20.14-11.12-26.31s-18.84-5-28.34-1.53c-5,1.85-9.82,3.42-14.32,3.18v15.61A28.36,28.36,0,0,0,5.66,173.4Z"/><path class="cls-2" d="M526.37,176.71c3.6-1,6.93-5.54,5.34-9.41-4.18-10.2-8.09-21-8.18-32.18s4.92-19.29,11.88-27.61S548.3,91,551.14,80.5a58.44,58.44,0,0,0-.81-33.07c-3-9.34-17.8-5.35-14.77,4.06a43.34,43.34,0,0,1-.94,30.21c-4.08,9.74-12.33,16.78-18.19,25.39-13.39,19.68-7.86,43.83.52,64.28C518.51,175.18,522.05,177.93,526.37,176.71Z"/><path class="cls-2" d="M540.82,1.69,539.24,0H519.61A106.07,106.07,0,0,0,530,12.5C536.8,19.64,547.61,8.82,540.82,1.69Z"/><path class="cls-2" d="M529.07,1376.92c5.34-16.21,3-32.27-7.79-45.64-2.63-3.25-8.09-2.68-10.82,0-3.22,3.12-2.6,7.62,0,10.81a29.58,29.58,0,0,1,6.29,20.59c-.62,8.19-5,15.61-6.08,23.73-1.59,11.49,2.62,21.81,8.94,30.91h19.63c-4.88-5.23-9.6-11-12.1-17.74C524.2,1391.61,526.51,1384.66,529.07,1376.92Z"/><path class="cls-2" d="M1393.29,26.92c-8.71,3.45-17.2,13.13-27.12,12.07s-16.12-11.58-12-20.69c1.72-3.78,1-8.18-2.75-10.46-3.27-2-8.76-1-10.47,2.73-4.9,10.74-4.3,23.1,3.21,32.55a30.46,30.46,0,0,0,29.63,10.59c9.89-2,16.68-10.09,26-13,10.56-3.24,15.58,8.91,15.89,17.38.41,11.26-4,23,1.57,33.48V29.43A25.35,25.35,0,0,0,1393.29,26.92Z"/><path class="cls-2" d="M235.77,56.27c7.35,1.94,14.84,4.26,21.09,8.74,6.76,4.84,8.95,11.44,10.76,19.25,4,17.18,13.64,30.55,30.68,36.58,9.32,3.27,13.32-11.5,4.07-14.76A29.6,29.6,0,0,1,286,91.69c-4-7.78-4.1-17-7.91-24.94-7.06-14.7-23.4-21.32-38.22-25.25C230.31,39,226.25,53.74,235.77,56.27Z"/><path class="cls-2" d="M806.21,492.88c-2.48-16.25-16-27.29-29.08-35.58-8.35-5.28-16,8-7.73,13.22,6.12,3.87,12.3,8.16,16.8,13.92,5.63,7.23,5.43,14.81,4.77,23.56-1.31,17.29,4.64,32.37,18.66,42.9,3.32,2.51,8.52.51,10.46-2.74,2.34-3.9.55-8-2.74-10.47a29.64,29.64,0,0,1-10.82-17.34C804.58,511.34,807.61,502,806.21,492.88Z"/><path class="cls-2" d="M1272.15,1407.4c5.24-1.19,10.55-1.86,15.68-3.58,10.55-3.54,20.05-10.24,24-21.07,3.51-9.73.45-19.34-6.3-26.75-5.9-6.49-16.46-11.3-17.91-20.76-1.69-11,7.82-18.08,18-16.78,4.11.52,7.65-3.89,7.65-7.66,0-4.57-3.53-7.13-7.65-7.66-24.28-3.09-41.94,24.54-29.1,45.37,5,8.18,14.16,12.26,19.57,19.93,6.53,9.28-4.17,17.89-12.27,20.63-10.53,3.54-22.78,2.89-31.11,11.38a24.66,24.66,0,0,0-6.93,16.87h15.19a9.54,9.54,0,0,1,1.07-3.91C1264,1409.47,1268.12,1408.3,1272.15,1407.4Z"/><path class="cls-2" d="M1154.92,1209.63c10.32-5,15.35-16.09,13.56-27.19s-10.19-23.1-5.82-34.56c1.4-3.68,4.08-7,8.2-7.4,6-.65,12.77,1.4,18.68,2.34,11.48,1.81,24.52,3.8,34.13-4.43s9-22.09,5.23-33.11c-3.19-9.26-18-5.29-14.76,4.07,2.31,6.69,4.69,17.33-4.63,19.43s-20.31-1.52-29.51-2.85c-10.73-1.57-20.57,0-27.46,9-6.46,8.52-7.16,19.14-5.15,29.33,1.09,5.45,3.17,10.6,4.82,15.89,1.44,4.65,2.56,9.39-1,13.38-3.07,3.48-7.22,3.56-11.51,2.7-6-1.21-11.62-3.43-17.69-4.31-10.58-1.54-21.54,0-29.83,7.21-7.61,6.64-10,16.43-7.67,26.08,2.24,9.17,10.41,18.92,6.77,28.68s-14.81,11.92-23,6.42-15.86,7.73-7.73,13.22c19.37,13,46-.5,46.93-23.84.41-11.12-7.22-19.52-8.61-30.07-1.46-11.07,11.74-13.84,20-12.77C1131.17,1208.45,1142.77,1215.57,1154.92,1209.63Z"/><path class="cls-2" d="M690.79,1401.58c-7.63-2.17-21.67-2.66-21.29-13.55.16-4.42,3.6-7.53,6.65-10.32,4-3.64,8.06-7.1,11.48-11.32,6.76-8.34,10.82-18.37,8.79-29.19-1.88-10.09-9.57-17-19.15-19.79-8.82-2.56-20.86-1.22-26.8-9.54-6.09-8.52-1.44-18.72,7.45-22.62,3.82-1.68,4.62-7.19,2.75-10.47-2.24-3.93-6.71-4.39-10.48-2.75-21.84,9.58-23.53,41-3.11,53.12,8.74,5.22,18.95,3.92,28.06,7.63,10,4.06,6.71,16.08,1.67,22.8-6.76,9-18.1,14.25-21.58,25.63a25.28,25.28,0,0,0,12,29.18c7,3.78,15.49,4.39,23.06,6.93h25.29C709.89,1408.89,700.42,1404.31,690.79,1401.58Z"/><path class="cls-2" d="M219.34,1411.53c-13.05-8.92-31.45-7.23-42.19,4.58-.36.4-.7.81-1,1.21h46.66A7.54,7.54,0,0,0,219.34,1411.53Z"/><path class="cls-2" d="M29,1300.62c-2.54,9.53,12.21,13.58,14.75,4.07,3.68-13.79-.36-29.33-11.51-38.62-9.41-7.82-21-10.13-32.28-7.87v15.6a25.11,25.11,0,0,1,8.16-1.39C22.91,1272.58,32.75,1286.69,29,1300.62Z"/><path class="cls-2" d="M1178.54,1406.93c-7.55-1.6-16.35-.23-23.44-3.64-7.67-3.67-4.07-12.8-2-19,2.78-8.16,5-16.56,2.09-25.07-5.8-16.71-25.1-23.2-40.26-14.72-8.6,4.82-.89,18,7.72,13.21,5.11-2.86,11.55-2.43,15.55,2.14,4.22,4.83,3.34,10.5,1.54,16.2-4,12.78-8.81,27.77,3.61,37.73a26,26,0,0,0,5.81,3.5h47.17A33.2,33.2,0,0,0,1178.54,1406.93Z"/><path class="cls-2" d="M996.57,1412.62c-6.4-11.08-18.75-18.6-31.74-17.86-14.14.81-25.49,9.7-31,22.46l0,.1h17.48a19.16,19.16,0,0,1,1.41-1.58c8.45-8.38,21.43-6.92,28.6,1.58h16.36A7.31,7.31,0,0,0,996.57,1412.62Z"/><path class="cls-2" d="M325.58,1399.88a30.4,30.4,0,0,0-11.74-16.77c-5.44-3.92-13.48-5.5-17.81-10.79-4.48-5.49,2.73-11.67,6.12-15.71,4.56-5.42,8.33-11.24,8.68-18.53.73-15-12.49-27.6-27.46-25.78-4.1.49-7.65,3.16-7.65,7.65,0,3.75,3.52,8.16,7.65,7.65,4.59-.55,9.38.65,11.41,5.28,2.13,4.87-.37,9.22-3.45,12.92-7.67,9.18-16.36,19.75-9.83,32.24,2.56,4.88,7.05,8.6,11.77,11.29s11,4.46,14.69,8.9c5.18,6.24,3.88,14-1,19.09h17.83A29,29,0,0,0,325.58,1399.88Z"/><path class="cls-2" d="M76,1382.2a30,30,0,0,0-20.29.09c-6.1,2.25-13.13,8.61-19.9,8-6-.54-6.8-9.43-7.9-13.94-1.76-7.24-4.55-13.93-10.65-18.51A24.17,24.17,0,0,0,0,1353.09v15.35a8.75,8.75,0,0,1,4.92,0c4.95,1.42,6.67,5.79,7.87,10.37,2.77,10.69,5.67,22.78,17.88,26.1,6,1.62,12.24.22,17.81-2.18,5-2.15,9.72-5.91,15.14-6.8a14.47,14.47,0,0,1,16.5,16.84,7.92,7.92,0,0,0,.45,4.55H94.78c0-.15.08-.31.11-.46C97.65,1402.12,90.48,1387.44,76,1382.2Z"/><path class="cls-2" d="M1397.85,1366.08c-4.75,8.65,8.46,16.37,13.22,7.72a10.81,10.81,0,0,1,6.25-5.36v-15.35A25.31,25.31,0,0,0,1397.85,1366.08Z"/><path class="cls-2" d="M94.78,0H80.57C83.08,6,93,7.45,94.78,0Z"/><path class="cls-2" d="M20.59,1191.24c5.55-.84,14.8-5.52,20.17-2.22,4.8,2.94,3.15,11.85,3.21,16.44.11,7.23,1.59,14.21,6.46,19.78,9.76,11.12,27.1,10.94,37,.18,6.67-7.24-4.12-18.08-10.82-10.84-7.3,7.93-16.87,2.12-17.33-7.47-.53-11.08.88-23.35-9.61-30.52-4.59-3.14-10.36-4.07-15.83-3.6-6.1.54-11.91,3.17-18,3.46-10.48.47-18.32-10.43-13.9-20.2,1.59-3.52,1.14-7.54-2-10v41.33A30.79,30.79,0,0,0,20.59,1191.24Z"/><path class="cls-2" d="M1051,1390.94c-5.27-5.71-16.69-10.11-17.62-18.71-1.13-10.3,9.83-12.32,16.81-16.2,10.19-5.65,15.13-16.65,13.7-28.09-.51-4.11-3.15-7.67-7.65-7.67-3.74,0-8.17,3.53-7.66,7.67.55,4.43.48,9.38-3,12.73s-8.49,4.44-12.52,6.51c-9.07,4.63-15,13.41-15.08,23.73s6,17.8,13.79,23.79,14.6,12,11.4,22.62h15.7A31.28,31.28,0,0,0,1051,1390.94Z"/><path class="cls-2" d="M926.74,1354.33c-10.46-4.8-22.37-4.56-32,2.29-6.48,4.65-13,16-22,14.86-9.92-1.25-10.1-12.56-13.2-19.87-4.6-10.85-15.06-16.26-26.52-16.41-9.85-.12-9.86,15.18,0,15.31,4.18.06,8.63,1.1,11.22,4.68,2.73,3.78,3.18,9.09,4.78,13.4,3.38,9.12,10.56,16.1,20.37,17.77,10,1.7,18.32-2.44,25.44-9.16,6.8-6.41,13.87-14.38,24.19-9.65,3.78,1.74,8.2,1,10.47-2.75C931.45,1361.53,930.49,1356.05,926.74,1354.33Z"/><path class="cls-2" d="M585.59,1309.94c-10.46-2.62-21.73-6.15-23.14-18.71-.45-4.12-3.18-7.66-7.65-7.66-3.78,0-8.12,3.53-7.66,7.66,1.39,12.41,8.23,23.62,19.86,28.93,5.64,2.56,11.61,3.66,17.54,5.32,5.1,1.43,10.09,3.46,12.47,8.56,4.87,10.5-4.13,17.19-10,24.55-9,11.14-9.19,25-1.9,37.18,5.06,8.45,18.3.76,13.23-7.71-2.91-4.86-4.69-10.72-2-16.08,2.23-4.53,6.44-7.88,9.6-11.74,7.25-8.86,10.08-20,5.7-30.88C607,1317.93,597,1312.78,585.59,1309.94Z"/><path class="cls-2" d="M472.51,1347.5c-13.74-3-28.24,1.2-37.39,12.15-6.77,8.11-11.62,23.23-23.66,24.52-14,1.5-17.26-12.28-23.81-21.4-8.53-11.87-22.23-15.57-36.18-12.49-9.62,2.12-5.55,16.89,4.07,14.75,5.26-1.15,11.3-.94,15.8,2.4,4.72,3.51,6.93,9.66,9.83,14.59,6.42,10.89,17.18,18.44,30.29,17.46,13.64-1,22-9.88,29-20.79,6.54-10.26,14.51-19.41,28-16.43C478,1364.39,482.14,1349.62,472.51,1347.5Z"/><path class="cls-2" d="M788.91,1399.93c8.55-7.63,10.4-19.46,6.82-30-3.14-9.27-17.93-5.29-14.76,4.09,1.43,4.19,2.16,9.08-.67,12.91-2.57,3.44-6.93,5.62-10.26,8.22-7.14,5.61-11.13,13.44-10.9,22.2h15.22C773.68,1408.7,783.27,1405,788.91,1399.93Z"/><path class="cls-2" d="M152.52,1375.65c-7.9-4.79-15.74-10.1-21.63-17.35-6.58-8.12-7.46-16.88-6.88-27,.62-10.59.34-20.48-3.86-30.34a54.4,54.4,0,0,0-18.83-23.06c-3.39-2.43-8.5-.57-10.48,2.75-2.29,3.83-.59,8.08,2.74,10.47a38.16,38.16,0,0,1,14.67,22.34c2.49,10.74-.81,21.91.83,32.79,3,19.7,19.71,32.93,35.71,42.62C153.24,1394,160.94,1380.75,152.52,1375.65Z"/><path class="cls-2" d="M1363.9,1303.82c-2.93-9.36-17.71-5.37-14.77,4.07,1.92,6.15,2.91,12.68,1.85,19.1-1,6.26-4.59,11.61-6.22,17.67-3.55,13.16.64,27.2,5.27,39.54,3.42,9.13,18.22,5.19,14.76-4.08-4.61-12.3-8.49-24.61-3.11-37.25S1368.08,1317.24,1363.9,1303.82Z"/><path class="cls-2" d="M132.83,257.79c-.69-8,1.12-15.82,6.19-22.15s12.72-9.91,18.1-15.93c11.81-13.17,11.06-31.26,8.28-47.62-1.64-9.7-16.4-5.59-14.76,4.06,1.24,7.32,2.17,15.23.47,22.55-1.85,8-6.79,12.54-13.07,17.4-13.32,10.25-22,24.31-20.51,41.69C118.38,267.52,133.7,267.61,132.83,257.79Z"/><path class="cls-2" d="M142.58,627c16.45,5.81,33.11-2.13,46.57-11.32,8.09-5.52.44-18.77-7.72-13.22-6.86,4.69-14.34,9.45-22.66,10.89-7.74,1.33-13.85-1.77-20.49-5.24-15.08-7.85-31.45-9.16-46.59-.55-8.56,4.87-.86,18.11,7.73,13.22a29.55,29.55,0,0,1,22.51-3.11C129.25,619.68,135.43,624.49,142.58,627Z"/><path class="cls-2" d="M49.93,353.3c1.44,8.38,2.5,17.39.8,25.81-1.87,9.28-7,15.16-14.36,20.85-7.57,5.84-14.58,11.69-19.13,20.32a51.17,51.17,0,0,0-5.82,28.43c.87,9.73,16.19,9.83,15.3,0-.83-9.26,1.29-18.64,7.09-26.08,6-7.74,15.29-12,21.73-19.31,13.24-15,12.32-35.59,9.16-54.09C63,339.54,48.29,343.64,49.93,353.3Z"/><path class="cls-2" d="M815.65,98.75c9,.32,18.27,1.14,26.76,4.5,9.31,3.68,14.37,10.54,18.63,19.29,4.5,9.24,9.21,17.8,17.39,24.33a54.65,54.65,0,0,0,28.47,11.52c4.11.47,7.65-3.85,7.65-7.66,0-4.51-3.53-7.17-7.65-7.65a37.62,37.62,0,0,1-23.75-12.78c-6.8-7.83-9.25-18.48-15.53-26.71-12.2-16-33-19.47-52-20.15C805.81,83.09,805.81,98.4,815.65,98.75Z"/><path class="cls-2" d="M256.87,615.12a30.56,30.56,0,0,0-18.36,7.25c-12.86,10.82-12.83,29.14-2.9,41.8,2.57,3.28,8.12,2.64,10.82,0,3.25-3.17,2.54-7.59,0-10.82a14.47,14.47,0,0,1-.21-17.07c4.26-5.66,10.78-6.41,17.38-5.5,14.33,2,31.19,6.08,40.61-8.6,3.86-6,4.91-13.55,4.66-20.58-.27-7.44-2.24-15.62.73-22.78,5.37-13,20.78-16,31.76-8.37,8.13,5.61,15.79-7.65,7.73-13.21a36.31,36.31,0,0,0-38.1-1.85c-12.57,7.14-18.73,20.72-18.18,34.83.26,6.78,2,14.13-.16,20.76-2,6.34-7.67,7.31-13.66,6.89C271.56,617.35,264.38,614.72,256.87,615.12Z"/><path class="cls-2" d="M107,811.13c6.07,4.1,15,5.91,19.54,12,4.83,6.38-3.1,13.53-7,18.14-5,5.92-9.3,12.28-9.84,20.26-1.08,16.47,13.48,30.58,30,28.45,4.1-.53,7.66-3.13,7.66-7.65,0-3.73-3.53-8.19-7.66-7.65-5.39.69-10.74-.79-13.41-5.92-2.78-5.35-.73-10.62,2.73-15,8.27-10.57,19.54-22.06,11.9-36.44-2.82-5.34-7.74-9.38-12.91-12.32-5.46-3.09-12.26-5-16.49-9.88-8.21-9.46-3.8-22.54,6.89-27.5,8.92-4.17,1.15-17.35-7.73-13.22-14.51,6.75-22.35,24-17.16,39.32A34,34,0,0,0,107,811.13Z"/><path class="cls-2" d="M965.35,737.24c11.37,2.52,22.25,9.36,34,4.63A25.14,25.14,0,0,0,1015.06,716c-1.17-11.34-9-24-4.1-35.39s17.56-5.75,26.69-3.8c11.15,2.39,24.1,5.26,34.14-2,10.83-7.8,11-22,7.61-33.7-2.69-9.46-17.47-5.44-14.76,4.07,2,7,3.36,17.44-6.18,18.84s-20.14-2.88-29.31-4.68c-10.78-2.1-20.9-.74-28,8.31-7,8.81-7.72,19.84-5.81,30.57,1.42,8,8.93,21.16,1.26,27.79-3.62,3.13-7.92,2.42-12.16,1.16-5.32-1.57-10.38-3.75-15.84-4.87-10.06-2.06-20.78-1.53-29.39,4.61S927,742.78,928.81,753.13c1.62,9.22,9.34,19.58,5.37,29-4.2,10-15.74,11.28-23.77,5.2-3.32-2.51-8.53-.51-10.48,2.75-2.33,3.89-.53,8,2.76,10.46,19.1,14.47,46.34.73,47.85-22.58.69-10.72-6.44-19.49-7-29.79C942.92,736.81,957.2,735.41,965.35,737.24Z"/><path class="cls-2" d="M1205.45,906.44c-8.69-6.16-19.32-5-28.65-9.18-10-4.46-6.33-16.41-.84-23,7.16-8.65,18.54-13.72,22.29-25a25.24,25.24,0,0,0-11.38-29.44c-9.69-5.5-22-5.07-31-12.11-3.39-2.68-6.62-7.28-6-11.83.74-5.22,6.66-9.73,10-13.31,8.81-9.44,20.55-20.25,18.76-34.47-1.61-12.83-13.43-19.86-24.88-22.94-9.53-2.54-13.59,12.21-4.07,14.77,7.52,2,16.93,6.41,12.63,15.66-4.42,9.5-14.21,16.45-20.8,24.37-7.41,8.9-9.11,19.72-3.44,30.09,5.09,9.26,14.64,14.43,24.33,17.65,7.58,2.54,21,3.06,21.69,13.38.28,4.49-2.87,7.61-6,10.39-4,3.58-8.32,6.76-12,10.74-7.13,7.81-12.08,17.66-10.81,28.46,1.21,10.42,7.92,18,17.63,21.5,8.55,3.12,20.76,2,26.86,9.83,5.81,7.47,3.08,19.08-5.91,22.67-3.82,1.53-6.55,5.11-5.34,9.41,1,3.64,5.53,6.92,9.41,5.35,10.8-4.33,18.79-13.36,20.13-25.19A30.48,30.48,0,0,0,1205.45,906.44Z"/><path class="cls-2" d="M725.82,616.51c2.59,3.27,8.11,2.66,10.82,0,3.24-3.16,2.57-7.6,0-10.82-14.57-18.31-44.19-12.61-51.73,9.24-3.66,10.6,1.42,21.24-.9,31.74-2.42,10.91-16.36,8.63-23.69,5-10.81-5.37-19.72-14.92-32.83-12.8-11.42,1.85-19.44,11.13-20.82,22.39-1.27,10.49,2.08,22.33-3.32,32-1.78,3.2-5,6.46-8.83,6.89-5.75.61-12.6-4.51-17.52-6.94-11.16-5.52-24.43-12.72-36.89-6.67C528.89,692,525.69,705,526,716.52c.29,9.83,15.6,9.88,15.31,0-.21-7,.76-17.57,10.08-16.92,10.25.71,20.25,8.38,29.36,12.49,10.15,4.61,20.45,4.49,29.18-3,8.1-7,11-17.33,11.71-27.64.5-7.86-3.3-21.73,5.16-26.39,8.62-4.76,18.58,6.21,25.77,9.84,9.42,4.75,20.26,7.15,30.41,3.23s15.85-12.5,16.62-23.14c.69-9.62-4.4-21.57,2.42-29.84C708.7,607.06,719.78,608.93,725.82,616.51Z"/><path class="cls-2" d="M451.94,539.12c-.16,5.21,1.35,10.26,3.29,15,2,5,5.18,10.13,5.77,15.53,1.19,10.72-11.79,13.41-19.83,12.54-12.19-1.33-23.86-8.38-36-2.33C394.94,585,390,596.14,391.9,607.23s10.49,22.92,6.34,34.46c-1.33,3.68-3.93,7.06-8,7.62-5.95.8-12.83-1.23-18.71-2.07-11.49-1.66-24.56-3.52-34.09,4.78s-8.84,22.2-4.89,33.17c3.31,9.19,18.11,5.23,14.75-4.08-2.39-6.65-5-17.23,4.24-19.56s20.42,1.15,29.55,2.41c10.75,1.47,20.57-.19,27.38-9.31,6.38-8.55,7-19.23,4.84-29.38-1.16-5.44-3.3-10.55-5-15.83-1.5-4.61-2.72-9.36.67-13.41,3-3.56,7.14-3.75,11.44-2.95,6,1.1,11.68,3.23,17.75,4.08,10.57,1.46,21.56-.21,29.75-7.52,7.53-6.71,9.9-16.54,7.42-26.15-2.34-9.11-10.65-18.83-7.2-28.58s14.55-12.3,22.8-6.89,15.95-7.84,7.74-13.22C479.07,502,452.64,515.74,451.94,539.12Z"/><path class="cls-2" d="M870.52,514.42c-11.1-6.54-3.24-19,.14-28.13,4.13-11.15,8.6-24.29,1.33-35.19-7.12-10.66-20.58-11.55-32.1-10-4.08.54-6.35,5.81-5.34,9.41,1.23,4.41,5.28,5.9,9.41,5.35,6.87-.94,16.38-.08,16.64,8.62.31,10-6,20.59-9.15,29.78-3.54,10.16-2.87,20.21,4.81,28.24,7.29,7.64,18,10.16,28.22,9.86,8.33-.24,23.2-6.08,28.7,2.79,2.28,3.68,1.38,7.54-.25,11.31-2.34,5.41-5.47,10.41-7.56,16-3.72,9.89-4.3,21.07.9,30.54,4.86,8.85,14.21,13.57,24.18,13,9.68-.51,21.5-6.69,30.34-.44,7.9,5.59,7.94,16.4,1.3,22.93-7,6.92,3.8,17.75,10.83,10.82,16.35-16.08,9.66-45.32-13.3-50.91-5.44-1.31-10.86-.88-16.32,0-5.17.88-10.58,2.8-15.87,2.28-11.11-1.11-10.55-14.75-7.9-22.54,3.84-11.31,12.82-21,9.73-33.77-2.78-11.45-13-18.81-24.52-19.17C893.67,514.86,880.9,520.53,870.52,514.42Z"/><path class="cls-2" d="M539.66,1073.59a30.48,30.48,0,0,0,3.41-32.08c-4.31-8.79-13.1-13.37-18.54-21.15-6.7-9.59,3.71-18,12.37-20.56,10.85-3.22,23.57-1.78,32.32-10.22a25.36,25.36,0,0,0,4.49-30.18c-5.55-10.3-17.71-16.74-20.34-28.74-.82-3.79-.54-8.57,2.42-11.44,3.75-3.65,11.33-4.41,16.16-5.7,11.21-3,24.7-5.7,31.49-16.19,7.93-12.26,1.12-26.15-7.71-35.65-6.71-7.23-17.52,3.61-10.82,10.82,3.08,3.31,6.63,7.61,6.81,12.37.16,4.34-3.32,6.83-6.81,8.59-8.86,4.46-19.33,5.35-28.67,8.52-10.12,3.44-17,10.74-18.28,21.56-1.34,11.3,3.93,21.22,10.89,29.71,4.95,6,16.08,13.64,11.69,22.64-1.86,3.82-5.66,5-9.56,5.85-5.51,1.13-11.12,1.42-16.58,2.86-10.3,2.72-20,8.59-24.74,18.49-4.49,9.47-2.77,19.5,3.6,27.59,5.47,7,16.09,12.5,17.5,21.9a14.85,14.85,0,0,1-17.1,16.77c-9.63-1.73-13.76,13-4.07,14.76C520.81,1086.13,532.4,1082.69,539.66,1073.59Z"/><path class="cls-2" d="M748.06,1072.86c-.12,7.25-1.91,17.37-11.36,16-5.05-.72-9.72-3.61-14.09-6-5.31-2.93-10.55-6.17-16.06-8.72-10-4.62-20.37-3.58-28.72,3.77-8.1,7.13-10.91,17.65-11.78,28-.67,7.86,2.16,21-7.26,24.55-8.37,3.12-17.42-7.55-24-11.36-8.84-5.1-19.37-8.06-29.45-5.1a25.45,25.45,0,0,0-18.41,21c-1.45,9.63,3.15,22.34-3.36,30.58a14.79,14.79,0,0,1-23.43-.37c-2.45-3.37-6.63-4.92-10.47-2.73-3.33,1.88-5.16,7.13-2.74,10.46,6.34,8.77,16.34,14.41,27.41,13.53a30.42,30.42,0,0,0,25-17.61,37,37,0,0,0,2.85-16c-.07-5.48-1.28-11.41.06-16.79,2.7-10.78,16-8.56,23.42-4.6,9.77,5.26,17.81,14.77,29.71,14.82A25.28,25.28,0,0,0,679.62,1128c3.09-11.11-.8-23.67,4.88-34.2,1.83-3.37,5.27-7,9.34-7.39,5.41-.52,11.72,4.53,16.2,7,11.35,6.28,24.83,14.77,38.09,8.92,11.46-5,15-17.95,15.24-29.48C763.53,1063,748.22,1063,748.06,1072.86Z"/><path class="cls-2" d="M407.16,925.68c5.78,7.52,2.95,19.06-6.05,22.64-3.83,1.51-6.54,5.13-5.35,9.41,1,3.65,5.55,6.87,9.43,5.35C416,958.8,424,949.74,425.38,937.93a30.46,30.46,0,0,0-12.64-27.81c-8.67-6.19-19.31-5.07-28.61-9.29-10-4.52-6.21-16.46-.7-23.05,7.21-8.6,18.59-13.65,22.38-24.9a25.28,25.28,0,0,0-11.29-29.49c-9.67-5.53-22-5.14-30.92-12.25-3.39-2.69-6.59-7.31-5.9-11.86.8-5.18,6.73-9.67,10.09-13.23,8.84-9.4,20.63-20.19,18.87-34.42-1.58-12.82-13.37-19.88-24.81-23-9.52-2.58-13.58,12.17-4.07,14.77,7.53,2.06,16.86,6.51,12.52,15.74-4.48,9.49-14.29,16.35-20.92,24.29-7.41,8.85-9.17,19.7-3.51,30.06,5.07,9.29,14.57,14.46,24.26,17.74,7.47,2.53,21.17,3.17,21.6,13.5.19,4.51-2.88,7.53-6,10.34-4,3.56-8.34,6.73-12,10.69-7.05,7.66-12.11,17.45-10.95,28.13s7.76,18.24,17.62,21.85C388.92,918.87,401.11,917.8,407.16,925.68Z"/><path class="cls-2" d="M114.4,1060c10.08-5.59,14.64-17.12,12.15-28.19-2.41-10.72-10.8-20.78-8.86-32.32.61-3.6,2.59-7.84,6.15-9.37,5.42-2.34,13.82-.1,19.5.38,11.43,1,24.82,2.44,34.1-5.92,10.5-9.44,8.05-24,3.11-35.58-1.63-3.82-7.21-4.6-10.47-2.75-4,2.26-4.36,6.7-2.75,10.47,3.3,7.75,4,17.13-6,18.94s-20.75-1.12-30.73-1.51c-10.42-.39-19.9,3.88-24.78,13.43S101.62,1008,105,1018c2.55,7.5,11.13,19.19,4.48,26.57-3.19,3.56-7.7,3.39-12.09,2.68-6.06-1-11.93-2.62-18.1-3-10.32-.6-21.18,2.29-28.35,10.1a25.64,25.64,0,0,0-5,26.37c3,8.47,11.27,17.7,8.77,27.16-2.59,9.84-13.42,13.82-22.08,8.86s-16.28,8.3-7.72,13.22c20.38,11.7,47.53-3.44,45.51-27.77-.88-10.55-8.28-18.25-10.54-28.2-2.4-10.52,9.24-14.66,17.66-14.5C90,1059.74,102.45,1066.62,114.4,1060Z"/><path class="cls-2" d="M759.93,694.57c8.08,3.89,15.92,7.27,25.06,5.66,16.83-3,26.81-21.6,20.33-37.3-1.56-3.8-5.08-6.56-9.41-5.35-3.61,1-6.94,5.57-5.34,9.42,2.26,5.5,2,11.76-3,15.72-5.21,4.13-11.18,2.69-16.75.18-12.36-5.57-26.7-12.27-38.23-.94-4.67,4.59-7.2,11-8.62,17.27s-1.72,13.26-5.69,18.49c-7.56,10-21.31,8.69-28.9-.3-6.36-7.54-17.14,3.34-10.82,10.83,10.44,12.36,29.18,15.64,42.94,6.84a34.52,34.52,0,0,0,14.2-18.38c2.41-7.11,1.94-15.71,6.24-22.1C746.39,688,754.25,691.85,759.93,694.57Z"/><path class="cls-2" d="M490.68,800.87A29.56,29.56,0,0,0,472.12,754c-7-1.15-15.75,1.42-22.29-1.47-6.16-2.74-3.33-10.59-2.18-15.6,1.78-7.7,2.51-15.32-1.18-22.57-6.74-13.22-24-17.27-36.12-8.89-8,5.57-.4,18.85,7.72,13.21,3.81-2.62,8.59-3.5,12.42-.31,4.23,3.53,3.7,8.73,2.62,13.59-2.57,11.56-4.72,24.77,6.7,32.48,4.63,3.13,10.32,4.22,15.83,4.41s11.88-1.21,17.21,1.21c9.47,4.28,10.4,15.39,4.62,23-2.52,3.32-.5,8.52,2.74,10.45C484.11,805.94,488.21,804.14,490.68,800.87Z"/><path class="cls-2" d="M293.82,1042.39c10.74-.43,22.78-.34,29.14-10.75,2.76-4.5,3.43-10.1,2.86-15.28-.67-6.09-3.4-11.83-3.9-17.91-.83-10.32,9.74-18.88,19.67-14.69,3.83,1.62,8.15,1.13,10.47-2.74,1.91-3.18,1.05-8.88-2.75-10.47-14.19-6-30.84-2.23-38.79,11.78a31,31,0,0,0-3.33,20.84c.92,5.64,5.73,14.26,3,20-2.3,4.82-10.41,3.84-14.69,3.93-7.45.15-14.66,1.31-20.56,6.22-11.64,9.68-11.6,27.74-.29,37.66,7.38,6.47,18.25-4.32,10.83-10.82-3.37-3-5.32-7.17-3.41-11.56C284.17,1043.68,289,1042.6,293.82,1042.39Z"/><path class="cls-2" d="M639,984.89c7.79-2.51,15-6,19.61-13.12a27.28,27.28,0,0,0-11.45-39.27c-3.78-1.71-8.19-1-10.46,2.77-2,3.26-1,8.74,2.74,10.46,11.78,5.36,9.8,19-1.52,23.39-11.76,4.54-26.31,7.12-29.63,21.57-1.69,7.34.65,14.75,4.13,21.19,3,5.57,7.81,10.8,8.8,17.24,1.92,12.59-9.18,21.12-20.86,19.72-4.11-.51-7.65,3.86-7.65,7.65,0,4.54,3.53,7.16,7.65,7.65,16,1.92,31.75-8.88,35.38-24.66a34.63,34.63,0,0,0-3.21-23.77c-3.11-6.17-10.84-13.7-9.42-21.15C624.37,988.08,633.81,986.55,639,984.89Z"/><path class="cls-2" d="M268,835.85c13.39-4,23.23-16.69,21.83-31a30.55,30.55,0,0,0-9.77-19.79c-4.77-4.27-12.88-7.33-15.8-13.29-2.82-5.75,4.63-10.6,8.38-13.82,5.36-4.64,10.14-10,11.53-17.14,3.06-15.67-8.75-29.38-24.44-29.79-9.85-.25-9.85,15,0,15.29,4.65.13,8.89,3.11,9.61,7.92.78,5.23-2.79,8.73-6.38,11.91-8.46,7.48-17.74,16.39-13.87,28.89,1.65,5.33,5.36,9.72,9.64,13.16s10.1,6.12,13.37,10.82c5.83,8.31,1.14,19.27-8.17,22S258.52,838.68,268,835.85Z"/><path class="cls-2" d="M589.94,509.83c-6.73-13.22-24-17.27-36.12-8.88-8,5.58-.4,18.85,7.73,13.23,3.8-2.65,8.59-3.51,12.42-.33,4.22,3.52,3.69,8.74,2.61,13.58-2.57,11.57-4.71,24.78,6.7,32.5,4.64,3.13,10.33,4.2,15.83,4.4s11.89-1.2,17.21,1.22c9.47,4.27,10.41,15.37,4.63,23-2.51,3.33-.51,8.52,2.74,10.48,3.89,2.33,8,.53,10.47-2.75a29.56,29.56,0,0,0-18.56-46.83c-7-1.15-15.75,1.44-22.29-1.47-6.16-2.72-3.33-10.58-2.18-15.6C592.91,524.72,593.63,517.1,589.94,509.83Z"/><path class="cls-2" d="M927,396.55c-3.82-2.28-8.09-.59-10.47,2.75a36.78,36.78,0,0,0-2.37,38.55c7,12.87,20.77,19.2,35.06,18.87,6.72-.15,13.84-1.62,20.43.33,6.23,1.84,7.8,6.8,7.54,12.84-.33,7.49-3.13,14.69-3.27,22.23A30.54,30.54,0,0,0,980,511.2c9.79,13,28.68,15.93,41.76,6,3.32-2.52,5-6.57,2.74-10.47-1.85-3.25-7.17-5.24-10.46-2.75-5.22,4-12,5.56-17.86,1.79-6-3.87-7.54-10.44-6.69-17.2,1-7.83,3.61-15.34,2.9-23.34-.67-7.7-4-14.82-10.54-19.22-5.83-3.95-13.16-5.2-20.09-5.19-7.92,0-16.6,2.22-24.14-1.16-13.09-5.88-15.84-21.46-7.87-32.63C932.19,403.63,930.34,398.53,927,396.55Z"/><path class="cls-2" d="M677.57,881.63c-4-1.14-7.13-4.27-7.37-8.57-.27-4.69,2.75-7.85,6.56-10,9.8-5.59,21.78-9.72,23.3-22.68.7-6.05-1.47-12-4.84-17-3.18-4.69-7.82-8.47-10.39-13.54C680,800.19,687,789.31,697.55,789c9.83-.33,9.87-15.64,0-15.31-15.29.5-27.88,11.54-29.43,26.94A30,30,0,0,0,673.78,821c3.27,4.58,11.81,11.11,11.13,17.37-.63,5.92-10.17,8.45-14.55,10.78-6.22,3.3-11.39,8-13.88,14.76-5.14,13.83,3.11,28.53,17,32.53C683,899.13,687,884.37,677.57,881.63Z"/><path class="cls-2" d="M930.37,882.72c3.25,9.23,18,5.25,14.76-4.07-4.49-12.72-15.14-22.45-28.75-24.25-13.8-1.84-26.32,4.63-34.32,15.67-6.42,8.87-13.06,26.39-26.22,16.22-5.34-4.11-9.27-9.78-14.59-14a30.19,30.19,0,0,0-19.17-6.84A29.32,29.32,0,0,0,793.51,896c.37,9.81,15.69,9.87,15.31,0-.24-6.36,2.85-12.28,9.09-14.45,6.58-2.32,12.22.9,16.85,5.37,10.49,10.14,21.93,23.08,38.07,16.13,6.23-2.67,10.83-7.62,14.66-13.09,4.18-6,7.06-13.46,13.47-17.5A20,20,0,0,1,930.37,882.72Z"/><path class="cls-2" d="M924.25,671c4.62-16.84-3.91-34.49-20.39-40.62a34.53,34.53,0,0,0-24.12.34c-6.26,2.32-15.59,8.79-22.52,6-5.89-2.39-6.32-11.89-7.13-17.1-1.25-8.06-3.47-15.93-9.66-21.64-13-12.08-33-8.53-42.45,6-5.37,8.29,7.87,16,13.22,7.73,3-4.66,8.8-7.16,14.2-5.29,5.75,2,8,6.91,9.12,12.49,2.58,12.35,3.5,26.71,17.19,32,6.21,2.42,13.22,1.8,19.46-.22,6.69-2.17,13.06-6.64,20.21-7.07,12.74-.75,21.35,11.52,18.11,23.33C906.88,676.41,921.65,680.47,924.25,671Z"/><path class="cls-2" d="M1059.83,835.35c8.46,2.3,17.52,5.21,18.49,15.43.38,4.12,3.24,7.66,7.65,7.66,3.84,0,8-3.52,7.65-7.66-1-10.32-6.13-19.84-15.34-25.08-4.7-2.67-10-3.89-15.13-5.33-4.4-1.21-9.08-2.6-11.25-7-4.46-9,4.51-14.81,9.43-21,7.66-9.66,7.48-21.65,1.56-32.17-4.85-8.58-18.08-.87-13.22,7.73,2.28,4.05,3.45,8.67,1.11,13-2.12,3.87-6,6.72-8.79,10.14-6.38,7.83-8.45,17.84-4.54,27.36C1041.45,828.16,1050.11,832.7,1059.83,835.35Z"/><path class="cls-2" d="M753.73,558c-1.71-4.35-.34-9.77-.32-14.31,0-10.19-4.74-19.84-14-24.59-9.56-4.89-18.92-2.79-28.22,1.51-8.48,3.93-16.87,7.28-24.59-.19-7.08-6.86-17.92,3.94-10.82,10.82a31.52,31.52,0,0,0,29.74,8.19c7.95-2,17.74-10.95,26.17-7.11,10.11,4.6,5.16,17.54,6.52,26.11,1.7,10.74,10,18,19.81,21.51,9.28,3.35,13.27-11.44,4.06-14.75C758.57,563.93,755.12,561.53,753.73,558Z"/><path class="cls-2" d="M732.18,328.15c-6.45,5-14.46,8.76-22.8,7.11-7.78-1.53-14.06-7.65-20.36-12-13.18-9.21-29-11.54-43.47-3.49-15.91,8.89-18.87,25.39-21.17,41.95-1.07,7.75-2.57,15.57-7.59,21.85a31.69,31.69,0,0,1-18.48,11.08c-9.62,2.06-5.54,16.84,4.07,14.76a46.52,46.52,0,0,0,29.78-21.26c7.22-11.93,6.35-25.75,9.61-38.83,2.76-11.1,11.15-19.32,23-19.34,12.23-.06,20.79,11,30.89,16.35,14.55,7.7,31.42,4.94,44.22-4.94,3.3-2.53,5-6.55,2.75-10.47C740.81,327.65,735.45,325.62,732.18,328.15Z"/><path class="cls-2" d="M860.66,731.28c12.69-6.88,18.7-20.54,17-34.65-.51-4.11-3.16-7.67-7.65-7.67-3.75,0-8.17,3.53-7.66,7.67.74,5.94.36,12.49-3.74,17.26s-10.69,6.45-16.08,8.89c-12.12,5.5-20.45,16-20.79,29.65-.33,13.46,8.06,22.78,18,30.57,4.86,3.8,10.2,7.6,13.12,13.18a23.46,23.46,0,0,1,1.18,18.4c-3,9.4,11.75,13.41,14.77,4.07a38.7,38.7,0,0,0-9.33-39c-7.56-7.68-22-13.59-22.47-25.88C836.5,739.38,850.48,736.8,860.66,731.28Z"/><path class="cls-2" d="M509.14,625c10.05-7.24,18.76,2,27.58,6.36,12.61,6.23,25.73,3.06,36-6,7.42-6.5-3.44-17.29-10.82-10.82-3.92,3.43-9.11,5.83-14.4,4.65s-9.63-5.15-14.21-7.72c-10.09-5.65-22-6.18-31.9.3-10.68,7-13.31,18.32-14.08,30.34-.7,11-3.13,21.34-15,24.87-9.43,2.78-5.42,17.58,4.07,14.75A35.44,35.44,0,0,0,500.57,658C503.55,647.92,499.5,631.9,509.14,625Z"/><path class="cls-2" d="M587.78,791.23c15.49,3.61,29-3.59,38.22-15.88,2.49-3.34.51-8.52-2.74-10.47-3.89-2.33-8-.55-10.48,2.73-3.55,4.76-9,8.75-15,9.36-6.83.68-13.59-3.17-19.86-5.31-13.08-4.42-26.79-2.52-36.92,7.34-11.33,11-10.47,25.53-8.44,40,1,6.65,1.68,13.54-1,19.91a26,26,0,0,1-12.08,12.75c-8.69,4.64-1,17.85,7.73,13.22a40.86,40.86,0,0,0,21.5-33.66c.76-13.23-7.93-30.62,3.14-41.39S575.54,788.36,587.78,791.23Z"/><path class="cls-2" d="M735.24,911.37c-3.9-2.34-8-.53-10.47,2.75-8.3,11-9.5,25.69-3.92,38.09,4.41,9.79,16.06,20,12.7,31.62-4,13.68-18.44,11.54-29.63,13.39-14.07,2.31-23.71,13.45-26.67,27-2.09,9.61,12.66,13.72,14.76,4.09,1.2-5.56,3.64-11.12,8.73-14.11,5.65-3.32,13.08-2.52,19.37-3.31,13-1.62,23.39-9.17,27.79-21.75s-1.23-24-7.91-34.35c-3-4.71-6.4-9.58-7.21-15.25-.94-6.49,1.32-12.62,5.21-17.74C740.5,918.52,738.49,913.31,735.24,911.37Z"/><path class="cls-2" d="M1034.35,578.6c7.85-2.07,17.36-10.87,25.76-7.33,9.88,4.2,5.69,15.69,6.56,23.91,1.28,12.06,9.6,19.83,20.57,23.74,3.9,1.39,8.31-2.1,9.15-5.78,1-4.44-1.87-7.76-5.78-9.15-11-3.93-8.14-13.69-8.47-22.9a26.59,26.59,0,0,0-14.82-23.31c-9.48-4.59-18.77-2.15-27.8,2.15-8.49,4.05-16.8,7-24.51-.34-7.14-6.82-17.57,4.39-10.45,11.19A31.46,31.46,0,0,0,1034.35,578.6Z"/><path class="cls-2" d="M1235.46,706c-7.45-3.22-20.38-2.17-24.78-10.15-5.19-9.39,5.19-15.85,9.59-22.86,6.43-10.27,4.7-21.51-1.53-31.36-2.2-3.5-7.83-3.49-10.76-1.1-3.53,2.87-3.32,7.25-1.11,10.76,6.22,9.86-2,15.79-7.47,23.24a26.56,26.56,0,0,0-2.73,27.49c4.62,9.45,13.44,13.28,23.19,15.47,9.19,2.06,17.56,4.84,19.08,15.4,1.39,9.77,16.52,7.4,15.12-2.35A31.43,31.43,0,0,0,1235.46,706Z"/><path class="cls-2" d="M1101.05,377.25c6.75-7.28,9.52-17.42,6.19-27-3.4-9.78-11.43-14.74-20.71-18.15-8.77-3.23-17.07-6.83-17.22-17.6-.14-9.83-15.45-9.86-15.31,0a31.44,31.44,0,0,0,15,26.76c6.83,4.11,20,4.86,23.45,13.06,4,9.65-6,14.68-11.35,20.67-8.44,9.34-8.7,21.17-3.6,32.24,1.74,3.79,7.14,4.64,10.47,2.75,3.88-2.2,4.47-6.74,2.75-10.47-1.91-4.15-2.25-8.92.44-12.78C1093.77,383.05,1098,380.56,1101.05,377.25Z"/><path class="cls-2" d="M938.24,328.58c-.9,9.88,3.1,19.6,11.58,25.15,8.67,5.65,18,4.67,27.48,1.72,8.92-2.81,17.69-5,24.39,3.4,6.12,7.71,18.26-1.63,12.12-9.36a31.5,31.5,0,0,0-28.25-12c-7.92.93-18.81,8.38-26.54,4-9.1-5.17-4.27-15.26-3.64-23.3,1-12.56-6-22.08-16.85-27.73-3.69-1.94-8.48.67-10,4.22-1.73,4.12.58,8.07,4.22,10,4,2.11,7.23,5.68,7.46,10.38C940.46,319.55,938.65,324.1,938.24,328.58Z"/><path class="cls-2" d="M839.41,376.14c-14.13,2.43-23.8,13.63-27,27.22-2.28,9.58,12.48,13.66,14.76,4.07,1.33-5.58,3.94-11.14,9-14.19,5.62-3.38,12.8-2.52,19.07-3.08C869,389,880.47,382,885.54,368.77c5-13.06-.47-25-7.3-36.12-6.32-10.28-10.91-22.16-2.39-32.89,2.59-3.25,3.12-7.63,0-10.83-2.64-2.69-8.26-3.23-10.83,0-8.73,11-11.91,25.42-6.67,38.78,4.17,10.62,16.84,22.15,13.34,34.37C867.34,377.21,851.56,374.05,839.41,376.14Z"/><path class="cls-2" d="M782.2,749.73c-1.5-3.85-5.15-6.55-9.42-5.35-3.67,1-6.87,5.52-5.35,9.41,4,10.21,7.67,21,7.63,32.09,0,10.92-5,18.94-11.91,27-7.19,8.31-13.54,16.69-16.65,27.4a58.41,58.41,0,0,0,.33,33.09c2.87,9.38,17.64,5.38,14.76-4.08a43,43,0,0,1,1.8-30.75c4.51-9.59,12.89-16.51,18.81-25.15C795.4,794,790.1,770,782.2,749.73Z"/><path class="cls-2" d="M1158.25,222.57c9.08,9.89,23.6,14.41,36.59,10.49,13.46-4.05,22.79-15.32,25.48-28.92,2.08-10.48,1.84-29.23,17.49-25.48,7.34,1.76,13.79,6.07,21.16,7.77a31,31,0,0,0,20.58-2.08c15.38-7.28,20.16-25.52,13.17-40.32-4.2-8.91-17.41-1.14-13.22,7.72a14.34,14.34,0,0,1-3.55,16.91c-6,5-12.94,3.46-19.6.8-7-2.82-13.63-6.19-21.37-6.63a24,24,0,0,0-19.94,8.23c-4.48,5.26-6.71,12-7.85,18.7-1.18,7-1.38,15-5.73,20.92-8,11.06-23.5,10.74-32.38,1.06C1162.4,204.47,1151.59,215.31,1158.25,222.57Z"/><path class="cls-2" d="M1352.41,267.88c-2.41,10-5.4,19.95-11,28.66-6.1,9.52-14.67,13.76-25.36,16.51-11.27,2.9-21.6,6.13-30.74,13.61A58.37,58.37,0,0,0,1267,354c-3,9.39,11.73,13.43,14.77,4.06A42.52,42.52,0,0,1,1300,334.88c10.16-6.15,22.49-6.65,33.24-11.43,20.34-9.06,29-31.25,33.92-51.5C1369.49,262.37,1354.73,258.29,1352.41,267.88Z"/><path class="cls-2" d="M995.43,1197.67c-3.67,10.59,1.41,21.22-.91,31.73-2.42,10.91-16.36,8.64-23.69,5C960,1229,951.11,1219.45,938,1221.6c-11.41,1.83-19.44,11.13-20.81,22.38-1.28,10.48,2.07,22.32-3.33,32-1.77,3.2-5,6.47-8.83,6.89-5.74.62-12.6-4.5-17.51-6.93-11.17-5.54-24.44-12.72-36.9-6.68-11.21,5.44-14.43,18.46-14.09,30,.29,9.82,15.6,9.85,15.31,0-.21-7,.76-17.58,10.08-16.93,10.24.72,20.25,8.38,29.36,12.5,10.15,4.6,20.45,4.49,29.18-3,8.11-7,11.06-17.35,11.71-27.66.5-7.85-3.3-21.72,5.17-26.39s18.58,6.22,25.76,9.85c9.41,4.74,20.27,7.16,30.41,3.22s15.85-12.5,16.62-23.12c.68-9.64-4.4-21.58,2.43-29.85,6.65-8.08,17.73-6.21,23.77,1.39,2.6,3.24,8.11,2.65,10.83,0,3.22-3.17,2.55-7.61,0-10.84C1032.58,1170.11,1003,1175.81,995.43,1197.67Z"/><path class="cls-2" d="M810.71,1213c-3.58-4.15-8.71-7.32-11.41-12.18-5.6-10.06,1.65-20.18,12.11-21.64,4.09-.57,6.36-5.81,5.35-9.41-1.24-4.4-5.29-5.92-9.41-5.35a29.74,29.74,0,0,0-25.26,28.85,30.58,30.58,0,0,0,7.5,20.13c3.74,4.42,12.8,9.75,13.17,16.1.33,5.75-8.09,9.16-12,11.72-5.93,3.88-10.89,8.6-13.16,15.48-4.64,14.08,4.67,29.29,19.14,31.9,9.63,1.74,13.76-13,4.07-14.74-4.59-.84-8.63-3.58-9.1-8.59-.44-4.67,2.53-8,6.14-10.41,9.36-6.38,20.76-12.47,20.24-25.6C817.83,1223.11,814.67,1217.63,810.71,1213Z"/><path class="cls-2" d="M608.9,1208.86a30.73,30.73,0,0,0-16.53,12.08c-3.85,5.55-5.13,13.52-10.26,18.12-5.47,4.93-12.06-2.36-16.34-5.77-5.77-4.59-12.09-8.16-19.7-7.93-16,.47-25.74,15-23.49,30,.62,4.08,5.78,6.37,9.42,5.35,4.37-1.23,6-5.3,5.34-9.42a9.52,9.52,0,0,1,6.42-10.14c4.8-1.57,8.86,1.15,12.49,4,9.43,7.52,20.91,15.58,32.88,7.77,4.7-3.06,8.07-7.73,10.54-12.7,2.31-4.67,4-10.39,8.09-13.84,7.82-6.51,18.33-3,22.61,5.57,4.41,8.8,17.62,1.06,13.22-7.73C637.31,1211.72,622.47,1204.81,608.9,1208.86Z"/><path class="cls-2" d="M848.8,1131.42c13.57-5.13,22-16.92,24-31.07,1.54-10.83.59-29.64,16.7-26.54,7.7,1.48,14.62,5.54,22.38,6.82a31,31,0,0,0,20.63-3.4c14.61-8.26,18.82-26.64,11.05-41.07-4.67-8.67-17.89-.94-13.22,7.74a14.81,14.81,0,0,1-2,17.38c-5.1,5.34-11.91,5.17-18.51,3.14-7.67-2.36-14.81-5.89-23-6.26a24.74,24.74,0,0,0-19.88,8c-4.85,5.51-7,12.67-7.92,19.79-1,7.47-.59,15.71-4.71,22.32-7.35,11.77-23.38,13-33.08,3.48-7-6.91-17.87,3.91-10.82,10.82C820.41,1132.29,835.56,1136.43,848.8,1131.42Z"/><path class="cls-2" d="M1331.44,1055.23c8.81-12.12,8.22-27,2-40-2.89-6.05-7.22-12.08-7.62-19s5.14-9.92,10.92-11.68c13.61-4.12,28.08-5.37,35.18-19.69a30.31,30.31,0,0,0-12.73-40c-8.63-4.72-16.36,8.5-7.71,13.24,12.55,6.86,10,23.28-3,27.77-7.19,2.49-14.77,3.09-21.78,6.22s-12.77,8.36-15.11,15.82c-2.46,7.82-.42,16.11,2.79,23.36,2.91,6.59,7.74,13,8.56,20.26,1.62,14.26-11.41,25.92-25.36,23.08-9.62-2-13.73,12.78-4.07,14.75C1307.87,1072.23,1322.69,1067.27,1331.44,1055.23Z"/><path class="cls-2" d="M1356.84,1084.34a34,34,0,0,0,5.65,23.14c3.57,5.4,11.38,12.31,10,19.45-1.24,6.19-9.58,9-14.49,11.42-6.89,3.47-13,8.09-16.28,15.3-6.7,14.73,0,32.07,15.7,37.08,9.4,3,13.43-11.77,4.07-14.76a10.57,10.57,0,0,1-7.21-10.28c0-6,3.82-10,8.77-12.74,10.44-5.82,22.55-10.53,24.57-24,1-6.58-1-13.19-4.44-18.82-3.18-5.25-8.14-9.73-10.27-15.58-4-11,3.72-23.94,15.69-24.21,9.83-.23,9.88-15.54,0-15.31A32.9,32.9,0,0,0,1356.84,1084.34Z"/><path class="cls-2" d="M816,1064.51c3.21,2.66,7.67,3.08,10.83,0,2.74-2.69,3.17-8.19,0-10.81-5.94-4.93-11.89-10.24-15.8-17-4.29-7.42-3.51-14.22-1.86-22.3,3.43-16.85.66-33.15-12.08-45.55-7.06-6.88-17.89,3.93-10.82,10.82a29.93,29.93,0,0,1,9.31,19.41c.56,8.56-3.12,16.75-3.27,25.31C792,1041.19,803.87,1054.45,816,1064.51Z"/><path class="cls-2" d="M409.89,1137.06c-4.38,17.61,5.34,33.36,16,46.49,2.62,3.26,8.09,2.7,10.82,0,3.21-3.12,2.59-7.6,0-10.81-4.82-5.94-9.58-12.6-11.68-20-2.35-8.38.65-15.19,3.86-22.85,6.17-14.79,5.72-31.06-3.52-44.56-5.55-8-18.82-.41-13.23,7.74,4.3,6.25,6.57,13.56,5.61,21.19C416.73,1122.29,411.84,1129.23,409.89,1137.06Z"/><path class="cls-2" d="M750.38,1269.93c-4.8-8.6-18-.9-13.22,7.72a29.6,29.6,0,0,1,2.88,22.54c-2.06,7.3-6.94,13.45-9.51,20.57-5.92,16.42,1.9,33.13,11,46.68,5.46,8.14,18.72.49,13.22-7.74-4.61-6.87-9.33-14.41-10.67-22.75-1.24-7.76,2-13.83,5.47-20.43C757.49,1301.5,758.86,1285.15,750.38,1269.93Z"/><path class="cls-2" d="M1036,1275.46c-3.25-2-8.78-1-10.48,2.75-3.17,7-8.29,12.9-15.48,16.06-8.16,3.61-17.53,2.73-25.86,5.92-15.78,6.07-23.64,21.77-29,36.76-3.32,9.29,11.47,13.3,14.76,4.07,2.48-6.94,5.44-14.14,10.34-19.76,5.37-6.12,11.91-7.88,19.79-9,16.74-2.49,31.41-10.14,38.67-26.29C1040.43,1282.14,1039.79,1277.76,1036,1275.46Z"/><path class="cls-2" d="M1280.67,1249.69a29.56,29.56,0,0,1-20.84-5.14c-6.75-4.78-10.93-12.36-17.43-17.47-13.56-10.65-31.38-9-47.16-5.33-9.59,2.2-5.53,17,4.07,14.75,7.28-1.67,15-3.11,22.47-2,8.54,1.24,13.59,6.48,19,12.71,11.49,13.3,26.35,19.83,44,17.25,4.08-.59,6.36-5.79,5.35-9.41C1288.85,1250.66,1284.79,1249.1,1280.67,1249.69Z"/><path class="cls-2" d="M987.58,1027.87c7.45,15.24,27.23,20.21,41.08,10.48,8-5.62.36-18.9-7.73-13.21-4.72,3.31-10.87,4.38-15.77.68s-5.7-9.15-4.76-14.77c2.25-13.43,7.67-28.76-5.1-38.93-5.35-4.26-12.08-5.83-18.8-6.14s-14.22,1.36-20.72-1.18c-12.6-4.9-14.73-19.63-7.07-29.66,2.52-3.32.49-8.54-2.75-10.48-3.92-2.34-8-.52-10.47,2.75-10.32,13.54-8.58,33.56,4.09,45a35.69,35.69,0,0,0,22.15,8.94c7.22.48,16.53-2,23.08,2,6.38,3.92,3.09,13.54,1.77,19.25C984.61,1011.16,983.62,1019.75,987.58,1027.87Z"/><path class="cls-2" d="M858.42,1001.6c9.57,4.88,18.92,2.78,28.23-1.52,8.48-3.93,16.86-7.28,24.58.19,7.08,6.86,17.92-3.95,10.82-10.81a31.44,31.44,0,0,0-29.74-8.19c-7.95,2-17.73,10.94-26.16,7.11-10.11-4.61-5.17-17.54-6.53-26.1-1.7-10.77-10-18-19.8-21.53-9.28-3.34-13.27,11.43-4.06,14.75,3.45,1.26,6.91,3.65,8.3,7.19,1.71,4.36.34,9.77.32,14.31C844.33,987.18,849.11,996.84,858.42,1001.6Z"/><path class="cls-2" d="M879.44,1179.33c3.54-2.68,7.86-5,12.42-3.76s8.08,5.11,11.87,7.59a26.85,26.85,0,0,0,27.61,1.55c9.68-5.14,13-14.81,14.42-25,1.26-9.48,3.57-17.89,14-20.26,9.6-2.19,5.54-17-4.07-14.76a31.17,31.17,0,0,0-22.16,19.2c-3.06,8-.66,21.88-8.75,27-8.55,5.43-15.43-3.22-22.36-7.2-9.92-5.72-21.68-4.31-30.69,2.48-3.32,2.51-5,6.59-2.74,10.48C870.83,1179.86,876.14,1181.83,879.44,1179.33Z"/><path class="cls-2" d="M1049.85,950.32c11.29,6.56,24.6,7.7,36,.47,12.48-7.94,15.26-21,16.12-34.88.41-6.55.74-13.14,4.34-18.86a24,24,0,0,1,13.7-10.14c9.44-2.77,5.42-17.54-4.06-14.76-13.52,4-24.45,14.82-27.57,28.72-2.62,11.67,1.29,29.1-10.26,36.71-12,7.88-21.59-2.19-32-7.41-14.1-7.09-28.84-3.72-40.42,6.5-7.4,6.52,3.45,17.31,10.82,10.81,4.53-4,10.66-6.91,16.82-5.86S1044.61,947.28,1049.85,950.32Z"/><path class="cls-2" d="M743,1155.56c-1.6,4.51-4.59,8.91-9,11-5.41,2.54-12.05,1-17.8.89-12.38-.3-23.89,5-29.8,16.31-6.14,11.73-2.71,23.27,2.63,34.52,2.28,4.81,4.91,9.74,5,15.2a21.23,21.23,0,0,1-6.26,15.48c-6.88,7.06,3.92,17.89,10.82,10.82a36.64,36.64,0,0,0,9.23-35.94c-3-10-13.35-21.62-8.25-32.35,6.05-12.75,20.72-7.32,31.75-8.61,13.15-1.56,22.17-11.22,26.44-23.28C761,1150.33,746.25,1146.32,743,1155.56Z"/><path class="cls-2" d="M1074.07,1154.66a58.25,58.25,0,0,0,32.25,9.14c9.84-.14,9.87-15.44,0-15.32a42.71,42.71,0,0,1-29.22-10.65c-8.18-7.42-12.52-17.92-19.75-26.16-14.89-17-39-18.32-60-16.46-9.73.87-9.82,16.18,0,15.32,10.49-1,21.36-1.43,31.62,1.33,10.53,2.82,17.17,9.21,23,18.15C1058.16,1139.56,1064.37,1148.33,1074.07,1154.66Z"/><path class="cls-2" d="M970.21,828.05a29.58,29.58,0,0,1,16.41,14.37c4,7.79,4.1,17,7.91,24.94,7.05,14.7,23.39,21.32,38.22,25.24,9.53,2.53,13.6-12.24,4.07-14.75-7.35-2-14.83-4.26-21.09-8.73-6.76-4.84-9-11.46-10.76-19.27-4-17.17-13.64-30.56-30.69-36.56C965,810,961,824.79,970.21,828.05Z"/><path class="cls-2" d="M1122.71,706.08c15.51-8.52,25.93-21.32,27.15-39.48.65-9.83-14.66-9.8-15.31,0a29.62,29.62,0,0,1-9.34,19.61c-6.21,5.83-14.82,8.33-21.33,13.85-12.75,10.78-14.89,28.46-14.68,44.15.13,9.84,15.44,9.86,15.31,0-.1-7.6.13-15.36,2.71-22.6C1110,713.81,1115.72,709.9,1122.71,706.08Z"/><path class="cls-2" d="M1324.54,659.23a69,69,0,0,0-10.87-37.75c-5.29-8.29-18.54-.61-13.21,7.72a54.28,54.28,0,0,1,8.44,35.71c-1.55,13.09-9.17,24.14-13.65,36.28-10,27,3.91,53.5,19.91,74.82,2.49,3.32,6.58,4.94,10.47,2.74,3.28-1.86,5.22-7.17,2.74-10.47-8-10.66-15.75-22.13-19.42-35.08-3.76-13.33-.76-24.77,5-37C1319.63,684.32,1324.39,672.66,1324.54,659.23Z"/><path class="cls-2" d="M1067.13,1011.42c9.49,3.71,19.25,8.2,26.92,15.05,8.5,7.57,11.79,16.62,13,27.75,1.32,11.79,3.06,23,9.48,33.22a59.18,59.18,0,0,0,24.28,21.84c8.83,4.26,16.61-8.94,7.73-13.22a44.84,44.84,0,0,1-21.61-21.44c-5.32-11.35-3.74-24.28-7.28-36.09-6.69-22.35-28.2-33.93-48.49-41.87-3.88-1.52-8.37,1.66-9.42,5.34C1060.55,1006.33,1063.31,1009.91,1067.13,1011.42Z"/><path class="cls-2" d="M1296.19,880.36c-9.47-3.17-18.72-4.93-28.7-3.45a53.07,53.07,0,0,0-26,11.91c-3.23,2.64-2.69,8.08,0,10.82,3.13,3.21,7.63,2.6,10.82,0a37,37,0,0,1,24.27-8.08c9.94.3,18.89,5.57,28.6,7.16,20.59,3.33,38-9,52.16-22.54,7.13-6.83-3.71-17.63-10.83-10.82-6.71,6.4-14,12.8-22.74,16.33C1314.15,885.59,1305.66,883.52,1296.19,880.36Z"/><path class="cls-2" d="M1222.46,799.49c7.89-.44,16-.55,23.56,1.92s11.52,7.83,15.48,14.34c4.34,7.19,9,13.49,16.06,18.25a45.53,45.53,0,0,0,24.37,7.49c9.85.24,9.85-15.07,0-15.32a29.75,29.75,0,0,1-21-9.21c-5.55-5.86-8.37-13.77-13.8-19.77-11.18-12.39-29-13.89-44.65-13C1212.67,784.72,1212.61,800,1222.46,799.49Z"/><path class="cls-2" d="M1277.62,944.16c6.77-7.16-4-18-10.82-10.82-11.81,12.52-23,28.06-20.45,46.22,1.22,8.75,5.92,16.7,6.72,25.48a32.52,32.52,0,0,1-6.81,22.9c-2.6,3.24-3.1,7.63,0,10.81,2.66,2.71,8.25,3.22,10.83,0,11.84-14.75,13.66-32.09,7.65-49.69-2.81-8.28-4.89-15.69-1.66-24.19C1266.09,956.93,1271.87,950.27,1277.62,944.16Z"/><path class="cls-2" d="M478.3,882.91c-5.13-7.65-12.48-13.93-16.12-22.53a38.37,38.37,0,0,1-.81-27c3.06-9.37-11.71-13.4-14.76-4.06a53.57,53.57,0,0,0-1.28,28.33c2.21,9.91,7.61,18,14,25.65,6.11,7.39,11,14.48,11,24.44,0,10.18-3.62,20.09-7.47,29.38-1.6,3.84,1.72,8.37,5.35,9.41,4.38,1.26,7.83-1.54,9.41-5.35C485.29,922.65,490.3,900.79,478.3,882.91Z"/><path class="cls-2" d="M20,850.16c9.62-3.46,18.65-7.19,26.08-14.48a52.9,52.9,0,0,0,14.54-26.22c2.13-9.59-12.62-13.69-14.76-4.07a38.14,38.14,0,0,1-14.3,22.67c-8.27,6.17-18.91,7.6-27.86,12.49A40.48,40.48,0,0,0,0,842.84V865.2C4.67,857.42,11.33,853.27,20,850.16Z"/><path class="cls-2" d="M1388.41,743.21a25.53,25.53,0,0,0-12.33,24.55c.87,9.58,7.53,21.32,1.83,30.35a14.76,14.76,0,0,1-22.79,2.68c-7.18-6.72-18,4.07-10.82,10.82,16.66,15.64,45.57,8.5,50.48-14.82,1.14-5.45.6-10.88-.52-16.29-1.06-5.13-3.25-10.46-3-15.76.53-11.17,13.8-11.56,21.89-9.17,1.41.41,2.79.9,4.16,1.43V740.84C1407.79,738,1397.13,738,1388.41,743.21Z"/><path class="cls-2" d="M1412.25,274.21a33.44,33.44,0,0,0,5.07,8.61V245.15A28.7,28.7,0,0,0,1412.25,274.21Z"/><path class="cls-2" d="M1379.06,322.74c-9.41,7.6-11.6,20.47-6.38,31.11,4.77,9.77,15.15,17.9,15.64,29.45.15,3.6-.71,7.76-3.62,10.15-4,3.28-11.17,3.08-16.07,3.76-11.4,1.59-25.19,2.32-33.47,11.51-9.74,10.8-5.65,25.61,2,36.24,2.44,3.39,6.63,4.94,10.47,2.75,3.33-1.89,5.15-7.13,2.74-10.47-5.17-7.17-9.63-17.08,1-21.29,9.29-3.67,20.12-3.49,29.86-5.21,10.44-1.83,18.66-8.26,21.36-18.75,2.63-10.11-.45-20.28-5.64-29-4.12-7-15.24-16.38-10.86-25.2,2.09-4.2,6.23-5.32,10.6-5.61,5.93-.41,11.81-.14,17.72-1,1-.14,1.92-.32,2.87-.52V314.9a27.42,27.42,0,0,1-3.49.94C1402,318.24,1389.25,314.54,1379.06,322.74Z"/><path class="cls-2" d="M1190.84,426c-4.74-11.77-17.65-15.65-29.3-16.19-9.84-.45-9.81,14.86,0,15.31,7.44.34,17.14,2.61,15.4,12-2,10.75-11,20-15.67,29.67-5,10.16-3.86,20.93,3.77,29.47,7.39,8.26,18.26,10.94,28.87,11.95,7.67.7,21.22-1.2,22.77,9.37.6,4-1.78,7.5-4,10.61-3.14,4.36-6.67,8.37-9.36,13-5.07,8.76-7.79,19.38-4.56,29.3s11.16,16.16,21.28,17.62c9.34,1.36,21.58-2.45,29.35,4.22a14.76,14.76,0,0,1-1.41,23.36c-8.11,5.51-.45,18.78,7.72,13.22,18.95-12.86,18.69-42.2-2.91-52.48-10.33-4.92-20.93-1.31-31.55-3.56-10.78-2.26-9.56-14.93-5.51-22.53,5.32-9.95,15.12-17.48,16.26-29.32a25.12,25.12,0,0,0-16.21-25.48c-11-4.06-23.63-.42-34.33-5.82-3.56-1.77-7.49-5.27-8.07-9.48-.8-5.69,4.81-12.21,7.52-16.81C1187.44,452.44,1196.19,439.31,1190.84,426Z"/><path class="cls-2" d="M1401.16,654.89c-7.52-1.35-15-1.69-21.9,2.18-12.72,7.18-16.38,24.57-7.56,36.23,2.51,3.33,6.57,5,10.47,2.75,3.27-1.86,5.23-7.19,2.74-10.48-2.8-3.69-4.15-8.48-1.11-12.53s7.72-4.27,12.37-3.55c7,1.08,14.52,2.51,21.15,1V652.15c-.09.22-.18.46-.28.67C1414.24,658.54,1406,655.74,1401.16,654.89Z"/><path class="cls-2" d="M1172.5,1049.45c6.21,13.88,23.41,18.68,36.16,10.6,8.29-5.27.62-18.51-7.74-13.22-3.93,2.5-8.8,2.88-12.36-.56-4-3.83-3-8.93-1.75-13.77,3-11.24,5.51-24.14-5.23-32.24-4.32-3.25-9.5-4.59-14.83-5.12-5.6-.58-11.87.63-17.21-1.57a14.5,14.5,0,0,1-5.69-22.38c2.65-3.22,3.09-7.67,0-10.83-2.67-2.74-8.21-3.18-10.83,0-9.37,11.43-10.43,27.39-.66,39a29.55,29.55,0,0,0,16.57,9.89c6.93,1.43,15-.6,21.53,2.14,6.35,2.64,3.46,10.23,2.08,15.25C1170.45,1034.3,1169.16,1041.93,1172.5,1049.45Z"/><path class="cls-2" d="M1322.34,495.83c1.23,4.4,5.29,5.94,9.42,5.35a10.87,10.87,0,0,1,11.36,7c1.93,5.16-.67,9.7-3.83,13.7-8,10.09-17.69,21.95-9.53,35.15,3.18,5.16,8.19,8.87,13.51,11.58,5,2.58,11.17,4.43,14.94,8.9,7.37,8.79,3.31,20.71-6.38,25.41-8.85,4.32-1.11,17.51,7.72,13.21,13.7-6.62,21-22.85,16.36-37.45a32.71,32.71,0,0,0-13.54-17.5c-5.78-3.76-14.28-5.35-18.7-10.91-4.84-6.11,2.76-13,6.45-17.57,5-6.08,9-12.68,9-20.79-.1-17.07-15.35-27.76-31.41-25.47C1323.6,487,1321.32,492.21,1322.34,495.83Z"/><path class="cls-2" d="M1414,967a46.75,46.75,0,0,0,3.35,7.54V941.41C1412.7,949,1411.06,958.18,1414,967Z"/><path class="cls-2" d="M1377.45,1022.12c-2.7,9.49,12.06,13.54,14.77,4.06,1-3.7,2.94-7.36,6.51-9.18,4.11-2.1,9.47-1.12,13.93-1.41a37.83,37.83,0,0,0,4.66-.62V999.1c-5.62,2.4-13.58.94-19.39,2.13C1387.41,1003.39,1380.29,1012.15,1377.45,1022.12Z"/><path class="cls-2" d="M1295.53,1105.22c6.3-7.49-4.48-18.38-10.82-10.82-7,8.35-10.15,19.5-6.64,30.11,1.62,4.88,4.33,9.24,6.76,13.72,2.05,3.79,3.94,7.87,2.39,12.19-3.72,10.5-16.72,6.65-25.18,8.37-10.52,2.16-17.64,10.92-20.47,20.89-2.71,9.48,12.06,13.54,14.76,4.07,1.06-3.72,2.94-7.36,6.51-9.2,4.1-2.08,9.47-1.1,13.92-1.4,10.29-.67,19.43-5.61,23.85-15.26s2-19.11-2.94-28.06C1293.33,1121.91,1288.67,1113.38,1295.53,1105.22Z"/><path class="cls-2" d="M1399.56,493.35c-1.56-3.81-5.09-6.56-9.41-5.35-3.62,1-6.93,5.56-5.35,9.42,3.85,9.37,11,16.89,21.08,19.47a42.87,42.87,0,0,0,11.44,1.07V502.58C1410,502.48,1402.78,501.2,1399.56,493.35Z"/><path class="cls-2" d="M1262.46,420.1c-6.39-1.19-13-2.52-18.12-6.78s-7.92-10.05-9-16.53c-.67-4.06-5.74-6.38-9.41-5.35-4.33,1.22-6,5.3-5.35,9.41,2.37,14.45,12.8,26.26,26.44,31.17,11.56,4.19,28.88,2.21,35.77,14.39,7.26,12.84-3.21,22.28-10.34,32-9.63,13.11-9.07,29.38.06,42.69,5.54,8.07,18.81.42,13.22-7.73-4-5.82-6.9-13.17-4.27-20.18,2.17-5.76,7-10.36,10.71-15.15,8.7-11.36,11-25.08,4.47-38.15C1289.91,426.42,1276.12,422.66,1262.46,420.1Z"/><path class="cls-2" d="M1406.21,152.29c-6.47-7.45-17.26,3.43-10.82,10.82a31,31,0,0,0,21.93,10.58V158.08C1413.4,157.86,1409.69,156.28,1406.21,152.29Z"/><path class="cls-2" d="M1388.28,1267.83c-6.46.19-9.72-4.28-11.46-10-2.17-7-2.22-14.53-4.6-21.5A32.38,32.38,0,0,0,1359,1219c-14.69-9.4-33.79-3.9-42.78,10.52-5.22,8.36,8,16.06,13.23,7.71a15.54,15.54,0,0,1,16.88-7.23c7.17,1.8,10.68,7.68,12.28,14.49,3.44,14.62,4.26,32.48,21.55,37.6,7.69,2.28,16,.52,23.26-2.4,4.56-1.84,9.12-4.37,13.89-5.91v-15.6a47,47,0,0,0-8.68,2.64C1402.12,1263.52,1395.5,1267.59,1388.28,1267.83Z"/><path class="cls-2" d="M1202.65,1316.19c-6.77-.78-14.77,1-21.11-2.06s-3.48-11.44-2-16.73c2.3-8.61,3.79-17.12-.2-25.48-6.88-14.42-25.17-19.11-38.43-10.5-8.22,5.36-.56,18.62,7.73,13.22,4.26-2.78,9.57-3.43,13.8-.09,4.55,3.62,4.71,9.1,3.5,14.34-2.84,12.19-7.25,26.37,4.11,35.83,4.65,3.87,10.4,5.47,16.3,6.1,6.27.66,13.17-.71,19.19,1.46,10.46,3.78,14.48,17.12,7.37,25.89-2.63,3.23-3.1,7.66,0,10.82,2.67,2.73,8.23,3.21,10.82,0,10.16-12.51,11-30.09-.1-42.42A32.62,32.62,0,0,0,1202.65,1316.19Z"/><path class="cls-2" d="M1406.07,1148.52c-6.35,14.06-2.67,30.8,11.07,39l.18.09V1146.3a7.6,7.6,0,0,0-.78-.53C1413.28,1143.82,1407.77,1144.76,1406.07,1148.52Z"/><path class="cls-2" d="M1394.21,889.8c-.59,4.13,1,8.18,5.34,9.42,3.59,1,8.84-1.26,9.42-5.34,1.31-9.16,3-18.68,7.36-26.93.32-.62.65-1.19,1-1.75V842.84C1402.28,853.3,1396.71,872.32,1394.21,889.8Z"/><path class="cls-2" d="M171.39,763.37A53.16,53.16,0,0,0,180,791.11c5.36,8.22,18.62.56,13.22-7.72A38.44,38.44,0,0,1,186.87,758c1.06-9.82,7-18.15,10-27.37,6.64-20.26-3.84-39.85-15.94-55.59-2.55-3.31-6.56-5-10.48-2.75-3.24,1.85-5.26,7.2-2.74,10.47,6,7.77,11.91,16.15,14.64,25.7,2.86,10,0,18.22-4.13,27.34C174.18,744.69,171.15,753.51,171.39,763.37Z"/><path class="cls-2" d="M322.86,893.42c8.82-13.17,5.7-29.84.82-43.83-3.23-9.26-18-5.27-14.76,4.06,2.43,7,4.76,14.36,4.23,21.83-.53,7.32-4.78,12-9.52,17.16-10.62,11.54-15.54,25.94-11.53,41.45,2.47,9.54,17.23,5.49,14.76-4.06a26.44,26.44,0,0,1,2.47-20C312.9,903.85,318.87,899.38,322.86,893.42Z"/><path class="cls-2" d="M1139.45,186.85c3.63-1,6.91-5.56,5.35-9.42a39.06,39.06,0,0,1-1.18-27.47c3.07-9.23,10.53-16.1,15-24.58,10.17-19.21,3.18-40.29-5.86-58.44-4.39-8.82-17.6-1.07-13.21,7.72,4.17,8.38,8.17,17.49,8.85,27,.73,10.1-3.44,17.54-9.16,25.5-5.54,7.7-10.35,15.68-12,25.18a53.07,53.07,0,0,0,2.79,29.19C1131.58,185.31,1135.14,188.05,1139.45,186.85Z"/><path class="cls-2" d="M1249.14,253c-19.31,3.69-31.74,21-40.45,37.24-4.67,8.67,8.54,16.42,13.22,7.72,4.33-8.05,9.12-16,15.9-22.27,7.57-7,16.08-8.46,26.11-8.41,10.49.06,20.22-.68,29.85-5.19a53.29,53.29,0,0,0,22-19.66c5.33-8.31-7.92-16-13.23-7.72a37.43,37.43,0,0,1-21,15.79C1271,253.55,1259.82,251,1249.14,253Z"/><path class="cls-2" d="M998.18,417.83a43.82,43.82,0,0,1,27.16,11.83c7.64,7.35,11.43,17.63,18.25,25.66,13.83,16.27,37,18.81,57,18.74,9.85-.05,9.87-15.35,0-15.32-10,.05-20.14-.44-29.77-3.56-9.9-3.2-16.15-9.55-21.46-18.25-5.6-9.18-11.24-17.41-20.1-23.76a60.12,60.12,0,0,0-31-10.66C988.35,401.84,988.39,417.16,998.18,417.83Z"/><path class="cls-2" d="M363.16,1089c9.83.71,9.79-14.6,0-15.3-14.57-1-28.29,8.94-31.22,23.36a31.16,31.16,0,0,0,3.8,22c2.73,4.73,10.45,12,8.88,18-1.37,5.29-10.2,6.83-14.47,8.53-6.78,2.66-12.9,6.49-16.28,13.2-7,14,.16,29.17,14.09,34.81,3.86,1.56,8.37-1.71,9.42-5.35,1.24-4.36-1.54-7.87-5.36-9.41a9.58,9.58,0,0,1-5.62-9.83c.71-5.08,4.87-7.54,9.23-9.21,10.1-3.88,21.65-7.85,24-20,1.17-6.1-.6-12.2-3.53-17.57-2.73-5-7.24-9.34-8.91-14.88C344,1096.7,353,1088.22,363.16,1089Z"/><path class="cls-2" d="M207.48,1035.25c7.17-1.33,14.64-.74,21.65-3a30.51,30.51,0,0,0,15.72-11.67c9.57-13.72,4.81-31.42-8-41-3.33-2.5-8.52-.52-10.47,2.75-2.32,3.87-.55,8,2.74,10.47a14.29,14.29,0,0,1,4.67,16.28c-2.61,6.55-8.67,9-15.26,9.82-13.93,1.75-30.48,2-36.33,17.63-2.66,7.1-1.77,15,.41,22.14,2.13,6.94,6,14,5.29,21.5-1.39,14.12-15.62,21.36-28.31,16.87-9.3-3.3-13.3,11.48-4.07,14.76,12.72,4.5,27.66,1.4,37.23-8.23,10.47-10.54,12.51-25.38,8-39.12-2-6.28-5.58-13-4.89-19.8C196.51,1038.32,202,1036.28,207.48,1035.25Z"/><path class="cls-2" d="M352.34,1297.5a29.58,29.58,0,0,0,14,14,30.19,30.19,0,0,0,39.37-12.81c4.79-8.62-8.43-16.34-13.22-7.72-6.93,12.5-23.29,9.68-27.66-3.25-4.61-13.65-4.85-31-21-36.67-7.73-2.68-16-1-23.34,2.11-7,3-13.77,8.16-21.54,8.76a21.2,21.2,0,0,1-22.28-25.51c2-9.6-12.72-13.72-14.76-4.06-3,14,1.67,28.69,13.25,37.48,12.14,9.21,27.1,8.94,40.43,2.71,6.23-2.91,12.77-7.69,19.95-7.57,6.34.12,9.11,5.63,10.72,11C348.36,1283.24,349.09,1290.65,352.34,1297.5Z"/><path class="cls-2" d="M496.87,1132.12c-9.66-3.56-18.79-7.64-18.94-19.48-.11-9.85-15.42-9.87-15.31,0a33.14,33.14,0,0,0,16.48,28.62c7.68,4.34,21.51,5.19,25.08,14.51,4,10.35-6.37,15.68-12.27,22.09-9.07,9.86-9.5,22.49-4,34.28,1.76,3.78,7.13,4.66,10.48,2.75,3.88-2.2,4.47-6.74,2.75-10.47-2-4.36-2.6-9.67.12-13.85s7.34-7,10.74-10.51c7.28-7.59,10.29-18.19,7-28.37C515.5,1141.13,506.78,1135.77,496.87,1132.12Z"/><path class="cls-2" d="M452.21,1030.68c4.61-7.69,9.7-16.11,20.16-14.28,9.62,1.69,13.77-13.06,4.07-14.77-10.73-1.88-21.89,1-29.34,9.27-3.43,3.83-5.83,8.32-8.48,12.68-2.29,3.74-4.89,7.52-9.49,8.37-10.29,1.87-13.5-9.58-18.54-16-7.23-9.18-18.72-11.57-29.73-8.79-9.54,2.39-5.49,17.16,4.08,14.74,4-1,8.52-1.1,11.91,1.62s5.07,7.32,7.46,10.85c5.73,8.51,14.62,13.92,25.15,12.88S447,1039.42,452.21,1030.68Z"/><path class="cls-2" d="M263.75,1142.21c-2.73-9.27-5.92-19.85,3.25-26.88,3.31-2.52,5-6.56,2.75-10.47-1.85-3.24-7.19-5.25-10.48-2.74-8.84,6.76-14.72,16.89-13.9,28.36.42,5.75,2.27,11.1,3.85,16.62,1.37,4.74,2.55,9.75-.37,14.16-6.36,9.63-17.55,3.72-26.65,3.11-11.82-.81-21.87,6.29-27.34,16.44-4.66,8.68,8.54,16.41,13.22,7.73,2.11-3.92,5.14-7.75,9.73-8.74,4.81-1,10.06,1.06,14.78,1.8,10.58,1.64,20.71-1.28,27.49-9.9C267,1162.91,266.79,1152.55,263.75,1142.21Z"/><path class="cls-2" d="M484.22,1267.51c-10,0-20.15-.44-29.77-3.57-9.9-3.19-16.16-9.55-21.46-18.25-5.6-9.18-11.25-17.4-20.1-23.75-9.08-6.52-20-9.89-31-10.65-9.83-.68-9.79,14.64,0,15.3A43.83,43.83,0,0,1,409,1238.43c7.63,7.34,11.42,17.62,18.25,25.64,13.83,16.27,36.95,18.83,57,18.75C494.07,1282.79,494.09,1267.48,484.22,1267.51Z"/></pattern></defs><title>bkgd-triangle-right-white</title><path class="cls-3" d="M102.48,320,640,10V630Z"/></svg>