<svg id="_ÎÓÈ_1" data-name="—ÎÓÈ_1" xmlns="http://www.w3.org/2000/svg" xmlns:xlink="http://www.w3.org/1999/xlink" viewBox="0 0 640 640"><defs><style>.cls-1{fill:none;}.cls-2{fill:#fff;}.cls-3{fill-rule:evenodd;fill:url(#ÕÓ_È_Ó·_ÁÂ_ÛÁÓ_27);}</style><pattern id="ÕÓ_È_Ó·_ÁÂ_ÛÁÓ_27" data-name="ÕÓ‚˚È Ó·‡ÁÂˆ ÛÁÓ‡ 27" width="1417.32" height="1417.33" patternTransform="translate(-1018.26 -1013.88) scale(0.09)" patternUnits="userSpaceOnUse" viewBox="0 0 1417.32 1417.33"><rect class="cls-1" width="1417.32" height="1417.33"/><polygon class="cls-2" points="0 0 0 2.39 9.53 0 0 0"/><polygon class="cls-2" points="48.01 24.48 41.89 0 23.66 0 30.86 28.77 48.01 24.48"/><polygon class="cls-2" points="84.56 90.71 107.95 67.33 131.34 90.71 143.84 78.21 120.46 54.82 143.84 31.43 131.34 18.93 107.95 42.31 84.56 18.93 72.06 31.43 95.46 54.82 72.06 78.21 84.56 90.71"/><polygon class="cls-2" points="69.65 202.23 87.31 202.9 88.59 169.84 121.66 171.11 122.32 153.46 89.27 152.19 90.55 119.14 72.87 118.45 71.6 151.51 38.56 150.23 37.87 167.9 70.92 169.17 69.65 202.23"/><polygon class="cls-2" points="28.21 254.13 8.14 227.82 34.46 207.77 23.74 193.72 0 211.8 0 246.29 14.13 264.84 28.21 254.13"/><polygon class="cls-2" points="95.4 328.44 99.53 295.63 132.35 299.75 134.56 282.21 101.72 278.08 105.85 245.25 88.3 243.05 84.19 275.87 51.37 271.75 49.17 289.29 81.98 293.43 77.86 326.24 95.4 328.44"/><polygon class="cls-2" points="85.1 425.36 70.68 395.59 100.45 381.18 92.76 365.25 62.99 379.67 48.57 349.89 32.66 357.6 47.08 387.38 17.3 401.8 25 417.7 54.78 403.29 69.2 433.06 85.1 425.36"/><polygon class="cls-2" points="112.36 486.69 142.49 473.03 156.15 503.16 172.26 495.86 158.59 465.73 188.72 452.08 181.42 435.97 151.29 449.64 137.63 419.51 121.53 426.81 135.19 456.93 105.07 470.59 112.36 486.69"/><polygon class="cls-2" points="70.78 556.71 99.16 573.67 82.2 602.07 97.37 611.15 114.35 582.75 142.74 599.73 151.81 584.55 123.42 567.57 140.39 539.18 125.22 530.12 108.24 558.5 79.85 541.52 70.78 556.71"/><polygon class="cls-2" points="37.53 646.6 48.12 632.45 21.61 612.65 41.4 586.15 27.23 575.57 7.44 602.08 0 596.52 0 641.58 11.02 626.82 37.53 646.6"/><polygon class="cls-2" points="77.66 712.04 107.31 697.33 121.99 726.98 137.83 719.12 123.13 689.5 152.78 674.79 144.92 658.96 115.29 673.65 100.6 644.02 84.74 651.87 99.45 681.5 69.8 696.19 77.66 712.04"/><polygon class="cls-2" points="13.98 738.49 44.66 750.91 51.3 734.52 20.63 722.11 33.04 691.44 16.66 684.8 4.24 715.47 0 713.74 0 768.51 1.57 769.15 13.98 738.49"/><polygon class="cls-2" points="1384.28 719.44 1414.93 731.85 1402.51 762.51 1417.32 768.51 1417.32 713.74 1390.9 703.05 1384.28 719.44"/><polygon class="cls-2" points="23.91 842.37 36.87 854.38 59.35 830.11 83.61 852.6 95.63 839.64 71.38 817.16 93.86 792.89 80.89 780.86 58.41 805.13 34.14 782.64 22.13 795.62 46.38 818.1 23.91 842.37"/><polygon class="cls-2" points="82.49 952.84 89.33 936.53 58.83 923.76 71.59 893.24 55.28 886.43 42.5 916.94 11.99 904.16 5.17 920.47 35.68 933.24 22.89 963.75 39.21 970.57 51.98 940.06 82.49 952.84"/><polygon class="cls-2" points="119.66 1050.01 132.18 1019.39 162.79 1031.91 169.48 1015.54 138.88 1003.02 151.38 972.41 135.03 965.72 122.51 996.33 91.9 983.82 85.19 1000.18 115.81 1012.7 103.29 1043.32 119.66 1050.01"/><polygon class="cls-2" points="69.52 1143.22 84.13 1153.18 102.79 1125.87 130.1 1144.52 140.07 1129.93 112.76 1111.27 131.4 1083.95 116.81 1073.98 98.16 1101.3 70.83 1082.63 60.86 1097.24 88.18 1115.9 69.52 1143.22"/><polygon class="cls-2" points="71.6 1233.17 94.12 1257.4 107.08 1245.37 84.56 1221.14 108.79 1198.62 96.77 1185.68 72.53 1208.17 50.01 1183.94 37.06 1195.98 59.58 1220.22 35.35 1242.72 47.38 1255.69 71.6 1233.17"/><polygon class="cls-2" points="39.57 1326.91 46.19 1310.51 15.53 1298.11 27.93 1267.45 11.53 1260.83 0 1289.33 0 1336.53 8.9 1314.52 39.57 1326.91"/><polygon class="cls-2" points="14 1134.26 0 1137.72 0 1155.93 18.23 1151.43 14 1134.26"/><polygon class="cls-2" points="38.56 1068.17 50.19 1054.86 25.28 1033.09 47.04 1008.18 33.73 996.56 11.98 1021.46 0 1011 0 1034.49 0.32 1034.78 0 1035.15 0 1062.02 13.64 1046.41 38.56 1068.17"/><polygon class="cls-2" points="312.31 844.9 283.16 829.21 298.85 800.09 283.27 791.72 267.6 820.84 238.47 805.18 230.08 820.74 259.22 836.41 243.54 865.54 259.13 873.91 274.81 844.78 303.92 860.46 312.31 844.9"/><polygon class="cls-2" points="317.17 728.11 284.99 720.43 292.66 688.25 275.47 684.15 267.79 716.33 235.62 708.65 231.5 725.85 263.68 733.53 256 765.71 273.21 769.8 280.88 737.62 313.06 745.3 317.17 728.11"/><polygon class="cls-2" points="162.09 733.68 153.85 765.73 121.81 757.5 117.42 774.62 149.45 782.85 141.22 814.88 158.34 819.28 166.57 787.23 198.61 795.47 203.03 778.34 170.98 770.12 179.21 738.08 162.09 733.68"/><polygon class="cls-2" points="201.71 874.48 169.48 881.9 162.05 849.67 144.83 853.64 152.26 885.86 120.03 893.3 124 910.52 156.23 903.1 163.66 935.33 180.9 931.36 173.46 899.13 205.69 891.7 201.71 874.48"/><polygon class="cls-2" points="244.89 676.75 254.13 661.69 225.95 644.38 243.25 616.2 228.18 606.93 210.86 635.14 182.68 617.84 173.44 632.91 201.63 650.21 184.34 678.41 199.4 687.65 216.7 659.46 244.89 676.75"/><polygon class="cls-2" points="186.09 531.93 218.77 537.09 213.61 569.76 231.1 572.5 236.23 539.82 268.9 544.98 271.65 527.51 238.98 522.36 244.13 489.7 226.66 486.94 221.52 519.62 188.85 514.48 186.09 531.93"/><polygon class="cls-2" points="397.2 442.75 429.32 434.81 437.25 466.93 454.41 462.68 446.48 430.56 478.59 422.63 474.36 405.46 442.24 413.4 434.3 381.29 417.13 385.54 425.07 417.65 392.97 425.59 397.2 442.75"/><polygon class="cls-2" points="300.8 509.29 330.6 499.38 340.9 529.73 356.84 524.43 346.54 494.09 376.35 484.19 370.85 467.98 341.03 477.88 330.74 447.54 314.81 452.82 325.09 483.16 295.29 493.08 300.8 509.29"/><polygon class="cls-2" points="41.6 534.4 55.39 523.32 34.64 497.55 60.42 476.81 49.33 463.04 23.56 483.77 2.82 458.01 0 460.27 0 482.7 9.79 494.86 0 502.74 0 525.43 20.86 508.64 41.6 534.4"/><polygon class="cls-2" points="177.27 307.22 167.53 338.84 135.92 329.1 130.72 345.99 162.32 355.75 152.57 387.34 169.47 392.56 179.21 360.95 210.82 370.69 216.03 353.79 184.42 344.05 194.16 312.44 177.27 307.22"/><polygon class="cls-2" points="6.46 307.97 0 310.39 0 329.29 12.7 324.51 6.46 307.97"/><polygon class="cls-2" points="399.54 82.8 426.66 63.89 445.59 91.03 460.09 80.91 441.16 53.78 468.31 34.86 458.19 20.37 431.06 39.28 412.15 12.15 397.63 22.24 416.55 49.38 389.41 68.31 399.54 82.8"/><polygon class="cls-2" points="293.49 186.43 309.17 215.55 324.74 207.17 309.04 178.04 338.18 162.36 329.79 146.78 300.66 162.47 284.99 133.35 269.42 141.74 285.1 170.86 255.97 186.54 264.36 202.1 293.49 186.43"/><polygon class="cls-2" points="511.99 144.21 529.16 148.37 536.96 116.23 569.12 124.04 573.29 106.85 541.15 99.05 548.95 66.9 531.76 62.73 523.96 94.87 491.81 87.07 487.64 104.25 519.79 112.06 511.99 144.21"/><polygon class="cls-2" points="462.76 233.89 473.44 247.97 499.78 227.95 519.8 254.27 533.88 243.56 513.86 217.23 540.19 197.2 529.48 183.14 503.15 203.17 483.12 176.83 469.06 187.53 489.08 213.86 462.76 233.89"/><polygon class="cls-2" points="352.1 271.04 385.11 268.97 387.16 301.98 404.82 300.88 402.75 267.86 435.77 265.8 434.67 248.15 401.66 250.23 399.61 217.21 381.96 218.3 384.01 251.32 351 253.38 352.1 271.04"/><polygon class="cls-2" points="266.26 369.73 257.25 401.57 225.42 392.57 220.62 409.58 252.45 418.59 243.44 450.41 260.45 455.23 269.45 423.4 301.28 432.41 306.1 415.39 274.26 406.39 283.27 374.56 266.26 369.73"/><polygon class="cls-2" points="345.16 349.04 312.2 346.16 310.68 363.78 343.63 366.64 340.77 399.59 358.39 401.12 361.24 368.18 394.2 371.02 395.74 353.41 362.79 350.56 365.63 317.6 348.02 316.07 345.16 349.04"/><polygon class="cls-2" points="231.35 279.67 262.42 291.02 251.07 322.09 267.68 328.15 279.03 297.08 310.11 308.43 316.17 291.83 285.1 280.47 296.45 249.41 279.84 243.35 268.49 274.42 237.42 263.06 231.35 279.67"/><polygon class="cls-2" points="597.85 72.21 630.88 70.17 632.89 103.19 650.57 102.11 648.52 69.08 681.53 67.05 680.44 49.4 647.42 51.44 645.4 18.42 627.75 19.51 629.78 52.52 596.76 54.56 597.85 72.21"/><polygon class="cls-2" points="671.12 162.91 679.09 178.9 709.45 162.04 724.37 191.97 740.58 182.97 725.66 153.04 756.01 136.18 748.04 120.16 717.7 137.03 702.77 107.09 686.55 116.11 701.46 146.03 671.12 162.91"/><polygon class="cls-2" points="601.88 175.63 578.89 199.42 591.61 211.69 614.6 187.91 638.39 210.91 650.67 198.18 626.89 175.2 649.87 151.42 637.15 139.11 614.18 162.91 590.38 139.92 578.11 152.64 601.88 175.63"/><polygon class="cls-2" points="719.11 9.27 711.99 25.47 742.27 38.78 728.97 69.07 745.15 76.17 758.47 45.89 788.74 59.2 795.86 43.02 765.57 29.72 778.64 0 759.33 0 749.4 22.6 719.11 9.27"/><polygon class="cls-2" points="826.73 19.94 858.55 10.92 867.56 42.75 884.58 37.92 875.55 6.1 897.05 0 832.2 0 821.88 2.93 826.73 19.94"/><polygon class="cls-2" points="986.29 35.01 997.09 3.74 1028.36 14.56 1033.39 0 979.69 0 969.59 29.24 986.29 35.01"/><polygon class="cls-2" points="1081.6 22.74 1087.05 39.56 1118.51 29.34 1128.73 60.79 1145.56 55.33 1135.33 23.86 1166.79 13.64 1162.36 0 1151.56 0 1129.86 7.05 1127.58 0 1108.99 0 1113.06 12.51 1081.6 22.74"/><polygon class="cls-2" points="1218.48 107.31 1235.09 113.36 1246.43 82.28 1277.51 93.64 1283.57 77.03 1252.51 65.68 1263.86 34.61 1247.25 28.55 1235.89 59.63 1204.82 48.29 1198.76 64.88 1229.83 76.23 1218.48 107.31"/><polygon class="cls-2" points="1277.37 151.2 1285.19 167.05 1314.85 152.39 1329.51 182.04 1345.37 174.21 1330.72 144.56 1360.38 129.91 1352.53 114.05 1322.88 128.71 1308.22 99.05 1292.38 106.89 1307.03 136.53 1277.37 151.2"/><polygon class="cls-2" points="1334.22 27.47 1322.94 58.55 1339.57 64.59 1350.84 33.49 1381.94 44.77 1387.98 28.16 1356.88 16.87 1363 0 1344.19 0 1340.26 10.85 1310.38 0 1309 0 1303.13 16.19 1334.22 27.47"/><polygon class="cls-2" points="920.14 120.91 937.82 121.27 938.52 88.2 971.59 88.89 971.95 71.22 938.87 70.53 939.58 37.46 921.9 37.08 921.2 70.14 888.13 69.45 887.78 87.13 920.84 87.82 920.14 120.91"/><polygon class="cls-2" points="793.02 145.56 808.26 154.51 825.04 126 853.54 142.77 862.51 127.54 833.99 110.76 850.77 82.26 835.52 73.29 818.75 101.81 790.23 85.04 781.27 100.28 809.79 117.05 793.02 145.56"/><polygon class="cls-2" points="594.21 235.26 591.57 268.31 558.05 265.7 556.63 283.37 590.15 285.98 587.51 319.04 605.41 320.44 608.07 287.38 641.59 289.99 643.01 272.32 609.5 269.7 612.14 236.64 594.21 235.26"/><polygon class="cls-2" points="505.8 34.22 521.8 41.72 535.83 11.77 565.79 25.79 573.29 9.78 552.43 0 510.72 0 519.82 4.25 505.8 34.22"/><polygon class="cls-2" points="377.26 183.89 405.29 166.31 422.87 194.32 437.83 184.93 420.26 156.92 448.29 139.33 438.89 124.35 410.88 141.92 393.29 113.9 378.31 123.31 395.89 151.33 367.87 168.91 377.26 183.89"/><polygon class="cls-2" points="135.84 227.61 140.99 244.53 172.64 234.87 182.26 266.51 199.18 261.36 189.54 229.72 221.19 220.08 216.03 203.17 184.4 212.81 174.75 181.16 157.83 186.31 167.47 217.95 135.84 227.61"/><polygon class="cls-2" points="278.45 85.26 309.67 74.33 320.6 105.55 337.29 99.72 326.36 68.5 357.59 57.58 351.75 40.88 320.53 51.8 309.62 20.58 292.93 26.42 303.84 57.64 272.62 68.57 278.45 85.26"/><polygon class="cls-2" points="205.89 15.82 199.78 48.32 217.15 51.58 223.25 19.07 255.77 25.18 259.04 7.79 226.51 1.7 226.84 0 175.19 0 173.37 9.71 205.89 15.82"/><polygon class="cls-2" points="198.49 130.4 214.01 159.61 229.63 151.29 214.09 122.09 243.29 106.57 235 90.96 205.79 106.49 190.25 77.3 174.65 85.59 190.17 114.79 160.97 130.33 169.28 145.93 198.49 130.4"/><polygon class="cls-2" points="491.54 273.41 481.81 305.02 450.19 295.29 444.98 312.17 476.59 321.92 466.84 353.53 483.75 358.73 493.48 327.14 525.1 336.88 530.3 319.98 498.69 310.23 508.44 278.62 491.54 273.41"/><polygon class="cls-2" points="367.31 699.16 373.12 731.73 390.53 728.61 384.72 696.05 417.28 690.24 414.17 672.84 381.62 678.65 375.81 646.07 358.4 649.18 364.21 681.75 331.64 687.56 334.75 704.97 367.31 699.16"/><polygon class="cls-2" points="538.85 392.14 506.31 386.22 503.15 403.62 535.68 409.53 529.78 442.08 547.17 445.24 553.09 412.69 585.63 418.59 588.78 401.19 556.24 395.28 562.15 362.74 544.75 359.59 538.85 392.14"/><polygon class="cls-2" points="1379.13 662.94 1346.38 658.3 1351.02 625.56 1333.53 623.07 1328.88 655.83 1296.13 651.17 1293.63 668.68 1326.38 673.33 1321.74 706.08 1339.24 708.56 1343.88 675.82 1376.64 680.46 1379.13 662.94"/><polygon class="cls-2" points="738.37 552.7 706.1 560.05 698.75 527.79 681.51 531.71 688.86 563.97 656.61 571.31 660.55 588.55 692.78 581.21 700.14 613.46 717.38 609.54 710.03 577.28 742.28 569.94 738.37 552.7"/><polygon class="cls-2" points="610.8 441.29 613.52 474.24 580.56 476.97 582.02 494.59 614.99 491.86 617.71 524.82 635.34 523.36 632.6 490.4 665.57 487.67 664.12 470.05 631.15 472.78 628.42 439.81 610.8 441.29"/><polygon class="cls-2" points="934.13 268.88 925.39 284.26 954.16 300.59 937.82 329.36 953.21 338.09 969.54 309.31 998.3 325.65 1007.03 310.28 978.26 293.94 994.58 265.17 979.21 256.45 962.89 285.21 934.13 268.88"/><polygon class="cls-2" points="798.47 457.38 827.59 441.69 843.29 470.81 858.85 462.44 843.16 433.31 872.29 417.63 863.9 402.05 834.78 417.73 819.1 388.62 803.52 397 819.22 426.13 790.09 441.81 798.47 457.38"/><polygon class="cls-2" points="1059.4 288.66 1042.65 294.31 1053.19 325.67 1021.84 336.22 1027.49 352.95 1058.84 342.41 1069.39 373.77 1086.14 368.12 1075.6 336.77 1106.94 326.22 1101.31 309.47 1069.96 320.02 1059.4 288.66"/><polygon class="cls-2" points="1105.91 402.73 1138.98 402.5 1139.21 435.59 1156.9 435.45 1156.66 402.38 1189.74 402.15 1189.62 384.47 1156.54 384.7 1156.32 351.62 1138.63 351.74 1138.87 384.82 1105.78 385.05 1105.91 402.73"/><polygon class="cls-2" points="874.77 522.27 907.79 520.21 909.84 553.23 927.5 552.12 925.43 519.1 958.46 517.04 957.35 499.41 924.34 501.46 922.27 468.45 904.63 469.56 906.69 502.56 873.68 504.62 874.77 522.27"/><polygon class="cls-2" points="996.03 571.43 1020.99 549.7 1042.71 574.66 1056.05 563.06 1034.33 538.11 1059.27 516.39 1047.67 503.06 1022.73 524.77 1001 499.82 987.66 511.42 1009.38 536.38 984.42 558.09 996.03 571.43"/><polygon class="cls-2" points="1052.26 395 1035.41 423.47 1006.95 406.63 997.94 421.85 1026.4 438.69 1009.56 467.17 1024.79 476.17 1041.63 447.69 1070.1 464.54 1079.1 449.31 1050.64 432.48 1067.48 404.01 1052.26 395"/><polygon class="cls-2" points="386.88 524.04 405.93 551.09 378.87 570.13 389.04 584.59 416.09 565.55 435.13 592.6 449.59 582.41 430.54 555.37 457.59 536.32 447.41 521.86 420.37 540.91 401.33 513.86 386.88 524.04"/><polygon class="cls-2" points="340.14 641.47 328.54 610.49 359.53 598.9 353.33 582.34 322.35 593.94 310.74 562.96 294.19 569.14 305.78 600.12 274.81 611.72 281.02 628.29 312 616.68 323.59 647.67 340.14 641.47"/><polygon class="cls-2" points="548.75 578.39 572.48 601.46 549.42 625.18 562.09 637.5 585.16 613.79 608.87 636.85 621.19 624.18 597.48 601.11 620.54 577.4 607.87 565.06 584.8 588.78 561.1 565.72 548.75 578.39"/><polygon class="cls-2" points="479.86 605.3 466.74 635.68 436.38 622.56 429.37 638.78 459.73 651.9 446.62 682.26 462.85 689.28 475.97 658.9 506.33 672.03 513.35 655.8 482.98 642.68 496.09 612.32 479.86 605.3"/><polygon class="cls-2" points="533.07 476.59 514.19 503.74 487.03 484.85 476.94 499.37 504.08 518.26 485.19 545.42 499.7 555.52 518.6 528.36 545.75 547.25 555.85 532.74 528.69 513.85 547.58 486.69 533.07 476.59"/><polygon class="cls-2" points="767.57 538.25 798.64 549.6 787.29 580.67 803.9 586.74 815.24 555.67 846.32 567.02 852.39 550.4 821.33 539.05 832.67 507.99 816.06 501.93 804.7 533 773.64 521.65 767.57 538.25"/><polygon class="cls-2" points="1361.15 520.65 1338.26 544.53 1314.38 521.64 1302.16 534.4 1326.03 557.3 1303.14 581.17 1315.91 593.4 1338.79 569.54 1362.67 592.43 1374.91 579.65 1351.02 556.76 1373.91 532.89 1361.15 520.65"/><polygon class="cls-2" points="911.93 440.15 935.57 417.01 958.71 440.65 971.34 428.28 948.2 404.65 971.84 381.51 959.47 368.88 935.84 392.01 912.69 368.37 900.05 380.75 923.2 404.38 899.57 427.53 911.93 440.15"/><polygon class="cls-2" points="728.84 452.32 707.33 427.19 693.89 438.69 715.4 463.81 690.27 485.33 701.78 498.76 726.91 477.24 748.44 502.37 761.87 490.87 740.34 465.75 765.47 444.23 753.98 430.81 728.84 452.32"/><polygon class="cls-2" points="850.29 268.86 833.76 275.14 845.5 306.06 814.58 317.81 820.86 334.33 851.79 322.58 863.54 353.51 880.05 347.24 868.32 316.32 899.24 304.57 892.97 288.03 862.03 299.78 850.29 268.86"/><polygon class="cls-2" points="723.05 322.53 714.81 338.18 744.07 353.6 728.65 382.86 744.3 391.1 759.71 361.84 788.98 377.25 797.22 361.62 767.96 346.2 783.37 316.94 767.74 308.69 752.31 337.94 723.05 322.53"/><polygon class="cls-2" points="643.01 326.98 627.24 334.96 642.18 364.48 612.67 379.42 620.65 395.19 650.17 380.25 665.11 409.76 680.9 401.77 665.95 372.27 695.45 357.32 687.47 341.56 657.96 356.5 643.01 326.98"/><polygon class="cls-2" points="1107.54 538.85 1132.04 516.63 1154.25 541.14 1167.36 529.27 1145.15 504.76 1169.66 482.55 1157.79 469.44 1133.27 491.65 1111.06 467.15 1097.97 479.01 1120.18 503.54 1095.67 525.75 1107.54 538.85"/><polygon class="cls-2" points="1027.04 218.09 1035.28 250.14 1052.41 245.72 1044.15 213.69 1076.18 205.44 1071.79 188.31 1039.76 196.57 1031.51 164.53 1014.39 168.94 1022.63 200.97 990.59 209.23 994.99 226.34 1027.04 218.09"/><polygon class="cls-2" points="1193.87 231.45 1224.46 218.87 1237.04 249.45 1253.39 242.72 1240.8 212.13 1271.39 199.53 1264.65 183.19 1234.07 195.79 1221.48 165.2 1205.13 171.93 1217.72 202.51 1187.13 215.11 1193.87 231.45"/><polygon class="cls-2" points="1118.25 158.45 1133.32 167.72 1150.66 139.56 1178.82 156.9 1188.1 141.84 1159.93 124.5 1177.28 96.33 1162.21 87.05 1144.87 115.22 1116.71 97.87 1107.43 112.93 1135.6 130.28 1118.25 158.45"/><polygon class="cls-2" points="1166.97 310.23 1197.04 324 1183.27 354.08 1199.34 361.45 1213.11 331.36 1243.2 345.14 1250.54 329.06 1220.48 315.28 1234.25 285.21 1218.16 277.85 1204.4 307.92 1174.32 294.15 1166.97 310.23"/><polygon class="cls-2" points="1368.25 458.69 1388.5 432.54 1374.5 421.73 1354.25 447.87 1328.1 427.62 1317.28 441.61 1343.44 461.86 1323.18 488.01 1337.16 498.84 1357.41 472.68 1383.56 492.93 1394.39 478.94 1368.25 458.69"/><polygon class="cls-2" points="789.23 247.09 803.84 257.04 822.45 229.7 849.8 248.28 859.75 233.67 832.41 215.07 851.01 187.72 836.38 177.78 817.77 205.12 790.43 186.52 780.48 201.14 807.84 219.75 789.23 247.09"/><polygon class="cls-2" points="1278.02 291.35 1308.73 279.03 1321.04 309.73 1337.45 303.16 1325.14 272.45 1355.83 260.14 1349.24 243.73 1318.54 256.05 1306.23 225.35 1289.83 231.93 1302.13 262.62 1271.44 274.94 1278.02 291.35"/><polygon class="cls-2" points="1015.09 129.29 1039.27 106.71 1061.85 130.88 1074.77 118.81 1052.19 94.64 1076.37 72.05 1064.29 59.13 1040.11 81.72 1017.53 57.54 1004.62 69.61 1027.2 93.78 1003.04 116.35 1015.09 129.29"/><polygon class="cls-2" points="1103.21 276.57 1118.85 284.79 1134.24 255.52 1163.54 270.91 1171.75 255.25 1142.47 239.86 1157.86 210.58 1142.21 202.35 1126.82 231.64 1097.55 216.25 1089.32 231.9 1118.59 247.29 1103.21 276.57"/><polygon class="cls-2" points="674.55 275.09 706.15 265.33 715.92 296.93 732.8 291.71 723.05 260.11 754.65 250.35 749.44 233.45 717.83 243.21 708.08 211.6 691.19 216.83 700.95 248.44 669.34 258.2 674.55 275.09"/><polygon class="cls-2" points="921.74 200.82 937.27 230.01 952.88 221.72 937.34 192.5 966.54 176.97 958.25 161.37 929.05 176.9 913.51 147.69 897.9 155.99 913.42 185.2 884.22 200.74 892.53 216.35 921.74 200.82"/><polygon class="cls-2" points="344.94 822.2 376.33 811.78 386.74 843.17 403.54 837.61 393.1 806.21 424.51 795.8 418.94 779.01 387.55 789.44 377.13 758.03 360.35 763.62 370.77 795 339.37 805.43 344.94 822.2"/><polygon class="cls-2" points="707.61 639.24 681.15 659.09 661.3 632.63 647.15 643.25 667 669.71 640.54 689.55 651.16 703.7 677.61 683.85 697.46 710.3 711.62 699.71 691.76 673.23 718.22 653.39 707.61 639.24"/><polygon class="cls-2" points="468.15 800.62 480.6 769.96 511.25 782.41 517.89 766.02 487.24 753.57 499.69 722.93 483.31 716.27 470.87 746.92 440.22 734.48 433.56 750.85 464.2 763.3 451.77 793.95 468.15 800.62"/><polygon class="cls-2" points="536.48 705.62 568.3 714.73 559.18 746.53 576.18 751.4 585.28 719.6 617.09 728.72 621.94 711.71 590.15 702.59 599.25 670.8 582.27 665.93 573.15 697.73 541.36 688.62 536.48 705.62"/><polygon class="cls-2" points="483.58 1344.85 451.02 1350.66 445.21 1318.09 427.82 1321.21 433.62 1353.76 401.07 1359.57 404.16 1376.99 436.71 1371.18 442.53 1403.74 459.94 1400.63 454.13 1368.07 486.7 1362.25 483.58 1344.85"/><polygon class="cls-2" points="982.99 670.48 1012.13 654.81 1027.8 683.92 1043.37 675.52 1027.69 646.4 1056.81 630.73 1048.41 615.16 1019.3 630.85 1003.62 601.73 988.06 610.1 1003.74 639.23 974.63 654.92 982.99 670.48"/><polygon class="cls-2" points="777.71 639.99 751.23 659.8 761.82 673.96 788.32 654.13 808.13 680.62 822.29 670.02 802.48 643.54 828.96 623.74 818.35 609.58 791.87 629.39 772.05 602.92 757.89 613.5 777.71 639.99"/><polygon class="cls-2" points="882.68 649.48 910.71 631.89 928.28 659.92 943.27 650.52 925.68 622.5 953.71 604.92 944.32 589.95 916.29 607.52 898.72 579.5 883.74 588.9 901.32 616.92 873.29 634.49 882.68 649.48"/><polygon class="cls-2" points="1087.71 605.16 1119.88 612.83 1112.23 645 1129.43 649.09 1137.08 616.94 1169.26 624.59 1173.36 607.38 1141.18 599.72 1148.84 567.54 1131.64 563.45 1123.97 595.63 1091.81 587.96 1087.71 605.16"/><polygon class="cls-2" points="1230.86 809.18 1234.97 791.97 1202.79 784.29 1210.46 752.11 1193.26 748.02 1185.59 780.2 1153.42 772.52 1149.31 789.72 1181.49 797.39 1173.8 829.57 1190.99 833.67 1198.69 801.49 1230.86 809.18"/><polygon class="cls-2" points="1287.09 971.21 1254.42 966.08 1259.56 933.39 1242.09 930.65 1236.95 963.32 1204.26 958.18 1201.52 975.65 1234.19 980.79 1229.05 1013.47 1246.51 1016.21 1251.66 983.53 1284.34 988.69 1287.09 971.21"/><polygon class="cls-2" points="1092.58 1048.55 1060.47 1056.5 1052.52 1024.39 1035.36 1028.62 1043.3 1060.74 1011.2 1068.7 1015.44 1085.86 1047.55 1077.92 1055.49 1110.02 1072.64 1105.77 1064.71 1073.66 1096.82 1065.72 1092.58 1048.55"/><polygon class="cls-2" points="1190.58 998.3 1160.78 1008.2 1150.47 977.86 1134.54 983.15 1144.84 1013.5 1115.02 1023.4 1120.53 1039.61 1150.34 1029.71 1160.63 1060.06 1176.57 1054.76 1166.29 1024.42 1196.08 1014.52 1190.58 998.3"/><polygon class="cls-2" points="1250.93 1340.69 1221.8 1356.38 1206.11 1327.26 1190.55 1335.64 1206.23 1364.76 1177.11 1380.44 1185.49 1396.02 1214.62 1380.34 1230.3 1409.45 1245.87 1401.07 1230.18 1371.94 1259.31 1356.26 1250.93 1340.69"/><polygon class="cls-2" points="1051.17 1277.41 1039.42 1264.19 1014.73 1286.19 992.71 1261.49 979.53 1273.26 1001.51 1297.96 976.81 1319.96 988.57 1333.16 1013.27 1311.16 1035.27 1335.86 1048.47 1324.11 1026.48 1299.41 1051.17 1277.41"/><polygon class="cls-2" points="1138.44 1304.28 1123.02 1295.64 1106.84 1324.49 1077.99 1308.32 1069.35 1323.74 1098.19 1339.91 1082.03 1368.77 1097.44 1377.42 1113.62 1348.56 1142.48 1364.74 1151.13 1349.31 1122.28 1333.14 1138.44 1304.28"/><polygon class="cls-2" points="1127.98 1223.61 1106.85 1198.16 1093.24 1209.44 1114.37 1234.9 1088.91 1256.03 1100.23 1269.62 1125.66 1248.5 1146.79 1273.95 1160.39 1262.65 1139.27 1237.2 1164.72 1216.08 1153.43 1202.47 1127.98 1223.61"/><polygon class="cls-2" points="1252.35 1237.46 1223.54 1253.72 1207.29 1224.92 1191.89 1233.59 1208.14 1262.4 1179.34 1278.64 1188.02 1294.06 1216.82 1277.81 1233.07 1306.63 1248.47 1297.92 1232.23 1269.12 1261.04 1252.87 1252.35 1237.46"/><polygon class="cls-2" points="944.81 1188.61 929.45 1179.88 913.1 1208.62 884.34 1192.27 875.6 1207.65 904.35 1223.99 888.01 1252.75 903.38 1261.48 919.73 1232.73 948.49 1249.08 957.23 1233.71 928.47 1217.35 944.81 1188.61"/><polygon class="cls-2" points="850.77 1238.18 836.84 1227.3 816.47 1253.36 790.41 1232.98 779.5 1246.92 805.57 1267.3 785.2 1293.35 799.14 1304.23 819.5 1278.17 845.57 1298.54 856.47 1284.61 830.4 1264.25 850.77 1238.18"/><polygon class="cls-2" points="942.16 1305.35 911.89 1318.71 898.53 1288.44 882.35 1295.59 895.72 1325.85 865.47 1339.21 872.61 1355.39 902.87 1342.02 916.23 1372.28 932.4 1365.12 919.03 1334.88 949.3 1321.51 942.16 1305.35"/><polygon class="cls-2" points="1051.04 1222.04 1061.21 1207.59 1034.18 1188.54 1053.23 1161.51 1038.78 1151.32 1019.73 1178.37 992.69 1159.3 982.49 1173.76 1009.53 1192.81 990.48 1219.85 1004.93 1230.03 1023.99 1202.99 1051.04 1222.04"/><polygon class="cls-2" points="1115.31 802.64 1082.73 808.45 1076.92 775.88 1059.51 779.01 1065.33 811.57 1032.78 817.38 1035.88 834.78 1068.43 828.97 1074.24 861.53 1091.65 858.43 1085.83 825.87 1118.4 820.05 1115.31 802.64"/><polygon class="cls-2" points="998.89 1126.26 1002.05 1108.86 969.5 1102.96 975.41 1070.41 958.01 1067.25 952.1 1099.79 919.56 1093.89 916.41 1111.29 948.96 1117.2 943.06 1149.74 960.44 1152.9 966.36 1120.35 998.89 1126.26"/><polygon class="cls-2" points="765.91 1002.21 780.41 972.47 810.13 986.97 817.89 971.06 788.15 956.57 802.63 926.84 786.74 919.09 772.26 948.83 742.52 934.34 734.77 950.23 764.51 964.72 750.02 994.46 765.91 1002.21"/><polygon class="cls-2" points="901.68 1036.71 872.12 1021.86 886.98 992.3 871.18 984.36 856.33 1013.92 826.77 999.07 818.82 1014.87 848.38 1029.72 833.51 1059.27 849.31 1067.21 864.19 1037.66 893.73 1052.51 901.68 1036.71"/><polygon class="cls-2" points="439.33 1240.55 469.69 1253.66 456.57 1284.02 472.79 1291.05 485.91 1260.68 516.29 1273.79 523.28 1257.56 492.92 1244.45 506.05 1214.07 489.81 1207.08 476.7 1237.43 446.34 1224.32 439.33 1240.55"/><polygon class="cls-2" points="412.05 1211.8 428 1182.81 456.98 1198.76 465.49 1183.27 436.51 1167.32 452.46 1138.34 436.98 1129.82 421.03 1158.8 392.04 1142.85 383.51 1158.36 412.5 1174.3 396.56 1203.28 412.05 1211.8"/><polygon class="cls-2" points="346.73 1086.61 320.61 1106.9 300.33 1080.77 286.36 1091.6 306.65 1117.72 280.51 1138.03 291.36 1151.98 317.49 1131.7 337.77 1157.83 351.75 1146.99 331.46 1120.86 357.59 1100.57 346.73 1086.61"/><polygon class="cls-2" points="262.34 1020.53 232.48 1034.78 218.24 1004.93 202.28 1012.54 216.53 1042.4 186.68 1056.64 194.29 1072.6 224.15 1058.35 238.39 1088.2 254.35 1080.59 240.11 1050.74 269.96 1036.49 262.34 1020.53"/><polygon class="cls-2" points="170.01 1281.86 186.5 1253.18 215.17 1269.66 223.99 1254.33 195.31 1237.84 211.79 1209.16 196.44 1200.37 179.97 1229.05 151.29 1212.56 142.49 1227.89 171.17 1244.38 154.69 1273.06 170.01 1281.86"/><polygon class="cls-2" points="524.58 1069.52 547.52 1045.69 571.35 1068.63 583.63 1055.91 559.81 1032.96 582.74 1009.13 570 996.87 547.06 1020.69 523.23 997.76 510.96 1010.49 534.78 1033.44 511.85 1057.27 524.58 1069.52"/><polygon class="cls-2" points="469.69 940.16 444.73 961.87 423.01 936.93 409.69 948.53 431.41 973.48 406.45 995.2 418.06 1008.53 443.01 986.83 464.73 1011.77 478.06 1000.16 456.35 975.21 481.31 953.5 469.69 940.16"/><polygon class="cls-2" points="463.91 1039.41 439.29 1061.5 417.2 1036.88 404.03 1048.69 426.13 1073.3 401.5 1095.39 413.31 1108.54 437.94 1086.47 460.03 1111.09 473.19 1099.29 451.1 1074.65 475.73 1052.58 463.91 1039.41"/><polygon class="cls-2" points="1109.6 961.61 1079.66 947.56 1093.69 917.61 1077.7 910.1 1063.64 940.04 1033.7 926 1026.18 942.02 1056.14 956.06 1042.08 986 1058.1 993.51 1072.14 963.57 1102.1 977.61 1109.6 961.61"/><polygon class="cls-2" points="1188.61 871.59 1157.62 883.19 1146.03 852.22 1129.47 858.42 1141.06 889.39 1110.08 900.99 1116.29 917.54 1147.27 905.95 1158.86 936.93 1175.42 930.74 1163.82 899.75 1194.8 888.17 1188.61 871.59"/><polygon class="cls-2" points="1302.56 853.36 1271.57 864.95 1259.98 833.98 1243.43 840.17 1255.01 871.16 1224.04 882.75 1230.24 899.3 1261.21 887.71 1272.82 918.7 1289.38 912.5 1277.78 881.51 1308.76 869.92 1302.56 853.36"/><polygon class="cls-2" points="919.55 950.14 895.84 927.09 918.9 903.37 906.23 891.04 883.17 914.77 859.45 891.69 847.13 904.36 870.85 927.43 847.78 951.14 860.46 963.48 883.51 939.76 907.23 962.83 919.55 950.14"/><polygon class="cls-2" points="979.12 922.19 992.22 891.82 1022.59 904.93 1029.6 888.7 999.24 875.59 1012.36 845.22 996.13 838.21 983 868.58 952.64 855.46 945.62 871.68 975.99 884.81 962.87 915.18 979.12 922.19"/><polygon class="cls-2" points="913.97 821.07 942.46 804.26 933.49 789.04 904.99 805.84 888.19 777.33 872.96 786.31 889.76 814.8 861.26 831.61 870.25 846.84 898.75 830.04 915.54 858.53 930.77 849.55 913.97 821.07"/><polygon class="cls-2" points="826.81 820.49 798.31 837.28 781.51 808.78 766.27 817.76 783.07 846.25 754.58 863.05 763.57 878.29 792.05 861.48 808.85 889.98 824.09 881 807.28 852.51 835.78 835.7 826.81 820.49"/><polygon class="cls-2" points="715.48 746.99 686.99 763.78 670.2 735.29 654.96 744.26 671.76 772.77 643.27 789.57 652.25 804.8 680.75 787.99 697.55 816.49 712.78 807.5 695.97 779.01 724.47 762.22 715.48 746.99"/><polygon class="cls-2" points="623.4 815.64 590.92 809.47 597.09 776.97 579.71 773.65 573.53 806.15 541.04 799.97 537.75 817.34 570.25 823.53 564.05 856.01 581.44 859.33 587.61 826.82 620.11 833.01 623.4 815.64"/><polygon class="cls-2" points="1012.04 979.18 979.67 986.06 972.79 953.7 955.5 957.38 962.39 989.74 930.03 996.63 933.7 1013.91 966.05 1007.02 972.93 1039.39 990.25 1035.71 983.36 1003.36 1015.71 996.48 1012.04 979.18"/><polygon class="cls-2" points="669.2 934.15 657.85 965.22 626.78 953.86 620.71 970.48 651.77 981.83 640.42 1012.89 657.04 1018.96 668.38 987.89 699.46 999.24 705.52 982.63 674.45 971.29 685.81 940.21 669.2 934.15"/><polygon class="cls-2" points="547.95 1180.96 564.85 1175.79 555.19 1144.15 586.83 1134.49 581.65 1117.58 550.02 1127.25 540.36 1095.62 523.44 1100.78 533.12 1132.42 501.47 1142.09 506.65 1159.01 538.27 1149.35 547.95 1180.96"/><polygon class="cls-2" points="763.03 1119.32 765.87 1086.37 798.82 1089.22 800.34 1071.59 767.38 1068.75 770.23 1035.8 752.6 1034.27 749.76 1067.22 716.81 1064.38 715.29 1081.99 748.25 1084.83 745.42 1117.8 763.03 1119.32"/><polygon class="cls-2" points="586.22 1272.85 592.1 1240.31 624.66 1246.19 627.8 1228.79 595.24 1222.91 601.13 1190.34 583.74 1187.2 577.86 1219.76 545.3 1213.86 542.15 1231.26 574.7 1237.16 568.81 1269.71 586.22 1272.85"/><polygon class="cls-2" points="728.65 1246.02 714.06 1236.05 695.41 1263.37 668.09 1244.72 658.11 1259.32 685.41 1277.97 666.77 1305.29 681.38 1315.25 700.04 1287.93 727.35 1306.59 737.32 1291.98 710 1273.34 728.65 1246.02"/><polygon class="cls-2" points="901.19 1134.11 869.14 1125.9 877.34 1093.86 860.22 1089.48 851.99 1121.52 819.96 1113.32 815.57 1130.45 847.61 1138.66 839.41 1170.69 856.54 1175.08 864.74 1143.03 896.79 1151.24 901.19 1134.11"/><polygon class="cls-2" points="773.29 1195.51 803.17 1209.73 810.76 1193.78 780.9 1179.55 795.12 1149.69 779.16 1142.09 764.93 1171.95 735.07 1157.73 727.46 1173.69 757.33 1187.92 743.11 1217.79 759.08 1225.37 773.29 1195.51"/><polygon class="cls-2" points="648.59 1217.87 665.99 1189.73 694.12 1207.12 703.43 1192.08 675.29 1174.68 692.68 1146.55 677.62 1137.26 660.24 1165.39 632.1 1148.01 622.81 1163.04 650.94 1180.43 633.56 1208.57 648.59 1217.87"/><polygon class="cls-2" points="675.77 1115.11 688.88 1103.24 666.67 1078.72 691.21 1056.54 679.33 1043.42 654.82 1065.62 632.61 1041.1 619.5 1052.98 641.7 1077.49 617.19 1099.69 629.05 1112.8 653.58 1090.6 675.77 1115.11"/><polygon class="cls-2" points="364.69 984.25 340.18 1006.47 317.96 981.96 304.87 993.82 327.08 1018.33 302.56 1040.55 314.43 1053.66 338.94 1031.45 361.15 1055.95 374.26 1044.08 352.05 1019.57 376.56 997.36 364.69 984.25"/><polygon class="cls-2" points="231.61 1105.86 207.1 1128.07 184.9 1103.56 171.79 1115.43 194 1139.94 169.48 1162.15 181.36 1175.26 205.87 1153.05 228.09 1177.57 241.18 1165.69 218.97 1141.17 243.48 1118.96 231.61 1105.86"/><polygon class="cls-2" points="324.25 1197.77 294.51 1212.22 280.06 1182.47 264.16 1190.19 278.61 1219.94 248.86 1234.41 256.58 1250.32 286.33 1235.85 300.8 1265.61 316.69 1257.87 302.25 1228.12 331.98 1213.67 324.25 1197.77"/><polygon class="cls-2" points="419.31 1271.09 414.6 1254.05 382.71 1262.89 373.88 1231.01 356.84 1235.75 365.68 1267.63 333.81 1276.46 338.53 1293.5 370.42 1284.66 379.23 1316.54 396.27 1311.81 387.44 1279.95 419.31 1271.09"/><polygon class="cls-2" points="812.14 1342.35 802.46 1327.55 774.78 1345.67 756.67 1317.99 741.88 1327.68 759.98 1355.35 732.31 1373.47 742 1388.27 769.68 1370.15 787.79 1397.83 802.58 1388.14 784.46 1360.47 812.14 1342.35"/><polygon class="cls-2" points="590.21 1302.87 561.01 1318.41 545.47 1289.21 529.87 1297.51 545.4 1326.7 516.2 1342.25 524.49 1357.85 553.71 1342.32 569.23 1371.53 584.85 1363.22 569.31 1334.02 598.51 1318.48 590.21 1302.87"/><polygon class="cls-2" points="508.02 841.1 478.89 856.79 463.21 827.65 447.63 836.06 463.33 865.18 434.19 880.88 442.58 896.42 471.7 880.75 487.38 909.86 502.96 901.49 487.27 872.36 516.39 856.67 508.02 841.1"/><polygon class="cls-2" points="701.39 878.12 727.88 858.3 717.29 844.14 690.79 863.97 670.97 837.48 656.82 848.07 676.63 874.54 650.15 894.38 660.75 908.54 687.24 888.7 707.05 915.19 721.21 904.6 701.39 878.12"/><polygon class="cls-2" points="599.36 897.49 571.33 915.06 553.76 887.04 538.79 896.46 556.36 924.47 528.35 942.05 537.74 957.03 565.76 939.45 583.33 967.47 598.31 958.08 580.73 930.05 608.76 912.49 599.36 897.49"/><polygon class="cls-2" points="402.2 910.98 370.02 903.31 377.68 871.13 360.48 867.04 352.81 899.21 320.65 891.55 316.54 908.77 348.73 916.42 341.08 948.6 358.27 952.7 365.92 920.52 398.1 928.18 402.2 910.98"/><polygon class="cls-2" points="253.03 987.52 260.69 955.35 292.87 963.01 296.96 945.82 264.78 938.16 272.44 905.98 255.24 901.88 247.58 934.06 215.41 926.4 211.31 943.61 243.5 951.26 235.83 983.43 253.03 987.52"/><polygon class="cls-2" points="877.57 710.36 846.79 722.46 853.26 738.92 884.04 726.81 896.15 757.6 912.6 751.12 900.5 720.34 931.27 708.23 924.79 691.77 894.01 703.88 881.9 673.11 865.47 679.57 877.57 710.36"/><polygon class="cls-2" points="760.35 778.69 784.79 756.41 807.07 780.86 820.14 768.96 797.86 744.5 822.3 722.23 810.4 709.15 785.96 731.43 763.67 706.97 750.61 718.88 772.88 743.34 748.44 765.62 760.35 778.69"/><polygon class="cls-2" points="1074.98 746.25 1105.54 733.6 1118.2 764.16 1134.54 757.4 1121.88 726.83 1152.46 714.18 1145.68 697.86 1115.11 710.5 1102.47 679.94 1086.13 686.7 1098.78 717.26 1068.22 729.91 1074.98 746.25"/><polygon class="cls-2" points="1183.47 668.57 1211.92 685.44 1195.08 713.89 1210.28 722.91 1227.14 694.45 1255.6 711.32 1264.62 696.1 1236.15 679.24 1253.01 650.77 1237.81 641.76 1220.94 670.23 1192.49 653.37 1183.47 668.57"/><polygon class="cls-2" points="1345.54 741.58 1314.1 751.9 1303.79 720.47 1286.98 725.99 1297.31 757.43 1265.88 767.74 1271.39 784.53 1302.82 774.22 1313.15 805.64 1329.94 800.14 1319.63 768.7 1351.06 758.38 1345.54 741.58"/><polygon class="cls-2" points="1028.04 721.95 998.83 737.48 983.3 708.27 967.68 716.58 983.21 745.78 954.02 761.31 962.32 776.92 991.53 761.38 1007.06 790.6 1022.67 782.29 1007.13 753.09 1036.33 737.54 1028.04 721.95"/><polygon class="cls-2" points="38.88 115.69 42.84 98.46 10.6 91.06 17.99 58.83 0.74 54.89 0 58.12 0 137.26 6.64 108.31 38.88 115.69"/><polygon class="cls-2" points="1417.32 2.39 1417.32 0 1406.87 0 1408.05 4.71 1417.32 2.39"/><polygon class="cls-2" points="1399.35 136.6 1416.57 140.55 1417.32 137.26 1417.32 58.12 1410.67 87.12 1378.44 79.74 1374.49 96.96 1406.73 104.36 1399.35 136.6"/><polygon class="cls-2" points="22.82 1414 23.66 1417.33 41.89 1417.33 39.98 1409.71 72.06 1401.68 67.77 1384.53 35.68 1392.56 27.64 1360.47 10.49 1364.76 18.52 1396.86 0 1401.49 0 1417.33 9.53 1417.33 22.82 1414"/><polygon class="cls-2" points="126.44 1381.88 120.88 1349.27 153.5 1343.72 150.53 1326.29 117.92 1331.85 112.36 1299.23 94.94 1302.2 100.51 1334.8 67.88 1340.36 70.85 1357.79 103.45 1352.24 109.01 1384.86 126.44 1381.88"/><polygon class="cls-2" points="761.97 1417.33 778.64 1417.33 778.9 1416.75 762.71 1409.63 760.57 1414.52 759.33 1417.33 761.97 1417.33"/><polygon class="cls-2" points="870.74 1406.42 861.71 1374.59 844.69 1379.4 853.72 1411.23 832.2 1417.33 897.05 1417.33 907.38 1414.39 902.56 1397.39 870.74 1406.42"/><polygon class="cls-2" points="1013.68 1373.09 996.97 1367.33 986.16 1398.58 954.9 1387.78 949.11 1404.49 980.38 1415.3 979.69 1417.33 1033.39 1417.33 1034.14 1415.16 1002.88 1404.35 1013.68 1373.09"/><polygon class="cls-2" points="1151.56 1417.33 1162.36 1417.33 1161.32 1414.15 1151.56 1417.33"/><polygon class="cls-2" points="1102.83 1398.38 1108.99 1417.33 1127.58 1417.33 1119.65 1392.91 1102.83 1398.38"/><polygon class="cls-2" points="1360.38 1340.7 1328.11 1333.41 1335.41 1301.14 1318.16 1297.24 1310.86 1329.5 1278.6 1322.2 1274.69 1339.43 1306.96 1346.74 1299.65 1379.01 1316.89 1382.91 1324.19 1350.65 1356.45 1357.96 1360.38 1340.7"/><polygon class="cls-2" points="1344.19 1417.33 1363 1417.33 1368.17 1403.09 1351.54 1397.08 1344.19 1417.33"/><polygon class="cls-2" points="685.69 1337.43 657.27 1354.34 640.34 1325.93 625.16 1334.97 642.08 1363.39 613.66 1380.31 622.7 1395.51 651.11 1378.6 668.04 1407.01 683.24 1397.95 666.31 1369.53 694.72 1352.61 685.69 1337.43"/><polygon class="cls-2" points="541.34 1375.62 527.32 1405.57 497.36 1391.54 489.86 1407.56 510.72 1417.33 552.43 1417.33 543.34 1413.07 557.35 1383.11 541.34 1375.62"/><polygon class="cls-2" points="361.48 1338.26 347.36 1327.63 327.49 1354.09 301.04 1334.22 290.43 1348.38 316.87 1368.23 297.01 1394.69 311.15 1405.29 331.01 1378.85 357.46 1398.71 368.09 1384.57 341.63 1364.71 361.48 1338.26"/><polygon class="cls-2" points="246.36 1293.38 221.46 1315.16 199.69 1290.26 186.38 1301.89 208.14 1326.8 183.25 1348.57 194.87 1361.88 219.78 1340.11 241.55 1365.02 254.86 1353.38 233.08 1328.48 257.99 1306.71 246.36 1293.38"/><polygon class="cls-2" points="1411.4 238.53 1417.32 246.29 1417.32 211.8 1414.76 213.75 1394.71 187.44 1380.64 198.16 1400.69 224.46 1374.38 244.53 1385.09 258.58 1411.4 238.53"/><polygon class="cls-2" points="1387.66 596.45 1414.16 616.24 1394.38 642.74 1408.55 653.31 1417.32 641.58 1417.32 596.52 1398.25 582.28 1387.66 596.45"/><polygon class="cls-2" points="1205.75 504.88 1234.42 488.39 1250.93 517.07 1266.23 508.26 1249.74 479.58 1278.42 463.08 1269.6 447.77 1240.93 464.25 1224.43 435.59 1209.11 444.39 1225.6 473.07 1196.92 489.56 1205.75 504.88"/><polygon class="cls-2" points="1385.78 1279.1 1379.17 1295.48 1409.83 1307.88 1397.44 1338.53 1413.82 1345.17 1417.32 1336.53 1417.32 1289.33 1416.44 1291.48 1385.78 1279.1"/><polygon class="cls-2" points="1345.65 1227.82 1337.6 1195.74 1320.44 1200.04 1328.49 1232.13 1296.41 1240.17 1300.73 1257.33 1332.81 1249.27 1340.86 1281.34 1358.02 1277.04 1349.95 1244.96 1382.03 1236.91 1377.74 1219.76 1345.65 1227.82"/><polygon class="cls-2" points="1250.03 1166.84 1220.38 1181.95 1228.46 1197.96 1258.12 1182.85 1273.24 1212.79 1289.08 1204.71 1273.98 1174.76 1303.63 1159.66 1295.56 1143.65 1265.89 1158.77 1250.79 1128.82 1234.92 1136.89 1250.03 1166.84"/><polygon class="cls-2" points="1363.07 1035.72 1332.98 1049.47 1319.23 1019.38 1303.15 1026.73 1316.89 1056.81 1286.81 1070.57 1294.16 1086.64 1324.25 1072.89 1338 1102.99 1354.08 1095.63 1340.32 1065.55 1370.42 1051.8 1363.07 1035.72"/><polygon class="cls-2" points="1391.28 1110.07 1374.12 1114.3 1382.04 1146.43 1349.92 1154.33 1354.15 1171.52 1386.26 1163.59 1394.19 1195.73 1411.36 1191.47 1403.43 1159.36 1417.32 1155.93 1417.32 1137.72 1399.21 1142.19 1391.28 1110.07"/><polygon class="cls-2" points="1231.67 1096.02 1263.17 1106.18 1268.59 1089.35 1237.11 1079.19 1247.26 1047.72 1230.45 1042.29 1220.29 1073.77 1188.81 1063.6 1183.37 1080.43 1214.85 1090.6 1204.68 1122.07 1221.52 1127.49 1231.67 1096.02"/><polygon class="cls-2" points="1166.81 1170.95 1177.86 1157.15 1152.03 1136.47 1172.72 1110.66 1158.92 1099.61 1138.23 1125.41 1112.41 1104.73 1101.37 1118.53 1127.18 1139.21 1106.51 1165.04 1120.29 1176.1 1140.98 1150.28 1166.81 1170.95"/><polygon class="cls-2" points="1392.74 1013.01 1417.32 1034.49 1417.32 1011 1404.38 999.69 1392.74 1013.01"/><polygon class="cls-2" points="1409.2 1071.31 1417.32 1062.02 1417.32 1035.15 1395.88 1059.68 1409.2 1071.31"/><polygon class="cls-2" points="1390.42 922.72 1360.73 937.28 1346.16 907.58 1330.3 915.37 1344.87 945.06 1315.17 959.64 1322.95 975.51 1352.64 960.93 1367.22 990.62 1383.1 982.85 1368.54 953.15 1398.24 938.59 1390.42 922.72"/><polygon class="cls-2" points="1371.44 793.86 1354.14 797.51 1360.98 829.87 1328.61 836.71 1332.26 854.01 1364.62 847.18 1371.45 879.54 1388.76 875.88 1381.93 843.51 1414.29 836.67 1410.64 819.38 1378.28 826.22 1371.44 793.86"/><polygon class="cls-2" points="1225.08 616.66 1243.56 589.22 1270.99 607.71 1280.87 593.05 1253.44 574.57 1271.93 547.13 1257.26 537.26 1238.78 564.68 1211.36 546.19 1201.46 560.86 1228.91 579.35 1210.42 606.78 1225.08 616.66"/><polygon class="cls-2" points="1243.28 388.87 1276.11 392.79 1272.21 425.64 1289.76 427.72 1293.67 394.87 1326.52 398.8 1328.61 381.24 1295.77 377.33 1299.68 344.48 1282.13 342.38 1278.21 375.22 1245.37 371.31 1243.28 388.87"/><polygon class="cls-2" points="1412.43 529.37 1417.32 525.43 1417.32 502.74 1401.33 515.61 1412.43 529.37"/><polygon class="cls-2" points="1417.32 482.7 1417.32 460.27 1406.37 469.09 1417.32 482.7"/><polygon class="cls-2" points="1345.32 337.5 1351.54 354.05 1382.51 342.39 1394.17 373.35 1410.71 367.12 1399.06 336.17 1417.32 329.29 1417.32 310.39 1392.83 319.62 1381.16 288.66 1364.62 294.89 1376.27 325.85 1345.32 337.5"/><polygon class="cls-2" points="209.14 1415.75 176.63 1409.66 175.19 1417.33 226.84 1417.33 232.62 1386.51 215.23 1383.25 209.14 1415.75"/><polygon class="cls-2" points="1406.87 1417.33 1417.32 1417.33 1417.32 1401.49 1403.76 1404.88 1406.87 1417.33"/></pattern></defs><title>bkgd-circle-white</title><path class="cls-3" d="M320,10C148.79,10,10,148.79,10,320S148.79,630,320,630,630,491.21,630,320,491.21,10,320,10Zm0,504.05c-107.17,0-194-86.88-194-194S212.83,126,320,126s194,86.88,194,194.05S427.17,514.05,320,514.05Z"/></svg>