<svg xmlns="http://www.w3.org/2000/svg" viewBox="0 0 262.66 39.46"><defs><style>.cls-1{fill:#fff;}</style></defs><title>logo-domaine-de-la-garenne-lemot-blanc</title><g id="Calque_2" data-name="Calque 2"><g id="Calque_1-2" data-name="Calque 1"><path class="cls-1" d="M56.76,12.5c2.69,0,4-1.68,4-4.64S59.43,3,56.83,3H54.35V12.5ZM50.78,0h6.46c4.36,0,7.15,3.1,7.15,7.85,0,4.6-2.61,7.64-7.36,7.64H50.78Z"/><path class="cls-1" d="M73.57,10c0-2.1-.91-3.54-2.54-3.54S68.49,7.88,68.49,10s.88,3.5,2.54,3.5,2.54-1.41,2.54-3.5m-8.39,0a5.86,5.86,0,1,1,11.71,0,5.86,5.86,0,1,1-11.71,0"/><path class="cls-1" d="M78.13,4.42h3.15V6.15h.06a3.55,3.55,0,0,1,3.34-2,3.1,3.1,0,0,1,3,2.1h0a4,4,0,0,1,3.52-2.1C93.74,4.11,95,5.73,95,8.19v7.32H91.76V8.73c0-1.2-.58-1.93-1.65-1.93s-1.89,1-1.89,2.39v6.32H85V8.73c0-1.2-.54-1.93-1.63-1.93s-1.91,1-1.91,2.39v6.32H78.13Z"/><path class="cls-1" d="M103.47,11.53V10.09a6.77,6.77,0,0,1-1.92.62c-1.44.32-2.13.67-2.13,1.63s.73,1.31,1.63,1.31a2.19,2.19,0,0,0,2.42-2.12m0,2.62h0A3.68,3.68,0,0,1,100,15.8c-2.19,0-3.79-1.17-3.79-3.36,0-2.46,1.93-3.08,4.35-3.37,2-.27,2.79-.59,2.79-1.42s-.52-1.33-1.64-1.33-1.86.58-1.94,1.46h-3c.08-1.9,1.62-3.67,4.91-3.67a6.09,6.09,0,0,1,3.19.67,3.53,3.53,0,0,1,1.69,3.31v5.69c0,.87.12,1.35.42,1.54v.18H103.8a3.22,3.22,0,0,1-.38-1.35"/><path class="cls-1" d="M108.38,4.42h3.27V15.5h-3.27Zm0-4.41h3.31V2.86h-3.31Z"/><path class="cls-1" d="M116.59,6.11h.06a3.6,3.6,0,0,1,3.42-2c2.43,0,3.85,1.62,3.85,4.1V15.5h-3.25V8.84a1.79,1.79,0,0,0-1.85-2,2.2,2.2,0,0,0-2.13,2.44V15.5h-3.27V4.42h3.17Z"/><path class="cls-1" d="M128.31,8.9H133c-.1-1.54-1-2.48-2.27-2.48-1.5,0-2.25,1-2.46,2.48M125.09,10a5.58,5.58,0,0,1,5.68-5.87,5.43,5.43,0,0,1,3.82,1.42,7.08,7.08,0,0,1,1.79,5.27h-8.09c.21,1.66,1.11,2.66,2.69,2.66a2.05,2.05,0,0,0,2-1.08h3.17c-.56,2-2.38,3.46-5.23,3.46A5.57,5.57,0,0,1,125.09,10"/><path class="cls-1" d="M58.69,33.56C58.69,31,57.24,29,55.38,29a2.29,2.29,0,0,0-1.71.73c-.76.79-1.05,1.91-1.05,4.27S53,37.65,54,38.32a2.1,2.1,0,0,0,1.26.41c2-.08,3.4-2.12,3.4-5.17M56.17,22.87a35.91,35.91,0,0,0,3.73-.17l.27,0h.33V37.06c0,1,.5,1.52,1.38,1.52h.74v.36H60.71a7.25,7.25,0,0,0-1.76.21h-.24V36.27c-.35.79-1.3,2.88-3.61,2.88s-4.57-2.5-4.57-5.28,2.07-5.24,4.61-5.24c1.55,0,2.62.76,3.55,2.57V24.68a1.34,1.34,0,0,0-1.43-1.45H56.17Z"/><path class="cls-1" d="M70.12,33c.52,0,.69-.19.69-.81,0-2-1-3.26-2.55-3.26a2.23,2.23,0,0,0-2.05,1.57,6.25,6.25,0,0,0-.43,2.5ZM73,35.08a5.64,5.64,0,0,1-.66,1.81,4.39,4.39,0,0,1-3.81,2.26c-2.72,0-4.79-2.38-4.79-5.4,0-2.86,2-5.17,4.53-5.17s4.38,2.05,4.64,4.88h-7.1c0,1.6,0,5.22,3,5.22,1.88,0,3.35-1.38,3.85-3.6Z"/><path class="cls-1" d="M81.14,24.7c0-.88-.33-1.3-1-1.3h-.88V23c.83,0,1.69-.07,2-.09l1.19-.14H83c0,4.19,0,7,0,9,0,6.48,0,6.33.29,6.62a1,1,0,0,0,.71.21h.76v.36H79.35v-.36h.84c.71,0,1-.31,1-1.16Z"/><path class="cls-1" d="M92.85,33.27a11.6,11.6,0,0,1-1.4.5c-1.07.31-2.91.84-2.91,2.81,0,1.19.67,2.05,1.6,2.05,1.45,0,2.71-1.59,2.71-3.43Zm4.36,1.34c0,3-.76,4.54-2.26,4.54-1,0-1.62-.76-1.93-2.47-.79,1.76-1.76,2.47-3.36,2.47a2.84,2.84,0,0,1-3-2.61,2.36,2.36,0,0,1,.73-1.67,5.81,5.81,0,0,1,3.12-1.33,12.56,12.56,0,0,0,2.31-.72V31.11c0-1.29-.81-2-2.31-2-1,0-2.14.55-2.14,1.05,0,.16.1.26.4.42.55.29.74.57.74,1.05a1,1,0,0,1-1,1.05,1.32,1.32,0,0,1-1.19-1.36c0-1.5,1.6-2.66,3.67-2.66,2.4,0,3.62,1.09,3.62,3.23v4.55c0,1.17.33,1.9.85,1.9.81,0,1.19-.92,1.34-3.23l0-.48Z"/><path class="cls-1" d="M117.06,39.46a9,9,0,0,0-1.14-3.35c-1.36,2.31-2.88,3.35-4.88,3.35-3.69,0-7.07-3.92-7.07-8.19,0-3.59,2.93-8.66,7.21-8.66,1.83,0,3.24.83,4.62,2.71a5,5,0,0,0,1.07-2.69h.41l.35,7.45h-.38a16.66,16.66,0,0,0-1-2.95c-1-2.35-2.65-4.16-5-4.16-4.19,0-4.53,4.83-4.53,8.78,0,5,1.38,7.33,4.31,7.33a4.17,4.17,0,0,0,4.1-4.33V33.42a.75.75,0,0,0-.81-.76H112l0-.36h7.86v.36h-1.55a.79.79,0,0,0-.88.9v5.9Z"/><path class="cls-1" d="M127.58,33.27a11,11,0,0,1-1.4.5c-1.07.31-2.9.84-2.9,2.81,0,1.19.66,2.05,1.59,2.05,1.45,0,2.71-1.59,2.71-3.43Zm4.36,1.34c0,3-.76,4.54-2.26,4.54-1,0-1.62-.76-1.93-2.47-.78,1.76-1.76,2.47-3.36,2.47a2.84,2.84,0,0,1-3-2.61,2.34,2.34,0,0,1,.74-1.67,5.77,5.77,0,0,1,3.12-1.33,12.42,12.42,0,0,0,2.3-.72V31.11c0-1.29-.81-2-2.3-2-1,0-2.15.55-2.15,1.05,0,.16.1.26.41.42.55.29.74.57.74,1.05a1,1,0,0,1-1,1.05,1.31,1.31,0,0,1-1.19-1.36c0-1.5,1.59-2.66,3.66-2.66,2.41,0,3.62,1.09,3.62,3.23v4.55c0,1.17.33,1.9.86,1.9.81,0,1.19-.92,1.33-3.23l.05-.48Z"/><path class="cls-1" d="M135.2,30.39A1,1,0,0,0,134,29.32h-.71V29c.9,0,1.74,0,2.07-.08l1.28-.16H137v2.71c.6-1.36,1.22-2.81,2.77-2.81a1.81,1.81,0,0,1,1.92,1.88,1.17,1.17,0,0,1-1,1.29,1,1,0,0,1-1-1.07,1.25,1.25,0,0,1,.55-1c.19-.17.26-.26.26-.36s-.24-.36-.67-.36a2.11,2.11,0,0,0-1.36.55c-1.35,1.33-1.4,3.31-1.45,4.86v3c0,.85.24,1.16,1,1.16h.77v.36h-5.31v-.36h.83c.71,0,.95-.31.95-1.16Z"/><path class="cls-1" d="M149,33c.52,0,.69-.19.69-.81,0-2-1-3.26-2.55-3.26a2.21,2.21,0,0,0-2,1.57,6.25,6.25,0,0,0-.43,2.5Zm2.86,2.07a5.87,5.87,0,0,1-.67,1.81,4.39,4.39,0,0,1-3.81,2.26c-2.71,0-4.78-2.38-4.78-5.4,0-2.86,2-5.17,4.52-5.17s4.38,2.05,4.64,4.88h-7.09c0,1.6-.05,5.22,2.95,5.22,1.88,0,3.36-1.38,3.86-3.6Z"/><path class="cls-1" d="M156.82,31.7a4.09,4.09,0,0,1,3.64-3,3.31,3.31,0,0,1,2.14.8,4.54,4.54,0,0,1,1.07,3.24v4.72c0,.85.27,1.16,1,1.16h.78v.36h-5.33v-.36h.83c.72,0,1-.31,1-1.16V32.11c0-2-.54-2.86-1.76-2.86-1.92,0-3.31,2.12-3.31,5.09v3.08c0,.85.24,1.16,1,1.16h.76v.36H153.2v-.36H154c.72,0,1-.31,1-1.16v-7c0-.67-.43-1.05-1.22-1.05h-.64V29h.81c.16,0,1.43-.09,1.69-.11l.71-.12h.48Z"/><path class="cls-1" d="M170.22,31.7a4.09,4.09,0,0,1,3.64-3,3.36,3.36,0,0,1,2.15.8,4.63,4.63,0,0,1,1.07,3.24v4.72c0,.85.26,1.16.95,1.16h.78v.36h-5.33v-.36h.83c.72,0,1-.31,1-1.16V32.11c0-2-.55-2.86-1.76-2.86-1.93,0-3.31,2.12-3.31,5.09v3.08c0,.85.23,1.16,1,1.16h.76v.36H166.6v-.36h.84c.71,0,.95-.31.95-1.16v-7c0-.67-.43-1.05-1.22-1.05h-.64V29h.81c.17,0,1.43-.09,1.69-.11l.71-.12h.48Z"/><path class="cls-1" d="M186.48,33c.52,0,.69-.19.69-.81,0-2-1-3.26-2.55-3.26a2.21,2.21,0,0,0-2,1.57,6.25,6.25,0,0,0-.43,2.5Zm2.86,2.07a5.87,5.87,0,0,1-.67,1.81,4.39,4.39,0,0,1-3.81,2.26c-2.71,0-4.78-2.38-4.78-5.4,0-2.86,2-5.17,4.52-5.17s4.38,2.05,4.64,4.88h-7.09c0,1.6-.05,5.22,2.95,5.22,1.88,0,3.36-1.38,3.86-3.6Z"/><path class="cls-1" d="M196,38.58h2c.77,0,1.12-.4,1.19-1.38V24.59c0-.89-.42-1.39-1.16-1.39h-2v-.35h8.43v.35h-1.65c-.76,0-1.19.5-1.19,1.39V37.32c0,.81.34,1.21,1,1.21h1.69c2.72,0,5.07-2.38,5.81-5.87h.31l-.19,6.28H196Z"/><path class="cls-1" d="M218.5,33c.52,0,.69-.19.69-.81,0-2-1-3.26-2.55-3.26a2.21,2.21,0,0,0-2,1.57,6.07,6.07,0,0,0-.43,2.5Zm2.86,2.07a5.87,5.87,0,0,1-.67,1.81,4.39,4.39,0,0,1-3.81,2.26c-2.71,0-4.78-2.38-4.78-5.4,0-2.86,2-5.17,4.52-5.17s4.38,2.05,4.64,4.88h-7.09c0,1.6,0,5.22,3,5.22,1.88,0,3.35-1.38,3.85-3.6Z"/><path class="cls-1" d="M226.4,32.11c.74-2.38,1.93-3.55,3.48-3.55,2.28,0,2.78,2.26,3,3,.81-2,2-3,3.48-3a2.76,2.76,0,0,1,2,.81,4.46,4.46,0,0,1,1,3v5.07c0,.85.24,1.16,1,1.16h.77v.36h-5.31v-.36h.83c.71,0,.95-.31.95-1.16V32c0-1.93-.54-2.86-1.66-2.86-1.69,0-3,2.19-3,5v3.27c0,.85.24,1.16,1,1.16h.76v.36h-5.31v-.36h.84c.71,0,.95-.31.95-1.16V32c0-2-.5-2.88-1.57-2.88-1.76,0-3.1,2.66-3.1,6.21v2.1c0,.85.24,1.16.95,1.16h.77v.36h-5.31v-.36h.83c.72,0,1-.31,1-1.16v-7a1.06,1.06,0,0,0-1.12-1.15h-.73V29h.9a12.69,12.69,0,0,0,2.33-.29h.43Z"/><path class="cls-1" d="M251.11,33.75c0-3.24-1-4.83-3-4.83-2.17,0-3.12,1.54-3.12,5,0,3.24,1,4.83,3,4.83,2.21,0,3.14-1.47,3.14-5m-8.14.14a5.36,5.36,0,0,1,4.95-5.35,5.2,5.2,0,0,1,5.19,5.3,5.07,5.07,0,1,1-10.14,0"/><path class="cls-1" d="M254.59,29.2c2.4-.83,3.12-2.69,3.45-4.9h.48V29h3.31v.66h-3.34v7.14a1.47,1.47,0,0,0,1.41,1.67c1.62,0,2.4-1.57,2.43-4.93h.33c0,2.57-.33,3.86-1.21,4.74a2.9,2.9,0,0,1-2.08.83,2.51,2.51,0,0,1-2.69-2.83V29.63h-2.09Z"/><path class="cls-1" d="M10,13.16A13.3,13.3,0,0,1,6,3.64V0H0V3.64a19.11,19.11,0,0,0,1.55,7.58,19.78,19.78,0,0,0,8.37,9.33L0,29l4.09,4.47L15.63,23.07V16.74A14,14,0,0,1,10,13.16"/><path class="cls-1" d="M37.5,11.13A19.17,19.17,0,0,0,39,3.55V0H33.09V3.55a13.54,13.54,0,0,1-4,9.58,14,14,0,0,1-5.67,3.61v6.33L35,33.49,39.06,29l-9.85-8.53a19.32,19.32,0,0,0,4.11-3.16,19.44,19.44,0,0,0,4.18-6.2"/><rect class="cls-1" x="16.37" y="23.81" width="6.33" height="15.25"/></g></g></svg>