<?xml version="1.0" encoding="utf-8"?>
<!-- Generator: Adobe Illustrator 24.1.2, SVG Export Plug-In . SVG Version: 6.00 Build 0)  -->
<svg version="1.1" id="calques" xmlns="http://www.w3.org/2000/svg" xmlns:xlink="http://www.w3.org/1999/xlink" x="0px" y="0px"
	 viewBox="0 0 733.3 200" style="enable-background:new 0 0 733.3 200;" xml:space="preserve">
<style type="text/css">
	.st0{enable-background:new    ;}
	.st1{fill:#004461;}
	.st2{fill:#AFCA00;}
	.st3{fill:#FFFFFF;}
</style>
<g id="Handicap">
	<g class="st0">
		<path d="M425.9,70.9h15.3c3.8,0,6.8,0.9,8.9,2.8c2.1,1.8,3.2,4.3,3.2,7.5s-1.1,5.7-3.2,7.5c-2.1,1.9-5.1,2.8-8.9,2.8h-8.9v14.7
			h-6.4V70.9z M440.4,86.5c2.2,0,3.9-0.5,5-1.4c1.1-0.9,1.7-2.2,1.7-3.9c0-1.8-0.6-3.1-1.7-4c-1.1-0.9-2.8-1.4-5.1-1.4h-8.2v10.7
			H440.4z"/>
	</g>
	<g class="st0">
		<path d="M481.4,81.1v25h-6.1v-4c-0.8,1.4-1.9,2.5-3.3,3.2s-3,1.2-4.9,1.2c-2.2,0-4.1-0.5-5.8-1.6c-1.7-1.1-3-2.6-3.9-4.5
			c-0.9-2-1.4-4.2-1.4-6.8s0.5-4.9,1.4-6.9c0.9-2,2.3-3.6,3.9-4.7c1.7-1.1,3.6-1.7,5.8-1.7c1.8,0,3.4,0.4,4.9,1.2
			c1.4,0.8,2.5,1.9,3.3,3.2v-3.8H481.4z M473.6,99.6c1.1-1.4,1.7-3.4,1.7-6c0-2.6-0.6-4.7-1.7-6.1c-1.1-1.4-2.7-2.1-4.8-2.1
			c-2.1,0-3.6,0.7-4.8,2.2c-1.1,1.5-1.7,3.5-1.7,6.1c0,2.6,0.6,4.6,1.7,6s2.8,2.1,4.8,2.1C470.9,101.7,472.5,101,473.6,99.6z"/>
	</g>
	<g class="st0">
		<path d="M504.1,80.9l0,5.7c-1.1-0.4-2.2-0.6-3.3-0.6c-2.1,0-3.7,0.6-4.8,1.8c-1.1,1.2-1.7,2.8-1.7,4.9v13.5h-6.1v-18
			c0-2.6-0.1-5-0.4-7.1h5.8l0.5,4.4c0.6-1.6,1.6-2.9,3-3.7c1.4-0.9,2.9-1.3,4.6-1.3C502.6,80.5,503.4,80.7,504.1,80.9z"/>
	</g>
	<g class="st0">
		<path d="M517.8,85.8V97c0,2.9,1.4,4.4,4.1,4.4c0.8,0,1.6-0.1,2.5-0.4v4.9c-1.1,0.4-2.4,0.6-4,0.6c-2.8,0-5-0.8-6.5-2.4
			c-1.5-1.6-2.3-3.9-2.3-6.8V85.8h-4.8v-4.7h4.8V75l6.2-2.1v8.2h6.6v4.7H517.8z"/>
		<path d="M528.3,69.8h6.9v6.1h-6.9V69.8z M528.7,106.2v-25h6.1v25H528.7z"/>
		<path d="M546.2,105c-1.9-1.1-3.4-2.6-4.4-4.5c-1-1.9-1.5-4.2-1.5-6.8c0-2.6,0.5-4.9,1.6-6.9c1.1-2,2.6-3.5,4.6-4.6
			c2-1.1,4.2-1.7,6.8-1.7c1.8,0,3.5,0.3,5.2,0.8c1.7,0.6,3,1.3,4,2.3l-1.7,4.4c-1.1-0.9-2.2-1.5-3.4-2c-1.2-0.4-2.4-0.7-3.5-0.7
			c-2.2,0-4,0.7-5.3,2.1c-1.3,1.4-1.9,3.4-1.9,6.1c0,2.6,0.6,4.7,1.9,6.1s3,2.1,5.3,2.1c1.2,0,2.3-0.2,3.5-0.7
			c1.2-0.5,2.3-1.1,3.4-2l1.7,4.4c-1.1,1-2.4,1.8-4.1,2.3c-1.7,0.6-3.5,0.8-5.3,0.8C550.4,106.6,548.2,106,546.2,105z"/>
		<path d="M566.2,69.8h6.9v6.1h-6.9V69.8z M566.6,106.2v-25h6.1v25H566.6z"/>
		<path d="M599.6,82.1c1.7,1.1,3,2.7,3.9,4.7c0.9,2,1.4,4.3,1.4,6.9s-0.5,4.8-1.4,6.8c-0.9,2-2.2,3.5-3.9,4.5
			c-1.7,1.1-3.6,1.6-5.8,1.6c-1.8,0-3.4-0.4-4.9-1.2s-2.5-1.9-3.3-3.2v14.7h-6.1V88.2c0-2.6-0.1-5-0.4-7.1h5.8l0.5,4.3
			c0.7-1.6,1.7-2.8,3.2-3.6c1.5-0.9,3.2-1.3,5.2-1.3C596,80.5,597.9,81,599.6,82.1z M597,99.6c1.1-1.4,1.7-3.4,1.7-6
			c0-2.6-0.6-4.7-1.7-6.1c-1.1-1.5-2.7-2.2-4.8-2.2c-2.1,0-3.7,0.7-4.9,2.1c-1.1,1.4-1.7,3.5-1.7,6.1c0,2.6,0.6,4.6,1.7,6
			c1.1,1.4,2.7,2.1,4.8,2.1S595.9,101,597,99.6z"/>
		<path d="M634.3,81.1v25h-6.1v-4c-0.8,1.4-1.9,2.5-3.3,3.2s-3,1.2-4.9,1.2c-2.2,0-4.1-0.5-5.8-1.6c-1.7-1.1-3-2.6-3.9-4.5
			c-0.9-2-1.4-4.2-1.4-6.8s0.5-4.9,1.4-6.9c0.9-2,2.3-3.6,3.9-4.7c1.7-1.1,3.6-1.7,5.8-1.7c1.8,0,3.4,0.4,4.9,1.2
			c1.4,0.8,2.5,1.9,3.3,3.2v-3.8H634.3z M626.5,99.6c1.1-1.4,1.7-3.4,1.7-6c0-2.6-0.6-4.7-1.7-6.1c-1.1-1.4-2.7-2.1-4.8-2.1
			c-2.1,0-3.6,0.7-4.8,2.2c-1.1,1.5-1.7,3.5-1.7,6.1c0,2.6,0.6,4.6,1.7,6s2.8,2.1,4.8,2.1C623.8,101.7,625.4,101,626.5,99.6z"/>
		<path d="M648.9,85.8V97c0,2.9,1.4,4.4,4.1,4.4c0.8,0,1.6-0.1,2.5-0.4v4.9c-1.1,0.4-2.4,0.6-4,0.6c-2.8,0-5-0.8-6.5-2.4
			c-1.5-1.6-2.3-3.9-2.3-6.8V85.8h-4.8v-4.7h4.8V75l6.2-2.1v8.2h6.6v4.7H648.9z"/>
		<path d="M659.4,69.8h6.9v6.1h-6.9V69.8z M659.8,106.2v-25h6.1v25H659.8z"/>
		<path d="M677.4,105c-1.9-1.1-3.4-2.6-4.5-4.5c-1-2-1.6-4.3-1.6-6.9c0-2.6,0.5-5,1.6-6.9c1-2,2.5-3.5,4.5-4.5
			c1.9-1.1,4.2-1.6,6.7-1.6c2.5,0,4.7,0.5,6.6,1.6c1.9,1.1,3.4,2.6,4.4,4.5c1,2,1.6,4.3,1.6,6.9c0,2.6-0.5,5-1.6,6.9
			c-1,2-2.5,3.5-4.4,4.5c-1.9,1.1-4.1,1.6-6.6,1.6C681.6,106.6,679.3,106,677.4,105z M688.9,99.7c1.1-1.4,1.7-3.4,1.7-6.1
			c0-2.7-0.6-4.7-1.7-6.1c-1.1-1.4-2.7-2.1-4.8-2.1c-2.1,0-3.7,0.7-4.8,2.1c-1.1,1.4-1.7,3.4-1.7,6.1c0,2.7,0.6,4.8,1.7,6.1
			c1.1,1.4,2.7,2.1,4.8,2.1C686.2,101.7,687.8,101,688.9,99.7z"/>
		<path d="M725.4,90.8v15.4h-6.2V91.1c0-2-0.4-3.4-1.1-4.3c-0.8-0.9-1.9-1.4-3.5-1.4c-1.9,0-3.4,0.6-4.6,1.8
			c-1.2,1.2-1.7,2.8-1.7,4.8v14.2h-6.1v-18c0-2.6-0.1-5-0.4-7.1h5.8l0.4,4.1c0.9-1.5,2-2.7,3.5-3.5c1.5-0.8,3.1-1.2,5-1.2
			C722.4,80.5,725.4,83.9,725.4,90.8z"/>
	</g>
	<g class="st0">
		<path d="M430,154.6c-1.9-1.1-3.4-2.6-4.4-4.5c-1-1.9-1.5-4.2-1.5-6.8c0-2.6,0.5-4.9,1.6-6.9c1.1-2,2.6-3.5,4.6-4.6
			c2-1.1,4.2-1.7,6.8-1.7c1.8,0,3.5,0.3,5.2,0.8c1.7,0.6,3,1.3,4,2.3l-1.7,4.4c-1.1-0.9-2.2-1.5-3.4-2s-2.4-0.7-3.5-0.7
			c-2.2,0-4,0.7-5.3,2.1c-1.3,1.4-1.9,3.4-1.9,6.1s0.6,4.7,1.9,6.1s3,2.1,5.3,2.1c1.2,0,2.3-0.2,3.5-0.7c1.2-0.5,2.3-1.1,3.4-2
			l1.7,4.4c-1.1,1-2.4,1.8-4.1,2.3c-1.7,0.6-3.5,0.8-5.3,0.8C434.2,156.2,431.9,155.6,430,154.6z"/>
		<path d="M450,119.4h6.9v6.1H450V119.4z M450.4,155.8v-25h6.1v25H450.4z"/>
		<path d="M471.2,135.4v11.2c0,2.9,1.4,4.4,4.1,4.4c0.8,0,1.6-0.1,2.5-0.4v4.9c-1.1,0.4-2.4,0.6-4,0.6c-2.8,0-5-0.8-6.5-2.4
			c-1.5-1.6-2.3-3.9-2.3-6.8v-11.5h-4.8v-4.7h4.8v-6.1l6.2-2.1v8.2h6.6v4.7H471.2z"/>
	</g>
	<g class="st0">
		<path d="M486.7,154.6c-1.9-1.1-3.4-2.6-4.5-4.5c-1-2-1.6-4.3-1.6-6.9s0.5-5,1.6-6.9c1-2,2.5-3.5,4.5-4.5c1.9-1.1,4.2-1.6,6.7-1.6
			c2.5,0,4.7,0.5,6.6,1.6c1.9,1.1,3.4,2.6,4.4,4.5c1,2,1.6,4.3,1.6,6.9s-0.5,5-1.6,6.9c-1,2-2.5,3.5-4.4,4.5
			c-1.9,1.1-4.1,1.6-6.6,1.6C490.9,156.2,488.7,155.6,486.7,154.6z M498.3,149.3c1.1-1.4,1.7-3.4,1.7-6.1c0-2.7-0.6-4.7-1.7-6.1
			c-1.1-1.4-2.7-2.1-4.8-2.1c-2.1,0-3.7,0.7-4.8,2.1c-1.1,1.4-1.7,3.4-1.7,6.1c0,2.7,0.6,4.8,1.7,6.1c1.1,1.4,2.7,2.1,4.8,2.1
			C495.5,151.3,497.1,150.6,498.3,149.3z"/>
		<path d="M534.3,130.7l-11.7,26.7c-1.3,3.1-3,5.4-5.1,6.8c-2.1,1.4-4.6,2.4-7.6,2.8l-1.4-4.8c2.3-0.5,4.1-1.2,5.3-2
			c1.2-0.8,2.1-2,2.9-3.6l0.8-1.8l-10.4-24.2h6.5l7.2,18l7.3-18H534.3z"/>
	</g>
	<g class="st0">
		<path d="M559.4,143.6h-17.3c0.1,2.7,0.8,4.7,2,5.9c1.2,1.3,3,1.9,5.4,1.9c2.7,0,5.3-0.9,7.6-2.7l1.8,4.3c-1.2,1-2.7,1.7-4.4,2.3
			c-1.7,0.6-3.5,0.9-5.3,0.9c-4.1,0-7.3-1.2-9.7-3.5c-2.3-2.3-3.5-5.5-3.5-9.5c0-2.5,0.5-4.8,1.5-6.8c1-2,2.5-3.5,4.3-4.6
			c1.9-1.1,4-1.7,6.3-1.7c3.4,0,6.2,1.1,8.2,3.3c2,2.2,3,5.3,3,9.2V143.6z M544.4,136c-1,1-1.7,2.4-2,4.2H554
			c-0.2-1.9-0.8-3.3-1.7-4.3c-0.9-1-2.2-1.4-3.9-1.4S545.4,135,544.4,136z"/>
		<path d="M588,140.4v15.4h-6.2v-15.1c0-2-0.4-3.4-1.1-4.3c-0.8-0.9-1.9-1.4-3.5-1.4c-1.9,0-3.4,0.6-4.6,1.8
			c-1.2,1.2-1.7,2.8-1.7,4.8v14.2h-6.1v-18c0-2.6-0.1-5-0.4-7.1h5.8l0.4,4.1c0.9-1.5,2-2.7,3.5-3.5c1.5-0.8,3.1-1.2,5-1.2
			C585,130.1,588,133.5,588,140.4z"/>
		<path d="M617.9,140.4v15.4h-6.2v-15.1c0-2-0.4-3.4-1.1-4.3c-0.8-0.9-1.9-1.4-3.5-1.4c-1.9,0-3.4,0.6-4.6,1.8
			c-1.2,1.2-1.7,2.8-1.7,4.8v14.2h-6.1v-18c0-2.6-0.1-5-0.4-7.1h5.8l0.4,4.1c0.9-1.5,2-2.7,3.5-3.5c1.5-0.8,3.1-1.2,5-1.2
			C614.9,130.1,617.9,133.5,617.9,140.4z"/>
		<path d="M646.4,143.6h-17.3c0.1,2.7,0.8,4.7,2,5.9c1.2,1.3,3,1.9,5.4,1.9c2.7,0,5.3-0.9,7.6-2.7l1.8,4.3c-1.2,1-2.7,1.7-4.4,2.3
			c-1.7,0.6-3.5,0.9-5.3,0.9c-4.1,0-7.3-1.2-9.7-3.5c-2.3-2.3-3.5-5.5-3.5-9.5c0-2.5,0.5-4.8,1.5-6.8c1-2,2.5-3.5,4.3-4.6
			c1.9-1.1,4-1.7,6.3-1.7c3.4,0,6.2,1.1,8.2,3.3c2,2.2,3,5.3,3,9.2V143.6z M631.4,136c-1,1-1.7,2.4-2,4.2H641
			c-0.2-1.9-0.8-3.3-1.7-4.3c-0.9-1-2.2-1.4-3.9-1.4S632.4,135,631.4,136z"/>
	</g>
</g>
<path class="st1" d="M188.8,45.4c-1.5-0.9-3.3-1.4-5.1-1.4c-2.5,0-5,1-6.7,2.8c-1.8,1.8-2.8,4.2-2.8,6.8c-0.1,0.4-0.1,0.8,0,1.2
	L188.8,45.4z"/>
<path class="st1" d="M344.2,103.5c-1.5-1-3.2-1.5-5-1.4c-2.5-0.1-5,0.9-6.7,2.8c-1.8,1.8-2.8,4.2-2.8,6.8c0,0.4,0,0.8,0,1.2
	L344.2,103.5z"/>
<path class="st1" d="M111.5,63.1c2.5,0,5-1,6.7-2.8c1.9-1.7,2.9-4.2,2.8-6.7c0-5.3-4.3-9.5-9.6-9.5c-2.5,0-4.9,1-6.7,2.8
	c-3.9,3.6-4.1,9.6-0.5,13.5c1.9,2,4.5,3.1,7.3,3.1L111.5,63.1z"/>
<path class="st1" d="M265.3,102c-2.5,0-5,1-6.7,2.8c-3.7,3.6-3.8,9.6-0.1,13.3c0,0,0.1,0.1,0.1,0.1c3.6,3.7,9.6,3.8,13.3,0.1
	c0,0,0.1-0.1,0.1-0.1c1.8-1.8,2.8-4.2,2.8-6.7c0-2.5-1-5-2.8-6.7C270.3,103,267.8,102,265.3,102z"/>
<path class="st1" d="M157.3,121.1c5.3,0,9.6-4.3,9.6-9.5c0-2.6-1-5-2.9-6.7c-3.7-3.7-9.8-3.7-13.5,0c0,0,0,0,0,0
	c-3.7,3.7-3.7,9.8,0,13.5c1.8,1.8,4.2,2.8,6.7,2.8H157.3z"/>
<path class="st1" d="M274.8,144.9v-19c-6.8,5-16.2,4.1-22-1.9c-3.3-3.3-5.1-7.7-5-12.3c0-9.8,7.9-17.7,17.7-17.7
	c9.8,0,17.7,7.9,17.7,17.7v33.1h-1c28.9,0.4,62.3,1.8,101.3,4.5V45.2C241.5-9.6,69.8-6.9,4.1,33.4l54.3,163
	c9.1-5.5,17.9-10.7,26.6-15.3l0,0C127.7,157.9,172.2,144.1,274.8,144.9z M326.6,99.1c3.3-3.4,7.8-5.3,12.5-5.2c3.5,0,6.9,1,9.8,3
	c2.9,2,5.2,4.8,6.6,8v0.7l-21.7,14.1c1.5,0.9,3.2,1.4,5,1.4c2.6,0.1,5.1-1,6.9-2.9c0.7-0.8,1.4-1.8,1.8-2.8h8.6
	c-0.7,3.2-2.3,6.1-4.6,8.5c-3.2,3.6-7.8,5.6-12.6,5.5c-4.7,0.1-9.2-1.8-12.5-5.1c-3.4-3.2-5.3-7.8-5.2-12.5
	C321.3,107.1,323.2,102.4,326.6,99.1z M288.1,94.4h8.2v19.7c0.1,3.8,3.1,6.9,6.9,6.9c1.9,0,3.6-0.8,4.9-2.1c1.3-1.3,2.1-3,2-4.8
	V94.5h8.2v19.7c0,4-1.7,7.8-4.6,10.5c-5.5,5.8-14.7,6.1-20.5,0.6c-0.2-0.2-0.4-0.4-0.6-0.6c-2.9-2.7-4.5-6.5-4.5-10.5L288.1,94.4z
	 M121.1,102.5h-5.5v26.1h-8v-26.1h-5.2v-8h5.2v-11h8.1v11h5.5L121.1,102.5z M134.9,128.6h-8.3V83.1h8.1L134.9,128.6z M234.8,83.1h8
	v8.1h-8.2L234.8,83.1z M234.8,94.2h8v34.2h-8.2L234.8,94.2z M212.7,94.2h5.2v-11h7.7v11h5.2v8.1h-5.2v26.1h-8.1v-25.8h-5.2
	L212.7,94.2z M210.4,108.7v19.7h-8.5v-19.4c0-3.8-3.1-6.9-6.9-6.9c-3.8,0-6.9,3.1-6.9,6.9l0,0v19.7h-8.1v-19.7c0-4,1.6-7.8,4.5-10.5
	c2.8-2.9,6.5-4.5,10.5-4.5c4,0,7.7,1.6,10.5,4.5c2.9,2.7,4.5,6.5,4.6,10.5L210.4,108.7z M171.8,40.8c3.2-3.4,7.8-5.3,12.5-5.2
	c3.5,0,6.9,1,9.8,3c2.9,1.9,5.2,4.7,6.6,7.9l0.3,0.7l-22.3,14.2c1.5,0.9,3.3,1.4,5.1,1.4c2.5,0.1,5-1,6.7-2.9
	c0.8-0.8,1.4-1.8,1.9-2.9h8.6c-0.7,3.2-2.3,6.2-4.6,8.5c-3.2,3.5-7.8,5.4-12.5,5.2c-4.7,0.1-9.2-1.8-12.6-5.1
	c-3.4-3.3-5.3-7.8-5.2-12.5c0-4.6,1.9-9,5.2-12.3L171.8,40.8z M148.6,51c-0.1-4.1,1.7-7.9,4.7-10.6c2.9-2.9,6.9-4.5,11-4.4h0.9V44
	H164c-2-0.1-4,0.6-5.5,2c-1.4,1.3-2.2,3.1-2.1,5v19.7h-7.7V51z M157.3,93.9c4.7,0,9.2,1.8,12.5,5.2c3.4,3.3,5.3,7.8,5.2,12.5v17
	h-8.1v-2.8c-6.8,4.9-16.2,4.1-22-1.9c-6.8-7.1-6.6-18.3,0.5-25.1c3.3-3.1,7.6-4.9,12.2-4.9H157.3z M134.2,24.9h8.1V33h-8.1V24.9z
	 M134.2,36.4h8.1v34.2h-8.1V36.4z M99,41.1c3.3-3.4,7.8-5.2,12.5-5.2c9.7,0.1,17.6,7.9,17.7,17.6c-0.1,9.8-8.1,17.7-17.9,17.6
	c-4.6,0-9-1.9-12.3-5.1C92.2,59.1,92.1,48,99,41.1C99,41.1,99,41.1,99,41.1z M66,25.2h8.4v37h18.7v8.4H66.1L66,25.2z M72.2,128.6
	h-8.8l16.1-45.5H89l16.1,45.5h-9l-2.8-7.6H75.1L72.2,128.6z"/>
<polygon class="st1" points="77.9,113.4 90.5,113.4 84.2,96.2 "/>
<path class="st2" d="M85,181.1h298.3v-31.5C210.9,139,150.2,146.5,85,181.1z"/>
<path class="st2" d="M384,149.6L384,149.6z"/>
<path class="st2" d="M383.3,149.6L383.3,149.6c-39.1-2.6-72.5-4.1-101.3-4.5h-7.1c-102.6-1-147.1,12.8-190,36l0,0
	C150.2,146.5,210.9,139,383.3,149.6z"/>
<path class="st3" d="M111.5,71.1c9.7,0,17.6-7.9,17.7-17.6c-0.1-9.7-8-17.6-17.7-17.6c-4.7,0-9.2,1.8-12.5,5.2
	c-6.9,6.9-6.9,18,0,24.9c0,0,0,0,0,0C102.3,69.3,106.9,71.2,111.5,71.1z M104.8,46.8c3.7-3.7,9.8-3.7,13.5,0
	c1.8,1.8,2.8,4.2,2.8,6.7c0.1,2.5-1,5-2.8,6.7c-3.4,4-9.5,4.4-13.4,1c-4-3.4-4.4-9.5-1-13.4C104.1,47.5,104.5,47.1,104.8,46.8z"/>
<rect x="134.2" y="36.4" class="st3" width="8.1" height="34.2"/>
<path class="st3" d="M156.7,51c-0.1-1.9,0.7-3.7,2.1-5c1.5-1.4,3.5-2.1,5.5-2h0.9v-8.1H164c-4.1-0.1-8.1,1.5-11,4.4
	c-3,2.7-4.7,6.6-4.7,10.6v19.7h8.1L156.7,51z"/>
<polygon class="st3" points="115.7,83.1 107.6,83.1 107.6,94.4 102.3,94.4 102.3,102.5 107.6,102.5 107.6,128.6 115.7,128.6 
	115.7,102.5 120.9,102.5 120.9,94.4 115.7,94.4 "/>
<rect x="126.6" y="83.1" class="st3" width="8.1" height="45.5"/>
<path class="st3" d="M144.6,123.9c5.9,6,15.2,6.8,22,1.9v2.8h8.3v-17c0.1-4.7-1.8-9.2-5.2-12.5c-7.2-6.6-18.4-6.2-25,0.9
	C138.6,106.8,138.5,117.1,144.6,123.9z M150.6,104.9c3.7-3.7,9.8-3.7,13.5,0c0,0,0,0,0,0c1.8,1.8,2.9,4.2,2.8,6.7
	c0,5.3-4.3,9.5-9.6,9.5c-5.3,0-9.5-4.3-9.5-9.6C147.8,109,148.8,106.6,150.6,104.9z"/>
<path class="st3" d="M184.5,98.4c-2.9,2.7-4.5,6.5-4.5,10.5v19.7h8.1v-19.7c0-3.8,3.1-6.9,6.9-6.9c3.8,0,6.9,3.1,6.9,6.9l0,0v19.7
	h8.1v-19.7c0-4-1.7-7.8-4.6-10.5c-2.7-2.9-6.5-4.5-10.5-4.5C191,93.9,187.2,95.5,184.5,98.4z"/>
<polygon class="st3" points="217.6,128.7 225.7,128.7 225.7,102.5 231,102.5 231,94.4 225.7,94.4 225.7,83.1 217.6,83.1 217.6,94.4 
	212.3,94.4 212.3,102.5 217.6,102.5 "/>
<rect x="234.6" y="94.4" class="st3" width="8.1" height="34.2"/>
<rect x="234.6" y="83.1" class="st3" width="8.1" height="8.1"/>
<path class="st3" d="M283,111.6c-0.1-9.7-8-17.6-17.7-17.7c-9.8,0-17.7,7.9-17.7,17.7c0,4.6,1.8,9,5,12.3c5.8,6.1,15.2,6.9,22,1.9
	v19h8.3V111.6z M272,118.3c-3.6,3.7-9.6,3.8-13.3,0.1c0,0-0.1-0.1-0.1-0.1c-3.7-3.6-3.8-9.6-0.1-13.3c0,0,0.1-0.1,0.1-0.1
	c1.8-1.8,4.2-2.9,6.7-2.8c2.5,0,5,1,6.7,2.8c1.8,1.8,2.9,4.2,2.8,6.7C274.8,114.1,273.8,116.5,272,118.3L272,118.3z"/>
<path class="st3" d="M274.8,144.9L274.8,144.9z"/>
<path class="st3" d="M302.9,129.2c4,0,7.8-1.6,10.5-4.5c2.9-2.7,4.6-6.5,4.6-10.5V94.5h-8.2v19.7c0,1.8-0.7,3.6-2,4.8
	c-1.3,1.3-3.1,2.1-4.9,2.1c-3.7-0.2-6.7-3.2-6.7-7V94.5h-8.3v19.7c0,4,1.6,7.7,4.5,10.5C295.2,127.5,299,129.2,302.9,129.2z"/>
<path class="st3" d="M183.8,71.1c4.7,0.1,9.3-1.8,12.5-5.2c2.3-2.4,3.9-5.3,4.6-8.5h-8.6c-0.4,1.1-1.1,2-1.9,2.9
	c-1.7,1.9-4.1,2.9-6.7,2.9c-1.8,0-3.5-0.5-5.1-1.4l21.7-14.1l-0.3-0.7c-1.4-3.2-3.7-6-6.6-7.9c-2.9-2-6.3-3-9.8-3
	c-4.7-0.1-9.2,1.8-12.5,5.2c-3.4,3.3-5.2,7.8-5.2,12.5c-0.1,4.7,1.8,9.2,5.2,12.5C174.6,69.4,179.1,71.2,183.8,71.1z M177,46.8
	c1.8-1.8,4.2-2.9,6.7-2.8c1.8,0,3.5,0.5,5.1,1.4l-14.4,9.4c-0.1-0.4-0.1-0.8,0-1.2C174.2,51.1,175.2,48.6,177,46.8z"/>
<path class="st3" d="M339.2,129.2c4.8,0.1,9.4-1.9,12.6-5.5c2.3-2.4,3.8-5.3,4.6-8.5h-8.6c-0.5,1-1.1,2-1.8,2.8
	c-1.7,1.9-4.2,3-6.7,2.9c-1.8,0-3.5-0.5-5-1.4l21.7-13.9v-0.7c-1.4-3.2-3.7-6-6.6-8c-2.9-2-6.3-3-9.8-3c-4.7-0.1-9.3,1.8-12.5,5.2
	c-3.4,3.3-5.2,7.8-5.1,12.5c-0.1,4.7,1.8,9.2,5.2,12.5C330.2,127.3,334.6,129.1,339.2,129.2z M332.4,104.9c1.7-1.9,4.2-2.9,6.7-2.8
	c1.8,0,3.5,0.5,5,1.4l-14.4,9.4c0-0.4,0-0.8,0-1.2C329.7,109.1,330.6,106.6,332.4,104.9z"/>
<polygon class="st3" points="93.2,62.2 74.6,62.2 74.6,25.2 66.1,25.2 66.1,70.6 93.2,70.6 "/>
<path class="st3" d="M96,128.6h9L89,83.1h-9.4l-16.1,45.5h8.9l2.8-7.6h18.1L96,128.6z M77.9,113.4l6.3-17.2l6.3,17.2L77.9,113.4z"/>
<rect x="134.2" y="24.9" class="st3" width="8.1" height="8.1"/>
</svg>
