<svg xmlns="http://www.w3.org/2000/svg" viewBox="0 0 218.5 39.52"><title>logo-jardins-des-folies-siffait-noir</title><g id="Calque_2" data-name="Calque 2"><g id="Calque_1-2" data-name="Calque 1"><path d="M50,10.88V9.69h3.27v1.1c0,1.55.67,2.13,1.84,2.13s1.72-.71,1.72-2V.07H60.4V11a4.71,4.71,0,0,1-1,3.13,5.06,5.06,0,0,1-4.11,1.69c-3.54,0-5.31-1.92-5.31-5"/><path d="M69,11.59V10.15a6.77,6.77,0,0,1-1.92.62c-1.43.32-2.12.67-2.12,1.63s.73,1.31,1.62,1.31A2.19,2.19,0,0,0,69,11.59m0,2.62h0a3.7,3.7,0,0,1-3.36,1.65c-2.19,0-3.79-1.17-3.79-3.36,0-2.46,1.94-3.08,4.35-3.37,2-.27,2.8-.59,2.8-1.42s-.52-1.33-1.65-1.33S65.42,7,65.33,7.84h-3c.09-1.9,1.63-3.67,4.92-3.67a6.09,6.09,0,0,1,3.19.67A3.54,3.54,0,0,1,72.1,8.15v5.69c0,.87.13,1.35.42,1.54v.18H69.33A3.25,3.25,0,0,1,69,14.21"/><path d="M77.06,6.46h.06a3.19,3.19,0,0,1,3.09-2.17,1.68,1.68,0,0,1,.68.09V7.23h-.08a4,4,0,0,0-.69-.06c-1.77,0-2.93,1.08-2.93,3.25v5.14H73.91V4.48h3.15Z"/><path d="M89.68,10c0-1.95-.81-3.37-2.5-3.37S84.87,8,84.87,10s.77,3.29,2.29,3.29S89.68,12,89.68,10m-8.14,0c0-3.39,1.92-5.85,4.79-5.85A3.72,3.72,0,0,1,89.62,6h0c0-.68-.08-1.62-.08-2.56V.07h3.27V15.56H89.7V13.94h0a3.48,3.48,0,0,1-3.37,2c-2.88,0-4.75-2.23-4.75-5.9"/><path d="M94.62,4.48h3.27V15.56H94.62Zm0-4.41h3.31V2.92H94.6Z"/><path d="M102.83,6.17h.06a3.6,3.6,0,0,1,3.42-2c2.43,0,3.85,1.62,3.85,4.1v7.29h-3.25V8.9a1.79,1.79,0,0,0-1.85-2,2.19,2.19,0,0,0-2.13,2.44v6.24H99.66V4.48h3.17Z"/><path d="M111.14,12.15h3.08a2,2,0,0,0,2.25,1.62c1.17,0,1.83-.48,1.83-1.27,0-1-1.31-1.12-2.85-1.41-2-.38-4-.88-4-3.46,0-2.27,2.06-3.46,4.67-3.46,3.08,0,4.62,1.33,4.91,3.27h-3c-.21-.79-.83-1.19-1.87-1.19s-1.65.42-1.65,1.13,1.21,1,2.73,1.23c2,.35,4.23.87,4.23,3.66,0,2.4-2.13,3.65-5,3.65-3.21,0-5.15-1.54-5.31-3.77"/><path d="M58.74,33.62c0-2.55-1.45-4.52-3.31-4.52a2.29,2.29,0,0,0-1.71.73c-.76.79-1,1.91-1,4.27s.41,3.61,1.41,4.28a2.1,2.1,0,0,0,1.26.41c2-.08,3.4-2.12,3.4-5.17M56.22,22.93A35.91,35.91,0,0,0,60,22.76l.27,0h.33V37.12c0,1,.5,1.52,1.38,1.52h.74V39H60.76a7.25,7.25,0,0,0-1.76.21h-.24V36.33c-.35.79-1.3,2.88-3.61,2.88s-4.57-2.5-4.57-5.28,2.07-5.24,4.61-5.24c1.55,0,2.62.76,3.55,2.57V24.74a1.34,1.34,0,0,0-1.43-1.45H56.22Z"/><path d="M70.17,33.07c.52,0,.69-.19.69-.81,0-2-1-3.26-2.55-3.26a2.23,2.23,0,0,0-2,1.57,6.25,6.25,0,0,0-.43,2.5ZM73,35.14A5.64,5.64,0,0,1,72.36,37a4.39,4.39,0,0,1-3.81,2.26c-2.72,0-4.79-2.38-4.79-5.4,0-2.86,2-5.17,4.53-5.17s4.38,2.05,4.64,4.88h-7.1c0,1.6,0,5.22,3,5.22,1.88,0,3.35-1.38,3.85-3.6Z"/><path d="M75,34.64a5.77,5.77,0,0,0,1.48,3.07,3.79,3.79,0,0,0,2.69,1.12,2,2,0,0,0,2.16-1.76c0-1.09-.71-1.67-3-2.38a6.49,6.49,0,0,1-3-1.52,2.4,2.4,0,0,1-.67-1.79,2.75,2.75,0,0,1,2.74-2.81c1.07,0,1.64.26,2.85,1.31A2,2,0,0,0,81,28.69h.38v4H81a4.74,4.74,0,0,0-1.16-2.59A3.38,3.38,0,0,0,77.48,29a1.89,1.89,0,0,0-2.08,1.72c0,1.19,1.5,1.66,2.84,2,2.35.69,3.93,1.48,3.93,3.46a3,3,0,0,1-3.22,3,4.15,4.15,0,0,1-3.12-1.54,6.5,6.5,0,0,0-.93,1.54h-.3V34.64Z"/><path d="M94.93,31c-.05,1.19-.08,2.35-.08,3.54,0,3,.05,3.43.43,3.81a1.09,1.09,0,0,0,.84.31h1.64V39H89.33v-.36h2c.76,0,1.19-.5,1.19-1.38V24.64c0-.88-.43-1.38-1.19-1.38H89.07v-.35h14.5v6h-.36c-.38-3.19-2.45-5.57-4.83-5.57H95.52c-.4,0-.59.24-.59.78V30.6h1.19a3.12,3.12,0,0,0,2.8-2,5.18,5.18,0,0,0,.34-2.33h.4V35.4h-.38v-.19c0-2.61-1.19-4.23-3.07-4.23Z"/><path d="M113.47,33.81c0-3.24-1-4.83-3-4.83-2.17,0-3.12,1.54-3.12,5,0,3.24,1,4.83,3,4.83,2.21,0,3.14-1.47,3.14-5m-8.14.14a5.36,5.36,0,0,1,5-5.35,5.21,5.21,0,0,1,5.19,5.3,5.07,5.07,0,1,1-10.14.05"/><path d="M118.87,24.76c0-.88-.33-1.31-1-1.31H117v-.38c.83,0,1.69-.07,2-.09l1.19-.14h.54c0,4.18,0,7,0,9,0,6.48,0,6.33.28,6.62a1,1,0,0,0,.72.21h.76V39h-5.31v-.36h.83c.72,0,1-.31,1-1.16Z"/><path d="M125.16,24.29a1.17,1.17,0,1,1,1.17,1.16,1.17,1.17,0,0,1-1.17-1.16m2.09,4.5c0,1.64,0,3.26,0,4.88,0,4,0,4.16.12,4.52.07.17.17.45.86.45H129V39h-5.26v-.36h.83c.71,0,.95-.31.95-1.16v-7a1,1,0,0,0-1.19-1.07h-.71V29c.9,0,1.74,0,2.07-.07l1.28-.16Z"/><path d="M137.13,33.07c.53,0,.69-.19.69-.81,0-2-1-3.26-2.54-3.26a2.21,2.21,0,0,0-2.05,1.57,6.25,6.25,0,0,0-.43,2.5ZM140,35.14a5.4,5.4,0,0,1-.67,1.81,4.38,4.38,0,0,1-3.81,2.26c-2.71,0-4.78-2.38-4.78-5.4,0-2.86,2-5.17,4.52-5.17s4.38,2.05,4.64,4.88H132.8c0,1.6-.05,5.22,2.95,5.22,1.88,0,3.36-1.38,3.86-3.6Z"/><path d="M141.92,34.64a5.77,5.77,0,0,0,1.47,3.07,3.81,3.81,0,0,0,2.69,1.12,2,2,0,0,0,2.17-1.76c0-1.09-.71-1.67-2.95-2.38a6.62,6.62,0,0,1-3.05-1.52,2.43,2.43,0,0,1-.66-1.79,2.75,2.75,0,0,1,2.73-2.81c1.07,0,1.65.26,2.86,1.31a2,2,0,0,0,.76-1.19h.38v4H148a4.74,4.74,0,0,0-1.17-2.59A3.35,3.35,0,0,0,144.44,29a1.89,1.89,0,0,0-2.07,1.72c0,1.19,1.5,1.66,2.83,2,2.36.69,3.93,1.48,3.93,3.46a3,3,0,0,1-3.21,3,4.13,4.13,0,0,1-3.12-1.54,5.88,5.88,0,0,0-.93,1.54h-.31V34.64Z"/><path d="M156.73,31.86c.4,2,1.45,7.28,6.21,7.28A3.17,3.17,0,0,0,166.37,36c0-2.31-2.76-3.38-4.84-4.16a13.87,13.87,0,0,1-3.45-1.69c-.14-.12-.28-.24-.45-.41a4.21,4.21,0,0,1,3.07-7.14c1.64,0,2.83.6,4.31,2.19a4.9,4.9,0,0,0,1.17-2h.4V29h-.38a7.39,7.39,0,0,0-.81-2.78A5.37,5.37,0,0,0,160.72,23a3,3,0,0,0-3.16,2.77c0,1.78,1.93,2.66,4.45,3.57A14,14,0,0,1,165.53,31a5,5,0,0,1,1.91,3.85,4.54,4.54,0,0,1-4.69,4.69,5.69,5.69,0,0,1-4.69-2.78,12,12,0,0,0-1.31,2.62h-.41v-7.5Z"/><path d="M170.58,24.29a1.17,1.17,0,1,1,1.17,1.16,1.17,1.17,0,0,1-1.17-1.16m2.1,4.5c0,1.64,0,3.26,0,4.88,0,4,0,4.16.12,4.52.07.17.17.45.86.45h.76V39h-5.26v-.36H170c.72,0,.95-.31.95-1.16v-7c0-.66-.42-1.07-1.19-1.07H169V29c.9,0,1.74,0,2.07-.07l1.29-.16Z"/><path d="M180.15,29.69c0,1.45,0,2.91,0,4.38,0,3.67,0,3.76.11,4.12.08.17.17.45.86.45h.79V39h-5.36v-.36h.86c.69,0,1-.31,1-1.16V29.69h-2.28V29h2.28V27.53a4.87,4.87,0,0,1,1.19-3.72,4.17,4.17,0,0,1,2.95-1.19c1.55,0,2.6.67,2.6,1.64a1,1,0,0,1-1,1.12,1,1,0,0,1-1-1,1.43,1.43,0,0,1,.77-1.17,2.3,2.3,0,0,0-1.1-.21,2.4,2.4,0,0,0-2.38,1.4,4.19,4.19,0,0,0-.24,1.69V29h2.24v.67Z"/><path d="M188.08,29.69c0,1.45,0,2.91,0,4.38,0,3.67,0,3.76.12,4.12.07.17.17.45.86.45h.79V39h-5.36v-.36h.86c.69,0,1-.31,1-1.16V29.69H184V29h2.29V27.53a4.87,4.87,0,0,1,1.19-3.72,4.17,4.17,0,0,1,2.95-1.19c1.55,0,2.6.67,2.6,1.64a1,1,0,0,1-1,1.12,1,1,0,0,1-1-1,1.44,1.44,0,0,1,.76-1.17,2.24,2.24,0,0,0-1.09-.21,2.4,2.4,0,0,0-2.38,1.4,4.19,4.19,0,0,0-.24,1.69V29h2.24v.67Z"/><path d="M198.55,33.33a11.6,11.6,0,0,1-1.4.5c-1.07.31-2.91.84-2.91,2.81,0,1.19.67,2,1.6,2,1.45,0,2.71-1.6,2.71-3.43Zm4.36,1.34c0,3-.76,4.54-2.26,4.54-1,0-1.62-.76-1.93-2.47-.79,1.76-1.76,2.47-3.36,2.47a2.84,2.84,0,0,1-3-2.62,2.34,2.34,0,0,1,.73-1.66,5.81,5.81,0,0,1,3.12-1.33,12.56,12.56,0,0,0,2.31-.72V31.17c0-1.29-.81-2-2.31-2-1,0-2.14.55-2.14,1,0,.16.1.26.4.42.55.29.74.57.74,1.05a1,1,0,0,1-1,1.05,1.32,1.32,0,0,1-1.19-1.36c0-1.5,1.6-2.66,3.67-2.66,2.4,0,3.62,1.09,3.62,3.23V36.5c0,1.17.33,1.9.85,1.9.81,0,1.19-.92,1.34-3.23l0-.48Z"/><path d="M205.27,24.29a1.17,1.17,0,1,1,1.16,1.16,1.16,1.16,0,0,1-1.16-1.16m2.09,4.5c0,1.64,0,3.26,0,4.88,0,4,0,4.16.12,4.52.07.17.16.45.85.45h.76V39h-5.26v-.36h.84c.71,0,.95-.31.95-1.16v-7a1,1,0,0,0-1.19-1.07h-.72V29c.91,0,1.74,0,2.08-.07l1.28-.16Z"/><path d="M210.43,29.26c2.41-.83,3.12-2.69,3.45-4.9h.48V29h3.31v.66h-3.33v7.14c0,1,.57,1.67,1.4,1.67,1.62,0,2.4-1.57,2.43-4.93h.33c0,2.57-.33,3.86-1.21,4.74a2.89,2.89,0,0,1-2.07.83,2.5,2.5,0,0,1-2.69-2.83V29.69h-2.1Z"/><polygon points="39.06 39.06 0 39.06 0 21.21 5.95 21.21 5.95 33.11 33.11 33.11 33.11 21.21 39.06 21.21 39.06 39.06"/><path d="M19.53,6.21a4.28,4.28,0,0,0-4.28,4.28v4.76H0V9.3H9.3C9.48,4.09,14.21,0,19.53,0h0c5.33,0,10,4.09,10.23,9.3h9.3v5.95H23.81V10.49a4.28,4.28,0,0,0-4.28-4.28Z"/></g></g></svg>