<svg xmlns="http://www.w3.org/2000/svg" viewBox="0 0 595.94 87.29"><defs><style>.cls-1{fill:#afca00;}.cls-2{fill:#004461;}.cls-3{fill:#fff;}</style></defs><title>logo-cd44-handicap</title><g id="Calque_2" data-name="Calque 2"><g id="Calque_3" data-name="Calque 3"><path class="cls-1" d="M80.31,40.91A40.16,40.16,0,1,1,40.16.75,40.16,40.16,0,0,1,80.31,40.91Z"/><path class="cls-2" d="M89.64,29.52a2,2,0,0,0-1.45-.95,1,1,0,0,0-.3,0c-1,0-4.45,1.31-10.56,3.63C73.9,33.47,70,35,66.81,36.05l-.77.27c-5.16,1.79-10,3.48-16.45,3.51h-.12c-3.89,0-6.53-1.17-7.86-3.46l1-.47c2.89-1.33,7.05-5.11,7.26-9.34a3.88,3.88,0,0,0-2.38-4,2.76,2.76,0,0,0-1-.16,6.84,6.84,0,0,0-3.75,1.43,13.14,13.14,0,0,0-4.68,10.45v.21a13.6,13.6,0,0,1-3.05.31,17,17,0,0,1-2.18-.13,17.26,17.26,0,0,1-11.78-6,52.57,52.57,0,0,1-7-9.55L13,17.37A51.58,51.58,0,0,1,8.57,8.46L8,7a61.12,61.12,0,0,1-2-5.78A1.71,1.71,0,0,0,4.22,0,2.44,2.44,0,0,0,2.38.88a2.77,2.77,0,0,0-.53,2.31A56.9,56.9,0,0,0,5,13.76c.4,1.08.84,2.28,1.32,3.65.94,2.65,2.19,5.86,3.51,9.25,1.94,5,4.14,10.62,5.9,15.9a106.87,106.87,0,0,1,4.69,19,43.3,43.3,0,0,0,1.08,4.69c0,.36,0,.71,0,1.08a13,13,0,0,1,0,2.16,2.85,2.85,0,0,0,1.15,2,2.27,2.27,0,0,0,1.69.24l.34,0a1.93,1.93,0,0,0,1.22-1.07,4.43,4.43,0,0,0-1.14-3.79C23.81,63.66,23,60,22.05,55.4a125.23,125.23,0,0,0-5.78-18.92L15.73,35c-2.24-6.13-4.16-10.93-5.85-15.17-1-2.46-1.9-4.78-2.72-6.93A77.48,77.48,0,0,1,4.75,5.36a75.41,75.41,0,0,0,8.12,16.56c3.38,5.12,6.18,9,11.58,12.4,2.93,1.84,8,2.92,12.73,2.7h.1c.14,0,.41,0,.7,0a4.87,4.87,0,0,1,.73.06c.13.21.25.42.36.61a10.11,10.11,0,0,0,1.41,2,8.68,8.68,0,0,0,2.17,1.52,17.23,17.23,0,0,0,7.62,1.53,25.28,25.28,0,0,0,3.59-.25,50.31,50.31,0,0,0,5.57-1.2l1.84-.46,9.39-3.36c2-.78,4.1-1.61,6.08-2.41,3.25-1.32,6.6-2.68,10.05-3.83a.7.7,0,0,1-.19.16,92.76,92.76,0,0,1-14.53,6.89c-1.94.79-3.95,1.61-5.89,2.45l-1.75.77A68.17,68.17,0,0,1,55.08,45L55,45c-2.43.44-3.86.87-4,1.78l-.15,1C49.33,57.64,47.93,67,47.75,77.69l0,.28.16.17a1.05,1.05,0,0,0,.75.24c.32,0,1.6-.13,2-.73a1.73,1.73,0,0,0,.2-1.09c0-.13,0-.26,0-.41.32-8.79.73-17.36,2.31-25.59.1-.5.15-.9.19-1.23a3.39,3.39,0,0,1,.21-1c13.49-4.6,19-7.15,31.29-12.94,3.32-1.58,4-2,4.66-3.48A2.77,2.77,0,0,0,89.64,29.52ZM40.83,33.83a6.83,6.83,0,0,1,.05-1.16,10.81,10.81,0,0,1,1.44-4c1.53-2.52,3-3.17,3.53-3.32a1.65,1.65,0,0,1,.52-.08,1,1,0,0,1,.79.3A1.89,1.89,0,0,1,47.53,27C47.45,28.61,43.65,33.31,40.83,33.83Z"/><path class="cls-2" d="M436.22,18.77l22.85,68.52c28.12-17,46.84-25.86,136.87-19.76V23.82C536.28.66,463.86,1.77,436.22,18.77"/><path class="cls-3" d="M484.21,30.05a4,4,0,1,1-5.67-5.65,4,4,0,1,1,5.67,5.65m-2.83-10.26A7.46,7.46,0,0,0,474,27.22a7.43,7.43,0,0,0,7.43,7.4,7.21,7.21,0,0,0,5.24-2.17,7.35,7.35,0,0,0,0-10.47,7.19,7.19,0,0,0-5.24-2.19"/><rect class="cls-3" x="490.9" y="20.01" width="3.4" height="14.38"/><rect class="cls-3" x="490.9" y="15.26" width="3.4" height="3.41"/><path class="cls-3" d="M498.91,21.66a5.92,5.92,0,0,0-2,4.46v8.27h3.42V26.12a2.62,2.62,0,0,1,.91-2.07,3.1,3.1,0,0,1,2.22-.84h.39V19.79h-.39a6.62,6.62,0,0,0-4.58,1.87"/><polygon class="cls-3" points="483.13 39.65 479.71 39.65 479.71 44.4 477.52 44.4 477.52 47.81 479.71 47.81 479.71 58.78 483.13 58.78 483.13 47.81 485.33 47.81 485.33 44.4 483.13 44.4 483.13 39.65"/><rect class="cls-3" x="487.71" y="39.65" width="3.41" height="19.14"/><path class="cls-3" d="M503.46,54.43a3.85,3.85,0,0,1-2.84,1.18,4,4,0,0,1-2.83-6.82,4,4,0,1,1,5.67,5.64m-2.84-10.25a7.46,7.46,0,0,0-7.43,7.42,7.28,7.28,0,0,0,2.1,5.21A6.84,6.84,0,0,0,500.4,59a6.91,6.91,0,0,0,4.24-1.39v1.18h3.42V51.6a7.48,7.48,0,0,0-7.44-7.42"/><path class="cls-3" d="M516.46,44.18a6.49,6.49,0,0,0-6.33,6.33v8.28h3.41V50.51a2.89,2.89,0,0,1,5-2,2.71,2.71,0,0,1,.87,2v8.28h3.42V50.51a6.53,6.53,0,0,0-6.33-6.33"/><polygon class="cls-3" points="529.37 39.65 525.95 39.65 525.95 44.4 523.77 44.4 523.77 47.82 525.95 47.82 525.95 58.78 529.37 58.78 529.37 47.82 531.58 47.82 531.58 44.4 529.37 44.4 529.37 39.65"/><rect class="cls-3" x="533.11" y="44.4" width="3.4" height="14.39"/><rect class="cls-3" x="533.11" y="39.65" width="3.4" height="3.4"/><path class="cls-3" d="M548.85,54.43A3.94,3.94,0,1,1,550,51.6a3.8,3.8,0,0,1-1.19,2.83M546,44.18a7.44,7.44,0,0,0-7.42,7.42,7.27,7.27,0,0,0,2.09,5.21A6.85,6.85,0,0,0,545.81,59,7,7,0,0,0,550,57.61v8h3.42v-14A7.48,7.48,0,0,0,546,44.18"/><path class="cls-3" d="M564.77,52.7a3,3,0,0,1-2.91,2.91A3,3,0,0,1,559,52.7V44.4h-3.42v8.3a6.33,6.33,0,0,0,12.66,0V44.4h-3.42Z"/><path class="cls-3" d="M507.72,27.24a3.92,3.92,0,0,1,1.16-2.85,3.81,3.81,0,0,1,2.83-1.18,4,4,0,0,1,2.12.6l-6.07,3.94a4.75,4.75,0,0,1,0-.51M514.57,30a3.62,3.62,0,0,1-2.82,1.22,4,4,0,0,1-2.12-.61l9.12-5.92-.14-.31A7.66,7.66,0,0,0,515.83,21a7.34,7.34,0,0,0-4.12-1.25A7.15,7.15,0,0,0,506.46,22a7.25,7.25,0,0,0-2.16,5.26,7.07,7.07,0,0,0,2.18,5.24,7.27,7.27,0,0,0,5.27,2.14A7,7,0,0,0,517,32.4a7.53,7.53,0,0,0,2-3.58h-3.62a4.49,4.49,0,0,1-.77,1.19"/><path class="cls-3" d="M573.07,51.63a3.87,3.87,0,0,1,1.17-2.85,3.73,3.73,0,0,1,2.82-1.18,3.87,3.87,0,0,1,2.12.6l-6.06,3.94a3.14,3.14,0,0,1,0-.51m7.62,1.58a4.89,4.89,0,0,1-.76,1.19,3.68,3.68,0,0,1-2.83,1.21A3.93,3.93,0,0,1,575,55l9.12-5.93-.13-.3a7.68,7.68,0,0,0-2.79-3.35,7.24,7.24,0,0,0-4.12-1.25,7.11,7.11,0,0,0-5.25,2.19,7.26,7.26,0,0,0-2.16,5.26,7.07,7.07,0,0,0,2.18,5.24A7.24,7.24,0,0,0,577.1,59a7,7,0,0,0,5.27-2.22,7.52,7.52,0,0,0,1.94-3.57Z"/><polygon class="cls-3" points="465.84 15.28 462.28 15.28 462.28 34.4 473.68 34.4 473.68 30.85 465.84 30.85 465.84 15.28"/><path class="cls-3" d="M467.24,52.39l2.64-7.24,2.64,7.24Zm7.6,6.38h3.81l-6.78-19.13h-4l-6.76,19.13h3.76l1.17-3.18h7.61Z"/><path class="cls-1" d="M470.17,80.85H595.94V67.53c-77.84-5.28-102.37.64-125.77,13.32"/><rect class="cls-2" x="416.1" y="6.31" width="1.43" height="74.68"/><path class="cls-2" d="M97.31,1.28h7.38l2.64,14.07h.06l2.55-14.07h7.29V22.7h-4.68V6h-.06L109.22,22.7h-3.9L101.87,6h-.06V22.7h-4.5Z"/><path class="cls-2" d="M120.2,11.45c0-2.22.69-3.57,1.83-4.35a7.63,7.63,0,0,1,4.53-1c4,0,5.76,1.38,5.76,4.8v8.34c0,1.23,0,2.79.57,3.51h-4.68a7.52,7.52,0,0,1-.27-1.86h-.06a4.13,4.13,0,0,1-3.81,2.28c-2.73,0-4.32-1.44-4.32-4.95a4.62,4.62,0,0,1,2-4.14,20.89,20.89,0,0,1,4.35-1.32c1.47-.39,1.74-.63,1.74-1.86,0-1-.45-1.62-1.53-1.62-1.35,0-1.74.81-1.77,2.22Zm5.64,8.31c1,0,2-.6,2-2.22,0-1.35,0-2.19,0-2.85-1.53.81-2.19.84-2.64,1.2a2,2,0,0,0-.75,1.8C124.43,19,124.94,19.76,125.84,19.76Z"/><path class="cls-2" d="M135.41,1h4.86V4.76h-4.86Zm0,5.43h4.86V22.7h-4.86Z"/><path class="cls-2" d="M146.81,17.54a4.64,4.64,0,0,0,.33,1.83,1.79,1.79,0,0,0,3.24-.9c0-.75-.36-1.47-1.86-2-4-1.35-5.91-2.13-5.91-5.55,0-3.24,2.28-4.89,6.18-4.89,4.56,0,5.88,2.22,5.88,4.56v.54h-4.32v-.3c0-1.41-.57-1.8-1.59-1.8-1.29,0-1.65.63-1.65,1.5,0,2.88,7.77,1,7.77,7.26,0,3.27-2.19,5.31-6.21,5.31-4.35,0-6.18-1.62-6.18-4.86v-.72Z"/><path class="cls-2" d="M156.44,14.63c0-4.86,1.08-8.58,6.69-8.58,5.94,0,6.69,3.63,6.69,8.49s-1.08,8.58-6.69,8.58C157.19,23.12,156.44,19.49,156.44,14.63Zm6.72-5.4c-1.44,0-1.86,1.41-1.86,5.34s.42,5.37,1.86,5.37,1.8-1.35,1.8-5.34S164.66,9.23,163.16,9.23Z"/><path class="cls-2" d="M172,6.47h4.68V8.39h.06a4.15,4.15,0,0,1,3.9-2.34c2.76,0,4.23,1.38,4.23,4.5V22.7H180V11.63c0-1.17-.51-1.86-1.41-1.86s-1.74.72-1.74,2.31V22.7H172Z"/><path class="cls-2" d="M203.54,20.72h-.06a3.42,3.42,0,0,1-3.51,2.4c-3.27,0-5-2.34-5-8.4,0-5,.72-8.67,4.71-8.67a3.7,3.7,0,0,1,3.63,2.19h.06v-7h4.86V22.7h-4.68ZM201.68,9.59c-1.77,0-1.86,1.95-1.86,4.89,0,2.61.06,5.1,1.89,5.1,1.44,0,1.74-1.74,1.74-4.89C203.45,11.81,203.33,9.59,201.68,9.59Z"/><path class="cls-2" d="M215.24,15.38v1c0,2.52.36,3.75,1.77,3.75s1.65-.93,1.77-3h4.5c-.09,4-2.28,6-6.3,6-6.12,0-6.6-4.29-6.6-9.12,0-4.56,1.32-7.95,6.6-7.95,6,0,6.45,3.81,6.45,9.33ZM216.65.5h4.68l-3,4.26h-3.18Zm2.1,12.06c0-2.28-.3-3.51-1.65-3.51-1.59,0-1.86,1.32-1.86,3.51Z"/><path class="cls-2" d="M225.35,6.47H230v2h.06a3.42,3.42,0,0,1,3.51-2.4c3.27,0,5,2.34,5,8.4,0,5-.72,8.67-4.71,8.67a3.7,3.7,0,0,1-3.63-2.19h-.06V28h-4.86Zm6.54,13.11c1.77,0,1.86-1.95,1.86-4.89,0-2.61-.06-5.1-1.89-5.1-1.44,0-1.74,1.74-1.74,4.89C230.12,17.36,230.24,19.58,231.89,19.58Z"/><path class="cls-2" d="M240.83,11.45c0-2.22.69-3.57,1.83-4.35a7.63,7.63,0,0,1,4.53-1c4,0,5.76,1.38,5.76,4.8v8.34c0,1.23,0,2.79.57,3.51h-4.68a7.52,7.52,0,0,1-.27-1.86h-.06a4.13,4.13,0,0,1-3.81,2.28c-2.73,0-4.32-1.44-4.32-4.95a4.62,4.62,0,0,1,2-4.14,20.89,20.89,0,0,1,4.35-1.32c1.47-.39,1.74-.63,1.74-1.86,0-1-.45-1.62-1.53-1.62-1.35,0-1.74.81-1.77,2.22Zm5.64,8.31c1,0,1.95-.6,1.95-2.22,0-1.35,0-2.19,0-2.85-1.53.81-2.19.84-2.64,1.2a2,2,0,0,0-.75,1.8C245.06,19,245.57,19.76,246.47,19.76Z"/><path class="cls-2" d="M255.92,6.47h4.68V8.75h.06a4.14,4.14,0,0,1,3.9-2.7,3.69,3.69,0,0,1,.78.06v4.56a6.85,6.85,0,0,0-1.35-.12c-1.95,0-3.21.81-3.21,2.94V22.7h-4.86Z"/><path class="cls-2" d="M267.65,9.83h-2V6.47h2V1.7h4.86V6.47h2.25V9.83h-2.25V18c0,1.14.42,1.5,1.56,1.5a5.36,5.36,0,0,0,.69-.06V22.7a21.78,21.78,0,0,1-2.79.18c-3.36,0-4.32-.6-4.32-4.38Z"/><path class="cls-2" d="M280.79,15.38v1c0,2.52.36,3.75,1.77,3.75,1.26,0,1.65-.93,1.77-3h4.5c-.09,4-2.28,6-6.3,6-6.12,0-6.6-4.29-6.6-9.12,0-4.56,1.32-7.95,6.6-7.95,6,0,6.45,3.81,6.45,9.33Zm3.51-2.82c0-2.28-.3-3.51-1.65-3.51-1.59,0-1.86,1.32-1.86,3.51Z"/><path class="cls-2" d="M291.05,6.47h4.68V8.39h.06a4.15,4.15,0,0,1,3.9-2.34c1.41,0,3.27.27,4,2.49,1.14-1.89,2.22-2.49,4-2.49,2.76,0,4.23,1.38,4.23,4.5V22.7h-4.86V11.63c0-1.17-.51-1.86-1.41-1.86s-1.74.72-1.74,2.31V22.7h-4.86V11.63c0-1.17-.51-1.86-1.41-1.86s-1.74.72-1.74,2.31V22.7h-4.86Z"/><path class="cls-2" d="M319.1,15.38v1c0,2.52.36,3.75,1.77,3.75,1.26,0,1.65-.93,1.77-3h4.5c-.09,4-2.28,6-6.3,6-6.12,0-6.6-4.29-6.6-9.12,0-4.56,1.32-7.95,6.6-7.95,6,0,6.45,3.81,6.45,9.33Zm3.51-2.82c0-2.28-.3-3.51-1.65-3.51-1.59,0-1.86,1.32-1.86,3.51Z"/><path class="cls-2" d="M329.21,6.47h4.68V8.39H334a4.15,4.15,0,0,1,3.9-2.34c2.76,0,4.23,1.38,4.23,4.5V22.7h-4.86V11.63c0-1.17-.51-1.86-1.41-1.86s-1.74.72-1.74,2.31V22.7h-4.86Z"/><path class="cls-2" d="M345.41,9.83h-2V6.47h2V1.7h4.86V6.47h2.25V9.83h-2.25V18c0,1.14.42,1.5,1.56,1.5a5.36,5.36,0,0,0,.69-.06V22.7a21.78,21.78,0,0,1-2.79.18c-3.36,0-4.32-.6-4.32-4.38Z"/><path class="cls-2" d="M354.14,11.45c0-2.22.69-3.57,1.83-4.35a7.63,7.63,0,0,1,4.53-1c4,0,5.76,1.38,5.76,4.8v8.34c0,1.23,0,2.79.57,3.51h-4.68a7.52,7.52,0,0,1-.27-1.86h-.06A4.13,4.13,0,0,1,358,23.12c-2.73,0-4.32-1.44-4.32-4.95a4.62,4.62,0,0,1,2-4.14A20.89,20.89,0,0,1,360,12.71c1.47-.39,1.74-.63,1.74-1.86,0-1-.45-1.62-1.53-1.62-1.35,0-1.74.81-1.77,2.22Zm5.64,8.31c1,0,2-.6,2-2.22,0-1.35,0-2.19,0-2.85-1.53.81-2.19.84-2.64,1.2a2,2,0,0,0-.75,1.8C358.37,19,358.88,19.76,359.78,19.76Z"/><path class="cls-2" d="M369.35,1.28h4.86V22.7h-4.86Z"/><path class="cls-2" d="M381.35,15.38v1c0,2.52.36,3.75,1.77,3.75,1.26,0,1.65-.93,1.77-3h4.5c-.09,4-2.28,6-6.3,6-6.12,0-6.6-4.29-6.6-9.12,0-4.56,1.32-7.95,6.6-7.95,6,0,6.45,3.81,6.45,9.33Zm3.51-2.82c0-2.28-.3-3.51-1.65-3.51-1.59,0-1.86,1.32-1.86,3.51Z"/><path class="cls-2" d="M105.14,49.72h-.06a3.42,3.42,0,0,1-3.51,2.4c-3.27,0-5-2.34-5-8.4,0-5,.72-8.67,4.71-8.67a3.7,3.7,0,0,1,3.63,2.19H105v-7h4.86V51.7h-4.68Zm-1.86-11.13c-1.77,0-1.86,1.95-1.86,4.89,0,2.61.06,5.1,1.89,5.1,1.44,0,1.74-1.74,1.74-4.89C105.05,40.81,104.93,38.59,103.28,38.59Z"/><path class="cls-2" d="M116.84,44.38v1c0,2.52.36,3.75,1.77,3.75s1.65-.93,1.77-3h4.5c-.09,4-2.28,6-6.3,6-6.12,0-6.6-4.29-6.6-9.12,0-4.56,1.32-8,6.6-8,6,0,6.45,3.81,6.45,9.33Zm3.51-2.82c0-2.28-.3-3.51-1.65-3.51-1.59,0-1.86,1.32-1.86,3.51Z"/><path class="cls-2" d="M130.67,46.54a4.64,4.64,0,0,0,.33,1.83,1.79,1.79,0,0,0,3.24-.9c0-.75-.36-1.47-1.86-2-4-1.35-5.91-2.13-5.91-5.55,0-3.24,2.28-4.89,6.18-4.89,4.56,0,5.88,2.22,5.88,4.56v.54h-4.32v-.3c0-1.41-.57-1.8-1.59-1.8-1.29,0-1.65.63-1.65,1.5,0,2.88,7.77,1,7.77,7.26,0,3.27-2.19,5.31-6.21,5.31-4.35,0-6.18-1.62-6.18-4.86v-.72Z"/><path class="cls-2" d="M148.64,35.47h4.68v2h.06a3.42,3.42,0,0,1,3.51-2.4c3.27,0,5,2.34,5,8.4,0,5-.72,8.67-4.71,8.67a3.7,3.7,0,0,1-3.63-2.19h-.06v7h-4.86Zm6.54,13.11c1.77,0,1.86-1.95,1.86-4.89,0-2.61-.06-5.1-1.89-5.1-1.44,0-1.74,1.74-1.74,4.89C153.41,46.36,153.53,48.58,155.18,48.58Z"/><path class="cls-2" d="M168.53,44.38v1c0,2.52.36,3.75,1.77,3.75,1.26,0,1.65-.93,1.77-3h4.5c-.09,4-2.28,6-6.3,6-6.12,0-6.6-4.29-6.6-9.12,0-4.56,1.32-8,6.6-8,6,0,6.45,3.81,6.45,9.33ZM172,41.56c0-2.28-.3-3.51-1.65-3.51-1.59,0-1.86,1.32-1.86,3.51Z"/><path class="cls-2" d="M178.64,35.47h4.68v2.28h.06a4.14,4.14,0,0,1,3.9-2.7,3.69,3.69,0,0,1,.78.06v4.56a6.85,6.85,0,0,0-1.35-.12c-2,0-3.21.81-3.21,2.94V51.7h-4.86Z"/><path class="cls-2" d="M193.46,46.54a4.64,4.64,0,0,0,.33,1.83,1.79,1.79,0,0,0,3.24-.9c0-.75-.36-1.47-1.86-2-4-1.35-5.91-2.13-5.91-5.55,0-3.24,2.28-4.89,6.18-4.89,4.56,0,5.88,2.22,5.88,4.56v.54H197v-.3c0-1.41-.57-1.8-1.59-1.8-1.29,0-1.65.63-1.65,1.5,0,2.88,7.77,1,7.77,7.26,0,3.27-2.19,5.31-6.21,5.31-4.35,0-6.18-1.62-6.18-4.86v-.72Z"/><path class="cls-2" d="M203.09,43.63c0-4.86,1.08-8.58,6.69-8.58,5.94,0,6.69,3.63,6.69,8.49s-1.08,8.58-6.69,8.58C203.84,52.12,203.09,48.49,203.09,43.63Zm6.72-5.4c-1.44,0-1.86,1.41-1.86,5.34s.42,5.37,1.86,5.37,1.8-1.35,1.8-5.34S211.31,38.23,209.81,38.23Z"/><path class="cls-2" d="M218.63,35.47h4.68v1.92h.06a4.15,4.15,0,0,1,3.9-2.34c2.76,0,4.23,1.38,4.23,4.5V51.7h-4.86V40.63c0-1.17-.51-1.86-1.41-1.86s-1.74.72-1.74,2.31V51.7h-4.86Z"/><path class="cls-2" d="M234.2,35.47h4.68v1.92h.06a4.15,4.15,0,0,1,3.9-2.34c2.76,0,4.23,1.38,4.23,4.5V51.7h-4.86V40.63c0-1.17-.51-1.86-1.41-1.86s-1.74.72-1.74,2.31V51.7H234.2Z"/><path class="cls-2" d="M254.09,44.38v1c0,2.52.36,3.75,1.77,3.75,1.26,0,1.65-.93,1.77-3h4.5c-.09,4-2.28,6-6.3,6-6.12,0-6.6-4.29-6.6-9.12,0-4.56,1.32-8,6.6-8,6,0,6.45,3.81,6.45,9.33Zm3.51-2.82c0-2.28-.3-3.51-1.65-3.51-1.59,0-1.86,1.32-1.86,3.51Z"/><path class="cls-2" d="M267.92,46.54a4.64,4.64,0,0,0,.33,1.83,1.79,1.79,0,0,0,3.24-.9c0-.75-.36-1.47-1.86-2-4-1.35-5.91-2.13-5.91-5.55,0-3.24,2.28-4.89,6.18-4.89,4.56,0,5.88,2.22,5.88,4.56v.54h-4.32v-.3c0-1.41-.57-1.8-1.59-1.8-1.29,0-1.65.63-1.65,1.5,0,2.88,7.77,1,7.77,7.26,0,3.27-2.19,5.31-6.21,5.31-4.35,0-6.18-1.62-6.18-4.86v-.72Z"/><path class="cls-2" d="M101.27,73.38v1c0,2.52.36,3.75,1.77,3.75,1.26,0,1.65-.93,1.77-3h4.5c-.09,4-2.28,6-6.3,6-6.12,0-6.6-4.29-6.6-9.12,0-4.56,1.32-8,6.6-8,6,0,6.45,3.81,6.45,9.33Zm3.51-2.82c0-2.28-.3-3.51-1.65-3.51-1.59,0-1.86,1.32-1.86,3.51Z"/><path class="cls-2" d="M111.38,64.47h4.68v1.92h.06a4.15,4.15,0,0,1,3.9-2.34c2.76,0,4.23,1.38,4.23,4.5V80.7h-4.86V69.63c0-1.17-.51-1.86-1.41-1.86s-1.74.72-1.74,2.31V80.7h-4.86Z"/><path class="cls-2" d="M138.47,75.54a4.64,4.64,0,0,0,.33,1.83,1.79,1.79,0,0,0,3.24-.9c0-.75-.36-1.47-1.86-2-4-1.35-5.91-2.13-5.91-5.55,0-3.24,2.28-4.89,6.18-4.89,4.56,0,5.88,2.22,5.88,4.56v.54H142v-.3c0-1.41-.57-1.8-1.59-1.8-1.29,0-1.65.63-1.65,1.5,0,2.88,7.77,1,7.77,7.26,0,3.27-2.19,5.31-6.21,5.31-4.35,0-6.18-1.62-6.18-4.86v-.72Z"/><path class="cls-2" d="M148.76,59h4.86v3.72h-4.86Zm0,5.43h4.86V80.7h-4.86Z"/><path class="cls-2" d="M157.07,67.83h-2V64.47h2V59.7h4.86v4.77h2.25v3.36h-2.25V76c0,1.14.42,1.5,1.56,1.5a5.36,5.36,0,0,0,.69-.06V80.7a21.78,21.78,0,0,1-2.79.18c-3.36,0-4.32-.6-4.32-4.38Z"/><path class="cls-2" d="M178.76,80.7h-4.68V78.78H174a4.15,4.15,0,0,1-3.9,2.34c-2.76,0-4.23-1.38-4.23-4.5V64.47h4.86V75.54c0,1.17.51,1.86,1.41,1.86s1.74-.72,1.74-2.31V64.47h4.86Z"/><path class="cls-2" d="M181.37,69.45c0-2.22.69-3.57,1.83-4.35a7.63,7.63,0,0,1,4.53-1c4,0,5.76,1.38,5.76,4.8v8.34c0,1.23,0,2.79.57,3.51h-4.68a7.52,7.52,0,0,1-.27-1.86h-.06a4.13,4.13,0,0,1-3.81,2.28c-2.73,0-4.32-1.44-4.32-5a4.62,4.62,0,0,1,2-4.14,20.89,20.89,0,0,1,4.35-1.32c1.47-.39,1.74-.63,1.74-1.86,0-1-.45-1.62-1.53-1.62-1.35,0-1.74.81-1.77,2.22ZM187,77.76c1,0,2-.6,2-2.22,0-1.35,0-2.19,0-2.85-1.53.81-2.19.84-2.64,1.2a2,2,0,0,0-.75,1.8C185.6,77,186.11,77.76,187,77.76Z"/><path class="cls-2" d="M197.09,67.83h-2V64.47h2V59.7H202v4.77h2.25v3.36H202V76c0,1.14.42,1.5,1.56,1.5a5.36,5.36,0,0,0,.69-.06V80.7a21.78,21.78,0,0,1-2.79.18c-3.36,0-4.32-.6-4.32-4.38Z"/><path class="cls-2" d="M206,59h4.86v3.72H206Zm0,5.43h4.86V80.7H206Z"/><path class="cls-2" d="M213.17,72.63c0-4.86,1.08-8.58,6.69-8.58,5.94,0,6.69,3.63,6.69,8.49s-1.08,8.58-6.69,8.58C213.92,81.12,213.17,77.49,213.17,72.63Zm6.72-5.4c-1.44,0-1.86,1.41-1.86,5.34s.42,5.37,1.86,5.37,1.8-1.35,1.8-5.34S221.39,67.23,219.89,67.23Z"/><path class="cls-2" d="M228.71,64.47h4.68v1.92h.06a4.15,4.15,0,0,1,3.9-2.34c2.76,0,4.23,1.38,4.23,4.5V80.7h-4.86V69.63c0-1.17-.51-1.86-1.41-1.86s-1.74.72-1.74,2.31V80.7h-4.86Z"/><path class="cls-2" d="M260.27,78.72h-.06a3.42,3.42,0,0,1-3.51,2.4c-3.27,0-5-2.34-5-8.4,0-5,.72-8.67,4.71-8.67A3.7,3.7,0,0,1,260,66.24h.06v-7H265V80.7h-4.68Zm-1.86-11.13c-1.77,0-1.86,2-1.86,4.89,0,2.61.06,5.1,1.89,5.1,1.44,0,1.74-1.74,1.74-4.89C260.18,69.81,260.06,67.59,258.41,67.59Z"/><path class="cls-2" d="M272,73.38v1c0,2.52.36,3.75,1.77,3.75,1.26,0,1.65-.93,1.77-3H280c-.09,4-2.28,6-6.3,6-6.12,0-6.6-4.29-6.6-9.12,0-4.56,1.32-8,6.6-8,6,0,6.45,3.81,6.45,9.33Zm3.51-2.82c0-2.28-.3-3.51-1.65-3.51-1.59,0-1.86,1.32-1.86,3.51Z"/><path class="cls-2" d="M289.88,59.28h4.86v7h.06a3.77,3.77,0,0,1,3.72-2.19c2.76,0,4.23,1.38,4.23,4.5V80.7h-4.86V69.63c0-1.17-.51-1.86-1.41-1.86s-1.74.72-1.74,2.31V80.7h-4.86Z"/><path class="cls-2" d="M305.36,69.45c0-2.22.69-3.57,1.83-4.35a7.63,7.63,0,0,1,4.53-1c4,0,5.76,1.38,5.76,4.8v8.34c0,1.23,0,2.79.57,3.51h-4.68a7.52,7.52,0,0,1-.27-1.86H313a4.13,4.13,0,0,1-3.81,2.28c-2.73,0-4.32-1.44-4.32-5a4.62,4.62,0,0,1,2-4.14,20.89,20.89,0,0,1,4.35-1.32c1.47-.39,1.74-.63,1.74-1.86,0-1-.45-1.62-1.53-1.62-1.35,0-1.74.81-1.77,2.22ZM311,77.76c1,0,1.95-.6,1.95-2.22,0-1.35,0-2.19,0-2.85-1.53.81-2.19.84-2.64,1.2a2,2,0,0,0-.75,1.8C309.59,77,310.1,77.76,311,77.76Z"/><path class="cls-2" d="M320.45,64.47h4.68v1.92h.06a4.15,4.15,0,0,1,3.9-2.34c2.76,0,4.23,1.38,4.23,4.5V80.7h-4.86V69.63c0-1.17-.51-1.86-1.41-1.86s-1.74.72-1.74,2.31V80.7h-4.86Z"/><path class="cls-2" d="M344.21,78.72h-.06a3.42,3.42,0,0,1-3.51,2.4c-3.27,0-5-2.34-5-8.4,0-5,.72-8.67,4.71-8.67A3.7,3.7,0,0,1,344,66.24H344v-7h4.86V80.7h-4.68Zm-1.86-11.13c-1.77,0-1.86,2-1.86,4.89,0,2.61.06,5.1,1.89,5.1,1.44,0,1.74-1.74,1.74-4.89C344.12,69.81,344,67.59,342.35,67.59Z"/><path class="cls-2" d="M351.71,59h4.86v3.72h-4.86Zm0,5.43h4.86V80.7h-4.86Z"/><path class="cls-2" d="M367.37,70.59c0-2.37-.54-3.36-1.83-3.36-1.62,0-1.83,2-1.83,5.37,0,3.66.21,5.34,1.83,5.34,1.44,0,1.77-1,1.83-3.84h4.5c0,5-2,7-6.42,7-6.12,0-6.6-4.29-6.6-9.12,0-4.56,1.32-8,6.6-8,5.1,0,6.42,2.67,6.42,6.54Z"/><path class="cls-2" d="M373.73,69.45c0-2.22.69-3.57,1.83-4.35a7.63,7.63,0,0,1,4.53-1c4,0,5.76,1.38,5.76,4.8v8.34c0,1.23,0,2.79.56,3.51h-4.67a7.52,7.52,0,0,1-.27-1.86h-.06a4.13,4.13,0,0,1-3.81,2.28c-2.73,0-4.32-1.44-4.32-5a4.62,4.62,0,0,1,2-4.14,20.89,20.89,0,0,1,4.35-1.32c1.47-.39,1.74-.63,1.74-1.86,0-1-.45-1.62-1.53-1.62-1.35,0-1.74.81-1.77,2.22Zm5.64,8.31c1,0,1.95-.6,1.95-2.22,0-1.35,0-2.19,0-2.85-1.53.81-2.19.84-2.64,1.2a2,2,0,0,0-.75,1.8C378,77,378.47,77.76,379.37,77.76Z"/><path class="cls-2" d="M388.82,64.47h4.68v2h.06a3.42,3.42,0,0,1,3.51-2.4c3.27,0,5,2.34,5,8.4,0,5-.72,8.67-4.71,8.67a3.7,3.7,0,0,1-3.63-2.19h-.06v7h-4.86Zm6.54,13.11c1.77,0,1.86-2,1.86-4.89,0-2.61-.06-5.1-1.89-5.1-1.44,0-1.74,1.74-1.74,4.89C393.59,75.36,393.71,77.58,395.36,77.58Z"/></g></g></svg>