<?xml version="1.0" encoding="utf-8"?>
<!-- Generator: Adobe Illustrator 24.1.2, SVG Export Plug-In . SVG Version: 6.00 Build 0)  -->
<svg version="1.1" id="calques" xmlns="http://www.w3.org/2000/svg" xmlns:xlink="http://www.w3.org/1999/xlink" x="0px" y="0px"
	 viewBox="0 0 683.3 200" style="enable-background:new 0 0 683.3 200;" xml:space="preserve">
<style type="text/css">
	.st0{enable-background:new    ;}
	.st1{fill:#004461;}
	.st2{fill:#AFCA00;}
	.st3{fill:#FFFFFF;}
</style>
<g id="Handicap">
	<g class="st0">
		<path d="M428.4,106.2V70.7h6.4v30.2h16.6v5.3H428.4z"/>
	</g>
	<g class="st0">
		<path d="M458.8,70.7v4.6c0,1.8-0.3,3.3-0.9,4.8c-0.6,1.4-1.6,2.8-3,4.3l-2.5-2c1.5-1.6,2.4-3.1,2.7-4.6h-3.2v-7H458.8z"/>
	</g>
	<g class="st0">
		<path d="M487.3,81.1v25.1h-6.1v-4c-0.8,1.4-1.9,2.5-3.3,3.3c-1.4,0.8-3.1,1.2-4.9,1.2c-2.2,0-4.1-0.5-5.8-1.6
			c-1.7-1.1-3-2.6-3.9-4.5c-0.9-2-1.4-4.2-1.4-6.8c0-2.6,0.5-4.9,1.4-6.9c0.9-2,2.3-3.6,4-4.7c1.7-1.1,3.6-1.7,5.8-1.7
			c1.8,0,3.5,0.4,4.9,1.2c1.4,0.8,2.5,1.9,3.3,3.3v-3.8H487.3z M479.5,99.6c1.1-1.4,1.7-3.4,1.7-6c0-2.7-0.6-4.7-1.7-6.1
			c-1.1-1.4-2.7-2.1-4.8-2.1c-2.1,0-3.7,0.7-4.8,2.2c-1.1,1.5-1.7,3.5-1.7,6.1c0,2.6,0.6,4.6,1.7,6c1.1,1.4,2.8,2.1,4.9,2.1
			C476.8,101.7,478.4,101,479.5,99.6z"/>
		<path d="M518.4,81.1v24.3c0,3.9-1.1,6.9-3.2,8.9c-2.2,2-5.3,3-9.5,3c-3.9,0-7.3-0.8-10.3-2.4l1-4.7c3.1,1.6,6.1,2.4,9.1,2.4
			c4.5,0,6.7-2.2,6.7-6.7v-5c-0.8,1.4-1.9,2.5-3.3,3.3c-1.5,0.8-3.1,1.3-4.9,1.3c-2.2,0-4.1-0.5-5.9-1.6c-1.7-1-3-2.5-4-4.4
			c-0.9-1.9-1.4-4.1-1.4-6.5c0-2.5,0.5-4.6,1.4-6.5c0.9-1.9,2.3-3.4,4-4.4c1.7-1,3.7-1.6,5.9-1.6c1.9,0,3.5,0.4,5,1.2
			c1.4,0.8,2.5,1.9,3.3,3.3v-3.8H518.4z M510.5,98.6c1.2-1.4,1.8-3.2,1.8-5.6c0-2.4-0.6-4.3-1.7-5.6c-1.2-1.4-2.8-2-4.9-2
			c-2.1,0-3.7,0.7-4.9,2c-1.2,1.4-1.8,3.2-1.8,5.6c0,2.4,0.6,4.3,1.8,5.6c1.2,1.4,2.8,2,4.9,2C507.7,100.6,509.3,99.9,510.5,98.6z"
			/>
		<path d="M547.1,94h-17.3c0.1,2.7,0.8,4.7,2,6c1.2,1.3,3,1.9,5.4,1.9c2.8,0,5.3-0.9,7.7-2.7l1.8,4.3c-1.2,1-2.7,1.7-4.4,2.3
			c-1.7,0.6-3.5,0.9-5.3,0.9c-4.1,0-7.4-1.2-9.7-3.5c-2.4-2.3-3.5-5.5-3.5-9.6c0-2.6,0.5-4.8,1.5-6.8c1-2,2.5-3.5,4.3-4.7
			c1.9-1.1,4-1.7,6.3-1.7c3.5,0,6.2,1.1,8.2,3.4c2,2.2,3,5.3,3,9.2V94z M532,86.4c-1,1-1.7,2.4-2,4.3h11.7c-0.2-1.9-0.8-3.3-1.7-4.3
			c-0.9-1-2.2-1.4-3.9-1.4C534.4,84.9,533.1,85.4,532,86.4z"/>
		<path d="M575.8,90.8v15.4h-6.2V91.1c0-2-0.4-3.4-1.1-4.4c-0.8-0.9-1.9-1.4-3.5-1.4c-1.9,0-3.4,0.6-4.6,1.8
			c-1.2,1.2-1.7,2.8-1.7,4.8v14.2h-6.2v-18c0-2.7-0.1-5-0.4-7.1h5.8l0.4,4.1c0.9-1.5,2-2.7,3.5-3.5c1.5-0.8,3.1-1.2,5-1.2
			C572.8,80.4,575.8,83.9,575.8,90.8z"/>
		<path d="M606.5,69.6v36.6h-6.1v-4c-0.8,1.4-1.9,2.5-3.3,3.3c-1.4,0.8-3.1,1.2-4.9,1.2c-2.2,0-4.1-0.5-5.8-1.6
			c-1.7-1.1-3-2.6-4-4.7c-0.9-2-1.4-4.3-1.4-6.9c0-2.6,0.5-4.9,1.4-6.8c0.9-2,2.2-3.5,3.9-4.6c1.7-1.1,3.6-1.6,5.8-1.6
			c1.8,0,3.4,0.4,4.8,1.1c1.4,0.7,2.5,1.8,3.3,3.2V69.6H606.5z M598.6,99.6c1.1-1.4,1.7-3.5,1.7-6.1c0-2.6-0.6-4.6-1.7-6.1
			c-1.1-1.4-2.7-2.1-4.8-2.1c-2.1,0-3.7,0.7-4.9,2.1c-1.1,1.4-1.7,3.4-1.7,6c0,2.6,0.6,4.7,1.7,6.1c1.1,1.5,2.7,2.2,4.8,2.2
			S597.5,101,598.6,99.6z"/>
		<path d="M637.3,81.1v25.1h-6.1v-4c-0.8,1.4-1.9,2.5-3.3,3.3c-1.4,0.8-3.1,1.2-4.9,1.2c-2.2,0-4.1-0.5-5.8-1.6s-3-2.6-3.9-4.5
			c-0.9-2-1.4-4.2-1.4-6.8c0-2.6,0.5-4.9,1.4-6.9c0.9-2,2.3-3.6,4-4.7c1.7-1.1,3.6-1.7,5.8-1.7c1.8,0,3.5,0.4,4.9,1.2
			c1.4,0.8,2.5,1.9,3.3,3.3v-3.8H637.3z M629.5,99.6c1.1-1.4,1.7-3.4,1.7-6c0-2.7-0.6-4.7-1.7-6.1c-1.1-1.4-2.7-2.1-4.8-2.1
			c-2.1,0-3.7,0.7-4.8,2.2c-1.1,1.5-1.7,3.5-1.7,6.1c0,2.6,0.6,4.6,1.7,6c1.1,1.4,2.8,2.1,4.9,2.1C626.8,101.7,628.4,101,629.5,99.6
			z"/>
	</g>
	<g class="st0">
		<path d="M452,119.3V156h-6.1v-4c-0.8,1.4-1.9,2.5-3.3,3.3c-1.4,0.8-3.1,1.2-4.9,1.2c-2.2,0-4.1-0.5-5.8-1.6c-1.7-1.1-3-2.6-4-4.7
			c-0.9-2-1.4-4.3-1.4-6.9c0-2.6,0.5-4.9,1.4-6.8c0.9-2,2.2-3.5,3.9-4.6c1.7-1.1,3.6-1.6,5.8-1.6c1.8,0,3.4,0.4,4.8,1.1
			c1.4,0.7,2.5,1.8,3.3,3.2v-15.1H452z M444.1,149.4c1.1-1.4,1.7-3.5,1.7-6.1c0-2.6-0.6-4.6-1.7-6.1c-1.1-1.4-2.7-2.1-4.8-2.1
			c-2.1,0-3.7,0.7-4.9,2.1c-1.1,1.4-1.7,3.4-1.7,6c0,2.6,0.6,4.7,1.7,6.1c1.1,1.5,2.7,2.2,4.8,2.2
			C441.4,151.5,443,150.8,444.1,149.4z"/>
		<path d="M480.8,143.7h-17.3c0.1,2.7,0.8,4.7,2,5.9c1.2,1.3,3,1.9,5.4,1.9c2.8,0,5.3-0.9,7.7-2.7l1.8,4.3c-1.2,1-2.7,1.7-4.4,2.3
			c-1.7,0.6-3.5,0.9-5.3,0.9c-4.1,0-7.4-1.2-9.7-3.5c-2.4-2.3-3.5-5.5-3.5-9.6c0-2.6,0.5-4.8,1.5-6.8c1-2,2.5-3.5,4.3-4.7
			c1.9-1.1,4-1.7,6.3-1.7c3.5,0,6.2,1.1,8.2,3.4c2,2.2,3,5.3,3,9.2V143.7z M465.6,136.1c-1,1-1.7,2.4-2,4.3h11.7
			c-0.2-1.9-0.8-3.3-1.7-4.3c-0.9-1-2.2-1.4-3.9-1.4C468,134.7,466.7,135.2,465.6,136.1z"/>
		<path d="M484.4,153.2l1.7-4.4c2.7,2,5.8,3,9.2,3c1.5,0,2.6-0.2,3.5-0.7c0.8-0.5,1.2-1.2,1.2-2.1c0-0.8-0.3-1.4-0.8-1.8
			c-0.6-0.4-1.5-0.8-2.9-1.2l-4.2-0.9c-4.6-1-6.9-3.3-6.9-7c0-1.5,0.4-2.9,1.3-4.1c0.9-1.2,2.1-2.1,3.6-2.8c1.6-0.7,3.4-1,5.4-1
			c1.8,0,3.5,0.3,5.2,0.8c1.7,0.5,3.1,1.3,4.4,2.4l-1.8,4.2c-2.5-1.9-5.1-2.8-7.8-2.8c-1.4,0-2.5,0.3-3.3,0.8
			c-0.8,0.5-1.2,1.3-1.2,2.2c0,0.7,0.2,1.3,0.7,1.7c0.5,0.4,1.3,0.8,2.5,1.1l4.3,0.9c2.5,0.6,4.3,1.4,5.5,2.6
			c1.1,1.2,1.7,2.7,1.7,4.6c0,2.3-0.9,4.2-2.8,5.5c-1.9,1.4-4.4,2-7.6,2C490.7,156.4,487.1,155.3,484.4,153.2z"/>
		<path d="M523,153.2l1.7-4.4c2.7,2,5.8,3,9.2,3c1.5,0,2.6-0.2,3.5-0.7c0.8-0.5,1.2-1.2,1.2-2.1c0-0.8-0.3-1.4-0.8-1.8
			c-0.6-0.4-1.5-0.8-2.9-1.2l-4.2-0.9c-4.6-1-6.9-3.3-6.9-7c0-1.5,0.4-2.9,1.3-4.1c0.9-1.2,2.1-2.1,3.6-2.8c1.6-0.7,3.4-1,5.4-1
			c1.8,0,3.5,0.3,5.2,0.8c1.7,0.5,3.1,1.3,4.4,2.4l-1.8,4.2c-2.5-1.9-5.1-2.8-7.8-2.8c-1.4,0-2.5,0.3-3.3,0.8
			c-0.8,0.5-1.2,1.3-1.2,2.2c0,0.7,0.2,1.3,0.7,1.7c0.5,0.4,1.3,0.8,2.5,1.1l4.3,0.9c2.5,0.6,4.3,1.4,5.5,2.6
			c1.1,1.2,1.7,2.7,1.7,4.6c0,2.3-0.9,4.2-2.8,5.5s-4.4,2-7.6,2C529.3,156.4,525.7,155.3,523,153.2z"/>
		<path d="M554.2,154.8c-1.9-1.1-3.4-2.6-4.5-4.6c-1-2-1.6-4.3-1.6-6.9c0-2.7,0.5-5,1.6-6.9c1-2,2.5-3.5,4.5-4.6
			c1.9-1.1,4.2-1.6,6.7-1.6c2.5,0,4.7,0.5,6.7,1.6s3.4,2.6,4.5,4.6c1,2,1.6,4.3,1.6,6.9c0,2.7-0.5,5-1.6,6.9c-1,2-2.5,3.5-4.5,4.6
			s-4.1,1.6-6.7,1.6C558.4,156.4,556.2,155.9,554.2,154.8z M565.8,149.4c1.1-1.4,1.7-3.4,1.7-6.1c0-2.7-0.6-4.7-1.7-6.1
			c-1.1-1.4-2.7-2.1-4.8-2.1c-2.1,0-3.7,0.7-4.8,2.1c-1.1,1.4-1.7,3.5-1.7,6.1c0,2.7,0.6,4.8,1.7,6.1c1.1,1.4,2.7,2.1,4.8,2.1
			C563,151.5,564.7,150.8,565.8,149.4z"/>
	</g>
	<g class="st0">
		<path d="M595.1,130.6l-0.1,5.7c-1.1-0.4-2.2-0.6-3.3-0.6c-2.1,0-3.7,0.6-4.9,1.8c-1.1,1.2-1.7,2.9-1.7,4.9V156H579v-18
			c0-2.7-0.1-5-0.4-7.1h5.8l0.5,4.4c0.6-1.6,1.6-2.9,3-3.7c1.4-0.9,2.9-1.3,4.6-1.3C593.5,130.2,594.4,130.4,595.1,130.6z"/>
	</g>
	<g class="st0">
		<path d="M608.8,135.5v11.3c0,3,1.4,4.4,4.1,4.4c0.8,0,1.6-0.1,2.5-0.4v4.9c-1.1,0.4-2.4,0.6-4,0.6c-2.9,0-5-0.8-6.6-2.4
			c-1.5-1.6-2.3-3.9-2.3-6.9v-11.6h-4.8v-4.7h4.8v-6.1l6.2-2.1v8.2h6.7v4.7H608.8z"/>
		<path d="M619.3,119.4h6.9v6.1h-6.9V119.4z M619.7,156v-25.1h6.2V156H619.7z"/>
		<path d="M654.7,143.7h-17.3c0.1,2.7,0.8,4.7,2,5.9c1.2,1.3,3,1.9,5.4,1.9c2.8,0,5.3-0.9,7.7-2.7l1.8,4.3c-1.2,1-2.7,1.7-4.4,2.3
			c-1.7,0.6-3.5,0.9-5.3,0.9c-4.1,0-7.4-1.2-9.7-3.5c-2.4-2.3-3.5-5.5-3.5-9.6c0-2.6,0.5-4.8,1.5-6.8c1-2,2.5-3.5,4.3-4.7
			c1.9-1.1,4-1.7,6.3-1.7c3.5,0,6.2,1.1,8.2,3.4c2,2.2,3,5.3,3,9.2V143.7z M639.6,136.1c-1,1-1.7,2.4-2,4.3h11.7
			c-0.2-1.9-0.8-3.3-1.7-4.3c-0.9-1-2.2-1.4-3.9-1.4C642,134.7,640.7,135.2,639.6,136.1z"/>
		<path d="M658.4,153.2l1.7-4.4c2.7,2,5.8,3,9.2,3c1.5,0,2.6-0.2,3.5-0.7c0.8-0.5,1.2-1.2,1.2-2.1c0-0.8-0.3-1.4-0.8-1.8
			c-0.6-0.4-1.5-0.8-2.9-1.2l-4.2-0.9c-4.6-1-6.9-3.3-6.9-7c0-1.5,0.4-2.9,1.3-4.1c0.9-1.2,2.1-2.1,3.6-2.8c1.6-0.7,3.4-1,5.4-1
			c1.8,0,3.5,0.3,5.2,0.8c1.7,0.5,3.1,1.3,4.4,2.4l-1.8,4.2c-2.5-1.9-5.1-2.8-7.8-2.8c-1.4,0-2.5,0.3-3.3,0.8
			c-0.8,0.5-1.2,1.3-1.2,2.2c0,0.7,0.2,1.3,0.7,1.7c0.5,0.4,1.3,0.8,2.5,1.1l4.3,0.9c2.5,0.6,4.3,1.4,5.5,2.6
			c1.1,1.2,1.7,2.7,1.7,4.6c0,2.3-0.9,4.2-2.8,5.5s-4.4,2-7.6,2C664.7,156.4,661.1,155.3,658.4,153.2z"/>
	</g>
</g>
<path class="st1" d="M190.4,45.2c-1.5-0.9-3.3-1.4-5.1-1.4c-2.5,0-5,1-6.7,2.8c-1.8,1.8-2.8,4.3-2.8,6.8c-0.1,0.4-0.1,0.8,0,1.2
	L190.4,45.2z"/>
<path class="st1" d="M346.4,103.5c-1.5-1-3.3-1.5-5-1.4c-2.6-0.1-5,0.9-6.7,2.8c-1.8,1.8-2.9,4.2-2.8,6.8c0,0.4,0,0.8,0,1.2
	L346.4,103.5z"/>
<path class="st1" d="M112.8,62.9c2.5,0,5-1,6.7-2.8c1.9-1.7,2.9-4.2,2.8-6.7c0-5.3-4.3-9.6-9.6-9.5c-2.5,0-4.9,1-6.7,2.8
	c-3.9,3.6-4.1,9.6-0.5,13.5c1.9,2,4.5,3.1,7.3,3.1L112.8,62.9z"/>
<path class="st1" d="M267.2,102c-2.5,0-5,1-6.7,2.8c-3.7,3.7-3.8,9.7-0.1,13.4c0,0,0.1,0.1,0.1,0.1c3.7,3.7,9.7,3.8,13.4,0.1
	c0,0,0.1-0.1,0.1-0.1c1.8-1.8,2.8-4.2,2.8-6.7c0-2.5-1-5-2.8-6.7C272.2,103.1,269.7,102,267.2,102z"/>
<path class="st1" d="M158.8,121.2c5.3,0,9.6-4.3,9.6-9.6c0-2.6-1.1-5-2.9-6.7c-3.7-3.7-9.8-3.8-13.5,0c0,0,0,0,0,0
	c-3.7,3.7-3.7,9.8,0,13.5c1.8,1.8,4.2,2.8,6.7,2.8H158.8z"/>
<path class="st1" d="M276.8,145v-19.1c-6.8,5-16.3,4.2-22.1-1.9c-3.3-3.3-5.1-7.8-5-12.4c0-9.8,8-17.8,17.8-17.7
	c9.8,0,17.7,7.9,17.7,17.7v33.2h-1.1c29,0.4,62.5,1.8,101.7,4.5V45C243.3-10,70.9-7.3,5,33.2l54.5,163.6
	c9.1-5.5,17.9-10.7,26.7-15.4l0,0C129.1,158.1,173.8,144.3,276.8,145z M328.8,99.1c3.3-3.4,7.8-5.3,12.6-5.3c3.5,0,6.9,1,9.8,3
	c2.9,2,5.2,4.8,6.6,8v0.7l-21.7,14.2c1.5,0.9,3.3,1.4,5,1.4c2.6,0.1,5.2-1,6.9-2.9c0.7-0.8,1.4-1.8,1.8-2.8h8.6
	c-0.7,3.2-2.3,6.1-4.6,8.5c-3.2,3.6-7.8,5.6-12.6,5.5c-4.7,0.1-9.2-1.8-12.6-5.1c-3.4-3.2-5.3-7.8-5.2-12.5
	C323.4,107.1,325.3,102.5,328.8,99.1z M290,94.4h8.2v19.8c0.1,3.8,3.1,6.9,6.9,7c1.9,0,3.6-0.8,4.9-2.1c1.3-1.3,2.1-3,2-4.9V94.5
	h8.2v19.8c0,4-1.7,7.8-4.6,10.5c-5.5,5.8-14.7,6.1-20.6,0.6c-0.2-0.2-0.4-0.4-0.6-0.6c-2.9-2.7-4.5-6.5-4.5-10.5L290,94.4z
	 M122.4,102.5h-5.5v26.2h-8v-26.2h-5.3v-8.1h5.3V83.4h8.1v11.1h5.5L122.4,102.5z M136.2,128.7H128V83h8.1L136.2,128.7z M236.6,83.1
	h8.1v8.1h-8.2L236.6,83.1z M236.6,94.1h8.1v34.3h-8.2L236.6,94.1z M214.4,94.1h5.3V83.1h7.7v11.1h5.3v8.1h-5.3v26.2h-8.1v-25.9H214
	L214.4,94.1z M212.1,108.7v19.8h-8.5V109c0-3.8-3.1-7-7-7c-3.8,0-7,3.1-7,7l0,0v19.8h-8.1V109c0-4,1.6-7.8,4.5-10.6
	c2.8-2.9,6.6-4.5,10.6-4.5c4,0,7.8,1.6,10.5,4.5c2.9,2.7,4.6,6.6,4.6,10.6L212.1,108.7z M173.4,40.6c3.2-3.4,7.8-5.3,12.5-5.2
	c3.5,0,6.9,1,9.8,3c2.9,1.9,5.3,4.7,6.6,8l0.3,0.7l-22.4,14.2c1.5,0.9,3.3,1.4,5.1,1.4c2.5,0.1,5-1,6.7-2.9c0.8-0.8,1.4-1.8,1.9-2.9
	h8.6c-0.7,3.2-2.3,6.2-4.6,8.6c-3.2,3.5-7.8,5.4-12.6,5.3c-4.7,0.1-9.3-1.8-12.6-5.1c-3.4-3.3-5.3-7.8-5.2-12.5
	c0-4.6,1.9-9.1,5.2-12.3L173.4,40.6z M150,50.8c-0.1-4.1,1.7-8,4.7-10.7c3-2.9,6.9-4.5,11.1-4.4h0.9v8.1h-1.3c-2-0.1-4,0.6-5.5,2
	c-1.4,1.3-2.2,3.1-2.2,5v19.8H150V50.8z M158.8,93.9c4.7,0,9.3,1.9,12.6,5.3c3.4,3.3,5.3,7.8,5.2,12.5v17.1h-8.1v-2.8
	c-6.8,4.9-16.3,4.1-22.1-1.9c-6.8-7.1-6.6-18.4,0.5-25.2c3.3-3.2,7.7-4.9,12.2-5H158.8z M135.6,24.7h8.1v8.1h-8.1V24.7z M135.6,36.2
	h8.1v34.4h-8.1V36.2z M100.3,40.9c3.3-3.4,7.8-5.2,12.6-5.2c9.8,0.1,17.7,7.9,17.8,17.7c-0.1,9.8-8.2,17.7-18,17.6
	c-4.6,0-9-1.9-12.3-5.1C93.4,59,93.4,47.8,100.3,40.9C100.3,40.9,100.3,40.9,100.3,40.9z M67.1,24.9h8.5v37.2h18.8v8.5H67.3
	L67.1,24.9z M73.3,128.7h-8.8L80.7,83h9.5l16.2,45.7h-9.1l-2.8-7.6H76.3L73.3,128.7z"/>
<polygon class="st1" points="79.1,113.4 91.7,113.4 85.4,96.2 "/>
<path class="st2" d="M86.2,181.4h299.4v-31.6C212.5,139.1,151.6,146.6,86.2,181.4z"/>
<path class="st2" d="M386.4,149.8L386.4,149.8z"/>
<path class="st2" d="M385.6,149.8L385.6,149.8c-39.2-2.7-72.8-4.1-101.7-4.5h-7.1c-103-1.1-147.7,12.8-190.7,36.1l0,0
	C151.6,146.6,212.5,139.1,385.6,149.8z"/>
<path class="st3" d="M112.8,71c9.8,0,17.7-7.9,17.8-17.6c-0.1-9.8-8-17.6-17.8-17.7c-4.7,0-9.3,1.8-12.6,5.2c-6.9,6.9-6.9,18.1,0,25
	c0,0,0,0,0,0C103.6,69.2,108.1,71.1,112.8,71z M106.1,46.6c3.7-3.7,9.8-3.7,13.5,0c1.8,1.8,2.8,4.2,2.8,6.7c0.1,2.5-1,5-2.8,6.7
	c-3.5,4-9.5,4.4-13.5,1c-4-3.5-4.4-9.5-1-13.5C105.4,47.3,105.7,46.9,106.1,46.6z"/>
<rect x="135.6" y="36.2" class="st3" width="8.1" height="34.4"/>
<path class="st3" d="M158.2,50.8c-0.1-1.9,0.7-3.7,2.2-5c1.5-1.4,3.5-2.1,5.5-2h0.9v-8.1h-1.3c-4.1-0.1-8.1,1.5-11.1,4.4
	c-3,2.7-4.8,6.6-4.7,10.7v19.8h8.1L158.2,50.8z"/>
<polygon class="st3" points="117,83.1 108.9,83.1 108.9,94.4 103.6,94.4 103.6,102.5 108.9,102.5 108.9,128.7 117,128.7 117,102.5 
	122.3,102.5 122.3,94.4 117,94.4 "/>
<rect x="128" y="83" class="st3" width="8.1" height="45.7"/>
<path class="st3" d="M146,124c5.9,6,15.3,6.9,22.1,1.9v2.8h8.4v-17.1c0.1-4.7-1.8-9.2-5.2-12.5c-7.2-6.7-18.4-6.3-25.1,0.9
	C140,106.8,139.9,117.2,146,124z M152,104.9c3.7-3.7,9.8-3.8,13.5,0c0,0,0,0,0,0c1.8,1.8,2.9,4.2,2.8,6.7c0,5.3-4.3,9.6-9.6,9.6
	c-5.3,0-9.6-4.3-9.5-9.6C149.2,109.1,150.2,106.7,152,104.9z"/>
<path class="st3" d="M186,98.4c-2.9,2.7-4.5,6.6-4.5,10.6v19.8h8.1V109c0-3.8,3.1-7,7-7c3.8,0,7,3.1,7,7l0,0v19.8h8.1V109
	c0-4-1.7-7.8-4.6-10.6c-2.7-2.9-6.5-4.5-10.5-4.5C192.6,93.9,188.8,95.5,186,98.4z"/>
<polygon class="st3" points="219.3,128.8 227.4,128.8 227.4,102.5 232.7,102.5 232.7,94.4 227.4,94.4 227.4,83.1 219.3,83.1 
	219.3,94.4 214,94.4 214,102.5 219.3,102.5 "/>
<rect x="236.4" y="94.4" class="st3" width="8.1" height="34.4"/>
<rect x="236.4" y="83.1" class="st3" width="8.1" height="8.1"/>
<path class="st3" d="M285,111.6c-0.1-9.8-8-17.7-17.8-17.8c-9.8,0-17.8,7.9-17.8,17.8c0,4.6,1.8,9.1,5,12.4
	c5.9,6.1,15.3,6.9,22.1,1.9V145h8.4V111.6z M273.9,118.4c-3.7,3.7-9.7,3.8-13.4,0.1c0,0-0.1-0.1-0.1-0.1c-3.7-3.7-3.8-9.7-0.1-13.4
	c0,0,0.1-0.1,0.1-0.1c1.8-1.8,4.2-2.9,6.7-2.8c2.5,0,5,1,6.7,2.8c1.8,1.8,2.9,4.2,2.8,6.7C276.7,114.2,275.7,116.6,273.9,118.4
	L273.9,118.4z"/>
<path class="st3" d="M276.8,145.1L276.8,145.1z"/>
<path class="st3" d="M305,129.3c4,0,7.8-1.7,10.6-4.5c2.9-2.7,4.6-6.5,4.6-10.5V94.5H312v19.8c0,1.8-0.7,3.6-2,4.9
	c-1.3,1.3-3.1,2.1-4.9,2.1c-3.8-0.2-6.7-3.3-6.7-7V94.5h-8.4v19.8c0,4,1.6,7.8,4.5,10.5C297.2,127.6,301,129.3,305,129.3z"/>
<path class="st3" d="M185.4,71c4.7,0.1,9.3-1.8,12.6-5.3c2.3-2.4,3.9-5.3,4.6-8.6H194c-0.4,1.1-1.1,2-1.9,2.9
	c-1.7,1.9-4.1,3-6.7,2.9c-1.8,0-3.6-0.5-5.1-1.4l21.8-14.2l-0.3-0.7c-1.4-3.2-3.7-6-6.6-8c-2.9-2-6.3-3-9.8-3
	c-4.7-0.1-9.3,1.8-12.5,5.2c-3.4,3.3-5.2,7.8-5.2,12.6c-0.1,4.7,1.8,9.2,5.2,12.5C176.1,69.3,180.7,71.1,185.4,71z M178.5,46.6
	c1.8-1.8,4.2-2.9,6.7-2.8c1.8,0,3.6,0.5,5.1,1.4l-14.5,9.4c-0.1-0.4-0.1-0.8,0-1.2C175.8,50.9,176.7,48.4,178.5,46.6z"/>
<path class="st3" d="M341.4,129.3c4.8,0.1,9.4-1.9,12.6-5.5c2.3-2.4,3.9-5.3,4.6-8.5H350c-0.5,1-1.1,2-1.8,2.8
	c-1.7,1.9-4.2,3-6.7,2.9c-1.8,0-3.5-0.5-5-1.4l21.7-14v-0.7c-1.4-3.2-3.7-6-6.6-8c-2.9-2-6.3-3-9.8-3c-4.7-0.1-9.3,1.8-12.6,5.3
	c-3.4,3.3-5.2,7.8-5.1,12.6c-0.1,4.7,1.8,9.3,5.2,12.5C332.4,127.4,336.8,129.3,341.4,129.3z M334.6,104.9c1.7-1.9,4.2-2.9,6.7-2.8
	c1.8,0,3.5,0.5,5,1.4l-14.5,9.4c0-0.4,0-0.8,0-1.2C331.8,109.1,332.8,106.7,334.6,104.9z"/>
<polygon class="st3" points="94.5,62.1 75.7,62.1 75.7,24.9 67.3,24.9 67.3,70.5 94.5,70.5 "/>
<path class="st3" d="M97.2,128.7h9.1L90.2,83h-9.5l-16.2,45.7h9l2.8-7.6h18.2L97.2,128.7z M79.1,113.5l6.3-17.3l6.3,17.3L79.1,113.5
	z"/>
<rect x="135.6" y="24.7" class="st3" width="8.1" height="8.1"/>
</svg>
