<svg id="Calque_1" data-name="Calque 1" xmlns="http://www.w3.org/2000/svg" width="480" height="480" viewBox="0 0 480 480"><rect width="480" height="480" style="fill:#dc3545"/><path d="M230.38271,127.39835,202.427,99.44261a25.1133,25.1133,0,0,1,0-35.51556l0,0a25.11331,25.11331,0,0,1,35.51557,0l27.95573,27.95573Z" style="fill:none;stroke:#fff;stroke-linecap:round;stroke-linejoin:round;stroke-width:12.5px"/><path d="M86.80307,270.978,58.84734,243.02225a25.1133,25.1133,0,0,1,0-35.51556l0,0a25.11331,25.11331,0,0,1,35.51557,0l27.95573,27.95573Z" style="fill:none;stroke:#fff;stroke-linecap:round;stroke-linejoin:round;stroke-width:12.5px"/><path d="M243.4959,249.96005a36.31389,36.31389,0,1,1-51.35559,51.3556" style="fill:none;stroke:#fff;stroke-linecap:round;stroke-linejoin:round;stroke-width:12.5px"/><circle cx="272.02073" cy="148.34056" r="14.63415" style="fill:none;stroke:#fff;stroke-linecap:round;stroke-linejoin:round;stroke-width:12.5px"/><circle cx="143.26088" cy="277.10041" r="14.63415" style="fill:none;stroke:#fff;stroke-linecap:round;stroke-linejoin:round;stroke-width:12.5px"/><path d="M230.19391,369.03346,152.6836,334.65121,328.812,158.52278l34.38226,77.51031a34.976,34.976,0,0,1-7.23991,38.91383l-86.84663,86.84663A34.976,34.976,0,0,1,230.19391,369.03346Z" style="fill:none;stroke:#fff;stroke-linecap:round;stroke-linejoin:round;stroke-width:12.5px"/><rect x="67.16738" y="168.39439" width="282.384" height="91.60833" transform="translate(507.15296 218.32748) rotate(135)" style="fill:none;stroke:#fff;stroke-linecap:round;stroke-linejoin:round;stroke-width:12.5px"/><line x1="166.22325" y1="368.206" x2="170.34402" y2="364.08523" style="fill:none;stroke:#fff;stroke-linecap:round;stroke-linejoin:round;stroke-width:12.5px"/><line x1="358.24605" y1="176.1832" x2="362.36682" y2="172.06244" style="fill:none;stroke:#fff;stroke-linecap:round;stroke-linejoin:round;stroke-width:12.5px"/><line x1="59.28024" y1="423.4285" x2="424.0161" y2="423.4285" style="fill:none;stroke:#fff;stroke-linecap:round;stroke-linejoin:round;stroke-width:12.5px"/><polyline points="368.709 369.686 357.635 337.879 411.897 360.95 387.76 316.737 428.508 302.507" style="fill:none;stroke:#fff;stroke-linecap:round;stroke-linejoin:round;stroke-width:12.5px"/></svg>