<svg id="Calque_1" data-name="Calque 1" xmlns="http://www.w3.org/2000/svg" width="480" height="480" viewBox="0 0 480 480"><defs><style>.cls-1{fill:#dc3545;}.cls-2{fill:#fff;}</style></defs><rect class="cls-1" width="480" height="480"/><path class="cls-2" d="M93.28467,267.88037l-5.18408,5.18408a6.24978,6.24978,0,0,0,0,8.83887l58.29882,58.29785a6.24889,6.24889,0,0,0,8.83887,0l7.56287-7.563,65.839,29.20459a37.43983,37.43983,0,0,0,15.1958,3.20313,37.91285,37.91285,0,0,0,26.78027-11.0127l78.16211-78.16211a37.958,37.958,0,0,0,7.80957-41.97558l-29.20508-65.83789,7.56348-7.56348a6.25009,6.25009,0,0,0,0-8.83984L276.64648,93.35547a6.24949,6.24949,0,0,0-8.83789.001l-4.49994,4.5L242.56738,77.11426A28.85189,28.85189,0,1,0,201.76465,117.917l20.7417,20.7417-88.41913,88.419-20.741-20.7417A28.85206,28.85206,0,0,0,72.543,247.13867ZM205.814,97.5166a16.35808,16.35808,0,0,1,27.915-11.56348l20.74073,20.74122-23.12549,23.125-20.74072-20.74122A16.243,16.243,0,0,1,205.814,97.5166Zm32.91309,193.24805a26.42824,26.42824,0,0,1-35.63983,1.58838l37.22687-37.22657A26.46657,26.46657,0,0,1,238.72705,290.76465ZM339.94043,267.0332l-78.16211,78.16211A25.38431,25.38431,0,0,1,233.7085,350.417l-61.43409-27.251,21.95276-21.95264A38.92557,38.92557,0,0,0,249.176,246.26465l68.7342-68.73438,27.25195,61.4336A25.38618,25.38618,0,0,1,339.94043,267.0332Zm-18.25195-110.959L150.81885,326.94336l-49.46-49.46,31.29339-31.29346,5.85407-5.854.001-.001,133.72015-133.7207ZM81.38184,215.17578a16.37082,16.37082,0,0,1,23.12548-.001L125.24805,235.916l-23.12549,23.125L81.38184,238.30078A16.371,16.371,0,0,1,81.38184,215.17578Z"/><path class="cls-2" d="M268.81934,176.918a19.41163,19.41163,0,1,0-13.73243-5.67969A19.35765,19.35765,0,0,0,268.81934,176.918ZM263.9248,152.6123a6.92122,6.92122,0,1,1,0,9.78809A6.90347,6.90347,0,0,1,263.9248,152.6123Z"/><path class="cls-2" d="M139.20215,287.12207a19.4204,19.4204,0,1,0,0-27.46387A19.3607,19.3607,0,0,0,139.20215,287.12207Zm8.83887-18.626a6.921,6.921,0,1,1,0,9.78809A6.9015,6.9015,0,0,1,148.041,268.49609Z"/><path class="cls-2" d="M172.88965,347.25781l-3.7085,3.709a6.25,6.25,0,0,0,8.83985,8.83789l3.70849-3.709a6.25,6.25,0,0,0-8.83984-8.83789Z"/><path class="cls-2" d="M346.42188,188.81445a6.22728,6.22728,0,0,0,4.41894-1.83105l3.708-3.708a6.24933,6.24933,0,0,0-8.83789-8.83789l-3.708,3.708a6.25,6.25,0,0,0,4.41895,10.66894Z"/><path class="cls-2" d="M405.61426,398.83594H77.35205a6.25,6.25,0,0,0,0,12.5H405.61426a6.25,6.25,0,0,0,0-12.5Z"/><path class="cls-2" d="M415.55762,294.19531a6.25068,6.25068,0,0,0-7.96094-3.83984l-36.67285,12.80762a6.24852,6.24852,0,0,0-3.42481,8.8955l13.10743,24.00879-32.28907-13.72754a6.25035,6.25035,0,0,0-8.34765,7.80664l9.96582,28.625a6.24975,6.24975,0,1,0,11.80468-4.10937L356.415,339.36523l35.84766,15.24122a6.25,6.25,0,0,0,7.93066-8.74707L382,312.53516l29.71777-10.37891A6.24907,6.24907,0,0,0,415.55762,294.19531Z"/></svg>