<svg id="Calque_1" data-name="Calque 1" xmlns="http://www.w3.org/2000/svg" width="480" height="480" viewBox="0 0 480 480"><defs><style>.cls-1{fill:#ffc134;}</style></defs><rect class="cls-1" width="480" height="480"/><path d="M404.62207,130.30664,369.11584,94.79956q-.19839-.21789-.41626-.41626l-4.20153-4.20166-4.20154,4.20166q-.218.19848-.41626.41626L324.374,130.30664a6.24933,6.24933,0,0,0,8.83789,8.83789l25.03614-25.0354V379.85059a6.25,6.25,0,0,0,12.5,0V114.10913l25.03613,25.0354a6.24933,6.24933,0,0,0,8.83789-8.83789Z"/><path d="M270.78418,339.707l-25.03613,25.0354V99.001a6.25,6.25,0,0,0-12.5,0V364.74219L208.2124,339.707a6.24967,6.24967,0,0,0-8.83886,8.83789l35.50927,35.50977q.1962.21533.41132.41113l4.20392,4.2041,4.20153-4.20166q.218-.19848.41626-.41626l35.50623-35.50708a6.24933,6.24933,0,0,0-8.83789-8.83789Z"/><path d="M137,93.74121H94.87256a5.41309,5.41309,0,0,0,0,10.82617H137a5.41309,5.41309,0,0,0,0-10.82617Z"/><path d="M137,374.74121H94.87256a5.41309,5.41309,0,0,0,0,10.82617H137a5.41309,5.41309,0,0,0,0-10.82617Z"/></svg>