<svg id="Calque_1" data-name="Calque 1" xmlns="http://www.w3.org/2000/svg" width="480" height="480" viewBox="0 0 480 480"><defs><style>.cls-1{fill:#99e6d1;}</style></defs><rect class="cls-1" width="480" height="480"/><path d="M147.19385,341.15723,122.1582,366.1925V100.45117a6.25,6.25,0,0,0-12.5,0V366.1925L84.62256,341.15723a6.24968,6.24968,0,0,0-8.83887,8.83789L111.293,385.50488q.1962.21516.41131.41126l4.20392,4.204,4.20392-4.204q.21534-.19611.41132-.41126l35.50927-35.50976a6.24967,6.24967,0,0,0-8.83886-8.83789Z"/><path d="M404.62207,130.30664,369.11584,94.79956q-.19839-.218-.41626-.41626l-4.20153-4.20166-4.20154,4.20166q-.218.19848-.41626.41626L324.374,130.30664a6.24933,6.24933,0,0,0,8.83789,8.83789l25.03614-25.03534v265.7414a6.25,6.25,0,0,0,12.5,0V114.10919l25.03613,25.03534a6.24933,6.24933,0,0,0,8.83789-8.83789Z"/><path d="M261,93.74121H218.87256a5.41309,5.41309,0,0,0,0,10.82617H261a5.41309,5.41309,0,1,0,0-10.82617Z"/><path d="M261,374.74121H218.87256a5.41309,5.41309,0,0,0,0,10.82617H261a5.41309,5.41309,0,1,0,0-10.82617Z"/></svg>