<svg id="Calque_1" data-name="Calque 1" xmlns="http://www.w3.org/2000/svg" width="480" height="480" viewBox="0 0 480 480"><defs><style>.cls-1{fill:#99e6d1;}</style></defs><rect class="cls-1" width="480" height="480" transform="translate(480 480) rotate(180)"/><path d="M404.21582,130.00488,368.7121,94.50073q-.20087-.22092-.42157-.42157l-4.19873-4.19879-4.19873,4.19879q-.22083.20077-.42157.42157l-35.50373,35.50415a6.24968,6.24968,0,0,0,8.83789,8.83887L357.8418,113.808V379.54932a6.25,6.25,0,0,0,12.5,0V113.808l25.03613,25.03577a6.24968,6.24968,0,1,0,8.83789-8.83887Z"/><path d="M146.7876,340.855,121.752,365.89026V100.14941a6.25,6.25,0,0,0-12.5,0V365.89026L84.21631,340.855a6.25,6.25,0,1,0-8.83887,8.83887l35.50739,35.50689q.19812.21753.4154.41547l4.20172,4.20166,4.20172-4.20166q.21753-.19812.41541-.41547l35.50738-35.50689a6.25,6.25,0,1,0-8.83886-8.83887Z"/><path d="M271.78809,340.855,246.752,365.89032V100.14941a6.25,6.25,0,0,0-12.5,0V365.89026L209.21631,340.855a6.25,6.25,0,1,0-8.83887,8.83887l35.50739,35.50689q.19812.21753.4154.41547l4.20172,4.20166,4.19928-4.19928q.22028-.20031.42047-.42047L280.626,349.69385a6.24968,6.24968,0,1,0-8.83789-8.83887Z"/></svg>