<svg id="Calque_1" data-name="Calque 1" xmlns="http://www.w3.org/2000/svg" width="480" height="480" viewBox="0 0 480 480"><defs><style>.cls-1{fill:#ffc134;}</style></defs><rect class="cls-1" width="480" height="480"/><path d="M146.7876,340.85547,121.752,365.89075V100.14941a6.25,6.25,0,0,0-12.5,0V365.89075L84.21631,340.85547a6.24968,6.24968,0,1,0-8.83887,8.83789l35.50928,35.50976q.1962.21516.41131.41126l4.20392,4.204,4.20392-4.204q.21534-.19611.41132-.41126l35.50927-35.50976a6.24967,6.24967,0,1,0-8.83886-8.83789Z"/><path d="M244.11584,94.79956q-.19839-.21789-.41626-.41626l-4.20153-4.20166-4.20392,4.204q-.21534.19611-.41132.41126l-35.50927,35.50976a6.24967,6.24967,0,0,0,8.83886,8.83789l25.03565-25.03528V379.85059a6.25,6.25,0,0,0,12.5,0V114.10913l25.03613,25.0354a6.24933,6.24933,0,0,0,8.83789-8.83789Z"/><path d="M342.87207,104.56738H385a5.41308,5.41308,0,1,0,0-10.82617H342.87207a5.41308,5.41308,0,1,0,0,10.82617Z"/><path d="M385,374.74121H342.87207a5.41308,5.41308,0,1,0,0,10.82617H385a5.41309,5.41309,0,1,0,0-10.82617Z"/></svg>