<svg id="Calque_1" data-name="Calque 1" xmlns="http://www.w3.org/2000/svg" width="480" height="480" viewBox="0 0 480 480"><defs><style>.cls-1{fill:#ffc134;}</style></defs><rect class="cls-1" width="480" height="480"/><path d="M359.49707,188.03516c-33.68164,0-45.97559-17.81934-53.32031-28.4668-2.11719-3.06934-5.01758-7.27344-6.36133-7.27344s-4.24414,4.2041-6.36231,7.27344c-7.34472,10.64746-19.63769,28.4668-53.31933,28.4668s-45.97559-17.81934-53.32031-28.4668c-2.11719-3.06934-5.01758-7.27344-6.36133-7.27344s-4.24414,4.2041-6.36133,7.27344c-7.3457,10.64746-19.63867,28.4668-53.32031,28.4668-33.68262,0-45.97559-17.82032-53.32031-28.46778-.78516-1.13769-1.53125-2.2207-2.26172-3.21972a6.25028,6.25028,0,1,1,10.09179-7.377c.79395,1.08594,1.60547,2.26172,2.459,3.49805,7.08886,10.27734,15.91113,23.06641,43.03125,23.06641,27.11914,0,35.9414-12.78907,43.03125-23.06446,4.29883-6.23242,8.74414-12.67578,16.65039-12.67578s12.35156,6.44336,16.65039,12.67578c7.08984,10.27539,15.91211,23.06446,43.03125,23.06446s35.94141-12.78907,43.03027-23.06446c4.29981-6.23242,8.74512-12.67578,16.65137-12.67578s12.35156,6.44336,16.65039,12.67578c7.08984,10.27539,15.91211,23.06446,43.03125,23.06446s35.94141-12.78907,43.03027-23.06543c.75-1.08692,1.46778-2.127,2.16993-3.09961a6.25008,6.25008,0,1,1,10.13671,7.31445c-.65234.9043-1.31933,1.87207-2.0166,2.88281C405.47168,170.21484,393.17871,188.03516,359.49707,188.03516Z"/><path d="M359.49707,264.12012c-33.68164,0-45.97559-17.81934-53.32031-28.4668-2.11719-3.06934-5.01758-7.27344-6.36133-7.27344s-4.24414,4.2041-6.36231,7.27344c-7.34472,10.64746-19.63769,28.4668-53.31933,28.4668s-45.97559-17.81934-53.32031-28.4668c-2.11719-3.06934-5.01758-7.27344-6.36133-7.27344s-4.24414,4.2041-6.36133,7.27344c-7.3457,10.64746-19.63867,28.4668-53.32031,28.4668-33.68262,0-45.97559-17.82032-53.32031-28.46778-.78516-1.13769-1.53125-2.2207-2.26172-3.21972a6.25028,6.25028,0,1,1,10.09179-7.377c.79395,1.08594,1.60547,2.26172,2.459,3.49805,7.08886,10.27734,15.91113,23.06641,43.03125,23.06641,27.11914,0,35.9414-12.78907,43.03125-23.06446,4.29883-6.23242,8.74414-12.67578,16.65039-12.67578s12.35156,6.44336,16.65039,12.67578c7.08984,10.27539,15.91211,23.06446,43.03125,23.06446s35.94141-12.78907,43.03027-23.06446c4.29981-6.23242,8.74512-12.67578,16.65137-12.67578s12.35156,6.44336,16.65039,12.67578c7.08984,10.27539,15.91211,23.06446,43.03125,23.06446s35.94141-12.78907,43.03027-23.06543c.75-1.08692,1.46778-2.127,2.16993-3.09961a6.25008,6.25008,0,1,1,10.13671,7.31445c-.65234.9043-1.31933,1.87207-2.0166,2.88281C405.47168,246.2998,393.17871,264.12012,359.49707,264.12012Z"/><path d="M359.49707,340.20508c-33.68164,0-45.97559-17.81934-53.32031-28.4668-2.11719-3.06933-5.01758-7.27344-6.36133-7.27344s-4.24414,4.20411-6.36231,7.27344c-7.34472,10.64746-19.63769,28.4668-53.31933,28.4668s-45.97559-17.81934-53.32031-28.4668c-2.11719-3.06933-5.01758-7.27344-6.36133-7.27344s-4.24414,4.20411-6.36133,7.27344c-7.3457,10.64746-19.63867,28.4668-53.32031,28.4668-33.68262,0-45.97559-17.82031-53.32031-28.46778-.78516-1.13769-1.53125-2.2207-2.26172-3.21972a6.25028,6.25028,0,1,1,10.09179-7.377c.79395,1.08594,1.60547,2.26172,2.459,3.498,7.08886,10.27735,15.91113,23.06641,43.03125,23.06641,27.11914,0,35.9414-12.78906,43.03125-23.06446,4.29883-6.23242,8.74414-12.67578,16.65039-12.67578s12.35156,6.44336,16.65039,12.67578c7.08984,10.2754,15.91211,23.06446,43.03125,23.06446s35.94141-12.78906,43.03027-23.06446c4.29981-6.23242,8.74512-12.67578,16.65137-12.67578s12.35156,6.44336,16.65039,12.67578c7.08984,10.2754,15.91211,23.06446,43.03125,23.06446s35.94141-12.78906,43.03027-23.06543c.75-1.08692,1.46778-2.127,2.16993-3.09961a6.25008,6.25008,0,0,1,10.13671,7.31445c-.65234.9043-1.31933,1.87207-2.0166,2.88281C405.47168,322.38477,393.17871,340.20508,359.49707,340.20508Z"/></svg>