<svg id="Calque_1" data-name="Calque 1" xmlns="http://www.w3.org/2000/svg" width="480" height="480" viewBox="0 0 480 480"><defs><style>.cls-1{fill:#ffc134;}</style></defs><rect class="cls-1" width="480" height="480"/><g id="Tracé_1117-2" data-name="Tracé 1117-2"><path d="M400.20312,140.97559a6.22729,6.22729,0,0,1-4.41894-1.83106l-31.28613-31.28515-31.28614,31.28515a6.24933,6.24933,0,0,1-8.83789-8.83789l40.124-40.125,40.124,40.125a6.25,6.25,0,0,1-4.41895,10.669Z"/></g><g id="Ligne_260-2" data-name="Ligne 260-2"><path d="M364.49805,386.10059h0a6.25015,6.25015,0,0,1-6.25-6.25l.002-54.43262L239.03027,296.5752A6.25061,6.25061,0,0,1,234.25,290.5v-50a6.2483,6.2483,0,0,1,3.17773-5.44238L358.25,166.85156l-.002-67.85058a6.25,6.25,0,1,1,12.5,0l.002,71.499a6.2483,6.2483,0,0,1-3.17773,5.44238L246.75,244.14844V285.582L365.96973,314.4248A6.25061,6.25061,0,0,1,370.75,320.5l-.002,59.35059A6.25016,6.25016,0,0,1,364.49805,386.10059Z"/></g><g id="Tracé_1117-2-2" data-name="Tracé 1117-2"><path d="M152.207,140.97559a6.22725,6.22725,0,0,1-4.41894-1.83106L116.502,107.85938,85.21582,139.14453a6.24933,6.24933,0,0,1-8.83789-8.83789l40.124-40.125,40.124,40.125a6.25,6.25,0,0,1-4.41895,10.669Z"/></g><g id="Ligne_260-2-2" data-name="Ligne 260-2"><path d="M116.502,386.10059a6.25016,6.25016,0,0,1-6.25-6.25L110.25,320.5a6.25061,6.25061,0,0,1,4.78027-6.0752L234.25,285.582V244.14844L113.42773,175.94238A6.2483,6.2483,0,0,1,110.25,170.5l.00195-71.499a6.25015,6.25015,0,0,1,6.25-6.25h0a6.25015,6.25015,0,0,1,6.25,6.25L122.75,166.85156l120.82227,68.20606A6.2483,6.2483,0,0,1,246.75,240.5v50a6.25061,6.25061,0,0,1-4.78027,6.0752L122.75,325.418l.00195,54.43262A6.25015,6.25015,0,0,1,116.502,386.10059Z"/></g></svg>