<svg id="Calque_1" data-name="Calque 1" xmlns="http://www.w3.org/2000/svg" width="480" height="480" viewBox="0 0 480 480"><defs><style>.cls-1{fill:#ffc134;}</style></defs><rect class="cls-1" width="480" height="480"/><path d="M404.62207,130.30664,369.1123,94.7959q-.19556-.21387-.40918-.40918l-4.20507-4.20508L360.293,94.38672q-.21387.19555-.40918.40918L324.374,130.30664a6.24933,6.24933,0,0,0,8.83789,8.83789l25.03663-25.03564.00146,52.74267L240.5,233.32324,122.75,166.85156l.00146-52.74267,25.03663,25.03564a6.24933,6.24933,0,1,0,8.83789-8.83789L121.11621,94.7959q-.19555-.21387-.40918-.40918L116.502,90.18164l-4.20507,4.20508q-.21387.19555-.40918.40918L76.37793,130.30664a6.24933,6.24933,0,0,0,8.83789,8.83789l25.03564-25.03515L110.25,170.5a6.2483,6.2483,0,0,0,3.17773,5.44238L234.25,244.14844V285.582L115.03027,314.4248A6.25061,6.25061,0,0,0,110.25,320.5l.00195,59.35059a6.25,6.25,0,0,0,12.5,0L122.75,325.418,240.5,296.93066,358.25,325.418l-.002,54.43262a6.25,6.25,0,0,0,12.5,0L370.75,320.5a6.25061,6.25061,0,0,0-4.78027-6.0752L246.75,285.582V244.14844l120.82227-68.20606A6.2483,6.2483,0,0,0,370.75,170.5l-.00146-56.39062,25.03564,25.03515a6.24933,6.24933,0,0,0,8.83789-8.83789Z"/></svg>