<svg id="Calque_1" data-name="Calque 1" xmlns="http://www.w3.org/2000/svg" width="480" height="480" viewBox="0 0 480 480"><defs><style>.cls-1{fill:#ffc134;}</style></defs><rect class="cls-1" width="480" height="480"/><path d="M404.62207,130.30664,369.11218,94.7959q-.19509-.21387-.40893-.40918l-4.2052-4.20508-4.2052,4.20508q-.214.19555-.40894.40918L324.374,130.30664a6.24933,6.24933,0,0,0,8.83789,8.83789l25.03656-25.03564.00153,52.74267L240.5,233.32324,122.75,166.85156l.00153-52.74267,25.03607,25.03564a6.24967,6.24967,0,0,0,8.83886-8.83789L121.11554,94.79541q-.19455-.21314-.40778-.40771L116.502,90.18164l-4.20392,4.2041q-.21532.19629-.41131.41114L76.37744,130.30664a6.24968,6.24968,0,0,0,8.83887,8.83789l25.03522-25.03467L110.25,170.5a6.2493,6.2493,0,0,0,3.17773,5.44238L234.25,244.14844V285.582L115.03027,314.4248A6.25061,6.25061,0,0,0,110.25,320.5l.00195,59.35059a6.25,6.25,0,0,0,12.5,0L122.75,325.418,240.5,296.93066,358.25,325.418l-.002,54.43262a6.25,6.25,0,0,0,12.5,0L370.75,320.5a6.25061,6.25061,0,0,0-4.78027-6.0752L246.75,285.582V244.14844l120.82227-68.20606A6.2483,6.2483,0,0,0,370.75,170.5l-.00153-56.39062,25.03571,25.03515a6.24933,6.24933,0,0,0,8.83789-8.83789Z"/></svg>