<svg id="Calque_1" data-name="Calque 1" xmlns="http://www.w3.org/2000/svg" width="480" height="480" viewBox="0 0 480 480"><defs><style>.cls-1{fill:#ffc134;}</style></defs><rect class="cls-1" width="480" height="480"/><path d="M270.78418,339.707l-25.03613,25.0354V239.5293L245.75,239.5v-50l-.00195-.023V99.001a6.25,6.25,0,0,0-12.5,0v82.55566L121.75,154.582l.00195-54.43262a6.25,6.25,0,0,0-12.5,0L109.25,159.5a6.25061,6.25061,0,0,0,4.78027,6.0752l119.21778,28.84228v41.43506L112.42773,304.05762A6.2493,6.2493,0,0,0,109.25,309.5l.00153,56.39038L84.21631,340.85547a6.24968,6.24968,0,1,0-8.83887,8.83789l35.50928,35.50976q.1962.21534.41131.41114l4.20392,4.2041,4.20581-4.20581q.21333-.19446.40778-.408l35.51092-35.51123a6.24967,6.24967,0,1,0-8.83886-8.83789l-25.03607,25.03564L121.75,313.14844l111.49805-62.94239V364.74219L208.2124,339.707a6.24967,6.24967,0,0,0-8.83886,8.83789l35.50927,35.50977q.1962.21533.41132.41113l4.20392,4.2041,4.20153-4.20166q.218-.19848.41626-.41626l35.50623-35.50708a6.24933,6.24933,0,0,0-8.83789-8.83789Z"/><path d="M404.62207,130.30664,369.11584,94.79956q-.19839-.21789-.41626-.41626l-4.20153-4.20166-4.20154,4.20166q-.218.19848-.41626.41626L324.374,130.30664a6.24933,6.24933,0,0,0,8.83789,8.83789l25.03614-25.0354V379.85059a6.25,6.25,0,0,0,12.5,0V114.10913l25.03613,25.0354a6.24933,6.24933,0,0,0,8.83789-8.83789Z"/></svg>