<svg id="Calque_1" data-name="Calque 1" xmlns="http://www.w3.org/2000/svg" width="480" height="480" viewBox="0 0 480 480"><defs><style>.cls-1{fill:#ffc134;}</style></defs><rect class="cls-1" width="480" height="480"/><path d="M270.78418,339.707l-25.03613,25.0354V239.5293L245.75,239.5v-50l-.00195-.023V99.001a6.25,6.25,0,0,0-12.5,0v82.55566L121.75,154.582l.00195-54.43262a6.25,6.25,0,0,0-12.5,0L109.25,159.5a6.25061,6.25061,0,0,0,4.78027,6.0752l119.21778,28.84228v41.43506L112.42773,304.05762A6.2483,6.2483,0,0,0,109.25,309.5l.00146,56.39038L84.21582,340.85547a6.24933,6.24933,0,1,0-8.83789,8.83789L110.8877,385.2041q.19555.21387.40918.40894l4.20507,4.20532L119.707,385.613q.21387-.1952.40918-.40894L155.626,349.69336a6.24933,6.24933,0,1,0-8.83789-8.83789l-25.03663,25.03564L121.75,313.14844l111.49805-62.94239V364.74243L208.21191,339.707a6.24933,6.24933,0,1,0-8.83789,8.83789L234.88037,384.052q.1985.2179.416.41626l4.20166,4.20166,4.20166-4.20166q.21753-.19848.416-.41626l35.50635-35.50708a6.24933,6.24933,0,0,0-8.83789-8.83789Z"/><path d="M404.62207,130.30664,369.11572,94.79956q-.19848-.21789-.416-.41626l-4.20166-4.20166-4.20166,4.20166q-.21753.19848-.416.41626L324.374,130.30664a6.24933,6.24933,0,0,0,8.83789,8.83789l25.03614-25.0354V379.85059a6.25,6.25,0,0,0,12.5,0V114.10913l25.03613,25.0354a6.24933,6.24933,0,0,0,8.83789-8.83789Z"/></svg>