<svg id="Calque_1" data-name="Calque 1" xmlns="http://www.w3.org/2000/svg" width="480" height="480" viewBox="0 0 480 480"><defs><style>.cls-1{fill:#ffc134;}</style></defs><rect class="cls-1" width="480" height="480"/><path d="M404.62207,130.30664,369.11218,94.7959q-.19509-.21387-.40893-.40894l-4.2052-4.20532-4.2052,4.20532q-.214.19519-.40894.40894L324.374,130.30664a6.24933,6.24933,0,0,0,8.83789,8.83789l25.03656-25.03564.00153,52.74267L246.752,229.794V115.25757l25.03614,25.0354a6.24933,6.24933,0,1,0,8.83789-8.83789L245.11975,95.948q-.19839-.2179-.41626-.41626L240.502,91.33008l-4.20392,4.2041q-.21533.19591-.41131.41113l-35.50928,35.50977a6.24968,6.24968,0,1,0,8.83887,8.83789L234.252,115.25781V240.471L234.25,240.5v50l.00195.02295V380.999a6.25,6.25,0,0,0,12.5,0V298.44336L358.25,325.418l-.002,54.43262a6.25,6.25,0,0,0,12.5,0L370.75,320.5a6.25061,6.25061,0,0,0-4.78027-6.0752L246.752,285.58252V244.14746l120.82032-68.20508A6.2483,6.2483,0,0,0,370.75,170.5l-.00153-56.39038,25.03571,25.03491a6.24933,6.24933,0,0,0,8.83789-8.83789Z"/><path d="M120.11719,94.79688q-.1962-.21534-.41132-.41114l-4.20392-4.2041-4.20392,4.2041q-.21532.19593-.41131.41114L75.37744,130.30664a6.24968,6.24968,0,0,0,8.83887,8.83789L109.252,114.10938V379.85059a6.25,6.25,0,0,0,12.5,0V114.10938l25.03565,25.03515a6.24967,6.24967,0,0,0,8.83886-8.83789Z"/></svg>