<svg id="Calque_1" data-name="Calque 1" xmlns="http://www.w3.org/2000/svg" width="480" height="480" viewBox="0 0 480 480"><defs><style>.cls-1{fill:#ffc134;}</style></defs><rect class="cls-1" width="480" height="480"/><path d="M404.62207,130.30664,369.1123,94.7959q-.19556-.21387-.40918-.40894l-4.20507-4.20532L360.293,94.387q-.21387.19519-.40918.40894L324.374,130.30664a6.24933,6.24933,0,0,0,8.83789,8.83789l25.03663-25.03564.00146,52.74267L246.752,229.794V115.25757l25.03614,25.0354a6.24933,6.24933,0,1,0,8.83789-8.83789L245.11963,95.948q-.1985-.2179-.416-.41626L240.502,91.33008l-4.20166,4.20166q-.21753.19848-.416.41626l-35.50635,35.50708a6.24933,6.24933,0,1,0,8.83789,8.83789l25.03613-25.0354V240.4707L234.25,240.5v50l.00195.02295V380.999a6.25,6.25,0,0,0,12.5,0V298.44336L358.25,325.418l-.002,54.43262a6.25,6.25,0,0,0,12.5,0L370.75,320.5a6.25061,6.25061,0,0,0-4.78027-6.0752L246.752,285.58252V244.14746l120.82032-68.20508A6.2483,6.2483,0,0,0,370.75,170.5l-.00146-56.39038,25.03564,25.03491a6.24933,6.24933,0,0,0,8.83789-8.83789Z"/><path d="M120.11963,94.79956q-.19849-.21789-.416-.41626L115.502,90.18164l-4.20166,4.20166q-.21753.19848-.416.41626L75.37793,130.30664a6.24933,6.24933,0,0,0,8.83789,8.83789l25.03613-25.0354V379.85059a6.25,6.25,0,0,0,12.5,0V114.10913l25.03614,25.0354a6.24933,6.24933,0,1,0,8.83789-8.83789Z"/></svg>