<svg id="Calque_1" data-name="Calque 1" xmlns="http://www.w3.org/2000/svg" width="480" height="480" viewBox="0 0 480 480"><rect width="480" height="480" style="fill:#ffc134"/><polygon points="240 61.202 39.911 407.766 440.089 407.766 240 61.202" style="fill:none;stroke:#000;stroke-linecap:round;stroke-linejoin:round;stroke-width:12.5px"/><path d="M261.2793,340.48828a18.33813,18.33813,0,0,1-6.16992,13.84863,21.72092,21.72092,0,0,1-23.03907,4.15528,23.82765,23.82765,0,0,1-6.67285-4.28125,19.18945,19.18945,0,0,1-4.53223-6.16895,18.25148,18.25148,0,0,1,0-15.1084,19.23863,19.23863,0,0,1,4.53223-6.168,21.7509,21.7509,0,0,1,6.67285-4.15527,22.18669,22.18669,0,0,1,8.30957-1.51074,21.03632,21.03632,0,0,1,14.7295,5.666A17.95587,17.95587,0,0,1,261.2793,340.48828ZM222.25,194.44531a15.34156,15.34156,0,0,1,5.16211-11.457,18.27411,18.27411,0,0,1,24.92773,0,15.35552,15.35552,0,0,1,5.16211,11.457l-2.51757,106.00684a13.90748,13.90748,0,0,1-4.78418,9.94629,15.533,15.533,0,0,1-21.15137,0,13.36143,13.36143,0,0,1-4.28125-9.94629Z"/></svg>