<svg id="Calque_1" data-name="Calque 1" xmlns="http://www.w3.org/2000/svg" width="480" height="480" viewBox="0 0 480 480"><defs><style>.cls-1{fill:#ffc134;}</style></defs><rect class="cls-1" width="480" height="480"/><path d="M440.08887,414.0166H39.91064a6.25,6.25,0,0,1-5.41259-9.375L234.5874,58.07715a6.25032,6.25032,0,0,1,10.82569,0L445.502,404.6416a6.25,6.25,0,0,1-5.41308,9.375Zm-389.353-12.5H429.26367L240,73.70215Z"/><path d="M261.2793,340.48828a18.33813,18.33813,0,0,1-6.16992,13.84863,21.72092,21.72092,0,0,1-23.03907,4.15528,23.82765,23.82765,0,0,1-6.67285-4.28125,19.18945,19.18945,0,0,1-4.53223-6.16895,18.25148,18.25148,0,0,1,0-15.1084,19.23863,19.23863,0,0,1,4.53223-6.168,21.7509,21.7509,0,0,1,6.67285-4.15527,22.18669,22.18669,0,0,1,8.30957-1.51074,21.03632,21.03632,0,0,1,14.7295,5.666A17.95587,17.95587,0,0,1,261.2793,340.48828ZM222.25,194.44531a15.34156,15.34156,0,0,1,5.16211-11.457,18.27411,18.27411,0,0,1,24.92773,0,15.35552,15.35552,0,0,1,5.16211,11.457l-2.51757,106.00684a13.90748,13.90748,0,0,1-4.78418,9.94629,15.533,15.533,0,0,1-21.15137,0,13.36143,13.36143,0,0,1-4.28125-9.94629Z"/></svg>