<svg xmlns="http://www.w3.org/2000/svg" width="150" height="150" viewBox="0 0 150 150"><path d="M102.5459,51.15009c-9.67407,0-17.79663-2.91443-21.40039-7.18641v5.2865c0,5.52881,9.7998,10.19971,21.40039,10.19971,11.59961,0,21.39941-4.6709,21.39941-10.19971V43.96375C120.34155,48.23572,112.21924,51.15009,102.5459,51.15009Z" style="fill:none"/><path d="M102.5459,102.6496c-9.67407,0-17.79663-2.91413-21.40039-7.18579v5.28637c0,5.5293,9.7998,10.2002,21.40039,10.2002,11.59961,0,21.39941-4.6709,21.39941-10.2002V95.46381C120.34155,99.73541,112.21924,102.6496,102.5459,102.6496Z" style="fill:none"/><path d="M102.5459,92.34979c-9.67407,0-17.79663-2.91473-21.40039-7.18664v5.28723c0,5.52832,9.7998,10.19922,21.40039,10.19922,11.59961,0,21.39941-4.6709,21.39941-10.19922V85.16321C120.34155,89.43512,112.21924,92.34979,102.5459,92.34979Z" style="fill:none"/><path d="M102.5459,82.05c-9.67407,0-17.79663-2.91474-21.40039-7.18665V80.1496c0,5.52929,9.7998,10.20019,21.40039,10.20019,11.59961,0,21.39941-4.6709,21.39941-10.20019V74.8634C120.34155,79.13531,112.21924,82.05,102.5459,82.05Z" style="fill:none"/><path d="M102.5459,71.75018c-9.67407,0-17.79663-2.91473-21.40039-7.18664v5.28625c0,5.5293,9.7998,10.2002,21.40039,10.2002,11.59961,0,21.39941-4.6709,21.39941-10.2002V64.5636C120.34155,68.83551,112.21924,71.75018,102.5459,71.75018Z" style="fill:none"/><path d="M102.5459,61.44989c-9.67407,0-17.79663-2.91443-21.40039-7.18622V59.55c0,5.52929,9.7998,10.20019,21.40039,10.20019,11.59961,0,21.39941-4.6709,21.39941-10.20019V54.26373C120.34155,58.53552,112.21924,61.44989,102.5459,61.44989Z" style="fill:none"/><path d="M102.5459,28.75018c-11.60059,0-21.40039,4.6709-21.40039,10.19971,0,5.5293,9.7998,10.2002,21.40039,10.2002,11.59961,0,21.39941-4.6709,21.39941-10.2002C123.94531,33.42108,114.14551,28.75018,102.5459,28.75018Zm9.80469,11.54639a4.09039,4.09039,0,0,1-.91895.9541,8.49789,8.49789,0,0,1-1.46094.90723,11.07285,11.07285,0,0,1-5.27832,1.19043,11.52881,11.52881,0,0,1-2.59277-.36524,12.58864,12.58864,0,0,1-2.47363-.93115l-.82422-.41211-.9668.48291a2.05311,2.05311,0,0,1-.90723.20606,1.90664,1.90664,0,0,1-.88378-.18262c-.25-.12549-.36524-.27686-.3418-.45361a.61594.61594,0,0,1,.38867-.4419l.9668-.48291-1.32032-.65967-.96679.48291a2.04571,2.04571,0,0,1-.90625.20606,1.90668,1.90668,0,0,1-.88379-.18262c-.25-.12549-.36524-.27685-.3418-.45361a.6125.6125,0,0,1,.38965-.4419l.96582-.48291-.87207-.43554a7.58231,7.58231,0,0,1-1.8623-1.23731,2.09627,2.09627,0,0,1-.71778-1.29053,1.77353,1.77353,0,0,1,.51758-1.31982,6.1155,6.1155,0,0,1,1.874-1.313,12.51841,12.51841,0,0,1,1.81446-.731,13.43056,13.43056,0,0,1,1.90918-.459A9.043,9.043,0,0,1,98.37695,32.32a2.987,2.987,0,0,1,1.22559.24756c.31445.15722.4668.34765.459.57177q-.01172.33546-.52929.59473a1.92326,1.92326,0,0,1-.61328.2002c-.18848.02343-.42481.05126-.707.08251a9.72526,9.72526,0,0,0-1.60351.23584,6.21882,6.21882,0,0,0-1.27149.47168q-1.48387.74195-1.249,1.41309.23584.67236,1.626,1.36719l.87207.43554,3.93554-1.96777a2.12649,2.12649,0,0,1,.88379-.19433,1.86513,1.86513,0,0,1,.90625.17089c.252.12549.373.27246.36621.44141q-.01317.25414-.41308.4541L98.3291,38.81219l1.32031.65967,2.99317-1.49658a2.13662,2.13662,0,0,1,.88281-.19434,1.86684,1.86684,0,0,1,.90723.1709c.25195.12549.373.273.36523.4419s-.14453.32031-.41113.45361l-2.99317,1.49658.82422.41211a7.58,7.58,0,0,0,2.7334.813,5.26411,5.26411,0,0,0,2.82715-.624,3.45219,3.45219,0,0,0,.94336-.64844,2.18091,2.18091,0,0,0,.49414-.82422c.08008-.13379.1416-.24365.18945-.33057a.87027.87027,0,0,1,.377-.28271,2.67539,2.67539,0,0,1,1.18945-.26465,2.43715,2.43715,0,0,1,1.11914.21777.82633.82633,0,0,1,.51953.62452A1.32289,1.32289,0,0,1,112.35059,40.29657Z" style="fill:none"/><path d="M47.4541,102.6496c-9.67334,0-17.79571-2.91413-21.39941-7.18579v5.28637c0,5.5293,9.7998,10.2002,21.39941,10.2002,11.60059,0,21.40039-4.6709,21.40039-10.2002V95.46381C65.25073,99.73547,57.12817,102.6496,47.4541,102.6496Z" style="fill:none"/><path d="M47.4541,82.05c-9.67334,0-17.79571-2.91474-21.39941-7.18665V80.1496c0,5.52929,9.7998,10.20019,21.39941,10.20019,11.60059,0,21.40039-4.6709,21.40039-10.20019V74.86334C65.25073,79.13525,57.12817,82.05,47.4541,82.05Z" style="fill:none"/><path d="M102.5459,112.95038c-9.67407,0-17.79663-2.91474-21.40039-7.18665V111.05c0,5.52929,9.7998,10.20019,21.40039,10.20019,11.59961,0,21.39941-4.6709,21.39941-10.20019v-5.2862C120.34155,110.03571,112.21924,112.95038,102.5459,112.95038Z" style="fill:none"/><path d="M47.4541,92.34979c-9.67334,0-17.79571-2.91473-21.39941-7.18664v5.28723c0,5.52832,9.7998,10.19922,21.39941,10.19922,11.60059,0,21.40039-4.6709,21.40039-10.19922V85.16315C65.25073,89.43506,57.12817,92.34979,47.4541,92.34979Z" style="fill:none"/><path d="M47.4541,112.95038c-9.67334,0-17.79571-2.91474-21.39941-7.18665V111.05c0,5.52929,9.7998,10.20019,21.39941,10.20019,11.60059,0,21.40039-4.6709,21.40039-10.20019v-5.28626C65.25073,110.03564,57.12817,112.95038,47.4541,112.95038Z" style="fill:none"/><path d="M47.4541,71.75018c-9.67334,0-17.79571-2.91473-21.39941-7.18664v5.28625c0,5.5293,9.7998,10.2002,21.39941,10.2002,11.60059,0,21.40039-4.6709,21.40039-10.2002V64.56354C65.25073,68.83545,57.12817,71.75018,47.4541,71.75018Z" style="fill:none"/><path d="M47.4541,49.34979c-11.59961,0-21.39941,4.6709-21.39941,10.2002s9.7998,10.20019,21.39941,10.20019c11.60059,0,21.40039-4.6709,21.40039-10.20019S59.05469,49.34979,47.4541,49.34979ZM58.40723,61.18622a4.09039,4.09039,0,0,1-.91895.9541,8.49789,8.49789,0,0,1-1.46094.90723A11.06564,11.06564,0,0,1,50.749,64.23846a11.52823,11.52823,0,0,1-2.59277-.36523,12.55962,12.55962,0,0,1-2.47363-.93164l-.82422-.41211-.9668.48291a2.053,2.053,0,0,1-.90722.206,1.90652,1.90652,0,0,1-.88379-.18261c-.25-.12549-.36524-.27686-.3418-.45362a.61592.61592,0,0,1,.38867-.44189l.9668-.48291L41.794,60.99774l-.9668.48291a2.04571,2.04571,0,0,1-.90625.20606,1.90668,1.90668,0,0,1-.88379-.18262c-.25-.12549-.36523-.27686-.3418-.45361a.6125.6125,0,0,1,.38965-.4419l.96582-.48291-.87207-.43555a7.582,7.582,0,0,1-1.8623-1.2373,2.09632,2.09632,0,0,1-.71778-1.29053,1.77356,1.77356,0,0,1,.51758-1.31982,6.1155,6.1155,0,0,1,1.874-1.313,12.51841,12.51841,0,0,1,1.81446-.731,13.43056,13.43056,0,0,1,1.90918-.459,9.043,9.043,0,0,1,1.71972-.12988,2.98714,2.98714,0,0,1,1.22559.24755c.31445.15723.4668.34766.459.57178q-.01172.33545-.52929.59473a1.923,1.923,0,0,1-.61328.20019c-.18848.02344-.42481.05127-.707.08252a9.72542,9.72542,0,0,0-1.60351.23584,6.21882,6.21882,0,0,0-1.27149.47168q-1.48387.74195-1.249,1.41309.23584.67236,1.626,1.36719l.87207.43554L46.57812,56.862a2.12648,2.12648,0,0,1,.88379-.19434,1.865,1.865,0,0,1,.90625.1709c.252.12549.373.27246.36622.44141q-.01319.25415-.41309.4541l-3.93555,1.96777,1.32031.65967,2.99317-1.49658a2.13662,2.13662,0,0,1,.88281-.19434,1.86672,1.86672,0,0,1,.90723.1709c.252.12549.373.273.36523.4419s-.14453.32031-.41113.45361L47.4502,61.23358l.82421.41211a7.58021,7.58021,0,0,0,2.7334.813,5.2642,5.2642,0,0,0,2.82715-.624,3.45263,3.45263,0,0,0,.94336-.64844,2.18091,2.18091,0,0,0,.49414-.82422c.08008-.13379.1416-.24365.18945-.33057a.87027.87027,0,0,1,.377-.28271,2.67525,2.67525,0,0,1,1.18945-.26465,2.437,2.437,0,0,1,1.11914.21777.82631.82631,0,0,1,.51953.62451A1.3229,1.3229,0,0,1,58.40723,61.18622Z" style="fill:none"/><path d="M102.5459,26.75018c-13.12207,0-23.40039,5.35889-23.40039,12.19971V111.05c0,6.84082,10.27832,12.20019,23.40039,12.20019,13.12109,0,23.39941-5.35937,23.39941-12.20019V38.94989C125.94531,32.10907,115.667,26.75018,102.5459,26.75018ZM123.94531,111.05c0,5.52929-9.7998,10.20019-21.39941,10.20019-11.60059,0-21.40039-4.6709-21.40039-10.20019v-5.28626c3.60376,4.27191,11.72632,7.18665,21.40039,7.18665,9.67334,0,17.79565-2.91467,21.39941-7.18659Zm0-10.29981c0,5.5293-9.7998,10.2002-21.39941,10.2002-11.60059,0-21.40039-4.6709-21.40039-10.2002V95.46381c3.60376,4.27166,11.72632,7.18579,21.40039,7.18579,9.67334,0,17.79565-2.91419,21.39941-7.18579Zm0-10.2998c0,5.52832-9.7998,10.19922-21.39941,10.19922-11.60059,0-21.40039-4.6709-21.40039-10.19922V85.16315c3.60376,4.27191,11.72632,7.18664,21.40039,7.18664,9.67334,0,17.79565-2.91467,21.39941-7.18658Zm0-10.30078c0,5.52929-9.7998,10.20019-21.39941,10.20019-11.60059,0-21.40039-4.6709-21.40039-10.20019V74.86334C84.74927,79.13525,92.87183,82.05,102.5459,82.05c9.67334,0,17.79565-2.91468,21.39941-7.18659Zm0-10.29981c0,5.5293-9.7998,10.2002-21.39941,10.2002-11.60059,0-21.40039-4.6709-21.40039-10.2002V64.56354c3.60376,4.27191,11.72632,7.18664,21.40039,7.18664,9.67334,0,17.79565-2.91467,21.39941-7.18658Zm0-10.2998c0,5.52929-9.7998,10.20019-21.39941,10.20019-11.60059,0-21.40039-4.6709-21.40039-10.20019V54.26367c3.60376,4.27179,11.72632,7.18622,21.40039,7.18622,9.67334,0,17.79565-2.91437,21.39941-7.18616Zm0-10.29981c0,5.52881-9.7998,10.19971-21.39941,10.19971-11.60059,0-21.40039-4.6709-21.40039-10.19971v-5.2865c3.60376,4.272,11.72632,7.18641,21.40039,7.18641,9.67334,0,17.79565-2.91437,21.39941-7.18634Zm-21.39941-.10009c-11.60059,0-21.40039-4.6709-21.40039-10.2002,0-5.52881,9.7998-10.19971,21.40039-10.19971,11.59961,0,21.39941,4.6709,21.39941,10.19971C123.94531,44.47919,114.14551,49.15009,102.5459,49.15009Z"/><path d="M47.4541,47.34979c-13.12109,0-23.39941,5.35889-23.39941,12.2002v51.5c0,6.84082,10.27832,12.20019,23.39941,12.20019,13.12207,0,23.40039-5.35937,23.40039-12.20019V59.55C70.85449,52.70868,60.57617,47.34979,47.4541,47.34979ZM68.85449,111.05c0,5.52929-9.7998,10.20019-21.40039,10.20019-11.59961,0-21.39941-4.6709-21.39941-10.20019v-5.28626c3.6037,4.27191,11.72607,7.18665,21.39941,7.18665,9.67407,0,17.79663-2.91474,21.40039-7.18665Zm0-10.29981c0,5.5293-9.7998,10.2002-21.40039,10.2002-11.59961,0-21.39941-4.6709-21.39941-10.2002V95.46381c3.6037,4.27166,11.72607,7.18579,21.39941,7.18579,9.67407,0,17.79663-2.91413,21.40039-7.18579Zm0-10.2998c0,5.52832-9.7998,10.19922-21.40039,10.19922-11.59961,0-21.39941-4.6709-21.39941-10.19922V85.16315c3.6037,4.27191,11.72607,7.18664,21.39941,7.18664,9.67407,0,17.79663-2.91473,21.40039-7.18664Zm0-10.30078c0,5.52929-9.7998,10.20019-21.40039,10.20019-11.59961,0-21.39941-4.6709-21.39941-10.20019V74.86334C29.65839,79.13525,37.78076,82.05,47.4541,82.05c9.67407,0,17.79663-2.91474,21.40039-7.18665Zm0-10.29981c0,5.5293-9.7998,10.2002-21.40039,10.2002-11.59961,0-21.39941-4.6709-21.39941-10.2002V64.56354c3.6037,4.27191,11.72607,7.18664,21.39941,7.18664,9.67407,0,17.79663-2.91473,21.40039-7.18664ZM47.4541,69.75018c-11.59961,0-21.39941-4.6709-21.39941-10.20019s9.7998-10.2002,21.39941-10.2002c11.60059,0,21.40039,4.6709,21.40039,10.2002S59.05469,69.75018,47.4541,69.75018Z"/><path d="M58.14746,59.70184a2.437,2.437,0,0,0-1.11914-.21777,2.67525,2.67525,0,0,0-1.18945.26465.87027.87027,0,0,0-.377.28271c-.04785.08692-.10937.19678-.18945.33057a2.18091,2.18091,0,0,1-.49414.82422,3.45263,3.45263,0,0,1-.94336.64844,5.2642,5.2642,0,0,1-2.82715.624,7.58021,7.58021,0,0,1-2.7334-.813l-.82421-.41211L50.44336,59.737q.3999-.19995.41113-.45361c.00781-.16895-.11328-.31641-.36523-.4419a1.86672,1.86672,0,0,0-.90723-.1709,2.13662,2.13662,0,0,0-.88281.19434l-2.99317,1.49658-1.32031-.65967,3.93555-1.96777q.3999-.2.41309-.4541c.00683-.16895-.11426-.31592-.36622-.44141a1.865,1.865,0,0,0-.90625-.1709,2.12648,2.12648,0,0,0-.88379.19434l-3.93554,1.96777-.87207-.43554q-1.39014-.69507-1.626-1.36719-.23585-.6709,1.249-1.41309a6.21882,6.21882,0,0,1,1.27149-.47168,9.72542,9.72542,0,0,1,1.60351-.23584c.28223-.03125.51856-.05908.707-.08252a1.923,1.923,0,0,0,.61328-.20019q.51708-.25856.52929-.59473c.00782-.22412-.14453-.41455-.459-.57178a2.98714,2.98714,0,0,0-1.22559-.24755,9.043,9.043,0,0,0-1.71972.12988,13.43056,13.43056,0,0,0-1.90918.459,12.51841,12.51841,0,0,0-1.81446.731,6.1155,6.1155,0,0,0-1.874,1.313,1.77356,1.77356,0,0,0-.51758,1.31982,2.09632,2.09632,0,0,0,.71778,1.29053,7.582,7.582,0,0,0,1.8623,1.2373l.87207.43555-.96582.48291a.6125.6125,0,0,0-.38965.4419c-.02343.17675.0918.32812.3418.45361a1.90668,1.90668,0,0,0,.88379.18262,2.04571,2.04571,0,0,0,.90625-.20606l.9668-.48291,1.32031.65967-.9668.48291a.61592.61592,0,0,0-.38867.44189c-.02344.17676.0918.32813.3418.45362a1.90652,1.90652,0,0,0,.88379.18261,2.053,2.053,0,0,0,.90722-.206l.9668-.48291.82422.41211a12.55962,12.55962,0,0,0,2.47363.93164,11.52823,11.52823,0,0,0,2.59277.36523,11.06564,11.06564,0,0,0,5.27832-1.19091,8.49789,8.49789,0,0,0,1.46094-.90723,4.09039,4.09039,0,0,0,.91895-.9541,1.3229,1.3229,0,0,0,.25976-.85987A.82631.82631,0,0,0,58.14746,59.70184Z"/><path d="M112.09082,38.81219a2.43715,2.43715,0,0,0-1.11914-.21777,2.67539,2.67539,0,0,0-1.18945.26465.87027.87027,0,0,0-.377.28271c-.04785.08692-.10937.19678-.18945.33057a2.18091,2.18091,0,0,1-.49414.82422,3.45219,3.45219,0,0,1-.94336.64844,5.26411,5.26411,0,0,1-2.82715.624,7.58,7.58,0,0,1-2.7334-.813l-.82422-.41211,2.99317-1.49658q.3999-.19995.41113-.45361c.00781-.169-.11328-.31641-.36523-.4419a1.86684,1.86684,0,0,0-.90723-.1709,2.13662,2.13662,0,0,0-.88281.19434l-2.99317,1.49658-1.32031-.65967,3.93555-1.96777q.3999-.2.41308-.4541c.00684-.169-.11425-.31592-.36621-.44141a1.86513,1.86513,0,0,0-.90625-.17089,2.12649,2.12649,0,0,0-.88379.19433l-3.93554,1.96777-.87207-.43554q-1.39014-.69507-1.626-1.36719-.23584-.67091,1.249-1.41309a6.21882,6.21882,0,0,1,1.27149-.47168,9.72526,9.72526,0,0,1,1.60351-.23584c.28223-.03125.51856-.05908.707-.08251a1.92326,1.92326,0,0,0,.61328-.2002q.51708-.25854.52929-.59473c.00782-.22412-.14453-.41455-.459-.57177A2.987,2.987,0,0,0,98.37695,32.32a9.043,9.043,0,0,0-1.71972.12988,13.43056,13.43056,0,0,0-1.90918.459,12.51841,12.51841,0,0,0-1.81446.731,6.1155,6.1155,0,0,0-1.874,1.313,1.77353,1.77353,0,0,0-.51758,1.31982,2.09627,2.09627,0,0,0,.71778,1.29053,7.58231,7.58231,0,0,0,1.8623,1.23731l.87207.43554-.96582.48291a.6125.6125,0,0,0-.38965.4419c-.02344.17676.0918.32812.3418.45361a1.90668,1.90668,0,0,0,.88379.18262,2.04571,2.04571,0,0,0,.90625-.20606l.96679-.48291,1.32032.65967-.9668.48291a.61594.61594,0,0,0-.38867.4419c-.02344.17675.0918.32812.3418.45361a1.90664,1.90664,0,0,0,.88378.18262,2.05311,2.05311,0,0,0,.90723-.20606l.9668-.48291.82422.41211a12.58864,12.58864,0,0,0,2.47363.93115,11.52881,11.52881,0,0,0,2.59277.36524,11.07285,11.07285,0,0,0,5.27832-1.19043,8.49789,8.49789,0,0,0,1.46094-.90723,4.09039,4.09039,0,0,0,.91895-.9541,1.32289,1.32289,0,0,0,.25976-.85986A.82633.82633,0,0,0,112.09082,38.81219Z"/></svg>
