<svg id="Calque_1" data-name="Calque 1" xmlns="http://www.w3.org/2000/svg" width="192" height="61.9" viewBox="0 0 192 61.9"><g id="Groupe_2497" data-name="Groupe 2497"><g id="logo-loire-atlantique-rvb"><path id="Tracé_695" data-name="Tracé 695" d="M59.2,13.4a3.28682,3.28682,0,0,0-1.7-.4,2.83592,2.83592,0,0,0-2.2,1,2.65092,2.65092,0,0,0-.8,2.2v.4Z" style="fill:#004461"/><path id="Tracé_696" data-name="Tracé 696" d="M109.1,32.1a3.28682,3.28682,0,0,0-1.7-.4,2.83592,2.83592,0,0,0-2.2,1,2.651,2.651,0,0,0-.8,2.2v.4Z" style="fill:#004461"/><path id="Tracé_697" data-name="Tracé 697" d="M34.5,19.1a3.49457,3.49457,0,0,0,2.2-.8,3.71938,3.71938,0,0,0,1-2.2,2.83592,2.83592,0,0,0-1-2.2,3.71938,3.71938,0,0,0-2.2-1,2.96983,2.96983,0,0,0-3,3.1v.1a3.49457,3.49457,0,0,0,.8,2.2A3.29468,3.29468,0,0,0,34.5,19.1Z" style="fill:#004461"/><path id="Tracé_698" data-name="Tracé 698" d="M83.9,31.6a2.96983,2.96983,0,0,0-3,3.1v.1a3.49457,3.49457,0,0,0,.8,2.2,2.65093,2.65093,0,0,0,2.2.8,3.49457,3.49457,0,0,0,2.2-.8,3.71938,3.71938,0,0,0,1-2.2A3.28917,3.28917,0,0,0,83.9,31.6Z" style="fill:#004461"/><path id="Tracé_699" data-name="Tracé 699" d="M49.1,37.7a3.49457,3.49457,0,0,0,2.2-.8,3.71938,3.71938,0,0,0,1-2.2,2.83592,2.83592,0,0,0-1-2.2,3.71938,3.71938,0,0,0-2.2-1,2.96983,2.96983,0,0,0-3,3.1v.1a3.49457,3.49457,0,0,0,.8,2.2A3.49457,3.49457,0,0,0,49.1,37.7Z" style="fill:#004461"/><path id="Tracé_700" data-name="Tracé 700" d="M86.9,45.4V39.3a5.16688,5.16688,0,0,1-3.2,1.1,5.22031,5.22031,0,0,1-3.9-1.7,5.65685,5.65685,0,0,1,8-8,5.60578,5.60578,0,0,1,1.7,4V45.4h-.3c9.3.1,19.9.6,32.5,1.4V13.4C76.1-4.3,21-3.3,0,9.6L17.4,61.9c2.9-1.8,5.7-3.5,8.6-5h0C39.7,49.6,54,45.1,86.9,45.4Zm16.6-14.7a5.60578,5.60578,0,0,1,4-1.7,5.28438,5.28438,0,0,1,3.2,1,6.41006,6.41006,0,0,1,2.1,2.5l.1.3L106,37.4a3.28682,3.28682,0,0,0,1.7.4,2.83592,2.83592,0,0,0,2.2-1,2.07483,2.07483,0,0,0,.6-1h2.8a7.60767,7.60767,0,0,1-1.5,2.8,5.67348,5.67348,0,0,1-8,0,5.60578,5.60578,0,0,1-1.7-4,4.37116,4.37116,0,0,1,1.4-3.9ZM91.1,29.2h2.6v6.4A2.15932,2.15932,0,0,0,96,37.7a2.11226,2.11226,0,0,0,2.1-2.1V29.2h2.6v6.4a4.45932,4.45932,0,0,1-1.5,3.3,4.83111,4.83111,0,0,1-6.7,0,4.7056,4.7056,0,0,1-1.4-3.3V29.2ZM37.5,31.7H35.8V40H33.2V31.7H31.5V29.1h1.7V25.5h2.6v3.6h1.7Zm4.4,8.4H39.3V25.5h2.6Zm32-14.6h2.6v2.6H73.9Zm0,3.7h2.6V40.1H73.9Zm-7.1,0h1.7V25.6h2.6v3.6h1.7v2.6H71.1v8.3H68.5V31.8H66.8ZM66,33.8v6.4H63.4V33.8a2.15932,2.15932,0,0,0-2.3-2.1A2.11226,2.11226,0,0,0,59,33.8v6.4H56.4V33.8a4.7056,4.7056,0,0,1,1.4-3.3A4.51346,4.51346,0,0,1,64,30c.2.1.3.3.5.5A3.995,3.995,0,0,1,66,33.8ZM53.6,12a5.60578,5.60578,0,0,1,4-1.7,5.28438,5.28438,0,0,1,3.2,1,6.41006,6.41006,0,0,1,2.1,2.5l.1.3-6.9,4.6a3.28683,3.28683,0,0,0,1.7.4,2.83594,2.83594,0,0,0,2.2-1,2.07483,2.07483,0,0,0,.6-1h2.8a7.60738,7.60738,0,0,1-1.5,2.8,5.67348,5.67348,0,0,1-8,0,5.60582,5.60582,0,0,1-1.7-4A4.21086,4.21086,0,0,1,53.6,12Zm-7.2,3.2a5.09256,5.09256,0,0,1,1.5-3.5,4.99707,4.99707,0,0,1,3.5-1.4h.3V13h-.3a2.342,2.342,0,0,0-1.7.7,2.12679,2.12679,0,0,0-.7,1.5v6.4H46.4V15.2Zm2.7,13.7a5.69732,5.69732,0,0,1,5.7,5.7h0v5.5H52.2v-.8A5.16688,5.16688,0,0,1,49,40.4a5.22031,5.22031,0,0,1-3.9-1.7,5.67348,5.67348,0,0,1,0-8,6.1614,6.1614,0,0,1,4-1.8Zm-7.3-22h2.5V9.5H41.7V6.9Zm0,3.6h2.5V21.4H41.7V10.5ZM30.4,12a5.67348,5.67348,0,0,1,8,0,5.60578,5.60578,0,0,1,1.7,4,5.69732,5.69732,0,0,1-5.7,5.7A5.63476,5.63476,0,0,1,28.7,16,6.83485,6.83485,0,0,1,30.4,12ZM19.9,6.9h2.8V18.8h6v2.8H20V6.9Zm2,33.2H19l5.1-14.7h3l5.3,14.7H29.5l-.8-2.5H22.9Z" style="fill:#004461"/><path id="Tracé_701" data-name="Tracé 701" d="M23.7,35.3h4l-1.9-5.5Z" style="fill:#004461"/><path id="Tracé_702" data-name="Tracé 702" d="M26,57h95.6V46.8C66.3,43.5,46.9,45.8,26,57Z" style="fill:#afca00"/><path id="Tracé_704" data-name="Tracé 704" d="M121.7,46.8h0c-12.6-.8-23.3-1.2-32.5-1.4H87C54,45.1,39.7,49.6,26,57h0C46.9,45.8,66.3,43.5,121.7,46.8Z" style="fill:#afca00"/><path id="Tracé_705" data-name="Tracé 705" d="M34.5,21.7A5.69732,5.69732,0,0,0,40.2,16h0a5.69732,5.69732,0,0,0-5.7-5.7,5.65718,5.65718,0,0,0-4,9.7A4.78419,4.78419,0,0,0,34.5,21.7Zm-2.3-7.9a3.71938,3.71938,0,0,1,2.2-1A3.44125,3.44125,0,0,1,37.6,16a2.96983,2.96983,0,0,1-3.1,3h-.1a3.49462,3.49462,0,0,1-2.2-.8,2.65088,2.65088,0,0,1-.8-2.2A3.96426,3.96426,0,0,1,32.2,13.8Z" style="fill:#fff"/><rect id="Rectangle_526" data-name="Rectangle 526" x="41.8" y="10.5" width="2.6" height="10.9" style="fill:#fff"/><path id="Tracé_706" data-name="Tracé 706" d="M49,15.2a1.79922,1.79922,0,0,1,.7-1.5,2.41252,2.41252,0,0,1,1.7-.7h.3V10.4h-.3a5.17851,5.17851,0,0,0-3.5,1.4,4.53915,4.53915,0,0,0-1.5,3.5v6.4H49V15.2Z" style="fill:#fff"/><path id="Tracé_707" data-name="Tracé 707" d="M35.8,25.5H33.2v3.7H31.5v2.5h1.7v8.4h2.6V31.7h1.7V29.2H35.8Z" style="fill:#fff"/><rect id="Rectangle_527" data-name="Rectangle 527" x="39.3" y="25.5" width="2.6" height="14.7" style="fill:#fff"/><path id="Tracé_708" data-name="Tracé 708" d="M45.1,38.6A5.22031,5.22031,0,0,0,49,40.3a5.16688,5.16688,0,0,0,3.2-1.1v1h2.6V34.7A5.69732,5.69732,0,0,0,49.1,29a5.63476,5.63476,0,0,0-5.7,5.7A6.31073,6.31073,0,0,0,45.1,38.6Zm2-6.1a3.71938,3.71938,0,0,1,2.2-1,2.83592,2.83592,0,0,1,2.2,1,3.71938,3.71938,0,0,1,1,2.2,2.96983,2.96983,0,0,1-3.1,3h-.1a3.49457,3.49457,0,0,1-2.2-.8,2.65092,2.65092,0,0,1-.8-2.2A1.94743,1.94743,0,0,1,47.1,32.5Z" style="fill:#fff"/><path id="Tracé_709" data-name="Tracé 709" d="M57.9,30.5a4.7056,4.7056,0,0,0-1.4,3.3v6.4h2.6V33.8a2.15932,2.15932,0,0,1,2.3-2.1,2.11226,2.11226,0,0,1,2.1,2.1v6.4h2.6V33.8a4.45932,4.45932,0,0,0-1.5-3.3A4.81752,4.81752,0,0,0,61.3,29,4.0365,4.0365,0,0,0,57.9,30.5Z" style="fill:#fff"/><path id="Tracé_710" data-name="Tracé 710" d="M68.5,40.1h2.6V31.7h1.7V29.2H71.1V25.5H68.5v3.7H66.8v2.5h1.7Z" style="fill:#fff"/><rect id="Rectangle_528" data-name="Rectangle 528" x="73.9" y="29.2" width="2.6" height="10.9" style="fill:#fff"/><rect id="Rectangle_529" data-name="Rectangle 529" x="73.9" y="25.5" width="2.6" height="2.6" style="fill:#fff"/><path id="Tracé_711" data-name="Tracé 711" d="M89.5,34.6a5.7,5.7,0,1,0-11.4,0,5.60577,5.60577,0,0,0,1.7,4,5.22031,5.22031,0,0,0,3.9,1.7,5.16686,5.16686,0,0,0,3.2-1.1v6.1h2.5V34.6Zm-3.6,2.2a2.65092,2.65092,0,0,1-2.2.8,3.49454,3.49454,0,0,1-2.2-.8,2.651,2.651,0,0,1-.8-2.2,3.49458,3.49458,0,0,1,.8-2.2,3.71938,3.71938,0,0,1,2.2-1,2.8359,2.8359,0,0,1,2.2,1,3.71938,3.71938,0,0,1,1,2.2,2.57429,2.57429,0,0,1-1,2.2Z" style="fill:#fff"/><path id="Tracé_713" data-name="Tracé 713" d="M95.9,40.3a4.37375,4.37375,0,0,0,3.3-1.4,4.81747,4.81747,0,0,0,1.5-3.3V29.2H98.1v6.4a2.15933,2.15933,0,0,1-2.3,2.1,2.11227,2.11227,0,0,1-2.1-2.1V29.2H91.1v6.4a4.7056,4.7056,0,0,0,1.4,3.3A4.762,4.762,0,0,0,95.9,40.3Z" style="fill:#fff"/><path id="Tracé_714" data-name="Tracé 714" d="M57.7,21.7a5.43912,5.43912,0,0,0,4-1.7,6.89537,6.89537,0,0,0,1.5-2.8H60.4a2.07492,2.07492,0,0,1-.6,1,2.6994,2.6994,0,0,1-2.2,1,3.53325,3.53325,0,0,1-1.7-.4l6.9-4.6-.1-.4a5.0907,5.0907,0,0,0-2.1-2.5,5.086,5.086,0,0,0-3.2-1A5.69733,5.69733,0,0,0,51.7,16h0a5.43909,5.43909,0,0,0,1.7,4A5.78594,5.78594,0,0,0,57.7,21.7Zm-2.2-7.9a3.21168,3.21168,0,0,1,2.2-1,3.53325,3.53325,0,0,1,1.7.4l-4.6,3v-.4A2.04093,2.04093,0,0,1,55.5,13.8Z" style="fill:#fff"/><path id="Tracé_715" data-name="Tracé 715" d="M107.5,40.3a5.43912,5.43912,0,0,0,4-1.7,6.89537,6.89537,0,0,0,1.5-2.8h-2.8a2.075,2.075,0,0,1-.6,1,2.6994,2.6994,0,0,1-2.2,1,3.53325,3.53325,0,0,1-1.7-.4l6.9-4.6-.1-.3a5.8918,5.8918,0,0,0-5.3-3.5,5.69731,5.69731,0,0,0-5.7,5.7,5.60577,5.60577,0,0,0,1.7,4A7.38838,7.38838,0,0,0,107.5,40.3Zm-2.2-7.8a3.21168,3.21168,0,0,1,2.2-1,3.53325,3.53325,0,0,1,1.7.4l-4.6,3v-.4A2.60645,2.60645,0,0,1,105.3,32.5Z" style="fill:#fff"/><path id="Tracé_716" data-name="Tracé 716" d="M28.6,18.8H22.5V6.9H19.9V21.6h8.7Z" style="fill:#fff"/><path id="Tracé_717" data-name="Tracé 717" d="M29.5,40.1h2.9L27.3,25.4h-3L19.2,40.1H22l.8-2.5h5.8Zm-5.8-4.8,2.1-5.5,2.1,5.5Z" style="fill:#fff"/><rect id="Rectangle_530" data-name="Rectangle 530" x="41.8" y="6.9" width="2.6" height="2.6" style="fill:#fff"/></g></g><path d="M139.63184,19.55811h4.1914a6.00373,6.00373,0,0,1,4.34375,1.48828,5.54887,5.54887,0,0,1,1.54395,4.19189A5.59731,5.59731,0,0,1,148.167,29.4541a5.984,5.984,0,0,1-4.34375,1.4961h-4.1914ZM143.69531,29.27q3.936,0,3.93653-4.03174,0-3.99975-3.93653-4h-2V29.27Z"/><path d="M158.751,27.01416h-5.56836a2.91817,2.91817,0,0,0,.64843,1.91211,2.28028,2.28028,0,0,0,1.73536.61572,3.98831,3.98831,0,0,0,2.46484-.86377l.5752,1.376a4.4885,4.4885,0,0,1-1.416.74414,5.35656,5.35656,0,0,1-1.70313.27978,4.24775,4.24775,0,0,1-3.12011-1.12011,4.11518,4.11518,0,0,1-1.13672-3.07178,4.71249,4.71249,0,0,1,.49609-2.19189,3.66353,3.66353,0,0,1,1.39258-1.4961,3.87729,3.87729,0,0,1,2.03125-.53613,3.35753,3.35753,0,0,1,2.63281,1.08008A4.29076,4.29076,0,0,1,158.751,26.71Zm-4.85645-2.43994a2.31,2.31,0,0,0-.64746,1.36816h3.75977a2.24047,2.24047,0,0,0-.55176-1.376,1.68085,1.68085,0,0,0-1.25586-.46436A1.8322,1.8322,0,0,0,153.89453,24.57422Z"/><path d="M159.918,30.0542l.56055-1.4082a4.84312,4.84312,0,0,0,2.96.96,2.141,2.141,0,0,0,1.1123-.23975.75.75,0,0,0,.3916-.67187.70568.70568,0,0,0-.27246-.584,2.49807,2.49807,0,0,0-.92773-.376l-1.34375-.3042q-2.20752-.47975-2.208-2.25586a2.1503,2.1503,0,0,1,.416-1.3042,2.72963,2.72963,0,0,1,1.168-.8877,4.42005,4.42005,0,0,1,1.74414-.32031,5.27128,5.27128,0,0,1,1.66407.26416,4.37846,4.37846,0,0,1,1.4082.75977l-.59277,1.36035a4.16308,4.16308,0,0,0-2.4961-.896,1.92016,1.92016,0,0,0-1.07129.25586.80332.80332,0,0,0-.38378.7041.716.716,0,0,0,.23144.56006,1.93143,1.93143,0,0,0,.792.35156l1.376.3042a3.47883,3.47883,0,0,1,1.75195.83985,2.03348,2.03348,0,0,1,.55176,1.48,2.08854,2.08854,0,0,1-.89551,1.77636,4.06709,4.06709,0,0,1-2.44824.65576A5.476,5.476,0,0,1,159.918,30.0542Z"/><path d="M168.334,19.20605h2.22364v1.96827H168.334Zm.12793,11.74415V22.87012h1.98438V30.9502Z"/><path d="M180.44629,22.87012v7.82422a3.7432,3.7432,0,0,1-1.04,2.86328,4.31562,4.31562,0,0,1-3.05664.97656,6.72494,6.72494,0,0,1-3.2959-.78418l.32031-1.52051a6.278,6.278,0,0,0,2.92774.76856,1.90217,1.90217,0,0,0,2.16015-2.144V29.25439a2.816,2.816,0,0,1-1.07226,1.064,3.10128,3.10128,0,0,1-1.584.40771,3.52863,3.52863,0,0,1-1.87988-.5039,3.39177,3.39177,0,0,1-1.28027-1.42383,5.08138,5.08138,0,0,1,0-4.208,3.393,3.393,0,0,1,1.28027-1.42431,3.52864,3.52864,0,0,1,1.87988-.50391,3.29611,3.29611,0,0,1,1.5918.376,2.59094,2.59094,0,0,1,1.06445,1.04834V22.87012ZM177.89355,28.502a2.66834,2.66834,0,0,0,.56836-1.80761,2.69361,2.69361,0,0,0-.56054-1.80811,2.19173,2.19173,0,0,0-3.12793,0,2.67532,2.67532,0,0,0-.56739,1.80811,2.67307,2.67307,0,0,0,.56739,1.80761,2.18243,2.18243,0,0,0,3.12011,0Z"/><path d="M190.126,25.99023v4.96h-2V26.08643a2.16941,2.16941,0,0,0-.36817-1.40039,1.40038,1.40038,0,0,0-1.13672-.43995,1.94647,1.94647,0,0,0-1.47168.584,2.13941,2.13941,0,0,0-.55957,1.54394V30.9502h-1.98437v-5.792a18.39522,18.39522,0,0,0-.12793-2.28808h1.87207l.14355,1.32812a2.92711,2.92711,0,0,1,1.12793-1.13623,3.232,3.232,0,0,1,1.6084-.3999Q190.1255,22.66211,190.126,25.99023Z"/><path d="M138.959,47.05371l.56055-1.4082a4.84,4.84,0,0,0,2.96.96,2.1414,2.1414,0,0,0,1.11231-.23926.75.75,0,0,0,.3916-.67187.70442.70442,0,0,0-.27246-.584,2.4899,2.4899,0,0,0-.92774-.376l-1.34375-.30469q-2.20752-.479-2.208-2.25586a2.14994,2.14994,0,0,1,.416-1.30371,2.72207,2.72207,0,0,1,1.168-.8877,4.41132,4.41132,0,0,1,1.74414-.32031,5.28487,5.28487,0,0,1,1.66406.26367,4.38785,4.38785,0,0,1,1.40821.75977l-.59278,1.36035a4.16236,4.16236,0,0,0-2.49609-.89551,1.91605,1.91605,0,0,0-1.07129.25586.80333.80333,0,0,0-.38379.7041.715.715,0,0,0,.23145.55957,1.9313,1.9313,0,0,0,.792.35156l1.376.30469a3.47488,3.47488,0,0,1,1.752.83985,2.03313,2.03313,0,0,1,.55176,1.47949,2.08856,2.08856,0,0,1-.89551,1.77637,4.06712,4.06712,0,0,1-2.44824.65624A5.4761,5.4761,0,0,1,138.959,47.05371Z"/><path d="M155.04,39.87012l-3.76074,8.624a4.91744,4.91744,0,0,1-1.63184,2.19141,5.7746,5.7746,0,0,1-2.44726.91211l-.44825-1.53614a5.00938,5.00938,0,0,0,1.7041-.64746,2.77877,2.77877,0,0,0,.91993-1.16015l.25586-.5918-3.36036-7.792h2.09668l2.31934,5.80761,2.36816-5.80761Z"/><path d="M155.43848,47.05371l.56054-1.4082a4.84,4.84,0,0,0,2.96.96,2.14137,2.14137,0,0,0,1.11231-.23926.75.75,0,0,0,.3916-.67187.70442.70442,0,0,0-.27246-.584,2.48976,2.48976,0,0,0-.92773-.376l-1.34375-.30469q-2.20752-.479-2.208-2.25586a2.14994,2.14994,0,0,1,.416-1.30371,2.72213,2.72213,0,0,1,1.168-.8877,4.41132,4.41132,0,0,1,1.74414-.32031,5.28483,5.28483,0,0,1,1.66406.26367,4.38785,4.38785,0,0,1,1.40821.75977l-.59278,1.36035a4.16234,4.16234,0,0,0-2.49609-.89551,1.91605,1.91605,0,0,0-1.07129.25586.80333.80333,0,0,0-.38379.7041.715.715,0,0,0,.23145.55957,1.9313,1.9313,0,0,0,.792.35156l1.376.30469a3.47485,3.47485,0,0,1,1.75195.83985,2.03313,2.03313,0,0,1,.55176,1.47949,2.08856,2.08856,0,0,1-.89551,1.77637,4.06712,4.06712,0,0,1-2.44824.65624A5.47605,5.47605,0,0,1,155.43848,47.05371Z"/><path d="M166.44629,41.374v3.61621q0,1.42383,1.32812,1.42383a2.84311,2.84311,0,0,0,.79981-.12793v1.584a3.7598,3.7598,0,0,1-1.2793.1914,2.78857,2.78857,0,0,1-2.1123-.76757,3.06434,3.06434,0,0,1-.73633-2.208V41.374h-1.55176v-1.5039h1.55176V37.90234l2-.67285v2.64063h2.14453V41.374Z"/><path d="M177.03906,44.01367H171.4707a2.9171,2.9171,0,0,0,.64844,1.91211,2.27858,2.27858,0,0,0,1.73535.61621,3.98886,3.98886,0,0,0,2.46485-.86426l.57519,1.376a4.48855,4.48855,0,0,1-1.416.74414,5.35689,5.35689,0,0,1-1.70313.28027,4.24779,4.24779,0,0,1-3.12012-1.12011,4.11559,4.11559,0,0,1-1.13672-3.07227,4.71045,4.71045,0,0,1,.4961-2.1914,3.66043,3.66043,0,0,1,1.39258-1.4961,3.87729,3.87729,0,0,1,2.03125-.53613,3.35593,3.35593,0,0,1,2.63281,1.08008,4.28907,4.28907,0,0,1,.96777,2.96777Zm-4.85644-2.43945a2.30862,2.30862,0,0,0-.64746,1.36816h3.75976a2.23911,2.23911,0,0,0-.55176-1.376,1.68109,1.68109,0,0,0-1.25586-.46485A1.83247,1.83247,0,0,0,172.18262,41.57422Z"/><path d="M190.31836,40.48633a3.9072,3.9072,0,0,1,.67187,2.5039v4.96h-2V43.05371a2.37937,2.37937,0,0,0-.31152-1.38379,1.19728,1.19728,0,0,0-1.03223-.42383,1.58272,1.58272,0,0,0-1.30371.584,2.486,2.486,0,0,0-.47265,1.60742v4.5127h-2V43.05371a2.29964,2.29964,0,0,0-.32715-1.376,1.21331,1.21331,0,0,0-1.03223-.43164,1.60779,1.60779,0,0,0-1.3125.584,2.46507,2.46507,0,0,0-.47949,1.60742v4.5127h-1.98437v-5.792a18.38959,18.38959,0,0,0-.12793-2.28808h1.87207l.14355,1.28027a2.51828,2.51828,0,0,1,1.0166-1.10449,2.99682,2.99682,0,0,1,1.52735-.38379,2.30261,2.30261,0,0,1,2.416,1.53613,2.79,2.79,0,0,1,1.09668-1.12793,3.1383,3.1383,0,0,1,1.5918-.4082A2.48659,2.48659,0,0,1,190.31836,40.48633Z"/></svg>