<?xml version="1.0" encoding="utf-8"?>
<!-- Generator: Adobe Illustrator 24.3.0, SVG Export Plug-In . SVG Version: 6.00 Build 0)  -->
<svg version="1.1" id="Calque_1" xmlns="http://www.w3.org/2000/svg" xmlns:xlink="http://www.w3.org/1999/xlink" x="0px" y="0px"
	 viewBox="0 0 280 70" style="enable-background:new 0 0 280 70;" xml:space="preserve">
<style type="text/css">
	.st0{fill:#99E6D1;}
</style>
<path id="Tracé_2597" class="st0" d="M13.2,53.9L13.2,53.9c-0.4,1.2-1.5,2.1-2.8,2.1c-1.3,0-2.5-0.8-2.8-2.1H0V43.1l4.3,0.1
	c0.7,0,1.4,0.3,1.9,0.9l1.5,1.3C8.1,45.8,8.5,46,9,46.2l5.2,1.3c1,0.3,1.8,1.1,2.1,2.1L16,50.2c0.4,1.6-0.5,3.2-2,3.6
	C13.7,53.9,13.4,53.9,13.2,53.9z"/>
<path id="Tracé_2597-2" class="st0" d="M47.8,53.9L47.8,53.9c-0.4,1.2-1.5,2.1-2.8,2.1c-1.3,0-2.5-0.8-2.8-2.1H29.1
	c-0.4,1.2-1.5,2.1-2.8,2.1c-1.3,0-2.5-0.8-2.8-2.1c-1.4-0.3-2.4-1.5-2.4-3v-0.7c0-1.1,0.6-2.1,1.6-2.5l2.4-1.3
	c0.5-0.3,0.9-0.7,1.2-1.2l0.4-0.7c0.6-0.9,1.6-1.5,2.7-1.5l9.5,0.3c0.7,0,1.4,0.3,1.9,0.9l1.5,1.3c0.4,0.3,0.8,0.6,1.3,0.7l5.2,1.3
	c1,0.3,1.8,1.1,2.1,2.1l-0.3,0.6c0.4,1.6-0.5,3.2-2,3.6C48.3,53.9,48,53.9,47.8,53.9z"/>
<path id="Tracé_2597-3" class="st0" d="M82.3,53.9L82.3,53.9c-0.4,1.2-1.5,2.1-2.8,2.1c-1.3,0-2.5-0.8-2.8-2.1H63.7
	c-0.4,1.2-1.5,2.1-2.8,2.1c-1.3,0-2.5-0.8-2.8-2.1c-1.4-0.3-2.4-1.5-2.4-3v-0.7c0-1.1,0.6-2.1,1.6-2.5l2.4-1.3
	c0.5-0.3,0.9-0.7,1.2-1.2l0.4-0.7c0.6-0.9,1.6-1.5,2.7-1.5l9.5,0.3c0.7,0,1.4,0.3,1.9,0.9l1.5,1.3c0.4,0.3,0.8,0.6,1.3,0.7l5.2,1.3
	c1,0.3,1.8,1.1,2.1,2.1l-0.3,0.6c0.4,1.6-0.5,3.2-2,3.6C82.9,53.9,82.6,53.9,82.3,53.9z"/>
<path id="Tracé_2597-4" class="st0" d="M116.9,53.9L116.9,53.9c-0.4,1.2-1.5,2.1-2.8,2.1c-1.3,0-2.5-0.8-2.8-2.1H98.2
	c-0.4,1.2-1.5,2.1-2.8,2.1c-1.3,0-2.5-0.8-2.8-2.1c-1.4-0.3-2.4-1.5-2.4-3v-0.7c0-1.1,0.6-2.1,1.6-2.5l2.4-1.3
	c0.5-0.3,0.9-0.7,1.2-1.2l0.4-0.7c0.6-0.9,1.6-1.5,2.7-1.5l9.5,0.3c0.7,0,1.4,0.3,1.9,0.9l1.5,1.3c0.4,0.3,0.8,0.6,1.3,0.7l5.2,1.3
	c1,0.3,1.8,1.1,2.1,2.1l-0.3,0.6c0.4,1.6-0.5,3.2-2,3.6C117.5,53.9,117.2,53.9,116.9,53.9z"/>
<path id="Tracé_2597-5" class="st0" d="M151.5,53.9L151.5,53.9c-0.4,1.2-1.5,2.1-2.8,2.1c-1.3,0-2.5-0.8-2.8-2.1h-13.1
	c-0.4,1.2-1.5,2.1-2.8,2.1c-1.3,0-2.5-0.8-2.8-2.1c-1.4-0.3-2.4-1.5-2.4-3v-0.7c0-1.1,0.6-2.1,1.6-2.5l2.4-1.3
	c0.5-0.3,0.9-0.7,1.2-1.2l0.4-0.7c0.6-0.9,1.6-1.5,2.7-1.5l9.5,0.3c0.7,0,1.4,0.3,1.9,0.9l1.5,1.3c0.4,0.3,0.8,0.6,1.3,0.7l5.2,1.3
	c1,0.3,1.8,1.1,2.1,2.1l-0.3,0.6c0.4,1.6-0.5,3.2-2,3.6C152,53.9,151.8,53.9,151.5,53.9z"/>
<path id="Tracé_2597-6" class="st0" d="M186.1,53.9L186.1,53.9c-0.4,1.2-1.5,2.1-2.8,2.1c-1.3,0-2.5-0.8-2.8-2.1h-13.1
	c-0.4,1.2-1.5,2.1-2.8,2.1c-1.3,0-2.5-0.8-2.8-2.1c-1.4-0.3-2.4-1.5-2.4-3v-0.7c0-1.1,0.6-2.1,1.6-2.5l2.4-1.3
	c0.5-0.3,0.9-0.7,1.2-1.2l0.4-0.7c0.6-0.9,1.6-1.5,2.7-1.5l9.5,0.3c0.7,0,1.4,0.3,1.9,0.9l1.5,1.3c0.4,0.3,0.8,0.6,1.3,0.7l5.2,1.3
	c1,0.3,1.8,1.1,2.1,2.1l-0.3,0.6c0.4,1.6-0.5,3.2-2,3.6C186.6,53.9,186.4,53.9,186.1,53.9z"/>
<path id="Intersection_5" class="st0" d="M237.6,57.5c-3.3-1.1-6.8-1.6-10.3-1.7c-3.5,0-6.9,0.6-10.3,1.7c-2.5,0.8-5.1,1.3-7.7,1.3
	c-1.6-0.1-2.9-1.5-2.7-3.1c0.1-1.5,1.3-2.6,2.7-2.7c2.1-0.1,4.1-0.5,6.1-1.1c1.1-0.3,2.4-0.7,3.8-1l-10.6-13
	c-0.9-1.3-0.6-3.2,0.7-4.1c1.2-0.9,2.9-0.7,3.9,0.4l10,12.3h8.9c-1-0.2-1.8-0.9-2.1-1.9c-1.5,0-2.7-1.2-2.7-2.6c0-0.3,0-0.5,0.1-0.8
	l0.1-0.4c0.3-0.9,1-1.6,1.9-1.9l4.7-1.2c0.4-0.1,0.8-0.3,1.2-0.6l1.3-1.3c0.5-0.5,1.1-0.7,1.8-0.7l8.6-0.3c1,0,1.9,0.5,2.4,1.3
	l0.4,0.6c0.3,0.4,0.6,0.8,1.1,1l2.1,1.2c0.9,0.4,1.5,1.3,1.5,2.3v0.6c0,1.3-0.9,2.4-2.1,2.7c-0.3,1-1,1.7-2,1.9h8.7v-9
	c0-1.6,1.3-2.9,2.9-2.9h9.2V23.7c0-1.4,1.2-2.6,2.6-2.6h6.4v37.7c-2.2-0.2-4.4-0.6-6.6-1.3c-3.3-1.1-6.8-1.6-10.3-1.7
	c-3.5,0-6.9,0.6-10.2,1.6c-2.5,0.8-5.1,1.3-7.7,1.3C242.6,58.7,240.1,58.3,237.6,57.5z M233.1,46.3H249c-1-0.2-1.7-1-2-1.9h-11.8
	C234.9,45.4,234.1,46.1,233.1,46.3z M273.6,40.8c0.1,1.5,1.4,2.6,2.9,2.5c1.4-0.1,2.4-1.2,2.5-2.5v0c0.1-1.5-1-2.8-2.5-2.9
	c-1.5-0.1-2.8,1-2.9,2.5C273.6,40.6,273.6,40.7,273.6,40.8z M263.1,40.8c0,1.5,1.2,2.7,2.7,2.7s2.7-1.2,2.7-2.7s-1.2-2.7-2.7-2.7
	c0,0,0,0,0,0C264.3,38.1,263.1,39.3,263.1,40.8C263.1,40.8,263.1,40.8,263.1,40.8z M273.4,17.6c-1.3-0.1-2.3-1.3-2.2-2.6
	c0.1-1.2,1-2.1,2.2-2.2h6.6v4.8H273.4z M273.4,17.6L273.4,17.6L273.4,17.6z"/>
</svg>
