<svg id="ds44-icons" xmlns="http://www.w3.org/2000/svg" viewBox="0 0 406.41 480"><title>accident</title><path d="M33.41,277.32,22.74,288a18,18,0,0,0,0,25.46l64.77,64.77a18,18,0,0,0,21,3.25A18,18,0,0,0,138.28,400l4.13-4.13a18,18,0,0,0,4.34-7.06l35.48,15.74a52.56,52.56,0,0,0,21.34,4.5,53.25,53.25,0,0,0,37.6-15.47L328,306.75a53.31,53.31,0,0,0,11-58.94l-15.74-35.48a18,18,0,0,0,7.07-4.35l4.12-4.12a18,18,0,0,0-18.55-29.74,18,18,0,0,0-3.23-21L247.87,88.32a18,18,0,0,0-25.46,0l-9.91,9.91L197.28,83a25.11,25.11,0,0,0-35.52,0h0a25.1,25.1,0,0,0,0,35.51L177,133.74,68.92,241.81,53.7,226.58a25.11,25.11,0,0,0-35.52,0h0a25.1,25.1,0,0,0,0,35.51Zm162,18.47A18.21,18.21,0,0,1,178.22,313Zm107.16-14.5-86.85,86.85a17.09,17.09,0,0,1-18.88,3.51h0L143.29,347.9l6.35-6.34A54.33,54.33,0,0,0,224,267.21l58.34-58.34,23.74,53.53A17.07,17.07,0,0,1,302.56,281.29Zm-28.1-115.47L100.24,340,60.92,300.72,235.14,126.5Z"/><circle cx="231.35" cy="167.41" r="14.63"/><circle cx="102.59" cy="296.17" r="14.63"/><path d="M383.35,424.5H18.61a18,18,0,0,0,0,36H383.35a18,18,0,0,0,0-36Z"/><path d="M330.3,329.34a18,18,0,0,0,.39,13.89L324,340.39a18,18,0,0,0-24,22.48L311,394.68a18,18,0,0,0,35-5.81l18.14,7.72A18,18,0,0,0,387,371.4l-14-25.59,20.72-7.24a18,18,0,0,0-11.87-34l-40.75,14.23A18,18,0,0,0,330.3,329.34Z"/></svg>