<svg id="ds44-icons" xmlns="http://www.w3.org/2000/svg" width="406.40638" height="480" viewBox="0 0 406.40638 480"><title>accident</title><path d="M33.40815,277.32217,22.73774,287.9927a17.99934,17.99934,0,0,0,0,25.45508L87.5146,378.22415a18.00156,18.00156,0,0,0,21.02075,3.24908,17.99039,17.99039,0,0,0,29.74927,18.53217l4.12061-4.12109A17.89837,17.89837,0,0,0,146.747,388.82l35.48047,15.73809a52.57188,52.57188,0,0,0,21.33838,4.498,53.24628,53.24628,0,0,0,37.60254-15.46289l86.84668-86.84668a53.30052,53.30052,0,0,0,10.96631-58.94043l-15.73853-35.48071a17.8971,17.8971,0,0,0,7.0647-4.34253l4.1206-4.12109a17.98879,17.98879,0,0,0-18.54565-29.74415,17.97134,17.97134,0,0,0-3.23608-21.02441L247.86958,88.31692a18.00052,18.00052,0,0,0-25.45605,0l-9.91016,9.91-15.228-15.22809a25.11344,25.11344,0,0,0-35.51562,0v.00006a25.11369,25.11369,0,0,0,0,35.51556l15.228,15.22809-108.064,108.064-15.228-15.22809a25.11333,25.11333,0,0,0-35.51562,0v.00006a25.11325,25.11325,0,0,0,0,35.51557Zm161.99634,18.46894a18.21805,18.21805,0,0,1-17.18042,17.18054ZM302.559,281.29153l-86.84668,86.84668a17.085,17.085,0,0,1-18.88623,3.51367l-.00048-.001L143.291,347.90481l6.34839-6.34851a54.32533,54.32533,0,0,0,74.35034-74.35058l58.33691-58.337,23.74658,53.53516A17.08024,17.08024,0,0,1,302.559,281.29153Zm-28.09668-115.4707L100.24263,340.04056l-39.3208-39.32032L235.14155,126.50052Z"/><circle cx="231.35371" cy="167.41244" r="14.63414"/><circle cx="102.5937" cy="296.17227" r="14.63414"/><path d="M383.34907,424.50052H18.61323a18,18,0,1,0,0,36H383.34907a18,18,0,0,0,0-36Z"/><path d="M330.29536,329.34134a18.00056,18.00056,0,0,0,.39746,13.88574l-6.68213-2.84082a18.00034,18.00034,0,0,0-24.0415,22.48437l11.07373,31.80567a18.003,18.003,0,0,0,35.00342-5.80274l18.14111,7.71289A18.00012,18.00012,0,0,0,387.02876,371.396L373.059,345.80716l20.71631-7.23535a17.99963,17.99963,0,1,0-11.86914-33.98633L341.15864,318.816A17.99914,17.99914,0,0,0,330.29536,329.34134Z"/></svg>