<svg xmlns="http://www.w3.org/2000/svg" viewBox="0 0 20 20"><defs><style>.cls-1{fill:none;}</style></defs><title>arrow-up</title><g id="Calque_2" data-name="Calque 2"><g id="sources_non_vectorisés_" data-name="sources (non vectorisés)"><g id="arrow-up"><g id="Rectangle_890" data-name="Rectangle 890"><rect class="cls-1" width="20" height="20"/></g><path d="M16.48,8.73,10.75,3A.76.76,0,0,0,9.68,3L4,8.73A.74.74,0,0,0,4,9.79.75.75,0,0,0,5,9.79L9.47,5.33V16A.75.75,0,0,0,11,16V5.33l4.45,4.46A.74.74,0,0,0,16,10a.71.71,0,0,0,.53-.22A.74.74,0,0,0,16.48,8.73Z"/></g></g></g></svg>