<svg id="ds44-icons" xmlns="http://www.w3.org/2000/svg" width="342.97023" height="480" viewBox="0 0 342.97023 480"><g id="arrow-right"><path d="M1.41231,232.91552a18.47487,18.47487,0,0,0,0,14.169,18.315,18.315,0,0,0,3.18005,4.78661c.3156.3697.43734.83559.7875,1.18575l141.3169,141.3169a18.46517,18.46517,0,0,0,26.11369-26.11369L63.01754,258.46714H324.50309a18.46714,18.46714,0,1,0,0-36.93428H63.01754L172.81045,111.74a18.46517,18.46517,0,1,0-26.11369-26.11369L5.37986,226.94316c-.35016.35016-.4719.816-.7875,1.18575A18.315,18.315,0,0,0,1.41231,232.91552Z"/></g></svg>