<svg xmlns="http://www.w3.org/2000/svg" viewBox="0 0 20 20"><defs><style>.cls-1{fill:none;}</style></defs><title>arrow-right</title><g id="Calque_2" data-name="Calque 2"><g id="sources_non_vectorisés_" data-name="sources (non vectorisés)"><g id="arrow-right"><g id="Rectangle_888" data-name="Rectangle 888"><rect class="cls-1" width="20" height="20"/></g><path d="M16.64,10.07a.71.71,0,0,0,0-.57.67.67,0,0,0-.12-.2s0,0,0-.05L10.74,3.52a.74.74,0,0,0-1.06,0,.75.75,0,0,0,0,1.06L14.14,9H3.52a.75.75,0,1,0,0,1.5H14.14L9.68,15a.75.75,0,0,0,0,1.06.74.74,0,0,0,.53.22.71.71,0,0,0,.53-.22l5.74-5.73s0,0,0-.05A.67.67,0,0,0,16.64,10.07Z"/></g></g></g></svg>