<?xml version="1.0" encoding="utf-8"?>
<!-- Generator: Adobe Illustrator 23.1.1, SVG Export Plug-In . SVG Version: 6.00 Build 0)  -->
<svg version="1.1" id="Calque_1" xmlns="http://www.w3.org/2000/svg" xmlns:xlink="http://www.w3.org/1999/xlink" x="0px" y="0px"
	 viewBox="0 0 480 480" style="enable-background:new 0 0 480 480;" xml:space="preserve">
<title>arrow-right</title>
<g>
	<g id="ds44-icons">
		<g id="arrow-right">
			<path d="M410.1,247.1c2.9-6.4,1.6-13.9-3.2-19c-0.3-0.4-0.4-0.8-0.8-1.2L264.8,85.6c-7.2-7.2-18.9-7.2-26.1,0
				c-7.2,7.2-7.2,18.9,0,26.1l109.8,109.8H87c-10.2,0-18.5,8.3-18.5,18.5c0,10.2,8.3,18.5,18.5,18.5c0,0,0,0,0,0h261.5L238.7,368.3
				c-7.2,7.2-7.2,18.9,0,26.1c7.2,7.2,18.9,7.2,26.1,0c0,0,0,0,0,0l141.3-141.3c0.4-0.4,0.5-0.8,0.8-1.2
				C408.2,250.5,409.3,248.8,410.1,247.1z"/>
		</g>
	</g>
</g>
</svg>
