<svg xmlns="http://www.w3.org/2000/svg" viewBox="0 0 20 20"><defs><style>.cls-1{fill:none;}</style></defs><title>arrow-down</title><g id="Calque_2" data-name="Calque 2"><g id="sources_non_vectorisés_" data-name="sources (non vectorisés)"><g id="arrow-down"><path d="M16.48,9.68a.75.75,0,0,0-1.06,0L11,14.14V3.52a.75.75,0,1,0-1.5,0V14.14L5,9.68A.75.75,0,0,0,4,9.68a.74.74,0,0,0,0,1.06l5.73,5.74a.67.67,0,0,0,.25.16.72.72,0,0,0,.29.06.82.82,0,0,0,.53-.22l5.73-5.74A.74.74,0,0,0,16.48,9.68Z"/><g id="Rectangle_889" data-name="Rectangle 889"><rect class="cls-1" width="20" height="20"/></g></g></g></g></svg>