<svg id="ds44-icons" xmlns="http://www.w3.org/2000/svg" width="342.97023" height="480" viewBox="0 0 342.97023 480"><title>arrow-right</title><g id="arrow-right"><path d="M341.55792,247.08448a17.36669,17.36669,0,0,0-3.18005-18.95557c-.3156-.3697-.43733-.83559-.7875-1.18575L196.27347,85.62626A18.46517,18.46517,0,0,0,170.15978,111.74L279.9527,221.53286H18.46714a18.46714,18.46714,0,1,0,0,36.93428H279.9527L170.15978,368.26005a18.46517,18.46517,0,1,0,26.11369,26.11369l141.3169-141.3169c.35017-.35016.4719-.816.7875-1.18575A18.315,18.315,0,0,0,341.55792,247.08448Z"/></g></svg>