<svg id="ds44-icons" xmlns="http://www.w3.org/2000/svg" viewBox="0 0 436.95 480"><title>attention</title><path d="M433.84,404.28,233.75,57.72a18,18,0,0,0-31.18,0L2.48,404.28a18,18,0,0,0,15.59,27H418.25a18,18,0,0,0,15.59-27Zm-384.59-9L218.16,102.72,387.07,395.28Z"/><path d="M218.54,326.62a22.14,22.14,0,0,0-8.31,1.51,21.67,21.67,0,0,0-6.67,4.15,19.22,19.22,0,0,0-4.53,6.17,18.22,18.22,0,0,0,0,15.11,19.33,19.33,0,0,0,4.53,6.17,23.88,23.88,0,0,0,6.67,4.28,21.75,21.75,0,0,0,23-4.16A18.34,18.34,0,0,0,239.44,346a18,18,0,0,0-6.17-13.72A21,21,0,0,0,218.54,326.62Z"/><path d="M205.57,188.5A15.37,15.37,0,0,0,200.41,200l2.52,106a13.34,13.34,0,0,0,4.28,9.94,15.52,15.52,0,0,0,21.15,0,13.9,13.9,0,0,0,4.78-9.94l2.52-106a15.37,15.37,0,0,0-5.16-11.46,18.28,18.28,0,0,0-24.93,0Z"/></svg>