<svg id="ds44-icons" xmlns="http://www.w3.org/2000/svg" width="436.94883" height="480" viewBox="0 0 436.94883 480"><path d="M433.83813,404.28274,233.74927,57.71731a17.99987,17.99987,0,0,0-31.17676,0L2.48266,404.28274a18,18,0,0,0,15.58887,27H418.24975a18,18,0,0,0,15.58838-27Zm-384.58984-9L218.1604,102.71731,387.07251,395.28274Z"/><path d="M218.54028,326.61575a22.16729,22.16729,0,0,0-8.30957,1.51074,21.76684,21.76684,0,0,0-6.67285,4.1543,19.24241,19.24241,0,0,0-4.53223,6.16895,18.25135,18.25135,0,0,0,0,15.10839,19.20007,19.20007,0,0,0,4.53223,6.16895,23.82426,23.82426,0,0,0,6.67285,4.28027,21.72271,21.72271,0,0,0,23.03906-4.15429,18.33813,18.33813,0,0,0,6.16993-13.84864,17.9593,17.9593,0,0,0-6.16993-13.72363A21.03972,21.03972,0,0,0,218.54028,326.61575Z"/><path d="M205.57251,188.50345a15.34151,15.34151,0,0,0-5.16211,11.457L202.928,305.96829a13.35932,13.35932,0,0,0,4.28125,9.94531,15.53025,15.53025,0,0,0,21.15136,0,13.90531,13.90531,0,0,0,4.78418-9.94531l2.51758-106.00781a15.3555,15.3555,0,0,0-5.16211-11.457,18.27411,18.27411,0,0,0-24.92773,0Z"/></svg>