<svg id="ds44-icons" xmlns="http://www.w3.org/2000/svg" viewBox="0 0 411.47 480"><title>bus</title><circle cx="95.66" cy="303.31" r="17.58"/><circle cx="314.38" cy="303.31" r="17.58"/><path d="M393.22,117.71c-.17,0-.32,0-.49,0a89.69,89.69,0,0,0-89-79.86h-196a89.69,89.69,0,0,0-89,79.86c-.16,0-.32,0-.49,0a18,18,0,0,0-18,18v83.71a18,18,0,0,0,18,18V355.17a18,18,0,0,0,18,18H52.9V414a30.17,30.17,0,0,0,30.17,30.17h0A30.17,30.17,0,0,0,113.24,414V373.17H296.81V414a30.17,30.17,0,1,0,60.33,0V373.17h18.12a18,18,0,0,0,18-18V237.42a18,18,0,0,0,18-18V135.71A18,18,0,0,0,393.22,117.71ZM357,228.43a70.39,70.39,0,0,0-136.52,0H54.07V153.71H357.26v74.72Zm-38.49,0H258.93a34.35,34.35,0,0,1,59.54,0ZM107.64,73.88H303.69a53.66,53.66,0,0,1,52.67,43.83H55A53.66,53.66,0,0,1,107.64,73.88ZM54.07,337.17V264.43H357.26v72.74Z"/></svg>