<svg id="ds44-icons" xmlns="http://www.w3.org/2000/svg" width="411.47379" height="480" viewBox="0 0 411.47379 480"><circle cx="95.65754" cy="303.31161" r="17.57813"/><circle cx="314.38386" cy="303.31161" r="17.57813"/><path d="M393.21882,117.71048c-.16406,0-.323.0202-.48608.02453A89.69727,89.69727,0,0,0,303.69,37.88138H107.64143A89.697,89.697,0,0,0,18.59895,117.735c-.16309-.00439-.322-.02453-.48633-.02453a17.9998,17.9998,0,0,0-18,18v83.708A17.99841,17.99841,0,0,0,18.0699,237.41635V355.16849a17.9998,17.9998,0,0,0,18,18h16.835V413.9534a30.16548,30.16548,0,0,0,30.16552,30.1654h0a30.16527,30.16527,0,0,0,30.16529-30.1654V373.16849H296.80574V413.9534a30.16541,30.16541,0,0,0,60.33081,0V373.16849h18.12524a17.9998,17.9998,0,0,0,18-18V237.41629a17.99846,17.99846,0,0,0,17.957-17.9978v-83.708A17.9998,17.9998,0,0,0,393.21882,117.71048Zm-36.2539,110.7168a70.39374,70.39374,0,0,0-136.52637,0H54.0699v-74.7168H357.26179v74.7168Zm-38.491,0H258.92952a34.361,34.361,0,0,1,59.54443,0ZM107.64143,73.88138H303.69a53.64939,53.64939,0,0,1,52.66773,43.8291H54.974A53.64931,53.64931,0,0,1,107.64143,73.88138ZM54.0699,337.16849V264.42728H357.26179v72.74121Z"/></svg>