<svg id="ds44-icons" xmlns="http://www.w3.org/2000/svg" viewBox="0 0 457.31 480"><title>computer</title><g id="computer"><path d="M358.8,350.8A49.29,49.29,0,0,0,408,301.56V129.2A49.29,49.29,0,0,0,358.79,80H98.52A49.3,49.3,0,0,0,49.27,129.2V301.56A49.3,49.3,0,0,0,98.5,350.8H0a47.6,47.6,0,0,0,45.72,49.25h365.8a47.6,47.6,0,0,0,45.73-49.25ZM86.21,301.56V129.2a12.31,12.31,0,0,1,12.31-12.31H358.79A12.31,12.31,0,0,1,371.1,129.2V301.56a12.33,12.33,0,0,1-12.31,12.31H98.52A12.32,12.32,0,0,1,86.21,301.56Z"/></g></svg>