<svg xmlns="http://www.w3.org/2000/svg" viewBox="0 0 20 21.46"><defs><style>.cls-1{fill:none;}</style></defs><title>compass</title><g id="Calque_2" data-name="Calque 2"><g id="sources_non_vectorisés_" data-name="sources (non vectorisés)"><g id="compass"><g id="Rectangle_950" data-name="Rectangle 950"><rect class="cls-1" y="0.71" width="20" height="20"/></g><g id="Tracé_1104" data-name="Tracé 1104"><path d="M10.5,21.46A.76.76,0,0,1,9.81,21l-3.5-8a.75.75,0,0,1,.06-.71A.77.77,0,0,1,7,12h7a.77.77,0,0,1,.63.34.75.75,0,0,1,.06.71l-3.5,8A.76.76,0,0,1,10.5,21.46Zm-2.35-8,2.35,5.38,2.35-5.38Z"/></g><path d="M14.69,8.41l-3.5-8a.78.78,0,0,0-1.38,0l-3.5,8a.75.75,0,0,0,.06.71A.77.77,0,0,0,7,9.46h7a.77.77,0,0,0,.63-.34A.75.75,0,0,0,14.69,8.41Z"/></g></g></g></svg>