<svg id="ds44-icons" xmlns="http://www.w3.org/2000/svg" width="457.30741" height="480" viewBox="0 0 457.30741 480"><title>computer</title><g id="computer"><path d="M358.8036,350.80209a49.29959,49.29959,0,0,0,49.23068-49.24421v-172.36a49.2944,49.2944,0,0,0-49.2457-49.2457H98.51733a49.2944,49.2944,0,0,0-49.24571,49.2457v172.36A49.2996,49.2996,0,0,0,98.5023,350.80209H.03043a47.59551,47.59551,0,0,0,45.7245,49.2457H411.55248a47.59451,47.59451,0,0,0,45.7245-49.2457ZM86.2059,301.55788v-172.36a12.31974,12.31974,0,0,1,12.31143-12.31142H358.78858A12.31974,12.31974,0,0,1,371.1,129.19791v172.36a12.32746,12.32746,0,0,1-12.31142,12.31143H98.51733A12.32746,12.32746,0,0,1,86.2059,301.55788Z"/></g></svg>