<svg xmlns="http://www.w3.org/2000/svg" viewBox="0 0 20 20"><defs><style>.cls-1{fill:none;}</style></defs><title>computer</title><g id="Calque_2" data-name="Calque 2"><g id="sources_non_vectorisés_" data-name="sources (non vectorisés)"><g id="computer"><g id="Rectangle_917" data-name="Rectangle 917"><rect class="cls-1" width="20" height="20"/></g><path d="M15.37,14.25a2,2,0,0,0,2-2v-7a2,2,0,0,0-2-2H4.8a2,2,0,0,0-2,2v7a2,2,0,0,0,2,2H.8a1.93,1.93,0,0,0,1.86,2H17.51a1.93,1.93,0,0,0,1.86-2Zm-11.07-2v-7a.5.5,0,0,1,.5-.5H15.37a.5.5,0,0,1,.5.5v7a.5.5,0,0,1-.5.5H4.8A.5.5,0,0,1,4.3,12.25Z"/></g></g></g></svg>