<?xml version="1.0" encoding="utf-8"?>
<!-- Generator: Adobe Illustrator 23.1.1, SVG Export Plug-In . SVG Version: 6.00 Build 0)  -->
<svg version="1.1" id="Calque_1" xmlns="http://www.w3.org/2000/svg" xmlns:xlink="http://www.w3.org/1999/xlink" x="0px" y="0px"
	 viewBox="0 0 480 480" style="enable-background:new 0 0 480 480;" xml:space="preserve">
<title>computer</title>
<g>
	<g id="ds44-icons">
		<g id="computer">
			<path d="M370.1,350.8c27.2,0,49.2-22.1,49.2-49.2V129.2c0-27.2-22.1-49.2-49.2-49.2H109.9c-27.2,0-49.2,22.1-49.2,49.2v172.4
				c0,27.2,22.1,49.2,49.2,49.2H11.4C10.4,377,30.9,399,57.1,400h365.8c26.2-1,46.7-23,45.7-49.2H370.1z M97.6,301.6V129.2
				c0-6.8,5.5-12.3,12.3-12.3h260.3c6.8,0,12.3,5.5,12.3,12.3v172.4c0,6.8-5.5,12.3-12.3,12.3H109.9
				C103.1,313.9,97.6,308.4,97.6,301.6z"/>
		</g>
	</g>
</g>
</svg>
