<svg id="ds44-icons" xmlns="http://www.w3.org/2000/svg" width="186.99952" height="480" viewBox="0 0 186.99952 480"><title>compass</title><g id="compass"><g id="Tracé_1104" data-name="Tracé 1104"><path d="M93.49976,476.06122a16.54593,16.54593,0,0,1-15.12493-9.88277L1.37517,290.17922A16.50964,16.50964,0,0,1,16.5001,267.06214H170.49942a16.50964,16.50964,0,0,1,15.12494,23.11708L108.6247,466.17845A16.54593,16.54593,0,0,1,93.49976,476.06122ZM41.72265,300.062,93.49976,418.39741,145.27688,300.062Z"/></g><path d="M185.62436,188.94529,108.6247,12.94607C103.33956.93635,83.66.93635,78.37483,12.94607L1.37517,188.94529A16.50253,16.50253,0,0,0,16.5001,212.06238H170.49942a16.50253,16.50253,0,0,0,15.12494-23.11709Z"/></g></svg>