<?xml version="1.0" encoding="utf-8"?>
<!-- Generator: Adobe Illustrator 23.1.1, SVG Export Plug-In . SVG Version: 6.00 Build 0)  -->
<svg version="1.1" id="Calque_1" xmlns="http://www.w3.org/2000/svg" xmlns:xlink="http://www.w3.org/1999/xlink" x="0px" y="0px"
	 viewBox="0 0 480 480" style="enable-background:new 0 0 480 480;" xml:space="preserve">
<title>compass</title>
<g>
	<g id="ds44-icons">
		<g id="compass">
			<g id="Tracé_1104">
				<path d="M240,470.6c-6.4,0-12.2-3.8-14.8-9.7L150,289c-3.6-8.2,0.2-17.7,8.3-21.2c2-0.9,4.2-1.3,6.5-1.3h150.4
					c8.9,0,16.1,7.2,16.1,16.1c0,2.2-0.5,4.4-1.3,6.5L254.8,461C252.2,466.8,246.4,470.6,240,470.6z M189.4,298.7L240,414.3
					l50.6-115.6H189.4z"/>
			</g>
			<path d="M330,190.1L254.8,18.2c-5.2-11.7-24.4-11.7-29.6,0L150,190.1c-3.6,8.2,0.2,17.7,8.3,21.2c2,0.9,4.2,1.4,6.5,1.4h150.4
				c8.9,0,16.1-7.2,16.1-16.1C331.3,194.4,330.9,192.2,330,190.1z"/>
		</g>
	</g>
</g>
</svg>
