<svg id="ds44-icons" xmlns="http://www.w3.org/2000/svg" viewBox="0 0 480 480"><title>computer</title><g id="computer"><path d="M370.15,350.8a49.29,49.29,0,0,0,49.23-49.24V129.2A49.3,49.3,0,0,0,370.13,80H109.86A49.29,49.29,0,0,0,60.62,129.2V301.56a49.29,49.29,0,0,0,49.23,49.24H11.38A47.6,47.6,0,0,0,57.1,400.05H422.9a47.6,47.6,0,0,0,45.72-49.25ZM97.55,301.56V129.2a12.31,12.31,0,0,1,12.31-12.31H370.13a12.32,12.32,0,0,1,12.32,12.31V301.56a12.33,12.33,0,0,1-12.32,12.31H109.86A12.33,12.33,0,0,1,97.55,301.56Z"/></g></svg>