<svg id="ds44-icons" xmlns="http://www.w3.org/2000/svg" width="455" height="480" viewBox="0 0 455 480"><path d="M330.57908,132.60925C307.85032,67.28162,245.66135,20.26514,172.68918,20.26514c-92.15088,0-167.12109,74.96972-167.12109,167.12109,0,75.37463,50.16211,139.24341,118.85278,160.00452,22.72876,65.32763,84.91773,112.34411,157.88989,112.34411,92.15088,0,167.1211-74.96972,167.1211-167.12109C449.43186,217.23914,399.26975,153.37036,330.57908,132.60925Zm-177.0868,184.489a131.19662,131.19662,0,0,1-111.92419-129.712c0-72.30078,58.8208-131.12109,131.12109-131.12109a131.07216,131.07216,0,0,1,81.56616,233.706q-3.01776,2.40446-6.17578,4.63428c-.311.2193-.62524.4342-.93823.65088a130.2601,130.2601,0,0,1-70.12353,23.17187c-1.43787.04688-2.8794.0791-4.32862.0791A131.612,131.612,0,0,1,153.49228,317.09827ZM282.31076,423.73486a131.23589,131.23589,0,0,1-115.62841-69.347c1.99487.07086,3.99511.1195,6.00683.1195a166.34809,166.34809,0,0,0,56.6626-9.89624,86.838,86.838,0,0,0,114.584,22.29566,18.00024,18.00024,0,0,0-18.68554-30.77149,50.80925,50.80925,0,0,1-59.37854-4.8789H296.3425A18.00063,18.00063,0,0,0,299.921,295.6145q3.9192-4.60043,7.50562-9.48022a18.00744,18.00744,0,0,0,6.13635-8.92566,166.79649,166.79649,0,0,0,13.96655-26.968,17.98962,17.98962,0,0,0,16.40625-31.92078c-2.08227-1.2644-4.21752-2.42565-6.3894-3.50512a167.54052,167.54052,0,0,0,2.26343-27.42847q0-6.478-.488-12.83685a131.28254,131.28254,0,0,1,74.11011,118.06439C413.43186,364.91455,354.61106,423.73486,282.31076,423.73486Z"/><path d="M189.2761,274.25537a86.95328,86.95328,0,0,0,45.03711-12.57519,18,18,0,0,0-18.68457-30.77149,50.79493,50.79493,0,0,1-59.379-4.87988h30.47082a18,18,0,0,0,0-36H138.47556q-.06776-1.31305-.0686-2.64258,0-1.32953.0686-2.64258h48.24487a18,18,0,0,0,0-36H156.24961a50.77236,50.77236,0,0,1,59.37805-4.87988,17.99966,17.99966,0,0,0,18.68652-30.76953,86.86938,86.86938,0,0,0-122.82287,35.64941H84.633a18,18,0,0,0,0,36h17.81775c-.02637.87805-.04382,1.75824-.04382,2.64258s.01745,1.76453.04382,2.64258H84.633a18,18,0,1,0,0,36h26.85828A87.42253,87.42253,0,0,0,153.7739,266.6637a86.14132,86.14132,0,0,0,22.54773,6.625A87.18925,87.18925,0,0,0,189.2761,274.25537Z"/></svg>