<svg version="1.1" id="ds44-icons" xmlns="http://www.w3.org/2000/svg" xmlns:xlink="http://www.w3.org/1999/xlink" x="0px" y="0px"
	 viewBox="0 0 455 480" style="enable-background:new 0 0 455 480;" xml:space="preserve">
<title>cost</title>
<path d="M330.6,132.6C307.9,67.3,245.7,20.3,172.7,20.3c-92.2,0-167.1,75-167.1,167.1c0,75.4,50.2,139.2,118.8,160
	c22.7,65.3,84.9,112.3,157.9,112.3c92.1,0,167.1-75,167.1-167.1C449.4,217.2,399.3,153.4,330.6,132.6z M153.5,317.1
	c-64.3-9.6-111.9-64.7-111.9-129.7c0-72.3,58.8-131.1,131.1-131.1c72.4,0,131.1,58.6,131.1,131c0,19-4.1,37.8-12.1,55
	c-1.9,4-3.9,7.9-6.2,11.7c-8.2,13.8-18.8,26-31.3,36c-2,1.6-4.1,3.1-6.2,4.6l-0.9,0.6c-20.7,14.3-45,22.4-70.1,23.2
	c-1.4,0-2.9,0.1-4.3,0.1C166.3,318.5,159.8,318,153.5,317.1z M282.3,423.7c-48.4,0-92.8-26.7-115.6-69.3c2,0.1,4,0.1,6,0.1
	c19.3,0,38.5-3.3,56.7-9.9c26.8,35.8,76.3,45.5,114.6,22.3c8.5-5.2,11.2-16.2,6-24.7c-5.2-8.5-16.2-11.2-24.7-6l0,0
	c-18.8,11.4-42.7,9.4-59.4-4.9h30.5c9.9,0,18-8,18-18c0-8.6-6-16-14.5-17.7c2.6-3.1,5.1-6.2,7.5-9.5c2.9-2.3,5.1-5.4,6.1-8.9
	c5.5-8.6,10.2-17.6,14-27c9.2,3.8,19.7-0.5,23.6-9.6c3.4-8.2,0.4-17.6-7.2-22.3c-2.1-1.3-4.2-2.4-6.4-3.5c1.5-9.1,2.3-18.2,2.3-27.4
	c0-4.3-0.2-8.6-0.5-12.8c45.3,21.9,74.1,67.8,74.1,118.1C413.4,364.9,354.6,423.7,282.3,423.7z"/>
<path d="M189.3,274.3c8.7,0,17.3-1.3,25.6-3.9c6.8-2.1,13.3-5,19.4-8.7c8.5-5.2,11.2-16.2,6.1-24.7c-5.2-8.5-16.2-11.1-24.7-6
	c-18.8,11.3-42.7,9.3-59.4-5h30.5c9.9,0,18-8.1,18-18s-8.1-18-18-18h-48.2c0-0.9-0.1-1.8-0.1-2.6s0-1.8,0.1-2.6h48.2
	c9.9,0,18-8.1,18-18s-8.1-18-18-18h-30.5c15.2-13.1,36.7-15.9,54.9-7.3c1.5,0.7,3,1.5,4.5,2.4c8.6,5,19.6,2.2,24.6-6.4
	c4.9-8.4,2.3-19.2-6-24.4c-41-24.9-94.5-11.7-119.3,29.3c-1.3,2.1-2.4,4.2-3.5,6.4H84.6c-9.9,0-18,8.1-18,18s8.1,18,18,18h17.8
	c0,0.9,0,1.8,0,2.6s0,1.8,0,2.6H84.6c-9.9,0-18,8.1-18,18s8.1,18,18,18l0,0h26.9c9,18,23.9,32.4,42.3,40.6
	c7.2,3.2,14.8,5.5,22.6,6.6C180.6,273.9,184.9,274.2,189.3,274.3z"/>
</svg>
