<svg id="ds44-icons" xmlns="http://www.w3.org/2000/svg" viewBox="0 0 455 480"><defs><style>.cls-1{fill:none;}</style></defs><title>cost</title><path class="cls-1" d="M177,318.43a130.35,130.35,0,0,0,70.12-23.17l.94-.65c2.11-1.49,4.16-3,6.18-4.64a132,132,0,0,0,31.34-36q3.36-5.68,6.16-11.71a130.22,130.22,0,0,0,10.75-36.43,131.49,131.49,0,0,0-1-42.93A131.25,131.25,0,0,0,172.69,56.27c-72.3,0-131.12,58.82-131.12,131.12A131.1,131.1,0,0,0,172.69,318.51C174.14,318.51,175.58,318.48,177,318.43ZM122.68,243.1A87.55,87.55,0,0,1,111.49,226H84.63a18,18,0,1,1,0-36h17.82c0-.88,0-1.76,0-2.64s0-1.77,0-2.65H84.63a18,18,0,0,1,0-36h26.86a86.88,86.88,0,0,1,122.82-35.65,18,18,0,1,1-18.68,30.77c-1.46-.88-3-1.69-4.51-2.42a50.82,50.82,0,0,0-54.87,7.3h30.47a18,18,0,1,1,0,36H138.48c0,.88-.07,1.76-.07,2.65s0,1.76.07,2.64h48.24a18,18,0,0,1,0,36H156.25a51.15,51.15,0,0,0,9.56,6.47,50.81,50.81,0,0,0,49.82-1.59,18,18,0,1,1,18.68,30.77,86.28,86.28,0,0,1-19.39,8.71,86.94,86.94,0,0,1-38.6,2.9,86.2,86.2,0,0,1-22.55-6.63A87.44,87.44,0,0,1,122.68,243.1Z"/><path class="cls-1" d="M339.32,174.55q.49,6.36.49,12.84a167.43,167.43,0,0,1-2.26,27.42q3.26,1.62,6.39,3.51a18,18,0,0,1-16.41,31.92,166.68,166.68,0,0,1-14,27,17.94,17.94,0,0,1-6.13,8.92q-3.58,4.89-7.51,9.48a18,18,0,0,1-3.58,35.65H265.87a50.84,50.84,0,0,0,59.38,4.88,18,18,0,1,1,18.69,30.77,86.86,86.86,0,0,1-114.59-22.3,166.32,166.32,0,0,1-56.66,9.9c-2,0-4-.05-6-.12a131.24,131.24,0,0,0,115.63,69.34c72.3,0,131.12-58.82,131.12-131.12A131.28,131.28,0,0,0,339.32,174.55Z"/><path d="M330.58,132.61C307.85,67.28,245.66,20.27,172.69,20.27c-92.15,0-167.12,75-167.12,167.12,0,75.37,50.16,139.24,118.85,160,22.73,65.33,84.92,112.34,157.89,112.34,92.15,0,167.12-75,167.12-167.12C449.43,217.24,399.27,153.37,330.58,132.61ZM153.49,317.1A131.21,131.21,0,0,1,41.57,187.39c0-72.3,58.82-131.12,131.12-131.12a131.07,131.07,0,0,1,119.07,186q-2.79,6-6.16,11.71a132,132,0,0,1-31.34,36c-2,1.6-4.07,3.15-6.18,4.64l-.94.65A130.35,130.35,0,0,1,177,318.43c-1.44.05-2.88.08-4.33.08A132.18,132.18,0,0,1,153.49,317.1ZM282.31,423.73a131.24,131.24,0,0,1-115.63-69.34c2,.07,4,.12,6,.12a166.32,166.32,0,0,0,56.66-9.9,86.86,86.86,0,0,0,114.59,22.3,18,18,0,1,0-18.69-30.77,50.84,50.84,0,0,1-59.38-4.88h30.47a18,18,0,0,0,3.58-35.65q3.91-4.59,7.51-9.48a17.94,17.94,0,0,0,6.13-8.92,166.68,166.68,0,0,0,14-27,18,18,0,0,0,16.41-31.92q-3.13-1.89-6.39-3.51a167.43,167.43,0,0,0,2.26-27.42q0-6.48-.49-12.84a131.28,131.28,0,0,1,74.11,118.06C413.43,364.91,354.61,423.73,282.31,423.73Z"/><path d="M189.28,274.26a87.25,87.25,0,0,0,25.64-3.87,86.28,86.28,0,0,0,19.39-8.71A18,18,0,0,0,240.36,237a18.06,18.06,0,0,0-24.73-6A50.78,50.78,0,0,1,156.25,226h30.47a18,18,0,0,0,0-36H138.48c0-.88-.07-1.76-.07-2.64s0-1.77.07-2.65h48.24a18,18,0,0,0,0-36H156.25a50.82,50.82,0,0,1,54.87-7.3c1.54.73,3,1.54,4.51,2.42a18,18,0,0,0,18.68-30.77,86.88,86.88,0,0,0-122.82,35.65H84.63a18,18,0,0,0,0,36h17.82c0,.88,0,1.76,0,2.65s0,1.76,0,2.64H84.63a18,18,0,1,0,0,36h26.86a87.41,87.41,0,0,0,42.28,40.63,86.2,86.2,0,0,0,22.55,6.63A87.86,87.86,0,0,0,189.28,274.26Z"/></svg>