<?xml version="1.0" encoding="utf-8"?>
<!-- Generator: Adobe Illustrator 23.1.1, SVG Export Plug-In . SVG Version: 6.00 Build 0)  -->
<svg version="1.1" id="Calque_1" xmlns="http://www.w3.org/2000/svg" xmlns:xlink="http://www.w3.org/1999/xlink" x="0px" y="0px"
	 viewBox="0 0 480 480" style="enable-background:new 0 0 480 480;" xml:space="preserve">
<title>cross</title>
<g>
	<g id="ds44-icons">
		<g id="cross">
			<path d="M266.1,240l85.4-85.4c7.2-7.2,7.2-18.9,0-26.1c-7.2-7.2-18.9-7.2-26.1,0L240,213.9l-85.4-85.4c-7.2-7.2-18.9-7.2-26.1,0
				c-7.2,7.2-7.2,18.9,0,26.1l85.4,85.4l-85.4,85.4c-7.2,7.2-7.2,18.9,0,26.1c7.2,7.2,18.9,7.2,26.1,0l0,0l85.4-85.4l85.4,85.4
				c7.2,7.2,18.9,7.2,26.1,0c7.2-7.2,7.2-18.9,0-26.1L266.1,240z"/>
		</g>
	</g>
</g>
</svg>
