<svg xmlns="http://www.w3.org/2000/svg" viewBox="0 0 20 20"><defs><style>.cls-1{fill:none;}</style></defs><title>cross</title><g id="Calque_2" data-name="Calque 2"><g id="sources_non_vectorisés_" data-name="sources (non vectorisés)"><g id="cross"><path d="M11.06,10.06l3.47-3.47a.75.75,0,0,0-1.06-1.06L10,9,6.53,5.53A.75.75,0,0,0,5.47,6.59l3.47,3.47L5.47,13.53a.75.75,0,0,0,0,1.06.75.75,0,0,0,1.06,0L10,11.12l3.47,3.47a.75.75,0,0,0,1.06,0,.75.75,0,0,0,0-1.06Z"/><g id="Rectangle_907" data-name="Rectangle 907"><rect class="cls-1" width="20" height="20"/></g></g></g></g></svg>