<svg id="ds44-icons" xmlns="http://www.w3.org/2000/svg" width="307.78566" height="480" viewBox="0 0 307.78566 480"><title>csv</title><g id="csv"><path d="M302.37536,153.0746,203.884,54.58319a18.4747,18.4747,0,0,0-13.05684-5.4103H67.71284A67.78174,67.78174,0,0,0,0,116.88574V363.11426a67.78174,67.78174,0,0,0,67.71284,67.71285h172.36a67.78174,67.78174,0,0,0,67.71285-67.71285V166.13144A18.4747,18.4747,0,0,0,302.37536,153.0746Zm-97.734-45.50659,47.77892,47.77891H204.64139Zm35.43142,286.32482h-172.36a30.80707,30.80707,0,0,1-30.77856-30.77857V116.88574A30.80707,30.80707,0,0,1,67.71284,86.10717h99.99428v87.70689a18.4719,18.4719,0,0,0,18.46713,18.46714h84.67713V363.11426A30.80707,30.80707,0,0,1,240.07281,393.89283Z"/><path d="M79.75459,285.06174c0,9.76258,3.40248,15.89425,13.6099,15.89425a16.74776,16.74776,0,0,0,9.41391-2.71717l1.14218-.69733c1.46679-.88969,2.27232-1.6832,4.88129-1.6832,4.30419,0,7.47823,3.174,7.47823,6.80495,0,6.58853-11.45781,12.1431-23.48068,12.1431-19.8618,0-28.93907-11.80646-28.93907-29.7446V262.603c0-17.92611,9.07727-29.72055,28.93907-29.72055,12.02287,0,23.48068,5.55457,23.48068,12.13108,0,3.63091-3.174,6.817-7.47823,6.817-2.609,0-3.4145-.79351-4.88129-1.70725L102.7784,249.45a16.56958,16.56958,0,0,0-9.41391-2.72919c-10.20742,0-13.6099,6.13167-13.6099,15.88222Z"/><path d="M156.22009,283.01785c-2.38053-1.00992-5.21792-2.01984-8.28376-3.05381-11.12116-3.39045-23.144-7.14159-23.144-23.6009,0-14.63185,10.20743-23.48068,26.31808-23.48068,6.69674,0,22.8074,1.69522,22.8074,10.20742,0,3.73911-2.94561,7.15361-7.9351,7.15361a18.97561,18.97561,0,0,1-5.56659-1.25038,22.54032,22.54032,0,0,0-8.6204-1.70725c-5.55457,0-10.7725,1.93569-10.7725,8.62041,0,5.00151,2.82537,6.69674,4.76106,7.61048a43.37524,43.37524,0,0,0,8.16353,3.05381c11.12116,3.53472,23.26427,7.382,23.26427,23.4927,0,15.774-12.02288,24.83927-28.25376,24.83927-8.392,0-24.27419-2.93359-24.27419-10.89273a7.48137,7.48137,0,0,1,7.47823-7.14159,17.05421,17.05421,0,0,1,5.6748,1.37061,32.92692,32.92692,0,0,0,11.24139,2.2603c7.82689,0,11.79444-3.51068,11.79444-9.76258C160.873,285.63884,158.264,283.93159,156.22009,283.01785Z"/><path d="M230.65373,238.20859a8.7083,8.7083,0,0,1,7.70666-5.32613c4.65286,0,8.17556,2.9456,8.17556,7.26181a9.34723,9.34723,0,0,1-.34866,2.48874l-22.1221,64.57487c-1.587,4.52061-3.85934,7.69465-9.30571,7.69465s-7.70666-3.27023-9.18547-7.69465L183.45191,242.633a9.34723,9.34723,0,0,1-.34866-2.48874c0-4.31621,3.75114-7.26181,8.17555-7.26181a8.50425,8.50425,0,0,1,7.49026,5.32613l13.94653,43.79934a70.20608,70.20608,0,0,1,2.04389,11.10914,71.59887,71.59887,0,0,1,2.04389-11.10914Z"/></g></svg>