<svg id="ds44-icons" xmlns="http://www.w3.org/2000/svg" width="390" height="480" viewBox="0 0 390 480"><g id="csv"><path d="M85.88332,297.00441c0,14.12,4.92112,22.98841,19.68447,22.98841a24.223,24.223,0,0,0,13.61568-3.92994l1.652-1.00857c2.12148-1.28679,3.28655-2.43448,7.06-2.43448,6.22531,0,10.816,4.59073,10.816,9.84224,0,9.52924-16.57182,17.563-33.96094,17.563-28.72681,0-41.85559-17.07611-41.85559-43.02067V264.52155c0-25.92717,13.12878-42.98589,41.85559-42.98589,17.38912,0,33.96094,8.03377,33.96094,17.54562,0,5.25151-4.59072,9.85962-10.816,9.85962-3.77343,0-4.9385-1.14768-7.06-2.46925l-1.652-.97379a23.96524,23.96524,0,0,0-13.61568-3.94733c-14.76335,0-19.68447,8.86845-19.68447,22.971Z"/><path d="M196.47807,294.04826c-3.443-1.46068-7.54687-2.92137-11.98109-4.41683-16.08493-4.90373-33.47405-10.32914-33.47405-34.13483,0-21.16255,14.76336-33.96094,38.06477-33.96094,9.68574,0,32.98715,2.45187,32.98715,14.76336,0,5.408-4.26033,10.34652-11.47682,10.34652-2.95614,0-5.25151-.99118-8.05115-1.80847a32.601,32.601,0,0,0-12.468-2.46925c-8.03377,0-15.58064,2.79964-15.58064,12.468,0,7.23387,4.08644,9.68574,6.88608,11.00731A62.7356,62.7356,0,0,0,193.19153,270.26c16.08493,5.1124,33.64794,10.67692,33.64794,33.97833,0,22.81452-17.38912,35.92591-40.86442,35.92591-12.1376,0-35.10862-4.243-35.10862-15.75454,0-5.25151,4.74723-10.32913,10.816-10.32913,2.46925,0,5.095.83468,8.20766,1.98236,3.94733,1.32157,9.19884,3.26915,16.25882,3.26915,11.32031,0,17.05872-5.07762,17.05872-14.12C203.20766,297.83909,199.43422,295.36983,196.47807,294.04826Z"/><path d="M304.13407,229.239c1.63458-4.59073,6.88609-7.70338,11.14642-7.70338,6.72959,0,11.8246,4.26033,11.8246,10.503a13.51907,13.51907,0,0,1-.50428,3.59955l-31.996,93.39693c-2.29536,6.5383-5.58191,11.129-13.45917,11.129s-11.14643-4.72984-13.28529-11.129l-31.996-93.39693a13.51868,13.51868,0,0,1-.50429-3.59955c0-6.24269,5.4254-10.503,11.8246-10.503,3.92994,0,9.18145,2.95615,10.83342,7.70338l20.17137,63.34854c1.47807,4.76461,2.31275,10.98991,2.95615,16.06754.66078-5.07763,1.47807-11.30293,2.95614-16.06754Z"/></g><g id="Tracé_1085" data-name="Tracé 1085"><path d="M301.679,472.08717H87.96712A79.52568,79.52568,0,0,1,8.53157,392.65162V87.3484A79.52568,79.52568,0,0,1,87.96712,7.91286H240.61849a18.37608,18.37608,0,0,1,12.99316,5.38183L375.73274,135.41578a18.3761,18.3761,0,0,1,5.38184,12.99317V392.65162A79.52568,79.52568,0,0,1,301.679,472.08717ZM87.96712,44.66286A42.73361,42.73361,0,0,0,45.28157,87.3484V392.65162a42.73392,42.73392,0,0,0,42.68555,42.68555H301.679a42.73392,42.73392,0,0,0,42.68555-42.68555V156.02028L233.00716,44.66286Z"/></g><g id="Tracé_1086" data-name="Tracé 1086"><path d="M349.45882,176.30983H234.848a18.37473,18.37473,0,0,1-18.375-18.375V43.44655a18.375,18.375,0,0,1,36.75,0v96.11328h96.23584a18.375,18.375,0,0,1,0,36.75Z"/></g></svg>