<?xml version="1.0" encoding="utf-8"?>
<!-- Generator: Adobe Illustrator 23.1.1, SVG Export Plug-In . SVG Version: 6.00 Build 0)  -->
<svg version="1.1" id="Calque_1" xmlns="http://www.w3.org/2000/svg" xmlns:xlink="http://www.w3.org/1999/xlink" x="0px" y="0px"
	 viewBox="0 0 480 480" style="enable-background:new 0 0 480 480;" xml:space="preserve">
<title>csv</title>
<g>
	<g id="ds44-icons">
		<g id="csv">
			<path d="M388.5,153.1L290,54.6c-3.5-3.5-8.2-5.4-13.1-5.4H153.8c-37.4,0-67.7,30.3-67.7,67.7v246.2c0,37.4,30.3,67.7,67.7,67.7
				h172.4c37.4,0,67.7-30.3,67.7-67.7v-197C393.9,161.2,391.9,156.5,388.5,153.1z M290.7,107.6l47.8,47.8h-47.8V107.6z M326.2,393.9
				H153.8c-17,0-30.8-13.8-30.8-30.8V116.9c0-17,13.8-30.8,30.8-30.8h100v87.7c0,10.2,8.3,18.5,18.5,18.5H357v170.8
				C356.9,380.1,343.2,393.9,326.2,393.9L326.2,393.9z"/>
			<g>
				<path d="M165.9,285.1c0,9.8,3.4,15.9,13.6,15.9c3.3,0.1,6.6-0.9,9.4-2.7l1.1-0.7c1.5-0.9,2.3-1.7,4.9-1.7c4.3,0,7.5,3.2,7.5,6.8
					c0,6.6-11.5,12.1-23.5,12.1c-19.9,0-28.9-11.8-28.9-29.7v-22.5c0-17.9,9.1-29.7,28.9-29.7c12,0,23.5,5.6,23.5,12.1
					c0,3.6-3.2,6.8-7.5,6.8c-2.6,0-3.4-0.8-4.9-1.7l-1.1-0.7c-2.8-1.8-6.1-2.8-9.4-2.7c-10.2,0-13.6,6.1-13.6,15.9V285.1z"/>
				<path d="M242.3,283c-2.4-1-5.2-2-8.3-3.1c-11.1-3.4-23.1-7.1-23.1-23.6c0-14.6,10.2-23.5,26.3-23.5c6.7,0,22.8,1.7,22.8,10.2
					c0,3.7-2.9,7.2-7.9,7.2c-1.9-0.1-3.8-0.6-5.6-1.3c-2.7-1.1-5.7-1.7-8.6-1.7c-5.6,0-10.8,1.9-10.8,8.6c0,5,2.8,6.7,4.8,7.6
					c2.6,1.3,5.3,2.3,8.2,3.1c11.1,3.5,23.3,7.4,23.3,23.5c0,15.8-12,24.8-28.3,24.8c-8.4,0-24.3-2.9-24.3-10.9
					c0.2-4,3.5-7.1,7.5-7.1c2,0.1,3.9,0.6,5.7,1.4c3.6,1.4,7.4,2.2,11.2,2.3c7.8,0,11.8-3.5,11.8-9.8
					C247,285.6,244.4,283.9,242.3,283z"/>
				<path d="M316.8,238.2c1.3-3.1,4.3-5.2,7.7-5.3c4.7,0,8.2,2.9,8.2,7.3c0,0.8-0.1,1.7-0.3,2.5l-22.1,64.6
					c-1.6,4.5-3.9,7.7-9.3,7.7s-7.7-3.3-9.2-7.7l-22.1-64.6c-0.2-0.8-0.3-1.6-0.3-2.5c0-4.3,3.8-7.3,8.2-7.3
					c3.3,0.2,6.3,2.2,7.5,5.3l13.9,43.8c1,3.6,1.7,7.4,2,11.1c0.4-3.8,1.1-7.5,2-11.1L316.8,238.2z"/>
			</g>
		</g>
	</g>
</g>
</svg>
