<svg id="ds44-icons" xmlns="http://www.w3.org/2000/svg" viewBox="0 0 307.79 480"><title>csv</title><g id="csv"><path d="M302.38,153.07l-98.5-98.49a18.47,18.47,0,0,0-13-5.41H67.71A67.78,67.78,0,0,0,0,116.89V363.11a67.78,67.78,0,0,0,67.71,67.72H240.07a67.79,67.79,0,0,0,67.72-67.72v-197A18.51,18.51,0,0,0,302.38,153.07Zm-97.74-45.5,47.78,47.78H204.64Zm35.43,286.32H67.71a30.81,30.81,0,0,1-30.78-30.78V116.89A30.81,30.81,0,0,1,67.71,86.11h100v87.7a18.47,18.47,0,0,0,18.46,18.47h84.68V363.11A30.8,30.8,0,0,1,240.07,393.89Z"/><path d="M79.75,285.06c0,9.76,3.41,15.9,13.61,15.9a16.78,16.78,0,0,0,9.42-2.72l1.14-.7c1.47-.89,2.27-1.68,4.88-1.68,4.31,0,7.48,3.17,7.48,6.8,0,6.59-11.46,12.15-23.48,12.15-19.86,0-28.94-11.81-28.94-29.75V262.6c0-17.92,9.08-29.72,28.94-29.72,12,0,23.48,5.56,23.48,12.13,0,3.63-3.17,6.82-7.48,6.82-2.61,0-3.41-.79-4.88-1.71l-1.14-.67a16.56,16.56,0,0,0-9.42-2.73c-10.2,0-13.61,6.13-13.61,15.88Z"/><path d="M156.22,283c-2.38-1-5.22-2-8.28-3.06-11.12-3.39-23.15-7.14-23.15-23.6,0-14.63,10.21-23.48,26.32-23.48,6.7,0,22.81,1.7,22.81,10.21,0,3.74-2.95,7.15-7.94,7.15a18.77,18.77,0,0,1-5.56-1.25,22.69,22.69,0,0,0-8.62-1.7c-5.56,0-10.78,1.93-10.78,8.62,0,5,2.83,6.69,4.76,7.61a43.71,43.71,0,0,0,8.17,3.05c11.12,3.54,23.26,7.38,23.26,23.49,0,15.78-12,24.84-28.25,24.84-8.39,0-24.28-2.93-24.28-10.89a7.49,7.49,0,0,1,7.48-7.14,17.14,17.14,0,0,1,5.68,1.37,33,33,0,0,0,11.24,2.26c7.83,0,11.79-3.51,11.79-9.76C160.87,285.64,158.26,283.93,156.22,283Z"/><path d="M230.65,238.21a8.7,8.7,0,0,1,7.71-5.33c4.65,0,8.18,3,8.18,7.26a9.24,9.24,0,0,1-.35,2.49l-22.12,64.58c-1.59,4.52-3.86,7.69-9.31,7.69s-7.71-3.27-9.19-7.69l-22.12-64.58a9.24,9.24,0,0,1-.35-2.49c0-4.31,3.75-7.26,8.18-7.26a8.51,8.51,0,0,1,7.49,5.33L212.72,282a71,71,0,0,1,2,11.11,72.13,72.13,0,0,1,2-11.11Z"/></g></svg>