<svg id="ds44-icons" xmlns="http://www.w3.org/2000/svg" viewBox="0 0 480 480"><title>csv</title><g id="csv"><path d="M388.48,153.07,290,54.58a18.48,18.48,0,0,0-13.06-5.41H153.82a67.78,67.78,0,0,0-67.71,67.72V363.11a67.78,67.78,0,0,0,67.71,67.72H326.18a67.78,67.78,0,0,0,67.71-67.72v-197A18.47,18.47,0,0,0,388.48,153.07Zm-97.73-45.5,47.78,47.78H290.75Zm35.43,286.32H153.82A30.8,30.8,0,0,1,123,363.11V116.89a30.8,30.8,0,0,1,30.78-30.78h100v87.7a18.48,18.48,0,0,0,18.47,18.47H357V363.11A30.8,30.8,0,0,1,326.18,393.89Z"/><path d="M165.86,285.06c0,9.76,3.4,15.9,13.61,15.9a16.81,16.81,0,0,0,9.42-2.72l1.14-.7c1.46-.89,2.27-1.68,4.88-1.68,4.3,0,7.48,3.17,7.48,6.8,0,6.59-11.46,12.15-23.48,12.15C159,314.81,150,303,150,285.06V262.6c0-17.92,9.07-29.72,28.94-29.72,12,0,23.48,5.56,23.48,12.13,0,3.63-3.18,6.82-7.48,6.82-2.61,0-3.42-.79-4.88-1.71l-1.14-.67a16.58,16.58,0,0,0-9.42-2.73c-10.21,0-13.61,6.13-13.61,15.88Z"/><path d="M242.33,283c-2.38-1-5.22-2-8.29-3.06-11.12-3.39-23.14-7.14-23.14-23.6,0-14.63,10.21-23.48,26.32-23.48,6.69,0,22.8,1.7,22.8,10.21,0,3.74-2.94,7.15-7.93,7.15a18.9,18.9,0,0,1-5.57-1.25,22.6,22.6,0,0,0-8.62-1.7c-5.55,0-10.77,1.93-10.77,8.62,0,5,2.83,6.69,4.76,7.61a43.9,43.9,0,0,0,8.16,3.05c11.13,3.54,23.27,7.38,23.27,23.49,0,15.78-12,24.84-28.25,24.84-8.4,0-24.28-2.93-24.28-10.89a7.48,7.48,0,0,1,7.48-7.14,17.09,17.09,0,0,1,5.67,1.37,33,33,0,0,0,11.25,2.26C243,300.5,247,297,247,290.74,247,285.64,244.37,283.93,242.33,283Z"/><path d="M316.76,238.21a8.7,8.7,0,0,1,7.71-5.33c4.65,0,8.17,3,8.17,7.26a9.24,9.24,0,0,1-.35,2.49l-22.12,64.58c-1.58,4.52-3.86,7.69-9.3,7.69s-7.71-3.27-9.19-7.69l-22.12-64.58a9.24,9.24,0,0,1-.35-2.49c0-4.31,3.75-7.26,8.18-7.26a8.53,8.53,0,0,1,7.49,5.33L298.82,282a71,71,0,0,1,2.05,11.11,71,71,0,0,1,2-11.11Z"/></g></svg>