<svg id="ds44-icons" xmlns="http://www.w3.org/2000/svg" viewBox="0 0 480 480"><title>data</title><path d="M369.58,83.16a26.75,26.75,0,0,0-27.26,27.26,27.26,27.26,0,1,0,54.52,0,26.75,26.75,0,0,0-27.26-27.26Z"/><path d="M283.53,245.14a38.83,38.83,0,1,0,27,11.36A37.06,37.06,0,0,0,283.53,245.14Z"/><path d="M283.53,417.23c-10.73,0-17.13,6.41-17.13,17.14s6.4,17.13,17.13,17.13c10.1,0,16.12-6.4,16.12-17.13S293.63,417.23,283.53,417.23Z"/><path d="M283.53,342.32A28.22,28.22,0,0,0,263.77,350a26.8,26.8,0,0,0,0,39.18,28.22,28.22,0,0,0,19.76,7.67,27.26,27.26,0,1,0,0-54.52Z"/><path d="M196.47,158.07a38.22,38.22,0,0,0-27,65.41,38.21,38.21,0,1,0,54-54A37.13,37.13,0,0,0,196.47,158.07Z"/><path d="M196.47,245.14a38.83,38.83,0,1,0,27,11.36A37.06,37.06,0,0,0,196.47,245.14Z"/><path d="M434.37,266.4c-10.73,0-17.14,6.4-17.14,17.13,0,10.1,6.41,16.12,17.14,16.12s17.13-6,17.13-16.12C451.5,272.8,445.1,266.4,434.37,266.4Z"/><path d="M434.37,213.6c10.73,0,17.13-6.4,17.13-17.13,0-10.1-6.4-16.12-17.13-16.12s-17.14,6-17.14,16.12C417.23,207.2,423.64,213.6,434.37,213.6Z"/><path d="M369.58,169.21a26.75,26.75,0,0,0-27.26,27.26A28.25,28.25,0,0,0,350,216.23a26.81,26.81,0,0,0,39.19,0,28.22,28.22,0,0,0,7.67-19.76,26.75,26.75,0,0,0-27.26-27.26Z"/><path d="M369.58,255.26A25.68,25.68,0,0,0,350,263.77h0a28.3,28.3,0,0,0-7.66,19.75,27.26,27.26,0,1,0,54.52,0,28.29,28.29,0,0,0-7.67-19.76A25.68,25.68,0,0,0,369.58,255.26Z"/><path d="M283.53,158.07a38.22,38.22,0,0,0-27,65.41,38.22,38.22,0,1,0,54.05-54A37.17,37.17,0,0,0,283.53,158.07Z"/><path d="M369.58,342.32a26.48,26.48,0,0,0-19.43,7.83h0a28,28,0,1,0,19.43-7.83Z"/><path d="M216.23,350a28.32,28.32,0,0,0-19.76-7.66A26.52,26.52,0,0,0,177,350.15h0a27.26,27.26,0,0,0,19.43,46.69,28.29,28.29,0,0,0,19.76-7.67,26.81,26.81,0,0,0,0-39.19Z"/><path d="M45.63,266.4c-10.73,0-17.13,6.4-17.13,17.13,0,10.1,6.4,16.12,17.13,16.12s17.14-6,17.14-16.12C62.77,272.8,56.36,266.4,45.63,266.4Z"/><path d="M196.47,62.77c10.73,0,17.14-6.41,17.14-17.14S207.2,28.5,196.47,28.5c-10.1,0-16.12,6.4-16.12,17.13S186.37,62.77,196.47,62.77Z"/><path d="M196.47,137.68A28.34,28.34,0,0,0,216.23,130h0a26.81,26.81,0,0,0,0-39.19,28.32,28.32,0,0,0-19.76-7.66,26.75,26.75,0,0,0-27.26,27.26,26.75,26.75,0,0,0,27.26,27.26Z"/><path d="M196.47,417.23c-10.1,0-16.12,6.41-16.12,17.14s6,17.13,16.12,17.13c10.73,0,17.14-6.4,17.14-17.13S207.2,417.23,196.47,417.23Z"/><path d="M263.77,130a28.22,28.22,0,0,0,19.76,7.67,26.75,26.75,0,0,0,27.26-27.26,26.75,26.75,0,0,0-27.26-27.26,28.21,28.21,0,0,0-19.75,7.66,26.8,26.8,0,0,0,0,39.19Z"/><path d="M283.53,62.77c10.1,0,16.12-6.41,16.12-17.14s-6-17.13-16.12-17.13c-10.73,0-17.13,6.4-17.13,17.13S272.8,62.77,283.53,62.77Z"/><path d="M45.63,180.35c-10.73,0-17.13,6-17.13,16.12,0,10.73,6.4,17.13,17.13,17.13s17.14-6.4,17.14-17.13C62.77,186.37,56.36,180.35,45.63,180.35Z"/><path d="M110.42,83.16a26.75,26.75,0,0,0-27.26,27.26,26.75,26.75,0,0,0,27.26,27.26,26.75,26.75,0,0,0,27.26-27.26,26.75,26.75,0,0,0-27.26-27.26Z"/><path d="M110.42,169.21A26.54,26.54,0,0,0,91,177h0a26.52,26.52,0,0,0-7.83,19.43,28.21,28.21,0,0,0,7.66,19.75,26.8,26.8,0,0,0,39.19,0,28.22,28.22,0,0,0,7.67-19.76,26.75,26.75,0,0,0-27.26-27.26Z"/><path d="M110.42,342.32a27.26,27.26,0,1,0,0,54.52,27.26,27.26,0,1,0,0-54.52Z"/><path d="M110.42,255.26a25.68,25.68,0,0,0-19.59,8.51h0a28.32,28.32,0,0,0-7.66,19.76,26.75,26.75,0,0,0,27.26,27.26,26.75,26.75,0,0,0,27.26-27.26A28.31,28.31,0,0,0,130,263.77,25.68,25.68,0,0,0,110.42,255.26Z"/></svg>