<svg id="ds44-icons" xmlns="http://www.w3.org/2000/svg" viewBox="0 0 423.01 480"><title>data</title><path d="M341.08,83.16a26.77,26.77,0,0,0-27.26,27.26,27.26,27.26,0,1,0,54.52,0,26.75,26.75,0,0,0-27.26-27.26Z"/><path d="M255,245.14a38.83,38.83,0,1,0,27,11.36A37.07,37.07,0,0,0,255,245.14Z"/><path d="M255,417.23c-10.73,0-17.14,6.41-17.14,17.14S244.31,451.5,255,451.5c10.09,0,16.12-6.4,16.12-17.13S265.13,417.23,255,417.23Z"/><path d="M255,342.32A28.26,28.26,0,0,0,235.27,350a26.8,26.8,0,0,0,0,39.18A28.26,28.26,0,0,0,255,396.84a27.26,27.26,0,1,0,0-54.52Z"/><path d="M168,158.07a38.21,38.21,0,0,0-27,65.41,38.21,38.21,0,1,0,54-54A37.14,37.14,0,0,0,168,158.07Z"/><path d="M168,245.14a38.83,38.83,0,1,0,27,11.36A37.06,37.06,0,0,0,168,245.14Z"/><path d="M405.87,266.4c-10.73,0-17.13,6.4-17.13,17.13,0,10.1,6.4,16.12,17.13,16.12s17.14-6,17.14-16.12C423,272.8,416.6,266.4,405.87,266.4Z"/><path d="M405.87,213.6c10.73,0,17.14-6.4,17.14-17.13,0-10.1-6.41-16.12-17.14-16.12s-17.13,6-17.13,16.12C388.74,207.2,395.14,213.6,405.87,213.6Z"/><path d="M341.08,169.21a26.77,26.77,0,0,0-27.26,27.26,28.22,28.22,0,0,0,7.67,19.76,26.8,26.8,0,0,0,39.18,0,28.22,28.22,0,0,0,7.67-19.76,26.75,26.75,0,0,0-27.26-27.26Z"/><path d="M341.08,255.26a25.68,25.68,0,0,0-19.59,8.51h0a28.3,28.3,0,0,0-7.66,19.75,27.26,27.26,0,1,0,54.52,0,28.28,28.28,0,0,0-7.66-19.76A25.69,25.69,0,0,0,341.08,255.26Z"/><path d="M255,158.07a38.21,38.21,0,0,0-27,65.41,38.21,38.21,0,1,0,54-54A37.13,37.13,0,0,0,255,158.07Z"/><path d="M341.08,342.32a26.46,26.46,0,0,0-19.42,7.83h0a28,28,0,1,0,19.42-7.83Z"/><path d="M187.73,350A28.32,28.32,0,0,0,168,342.32a26.5,26.5,0,0,0-19.42,7.83h0A27.26,27.26,0,0,0,168,396.84a28.33,28.33,0,0,0,19.77-7.67,26.8,26.8,0,0,0,0-39.19Z"/><path d="M17.14,266.4C6.41,266.4,0,272.8,0,283.53c0,10.1,6.41,16.12,17.14,16.12s17.13-6,17.13-16.12C34.27,272.8,27.87,266.4,17.14,266.4Z"/><path d="M168,62.77c10.73,0,17.14-6.41,17.14-17.14S178.7,28.5,168,28.5c-10.09,0-16.12,6.4-16.12,17.13S157.88,62.77,168,62.77Z"/><path d="M168,137.68A28.32,28.32,0,0,0,187.73,130h0a26.8,26.8,0,0,0,0-39.19A28.32,28.32,0,0,0,168,83.16a26.77,26.77,0,0,0-27.26,27.26A26.77,26.77,0,0,0,168,137.68Z"/><path d="M168,417.23c-10.09,0-16.12,6.41-16.12,17.14s6,17.13,16.12,17.13c10.73,0,17.14-6.4,17.14-17.13S178.7,417.23,168,417.23Z"/><path d="M235.27,130A28.26,28.26,0,0,0,255,137.68a26.75,26.75,0,0,0,27.25-27.26A26.75,26.75,0,0,0,255,83.16a28.25,28.25,0,0,0-19.76,7.66,26.8,26.8,0,0,0,0,39.19Z"/><path d="M255,62.77c10.09,0,16.12-6.41,16.12-17.14S265.13,28.5,255,28.5c-10.73,0-17.14,6.4-17.14,17.13S244.31,62.77,255,62.77Z"/><path d="M17.14,180.35c-10.73,0-17.14,6-17.14,16.12C0,207.2,6.41,213.6,17.14,213.6s17.13-6.4,17.13-17.13C34.27,186.37,27.87,180.35,17.14,180.35Z"/><path d="M81.92,83.16a26.75,26.75,0,0,0-27.25,27.26,26.75,26.75,0,0,0,27.25,27.26,26.75,26.75,0,0,0,27.26-27.26A26.75,26.75,0,0,0,81.92,83.16Z"/><path d="M81.92,169.21A26.5,26.5,0,0,0,62.5,177h0a26.48,26.48,0,0,0-7.83,19.43,28.21,28.21,0,0,0,7.66,19.75,25.59,25.59,0,0,0,19.59,8.52,25.63,25.63,0,0,0,19.6-8.51,28.25,28.25,0,0,0,7.66-19.76,26.75,26.75,0,0,0-27.26-27.26Z"/><path d="M81.92,342.32a27.26,27.26,0,1,0,0,54.52,27.26,27.26,0,1,0,0-54.52Z"/><path d="M81.92,255.26a25.68,25.68,0,0,0-19.59,8.51h0a28.28,28.28,0,0,0-7.66,19.76,26.75,26.75,0,0,0,27.25,27.26,26.75,26.75,0,0,0,27.26-27.26,28.3,28.3,0,0,0-7.66-19.76A25.69,25.69,0,0,0,81.92,255.26Z"/></svg>