<svg id="ds44-icons" xmlns="http://www.w3.org/2000/svg" width="423.00879" height="480" viewBox="0 0 423.00879 480"><title>data</title><path d="M341.084,83.16162a26.75588,26.75588,0,0,0-27.25976,27.25879,27.261,27.261,0,1,0,54.51855,0A26.75505,26.75505,0,0,0,341.084,83.16162Z"/><path d="M255.03516,245.13526a38.84462,38.84462,0,1,0,27.01464,11.36962A37.07108,37.07108,0,0,0,255.03516,245.13526Z"/><path d="M255.03516,417.23291c-10.7295,0-17.13575,6.40576-17.13575,17.13574s6.40625,17.13575,17.13575,17.13575c10.0957,0,16.123-6.40577,16.123-17.13575S265.13086,417.23291,255.03516,417.23291Z"/><path d="M255.03516,342.31983a28.24525,28.24525,0,0,0-19.76368,7.668,26.81079,26.81079,0,0,0,0,39.18262,28.24526,28.24526,0,0,0,19.76368,7.668,27.261,27.261,0,1,0,0-54.51855Z"/><path d="M167.97363,158.07471a38.2129,38.2129,0,0,0-27.02539,65.40918,38.213,38.213,0,1,0,54.04-54.04A37.12187,37.12187,0,0,0,167.97363,158.07471Z"/><path d="M167.97363,245.13526a38.84461,38.84461,0,1,0,27.01465,11.36962A37.06894,37.06894,0,0,0,167.97363,245.13526Z"/><path d="M405.87305,266.395c-10.7295,0-17.13575,6.40576-17.13575,17.13574,0,10.09571,6.40625,16.12305,17.13575,16.12305s17.13574-6.02734,17.13574-16.12305C423.00879,272.80078,416.60254,266.395,405.87305,266.395Z"/><path d="M405.87305,213.605c10.72949,0,17.13574-6.40576,17.13574-17.13574,0-10.0957-6.40625-16.12305-17.13574-16.12305s-17.13575,6.02735-17.13575,16.12305C388.7373,207.19922,395.14355,213.605,405.87305,213.605Z"/><path d="M341.084,169.21045a26.75587,26.75587,0,0,0-27.25976,27.25879,28.24217,28.24217,0,0,0,7.66113,19.75586,26.81026,26.81026,0,0,0,39.18945.00781,28.246,28.246,0,0,0,7.668-19.76367A26.75505,26.75505,0,0,0,341.084,169.21045Z"/><path d="M341.084,255.25928a25.691,25.691,0,0,0-19.59179,8.50781l-.00781.0083a28.30326,28.30326,0,0,0-7.66016,19.75537,27.261,27.261,0,1,0,54.51855,0,28.30713,28.30713,0,0,0-7.667-19.76318A25.6885,25.6885,0,0,0,341.084,255.25928Z"/><path d="M255.03516,158.07471a38.2129,38.2129,0,0,0-27.02637,65.40918,38.21334,38.21334,0,1,0,54.041-54.04A37.12185,37.12185,0,0,0,255.03516,158.07471Z"/><path d="M341.084,342.31983a26.492,26.492,0,0,0-19.42773,7.83154l-.001.00049a28.013,28.013,0,1,0,19.42871-7.832Z"/><path d="M187.72949,349.98047a28.30063,28.30063,0,0,0-19.75586-7.66064,26.49007,26.49007,0,0,0-19.42675,7.83154l-.001.00049a27.261,27.261,0,0,0,19.42773,46.68652,28.30878,28.30878,0,0,0,19.76367-7.66748,26.81137,26.81137,0,0,0-.00781-39.19043Z"/><path d="M17.13574,266.395C6.40625,266.395,0,272.80078,0,283.53076c0,10.09571,6.40625,16.12305,17.13574,16.12305s17.13574-6.02734,17.13574-16.12305C34.27148,272.80078,27.86523,266.395,17.13574,266.395Z"/><path d="M167.97363,62.76611c10.7295,0,17.13575-6.40527,17.13575-17.13476,0-10.73-6.40625-17.13574-17.13575-17.13574-10.0957,0-16.123,6.40576-16.123,17.13574C151.85059,56.36084,157.87793,62.76611,167.97363,62.76611Z"/><path d="M167.97363,137.6792A28.30706,28.30706,0,0,0,187.72949,130.02l.00781-.00781a26.8108,26.8108,0,0,0-.00781-39.18994,28.30064,28.30064,0,0,0-19.75586-7.66065,26.75509,26.75509,0,0,0-27.25879,27.25879,26.7543,26.7543,0,0,0,27.25879,27.25879Z"/><path d="M167.97363,417.23291c-10.0957,0-16.123,6.40576-16.123,17.13574s6.02734,17.13575,16.123,17.13575c10.7295,0,17.13575-6.40577,17.13575-17.13575S178.70313,417.23291,167.97363,417.23291Z"/><path d="M235.27148,130.0127a28.25164,28.25164,0,0,0,19.76368,7.6665A26.7543,26.7543,0,0,0,282.294,110.42041a26.75507,26.75507,0,0,0-27.25879-27.25879,28.24051,28.24051,0,0,0-19.75586,7.66016,26.81194,26.81194,0,0,0-.00782,39.19092Z"/><path d="M255.03516,62.76611c10.0957,0,16.123-6.40527,16.123-17.13476,0-10.73-6.02734-17.13574-16.123-17.13574-10.7295,0-17.13575,6.40576-17.13575,17.13574C237.89941,56.36084,244.30566,62.76611,255.03516,62.76611Z"/><path d="M17.13574,180.34619C6.40625,180.34619,0,186.37354,0,196.46924c0,10.73,6.40625,17.13574,17.13574,17.13574s17.13574-6.40576,17.13574-17.13574C34.27148,186.37354,27.86523,180.34619,17.13574,180.34619Z"/><path d="M81.9248,83.16162A26.75507,26.75507,0,0,0,54.666,110.42041,26.75429,26.75429,0,0,0,81.9248,137.6792a26.75352,26.75352,0,0,0,27.25977-27.25879A26.75588,26.75588,0,0,0,81.9248,83.16162Z"/><path d="M81.9248,169.21045a26.48967,26.48967,0,0,0-19.42675,7.83106l-.001.001a26.49046,26.49046,0,0,0-7.831,19.42676,28.23933,28.23933,0,0,0,7.66015,19.75537,25.643,25.643,0,0,0,19.59863,8.51611,25.64317,25.64317,0,0,0,19.59278-8.5083,28.25173,28.25173,0,0,0,7.667-19.76318A26.75587,26.75587,0,0,0,81.9248,169.21045Z"/><path d="M81.9248,342.31983a27.261,27.261,0,1,0,0,54.51855,27.261,27.261,0,1,0,0-54.51855Z"/><path d="M81.9248,255.25928a25.68848,25.68848,0,0,0-19.59179,8.5083l-.00586.00732A28.29757,28.29757,0,0,0,54.666,283.53076,26.75505,26.75505,0,0,0,81.9248,310.78955a26.75587,26.75587,0,0,0,27.25977-27.25879,28.31,28.31,0,0,0-7.668-19.76367A25.691,25.691,0,0,0,81.9248,255.25928Z"/></svg>