<svg id="ds44-icons" xmlns="http://www.w3.org/2000/svg" viewBox="0 0 344.72 480"><title>date</title><g id="date"><path d="M295.47,95.34H277V58.41a18.47,18.47,0,1,0-36.94,0V95.34H104.65V58.41a18.47,18.47,0,1,0-36.94,0V95.34H49.25A49.3,49.3,0,0,0,0,144.59V390.81a49.31,49.31,0,0,0,49.25,49.25H295.47a49.31,49.31,0,0,0,49.25-49.25V144.59A49.3,49.3,0,0,0,295.47,95.34ZM49.25,132.28H295.47a12.32,12.32,0,0,1,12.32,12.31v43.09H36.93V144.59A12.32,12.32,0,0,1,49.25,132.28ZM295.47,403.13H49.25a12.33,12.33,0,0,1-12.32-12.32V224.61H307.79v166.2A12.33,12.33,0,0,1,295.47,403.13Z"/><path d="M252.38,267.7H190.83a18.47,18.47,0,0,0-18.47,18.47v61.55a18.47,18.47,0,0,0,18.47,18.47h61.55a18.47,18.47,0,0,0,18.47-18.47V286.17A18.47,18.47,0,0,0,252.38,267.7Zm-18.46,61.56H209.29V304.63h24.63Z"/></g></svg>