<svg id="ds44-icons" xmlns="http://www.w3.org/2000/svg" width="344.71994" height="480" viewBox="0 0 344.71994 480"><title>date</title><g id="date"><path d="M295.47423,95.34074H277.00709V58.40646a18.46714,18.46714,0,0,0-36.93428,0V95.34074H104.64712V58.40646a18.46714,18.46714,0,0,0-36.93428,0V95.34074H49.24571A49.29441,49.29441,0,0,0,0,144.58645V390.815a49.30213,49.30213,0,0,0,49.24571,49.24571H295.47423A49.30213,49.30213,0,0,0,344.71994,390.815V144.58645A49.29441,49.29441,0,0,0,295.47423,95.34074ZM49.24571,132.275H295.47423a12.31974,12.31974,0,0,1,12.31143,12.31143v43.09H36.93428v-43.09A12.31974,12.31974,0,0,1,49.24571,132.275ZM295.47423,403.1264H49.24571A12.32746,12.32746,0,0,1,36.93428,390.815V224.61072H307.78566V390.815A12.32746,12.32746,0,0,1,295.47423,403.1264Z"/><path d="M252.38424,267.70071H190.82711A18.4719,18.4719,0,0,0,172.36,286.16785V347.725a18.4719,18.4719,0,0,0,18.46714,18.46714h61.55713A18.4719,18.4719,0,0,0,270.85138,347.725V286.16785A18.4719,18.4719,0,0,0,252.38424,267.70071ZM233.9171,329.25784H209.29425V304.635H233.9171Z"/></g></svg>