<svg id="ds44-icons" xmlns="http://www.w3.org/2000/svg" viewBox="0 0 480 480"><title>date</title><g id="date"><path d="M363.11,95.34H344.65V58.41a18.47,18.47,0,1,0-36.94,0V95.34H172.29V58.41a18.47,18.47,0,0,0-36.94,0V95.34H116.89a49.3,49.3,0,0,0-49.25,49.25V390.81a49.31,49.31,0,0,0,49.25,49.25H363.11a49.31,49.31,0,0,0,49.25-49.25V144.59A49.3,49.3,0,0,0,363.11,95.34ZM116.89,132.28H363.11a12.32,12.32,0,0,1,12.32,12.31v43.09H104.57V144.59A12.32,12.32,0,0,1,116.89,132.28ZM363.11,403.13H116.89a12.33,12.33,0,0,1-12.32-12.32V224.61H375.43v166.2A12.33,12.33,0,0,1,363.11,403.13Z"/><path d="M320,267.7H258.47A18.47,18.47,0,0,0,240,286.17v61.55a18.47,18.47,0,0,0,18.47,18.47H320a18.47,18.47,0,0,0,18.47-18.47V286.17A18.47,18.47,0,0,0,320,267.7Zm-18.46,61.56H276.93V304.63h24.63Z"/></g></svg>