<svg xmlns="http://www.w3.org/2000/svg" viewBox="0 0 20 20"><defs><style>.cls-1{fill:none;}</style></defs><title>date</title><g id="Calque_2" data-name="Calque 2"><g id="sources_non_vectorisés_" data-name="sources (non vectorisés)"><g id="date"><path d="M15,3.5h-.75V2a.75.75,0,0,0-1.5,0V3.5H7.25V2a.75.75,0,0,0-1.5,0V3.5H5a2,2,0,0,0-2,2v10a2,2,0,0,0,2,2H15a2,2,0,0,0,2-2V5.5A2,2,0,0,0,15,3.5ZM5,5H15a.5.5,0,0,1,.5.5V7.25H4.5V5.5A.5.5,0,0,1,5,5ZM15,16H5a.5.5,0,0,1-.5-.5V8.75h11V15.5A.5.5,0,0,1,15,16Z"/><path d="M13.25,10.5h-2.5a.76.76,0,0,0-.75.75v2.5a.76.76,0,0,0,.75.75h2.5a.76.76,0,0,0,.75-.75v-2.5A.76.76,0,0,0,13.25,10.5ZM12.5,13h-1V12h1Z"/><g id="Rectangle_910" data-name="Rectangle 910"><rect class="cls-1" width="20" height="20"/></g></g></g></g></svg>