<?xml version="1.0" encoding="utf-8"?>
<!-- Generator: Adobe Illustrator 23.1.1, SVG Export Plug-In . SVG Version: 6.00 Build 0)  -->
<svg version="1.1" id="Calque_1" xmlns="http://www.w3.org/2000/svg" xmlns:xlink="http://www.w3.org/1999/xlink" x="0px" y="0px"
	 viewBox="0 0 480 480" style="enable-background:new 0 0 480 480;" xml:space="preserve">
<title>date</title>
<g>
	<g id="ds44-icons">
		<g id="date">
			<g>
				<path d="M363.1,95.3h-18.5V58.4c0-10.2-8.3-18.5-18.5-18.5c-10.2,0-18.5,8.3-18.5,18.5v36.9H172.3V58.4
					c0-10.2-8.3-18.5-18.5-18.5c-10.2,0-18.5,8.3-18.5,18.5v36.9h-18.5c-27.2,0-49.2,22.1-49.2,49.2v246.2
					c0,27.2,22.1,49.2,49.2,49.2h246.2c27.2,0,49.2-22.1,49.2-49.2V144.6C412.3,117.4,390.3,95.4,363.1,95.3z M116.9,132.3h246.2
					c6.8,0,12.3,5.5,12.3,12.3v43.1H104.6v-43.1C104.6,137.8,110.1,132.3,116.9,132.3z M363.1,403.1H116.9
					c-6.8,0-12.3-5.5-12.3-12.3V224.6h270.9v166.2C375.4,397.6,369.9,403.1,363.1,403.1z"/>
				<path d="M320,267.7h-61.6c-10.2,0-18.5,8.3-18.5,18.5v61.6c0,10.2,8.3,18.5,18.5,18.5H320c10.2,0,18.5-8.3,18.5-18.5v-61.6
					C338.5,276,330.2,267.7,320,267.7z M301.6,329.3h-24.6v-24.6h24.6V329.3z"/>
			</g>
		</g>
	</g>
</g>
</svg>
