<svg id="ds44-icons" xmlns="http://www.w3.org/2000/svg" width="280" height="480" viewBox="0 0 280 480"><path d="M272.21918,224.01675c.02545-.24353.02655-.49359.04236-.73987.024-.37048.05469-.74023.05615-1.11248.00013-.02533.00379-.04969.00379-.075,0-.24377-.027-.48065-.03644-.7221-.01355-.343-.019-.68561-.05194-1.02863-.03467-.36615-.09638-.72339-.15222-1.08294-.03223-.20636-.04767-.41364-.087-.61945-.00537-.028-.01459-.05469-.02008-.08264-.08282-.42475-.193-.83869-.30456-1.25238-.04456-.165-.07868-.33338-.12769-.49671-.12927-.431-.28461-.84954-.444-1.2666-.05451-.1427-.09955-.28918-.15753-.4303-.16645-.40454-.35706-.79528-.55091-1.18475-.07348-.14789-.13757-.30041-.215-.44623-.19007-.35736-.40247-.69964-.61493-1.04242-.10382-.1679-.19812-.34137-.30725-.5058-.20349-.30584-.42743-.59564-.64844-.8883-.13977-.18543-.27-.37732-.41681-.55743-.21722-.26624-.45361-.5149-.68518-.76838-.17047-.18676-.33148-.381-.50983-.56091-.25671-.25885-.53241-.49744-.80407-.74072-.17047-.15259-.33081-.31464-.50733-.46112-.40173-.3338-.82257-.64453-1.25219-.94367-.056-.03894-.10621-.08429-.16272-.12262l-.0138-.00934-.0617-.04193L182.007,151.05716a18.37507,18.37507,0,1,0-20.6377,30.4082l43.19128,29.31336a176.534,176.534,0,0,0-89.84167,61.41674V69.61966l38.93457,38.93457A18.37511,18.37511,0,1,0,179.63984,82.5679L109.3371,12.26517q-.63528-.63529-1.33172-1.20606c-.11548-.09485-.24024-.17572-.35779-.26758-.35529-.278-.71234-.55359-1.08789-.80529-.10724-.07172-.22132-.13111-.33-.20051-.39746-.25451-.79858-.50366-1.21618-.7276-.077-.04126-.15839-.07348-.236-.11364-.45465-.23548-.91565-.45984-1.39148-.65753-.051-.02112-.10412-.0362-.15527-.05683-.50159-.20306-1.011-.39032-1.53345-.54919-.05828-.01776-.11871-.02832-.17718-.04554-.51251-.15032-1.031-.28643-1.561-.39221-.14038-.0282-.28442-.04-.42565-.06494-.44861-.07867-.8974-.15692-1.35663-.20239q-.88541-.08882-1.784-.09c-.01654-.00006-.03247-.0025-.049-.0025h-.001q-.92293,0-1.83416.09265c-.44874.0445-.887.12164-1.32557.19782-.15167.02649-.30615.03949-.45691.06976-.527.10522-1.04242.24091-1.55212.39014-.06122.01794-.12445.02911-.18549.04773-.51971.15814-1.02636.34454-1.52539.54638-.05377.02173-.10986.03754-.16345.05982-.47534.19751-.93591.42175-1.39007.657-.07782.04022-.15931.07263-.23658.11395-.41705.22364-.8175.47266-1.21447.72681-.1092.0697-.22394.12939-.33173.20148-.37549.25171-.73248.52734-1.08765.80536-.11755.09179-.24224.1726-.35772.26745q-.69444.571-1.33136,1.206l-.00049.00042L13.05927,82.56888a18.37511,18.37511,0,0,0,25.98828,25.98437L77.96894,69.62491V454.74173a18.375,18.375,0,0,0,36.75,0V379.69192c0-63.48309,42.70911-117.17584,100.9024-133.86132L182.903,294.02981a18.37509,18.37509,0,1,0,30.40625,20.64063L269.1496,232.4097l.0047-.00769a18.26476,18.26476,0,0,0,2.98865-7.88544C272.16529,224.34946,272.20148,224.1846,272.21918,224.01675Z"/></svg>