<svg xmlns="http://www.w3.org/2000/svg" viewBox="0 0 21.21 21.21"><defs><style>.cls-1{fill:none;}</style></defs><title>directions</title><g id="Calque_2" data-name="Calque 2"><g id="sources_non_vectorisés_" data-name="sources (non vectorisés)"><g id="directions"><path d="M15.4,10.54a.74.74,0,0,0,0-.14h0a.61.61,0,0,0,0-.13.8.8,0,0,0,0-.15.4.4,0,0,0-.1-.15.73.73,0,0,0,0-.09h0L12,6.48a.75.75,0,0,0-1.06,0,.75.75,0,0,0,0,1.06l2,2.11h-4a1.87,1.87,0,0,0-2.07,1.95v1.73a.75.75,0,1,0,1.5,0V11.58c0-.23,0-.45.57-.45h3.86l-1.86,1.74a.75.75,0,0,0,0,1.06.73.73,0,0,0,.54.24A.79.79,0,0,0,12,14l3.24-3h0l.1-.15a.47.47,0,0,0,.06-.09A.58.58,0,0,0,15.4,10.54Z"/><path d="M10.61,20a3,3,0,0,1-2.12-.88L2.12,12.73a3,3,0,0,1,0-4.24L8.49,2.12a3.08,3.08,0,0,1,4.24,0l6.36,6.37a3,3,0,0,1,0,4.24l-6.36,6.36A3,3,0,0,1,10.61,20Zm0-17.23a1.5,1.5,0,0,0-1.06.44L3.18,9.55a1.51,1.51,0,0,0,0,2.12L9.55,18a1.53,1.53,0,0,0,2.12,0L18,11.67a1.52,1.52,0,0,0,.44-1.06A1.5,1.5,0,0,0,18,9.55L11.67,3.18A1.52,1.52,0,0,0,10.61,2.74Z"/><g id="Rectangle_940" data-name="Rectangle 940"><rect class="cls-1" width="21.21" height="21.21"/></g></g></g></g></svg>