<?xml version="1.0" encoding="utf-8"?>
<!-- Generator: Adobe Illustrator 23.1.1, SVG Export Plug-In . SVG Version: 6.00 Build 0)  -->
<svg version="1.1" id="Calque_1" xmlns="http://www.w3.org/2000/svg" xmlns:xlink="http://www.w3.org/1999/xlink" x="0px" y="0px"
	 viewBox="0 0 480 480" style="enable-background:new 0 0 480 480;" xml:space="preserve">
<title>directions</title>
<g>
	<g id="ds44-icons">
		<g id="directions">
			<path d="M358.1,238.1c0.4-1.2,0.7-2.3,0.8-3.6c0-0.1,0-0.2,0-0.3c0-0.1,0-0.1,0-0.2c-0.1-1-0.3-2.1-0.6-3.1
				c-0.1-1.3-0.4-2.6-0.8-3.8c-0.6-1.4-1.5-2.6-2.4-3.8c-0.4-0.7-0.8-1.4-1.3-2.1l-0.3-0.3l0,0l-79.6-82.9
				c-7.1-7.4-18.7-7.6-26.1-0.6c-7.4,7.1-7.6,18.7-0.6,26.1c0,0,0,0,0,0l49.8,52h-98.3c-31.6,0-51.2,18.4-51.2,48v42.7
				c0,10.2,8.3,18.5,18.5,18.5c10.2,0,18.5-8.3,18.5-18.5v-42.7c0-5.7,0-11.1,14.2-11.1h95l-45.8,43c-7.4,7-7.8,18.6-0.9,26.1
				c7,7.4,18.6,7.8,26.1,0.9c0,0,0,0,0,0l79.8-74.9c0.1-0.1,0.1-0.2,0.2-0.2c1-1.1,1.9-2.4,2.6-3.7c0.5-0.7,1-1.4,1.5-2.2
				C357.7,240.3,357.9,239.2,358.1,238.1z"/>
			<path d="M240,470.2c-19.6,0-38.4-7.7-52.2-21.6L31,291.9C2.3,263,2.3,216.3,31,187.4L187.7,30.7c27.9-27.9,76.6-27.9,104.5,0
				l156.7,156.7c28.8,28.8,28.9,75.6,0,104.4c0,0,0,0,0,0L292.2,448.6C278.4,462.5,259.6,470.3,240,470.2z M240,46
				c-9.8,0-19.2,3.9-26.1,10.8L57.2,213.5c-14.4,14.4-14.4,37.8,0,52.2l156.7,156.7c14,14,38.3,13.9,52.2,0l156.7-156.7
				c14.4-14.4,14.4-37.8,0-52.2c0,0,0,0,0,0L266.1,56.8C259.2,49.9,249.8,46,240,46L240,46z"/>
		</g>
	</g>
</g>
</svg>
