<svg id="ds44-icons" xmlns="http://www.w3.org/2000/svg" width="497" height="480" viewBox="0 0 497 480"><path d="M431.48793,441.45388H65.3307c-17.73145,0-33.42139-6.58155-45.37451-19.03272-11.92237-12.418-17.96729-27.686-17.96729-45.37939V102.95827c0-17.69336,6.04492-32.96143,17.96729-45.37988C31.90931,45.1277,47.59925,38.54616,65.3307,38.54616h137.041A18.377,18.377,0,0,1,215.36488,43.928l40.65625,40.65527h175.4668c17.73144,0,33.42187,6.58154,45.375,19.0332,11.92187,12.418,17.96679,27.686,17.96679,45.3794v228.0459c0,17.69336-6.04492,32.96142-17.96777,45.37988C464.9098,434.87233,449.22035,441.45388,431.48793,441.45388ZM65.3307,75.29616c-7.80469,0-13.79883,2.457-18.86377,7.73291-5.27246,5.49219-7.728,11.82471-7.728,19.9292v274.0835c0,8.10449,2.45557,14.437,7.728,19.92871,5.06494,5.27636,11.05908,7.7334,18.86377,7.7334H431.48793c7.80468,0,13.79882-2.457,18.86328-7.73243,5.27246-5.49267,7.72851-11.82519,7.72851-19.92968V148.99587c0-8.10449-2.45605-14.437-7.72754-19.92871-5.06543-5.27686-11.05957-7.73389-18.86425-7.73389H248.4098a18.37693,18.37693,0,0,1-12.99316-5.38184L194.76039,75.29616Z"/></svg>