<svg id="ds44-icons" xmlns="http://www.w3.org/2000/svg" width="461.09538" height="480" viewBox="0 0 461.09538 480"><g id="directions"><path d="M348.63338,238.07784a18.14222,18.14222,0,0,0,.81756-3.56027c0-.08867-.04809-.16982-.04509-.25849.003-.07815.04509-.14278.04509-.22243a17.42255,17.42255,0,0,0-.61918-3.06282,18.49248,18.49248,0,0,0-.77247-3.82779,18.17362,18.17362,0,0,0-2.41059-3.78119,17.76072,17.76072,0,0,0-1.34355-2.10852l-.26451-.27352-.003-.0045L264.47324,138.058a18.46063,18.46063,0,1,0-26.64269,25.56064l49.83482,51.95085H189.35431c-31.57208,0-51.16937,18.395-51.16937,48.01938V306.2701a18.46714,18.46714,0,0,0,36.93428,0V263.58889c0-5.69885,0-11.0851,14.23509-11.0851H284.317l-45.78913,42.96977a18.45777,18.45777,0,1,0,25.248,26.93124l79.8319-74.90252c.06913-.06463.09318-.15931.16231-.22543a18.34389,18.34389,0,0,0,2.633-3.688,18.48116,18.48116,0,0,0,1.46679-2.17314A18.88922,18.88922,0,0,0,348.63338,238.07784Z"/><path d="M230.52064,470.21405a73.41374,73.41374,0,0,1-52.22738-21.64117L21.58708,291.86669a73.97251,73.97251,0,0,1,0-104.45475L178.29326,30.70575c27.89307-27.9051,76.56168-27.881,104.45476,0L439.4542,187.41194a73.84162,73.84162,0,0,1,0,104.45475L282.748,448.57288A73.37245,73.37245,0,0,1,230.52064,470.21405Zm0-424.20317A36.69536,36.69536,0,0,0,204.407,56.81944L47.70077,213.52562a37.00815,37.00815,0,0,0,0,52.22738L204.407,422.45919c13.99463,13.97058,38.32893,13.92249,52.22738,0L413.34051,265.753a36.92081,36.92081,0,0,0,0-52.22738L256.63433,56.81944A36.65414,36.65414,0,0,0,230.52064,46.01088Z"/></g></svg>