<svg id="ds44-icons" xmlns="http://www.w3.org/2000/svg" viewBox="0 0 480 480"><title>directions</title><g id="directions"><path d="M358.09,238.08a18.17,18.17,0,0,0,.81-3.56c0-.09,0-.17,0-.26s0-.14,0-.22a17.58,17.58,0,0,0-.62-3.07,18.1,18.1,0,0,0-.77-3.82,17.89,17.89,0,0,0-2.41-3.79,17,17,0,0,0-1.34-2.1l-.27-.28h0l-79.56-82.92a18.46,18.46,0,1,0-26.65,25.56l49.84,51.95H198.81c-31.58,0-51.17,18.39-51.17,48v42.68a18.47,18.47,0,1,0,36.93,0V263.59c0-5.7,0-11.09,14.24-11.09h95l-45.79,43a18.46,18.46,0,1,0,25.25,26.93l79.83-74.9c.07-.06.09-.16.16-.22a18.34,18.34,0,0,0,2.64-3.69,19.15,19.15,0,0,0,1.46-2.17A19.32,19.32,0,0,0,358.09,238.08Z"/><path d="M240,470.21a73.38,73.38,0,0,1-52.22-21.64L31,291.87a74,74,0,0,1,0-104.46L187.75,30.71c27.89-27.91,76.56-27.89,104.45,0l156.71,156.7a73.85,73.85,0,0,1,0,104.46L292.2,448.57A73.37,73.37,0,0,1,240,470.21ZM240,46a36.69,36.69,0,0,0-26.11,10.81L57.15,213.53a37,37,0,0,0,0,52.22L213.86,422.46c14,14,38.33,13.92,52.23,0l156.7-156.71a36.91,36.91,0,0,0,0-52.22L266.09,56.82A36.68,36.68,0,0,0,240,46Z"/></g></svg>