<svg id="ds44-icons" xmlns="http://www.w3.org/2000/svg" viewBox="0 0 461.1 480"><title>directions</title><g id="directions"><path d="M348.63,238.08a18.2,18.2,0,0,0,.82-3.56c0-.09-.05-.17,0-.26s0-.14,0-.22a17.58,17.58,0,0,0-.62-3.07,18.1,18.1,0,0,0-.77-3.82,17.89,17.89,0,0,0-2.41-3.79,18.24,18.24,0,0,0-1.34-2.1L344,221h0l-79.57-82.92a18.46,18.46,0,1,0-26.64,25.56l49.84,51.95H189.35c-31.57,0-51.17,18.39-51.17,48v42.68a18.47,18.47,0,1,0,36.94,0V263.59c0-5.7,0-11.09,14.23-11.09h95l-45.79,43a18.46,18.46,0,1,0,25.25,26.93l79.83-74.9c.07-.06.09-.16.16-.22a18.3,18.3,0,0,0,2.63-3.69,18,18,0,0,0,1.47-2.17A19.3,19.3,0,0,0,348.63,238.08Z"/><path d="M230.52,470.21a73.41,73.41,0,0,1-52.23-21.64L21.59,291.87a74,74,0,0,1,0-104.46l156.7-156.7c27.9-27.91,76.56-27.89,104.46,0l156.7,156.7a73.83,73.83,0,0,1,0,104.46l-156.7,156.7A73.37,73.37,0,0,1,230.52,470.21Zm0-424.2a36.69,36.69,0,0,0-26.11,10.81L47.7,213.53a37,37,0,0,0,0,52.22L204.41,422.46c14,14,38.33,13.92,52.22,0L413.34,265.75a36.91,36.91,0,0,0,0-52.22L256.63,56.82A36.66,36.66,0,0,0,230.52,46Z"/></g></svg>