<svg id="ds44-icons" xmlns="http://www.w3.org/2000/svg" viewBox="0 0 480 480"><title>discussion</title><g id="discussion"><g id="Groupe_2243" data-name="Groupe 2243"><g id="Tracé_1096" data-name="Tracé 1096"><path d="M30.71,464.73a18.17,18.17,0,0,1-7.41-1.57,18.42,18.42,0,0,1-11.06-16.9V107.61a92.44,92.44,0,0,1,92.33-92.34H375.43a92.44,92.44,0,0,1,92.33,92.34V280a92.45,92.45,0,0,1-92.33,92.33H138.29L43.21,459.84A18.43,18.43,0,0,1,30.71,464.73ZM104.57,52.21a55.47,55.47,0,0,0-55.4,55.4V404.15l69.4-63.91a18.38,18.38,0,0,1,12.5-4.88H375.43a55.48,55.48,0,0,0,55.4-55.4V107.61a55.47,55.47,0,0,0-55.4-55.4Z"/></g><g id="Groupe_2242" data-name="Groupe 2242"><g id="Ellipse_30" data-name="Ellipse 30"><circle cx="146.87" cy="193.79" r="29.35"/></g><g id="Ellipse_31" data-name="Ellipse 31"><circle cx="240.02" cy="193.79" r="29.35"/></g><g id="Ellipse_32" data-name="Ellipse 32"><circle cx="333.15" cy="193.79" r="29.35"/></g></g></g></g></svg>