<svg id="ds44-icons" xmlns="http://www.w3.org/2000/svg" width="455.52277" height="480" viewBox="0 0 455.52277 480"><g id="discussion"><g id="Groupe_2243" data-name="Groupe 2243"><g id="Tracé_1096" data-name="Tracé 1096"><path d="M18.46714,464.72561a18.21309,18.21309,0,0,1-7.40609-1.563A18.42074,18.42074,0,0,1,0,446.25847V107.61009a92.44439,92.44439,0,0,1,92.3357-92.3357H363.18708a92.44438,92.44438,0,0,1,92.33569,92.3357V279.958a92.45211,92.45211,0,0,1-92.33569,92.3357H126.04785L30.97093,459.84432A18.4384,18.4384,0,0,1,18.46714,464.72561ZM92.3357,52.20867a55.46973,55.46973,0,0,0-55.40142,55.40142V404.15436l69.39605-63.91362a18.40071,18.40071,0,0,1,12.50379-4.88129h244.353A55.47746,55.47746,0,0,0,418.5885,279.958V107.61009a55.46973,55.46973,0,0,0-55.40142-55.40142Z"/></g><g id="Groupe_2242" data-name="Groupe 2242"><g id="Ellipse_30" data-name="Ellipse 30"><circle cx="134.63509" cy="193.78767" r="29.35044"/></g><g id="Ellipse_31" data-name="Ellipse 31"><circle cx="227.78334" cy="193.78767" r="29.35044"/></g><g id="Ellipse_32" data-name="Ellipse 32"><circle cx="320.90697" cy="193.78767" r="29.35044"/></g></g></g></g></svg>