<?xml version="1.0" encoding="utf-8"?>
<!-- Generator: Adobe Illustrator 23.1.1, SVG Export Plug-In . SVG Version: 6.00 Build 0)  -->
<svg version="1.1" id="Calque_1" xmlns="http://www.w3.org/2000/svg" xmlns:xlink="http://www.w3.org/1999/xlink" x="0px" y="0px"
	 viewBox="0 0 480 480" style="enable-background:new 0 0 480 480;" xml:space="preserve">
<title>discussion</title>
<g>
	<g id="ds44-icons">
		<g id="discussion">
			<g id="Groupe_2243">
				<g id="Tracé_1096">
					<path d="M30.7,464.7c-2.6,0-5.1-0.5-7.4-1.6c-6.7-2.9-11.1-9.6-11.1-16.9V107.6c0.1-51,41.4-92.3,92.3-92.3h270.9
						c51,0.1,92.3,41.4,92.3,92.3V280c-0.1,51-41.4,92.3-92.3,92.3H138.3l-95.1,87.6C39.8,463,35.3,464.7,30.7,464.7z M104.6,52.2
						C74,52.2,49.2,77,49.2,107.6v296.5l69.4-63.9c3.4-3.1,7.9-4.9,12.5-4.9h244.4c30.6,0,55.4-24.8,55.4-55.4V107.6
						c0-30.6-24.8-55.4-55.4-55.4H104.6z"/>
				</g>
				<g id="Groupe_2242">
					<g id="Ellipse_30">
						<circle cx="146.9" cy="193.8" r="29.4"/>
					</g>
					<g id="Ellipse_31">
						<ellipse transform="matrix(0.1602 -0.9871 0.9871 0.1602 10.2893 399.669)" cx="240" cy="193.8" rx="29.4" ry="29.4"/>
					</g>
					<g id="Ellipse_32">
						<circle cx="333.1" cy="193.8" r="29.4"/>
					</g>
				</g>
			</g>
		</g>
	</g>
</g>
</svg>
