<svg xmlns="http://www.w3.org/2000/svg" viewBox="0 0 20 20"><defs><style>.cls-1{fill:none;}</style></defs><title>discussion</title><g id="Calque_2" data-name="Calque 2"><g id="sources_non_vectorisés_" data-name="sources (non vectorisés)"><g id="discussion"><g id="Groupe_2243" data-name="Groupe 2243"><g id="Tracé_1096" data-name="Tracé 1096"><path d="M1.5,19.1A.8.8,0,0,1,1.2,19a.76.76,0,0,1-.45-.69V4.6A3.75,3.75,0,0,1,4.5.85h11A3.75,3.75,0,0,1,19.25,4.6v7a3.75,3.75,0,0,1-3.75,3.75H5.87L2,18.91A.75.75,0,0,1,1.5,19.1Zm3-16.75A2.25,2.25,0,0,0,2.25,4.6v12l2.82-2.59a.74.74,0,0,1,.51-.2H15.5a2.25,2.25,0,0,0,2.25-2.25v-7A2.25,2.25,0,0,0,15.5,2.35Z"/></g><g id="Groupe_2242" data-name="Groupe 2242"><g id="Ellipse_30" data-name="Ellipse 30"><circle cx="6.22" cy="8.1" r="1.19"/></g><g id="Ellipse_31" data-name="Ellipse 31"><circle cx="10" cy="8.1" r="1.19"/></g><g id="Ellipse_32" data-name="Ellipse 32"><circle cx="13.78" cy="8.1" r="1.19"/></g></g></g><g id="Rectangle_932" data-name="Rectangle 932"><rect class="cls-1" width="20" height="20"/></g></g></g></g></svg>