<svg id="ds44-icons" xmlns="http://www.w3.org/2000/svg" width="466.39146" height="480" viewBox="0 0 466.39146 480"><title>dislike</title><g id="dislike"><path d="M275.1195,453.61746c-.33664,0-.67328,0-1.00992-.024a18.41863,18.41863,0,0,1-13.39349-6.90113L158.1369,318.76887a56.37691,56.37691,0,0,1-16.67573-39.84382V84.37085a59.36637,59.36637,0,0,1,57.301-57.84206l151.38005-.012c23.108-1.71927,45.44647,13.22517,53.14111,36.39325l58.81592,135.5339a60.10873,60.10873,0,0,1,4.29217,21.89366v39.55527A54.77907,54.77907,0,0,1,448.273,300.32577c-9.84674,10.003-24.57476,16.1347-39.66347,16.1347H307.67745l14.77612,73.96474a18.38116,18.38116,0,0,1,.36069,3.24618,46.0785,46.0785,0,0,1-13.73013,33.64l-20.90778,20.89576A18.41559,18.41559,0,0,1,275.1195,453.61746Zm77.57161-390.2626c-.39676,0-.79351.012-1.20229.04809L199.32728,63.451c-11.12116.34867-20.57114,9.79865-20.94385,21.49691l.012,193.95305a19.28011,19.28011,0,0,0,6.07156,13.94654,17.82445,17.82445,0,0,1,1.75534,1.92366l90.412,112.75055,6.45629-6.44427a9.1336,9.1336,0,0,0,2.72919-5.48243L267.05215,301.6002a18.4555,18.4555,0,0,1,18.10645-22.074H408.57344a20.21128,20.21128,0,0,0,14.23509-5.91525c4.47251-4.06373,6.61258-8.84884,6.64865-13.85036V220.42173a22.3939,22.3939,0,0,0-1.52691-7.97117L368.82581,76.08709C366.0365,67.91153,359.71247,63.35486,352.69111,63.35486Zm95.23321,196.45381h0ZM97.07271,297.46433H18.46714A18.4719,18.4719,0,0,1,0,278.99719V45.08009A18.4719,18.4719,0,0,1,18.46714,26.613H97.07271a18.4719,18.4719,0,0,1,18.46714,18.46714v233.9171A18.4719,18.4719,0,0,1,97.07271,297.46433ZM36.93428,260.53005H78.60557V63.54723H36.93428Z"/></g></svg>