<svg id="ds44-icons" xmlns="http://www.w3.org/2000/svg" viewBox="0 0 466.39 480"><title>dislike</title><g id="dislike"><path d="M275.12,453.62c-.34,0-.67,0-1,0a18.42,18.42,0,0,1-13.39-6.9L158.14,318.77a56.36,56.36,0,0,1-16.68-39.84V84.37a59.36,59.36,0,0,1,57.3-57.84H350.14c23.11-1.72,45.45,13.22,53.14,36.39L462.1,198.44a60,60,0,0,1,4.29,21.9v39.55a54.78,54.78,0,0,1-18.12,40.44c-9.84,10-24.57,16.13-39.66,16.13H307.68l14.77,74a17.57,17.57,0,0,1,.36,3.24,46.07,46.07,0,0,1-13.73,33.64l-20.9,20.9A18.46,18.46,0,0,1,275.12,453.62ZM352.69,63.35c-.4,0-.79,0-1.2,0l-152.16.05c-11.12.35-20.57,9.8-21,21.5l0,194a19.28,19.28,0,0,0,6.07,14,17.81,17.81,0,0,1,1.75,1.92l90.41,112.75,6.46-6.44a9.18,9.18,0,0,0,2.73-5.48l-18.77-94a18.46,18.46,0,0,1,18.11-22.07H408.57a20.23,20.23,0,0,0,14.24-5.92c4.47-4.06,6.61-8.85,6.65-13.85V220.42a22.29,22.29,0,0,0-1.53-8L368.83,76.09C366,67.91,359.71,63.35,352.69,63.35Zm95.23,196.46h0ZM97.07,297.46H18.47A18.47,18.47,0,0,1,0,279V45.08A18.47,18.47,0,0,1,18.47,26.61h78.6a18.47,18.47,0,0,1,18.47,18.47V279A18.47,18.47,0,0,1,97.07,297.46ZM36.93,260.53H78.61v-197H36.93Z"/></g></svg>