<svg id="ds44-icons" xmlns="http://www.w3.org/2000/svg" viewBox="0 0 480 480"><title>dislike</title><g id="dislike"><path d="M281.92,453.62c-.33,0-.67,0-1,0a18.42,18.42,0,0,1-13.39-6.9L164.94,318.77a56.39,56.39,0,0,1-16.67-39.84V84.37a59.36,59.36,0,0,1,57.3-57.84H357c23.1-1.72,45.44,13.22,53.14,36.39L468.9,198.44a60.22,60.22,0,0,1,4.3,21.9v39.55a54.85,54.85,0,0,1-18.12,40.44c-9.85,10-24.58,16.13-39.67,16.13H314.48l14.78,74a19.48,19.48,0,0,1,.36,3.24,46.07,46.07,0,0,1-13.73,33.64L295,448.21A18.43,18.43,0,0,1,281.92,453.62ZM359.5,63.35c-.4,0-.8,0-1.21,0l-152.16.05c-11.12.35-20.57,9.8-20.94,21.5v194a19.28,19.28,0,0,0,6.07,14,16.91,16.91,0,0,1,1.76,1.92l90.41,112.75,6.45-6.44a9.07,9.07,0,0,0,2.73-5.48l-18.76-94A18.44,18.44,0,0,1,292,279.53H415.38a20.22,20.22,0,0,0,14.23-5.92c4.48-4.06,6.62-8.85,6.65-13.85V220.42a22.29,22.29,0,0,0-1.53-8L375.63,76.09C372.84,67.91,366.52,63.35,359.5,63.35Zm95.23,196.46h0ZM103.88,297.46H25.27A18.48,18.48,0,0,1,6.8,279V45.08A18.48,18.48,0,0,1,25.27,26.61h78.61a18.47,18.47,0,0,1,18.46,18.47V279A18.47,18.47,0,0,1,103.88,297.46ZM43.74,260.53H85.41v-197H43.74Z"/></g></svg>