<?xml version="1.0" encoding="utf-8"?>
<!-- Generator: Adobe Illustrator 23.1.1, SVG Export Plug-In . SVG Version: 6.00 Build 0)  -->
<svg version="1.1" id="Calque_1" xmlns="http://www.w3.org/2000/svg" xmlns:xlink="http://www.w3.org/1999/xlink" x="0px" y="0px"
	 viewBox="0 0 480 480" style="enable-background:new 0 0 480 480;" xml:space="preserve">
<title>dislike</title>
<g>
	<g id="ds44-icons">
		<g id="dislike">
			<path d="M281.9,453.6c-0.3,0-0.7,0-1,0c-5.2-0.3-10.1-2.8-13.4-6.9L164.9,318.8c-10.6-10.5-16.6-24.9-16.7-39.8V84.4
				c0.8-31.4,25.9-56.8,57.3-57.8l151.4,0c23.1-1.7,45.4,13.2,53.1,36.4l58.8,135.5c2.8,7,4.2,14.4,4.3,21.9v39.6
				c-0.1,15.4-6.7,30.1-18.1,40.4c-9.8,10-24.6,16.1-39.7,16.1H314.5l14.8,74c0.2,1.1,0.3,2.2,0.4,3.2c0.2,12.6-4.7,24.8-13.7,33.6
				L295,448.2C291.5,451.7,286.8,453.6,281.9,453.6z M359.5,63.4c-0.4,0-0.8,0-1.2,0l-152.2,0c-11.1,0.3-20.6,9.8-20.9,21.5l0,194
				c0,5.3,2.2,10.3,6.1,13.9c0.6,0.6,1.2,1.2,1.8,1.9l90.4,112.8l6.5-6.4c1.5-1.5,2.5-3.4,2.7-5.5l-18.8-94
				c-2-10,4.5-19.7,14.5-21.7c1.2-0.2,2.4-0.4,3.6-0.4h123.4c5.3,0,10.5-2.1,14.2-5.9c4.5-4.1,6.6-8.8,6.6-13.9v-39.3
				c0-2.7-0.5-5.4-1.5-8L375.6,76.1C372.8,67.9,366.5,63.4,359.5,63.4z M454.7,259.8L454.7,259.8z M103.9,297.5H25.3
				c-10.2,0-18.5-8.3-18.5-18.5V45.1c0-10.2,8.3-18.5,18.5-18.5h78.6c10.2,0,18.5,8.3,18.5,18.5V279
				C122.3,289.2,114.1,297.5,103.9,297.5z M43.7,260.5h41.7v-197H43.7V260.5z"/>
		</g>
	</g>
</g>
</svg>
