<svg xmlns="http://www.w3.org/2000/svg" viewBox="0 0 20 20"><defs><style>.cls-1{fill:#232323;}.cls-2{fill:none;}</style></defs><title>dislike</title><g id="Calque_2" data-name="Calque 2"><g id="sources_non_vectorisés_" data-name="sources (non vectorisés)"><g id="dislike"><path class="cls-1" d="M11.42,18.59h0a.72.72,0,0,1-.54-.28l-4.17-5.2A2.31,2.31,0,0,1,6,11.5V3.59A2.41,2.41,0,0,1,8.32,1.25h6.15a2.14,2.14,0,0,1,2.16,1.47L19,8.23a2.34,2.34,0,0,1,.17.89v1.6h0a2.24,2.24,0,0,1-.73,1.65,2.33,2.33,0,0,1-1.62.65H12.75l.6,3c0,.05,0,.09,0,.14a1.83,1.83,0,0,1-.56,1.36l-.85.85A.75.75,0,0,1,11.42,18.59ZM14.57,2.74H8.34a.89.89,0,0,0-.85.87V11.5a.83.83,0,0,0,.25.56l.07.08,3.67,4.58.27-.26a.41.41,0,0,0,.11-.23l-.76-3.81a.74.74,0,0,1,.73-.9h5a.83.83,0,0,0,.58-.24.75.75,0,0,0,.27-.56V9.12a.87.87,0,0,0-.06-.32l-2.4-5.54A.7.7,0,0,0,14.57,2.74Zm3.87,8h0ZM4.19,12.25H1a.76.76,0,0,1-.75-.75V2A.75.75,0,0,1,1,1.25H4.19A.74.74,0,0,1,4.94,2v9.5A.75.75,0,0,1,4.19,12.25Zm-2.44-1.5H3.44v-8H1.75Z"/><rect class="cls-2" width="20" height="20"/></g></g></g></svg>