<svg id="ds44-icons" xmlns="http://www.w3.org/2000/svg" viewBox="0 0 480 480"><title>english</title><polygon points="362.99 191.12 448.75 191.12 448.75 133.44 362.99 191.12"/><polygon points="288.75 104.36 288.75 173.32 390.94 104.36 288.75 104.36"/><path d="M326.38,191.12l115.14-77.71a27.64,27.64,0,0,0-15.26-8.53L298.41,191.12Z"/><polygon points="191.62 104.36 89.44 104.36 191.62 173.32 191.62 104.36"/><polygon points="288.75 375.64 390.62 375.64 288.75 307.06 288.75 375.64"/><polygon points="191.12 375.64 191.12 307.06 88.74 375.64 191.12 375.64"/><path d="M153.49,288.24,38.43,366.37a27.81,27.81,0,0,0,15.06,8.69L182,288.24Z"/><path d="M297.9,288.75l128.49,86.33a28.09,28.09,0,0,0,15.29-8.83l-115.3-77.5Z"/><polygon points="448.75 346.58 448.75 288.75 362.99 288.75 448.75 346.58"/><path d="M182,191.12,53.66,104.91a28,28,0,0,0-15.14,8.62l115,77.59Z"/><polygon points="31.25 133.54 31.25 191.62 117.38 191.62 31.25 133.54"/><polygon points="31.25 288.24 31.25 346.33 117.38 288.24 31.25 288.24"/><polygon points="271.46 104.36 208.91 104.36 208.91 208.91 31.25 208.91 31.25 270.95 208.41 270.95 208.41 375.64 271.46 375.64 271.46 271.46 448.75 271.46 448.75 208.41 271.46 208.41 271.46 104.36"/></svg>