<svg id="ds44-icons" xmlns="http://www.w3.org/2000/svg" width="417.49255" height="480" viewBox="0 0 417.49255 480"><title>english</title><path d="M295.12549,191.11567l115.13965-77.70734a27.64563,27.64563,0,0,0-15.25489-8.53064l-127.85278,86.238Z"/><path d="M122.23218,288.241,7.17261,366.36793a27.84334,27.84334,0,0,0,15.06323,8.69268L150.70874,288.241Z"/><path d="M266.64893,288.74946l128.48877,86.3283a28.06136,28.06136,0,0,0,15.28808-8.83136L295.12549,288.74946Z"/><path d="M150.70874,191.11567,22.40527,104.91181a28.06068,28.06068,0,0,0-15.13891,8.61377l114.96582,77.59009Z"/><polygon points="331.738 191.116 417.493 191.116 417.493 133.445 331.738 191.116"/><polygon points="257.496 104.355 257.496 173.318 359.681 104.355 257.496 104.355"/><polygon points="160.371 104.355 58.185 104.355 160.371 173.318 160.371 104.355"/><polygon points="257.496 375.645 359.371 375.645 257.496 307.056 257.496 375.645"/><polygon points="159.862 375.645 159.862 307.056 57.483 375.645 159.862 375.645"/><polygon points="417.493 346.584 417.493 288.749 331.738 288.749 417.493 346.584"/><polygon points="0 133.538 0 191.624 86.128 191.624 0 133.538"/><polygon points="0 288.241 0 346.327 86.128 288.241 0 288.241"/><polygon points="240.207 104.355 177.66 104.355 177.66 208.914 0 208.914 0 270.952 177.151 270.952 177.151 375.645 240.207 375.645 240.207 271.46 417.493 271.46 417.493 208.405 240.207 208.405 240.207 104.355"/></svg>