<svg id="ds44-icons" xmlns="http://www.w3.org/2000/svg" viewBox="0 0 417.49 480"><title>english</title><path d="M295.13,191.12l115.14-77.71A27.67,27.67,0,0,0,395,104.88L267.16,191.12Z"/><path d="M122.23,288.24,7.17,366.37a27.88,27.88,0,0,0,15.07,8.69l128.47-86.82Z"/><path d="M266.65,288.75l128.49,86.33a28.09,28.09,0,0,0,15.29-8.83l-115.3-77.5Z"/><path d="M150.71,191.12,22.41,104.91a28,28,0,0,0-15.14,8.62l115,77.59Z"/><polygon points="331.74 191.12 417.49 191.12 417.49 133.44 331.74 191.12"/><polygon points="257.5 104.36 257.5 173.32 359.68 104.36 257.5 104.36"/><polygon points="160.37 104.36 58.19 104.36 160.37 173.32 160.37 104.36"/><polygon points="257.5 375.64 359.37 375.64 257.5 307.06 257.5 375.64"/><polygon points="159.86 375.64 159.86 307.06 57.48 375.64 159.86 375.64"/><polygon points="417.49 346.58 417.49 288.75 331.74 288.75 417.49 346.58"/><polygon points="0 133.54 0 191.62 86.13 191.62 0 133.54"/><polygon points="0 288.24 0 346.33 86.13 288.24 0 288.24"/><polygon points="240.21 104.36 177.66 104.36 177.66 208.91 0 208.91 0 270.95 177.15 270.95 177.15 375.64 240.21 375.64 240.21 271.46 417.49 271.46 417.49 208.41 240.21 208.41 240.21 104.36"/></svg>