<svg id="ds44-icons" xmlns="http://www.w3.org/2000/svg" width="211.85511" height="480" viewBox="0 0 211.85511 480"><g id="facebook"><g id="Tracé_1115" data-name="Tracé 1115"><path d="M62.91835,443.91583V257.55389H0V185.0976H62.91835V131.73478a113.46212,113.46212,0,0,1,6.77233-41.02356A83.609,83.609,0,0,1,88.607,60.57264a76.069,76.069,0,0,1,29.252-18.10069,110.969,110.969,0,0,1,38.24024-6.382q19.89135,0,35.45691,1.01064a142.82486,142.82486,0,0,1,20.299,2.18035v64.514H173.63259q-22.6924,0-29.26969,9.75043a44.42741,44.42741,0,0,0-6.55958,25.28069v46.20013h71.58753l-9.57338,72.45629H137.76788V443.84387Z"/></g></g></svg>