<?xml version="1.0" encoding="utf-8"?>
<!-- Generator: Adobe Illustrator 23.1.1, SVG Export Plug-In . SVG Version: 6.00 Build 0)  -->
<svg version="1.1" id="Calque_1" xmlns="http://www.w3.org/2000/svg" xmlns:xlink="http://www.w3.org/1999/xlink" x="0px" y="0px"
	 viewBox="0 0 480 480" style="enable-background:new 0 0 480 480;" xml:space="preserve">
<title>facebook</title>
<g>
	<g id="ds44-icons">
		<g id="facebook">
			<g id="Tracé_1115">
				<path d="M197,443.9V257.6h-62.9v-72.5H197v-53.4c-0.3-14,2-27.9,6.8-41c4.1-11.3,10.5-21.6,18.9-30.1
					c8.2-8.2,18.2-14.4,29.3-18.1c12.3-4.4,25.2-6.5,38.2-6.4c13.3,0,25.1,0.3,35.5,1c6.8,0.2,13.6,1,20.3,2.2v64.5h-38.2
					c-15.1,0-24.9,3.3-29.3,9.8c-4.7,7.6-7,16.4-6.6,25.3V185h71.6l-9.6,72.5h-62v186.4L197,443.9z"/>
			</g>
		</g>
	</g>
</g>
</svg>
