<svg xmlns="http://www.w3.org/2000/svg" viewBox="0 0 20 20"><defs><style>.cls-1{fill:none;}</style></defs><title>facebook</title><g id="Calque_2" data-name="Calque 2"><g id="sources_non_vectorisés_" data-name="sources (non vectorisés)"><g id="facebook"><g id="Rectangle_963" data-name="Rectangle 963"><rect class="cls-1" width="20" height="20"/></g><g id="Tracé_1115" data-name="Tracé 1115"><path d="M8.24,18.53V11H5.69V8H8.24V5.85a4.46,4.46,0,0,1,.28-1.66A3.34,3.34,0,0,1,9.28,3a3.2,3.2,0,0,1,1.19-.73A4.37,4.37,0,0,1,12,2c.53,0,1,0,1.44,0a5.71,5.71,0,0,1,.82.09V4.72H12.74c-.62,0-1,.13-1.19.39a1.87,1.87,0,0,0-.27,1V8h2.91L13.8,11H11.28v7.57Z"/></g></g></g></g></svg>