<svg id="ds44-icons" xmlns="http://www.w3.org/2000/svg" width="421.05078" height="480" viewBox="0 0 421.05078 480"><title>fax</title><g id="fax"><path d="M379.88114,170.41594c.00571-.207.11993-.3812.11993-.59107v-79.541a17.53862,17.53862,0,0,0-6.3048-13.46623l-72.80212-60.8093a17.49811,17.49811,0,0,0-11.239-4.07756H58.36506A17.5483,17.5483,0,0,0,40.82128,29.47461V169.82487c0,.217.11421.39833.12563.61392A46.69459,46.69459,0,0,0,0,216.63113V333.58968A46.69987,46.69987,0,0,0,40.93549,379.782c-.00571.19988-.11421.36692-.11421.56823v70.17513a17.5483,17.5483,0,0,0,17.54378,17.54378H362.45729a17.5483,17.5483,0,0,0,17.54378-17.54378V380.35026c0-.19417-.10279-.35265-.10851-.54539a46.69839,46.69839,0,0,0,41.15822-46.21519V216.63113A46.68765,46.68765,0,0,0,379.88114,170.41594ZM75.90884,47.01839h207.373l61.63168,51.46633v71.34015c0,.00857.00571.01428.00571.02284H75.90313c0-.00856.00571-.01427.00571-.02284Zm0,385.96322V380.3731H344.91351v52.60851Zm310.05438-99.39193a11.71845,11.71845,0,0,1-11.69586,11.69586H46.78342a11.71844,11.71844,0,0,1-11.69585-11.69586V216.63113a11.71108,11.71108,0,0,1,11.69585-11.69585H374.26736a11.71109,11.71109,0,0,1,11.69586,11.69585Z"/><path d="M345.02772,263.41455a17.54378,17.54378,0,1,1,17.54379-17.54378A17.57031,17.57031,0,0,1,345.02772,263.41455Z"/><path d="M111.11062,263.41455H76.02306a17.54378,17.54378,0,1,1,0-35.08756h35.08756a17.54378,17.54378,0,1,1,0,35.08756Z"/></g></svg>