<svg id="ds44-icons" xmlns="http://www.w3.org/2000/svg" viewBox="0 0 480 480"><title>fax</title><g id="fax"><path d="M409.36,170.42c0-.21.12-.39.12-.6V90.28a17.53,17.53,0,0,0-6.31-13.46L330.37,16a17.49,17.49,0,0,0-11.24-4.08H87.84A17.54,17.54,0,0,0,70.3,29.47V169.82c0,.22.11.4.12.62a46.7,46.7,0,0,0-40.95,46.19v117a46.7,46.7,0,0,0,40.94,46.19c0,.2-.11.37-.11.57v70.18a17.54,17.54,0,0,0,17.54,17.54H391.93a17.55,17.55,0,0,0,17.55-17.54V380.35c0-.19-.11-.35-.11-.55a46.7,46.7,0,0,0,41.16-46.21v-117A46.68,46.68,0,0,0,409.36,170.42ZM105.38,47H312.76l61.63,51.46v71.37h-269V47Zm0,386V380.37h269V433Zm310.06-99.39a11.73,11.73,0,0,1-11.7,11.7H76.26a11.73,11.73,0,0,1-11.7-11.7v-117a11.71,11.71,0,0,1,11.7-11.69H403.74a11.71,11.71,0,0,1,11.7,11.69Z"/><path d="M374.5,263.41a17.54,17.54,0,1,1,17.55-17.54A17.57,17.57,0,0,1,374.5,263.41Z"/><path d="M140.59,263.41H105.5a17.54,17.54,0,1,1,0-35.08h35.09a17.54,17.54,0,0,1,0,35.08Z"/></g></svg>