<?xml version="1.0" encoding="utf-8"?>
<!-- Generator: Adobe Illustrator 23.1.1, SVG Export Plug-In . SVG Version: 6.00 Build 0)  -->
<svg version="1.1" id="Calque_1" xmlns="http://www.w3.org/2000/svg" xmlns:xlink="http://www.w3.org/1999/xlink" x="0px" y="0px"
	 viewBox="0 0 480 480" style="enable-background:new 0 0 480 480;" xml:space="preserve">
<title>fax</title>
<g>
	<g id="ds44-icons">
		<g id="fax">
			<path d="M410.7,169.9c0-0.2,0.1-0.4,0.1-0.6V89.1c0-5.2-2.3-10.2-6.4-13.6l-73.4-61.3c-3.2-2.7-7.2-4.1-11.3-4.1H86.6
				c-9.8,0-17.7,7.9-17.7,17.7v141.4c0,0.2,0.1,0.4,0.1,0.6c-23.5,2.9-41.2,22.9-41.3,46.6v117.9c0.1,23.7,17.7,43.6,41.3,46.6
				c0,0.2-0.1,0.4-0.1,0.6v70.7c0,9.8,7.9,17.7,17.7,17.7h306.5c9.8,0,17.7-7.9,17.7-17.7v-70.7c0-0.2-0.1-0.4-0.1-0.5
				c23.6-2.8,41.4-22.8,41.5-46.6V216.4C452.1,192.7,434.3,172.7,410.7,169.9z M104.3,45.5h209l62.1,51.9v71.9c0,0,0,0,0,0H104.3
				c0,0,0,0,0,0V45.5z M104.3,434.5v-53h271.1v53L104.3,434.5z M416.8,334.3c0,6.5-5.3,11.8-11.8,11.8H75c-6.5,0-11.8-5.3-11.8-11.8
				V216.4c0-6.5,5.3-11.8,11.8-11.8h330c6.5,0,11.8,5.3,11.8,11.8L416.8,334.3z"/>
			<path d="M375.6,263.6c-9.8,0-17.7-7.9-17.7-17.7c0-9.8,7.9-17.7,17.7-17.7c9.8,0,17.7,7.9,17.7,17.7v0
				C393.2,255.7,385.3,263.6,375.6,263.6z M375.6,240c-3.3,0-5.9,2.6-5.9,5.9c0,6.5,11.8,6.5,11.8,0
				C381.4,242.7,378.8,240,375.6,240L375.6,240z"/>
			<path d="M139.8,263.6h-35.4c-9.8,0-17.7-7.9-17.7-17.7c0-9.8,7.9-17.7,17.7-17.7c0,0,0,0,0,0h35.4c9.8,0,17.7,7.9,17.7,17.7
				C157.5,255.7,149.6,263.6,139.8,263.6z"/>
		</g>
	</g>
</g>
</svg>
