<svg id="ds44-icons" xmlns="http://www.w3.org/2000/svg" viewBox="0 0 421.05 480"><title>fax</title><g id="fax"><path d="M379.88,170.42c0-.21.12-.39.12-.6V90.28a17.55,17.55,0,0,0-6.3-13.46L300.89,16a17.47,17.47,0,0,0-11.23-4.08H58.37A17.55,17.55,0,0,0,40.82,29.47V169.82c0,.22.12.4.13.62A46.69,46.69,0,0,0,0,216.63v117a46.69,46.69,0,0,0,40.94,46.19c0,.2-.12.37-.12.57v70.18a17.55,17.55,0,0,0,17.55,17.54H362.46A17.55,17.55,0,0,0,380,450.53V380.35c0-.19-.1-.35-.11-.55a46.69,46.69,0,0,0,41.16-46.21v-117A46.68,46.68,0,0,0,379.88,170.42ZM75.91,47H283.28l61.63,51.46v71.34s0,0,0,0H75.9s0,0,0,0Zm0,386V380.37h269V433Zm310-99.39a11.72,11.72,0,0,1-11.69,11.7H46.78a11.72,11.72,0,0,1-11.69-11.7v-117a11.7,11.7,0,0,1,11.69-11.69H374.27A11.7,11.7,0,0,1,386,216.63Z"/><path d="M345,263.41a17.54,17.54,0,1,1,17.54-17.54A17.57,17.57,0,0,1,345,263.41Z"/><path d="M111.11,263.41H76a17.54,17.54,0,1,1,0-35.08h35.09a17.54,17.54,0,1,1,0,35.08Z"/></g></svg>