<svg xmlns="http://www.w3.org/2000/svg" viewBox="0 0 20 20"><defs><style>.cls-1{fill:none;}</style></defs><title>fax</title><g id="Calque_2" data-name="Calque 2"><g id="sources_non_vectorisés_" data-name="sources (non vectorisés)"><g id="fax"><path d="M17.24,7V3.6A.73.73,0,0,0,17,3L13.86.43a.75.75,0,0,0-.48-.18H3.49A.76.76,0,0,0,2.74,1V7s0,0,0,0A2,2,0,0,0,1,9v5a2,2,0,0,0,1.75,2v3a.75.75,0,0,0,.75.75h13a.74.74,0,0,0,.75-.75V16A2,2,0,0,0,19,14V9A2,2,0,0,0,17.24,7Zm-13-5.28h8.87L15.74,4V7H4.24Zm0,16.5V16h11.5v2.25ZM17.5,14a.5.5,0,0,1-.5.5H3a.5.5,0,0,1-.5-.5V9A.5.5,0,0,1,3,8.5H17a.5.5,0,0,1,.5.5Z"/><path d="M15.75,11a.75.75,0,1,1,.75-.75A.75.75,0,0,1,15.75,11Zm0-1a.25.25,0,0,0-.25.25c0,.28.5.28.5,0A.25.25,0,0,0,15.75,10Z"/><path d="M5.75,11H4.25a.75.75,0,0,1,0-1.5h1.5a.75.75,0,0,1,0,1.5Z"/><g id="Rectangle_877" data-name="Rectangle 877"><rect class="cls-1" width="20" height="20"/></g></g></g></g></svg>