<svg id="ds44-icons" xmlns="http://www.w3.org/2000/svg" viewBox="0 0 480 480"><title>file</title><g id="file"><path d="M388.48,153.07,290,54.58a18.48,18.48,0,0,0-13.06-5.41H153.82a67.78,67.78,0,0,0-67.71,67.72V363.11a67.78,67.78,0,0,0,67.71,67.72H326.18a67.78,67.78,0,0,0,67.71-67.72v-197A18.47,18.47,0,0,0,388.48,153.07Zm-97.73-45.5,47.78,47.78H290.75Zm35.43,286.32H153.82A30.8,30.8,0,0,1,123,363.11V116.89a30.8,30.8,0,0,1,30.78-30.78h100v87.7a18.48,18.48,0,0,0,18.47,18.47H357V363.11A30.8,30.8,0,0,1,326.18,393.89Z"/></g></svg>