<svg id="ds44-icons" xmlns="http://www.w3.org/2000/svg" width="307.78566" height="480" viewBox="0 0 307.78566 480"><title>file</title><g id="file"><path d="M302.37536,153.0746,203.884,54.58319a18.4747,18.4747,0,0,0-13.05684-5.4103H67.71284A67.78174,67.78174,0,0,0,0,116.88574V363.11426a67.78174,67.78174,0,0,0,67.71284,67.71285h172.36a67.78174,67.78174,0,0,0,67.71285-67.71285V166.13144A18.4747,18.4747,0,0,0,302.37536,153.0746Zm-97.734-45.50659,47.77892,47.77891H204.64139Zm35.43142,286.32482h-172.36a30.80707,30.80707,0,0,1-30.77856-30.77857V116.88574A30.80707,30.80707,0,0,1,67.71284,86.10717h99.99428v87.70689a18.4719,18.4719,0,0,0,18.46713,18.46714h84.67713V363.11426A30.80707,30.80707,0,0,1,240.07281,393.89283Z"/></g></svg>