<svg xmlns="http://www.w3.org/2000/svg" viewBox="0 0 20 20"><defs><style>.cls-1{fill:none;}</style></defs><title>file</title><g id="Calque_2" data-name="Calque 2"><g id="sources_non_vectorisés_" data-name="sources (non vectorisés)"><g id="file"><rect class="cls-1" width="20" height="20"/><path d="M16.53,6.47l-4-4A.75.75,0,0,0,12,2.25H7A2.75,2.75,0,0,0,4.25,5V15A2.75,2.75,0,0,0,7,17.75h7A2.75,2.75,0,0,0,16.75,15V7A.75.75,0,0,0,16.53,6.47Zm-4-1.85L14.5,6.56H12.56ZM14,16.25H7A1.25,1.25,0,0,1,5.75,15V5A1.25,1.25,0,0,1,7,3.75h4.06V7.31a.75.75,0,0,0,.75.75h3.44V15A1.25,1.25,0,0,1,14,16.25Z"/></g></g></g></svg>