<svg id="ds44-icons" xmlns="http://www.w3.org/2000/svg" width="390" height="480" viewBox="0 0 390 480"><g id="Tracé_1085" data-name="Tracé 1085"><path d="M301.856,472.08718H88.144A79.5256,79.5256,0,0,1,8.70844,392.65163V87.34841A79.5256,79.5256,0,0,1,88.144,7.91286H240.79547a18.37607,18.37607,0,0,1,12.99317,5.38184L375.90973,135.41579a18.37608,18.37608,0,0,1,5.38183,12.99316V392.65163A79.52568,79.52568,0,0,1,301.856,472.08718ZM88.144,44.66286A42.73377,42.73377,0,0,0,45.45844,87.34841V392.65163A42.73408,42.73408,0,0,0,88.144,435.33718H301.856a42.73408,42.73408,0,0,0,42.68554-42.68555V156.02028L233.18439,44.66286Z"/></g><g id="Tracé_1086" data-name="Tracé 1086"><path d="M349.63556,176.30983H235.025a18.37489,18.37489,0,0,1-18.375-18.375V43.44655a18.375,18.375,0,0,1,36.75,0v96.11328h96.2356a18.375,18.375,0,0,1,0,36.75Z"/></g></svg>