<svg id="ds44-icons" xmlns="http://www.w3.org/2000/svg" viewBox="0 0 307.79 480"><title>file</title><g id="file"><path d="M302.38,153.07l-98.5-98.49a18.47,18.47,0,0,0-13-5.41H67.71A67.78,67.78,0,0,0,0,116.89V363.11a67.78,67.78,0,0,0,67.71,67.72H240.07a67.79,67.79,0,0,0,67.72-67.72v-197A18.51,18.51,0,0,0,302.38,153.07Zm-97.74-45.5,47.78,47.78H204.64Zm35.43,286.32H67.71a30.81,30.81,0,0,1-30.78-30.78V116.89A30.81,30.81,0,0,1,67.71,86.11h100v87.7a18.47,18.47,0,0,0,18.46,18.47h84.68V363.11A30.8,30.8,0,0,1,240.07,393.89Z"/></g></svg>