<?xml version="1.0" encoding="utf-8"?>
<!-- Generator: Adobe Illustrator 23.1.1, SVG Export Plug-In . SVG Version: 6.00 Build 0)  -->
<svg version="1.1" id="Calque_1" xmlns="http://www.w3.org/2000/svg" xmlns:xlink="http://www.w3.org/1999/xlink" x="0px" y="0px"
	 viewBox="0 0 480 480" style="enable-background:new 0 0 480 480;" xml:space="preserve">
<title>fullscreen</title>
<g>
	<g id="ds44-icons">
		<g id="fullscreen">
			<g>
				<path d="M287.6,211.6c5.1,0,10-2,13.6-5.6l93.6-93.6v54.9c0,10.6,8.6,19.2,19.2,19.2c10.6,0,19.2-8.6,19.2-19.2V66
					c0-10.6-8.6-19.2-19.2-19.2H312.7c-10.6,0-19.2,8.6-19.2,19.2s8.6,19.2,19.2,19.2c0,0,0,0,0,0h55L274,178.8
					c-7.5,7.5-7.5,19.7,0,27.2C277.6,209.5,282.5,211.6,287.6,211.6L287.6,211.6z"/>
				<path d="M112.4,85.2h55c10.6,0,19.2-8.6,19.2-19.2s-8.6-19.2-19.2-19.2c0,0,0,0,0,0H66c-10.6,0-19.2,8.6-19.2,19.2l0,101.4
					c0,10.6,8.6,19.2,19.2,19.2c10.6,0,19.2-8.6,19.2-19.2l0-55l93.6,93.6c7.5,7.5,19.7,7.5,27.2,0c7.5-7.5,7.5-19.6,0-27.1
					L112.4,85.2z"/>
				<path d="M414,293.4c-10.6,0-19.2,8.6-19.2,19.2v54.9L301.2,274c-7.5-7.5-19.7-7.5-27.2,0c-7.5,7.5-7.5,19.7,0,27.2l93.6,93.6
					l-55,0c-10.6,0-19.2,8.6-19.2,19.2c0,10.6,8.6,19.2,19.2,19.2l101.3,0c10.6,0,19.2-8.6,19.2-19.2V312.6
					C433.2,302,424.6,293.4,414,293.4z"/>
				<path d="M178.8,274l-93.6,93.6v-54.9c0-10.6-8.6-19.2-19.2-19.2c-10.6,0-19.2,8.6-19.2,19.2c0,0,0,0,0,0V414
					c0,10.6,8.6,19.2,19.2,19.2l101.3,0c10.6,0,19.2-8.6,19.2-19.2c0-10.6-8.6-19.2-19.2-19.2c0,0,0,0,0,0l-54.9,0l93.6-93.6
					c7.5-7.5,7.5-19.7,0-27.2C198.5,266.5,186.3,266.5,178.8,274L178.8,274z"/>
			</g>
		</g>
	</g>
</g>
</svg>
