<svg id="ds44-icons" xmlns="http://www.w3.org/2000/svg" width="386.43932" height="480" viewBox="0 0 386.43932 480"><title>fullscreen</title><g id="fullscreen"><path d="M240.81823,211.57191a19.21154,19.21154,0,0,0,13.58585-5.61469l93.58608-93.58607v54.9205a19.21256,19.21256,0,0,0,38.42512,0V65.96284A19.21078,19.21078,0,0,0,367.20272,46.7623H265.87391a19.20054,19.20054,0,1,0,0,38.40107h54.98062l-93.62215,93.62215a19.20055,19.20055,0,0,0,13.58585,32.78639Z"/><path d="M65.61485,85.1754H120.6135a19.20054,19.20054,0,1,0,0-38.40107H19.2366A19.21076,19.21076,0,0,0,.024,65.97486l.024,101.35286a19.21256,19.21256,0,0,0,38.42512,0l-.018-54.9686,93.62816,93.5981a19.2133,19.2133,0,0,0,27.1717-27.1717Z"/><path d="M367.22676,293.43568a19.221,19.221,0,0,0-19.21255,19.21256v54.94l-93.58608-93.60562a19.2133,19.2133,0,0,0-27.1717,27.17171l93.5981,93.61763-54.95658.01653a19.21256,19.21256,0,0,0,0,38.42512l101.32881-.024a19.221,19.221,0,0,0,19.21256-19.21255V312.64824A19.221,19.221,0,0,0,367.22676,293.43568Z"/><path d="M132.05928,274.00671,38.42512,367.62134V312.67228a19.21256,19.21256,0,0,0-38.42512,0V414.00109a19.221,19.221,0,0,0,19.21256,19.21256l101.32881.02405a19.21256,19.21256,0,0,0,0-38.42512l-54.94756-.01653L159.231,301.17841a19.2133,19.2133,0,0,0-27.17171-27.1717Z"/></g></svg>