<svg id="ds44-icons" xmlns="http://www.w3.org/2000/svg" viewBox="0 0 480 480"><title>fullscreen</title><g id="fullscreen"><path d="M287.6,211.57A19.2,19.2,0,0,0,301.18,206l93.59-93.59v54.92a19.22,19.22,0,0,0,38.43,0V66A19.22,19.22,0,0,0,414,46.76H312.65a19.2,19.2,0,1,0,0,38.4h55L274,178.79a19.2,19.2,0,0,0,13.59,32.78Z"/><path d="M112.4,85.18h55a19.21,19.21,0,1,0,0-38.41H66A19.22,19.22,0,0,0,46.8,66l0,101.36a19.21,19.21,0,0,0,38.42,0v-55L178.86,206A19.22,19.22,0,0,0,206,178.79Z"/><path d="M414,293.44a19.22,19.22,0,0,0-19.22,19.21v54.94L301.21,274A19.21,19.21,0,0,0,274,301.15l93.59,93.62-54.95,0a19.21,19.21,0,0,0,0,38.42l101.33,0A19.22,19.22,0,0,0,433.22,414V312.65A19.22,19.22,0,0,0,414,293.44Z"/><path d="M178.84,274,85.21,367.62V312.67a19.22,19.22,0,0,0-38.43,0V414A19.22,19.22,0,0,0,66,433.21l101.33,0a19.22,19.22,0,0,0,0-38.43H112.37L206,301.18A19.21,19.21,0,0,0,178.84,274Z"/></g></svg>