<svg xmlns="http://www.w3.org/2000/svg" viewBox="0 0 20 20"><defs><style>.cls-1{fill:none;}</style></defs><title>fullscreen</title><g id="Calque_2" data-name="Calque 2"><g id="sources_non_vectorisés_" data-name="sources (non vectorisés)"><g id="fullscreen"><path d="M12.06,9a.74.74,0,0,0,.55-.23l3.8-3.8V7.17a.78.78,0,1,0,1.56,0V3.06a.78.78,0,0,0-.78-.78H13.08a.78.78,0,0,0,0,1.56h2.23l-3.8,3.8a.77.77,0,0,0,0,1.1A.74.74,0,0,0,12.06,9Z"/><path d="M4.94,3.84H7.18a.78.78,0,0,0,0-1.56H3.06a.79.79,0,0,0-.78.78V7.17a.78.78,0,0,0,1.56,0V4.94l3.8,3.8a.78.78,0,0,0,1.11,0,.78.78,0,0,0,0-1.1Z"/><path d="M17.19,12.3a.78.78,0,0,0-.78.78v2.23l-3.8-3.8a.78.78,0,1,0-1.1,1.1l3.8,3.8H13.08a.78.78,0,1,0,0,1.56h4.11a.78.78,0,0,0,.78-.78V13.08A.78.78,0,0,0,17.19,12.3Z"/><path d="M7.64,11.51l-3.8,3.8V13.08a.78.78,0,0,0-1.56,0v4.11a.78.78,0,0,0,.78.78H7.17a.78.78,0,0,0,0-1.56H4.94l3.81-3.8a.78.78,0,1,0-1.11-1.1Z"/><g id="Rectangle_961" data-name="Rectangle 961"><rect class="cls-1" width="20" height="20"/></g></g></g></g></svg>