<svg id="ds44-icons" xmlns="http://www.w3.org/2000/svg" width="408.57625" height="480" viewBox="0 0 408.57625 480"><path d="M252.03961,432.74986c-82.85816,0-110.68506-32.23633-113.58545-35.91211l28.2622-22.29883a4.97885,4.97885,0,0,0-.325-.396c.20093.22607,20.85034,22.60693,85.6482,22.60693,19.88037,0,36.44384-6.66553,50.63672-20.377,12.0437-11.63526,22.18652-28.24073,30.14672-49.3545,14.17627-37.60156,16.13843-75.51513,16.15674-75.894l.46924-9.78369,8.113-4.70752c1.86084-1.20508,7.16748-5.394,8.8916-9.95361.32568-1.44629-.24219-5.99756-.658-9.32959-1.26465-10.13867-2.99683-24.02393,2.7085-40.86768,3.801-11.22119,4.157-18.96142,3.626-22.50879H355.52154v-18c0-27.09961-10.97119-64.456-11.082-64.83008a18,18,0,0,1,34.51172-10.24414c.44311,1.4917,9.4851,32.2085,11.95263,61.41211a31.44021,31.44021,0,0,1,10.14966,9.13867c12.24048,17.06934,6.22364,42.77686,1.54785,56.58155-3.05761,9.02734-2.09838,16.71875-1.08252,24.86181.99488,7.97413,2.12232,17.0127-1.26928,26.19092-3.68262,9.9668-10.52124,17.50635-15.978,22.30127-1.43188,14.74268-5.71118,46.36621-17.76318,78.333C343.56256,400.57994,303.97979,432.74986,252.03961,432.74986ZM374.04547,154.00328h0Z"/><path d="M196.6724,50.0589s16.95452,112.99242,14.69392,146.90145c21.47572,37.29994,33.909,62.16657,29.38783,67.81807s-38.83707,16.95452-38.83707,16.95452V304.585a5.7978,5.7978,0,0,1-5.4827,5.79429c-12.58337.66636-43.67891.98608-59.66794-10.56155,0,10.05536,11.76862,38.9503,51.99422,48.01181a3.12687,3.12687,0,0,1,.466,5.93875,88.54817,88.54817,0,0,1-13.95541,4.54245s19.14053,68.10072-32.85332,71.49162S0,373.28733,0,373.28733V50.0589Z"/><path d="M122.82606,161.921a102.604,102.604,0,0,1,25.62016,3.01414s-8.28888-21.85249-25.62016-21.85249S97.2059,164.93515,97.2059,164.93515A102.604,102.604,0,0,1,122.82606,161.921Z" style="fill:#fff"/><path d="M291.74329,161.921a102.604,102.604,0,0,1,25.62016,3.01414s-8.28888-21.85249-25.62016-21.85249-25.62016,21.85249-25.62016,21.85249A102.604,102.604,0,0,1,291.74329,161.921Z"/><path d="M235.98177,328.99392c-33.78483,0-57.43421-2.44518-57.43421-2.44518s18.58166,17.72753,57.43421,17.72753,57.4342-17.72753,57.4342-17.72753S269.76659,328.99392,235.98177,328.99392Z"/></svg>