<svg id="ds44-icons" xmlns="http://www.w3.org/2000/svg" viewBox="0 0 480 480"><title>handicap-mental</title><path d="M445.9,131.45a31.4,31.4,0,0,0-10.15-9.14c-2.47-29.2-11.51-59.92-11.95-61.41a18,18,0,1,0-34.51,10.25c.11.37,11.08,37.62,11.08,64.82v18H417c.53,3.55.17,11.29-3.63,22.51-5.7,16.85-4,30.73-2.71,40.87.42,3.33,1,7.88.66,9.33-1.72,4.56-7,8.75-8.89,9.95l-8.11,4.71-.47,9.78c0,.38-2,38.3-16.16,75.9-8,21.11-18.1,37.72-30.15,49.35-14.19,13.71-30.75,20.38-50.63,20.38-38.14,0-61-7.75-73.36-14.18a110.59,110.59,0,0,0-3.41-24.26,87.88,87.88,0,0,0,13.95-4.54,3.13,3.13,0,0,0-.46-5.94c-40.23-9.06-52-38-52-48,16,11.55,47.09,11.23,59.67,10.56a5.79,5.79,0,0,0,5.48-5.79V281.73s34.32-11.3,38.84-17-7.91-30.52-29.39-67.82c2.26-33.91-14.69-146.9-14.69-146.9H44.85V373.29s90.42,59.9,142.42,56.51c12.57-.82,21-5.43,26.5-11.94,17.76,7.87,44.44,14.89,83.12,14.89,51.94,0,91.52-32.17,114.47-93,12.05-32,16.33-63.59,17.76-78.33,5.46-4.8,12.29-12.34,16-22.31,3.39-9.17,2.26-18.21,1.27-26.19-1-8.14-2-15.83,1.08-24.86C452.13,174.23,458.14,148.52,445.9,131.45ZM142.05,164.94s8.29-21.86,25.62-21.86,25.62,21.86,25.62,21.86a102.42,102.42,0,0,0-25.62-3A102.42,102.42,0,0,0,142.05,164.94Z"/><path d="M362.21,164.94s-8.29-21.86-25.62-21.86S311,164.94,311,164.94a110.18,110.18,0,0,1,51.24,0Z"/><path d="M223.4,326.55s18.58,17.73,57.43,17.73,57.43-17.73,57.43-17.73S314.61,329,280.83,329,223.4,326.55,223.4,326.55Z"/></svg>