<svg id="ds44-icons" xmlns="http://www.w3.org/2000/svg" viewBox="0 0 391.69 480"><title>handicap-visuel</title><path d="M195.78,352.74c-72.76,0-120.95-30.05-148.56-55.26C17.16,270,4.34,242.25,3.81,241.09L.43,233.64l3.38-7.44c.53-1.16,13.35-28.95,43.41-56.39,27.61-25.21,75.8-55.26,148.56-55.26s121,30.05,148.56,55.26c30.07,27.44,42.88,55.23,43.41,56.39l3.38,7.44-3.38,7.45c-.53,1.16-13.34,29-43.41,56.39C316.73,322.69,268.55,352.74,195.78,352.74ZM40.7,233.65a171.46,171.46,0,0,0,31.92,38.27c33.15,29.74,74.59,44.82,123.16,44.82s90-15.08,123.16-44.82a171.08,171.08,0,0,0,31.92-38.28,171,171,0,0,0-31.92-38.27c-33.15-29.74-74.59-44.82-123.16-44.82s-90,15.08-123.16,44.82A171.36,171.36,0,0,0,40.7,233.65Z"/><path d="M195.78,332.44A98.91,98.91,0,0,1,97,233.64a18,18,0,0,1,36,0,62.72,62.72,0,1,0,40.95-58.89A18,18,0,1,1,161.42,141a98.8,98.8,0,1,1,34.36,191.44Z"/><path d="M195.78,199.14l-.91,0a39.76,39.76,0,0,1-33.51,36.76,34.5,34.5,0,1,0,34.42-36.78Z"/><path d="M288.19,171.21a18,18,0,0,1-12.73-30.73l83.18-83.17a18,18,0,1,1,25.45,25.45l-83.17,83.18A18,18,0,0,1,288.19,171.21Z"/><path d="M31.43,428a18,18,0,0,1-12.72-30.73l83.17-83.18a18,18,0,1,1,25.46,25.46L44.16,422.69A17.92,17.92,0,0,1,31.43,428Z"/></svg>