<svg id="ds44-icons" xmlns="http://www.w3.org/2000/svg" width="391.68642" height="480" viewBox="0 0 391.68642 480"><title>handicap-visuel</title><path d="M195.78241,352.73716c-72.76367,0-120.95044-30.04638-148.561-55.25244C17.15546,270.037,4.34125,242.25425,3.81024,241.08531L.4328,233.64488l3.37744-7.44043C4.341,225.0355,17.15546,197.25279,47.22137,169.805c27.6106-25.20606,75.79712-55.25293,148.561-55.25293,72.76367,0,120.95019,30.04687,148.56079,55.25293,30.06616,27.44775,42.88013,55.23046,43.41113,56.39941l3.37744,7.44043-3.37744,7.44043c-.531,1.16894-13.34521,28.95166-43.41113,56.39941C316.7326,322.69078,268.54608,352.73716,195.78241,352.73716ZM40.70013,233.64683A171.36771,171.36771,0,0,0,72.6225,271.91929c33.15161,29.73877,74.58862,44.81787,123.15991,44.81787,48.571,0,90.00805-15.0791,123.15967-44.81787a171.31379,171.31379,0,0,0,31.92236-38.27636,171.37466,171.37466,0,0,0-31.92236-38.273c-33.15162-29.73877-74.58863-44.81787-123.15967-44.81787S105.77435,165.63121,72.6225,195.37A171.303,171.303,0,0,0,40.70013,233.64683Z"/><path d="M195.78241,332.43834a98.9053,98.9053,0,0,1-98.7937-98.79346,18,18,0,0,1,36,0,62.71647,62.71647,0,1,0,40.94946-58.89551,18,18,0,1,1-12.52246-33.75195,98.80337,98.80337,0,1,1,34.3667,191.44092Z"/><path d="M195.78236,199.14149c-.30713,0-.61035.0152-.91552.0232a39.752,39.752,0,0,1-33.5044,36.75964,34.49938,34.49938,0,1,0,34.41992-36.78284Z"/><path d="M288.18915,171.20933a18,18,0,0,1-12.728-30.728l83.17505-83.1748A18.00006,18.00006,0,0,1,384.092,82.76255l-83.175,83.17481A17.94325,17.94325,0,0,1,288.18915,171.20933Z"/><path d="M31.433,427.96568a18.00012,18.00012,0,0,1-12.728-30.728l83.1748-83.17529a18.00015,18.00015,0,0,1,25.45605,25.45605l-83.1748,83.1753A17.94382,17.94382,0,0,1,31.433,427.96568Z"/></svg>