<svg id="ds44-icons" xmlns="http://www.w3.org/2000/svg" viewBox="0 0 480 480"><title>handicap-moteur</title><path d="M403.69,357.34,338.41,255.41a21.38,21.38,0,0,0-6-9.41l-.33-.51-.14.08A21.22,21.22,0,0,0,318,240.39H235.61V209h78a15.32,15.32,0,0,0,15.27-15.28h0a15.31,15.31,0,0,0-15.27-15.27h-78v-29a28.93,28.93,0,0,0-57.86,0v30A133.56,133.56,0,0,0,73,309.81c0,73.64,59.9,133.54,133.54,133.54,65.47,0,120.08-47.36,131.39-109.62l29.86,46.63a21.34,21.34,0,1,0,35.94-23Zm-197.19,50a97.55,97.55,0,0,1-28.75-190.76v66.47H300.33A97.63,97.63,0,0,1,206.5,407.35Z"/><circle cx="206.68" cy="69.68" r="35.21" transform="translate(11.26 166.56) rotate(-45)"/></svg>