<svg id="ds44-icons" xmlns="http://www.w3.org/2000/svg" viewBox="0 0 334.53 480"><title>handicap-moteur</title><path d="M134,452.35C60.35,452.35.45,392.45.45,318.81A133.57,133.57,0,0,1,107.09,188a18,18,0,0,1,7.22,35.27,97.55,97.55,0,1,0,117.21,95.55,96.76,96.76,0,0,0-7.66-38,18,18,0,1,1,33.16-14,132.65,132.65,0,0,1,10.5,52C267.52,392.45,207.62,452.35,134,452.35Z"/><path d="M105.24,292.06V158.38a29,29,0,0,1,28.93-28.93h0a29,29,0,0,1,28.93,28.93V292.06Z"/><path d="M105.24,249.39H245.52a21.39,21.39,0,0,1,21.33,21.33h0a21.4,21.4,0,0,1-21.33,21.34H105.24Z"/><path d="M140.71,187.42H241.12a15.32,15.32,0,0,1,15.28,15.27h0A15.33,15.33,0,0,1,241.12,218H140.71Z"/><path d="M259.54,254.49l71.64,111.85a21.41,21.41,0,0,1-6.46,29.48h0a21.41,21.41,0,0,1-29.48-6.46L223.6,277.5Z"/><circle cx="134.17" cy="78.68" r="33.03"/></svg>