<svg id="ds44-icons" xmlns="http://www.w3.org/2000/svg" width="391.68642" height="480" viewBox="0 0 391.68642 480"><path d="M195.78241,352.73706c-72.76367,0-120.95044-30.04639-148.561-55.25244C17.15546,270.03687,4.34125,242.25415,3.81024,241.08521L.4328,233.64478l3.37744-7.44043c.53076-1.16895,13.34522-28.95166,43.41113-56.39942,27.6106-25.20605,75.79712-55.25293,148.561-55.25293,72.76367,0,120.95019,30.04688,148.56079,55.25293,30.06616,27.44776,42.88013,55.23047,43.41113,56.39942l3.37744,7.44043-3.37744,7.44043c-.531,1.16894-13.34521,28.95166-43.41113,56.39941C316.7326,322.69067,268.54608,352.73706,195.78241,352.73706ZM40.70013,233.64673A171.36793,171.36793,0,0,0,72.6225,271.91919c33.15161,29.73877,74.58862,44.81787,123.15991,44.81787,48.571,0,90.00805-15.0791,123.15967-44.81787a171.31379,171.31379,0,0,0,31.92236-38.27637,171.37511,171.37511,0,0,0-31.92236-38.273C285.79046,165.6311,244.35345,150.552,195.78241,150.552S105.77435,165.6311,72.6225,195.36987A171.303,171.303,0,0,0,40.70013,233.64673Z"/><path d="M195.78241,332.43823a98.90529,98.90529,0,0,1-98.7937-98.79345,18,18,0,0,1,36,0,62.71647,62.71647,0,1,0,40.94946-58.89551,18,18,0,1,1-12.52246-33.752,98.80337,98.80337,0,1,1,34.3667,191.44092Z"/><path d="M195.78236,199.14139c-.30713,0-.61035.0152-.91552.02319a39.752,39.752,0,0,1-33.5044,36.75965,34.49938,34.49938,0,1,0,34.41992-36.78284Z"/><path d="M288.18915,171.20923a18,18,0,0,1-12.728-30.728l83.17505-83.1748A18.00006,18.00006,0,0,1,384.092,82.76245l-83.175,83.17481A17.94329,17.94329,0,0,1,288.18915,171.20923Z"/><path d="M31.433,427.96558a18.00012,18.00012,0,0,1-12.728-30.728l83.1748-83.17529a18.00015,18.00015,0,0,1,25.45605,25.45605L44.16107,422.6936A17.94383,17.94383,0,0,1,31.433,427.96558Z"/></svg>