<svg id="ds44-icons" xmlns="http://www.w3.org/2000/svg" viewBox="0 0 377.57 480"><title>handicap-auditif</title><path d="M164.14,432.59c-16.46,0-31.7-6.62-44.13-19.43A86.25,86.25,0,0,1,102.38,386l33.7-12.68-.05-.12a51,51,0,0,0,10.42,15.55c7.61,7.5,16,9.58,26.44,6.55,16.43-4.78,20.39-14.73,28.37-44.27,7.59-28.08,18-66.53,55.62-104.72,32.86-33.33,43.59-71.82,29.45-105.61-11.34-27.1-37.1-45.31-64.11-45.31-23.6,0-42.28,7.77-55.52,23.07-10.82,12.53-15.67,28-15.67,37.73,0,22.77,10.42,47.56,10.53,47.81a18,18,0,0,1-33.1,14.15c-.55-1.28-13.43-31.67-13.43-62,0-15.95,6.42-40.42,24.44-61.27,14-16.21,39.74-35.53,82.75-35.53a101.4,101.4,0,0,1,58.57,19,112.12,112.12,0,0,1,38.75,48.45,115.88,115.88,0,0,1,5.89,70.42c-5.93,26.47-20.36,51.49-42.91,74.36-31,31.45-39.23,61.94-46.5,88.84C228.23,389.19,220.18,419,183,429.82A67.48,67.48,0,0,1,164.14,432.59Z"/><path d="M245.43,217.85A18,18,0,0,1,230,190.58c6.45-10.74,8-20.27,4.65-28.31-2.82-6.75-8.66-10.93-12.45-10.93-4.43,0-10.28.6-12.93,3.45a11.25,11.25,0,0,0-2.46,4.31,18,18,0,0,1-35.69-4.64c.66-6,4.15-16,11.81-24.21,9.22-9.89,22.43-14.91,39.27-14.91,19.05,0,37.4,13.28,45.66,33,5.52,13.2,8.79,34.45-7,60.75A18,18,0,0,1,245.43,217.85Zm-38.51-59.47v0Z"/><path d="M18.17,424.45A18,18,0,0,1,5.44,393.72L151.92,247.25a18,18,0,0,1,25.45,25.45L30.9,419.18A18,18,0,0,1,18.17,424.45Z"/><path d="M302,140.61a18,18,0,0,1-12.73-30.73L346.5,52.66A18,18,0,1,1,372,78.12l-57.22,57.22A18,18,0,0,1,302,140.61Z"/></svg>