<svg id="ds44-icons" xmlns="http://www.w3.org/2000/svg" viewBox="0 0 480 480"><title>handicap-visuel</title><path d="M432,226.2c-.53-1.17-13.34-28.95-43.41-56.4a207.62,207.62,0,0,0-26.68-20.6l66.43-66.44a18,18,0,1,0-25.46-25.45l-74.3,74.3c-24.11-10.06-53.46-17.06-88.55-17.06-72.76,0-120.95,30.05-148.56,55.25C61.37,197.25,48.56,225,48,226.2l-3.38,7.44L48,241.08c.53,1.17,13.34,29,43.41,56.4A206.75,206.75,0,0,0,133.17,327L62.92,397.24a18,18,0,1,0,25.46,25.45L169,342.11a233.26,233.26,0,0,0,71,10.63c72.76,0,121-30.05,148.56-55.26,30.07-27.44,42.88-55.23,43.41-56.4l3.38-7.44Zm-347,7.45a172.57,172.57,0,0,1,109.13-78.12,18,18,0,0,0,24.11,19.22,62.81,62.81,0,1,1-40.95,58.89,18,18,0,0,0-36,0A98.55,98.55,0,0,0,172,305.24a172.85,172.85,0,0,1-87.07-71.59ZM308.27,305A98.64,98.64,0,0,0,308,162.05q7.25,2.67,14.17,5.95a17.56,17.56,0,0,0,4.67,2.32,173.44,173.44,0,0,1,68.25,63.35A172.7,172.7,0,0,1,308.27,305Z"/><path d="M240,268.15a34.51,34.51,0,0,0,0-69l-.92,0a39.74,39.74,0,0,1-33.5,36.76A34.49,34.49,0,0,0,240,268.15Z"/></svg>