<svg id="ds44-icons" xmlns="http://www.w3.org/2000/svg" width="334.52682" height="480" viewBox="0 0 334.52682 480"><path d="M133.98429,443.35043C60.351,443.35043.446,383.44564.446,309.81234A133.57892,133.57892,0,0,1,107.09049,178.98666a18.00018,18.00018,0,0,1,7.217,35.26953,97.48588,97.48588,0,1,0,109.55737,57.5957,18,18,0,1,1,33.156-14.02441,132.71791,132.71791,0,0,1,10.50146,51.98486C267.52237,383.44564,207.61734,443.35043,133.98429,443.35043Z"/><path d="M105.23921,283.06248V149.381a29.0161,29.0161,0,0,1,28.931-28.931h.00006a29.0161,29.0161,0,0,1,28.931,28.931V283.06248Z"/><path d="M105.23921,240.38539H245.51562a21.40126,21.40126,0,0,1,21.33853,21.33852v0a21.40126,21.40126,0,0,1-21.33853,21.33852H105.23921Z"/><path d="M140.71025,178.41765H241.12258a15.31939,15.31939,0,0,1,15.27449,15.27449v0a15.3194,15.3194,0,0,1-15.27449,15.2745H140.71025Z"/><path d="M259.53825,245.48534,331.1763,357.3376a21.40125,21.40125,0,0,1-6.46,29.47768l0,0a21.40126,21.40126,0,0,1-29.47768-6.46L223.60052,268.503Z"/><circle cx="134.17025" cy="69.68198" r="33.03241"/></svg>