<svg id="ds44-icons" xmlns="http://www.w3.org/2000/svg" viewBox="0 0 408.58 480"><defs><style>.cls-1{fill:#fff;}</style></defs><title>handicap-mental</title><path d="M252,432.75c-82.86,0-110.69-32.24-113.59-35.91l28.27-22.3s-.1-.14-.33-.4c.2.23,20.85,22.61,85.65,22.61,19.88,0,36.44-6.67,50.64-20.38,12-11.63,22.18-28.24,30.14-49.35C347,289.42,349,251.5,349,251.12l.47-9.78,8.11-4.71c1.86-1.2,7.17-5.39,8.89-9.95.33-1.45-.24-6-.65-9.33-1.27-10.14-3-24,2.7-40.87,3.81-11.22,4.16-19,3.63-22.51H355.52V136c0-27.1-11-64.45-11.08-64.83A18,18,0,0,1,379,60.9c.44,1.49,9.49,32.21,11.95,61.41a31.4,31.4,0,0,1,10.15,9.14c12.24,17.07,6.23,42.78,1.55,56.58-3.06,9-2.1,16.72-1.08,24.86,1,8,2.12,17-1.27,26.19-3.68,10-10.52,17.51-16,22.31-1.43,14.74-5.71,46.36-17.76,78.33C343.56,400.58,304,432.75,252,432.75ZM374.05,154h0Z"/><path d="M196.67,50.06s17,113,14.7,146.9c21.47,37.3,33.91,62.17,29.38,67.82s-38.83,17-38.83,17v22.86a5.8,5.8,0,0,1-5.49,5.79c-12.58.67-43.67,1-59.66-10.56,0,10.05,11.77,38.95,52,48a3.13,3.13,0,0,1,.47,5.94,88.13,88.13,0,0,1-14,4.54s19.14,68.1-32.85,71.49S0,373.29,0,373.29V50.06Z"/><path class="cls-1" d="M122.83,161.92a102.42,102.42,0,0,1,25.62,3s-8.29-21.86-25.62-21.86-25.62,21.86-25.62,21.86A102.42,102.42,0,0,1,122.83,161.92Z"/><path d="M291.74,161.92a102.42,102.42,0,0,1,25.62,3s-8.29-21.86-25.62-21.86-25.62,21.86-25.62,21.86A102.42,102.42,0,0,1,291.74,161.92Z"/><path d="M236,329c-33.78,0-57.43-2.44-57.43-2.44s18.58,17.73,57.43,17.73,57.44-17.73,57.44-17.73S269.77,329,236,329Z"/></svg>