<svg id="ds44-icons" xmlns="http://www.w3.org/2000/svg" width="377.5691" height="480" viewBox="0 0 377.5691 480"><path d="M164.1393,432.59019c-16.45972.00049-31.7002-6.61767-44.13282-19.4331A86.18708,86.18708,0,0,1,102.3827,385.951l33.69239-12.68164-.0437-.11475A50.92926,50.92926,0,0,0,146.45009,388.7c7.60742,7.502,16.01,9.583,26.44409,6.54786,16.42431-4.77784,20.38647-14.73,28.3706-44.27246,7.58814-28.07666,17.98023-66.5293,55.61939-104.71387,32.85278-33.32861,43.58594-71.82276,29.44775-105.61182-11.33935-27.09912-37.10229-45.30664-64.10791-45.30664-23.6062,0-42.2854,7.76221-55.519,23.07031-10.82886,12.52686-15.676,27.97559-15.676,37.729,0,22.76367,10.42163,47.55664,10.52686,47.8042a18,18,0,0,1-33.1001,14.15576c-.54809-1.2793-13.42676-31.67725-13.42676-61.96,0-15.95264,6.4209-40.42578,24.44165-61.272C153.48134,78.663,179.21132,59.34312,222.224,59.34312a101.37338,101.37338,0,0,1,58.56714,18.959,112.01372,112.01372,0,0,1,38.75049,48.45166,115.86072,115.86072,0,0,1,5.884,70.41357c-5.92456,26.47559-20.35937,51.49609-42.90332,74.3667-30.99389,31.44287-39.23413,61.93262-46.50439,88.8335-7.78858,28.81884-15.84229,58.61816-53.06812,69.44775A67.28522,67.28522,0,0,1,164.1393,432.59019Z"/><path d="M245.43153,217.85386a18.00481,18.00481,0,0,1-15.4143-27.27c6.4541-10.74707,8.02-20.27441,4.65429-28.31738-2.823-6.74707-8.65942-10.92334-12.44775-10.92334-4.4353,0-10.27905.59766-12.93213,3.44483a11.29617,11.29617,0,0,0-2.46191,4.31152,18.00013,18.00013,0,0,1-35.69336-4.63477c.6604-6.02929,4.15087-15.98925,11.81518-24.21631,9.21607-9.89111,22.42871-14.90527,39.27222-14.90527,19.04346,0,37.39184,13.27246,45.65771,33.02686,5.52246,13.19775,8.79077,34.45019-7.00146,60.748A17.99285,17.99285,0,0,1,245.43153,217.85386Zm-38.509-59.47021-.0022.01855Z"/><path d="M18.17213,424.44908a18,18,0,0,1-12.7279-30.728L151.91737,247.24742a18.00015,18.00015,0,0,1,25.45606,25.456L30.9,419.17711A17.94359,17.94359,0,0,1,18.17213,424.44908Z"/><path d="M302.01259,140.60826a18,18,0,0,1-12.72779-30.728l57.21607-57.21631A18.00006,18.00006,0,1,1,371.95668,78.12l-57.21607,57.21631A17.94425,17.94425,0,0,1,302.01259,140.60826Z"/></svg>