<svg id="ds44-icons" xmlns="http://www.w3.org/2000/svg" width="334.52682" height="480" viewBox="0 0 334.52682 480"><title>handicap-moteur</title><path d="M133.98429,452.35045C60.351,452.35045.446,392.44566.446,318.81236A133.5789,133.5789,0,0,1,107.09049,187.98668a18.00018,18.00018,0,0,1,7.217,35.26953,97.48588,97.48588,0,1,0,109.55737,57.5957,18,18,0,1,1,33.156-14.02441,132.71791,132.71791,0,0,1,10.50146,51.98486C267.52237,392.44566,207.61734,452.35045,133.98429,452.35045Z"/><path d="M105.23921,292.0625V158.381a29.0161,29.0161,0,0,1,28.931-28.931h.00006a29.0161,29.0161,0,0,1,28.931,28.93105V292.0625Z"/><path d="M105.23921,249.38541H245.51562a21.40126,21.40126,0,0,1,21.33853,21.33852v0a21.40127,21.40127,0,0,1-21.33853,21.33853H105.23921Z"/><path d="M140.71025,187.41767H241.12258a15.31939,15.31939,0,0,1,15.27449,15.27449v0a15.3194,15.3194,0,0,1-15.27449,15.2745H140.71025Z"/><path d="M259.53825,254.48536,331.1763,366.33762a21.40125,21.40125,0,0,1-6.46,29.47768l0,0a21.40126,21.40126,0,0,1-29.47768-6.46L223.60052,277.503Z"/><circle cx="134.17025" cy="78.682" r="33.03241"/></svg>