<svg id="ds44-icons" xmlns="http://www.w3.org/2000/svg" viewBox="0 0 393.97 480"><title>help</title><g id="help"><g id="Groupe_2250" data-name="Groupe 2250"><g id="Tracé_1106" data-name="Tracé 1106"><path d="M198.26,300.28a18.47,18.47,0,0,1-18.47-18.46c0-29.53,16.81-44.68,29.07-55.74,11.38-10.27,16.86-15.75,16.86-28.26a25.88,25.88,0,0,0-22.2-25.52,26.27,26.27,0,0,0-28.9,18,18.46,18.46,0,1,1-35.2-11.11,63.07,63.07,0,0,1,123.23,18.52c0,29.59-16.78,44.72-29,55.78-11.39,10.27-16.88,15.78-16.88,28.31A18.47,18.47,0,0,1,198.26,300.28Z"/></g><g id="Tracé_1107" data-name="Tracé 1107"><path d="M200,351.79a18.75,18.75,0,0,1-13-5.44,18.54,18.54,0,0,1-4-5.89,17.57,17.57,0,0,1-1.22-7.14,18.19,18.19,0,0,1,1.22-7.14,19.25,19.25,0,0,1,4-5.92,19,19,0,0,1,20.17-3.94,19,19,0,0,1,5.92,3.94,18.77,18.77,0,0,1,5.67,13.06,17.61,17.61,0,0,1-1.49,7.14,19.4,19.4,0,0,1-4.18,5.89A18.38,18.38,0,0,1,200,351.79Z"/></g></g><path d="M197,437C88.37,437,0,348.61,0,240S88.37,43,197,43s197,88.37,197,197S305.6,437,197,437Zm0-357c-88.25,0-160,71.8-160,160.05s71.8,160.05,160,160.05,160-71.8,160-160S285.23,80,197,80Z"/></g></svg>