<?xml version="1.0" encoding="utf-8"?>
<!-- Generator: Adobe Illustrator 23.1.1, SVG Export Plug-In . SVG Version: 6.00 Build 0)  -->
<svg version="1.1" id="Calque_1" xmlns="http://www.w3.org/2000/svg" xmlns:xlink="http://www.w3.org/1999/xlink" x="0px" y="0px"
	 viewBox="0 0 480 480" style="enable-background:new 0 0 480 480;" xml:space="preserve">
<title>help</title>
<g>
	<g id="ds44-icons">
		<g id="help">
			<g id="Groupe_2250">
				<g id="Tracé_1106">
					<path d="M241.3,300.3c-10.2,0-18.5-8.3-18.5-18.5c0-29.5,16.8-44.7,29.1-55.7c11.4-10.3,16.9-15.8,16.9-28.3
						c0-12.8-9.5-23.7-22.2-25.5c-12.8-1.9-25,5.7-28.9,18c-3.1,9.7-13.4,15.1-23.2,12c-9.7-3.1-15.1-13.4-12-23.2
						c10.4-33.2,45.9-51.7,79.1-41.2c26.1,8.2,44,32.4,44.1,59.8c0,29.6-16.8,44.7-29,55.8c-11.4,10.3-16.9,15.8-16.9,28.3
						C259.7,292,251.5,300.3,241.3,300.3z"/>
				</g>
				<g id="Tracé_1107">
					<path d="M243,351.8c-7.4,0-14.1-4.5-17-11.3c-0.9-2.3-1.3-4.7-1.2-7.1c-0.1-2.4,0.3-4.9,1.2-7.1c0.9-2.2,2.3-4.2,3.9-5.9
						c5.4-5.1,13.3-6.7,20.2-3.9c6.9,2.9,11.4,9.5,11.6,17c0,2.5-0.5,4.9-1.5,7.1c-1,2.2-2.4,4.2-4.2,5.9
						C252.6,349.8,247.9,351.8,243,351.8z"/>
				</g>
			</g>
			<path d="M240,437c-108.6,0-197-88.4-197-197S131.4,43,240,43s197,88.4,197,197S348.6,437,240,437z M240,80
				c-88.2,0-160,71.8-160,160s71.8,160,160,160s160-71.8,160-160S328.2,80,240,80L240,80z"/>
		</g>
	</g>
</g>
</svg>
