<svg id="ds44-icons" xmlns="http://www.w3.org/2000/svg" width="393.96564" height="480" viewBox="0 0 393.96564 480"><title>help</title><g id="help"><g id="Groupe_2250" data-name="Groupe 2250"><g id="Tracé_1106" data-name="Tracé 1106"><path d="M198.25725,300.28271a18.4719,18.4719,0,0,1-18.46714-18.46714c0-29.52819,16.808-44.677,29.07131-55.73806,11.37365-10.26754,16.85608-15.75,16.85608-28.25376a25.88507,25.88507,0,0,0-22.19423-25.52457,26.26985,26.26985,0,0,0-28.903,18.02229,18.45714,18.45714,0,1,1-35.203-11.10914,63.07028,63.07028,0,0,1,123.2345,18.51523c0,29.5883-16.78394,44.72511-29.04727,55.78615-11.39769,10.26754-16.88012,15.774-16.88012,28.30186A18.4719,18.4719,0,0,1,198.25725,300.28271Z"/></g><g id="Tracé_1107" data-name="Tracé 1107"><path d="M199.98854,351.78871a18.45436,18.45436,0,0,1-16.9763-11.32555,17.47741,17.47741,0,0,1-1.22634-7.14159,18.11656,18.11656,0,0,1,1.22634-7.14159,19.15979,19.15979,0,0,1,3.9435-5.91525,19.05374,19.05374,0,0,1,20.17439-3.9435,18.98124,18.98124,0,0,1,11.59,17.00034,17.68311,17.68311,0,0,1-1.49083,7.14159,19.50375,19.50375,0,0,1-4.184,5.89121A18.39316,18.39316,0,0,1,199.98854,351.78871Z"/></g></g><path d="M196.98282,436.98282C88.36815,436.98282,0,348.61467,0,240S88.36815,43.01718,196.98282,43.01718,393.96564,131.38533,393.96564,240,305.59749,436.98282,196.98282,436.98282Zm0-357.03136C108.7349,79.95146,36.93428,151.75208,36.93428,240S108.7349,400.04854,196.98282,400.04854,357.03136,328.24792,357.03136,240,285.23074,79.95146,196.98282,79.95146Z"/></g></svg>