<svg xmlns="http://www.w3.org/2000/svg" viewBox="0 0 20 20"><defs><style>.cls-1{fill:none;}</style></defs><title>help</title><g id="Calque_2" data-name="Calque 2"><g id="sources_non_vectorisés_" data-name="sources (non vectorisés)"><g id="help"><g id="Groupe_2250" data-name="Groupe 2250"><g id="Tracé_1106" data-name="Tracé 1106"><path d="M10.05,12.45a.76.76,0,0,1-.75-.75,2.87,2.87,0,0,1,1.18-2.27c.46-.41.69-.64.69-1.14A1.06,1.06,0,0,0,9.09,8a.74.74,0,0,1-.94.49.75.75,0,0,1-.49-.94,2.57,2.57,0,0,1,5,.75,2.9,2.9,0,0,1-1.18,2.27c-.47.42-.69.64-.69,1.15A.75.75,0,0,1,10.05,12.45Z"/></g><g id="Tracé_1107" data-name="Tracé 1107"><path d="M10.12,14.54a.77.77,0,0,1-.53-.22.78.78,0,0,1-.16-.24.71.71,0,0,1,0-.29.74.74,0,0,1,0-.29.78.78,0,0,1,.16-.24.72.72,0,0,1,.25-.16.71.71,0,0,1,.57,0,.78.78,0,0,1,.24.16.76.76,0,0,1,.23.53.72.72,0,0,1-.06.29.81.81,0,0,1-.17.24A.75.75,0,0,1,10.12,14.54Z"/></g></g><path d="M10,18a8,8,0,1,1,8-8A8,8,0,0,1,10,18ZM10,3.5A6.5,6.5,0,1,0,16.5,10,6.51,6.51,0,0,0,10,3.5Z"/><g id="Rectangle_953" data-name="Rectangle 953"><rect class="cls-1" width="20" height="20"/></g></g></g></g></svg>