<svg id="ds44-icons" xmlns="http://www.w3.org/2000/svg" viewBox="0 0 480 480"><title>help</title><g id="help"><g id="Groupe_2250" data-name="Groupe 2250"><g id="Tracé_1106" data-name="Tracé 1106"><path d="M241.27,300.28a18.47,18.47,0,0,1-18.46-18.46c0-29.53,16.81-44.68,29.07-55.74,11.37-10.27,16.85-15.75,16.85-28.26a25.88,25.88,0,0,0-22.19-25.52,26.27,26.27,0,0,0-28.9,18,18.46,18.46,0,1,1-35.21-11.11,63.07,63.07,0,0,1,123.24,18.52c0,29.59-16.78,44.72-29.05,55.78-11.4,10.27-16.88,15.78-16.88,28.31A18.47,18.47,0,0,1,241.27,300.28Z"/></g><g id="Tracé_1107" data-name="Tracé 1107"><path d="M243,351.79a18.46,18.46,0,0,1-17-11.33,17.41,17.41,0,0,1-1.23-7.14,18,18,0,0,1,1.23-7.14,19.4,19.4,0,0,1,3.94-5.92,19.08,19.08,0,0,1,20.18-3.94,19,19,0,0,1,5.91,3.94,18.74,18.74,0,0,1,5.68,13.06,17.78,17.78,0,0,1-1.49,7.14,19.43,19.43,0,0,1-4.19,5.89A18.35,18.35,0,0,1,243,351.79Z"/></g></g><path d="M240,437C131.39,437,43,348.61,43,240S131.39,43,240,43s197,88.37,197,197S348.61,437,240,437Zm0-357C151.75,80,80,151.75,80,240S151.75,400.05,240,400.05s160.05-71.8,160.05-160S328.25,80,240,80Z"/></g></svg>