<svg xmlns="http://www.w3.org/2000/svg" viewBox="0 0 20 20"><defs><style>.cls-1{fill:none;}</style></defs><title>home</title><g id="Calque_2" data-name="Calque 2"><g id="sources_non_vectorisés_" data-name="sources (non vectorisés)"><g id="home"><g id="Tracé_1083" data-name="Tracé 1083"><path d="M15.58,17.32h-4.1a.74.74,0,0,1-.75-.75v-4H9v4a.75.75,0,0,1-.75.75h-4a.74.74,0,0,1-.75-.75V11.46H1.79a.75.75,0,0,1-.53-1.28L9.47,2a.75.75,0,0,1,1.06,0l8.21,8.21a.75.75,0,0,1-.53,1.28H16.34v5.11A.76.76,0,0,1,15.58,17.32Zm-3.35-1.5h2.6V10.71a.74.74,0,0,1,.75-.75h.81L10,3.56,3.6,10h.69a.76.76,0,0,1,.75.75v5.11h2.5v-4a.75.75,0,0,1,.75-.75h3.19a.76.76,0,0,1,.75.75Z"/></g><g id="Rectangle_905" data-name="Rectangle 905"><rect class="cls-1" width="20" height="20"/></g></g></g></g></svg>