<svg id="ds44-icons" xmlns="http://www.w3.org/2000/svg" viewBox="0 0 480 480"><title>home</title><g id="home"><g id="Tracé_1083" data-name="Tracé 1083"><path d="M377.3,431.72H276.36a18.47,18.47,0,0,1-18.47-18.47v-98H216.34v98a18.47,18.47,0,0,1-18.47,18.47H99.38a18.48,18.48,0,0,1-18.47-18.47V287.39H37.82a18.46,18.46,0,0,1-13-31.52L226.94,53.69a18.47,18.47,0,0,1,26.12,0L455.23,255.87a18.46,18.46,0,0,1-13.05,31.52H396l-.25,125.91A18.48,18.48,0,0,1,377.3,431.72Zm-82.48-36.94h64.05l.25-125.89a18.48,18.48,0,0,1,18.47-18.43h20L240,92.86,82.4,250.46h17a18.47,18.47,0,0,1,18.47,18.47V394.78H179.4v-98a18.48,18.48,0,0,1,18.47-18.47h78.49a18.47,18.47,0,0,1,18.46,18.47Z"/></g></g></svg>