<svg id="ds44-icons" xmlns="http://www.w3.org/2000/svg" viewBox="0 0 441.29 480"><title>home</title><g id="home"><g id="Tracé_1083" data-name="Tracé 1083"><path d="M358,431.72H257a18.48,18.48,0,0,1-18.47-18.47v-98H197v98a18.47,18.47,0,0,1-18.46,18.47H80a18.47,18.47,0,0,1-18.46-18.47V287.39H18.47A18.46,18.46,0,0,1,5.41,255.87L207.59,53.69a18.46,18.46,0,0,1,26.11,0L435.88,255.87a18.46,18.46,0,0,1-13.06,31.52H376.66l-.25,125.91A18.46,18.46,0,0,1,358,431.72Zm-82.48-36.94h64l.26-125.89a18.47,18.47,0,0,1,18.46-18.43h20L220.64,92.86,63.05,250.46H80a18.47,18.47,0,0,1,18.47,18.47V394.78h61.56v-98a18.47,18.47,0,0,1,18.47-18.47H257a18.47,18.47,0,0,1,18.47,18.47Z"/></g></g></svg>