<?xml version="1.0" encoding="utf-8"?>
<!-- Generator: Adobe Illustrator 23.1.1, SVG Export Plug-In . SVG Version: 6.00 Build 0)  -->
<svg version="1.1" id="Calque_1" xmlns="http://www.w3.org/2000/svg" xmlns:xlink="http://www.w3.org/1999/xlink" x="0px" y="0px"
	 viewBox="0 0 480 480" style="enable-background:new 0 0 480 480;" xml:space="preserve">
<title>home</title>
<g>
	<g id="ds44-icons">
		<g id="home">
			<g id="Tracé_1083">
				<path d="M377.3,431.7H276.4c-10.2,0-18.5-8.3-18.5-18.5v-98h-41.6v98c0,10.2-8.3,18.5-18.5,18.5H99.4
					c-10.2,0-18.5-8.3-18.5-18.5V287.4H37.8c-10.2,0-18.5-8.3-18.5-18.5c0-4.9,1.9-9.6,5.4-13.1L226.9,53.7c7.2-7.2,18.9-7.2,26.1,0
					c0,0,0,0,0,0l202.2,202.2c7.2,7.2,7.2,18.9,0,26.1c-3.5,3.5-8.2,5.4-13.1,5.4H396l-0.3,125.9
					C395.7,423.5,387.5,431.7,377.3,431.7z M294.8,394.8h64l0.3-125.9c0-10.2,8.3-18.4,18.5-18.4h20L240,92.9L82.4,250.5h17
					c10.2,0,18.5,8.3,18.5,18.5v125.9h61.6v-98c0-10.2,8.3-18.5,18.5-18.5h78.5c10.2,0,18.5,8.3,18.5,18.5V394.8z"/>
			</g>
		</g>
	</g>
</g>
</svg>
