<svg id="ds44-icons" xmlns="http://www.w3.org/2000/svg" width="441.28783" height="480" viewBox="0 0 441.28783 480"><g id="home"><g id="Tracé_1083" data-name="Tracé 1083"><path d="M357.94517,431.7168H257.0011A18.4719,18.4719,0,0,1,238.534,413.24966v-97.9624H196.98289v97.9624a18.4719,18.4719,0,0,1-18.46714,18.46714H80.02434A18.4719,18.4719,0,0,1,61.5572,413.24966V287.39418h-43.09a18.46552,18.46552,0,0,1-13.05684-31.524L207.58707,53.69349a18.46042,18.46042,0,0,1,26.11369,0L435.87746,255.8702a18.46552,18.46552,0,0,1-13.05684,31.524H376.66479l-.25248,125.90357A18.46942,18.46942,0,0,1,357.94517,431.7168Zm-82.47693-36.93428H339.5141l.25248-125.89155a18.472,18.472,0,0,1,18.46714-18.43107h20.00607L220.64392,92.864,63.048,250.4599h16.9763A18.4719,18.4719,0,0,1,98.49148,268.927V394.78252h61.55713v-97.9624A18.4719,18.4719,0,0,1,178.51575,278.353H257.0011a18.4719,18.4719,0,0,1,18.46714,18.46714Z"/></g></g></svg>