<svg id="ds44-icons" xmlns="http://www.w3.org/2000/svg" width="455" height="480" viewBox="0 0 455 480"><path d="M431.18842,3.18509H23.81147a18.37473,18.37473,0,0,0-18.375,18.375V458.44a18.37473,18.37473,0,0,0,18.375,18.375H364.23823a18.37474,18.37474,0,0,0,18.375-18.375v-73.54h48.57519a18.37473,18.37473,0,0,0,18.375-18.375V21.56009A18.37473,18.37473,0,0,0,431.18842,3.18509Zm-18.375,172.48242H382.61323V126.1763h30.20019Zm-30.20019,36.75h30.20019v49.49121H382.61323ZM412.81342,89.4263H382.61323V39.93509h30.20019ZM345.86323,440.065H42.18647V39.93509H345.86323V440.065Zm66.95019-91.915H382.61323V298.65872h30.20019Z"/><path d="M301.60151,97.21341H86.4477a18.375,18.375,0,1,0,0,36.75H301.60151a18.375,18.375,0,0,0,0-36.75Z"/><path d="M301.60151,180.15481H86.4477a18.375,18.375,0,0,0,0,36.75H301.60151a18.375,18.375,0,0,0,0-36.75Z"/><path d="M301.60151,263.09524H86.4477a18.375,18.375,0,0,0,0,36.75H301.60151a18.375,18.375,0,1,0,0-36.75Z"/><path d="M301.60151,346.03665H86.4477a18.375,18.375,0,0,0,0,36.75H301.60151a18.375,18.375,0,0,0,0-36.75Z"/></svg>