<?xml version="1.0" encoding="utf-8"?>
<!-- Generator: Adobe Illustrator 23.1.1, SVG Export Plug-In . SVG Version: 6.00 Build 0)  -->
<svg version="1.1" id="Calque_1" xmlns="http://www.w3.org/2000/svg" xmlns:xlink="http://www.w3.org/1999/xlink" x="0px" y="0px"
	 viewBox="0 0 480 480" style="enable-background:new 0 0 480 480;" xml:space="preserve">
<title>instagram</title>
<g>
	<g id="ds44-icons">
		<g id="instagram">
			<g id="Groupe_2263">
				<g id="Tracé_1118">
					<path d="M294.7,36.6c8.6,0.4,18.2,0.7,28.8,1c9.5,0.3,19,1.3,28.4,3c7.2,1.3,14.3,3.3,21.1,5.8c6.7,2.8,13.1,6.1,19.3,10
						c6.3,4,12.1,8.6,17.3,13.9c5.4,5.3,10.1,11.2,14.2,17.5c3.8,6.1,7.1,12.5,9.8,19.1c2.6,6.8,4.6,13.8,6,20.9
						c1.7,9.4,2.7,18.9,2.8,28.5c0.5,10.9,0.9,20.6,1.2,29.1c0.3,8.5,0.4,26.7,0.4,54.6c0,27.9-0.2,46.1-0.6,54.7
						c-0.4,8.6-0.7,18.3-1,28.9c-0.3,9.5-1.3,19-3,28.4c-1.3,7.2-3.3,14.2-5.8,21.1c-2.8,6.7-6.1,13.2-10,19.3
						c-4,6.3-8.7,12.1-13.9,17.3c-5.3,5.4-11.2,10.1-17.5,14.2c-6.1,3.8-12.5,7.1-19.1,9.8c-6.8,2.6-13.8,4.6-20.9,6
						c-9.4,1.8-18.9,2.7-28.5,2.8c-10.9,0.6-20.6,1-29.1,1.2c-8.5,0.2-26.7,0.4-54.6,0.4c-27.9,0-46.1-0.2-54.7-0.6
						c-8.7-0.4-18.3-0.7-28.9-1c-9.5-0.3-19-1.3-28.4-3c-7.2-1.3-14.2-3.3-21.1-5.8c-6.7-2.8-13.1-6.1-19.3-9.9
						c-6.3-4-12.1-8.6-17.3-13.9c-5.4-5.3-10.1-11.2-14.2-17.5c-3.8-6.1-7.1-12.5-9.8-19.1c-2.6-6.8-4.6-13.8-6-20.9
						c-1.8-9.4-2.7-18.8-2.8-28.4c-0.6-10.9-1-20.6-1.2-29.1c-0.2-8.5-0.4-26.7-0.4-54.6c0-27.9,0.2-46.1,0.6-54.7
						c0.4-8.6,0.7-18.3,1-28.9c0.3-9.5,1.3-18.9,3-28.3c1.3-7.2,3.2-14.3,5.8-21.1c2.8-6.7,6.1-13.1,9.9-19.3
						c4-6.3,8.6-12.1,13.9-17.3c5.3-5.4,11.2-10.1,17.5-14.2c6.1-3.8,12.5-7.1,19.1-9.8c6.8-2.6,13.8-4.6,20.9-6
						c9.4-1.8,18.9-2.7,28.5-2.8c10.9-0.5,20.6-0.9,29.1-1.2c8.5-0.3,26.7-0.4,54.6-0.4C267.8,36,286.1,36.2,294.7,36.6z
						 M186.2,73.2c-8.2,0.4-17.9,0.7-29.1,1c-8,0.3-15.9,1.2-23.7,2.8c-4.9,1.1-9.8,2.6-14.5,4.4c-4.4,1.5-8.6,3.6-12.4,6.2
						c-3.9,2.6-7.5,5.7-10.7,9c-3.2,3.2-6,6.6-8.6,10.4c-2.7,4-4.9,8.3-6.6,12.7c-1.6,4.7-2.9,9.4-4,14.2c-1.6,7.9-2.4,16-2.4,24.1
						c-0.5,10.9-0.9,20.5-1.2,28.7c-0.3,8.2-0.4,26-0.4,53.4c0,27.6,0.2,45.5,0.6,53.8c0.4,8.2,0.7,17.9,1,29.1
						c0.3,8,1.2,15.9,2.8,23.7c1.1,4.9,2.6,9.8,4.4,14.5c1.5,4.4,3.6,8.6,6.2,12.4c2.6,3.9,5.6,7.5,8.9,10.7c3.2,3.2,6.6,6,10.4,8.5
						c4,2.7,8.3,4.9,12.7,6.6c4.7,1.6,9.4,2.9,14.2,4c7.9,1.6,16,2.4,24.1,2.4c10.9,0.5,20.4,0.9,28.7,1.2c8.2,0.3,26,0.4,53.4,0.4
						c27.6,0,45.5-0.2,53.8-0.6c8.2-0.4,17.9-0.7,29.1-1c8-0.3,15.9-1.2,23.7-2.8c4.9-1.1,9.8-2.6,14.5-4.4
						c4.4-1.5,8.6-3.6,12.4-6.2c3.9-2.7,7.5-5.7,10.8-9c3.2-3.2,6-6.6,8.6-10.4c2.7-4,4.9-8.3,6.6-12.7c1.6-4.7,2.9-9.4,4-14.2
						c1.6-7.9,2.4-16,2.4-24.1c0.6-10.9,1-20.4,1.2-28.7c0.2-8.2,0.4-26,0.4-53.4c0-27.6-0.2-45.5-0.6-53.8
						c-0.4-8.2-0.7-17.9-1-29.1c-0.3-8-1.2-15.9-2.8-23.7c-1.1-4.9-2.6-9.8-4.4-14.5c-1.5-4.4-3.6-8.6-6.2-12.4
						c-2.6-3.9-5.6-7.5-8.9-10.8c-3.2-3.2-6.6-6-10.4-8.5c-4-2.7-8.3-4.9-12.7-6.6c-4.7-1.6-9.4-2.9-14.2-4
						c-7.9-1.6-16-2.4-24.1-2.4c-10.9-0.5-20.5-0.9-28.7-1.2c-8.2-0.3-26-0.4-53.3-0.4C212.3,72.6,194.4,72.8,186.2,73.2z
						 M281,143.1c25.3,10.4,45.3,30.5,55.8,55.8c11.1,26.2,11.1,55.8,0,82c-10.4,25.3-30.5,45.3-55.8,55.7
						c-26.2,11.2-55.8,11.2-82,0c-25.3-10.4-45.3-30.5-55.7-55.7c-11.2-26.2-11.2-55.8,0-82c10.4-25.3,30.5-45.4,55.7-55.8
						C225.1,131.9,254.7,131.9,281,143.1z M288.3,288c26.2-26.7,25.8-69.6-0.9-95.9s-69.6-25.8-95.9,0.9s-25.8,69.6,0.9,95.9
						c12.7,12.4,29.7,19.4,47.5,19.4C258.2,308.5,275.7,301.2,288.3,288L288.3,288z M366,113.6c-4.5-4.5-10.6-6.9-16.9-6.8
						c-6.5-0.1-12.9,2.4-17.5,7c-4.6,4.4-7.2,10.5-7.1,16.9c-0.1,6.6,2.6,13,7.4,17.5c4.6,4.6,10.8,7.2,17.3,7.1
						c6.5,0.2,12.8-2.5,17.1-7.4c4.4-4.7,6.9-10.9,6.8-17.3C373.2,124.2,370.6,118.1,366,113.6L366,113.6z"/>
				</g>
			</g>
		</g>
	</g>
</g>
</svg>
