<svg id="ds44-icons" xmlns="http://www.w3.org/2000/svg" width="407.89646" height="480" viewBox="0 0 407.89646 480"><title>instagram</title><g id="instagram"><g id="Groupe_2263" data-name="Groupe 2263"><g id="Tracé_1118" data-name="Tracé 1118"><path d="M258.65808,36.55448c8.61589.42525,18.2427.74446,28.84417,1.01064a209.32919,209.32919,0,0,1,28.36564,2.97837,128.79737,128.79737,0,0,1,21.11448,5.77928,138.26226,138.26226,0,0,1,19.30637,9.9636,96.80016,96.80016,0,0,1,17.32079,13.93475,101.55771,101.55771,0,0,1,14.18282,17.51583,119.04071,119.04071,0,0,1,9.7507,19.11133,128.97453,128.97453,0,0,1,5.97459,20.91944,166.302,166.302,0,0,1,2.78332,28.45436q.79776,16.34532,1.18783,29.07493.39036,12.72908.40767,54.55038,0,41.80427-.60271,54.74569c-.39008,8.63375-.74472,18.26028-.99279,28.87961a209.67585,209.67585,0,0,1-2.97836,28.36564,130.4745,130.4745,0,0,1-5.77955,21.0969,139.40542,139.40542,0,0,1-9.96333,19.324,98.92251,98.92251,0,0,1-13.93448,17.32052,100.24944,100.24944,0,0,1-17.51583,14.18254,116.328,116.328,0,0,1-19.11133,9.76829,127.54157,127.54157,0,0,1-20.90186,5.97459,163.39405,163.39405,0,0,1-28.48953,2.7836q-16.32827.83344-29.05707,1.20541-12.72907.3725-54.55038.39008-41.83915,0-54.74542-.58485c-8.6516-.40794-18.26029-.74446-28.87961-1.01064a209.59074,209.59074,0,0,1-28.36564-2.97837,128.59093,128.59093,0,0,1-21.0969-5.77928,138.1318,138.1318,0,0,1-19.30637-9.94574,98.312,98.312,0,0,1-17.33837-13.93476,101.35164,101.35164,0,0,1-14.18282-17.53368,116.8392,116.8392,0,0,1-9.7507-19.11133,126.6897,126.6897,0,0,1-5.97459-20.91944A162.77328,162.77328,0,0,1,1.5955,323.72048Q.762,307.393.39008,294.64556.01758,281.89864,0,240.09518q0-41.80426.60271-54.74569.60257-12.94251.99279-28.87961a206.16336,206.16336,0,0,1,2.97836-28.25906,127.17649,127.17649,0,0,1,5.77955-21.11475,140.381,140.381,0,0,1,9.94575-19.32395A98.13649,98.13649,0,0,1,34.23364,70.46891,100.45543,100.45543,0,0,1,51.76705,56.28637a116.97835,116.97835,0,0,1,19.11133-9.76829,126.45083,126.45083,0,0,1,20.90186-5.97459,164.89837,164.89837,0,0,1,28.47195-2.7836q16.32827-.79774,29.07465-1.18756,12.74652-.38954,54.55038-.40793Q245.69812,35.96963,258.65808,36.55448ZM150.12459,73.199q-12.30383.62082-29.05707.99279a142.30409,142.30409,0,0,0-23.68519,2.80091,101.17092,101.17092,0,0,0-14.53746,4.37909A54.759,54.759,0,0,0,70.435,87.52324a74.75991,74.75991,0,0,0-10.74349,8.97081,70.28738,70.28738,0,0,0-8.56287,10.35368,64.16254,64.16254,0,0,0-6.5773,12.74666,133.69868,133.69868,0,0,0-3.97115,14.18255,125.08456,125.08456,0,0,0-2.39325,24.09312q-.79734,16.34531-1.18783,28.667-.38994,12.32168-.40766,53.36282-.00041,41.43177.6027,53.7529.603,12.32167.99279,29.07492a142.81654,142.81654,0,0,0,2.78333,23.68519,101.22906,101.22906,0,0,0,4.37882,14.53746,53.3794,53.3794,0,0,0,6.18721,12.41014,71.23764,71.23764,0,0,0,8.86423,10.74322,68.22931,68.22931,0,0,0,10.35341,8.545A63.61777,63.61777,0,0,0,83.483,399.24387,132.78393,132.78393,0,0,0,97.66583,403.215a126.52664,126.52664,0,0,0,24.09285,2.39351q16.32828.79775,28.667,1.18756,12.33912.38953,53.36255.40794,41.39606,0,53.75263-.58486c8.22608-.42525,17.9235-.74445,29.07466-1.01064a143.05027,143.05027,0,0,0,23.68518-2.7836,104.25971,104.25971,0,0,0,14.53747-4.37909,53.96034,53.96034,0,0,0,12.40986-6.16936,75.74143,75.74143,0,0,0,10.76108-8.97081A72.701,72.701,0,0,0,356.572,372.952a63.23971,63.23971,0,0,0,6.55944-12.74665,137.029,137.029,0,0,0,3.989-14.18255,125.71318,125.71318,0,0,0,2.37566-24.11044q.83305-16.32745,1.20542-28.667.37209-12.33952.39008-53.36282.00041-41.41391-.58513-53.7529c-.39008-8.22581-.74472-17.92322-1.01064-29.07492a143.11194,143.11194,0,0,0-2.78332-23.68519,101.80985,101.80985,0,0,0-4.37883-14.53746,53.93031,53.93031,0,0,0-6.16963-12.41014,74.4421,74.4421,0,0,0-8.86422-10.76107,71.28645,71.28645,0,0,0-10.35341-8.545,62.78982,62.78982,0,0,0-12.74666-6.5773,133.23613,133.23613,0,0,0-14.18282-3.989A126.52664,126.52664,0,0,0,285.92407,74.156q-16.36357-.79775-28.68457-1.18756-12.32127-.38955-53.345-.39008Q162.46359,72.61409,150.12459,73.199Zm94.77619,69.88532a102.50648,102.50648,0,0,1,55.75606,55.75579,104.90006,104.90006,0,0,1,0,82.02981,102.54311,102.54311,0,0,1-55.75606,55.73848,104.70522,104.70522,0,0,1-82.02954,0A102.45219,102.45219,0,0,1,107.133,280.86987a104.70346,104.70346,0,0,1,0-82.02981,102.40106,102.40106,0,0,1,55.73821-55.75579A104.89706,104.89706,0,0,1,244.90078,143.08427Zm7.375,144.94774a67.794,67.794,0,1,0-48.381,20.29889A66.19877,66.19877,0,0,0,252.27582,288.032Zm77.65072-174.41275a23.41791,23.41791,0,0,0-16.93071-6.77207A24.14578,24.14578,0,0,0,295.48,113.81457a22.76343,22.76343,0,0,0-7.09127,16.93044,23.47221,23.47221,0,0,0,7.375,17.51583,24.00266,24.00266,0,0,0,17.32079,7.09127,22.19682,22.19682,0,0,0,17.12575-7.37477,24.67867,24.67867,0,0,0,6.77233-17.30321,22.87066,22.87066,0,0,0-7.09127-17.05487Z"/></g></g></g></svg>