<svg id="ds44-icons" xmlns="http://www.w3.org/2000/svg" viewBox="0 0 407.9 480"><title>instagram</title><g id="instagram"><g id="Groupe_2263" data-name="Groupe 2263"><g id="Tracé_1118" data-name="Tracé 1118"><path d="M258.66,36.55c8.61.43,18.24.75,28.84,1a209.44,209.44,0,0,1,28.37,3A129.54,129.54,0,0,1,337,46.32a137.72,137.72,0,0,1,19.31,10,96.79,96.79,0,0,1,17.32,13.93,101.65,101.65,0,0,1,14.18,17.52,118.94,118.94,0,0,1,9.75,19.11,128.73,128.73,0,0,1,6,20.92,166.71,166.71,0,0,1,2.78,28.45q.79,16.35,1.19,29.08t.41,54.55q0,41.81-.61,54.74c-.39,8.64-.74,18.26-1,28.88a209.45,209.45,0,0,1-3,28.37,129.7,129.7,0,0,1-5.78,21.1,138.85,138.85,0,0,1-10,19.32,98.86,98.86,0,0,1-13.93,17.32,100.35,100.35,0,0,1-17.52,14.18A116.24,116.24,0,0,1,337,433.53a128.79,128.79,0,0,1-20.9,6,164.09,164.09,0,0,1-28.49,2.78q-16.33.82-29.06,1.2t-54.55.39q-41.84,0-54.75-.58c-8.65-.41-18.26-.75-28.88-1a209.31,209.31,0,0,1-28.36-3,128.42,128.42,0,0,1-21.1-5.78,138.5,138.5,0,0,1-19.3-9.94,98.23,98.23,0,0,1-17.34-13.94A101.31,101.31,0,0,1,20.1,392.12,117.33,117.33,0,0,1,10.35,373a127.7,127.7,0,0,1-6-20.92A161.77,161.77,0,0,1,1.6,323.72Q.76,307.4.39,294.65T0,240.1q0-41.81.6-54.75t1-28.88a206.09,206.09,0,0,1,3-28.26,127.55,127.55,0,0,1,5.78-21.11,140.56,140.56,0,0,1,10-19.33,98.26,98.26,0,0,1,13.93-17.3A100.48,100.48,0,0,1,51.77,56.29a115.84,115.84,0,0,1,19.11-9.77,126.25,126.25,0,0,1,20.9-6,164.85,164.85,0,0,1,28.47-2.78q16.33-.8,29.08-1.19t54.55-.41Q245.7,36,258.66,36.55ZM150.12,73.2q-12.3.61-29.05,1A143,143,0,0,0,97.38,77a102.24,102.24,0,0,0-14.54,4.38,54.93,54.93,0,0,0-12.4,6.15,74.45,74.45,0,0,0-10.75,9,70.23,70.23,0,0,0-8.56,10.36,64.32,64.32,0,0,0-6.58,12.74,134.5,134.5,0,0,0-4,14.19,124.86,124.86,0,0,0-2.39,24.09q-.8,16.35-1.19,28.67t-.41,53.36q0,41.43.6,53.75t1,29.08A141.71,141.71,0,0,0,41,346.41,101,101,0,0,0,45.35,361a52.93,52.93,0,0,0,6.19,12.41A70.65,70.65,0,0,0,60.4,384.1a67.77,67.77,0,0,0,10.35,8.55,63.75,63.75,0,0,0,12.73,6.59,133.88,133.88,0,0,0,14.19,4,127.28,127.28,0,0,0,24.09,2.39q16.32.79,28.67,1.19t53.36.4q41.4,0,53.75-.58t29.08-1a142.9,142.9,0,0,0,23.68-2.79,103.51,103.51,0,0,0,14.54-4.37,54.45,54.45,0,0,0,12.41-6.17,77,77,0,0,0,10.76-9A72.6,72.6,0,0,0,356.57,373a62.93,62.93,0,0,0,6.56-12.74,137,137,0,0,0,4-14.19,125.85,125.85,0,0,0,2.38-24.11q.83-16.32,1.2-28.66t.39-53.37q0-41.41-.58-53.75c-.39-8.23-.75-17.92-1-29.08a142.9,142.9,0,0,0-2.79-23.68,101,101,0,0,0-4.38-14.54,53.64,53.64,0,0,0-6.17-12.41,74.87,74.87,0,0,0-8.86-10.76A70.54,70.54,0,0,0,337,87.12a62.58,62.58,0,0,0-12.75-6.58,134.42,134.42,0,0,0-14.18-4,125.84,125.84,0,0,0-24.1-2.39q-16.35-.81-28.68-1.19t-53.35-.39Q162.46,72.61,150.12,73.2Zm94.78,69.88a102.51,102.51,0,0,1,55.76,55.76,104.94,104.94,0,0,1,0,82,102.57,102.57,0,0,1-55.76,55.74,104.76,104.76,0,0,1-82,0,102.47,102.47,0,0,1-55.74-55.74,104.76,104.76,0,0,1,0-82,102.47,102.47,0,0,1,55.74-55.76A104.94,104.94,0,0,1,244.9,143.08ZM252.28,288a67.79,67.79,0,1,0-48.39,20.3A66.21,66.21,0,0,0,252.28,288Zm77.65-174.41A23.41,23.41,0,0,0,313,106.85a24.12,24.12,0,0,0-17.52,7,22.76,22.76,0,0,0-7.09,16.94,23.5,23.5,0,0,0,7.37,17.51,24,24,0,0,0,17.32,7.09A22.19,22.19,0,0,0,330.21,148,24.65,24.65,0,0,0,337,130.67a22.85,22.85,0,0,0-7.09-17Z"/></g></g></g></svg>