<svg id="ds44-icons" xmlns="http://www.w3.org/2000/svg" viewBox="0 0 480 480"><title>instagram</title><g id="instagram"><g id="Groupe_2263" data-name="Groupe 2263"><g id="Tracé_1118" data-name="Tracé 1118"><path d="M294.71,36.55c8.62.43,18.24.75,28.84,1a209.27,209.27,0,0,1,28.37,3A129.54,129.54,0,0,1,373,46.32a137.17,137.17,0,0,1,19.31,10,96.79,96.79,0,0,1,17.32,13.93,101.65,101.65,0,0,1,14.18,17.52,118.13,118.13,0,0,1,9.75,19.11,128.73,128.73,0,0,1,6,20.92,166.71,166.71,0,0,1,2.78,28.45q.79,16.35,1.19,29.08t.41,54.55q0,41.81-.6,54.74c-.39,8.64-.75,18.26-1,28.88a209.45,209.45,0,0,1-3,28.37,129.7,129.7,0,0,1-5.78,21.1,138.85,138.85,0,0,1-10,19.32,98.86,98.86,0,0,1-13.93,17.32,100.35,100.35,0,0,1-17.52,14.18,115.84,115.84,0,0,1-19.11,9.77,128.51,128.51,0,0,1-20.9,6,164.09,164.09,0,0,1-28.49,2.78q-16.33.82-29.06,1.2t-54.55.39q-41.83,0-54.74-.58c-8.66-.41-18.26-.75-28.88-1a209.29,209.29,0,0,1-28.37-3,128.7,128.7,0,0,1-21.1-5.78,138.5,138.5,0,0,1-19.3-9.94,98.23,98.23,0,0,1-17.34-13.94,101.25,101.25,0,0,1-14.18-17.53A116.54,116.54,0,0,1,46.41,373a126.76,126.76,0,0,1-6-20.92,162.73,162.73,0,0,1-2.78-28.37q-.84-16.32-1.21-29.07t-.39-54.55q0-41.81.6-54.75t1-28.88a204.56,204.56,0,0,1,3-28.26,126.58,126.58,0,0,1,5.78-21.11,140.5,140.5,0,0,1,9.94-19.33,98.32,98.32,0,0,1,13.94-17.3A100,100,0,0,1,87.82,56.29a116.24,116.24,0,0,1,19.11-9.77,126.53,126.53,0,0,1,20.9-6,164.85,164.85,0,0,1,28.47-2.78q16.33-.8,29.08-1.19t54.55-.41Q281.75,36,294.71,36.55ZM186.18,73.2q-12.31.61-29.06,1A143,143,0,0,0,133.43,77a102.5,102.5,0,0,0-14.53,4.38,55.21,55.21,0,0,0-12.41,6.15,75,75,0,0,0-10.75,9,70.87,70.87,0,0,0-8.56,10.36,64.32,64.32,0,0,0-6.58,12.74,134.5,134.5,0,0,0-4,14.19,125.66,125.66,0,0,0-2.39,24.09q-.8,16.35-1.19,28.67t-.41,53.36q0,41.43.61,53.75t1,29.08A142.76,142.76,0,0,0,77,346.41,102.24,102.24,0,0,0,81.4,361a52.93,52.93,0,0,0,6.19,12.41,70.65,70.65,0,0,0,8.86,10.74,67.37,67.37,0,0,0,10.36,8.55,63.67,63.67,0,0,0,12.72,6.59,134.55,134.55,0,0,0,14.19,4,127.28,127.28,0,0,0,24.09,2.39q16.33.79,28.67,1.19t53.36.4q41.4,0,53.75-.58t29.08-1a142.77,142.77,0,0,0,23.68-2.79,103.51,103.51,0,0,0,14.54-4.37,54.25,54.25,0,0,0,12.41-6.17,76.41,76.41,0,0,0,10.76-9A71.94,71.94,0,0,0,392.62,373a62.42,62.42,0,0,0,6.56-12.74,134.6,134.6,0,0,0,4-14.19,125.85,125.85,0,0,0,2.38-24.11q.82-16.32,1.2-28.66t.39-53.37q0-41.41-.58-53.75c-.39-8.23-.75-17.92-1-29.08a142.9,142.9,0,0,0-2.79-23.68,102.2,102.2,0,0,0-4.37-14.54,54.45,54.45,0,0,0-6.17-12.41,74.94,74.94,0,0,0-8.87-10.76A70.54,70.54,0,0,0,373,87.12a62.58,62.58,0,0,0-12.75-6.58,133.75,133.75,0,0,0-14.18-4A125.82,125.82,0,0,0,322,74.16q-16.37-.81-28.69-1.19T240,72.58Q198.52,72.61,186.18,73.2ZM281,143.08a102.51,102.51,0,0,1,55.76,55.76,104.94,104.94,0,0,1,0,82A102.57,102.57,0,0,1,281,336.61a104.76,104.76,0,0,1-82,0,102.47,102.47,0,0,1-55.74-55.74,104.76,104.76,0,0,1,0-82,102.47,102.47,0,0,1,55.74-55.76A104.94,104.94,0,0,1,281,143.08ZM288.33,288A67.79,67.79,0,1,0,240,308.33,66.21,66.21,0,0,0,288.33,288ZM366,113.62a23.41,23.41,0,0,0-16.93-6.77,24.15,24.15,0,0,0-17.52,7,22.79,22.79,0,0,0-7.09,16.94,23.47,23.47,0,0,0,7.38,17.51,24,24,0,0,0,17.32,7.09A22.18,22.18,0,0,0,366.26,148,24.65,24.65,0,0,0,373,130.67a22.85,22.85,0,0,0-7.09-17Z"/></g></g></g></svg>