<svg xmlns="http://www.w3.org/2000/svg" viewBox="0 0 20 20"><defs><style>.cls-1{fill:none;}</style></defs><title>instagram</title><g id="Calque_2" data-name="Calque 2"><g id="sources_non_vectorisés_" data-name="sources (non vectorisés)"><g id="instagram"><g id="Groupe_2263" data-name="Groupe 2263"><g id="Tracé_1118" data-name="Tracé 1118"><path d="M12.47,2l1.17,0a11.11,11.11,0,0,1,1.16.12,5.93,5.93,0,0,1,.85.24,5.32,5.32,0,0,1,.79.4,3.8,3.8,0,0,1,.7.57,4,4,0,0,1,.58.71,4.73,4.73,0,0,1,.39.78,4.89,4.89,0,0,1,.25.85,6.31,6.31,0,0,1,.11,1.15c0,.44,0,.84.05,1.18s0,1.09,0,2.22,0,1.87,0,2.22,0,.74,0,1.17a7.48,7.48,0,0,1-.12,1.16,4.87,4.87,0,0,1-.24.85,5.32,5.32,0,0,1-.4.79,3.8,3.8,0,0,1-.57.7,4,4,0,0,1-.71.58,4.28,4.28,0,0,1-.77.39,5.16,5.16,0,0,1-.85.25,6.42,6.42,0,0,1-1.16.11l-1.18.05-2.22,0q-1.7,0-2.22,0l-1.17,0a7.35,7.35,0,0,1-1.15-.12,4.22,4.22,0,0,1-.86-.24,4.79,4.79,0,0,1-.78-.4,3.55,3.55,0,0,1-.71-.57,3.55,3.55,0,0,1-.57-.71,4.3,4.3,0,0,1-.64-1.62A7.48,7.48,0,0,1,2,13.65c0-.44,0-.83,0-1.18s0-1.08,0-2.21S2,8.39,2,8s0-.75,0-1.18a11.21,11.21,0,0,1,.12-1.15,6.32,6.32,0,0,1,.24-.85,5.85,5.85,0,0,1,.4-.79,3.8,3.8,0,0,1,.57-.7,4,4,0,0,1,.71-.58,5.68,5.68,0,0,1,.78-.39,4.89,4.89,0,0,1,.85-.25A7.34,7.34,0,0,1,6.85,2L8,2h2.22C11.38,2,12.12,2,12.47,2ZM8.07,3.48l-1.18,0a6.26,6.26,0,0,0-1,.11c-.2.05-.39.11-.59.18a2.6,2.6,0,0,0-.5.25,3.08,3.08,0,0,0-.44.37,2.72,2.72,0,0,0-.34.42,2.49,2.49,0,0,0-.27.51,4.18,4.18,0,0,0-.16.58,4.59,4.59,0,0,0-.1,1c0,.44,0,.83,0,1.16s0,1.06,0,2.17,0,1.85,0,2.18,0,.73,0,1.18a6.26,6.26,0,0,0,.11,1c.05.2.11.39.18.59a2.34,2.34,0,0,0,.25.5,3.83,3.83,0,0,0,.36.44,2.72,2.72,0,0,0,.42.34,2.57,2.57,0,0,0,.52.27,3.83,3.83,0,0,0,.58.16,4.57,4.57,0,0,0,1,.1L8.08,17l2.17,0c1.12,0,1.84,0,2.18,0l1.18,0a6.27,6.27,0,0,0,1-.11,5.76,5.76,0,0,0,.59-.18,2.41,2.41,0,0,0,.51-.25,3,3,0,0,0,.43-.37,2.37,2.37,0,0,0,.35-.42,2.49,2.49,0,0,0,.27-.51c.06-.19.11-.38.16-.58a5.33,5.33,0,0,0,.09-1c0-.44,0-.83.05-1.16s0-1.06,0-2.17,0-1.85,0-2.18,0-.73-.05-1.18a5.24,5.24,0,0,0-.11-1,3.32,3.32,0,0,0-.18-.59,2.13,2.13,0,0,0-.25-.5,2.48,2.48,0,0,0-.36-.44,2.72,2.72,0,0,0-.42-.34,2.49,2.49,0,0,0-.51-.27,4.18,4.18,0,0,0-.58-.16,4.59,4.59,0,0,0-1-.1l-1.16,0H10.25C9.13,3.46,8.4,3.46,8.07,3.48Zm3.84,2.84a4.16,4.16,0,0,1,2.27,2.26,4.28,4.28,0,0,1,0,3.33,4.14,4.14,0,0,1-2.27,2.27,4.28,4.28,0,0,1-3.33,0,4.16,4.16,0,0,1-2.26-2.27,4.28,4.28,0,0,1,0-3.33A4.17,4.17,0,0,1,8.58,6.32,4.28,4.28,0,0,1,11.91,6.32Zm.3,5.89a2.75,2.75,0,1,0-2,.82A2.67,2.67,0,0,0,12.21,12.21Zm3.16-7.09a.93.93,0,0,0-.69-.27,1,1,0,0,0-1,1,1,1,0,0,0,.3.71,1,1,0,0,0,.7.29,1,1,0,0,0,.7-.3,1,1,0,0,0,.27-.71.9.9,0,0,0-.28-.69Z"/></g></g><g id="Rectangle_968" data-name="Rectangle 968"><rect class="cls-1" width="20" height="20"/></g></g></g></g></svg>