<svg id="ds44-icons" xmlns="http://www.w3.org/2000/svg" width="500" height="480" viewBox="0 0 500 480"><path d="M490.85338,324.191a18.37537,18.37537,0,0,0-25.98633,0l-87.50244,87.502V198.59524a18.375,18.375,0,1,0-36.75,0V411.6929l-87.502-87.502a18.37511,18.37511,0,0,0-25.98633,25.98633L345.99645,469.04739c.06256.06256.13146.1145.1947.176.36926.35888.74749.70861,1.14581,1.0357.239.19647.49048.36835.73682.551.23462.17382.4624.35583.70538.51855.28265.18939.57581.35431.86627.52631.22479.13324.44373.27478.67456.39856.29407.15747.59625.29168.89673.432.24359.11408.4823.2359.73157.33948.29425.122.59466.22113.89361.32709.26728.095.53034.19806.80317.28088.30346.09192.61151.16022.91839.23615.2749.06811.54566.14593.82538.20154.36237.07208.72809.11682,1.09344.16687.22876.03131.453.07592.68433.09875.60614.06012,1.21442.093,1.823.093s1.21686-.0329,1.823-.093c.23132-.02283.45556-.06744.68432-.09875.36536-.05.73108-.09479,1.09345-.16687.27972-.05561.55047-.13343.82538-.20154.30688-.07593.61493-.14423.91839-.23615.27283-.08282.53589-.18585.80316-.28088.29895-.106.59937-.20514.89362-.32709.24927-.10358.488-.2254.73157-.33948.30047-.14032.60266-.27453.89673-.432.23083-.12378.44976-.26532.67456-.39856.29046-.172.58361-.33692.86627-.52631.243-.16272.47076-.34473.70538-.51855.24634-.18262.49787-.3545.73682-.551.39831-.32709.77655-.67682,1.14581-1.0357.06323-.06147.13214-.11341.1947-.176L490.85338,350.17728A18.37538,18.37538,0,0,0,490.85338,324.191Z"/><path d="M246.88707,155.80911a18.37511,18.37511,0,0,0,25.98633-25.98633L154.00328,10.95267c-.06256-.06257-.13147-.11451-.1947-.176-.36926-.35889-.7475-.70862-1.14581-1.0357-.239-.19648-.49048-.36841-.73682-.551-.23462-.17383-.4624-.35583-.70538-.51855-.28266-.1894-.57581-.35431-.86628-.52631-.22479-.13324-.44372-.27478-.67456-.39856-.29406-.15747-.59625-.29169-.89672-.432-.2436-.11407-.4823-.2359-.73157-.33947-.29425-.12195-.59467-.22113-.89362-.32709-.26727-.095-.53033-.19806-.80316-.28088-.30347-.09192-.61151-.16022-.9184-.23615-.2749-.06811-.54565-.14593-.82537-.20154-.36237-.07208-.72809-.11682-1.09345-.16687-.22876-.03131-.453-.07593-.68432-.09875a18.48954,18.48954,0,0,0-3.646,0c-.23132.02282-.45557.06744-.68433.09875-.36535.05-.73108.09479-1.09344.16687-.27973.05561-.55048.13343-.82538.20154-.30689.07593-.61493.14423-.9184.23615-.27282.08282-.53589.18585-.80316.28088-.299.106-.59936.20514-.89361.32709-.24927.10357-.488.2254-.73157.33947-.30048.14032-.60266.27454-.89673.432-.23083.12378-.44977.26532-.67456.39856-.29047.172-.58362.33691-.86627.52631-.243.16272-.47077.34472-.70539.51855-.24633.18256-.49786.35449-.73681.551-.39832.32708-.77655.67681-1.14581,1.0357-.06324.06146-.13215.1134-.19471.176L9.14684,129.82278a18.37511,18.37511,0,0,0,25.98632,25.98633l87.502-87.502V281.40481a18.375,18.375,0,0,0,36.75,0V68.30716Z"/></svg>