<?xml version="1.0" encoding="utf-8"?>
<!-- Generator: Adobe Illustrator 23.1.1, SVG Export Plug-In . SVG Version: 6.00 Build 0)  -->
<svg version="1.1" id="Calque_1" xmlns="http://www.w3.org/2000/svg" xmlns:xlink="http://www.w3.org/1999/xlink" x="0px" y="0px"
	 viewBox="0 0 480 480" style="enable-background:new 0 0 480 480;" xml:space="preserve">
<title>like</title>
<g>
	<g id="ds44-icons">
		<g id="like">
			<g id="Tracé_1090">
				<path d="M359.6,453.6c-1.3,0-2.6,0-4-0.1l-149.5,0c-31.4-0.8-56.8-25.9-57.9-57.3l0-195.1c0-15,6-29.3,16.7-39.9L267.5,33.3
					c3.3-4.1,8.2-6.6,13.4-6.9c5.2-0.2,10.3,1.8,14.1,5.4l21,21c8.9,8.8,13.8,20.9,13.6,33.5c0,1.1-0.1,2.2-0.4,3.3l-14.8,74h100.8
					c15.2,0.1,29.8,6.1,40.5,16.9c10.7,9.6,17.3,24.3,17.3,39.7v39.5c0,7.3-1.4,14.5-4,21.3l-59.7,137.7
					C402.8,439.1,382.4,453.6,359.6,453.6z M357,416.6c8.5,0.3,15.7-4,18.1-11.1l60-138.6c0.8-2.4,1.2-4.9,1.2-7.4v-39.3
					c0-5-2.2-9.8-5.9-13.1c-4.5-4.5-9.7-6.7-15-6.7H292c-10.2,0-18.5-8.3-18.5-18.5c0-1.2,0.1-2.4,0.4-3.6l18.8-94
					c-0.2-2-1.1-3.9-2.6-5.4l-6.6-6.6L193,185.3c-0.5,0.7-1.1,1.3-1.8,1.9c-3.9,3.6-6,8.7-6.1,14v194.5c0.4,11.1,9.8,20.6,21.5,20.9
					H357z M103.9,453.4H25.3c-10.2,0-18.5-8.3-18.5-18.5V201c0-10.2,8.3-18.5,18.5-18.5h78.6c10.2,0,18.5,8.3,18.5,18.5v233.9
					C122.3,445.1,114.1,453.4,103.9,453.4z M43.7,416.5h41.7v-197H43.7V416.5z"/>
			</g>
		</g>
	</g>
</g>
</svg>
