<svg id="ds44-icons" xmlns="http://www.w3.org/2000/svg" width="466.4155" height="480" viewBox="0 0 466.4155 480"><title>like</title><g id="like"><g id="Tracé_1090" data-name="Tracé 1090"><path d="M352.78729,453.58925c-1.32252,0-2.645-.04809-3.97957-.14427l-149.45639.04809a59.3474,59.3474,0,0,1-57.85409-57.277l-.012-195.09523A56.31651,56.31651,0,0,1,158.173,161.241L260.74014,33.30553a18.48975,18.48975,0,0,1,13.39348-6.88911,19.26213,19.26213,0,0,1,14.06677,5.38625l21.028,21.028a45.93267,45.93267,0,0,1,13.6099,33.49574,18.64885,18.64885,0,0,1-.36069,3.27022L307.7015,163.54936H408.54939a57.56947,57.56947,0,0,1,40.5171,16.8681c10.67631,9.57021,17.27687,24.29823,17.349,39.69954v39.48313a59.5564,59.5564,0,0,1-4.00362,21.29251l-59.68156,137.71C395.98549,439.11371,375.59469,453.58925,352.78729,453.58925Zm-2.621-37.03046c8.50018.2645,15.72592-3.96755,18.09443-11.10914L428.24287,266.898a22.51041,22.51041,0,0,0,1.23835-7.382V220.24925A17.80785,17.80785,0,0,0,423.59,207.14431c-4.48509-4.49655-9.66639-6.66067-14.95646-6.66067H285.18265a18.45871,18.45871,0,0,1-18.10645-22.086L285.84391,84.4268a8.92084,8.92084,0,0,0-2.59694-5.35018l-6.58854-6.58853-90.412,112.77459a17.70858,17.70858,0,0,1-1.76736,1.91163,19.28132,19.28132,0,0,0-6.05953,13.97059V395.639c.36069,11.13319,9.79864,20.58317,21.48488,20.91981ZM97.07271,453.39688H18.46714A18.4719,18.4719,0,0,1,0,434.92974V201.02467a18.4719,18.4719,0,0,1,18.46714-18.46714H97.07271a18.4719,18.4719,0,0,1,18.46714,18.46714V434.92974A18.4719,18.4719,0,0,1,97.07271,453.39688ZM36.93428,416.46261H78.60557V219.49181H36.93428Z"/></g></g></svg>