<svg xmlns="http://www.w3.org/2000/svg" viewBox="0 0 20 20"><defs><style>.cls-1{fill:none;}.cls-2{fill:#232323;}</style></defs><title>like</title><g id="Calque_2" data-name="Calque 2"><g id="sources_non_vectorisés_" data-name="sources (non vectorisés)"><g id="like"><g id="Rectangle_921" data-name="Rectangle 921"><rect class="cls-1" width="20" height="20"/></g><g id="Tracé_1090" data-name="Tracé 1090"><path class="cls-2" d="M14.58,18.61H8.35A2.41,2.41,0,0,1,6,16.28V8.35a2.29,2.29,0,0,1,.67-1.62l4.17-5.19A.74.74,0,0,1,12,1.48l.86.85a1.86,1.86,0,0,1,.55,1.36.57.57,0,0,1,0,.13l-.6,3h4.09a2.29,2.29,0,0,1,1.65.68,2.2,2.2,0,0,1,.7,1.61h0v1.6a2.27,2.27,0,0,1-.16.86l-2.42,5.59A2.15,2.15,0,0,1,14.58,18.61Zm-.11-1.51a.72.72,0,0,0,.74-.45L17.64,11a.81.81,0,0,0,.05-.3V9.13a.71.71,0,0,0-.24-.53.81.81,0,0,0-.6-.27h-5a.74.74,0,0,1-.58-.28.73.73,0,0,1-.15-.62l.76-3.82a.33.33,0,0,0-.11-.21l-.26-.27L7.81,7.71l-.07.08a.78.78,0,0,0-.24.56v7.9a.89.89,0,0,0,.87.85ZM4.19,18.6H1a.76.76,0,0,1-.75-.75V8.35A.75.75,0,0,1,1,7.6H4.19a.74.74,0,0,1,.75.75v9.5A.75.75,0,0,1,4.19,18.6ZM1.75,17.1H3.44v-8H1.75Z"/></g></g></g></g></svg>