<svg id="ds44-icons" xmlns="http://www.w3.org/2000/svg" viewBox="0 0 480 480"><title>like</title><g id="like"><g id="Tracé_1090" data-name="Tracé 1090"><path d="M359.58,453.59c-1.32,0-2.65,0-4-.15l-149.46.05a59.34,59.34,0,0,1-57.85-57.27V201.12A56.28,56.28,0,0,1,165,161.24L267.53,33.31a18.45,18.45,0,0,1,13.4-6.89A19.26,19.26,0,0,1,295,31.8l21,21a45.93,45.93,0,0,1,13.61,33.5,18.08,18.08,0,0,1-.36,3.27l-14.78,74H415.34a57.57,57.57,0,0,1,40.52,16.87c10.68,9.57,17.28,24.3,17.35,39.7V259.6a59.43,59.43,0,0,1-4,21.29L409.52,418.6C402.78,439.11,382.39,453.59,359.58,453.59Zm-2.62-37c8.5.26,15.72-4,18.09-11.11L435,266.9a22.73,22.73,0,0,0,1.23-7.38V220.25a17.78,17.78,0,0,0-5.89-13.11c-4.48-4.49-9.66-6.66-14.95-6.66H292a18.45,18.45,0,0,1-18.1-22.08l18.77-94a9,9,0,0,0-2.6-5.35l-6.59-6.59L193,185.26a16,16,0,0,1-1.77,1.91,19.28,19.28,0,0,0-6.06,14v194.5c.36,11.13,9.8,20.58,21.49,20.92ZM103.86,453.4H25.26A18.47,18.47,0,0,1,6.79,434.93V201a18.47,18.47,0,0,1,18.47-18.46h78.6A18.47,18.47,0,0,1,122.33,201V434.93A18.47,18.47,0,0,1,103.86,453.4ZM43.73,416.46H85.4v-197H43.73Z"/></g></g></svg>