<svg id="ds44-icons" xmlns="http://www.w3.org/2000/svg" viewBox="0 0 466.42 480"><title>like</title><g id="like"><g id="Tracé_1090" data-name="Tracé 1090"><path d="M352.79,453.59c-1.33,0-2.65,0-4-.15l-149.46.05a59.33,59.33,0,0,1-57.85-57.27V201.12a56.31,56.31,0,0,1,16.68-39.88L260.74,33.31a18.45,18.45,0,0,1,13.39-6.89A19.27,19.27,0,0,1,288.2,31.8l21,21a45.93,45.93,0,0,1,13.61,33.5,20.07,20.07,0,0,1-.36,3.27l-14.78,74H408.55a57.61,57.61,0,0,1,40.52,16.87c10.67,9.57,17.27,24.3,17.35,39.7V259.6a59.65,59.65,0,0,1-4,21.29L402.73,418.6C396,439.11,375.59,453.59,352.79,453.59Zm-2.62-37c8.5.26,15.72-4,18.09-11.11l60-138.55a22.45,22.45,0,0,0,1.24-7.38V220.25a17.78,17.78,0,0,0-5.89-13.11c-4.49-4.49-9.67-6.66-15-6.66H285.18a18.45,18.45,0,0,1-18.1-22.08l18.76-94a8.89,8.89,0,0,0-2.59-5.35l-6.59-6.59L186.25,185.26a16,16,0,0,1-1.77,1.91,19.28,19.28,0,0,0-6.06,14v194.5c.36,11.13,9.8,20.58,21.48,20.92ZM97.07,453.4H18.47A18.47,18.47,0,0,1,0,434.93V201a18.47,18.47,0,0,1,18.47-18.46h78.6A18.47,18.47,0,0,1,115.54,201V434.93A18.47,18.47,0,0,1,97.07,453.4ZM36.93,416.46H78.61v-197H36.93Z"/></g></g></svg>