<svg id="ds44-icons" xmlns="http://www.w3.org/2000/svg" viewBox="0 0 408.34 480"><title>linkedin</title><path d="M84.54,121.78a48.38,48.38,0,0,1-16,10.77,50.13,50.13,0,0,1-19.14,3.59,50.55,50.55,0,0,1-18.94-3.59,47.57,47.57,0,0,1-16.15-10.77A48.76,48.76,0,0,1,3.59,106,49.68,49.68,0,0,1,0,86.69,47.61,47.61,0,0,1,3.59,68.15,48.76,48.76,0,0,1,14.36,52.4a54,54,0,0,1,16-11.17,45.78,45.78,0,0,1,19.14-4,46.27,46.27,0,0,1,18.94,4A53.37,53.37,0,0,1,84.54,52.4,49.86,49.86,0,0,1,95.31,68a47.15,47.15,0,0,1,3.58,18.74A49.68,49.68,0,0,1,95.31,106,49.08,49.08,0,0,1,84.54,121.78ZM96.5,176V433.62a7,7,0,0,1-1,3.39c-.66,1.19-1.39,2.45-2.19,3.79A30.75,30.75,0,0,1,89.92,443a7.73,7.73,0,0,1-3.79,1H12.76a7.1,7.1,0,0,1-3.39-1c-1.2-.67-2.46-1.4-3.79-2.19a31.18,31.18,0,0,1-2.19-3.39,7.68,7.68,0,0,1-1-3.79V176a7,7,0,0,1,1-3.39c.66-1.19,1.4-2.45,2.19-3.78A30.31,30.31,0,0,1,9,166.64a7.74,7.74,0,0,1,3.79-1H86.13a7,7,0,0,1,3.39,1c1.2.67,2.46,1.4,3.79,2.2a28.08,28.08,0,0,1,2.19,3.39A7.61,7.61,0,0,1,96.5,176Zm209,69.39a24.07,24.07,0,0,0-11.17-7.18,56.17,56.17,0,0,0-17.55-2.39q-13.15,0-22.13,4A37.22,37.22,0,0,0,240.06,251a55,55,0,0,0-7.78,18.35,106,106,0,0,0-2.59,24.72V433.62a10.74,10.74,0,0,1-.6,3.39,10.3,10.3,0,0,1-2.59,3.79,12.52,12.52,0,0,1-3.19,2.19,8.92,8.92,0,0,1-4,1H146a7.07,7.07,0,0,1-3.39-1c-1.2-.67-2.46-1.4-3.79-2.19a29.75,29.75,0,0,1-2.19-3.39,7.68,7.68,0,0,1-1-3.79V176a7,7,0,0,1,1-3.39q1-1.78,2.19-3.78a29.42,29.42,0,0,1,3.39-2.2,7.74,7.74,0,0,1,3.79-1h71a15.45,15.45,0,0,1,3.39.4,8.78,8.78,0,0,1,3,1.19,3,3,0,0,1,1.79,2c.4,1.07.86,2.27,1.4,3.59a12.79,12.79,0,0,0,.4,3.19,11.43,11.43,0,0,1,.4,2.4v6.38a83.25,83.25,0,0,1,31.9-19.34q18.33-6.18,40.67-6.18,25.51,0,45.46,6A89.47,89.47,0,0,1,379.63,184a82.83,82.83,0,0,1,21.53,31.9q7.17,18.75,7.18,43.87V433.62a10.74,10.74,0,0,1-.6,3.39,10.42,10.42,0,0,1-2.59,3.79A12.7,12.7,0,0,1,402,443a9,9,0,0,1-4,1H323a7.1,7.1,0,0,1-3.39-1c-1.19-.67-2.46-1.4-3.79-2.19a31.18,31.18,0,0,1-2.19-3.39,7.68,7.68,0,0,1-1-3.79V276.5a79.06,79.06,0,0,0-1.79-17.74A42.14,42.14,0,0,0,305.46,245.4Z"/></svg>