<svg id="ds44-icons" xmlns="http://www.w3.org/2000/svg" viewBox="0 0 480 480"><title>linkedin</title><path d="M120.37,121.78a48.38,48.38,0,0,1-16,10.77,52.28,52.28,0,0,1-38.08,0,47.67,47.67,0,0,1-16.15-10.77A48.76,48.76,0,0,1,39.42,106a49.68,49.68,0,0,1-3.59-19.34,47.61,47.61,0,0,1,3.59-18.54A48.76,48.76,0,0,1,50.19,52.4a54,54,0,0,1,16-11.17,45.78,45.78,0,0,1,19.14-4,46.27,46.27,0,0,1,18.94,4A53.37,53.37,0,0,1,120.37,52.4,49.69,49.69,0,0,1,131.14,68a47.16,47.16,0,0,1,3.59,18.74A49.68,49.68,0,0,1,131.14,106,48.92,48.92,0,0,1,120.37,121.78Zm12,54.23V433.62a7.08,7.08,0,0,1-1,3.39c-.67,1.19-1.4,2.45-2.2,3.79a30.75,30.75,0,0,1-3.39,2.19,7.72,7.72,0,0,1-3.78,1H48.59a7.1,7.1,0,0,1-3.39-1c-1.19-.67-2.46-1.4-3.79-2.19a31.18,31.18,0,0,1-2.19-3.39,7.68,7.68,0,0,1-1-3.79V176a7,7,0,0,1,1-3.39c.66-1.19,1.4-2.45,2.19-3.78a30.31,30.31,0,0,1,3.39-2.2,7.74,7.74,0,0,1,3.79-1H122a7,7,0,0,1,3.38,1c1.2.67,2.46,1.4,3.79,2.2a29.42,29.42,0,0,1,2.2,3.39A7.71,7.71,0,0,1,132.33,176Zm209,69.39a24,24,0,0,0-11.17-7.18,56.06,56.06,0,0,0-17.54-2.39q-13.17,0-22.14,4A37.22,37.22,0,0,0,275.89,251a55,55,0,0,0-7.78,18.35,106,106,0,0,0-2.59,24.72V433.62a10.74,10.74,0,0,1-.6,3.39,10.3,10.3,0,0,1-2.59,3.79,12.52,12.52,0,0,1-3.19,2.19,8.92,8.92,0,0,1-4,1H181.78a7.07,7.07,0,0,1-3.39-1c-1.2-.67-2.46-1.4-3.79-2.19a29.75,29.75,0,0,1-2.19-3.39,7.68,7.68,0,0,1-1-3.79V176a7,7,0,0,1,1-3.39q1-1.78,2.19-3.78a30.31,30.31,0,0,1,3.39-2.2,7.74,7.74,0,0,1,3.79-1h71a15.45,15.45,0,0,1,3.39.4,8.7,8.7,0,0,1,3,1.19,3.06,3.06,0,0,1,1.8,2c.39,1.07.86,2.27,1.39,3.59a12.79,12.79,0,0,0,.4,3.19,11.43,11.43,0,0,1,.4,2.4v6.38A83.25,83.25,0,0,1,295,165.45q18.33-6.18,40.67-6.18,25.51,0,45.46,6A89.47,89.47,0,0,1,415.46,184,82.72,82.72,0,0,1,437,215.89q7.18,18.75,7.18,43.87V433.62a10.74,10.74,0,0,1-.6,3.39A10.3,10.3,0,0,1,441,440.8a12.52,12.52,0,0,1-3.19,2.19,9,9,0,0,1-4,1h-75a7.1,7.1,0,0,1-3.39-1c-1.19-.67-2.46-1.4-3.79-2.19a31.18,31.18,0,0,1-2.19-3.39,7.68,7.68,0,0,1-1-3.79V276.5a79.06,79.06,0,0,0-1.79-17.74A42.14,42.14,0,0,0,341.29,245.4Z"/></svg>