<?xml version="1.0" encoding="utf-8"?>
<!-- Generator: Adobe Illustrator 23.1.1, SVG Export Plug-In . SVG Version: 6.00 Build 0)  -->
<svg version="1.1" id="Calque_1" xmlns="http://www.w3.org/2000/svg" xmlns:xlink="http://www.w3.org/1999/xlink" x="0px" y="0px"
	 viewBox="0 0 480 480" style="enable-background:new 0 0 480 480;" xml:space="preserve">
<title>link</title>
<g>
	<g id="ds44-icons">
		<g id="link">
			<g id="Tracé_1095">
				<path d="M355.1,258.5H136c-10.2,0-18.5-8.3-18.5-18.5c0-10.2,8.3-18.5,18.5-18.5h219.2c10.2,0,18.5,8.3,18.5,18.5
					C373.6,250.2,365.3,258.5,355.1,258.5C355.1,258.5,355.1,258.5,355.1,258.5z"/>
			</g>
			<g id="Tracé_1093">
				<path d="M198.2,371.3H138C65.6,371.3,6.7,312.4,6.7,240S65.6,108.7,138,108.7h60.2c10.2,0,18.5,8.3,18.5,18.5
					s-8.3,18.5-18.5,18.5c0,0,0,0,0,0H138c-52.1,0-94.4,42.3-94.4,94.4c0,52.1,42.3,94.4,94.4,94.4h60.2c10.2,0,18.5,8.3,18.5,18.5
					C216.7,363.1,208.4,371.3,198.2,371.3C198.2,371.3,198.2,371.3,198.2,371.3L198.2,371.3z"/>
			</g>
			<g id="Tracé_1094">
				<path d="M342,371.3h-60.2c-10.2,0-18.5-8.3-18.5-18.5c0-10.2,8.3-18.5,18.5-18.5H342c52.1,0,94.4-42.2,94.4-94.3
					c0-52.1-42.2-94.4-94.3-94.4c0,0-0.1,0-0.1,0h-60.2c-10.2,0-18.5-8.3-18.5-18.5c0-10.2,8.3-18.5,18.5-18.5H342
					c72.4,0,131.3,58.9,131.3,131.3S414.4,371.3,342,371.3z"/>
			</g>
		</g>
	</g>
</g>
</svg>
