<svg id="ds44-icons" xmlns="http://www.w3.org/2000/svg" viewBox="0 0 480 480"><title>link</title><g id="link"><g id="Tracé_1095" data-name="Tracé 1095"><path d="M355.12,258.48H136a18.47,18.47,0,1,1,0-36.94H355.12a18.47,18.47,0,0,1,0,36.94Z"/></g><g id="Tracé_1093" data-name="Tracé 1093"><path d="M198.2,371.33H138C65.61,371.33,6.7,312.41,6.7,240S65.61,108.7,138,108.7H198.2a18.47,18.47,0,0,1,0,36.93H138a94.38,94.38,0,0,0,0,188.76H198.2a18.47,18.47,0,0,1,0,36.94Z"/></g><g id="Tracé_1094" data-name="Tracé 1094"><path d="M342,371.3H281.8a18.47,18.47,0,0,1,0-36.93H342a94.38,94.38,0,0,0,0-188.76H281.8a18.47,18.47,0,0,1,0-36.94H342c72.4,0,131.31,58.92,131.31,131.32S414.39,371.3,342,371.3Z"/></g></g></svg>