<svg xmlns="http://www.w3.org/2000/svg" viewBox="0 0 20 20"><defs><style>.cls-1{fill:none;}</style></defs><title>link</title><g id="Calque_2" data-name="Calque 2"><g id="sources_non_vectorisés_" data-name="sources (non vectorisés)"><g id="link"><g id="Tracé_1095" data-name="Tracé 1095"><path d="M14.6,10.33H5.7a.75.75,0,0,1,0-1.5h8.9a.75.75,0,0,1,0,1.5Z"/></g><g id="Tracé_1093" data-name="Tracé 1093"><path d="M8.23,14.92H5.78a5.34,5.34,0,0,1,0-10.67H8.23a.75.75,0,0,1,0,1.5H5.78a3.84,3.84,0,0,0,0,7.67H8.23a.75.75,0,0,1,0,1.5Z"/></g><g id="Tracé_1094" data-name="Tracé 1094"><path d="M14.07,14.91H11.62a.75.75,0,0,1,0-1.5h2.45a3.83,3.83,0,0,0,0-7.66H11.62a.75.75,0,1,1,0-1.5h2.45a5.33,5.33,0,0,1,0,10.66Z"/></g><g id="Rectangle_931" data-name="Rectangle 931"><rect class="cls-1" width="20" height="20"/></g></g></g></g></svg>