<svg id="ds44-icons" xmlns="http://www.w3.org/2000/svg" width="466.60787" height="480" viewBox="0 0 466.60787 480"><title>link</title><g id="link"><g id="Tracé_1095" data-name="Tracé 1095"><path d="M348.423,258.47916H129.27a18.46714,18.46714,0,0,1,0-36.93428H348.423a18.46714,18.46714,0,1,1,0,36.93428Z"/></g><g id="Tracé_1093" data-name="Tracé 1093"><path d="M191.50039,371.32589H131.31387C58.9121,371.32589,0,312.41379,0,240.012S58.9121,108.69816,131.31387,108.69816h60.18652a18.46714,18.46714,0,1,1,0,36.93428H131.31387a94.37959,94.37959,0,1,0,0,188.75917h60.18652a18.46714,18.46714,0,1,1,0,36.93428Z"/></g><g id="Tracé_1094" data-name="Tracé 1094"><path d="M335.294,371.30184H275.10748a18.46714,18.46714,0,0,1,0-36.93428H335.294a94.37958,94.37958,0,1,0,0-188.75917H275.10748a18.46714,18.46714,0,0,1,0-36.93428H335.294c72.40177,0,131.31387,58.9121,131.31387,131.31387S407.69577,371.30184,335.294,371.30184Z"/></g></g></svg>