<svg id="ds44-icons" xmlns="http://www.w3.org/2000/svg" width="408.33691" height="480" viewBox="0 0 408.33691 480"><path d="M84.53857,121.78187a48.39718,48.39718,0,0,1-15.95068,10.7666,50.08859,50.08859,0,0,1-19.14062,3.58887,50.5171,50.5171,0,0,1-18.94141-3.58887,47.79846,47.79846,0,0,1-16.15039-10.7666,48.92578,48.92578,0,0,1-10.7666-15.75146A49.65329,49.65329,0,0,1,0,86.69056a47.56615,47.56615,0,0,1,3.58887-18.543,48.9973,48.9973,0,0,1,10.7666-15.751A54.17029,54.17029,0,0,1,30.30615,41.23109,45.74525,45.74525,0,0,1,49.44727,37.2433a46.20389,46.20389,0,0,1,18.9414,3.98779,53.37724,53.37724,0,0,1,16.1499,11.16553A49.67569,49.67569,0,0,1,95.30518,67.94837,47.13131,47.13131,0,0,1,98.894,86.69056a49.65347,49.65347,0,0,1-3.58886,19.33985A48.92581,48.92581,0,0,1,84.53857,121.78187Zm11.96289,54.23242v257.603a7.072,7.072,0,0,1-.99707,3.38965c-.6665,1.19629-1.3955,2.45508-2.19287,3.78808a29.99041,29.99041,0,0,1-3.38964,2.19336,7.73432,7.73432,0,0,1-3.78809.99707H12.76074a7.05416,7.05416,0,0,1-3.38965-.99707q-1.79444-.99975-3.78857-2.19336a29.19143,29.19143,0,0,1-2.19287-3.38916,7.66841,7.66841,0,0,1-.99707-3.78857v-257.603a7.00393,7.00393,0,0,1,.99707-3.38965c.66015-1.19628,1.39551-2.45507,2.19287-3.78808a29.47446,29.47446,0,0,1,3.38965-2.19336,7.71831,7.71831,0,0,1,3.78857-.99707H86.13379a7.07183,7.07183,0,0,1,3.38916.99707c1.19629.6665,2.45508,1.39551,3.78857,2.19336a30.0478,30.0478,0,0,1,2.19287,3.38916A7.73611,7.73611,0,0,1,96.50146,176.01429Zm208.95362,69.38526a23.98444,23.98444,0,0,0-11.165-7.17774,55.96655,55.96655,0,0,0-17.5459-2.39258q-13.15943,0-22.13184,3.9878a37.17949,37.17949,0,0,0-14.55468,11.16552,54.90123,54.90123,0,0,0-7.77588,18.34327,105.93774,105.93774,0,0,0-2.59229,24.72314V433.61732a10.748,10.748,0,0,1-.59814,3.38965,10.20951,10.20951,0,0,1-2.5918,3.78808,12.24878,12.24878,0,0,1-3.18994,2.19336,8.92084,8.92084,0,0,1-3.98779.99707h-73.373a7.05416,7.05416,0,0,1-3.38965-.99707q-1.79444-.99975-3.78808-2.19336a29.19341,29.19341,0,0,1-2.19336-3.38916,7.67349,7.67349,0,0,1-.99707-3.78857v-257.603a7.00915,7.00915,0,0,1,.99707-3.38965c.66064-1.19628,1.3955-2.45507,2.19336-3.78808a29.42562,29.42562,0,0,1,3.38916-2.19336,7.71829,7.71829,0,0,1,3.78857-.99707H216.9292a15.94173,15.94173,0,0,1,3.38916.39892,8.887,8.887,0,0,1,2.99121,1.19629A3.03943,3.03943,0,0,1,225.104,169.235c.39844,1.06543.85987,2.26171,1.39551,3.58886a12.9662,12.9662,0,0,0,.39893,3.19043,11.19815,11.19815,0,0,1,.39844,2.39258v6.38037a83.42354,83.42354,0,0,1,31.90136-19.34033,126.81671,126.81671,0,0,1,40.67432-6.18115q25.51464,0,45.45947,5.98193a89.61028,89.61028,0,0,1,34.294,18.7417,82.78451,82.78451,0,0,1,21.5332,31.90137q7.17774,18.74853,7.17773,43.86426v173.8623a10.74774,10.74774,0,0,1-.59814,3.38965,10.20951,10.20951,0,0,1-2.5918,3.78808,12.24878,12.24878,0,0,1-3.18994,2.19336,8.92081,8.92081,0,0,1-3.98779.99707H323.001a7.05416,7.05416,0,0,1-3.38965-.99707q-1.79444-.99975-3.78809-2.19336a29.26047,29.26047,0,0,1-2.19336-3.38916,7.6736,7.6736,0,0,1-.99707-3.78857V276.50355a79.31731,79.31731,0,0,0-1.79394-17.74512A42.02234,42.02234,0,0,0,305.45508,245.39955Z"/></svg>