<svg id="ds44-icons" xmlns="http://www.w3.org/2000/svg" viewBox="0 0 466.61 480"><title>link</title><g id="link"><g id="Tracé_1095" data-name="Tracé 1095"><path d="M348.42,258.48H129.27a18.47,18.47,0,0,1,0-36.94H348.42a18.47,18.47,0,0,1,0,36.94Z"/></g><g id="Tracé_1093" data-name="Tracé 1093"><path d="M191.5,371.33H131.31C58.91,371.33,0,312.41,0,240S58.91,108.7,131.31,108.7H191.5a18.47,18.47,0,1,1,0,36.93H131.31a94.38,94.38,0,0,0,0,188.76H191.5a18.47,18.47,0,0,1,0,36.94Z"/></g><g id="Tracé_1094" data-name="Tracé 1094"><path d="M335.29,371.3H275.11a18.47,18.47,0,1,1,0-36.93h60.18a94.38,94.38,0,0,0,0-188.76H275.11a18.47,18.47,0,0,1,0-36.94h60.18c72.41,0,131.32,58.92,131.32,131.32S407.7,371.3,335.29,371.3Z"/></g></g></svg>