<?xml version="1.0" encoding="utf-8"?>
<!-- Generator: Adobe Illustrator 23.1.1, SVG Export Plug-In . SVG Version: 6.00 Build 0)  -->
<svg version="1.1" id="Calque_1" xmlns="http://www.w3.org/2000/svg" xmlns:xlink="http://www.w3.org/1999/xlink" x="0px" y="0px"
	 viewBox="0 0 640 480" style="enable-background:new 0 0 640 480;" xml:space="preserve">
<title>long-arrow-rght</title>
<g>
	<g id="ds44-icons">
		<g id="long-arrow-rght">
			<path d="M613.2,247.1c1.9-4.6,1.9-9.7,0-14.3c-0.7-1.4-1.6-2.8-2.7-4c-0.4-0.7-0.8-1.3-1.3-1.9L467.9,85.6
				c-7.2-7.2-18.9-7.2-26.1,0c-7.2,7.2-7.2,18.9,0,26.1l0,0l109.8,109.8H43.9c-10.2,0-18.5,8.3-18.5,18.5c0,10.2,8.3,18.5,18.5,18.5
				c0,0,0,0,0,0h507.7L441.8,368.2c-7.2,7.2-7.2,18.9,0,26.1c7.2,7.2,18.9,7.2,26.1,0c0,0,0,0,0,0l141.3-141.3
				c0.5-0.6,0.9-1.3,1.3-1.9C611.6,249.9,612.5,248.6,613.2,247.1z"/>
		</g>
	</g>
</g>
</svg>
