<svg xmlns="http://www.w3.org/2000/svg" viewBox="0 0 30 20"><defs><style>.cls-1{fill:none;}</style></defs><title>long-arrow-left</title><g id="Calque_2" data-name="Calque 2"><g id="sources_non_vectorisés_" data-name="sources (non vectorisés)"><g id="long-arrow-left"><g id="Rectangle_896" data-name="Rectangle 896"><rect class="cls-1" width="30" height="20"/></g><path d="M26.43,9H5.81l4.46-4.46A.75.75,0,1,0,9.21,3.47L3.47,9.21a.78.78,0,0,0-.16.24.72.72,0,0,0-.06.29.75.75,0,0,0,.22.53L9.21,16a.75.75,0,0,0,1.06,0,.75.75,0,0,0,0-1.06L5.81,10.49H26.43a.75.75,0,0,0,0-1.5Z"/></g></g></g></svg>