<svg xmlns="http://www.w3.org/2000/svg" viewBox="0 0 30 20"><defs><style>.cls-1{fill:none;}</style></defs><title>long-arrow-rght</title><g id="Calque_2" data-name="Calque 2"><g id="sources_non_vectorisés_" data-name="sources (non vectorisés)"><g id="long-arrow-rght"><g id="Rectangle_894" data-name="Rectangle 894"><rect class="cls-1" width="30" height="20"/></g><path d="M27.12,10a.73.73,0,0,0,0-.58A.57.57,0,0,0,27,9.29.56.56,0,0,0,27,9.21L21.22,3.47a.75.75,0,1,0-1.06,1.06L24.62,9H4a.75.75,0,0,0,0,1.5H24.62L20.16,15a.75.75,0,0,0,0,1.06.79.79,0,0,0,.53.22.77.77,0,0,0,.53-.22L27,10.27s0-.06.05-.08A.57.57,0,0,0,27.12,10Z"/></g></g></g></svg>