<svg id="ds44-icons" xmlns="http://www.w3.org/2000/svg" width="319.54403" height="640" viewBox="0 0 319.54403 640"><title>long-arrow-up</title><g id="long-arrow-rght"><path d="M166.90609,26.83867a18.23715,18.23715,0,0,0-14.26815,0,18.21932,18.21932,0,0,0-3.97657,2.65555,17.98455,17.98455,0,0,0-1.9462,1.30148L5.41029,172.1126A18.46517,18.46517,0,1,0,31.524,198.22629L141.30488,88.43487V596.14746a18.46714,18.46714,0,0,0,36.93428,0V88.43487L288.02005,198.22629a18.46517,18.46517,0,1,0,26.11369-26.11369L172.82886,30.7957a17.98455,17.98455,0,0,0-1.9462-1.30148A18.21908,18.21908,0,0,0,166.90609,26.83867Z"/></g></svg>