<?xml version="1.0" encoding="utf-8"?>
<!-- Generator: Adobe Illustrator 23.1.1, SVG Export Plug-In . SVG Version: 6.00 Build 0)  -->
<svg version="1.1" id="Calque_1" xmlns="http://www.w3.org/2000/svg" xmlns:xlink="http://www.w3.org/1999/xlink" x="0px" y="0px"
	 viewBox="0 0 640 480" style="enable-background:new 0 0 640 480;" xml:space="preserve">
<title>long-arrow-left</title>
<g>
	<g id="ds44-icons">
		<g id="long-arrow-left">
			<path d="M596.2,221.5H88.5l109.7-109.7c7.2-7.2,7.2-18.9,0-26.1c-7.2-7.2-18.9-7.2-26.1,0L30.8,226.9c-7.2,7.2-7.3,18.9-0.1,26.1
				c0,0,0,0,0.1,0.1l141.3,141.3c7.2,7.2,18.9,7.2,26.1,0c7.2-7.2,7.2-18.9,0-26.1c0,0,0,0,0,0L88.4,258.4h507.8
				c10.2,0,18.5-8.3,18.5-18.5C614.7,229.8,606.4,221.5,596.2,221.5C596.2,221.5,596.2,221.5,596.2,221.5z"/>
		</g>
	</g>
</g>
</svg>
