<svg id="ds44-icons" xmlns="http://www.w3.org/2000/svg" width="589.22919" height="480" viewBox="0 0 589.22919 480"><title>long-arrow-right</title><g id="long-arrow-rght"><path d="M587.77593,247.13407a18.23725,18.23725,0,0,0,0-14.26814,18.21877,18.21877,0,0,0-2.65556-3.97657,17.981,17.981,0,0,0-1.30147-1.9462L442.502,85.63828A18.46517,18.46517,0,1,0,416.38831,111.752L526.17972,221.53286H18.46714a18.46714,18.46714,0,1,0,0,36.93428H526.17972L416.38831,368.248A18.46517,18.46517,0,1,0,442.502,394.36172L583.8189,253.05684a17.981,17.981,0,0,0,1.30147-1.9462A18.21877,18.21877,0,0,0,587.77593,247.13407Z"/></g></svg>