<?xml version="1.0" encoding="utf-8"?>
<!-- Generator: Adobe Illustrator 23.1.1, SVG Export Plug-In . SVG Version: 6.00 Build 0)  -->
<svg version="1.1" id="Calque_1" xmlns="http://www.w3.org/2000/svg" xmlns:xlink="http://www.w3.org/1999/xlink" x="0px" y="0px"
	 viewBox="0 0 480 480" style="enable-background:new 0 0 480 480;" xml:space="preserve">
<title>magnifier</title>
<g>
	<g id="ds44-icons">
		<g id="magnifier">
			<path d="M395.8,375.8L292.9,272.9c18.1-21.2,29.4-48.4,29.4-78.4c0-67.2-54.5-121.7-121.7-121.7S78.8,127.2,78.8,194.4
				s54.5,121.7,121.7,121.7c22.9-0.1,45.2-6.6,64.5-18.9l104.6,104.6c7.2,7.2,18.9,7.2,26.1,0C403,394.7,403,383,395.8,375.8
				C395.8,375.8,395.8,375.8,395.8,375.8L395.8,375.8z M115.7,194.5c0-46.8,38-84.8,84.8-84.8s84.8,38,84.8,84.8
				c0,46.8-38,84.8-84.8,84.8c0,0,0,0,0,0C153.7,279.2,115.8,241.3,115.7,194.5z"/>
		</g>
	</g>
</g>
</svg>
