<svg xmlns="http://www.w3.org/2000/svg" viewBox="0 0 20 20"><defs><style>.cls-1{fill:none;}</style></defs><title>magnifier</title><g id="Calque_2" data-name="Calque 2"><g id="sources_non_vectorisés_" data-name="sources (non vectorisés)"><g id="magnifier"><path d="M16.12,15.56l-4.18-4.18a4.9,4.9,0,0,0,1.2-3.19,4.95,4.95,0,1,0-5,5,4.88,4.88,0,0,0,2.62-.77l4.25,4.25a.79.79,0,0,0,.53.22.75.75,0,0,0,.53-.22A.74.74,0,0,0,16.12,15.56ZM4.75,8.19a3.45,3.45,0,1,1,3.44,3.45A3.44,3.44,0,0,1,4.75,8.19Z"/><g id="Rectangle_898" data-name="Rectangle 898"><rect class="cls-1" width="20" height="20"/></g></g></g></g></svg>