<svg xmlns="http://www.w3.org/2000/svg" viewBox="0 0 20 20"><defs><style>.cls-1{fill:none;}</style></defs><title>magweb</title><g id="Calque_2" data-name="Calque 2"><g id="sources_non_vectorisés_" data-name="sources (non vectorisés)"><g id="magweb"><g id="Groupe_2266" data-name="Groupe 2266"><g id="Tracé_1120" data-name="Tracé 1120"><path d="M1.56,3.36l2.08,5h0l2.09-5h.61V9H5.91V6.52L6,4h0L3.82,9H3.5l-2.1-5h0l0,2.46V9H1V3.36Z"/></g><g id="Tracé_1121" data-name="Tracé 1121"><path d="M10.4,9a2,2,0,0,1-.07-.37c0-.1,0-.21,0-.31a1.82,1.82,0,0,1-1.5.77,1.32,1.32,0,0,1-1-.33,1.16,1.16,0,0,1-.35-.88A1.09,1.09,0,0,1,8,7a2.33,2.33,0,0,1,1.36-.35h.93V6.1A.9.9,0,0,0,10,5.39a1.15,1.15,0,0,0-.81-.26,1.3,1.3,0,0,0-.81.25.71.71,0,0,0-.32.6H7.65V6a1,1,0,0,1,.43-.84,1.74,1.74,0,0,1,1.16-.37,1.68,1.68,0,0,1,1.12.35,1.24,1.24,0,0,1,.42,1V8.17a3.25,3.25,0,0,0,0,.44,1.86,1.86,0,0,0,.08.41ZM8.87,8.69a1.61,1.61,0,0,0,.88-.23,1.41,1.41,0,0,0,.56-.6V7H9.37a1.78,1.78,0,0,0-1,.27A.79.79,0,0,0,8,7.92a.71.71,0,0,0,.23.55A.89.89,0,0,0,8.87,8.69Z"/></g><g id="Tracé_1122" data-name="Tracé 1122"><path d="M11.83,7a2.7,2.7,0,0,1,.43-1.61,1.4,1.4,0,0,1,1.2-.61,1.54,1.54,0,0,1,.78.2,1.77,1.77,0,0,1,.54.55l.05-.67h.39V9a1.73,1.73,0,0,1-.45,1.28,1.66,1.66,0,0,1-1.25.48,3.4,3.4,0,0,1-.64-.08,2.49,2.49,0,0,1-.6-.2l.12-.39a2.28,2.28,0,0,0,.52.18,2.38,2.38,0,0,0,.59.07,1.19,1.19,0,0,0,.93-.36,1.45,1.45,0,0,0,.32-1V8.44a1.49,1.49,0,0,1-.54.49,1.71,1.71,0,0,1-.77.18,1.43,1.43,0,0,1-1.19-.57A2.5,2.5,0,0,1,11.83,7ZM12.3,7a2.16,2.16,0,0,0,.31,1.22,1,1,0,0,0,.93.46,1.33,1.33,0,0,0,.75-.21,1.37,1.37,0,0,0,.47-.57V6a1.56,1.56,0,0,0-.45-.6,1.17,1.17,0,0,0-.76-.24,1,1,0,0,0-.94.51A2.49,2.49,0,0,0,12.3,7Z"/></g><g id="Groupe_2265" data-name="Groupe 2265"><g id="Tracé_1123" data-name="Tracé 1123"><path d="M9.18,15.21h0L10,11.33h1.11L9.8,17H8.75l-1-3.74h0L6.65,17H5.59L4.26,11.33H5.38l.81,3.88h0l1.07-3.88h.84Z"/></g><g id="Tracé_1124" data-name="Tracé 1124"><path d="M13.4,17.08a1.91,1.91,0,0,1-1.46-.59A2.06,2.06,0,0,1,11.4,15v-.16a2.26,2.26,0,0,1,.51-1.54,1.92,1.92,0,0,1,2.71-.09,2,2,0,0,1,.47,1.39v.62H12.57v0a1.09,1.09,0,0,0,.28.68.87.87,0,0,0,.67.27,2.15,2.15,0,0,0,.62-.08,2.7,2.7,0,0,0,.55-.24l.31.71a2.44,2.44,0,0,1-.68.35,3.21,3.21,0,0,1-.92.14Zm-.1-3.5a.57.57,0,0,0-.5.24,1.34,1.34,0,0,0-.23.63v0H14v-.1a.94.94,0,0,0-.17-.58.66.66,0,0,0-.51-.21Z"/></g><g id="Tracé_1125" data-name="Tracé 1125"><path d="M19.55,15a2.43,2.43,0,0,1-.42,1.5,1.44,1.44,0,0,1-1.21.57,1.27,1.27,0,0,1-.64-.16,1.35,1.35,0,0,1-.47-.45l-.09.52h-1V10.92h1.13v2.31a1.36,1.36,0,0,1,.44-.39,1.31,1.31,0,0,1,.59-.14,1.42,1.42,0,0,1,1.22.61,2.76,2.76,0,0,1,.42,1.61Zm-1.13-.09a2.37,2.37,0,0,0-.18-1,.64.64,0,0,0-.62-.36,1,1,0,0,0-.45.11.79.79,0,0,0-.28.32v1.8a.68.68,0,0,0,.29.29.87.87,0,0,0,.45.1.62.62,0,0,0,.61-.31,1.79,1.79,0,0,0,.18-.88Z"/></g></g></g><g id="Rectangle_972" data-name="Rectangle 972"><rect class="cls-1" width="20" height="20"/></g></g></g></g></svg>