<svg id="ds44-icons" xmlns="http://www.w3.org/2000/svg" viewBox="0 0 457.95 480"><title>magweb</title><g id="magweb"><g id="Groupe_2266" data-name="Groupe 2266"><g id="Tracé_1120" data-name="Tracé 1120"><path d="M14.92,71.07,66.19,193.91h.57L118.22,71.07h15.14V210.61H122V149l1-61.06-.57-.2L70.51,210.59H62.63L10.92,88.31l-.58.1L11.39,149v61.62H0V71.07Z"/></g><g id="Tracé_1121" data-name="Tracé 1121"><path d="M232.45,210.61q-1.15-5.28-1.63-9.1a61.15,61.15,0,0,1-.5-7.76A45.84,45.84,0,0,1,215,207.27a43.56,43.56,0,0,1-21.57,5.36,32.52,32.52,0,0,1-23.52-8A28.51,28.51,0,0,1,161.52,183a26.71,26.71,0,0,1,12.41-23,57.71,57.71,0,0,1,33.49-8.64h22.9V138.54a22.18,22.18,0,0,0-7.13-17.45,29.17,29.17,0,0,0-20-6.33,31.88,31.88,0,0,0-19.88,6,18.08,18.08,0,0,0-7.91,14.78l-10.55-.09-.19-.58a24.83,24.83,0,0,1,10.6-20.68,43.3,43.3,0,0,1,28.4-9.16,41.75,41.75,0,0,1,27.62,8.73,30.76,30.76,0,0,1,10.44,25V189.7a87.93,87.93,0,0,0,.62,10.64,66.48,66.48,0,0,0,2.07,10.25Zm-37.67-8.16a41.15,41.15,0,0,0,21.85-5.79,34.45,34.45,0,0,0,13.69-14.77V160.15h-23.1a42.21,42.21,0,0,0-25,6.67,19.79,19.79,0,0,0-9.34,16.54,17.73,17.73,0,0,0,5.81,13.74A22.74,22.74,0,0,0,194.78,202.45Z"/></g><g id="Tracé_1122" data-name="Tracé 1122"><path d="M267.83,159.62a67.33,67.33,0,0,1,10.58-39.72A34.16,34.16,0,0,1,308,105,36.09,36.09,0,0,1,327,109.85a38.84,38.84,0,0,1,13.29,13.64l1.33-16.57h9.68V209.28a44,44,0,0,1-11.07,31.63,40.57,40.57,0,0,1-30.81,11.61,75.28,75.28,0,0,1-15.9-1.83,62.78,62.78,0,0,1-14.78-5l3-9.68a59,59,0,0,0,12.94,4.64,63.36,63.36,0,0,0,14.58,1.58,28.89,28.89,0,0,0,22.84-8.73,35.33,35.33,0,0,0,7.73-24.24v-13a36.64,36.64,0,0,1-13.3,12.13,39.7,39.7,0,0,1-18.77,4.27,34.77,34.77,0,0,1-29.3-13.91,59.66,59.66,0,0,1-10.58-37.06Zm11.51,2a52.26,52.26,0,0,0,7.67,30,25.8,25.8,0,0,0,22.81,11.2,31.86,31.86,0,0,0,18.54-5.13,33.11,33.11,0,0,0,11.45-14.14V135.48a36.48,36.48,0,0,0-11-14.9A29.07,29.07,0,0,0,310,114.77,25.28,25.28,0,0,0,287.1,127.3a60.5,60.5,0,0,0-7.74,32.34Z"/></g><g id="Groupe_2265" data-name="Groupe 2265"><g id="Tracé_1123" data-name="Tracé 1123"><path d="M202.65,363h.58l19.93-95.63h27.3L217.88,406.87h-26l-25.57-92.09h-.58l-25.59,92.09h-26L81.46,267.34h27.41l20,95.54.57.09,26.17-95.63h20.68Z"/></g><g id="Tracé_1124" data-name="Tracé 1124"><path d="M306.36,408.88a46.64,46.64,0,0,1-35.84-14.39A51.34,51.34,0,0,1,257.09,358v-3.84a56.89,56.89,0,0,1,12.69-38,47.28,47.28,0,0,1,66.66-2.21,48.78,48.78,0,0,1,11.6,34.2v15.26H286.12l-.19.56a27,27,0,0,0,6.86,16.81,21.38,21.38,0,0,0,16.53,6.58,53.88,53.88,0,0,0,15.42-1.88,70.8,70.8,0,0,0,13.43-5.91l7.56,17.3a51.51,51.51,0,0,1-16.57,8.62,71.67,71.67,0,0,1-22.8,3.45Zm-2.48-86.07a14.59,14.59,0,0,0-12.28,5.91,31.08,31.08,0,0,0-5.55,15.62l.28.49h34.3v-2.5a22.41,22.41,0,0,0-4.18-14.23,15,15,0,0,0-12.58-5.27Z"/></g><g id="Tracé_1125" data-name="Tracé 1125"><path d="M457.87,357.9A60.65,60.65,0,0,1,447.53,395a35,35,0,0,1-29.91,13.9,31.74,31.74,0,0,1-15.76-3.8A32.43,32.43,0,0,1,390.41,394l-2.11,12.85h-24V257.35h27.88v56.83A31.62,31.62,0,0,1,403,304.6a30,30,0,0,1,14.42-3.37,34.34,34.34,0,0,1,30.09,14.91,68.41,68.41,0,0,1,10.34,39.72Zm-27.88-2a54.78,54.78,0,0,0-4.43-24.14,15.62,15.62,0,0,0-15.19-8.87,20.74,20.74,0,0,0-11,2.76,19,19,0,0,0-7.09,7.85v44.16a18,18,0,0,0,7.13,7.24,22.93,22.93,0,0,0,11.17,2.51,15.88,15.88,0,0,0,15.14-7.67A44.85,44.85,0,0,0,430,358Z"/></g></g></g></g></svg>