<svg id="ds44-icons" xmlns="http://www.w3.org/2000/svg" width="457.94619" height="480" viewBox="0 0 457.94619 480"><g id="magweb"><g id="Groupe_2266" data-name="Groupe 2266"><g id="Tracé_1120" data-name="Tracé 1120"><path d="M14.92137,71.06832,66.18616,193.91176h.5762L118.21922,71.06832h15.143V210.60613H121.97171v-61.621l.96033-61.05969-.57619-.19206L70.51485,210.5917H62.62574L10.91775,88.30957l-.5762.10325,1.04892,60.57231v61.621H0V71.06832Z"/></g><g id="Tracé_1121" data-name="Tracé 1121"><path d="M232.44948,210.60613q-1.15272-5.27368-1.62511-9.10057a60.991,60.991,0,0,1-.50226-7.7561,45.79682,45.79682,0,0,1-15.32038,13.51807,43.59518,43.59518,0,0,1-21.56972,5.363,32.50107,32.50107,0,0,1-23.51967-8.05187,28.48405,28.48405,0,0,1-8.39137-21.56949,26.69558,26.69558,0,0,1,12.40986-22.98789,57.70726,57.70726,0,0,1,33.492-8.6425h22.8993V138.54055a22.16128,22.16128,0,0,0-7.13573-17.44775,29.148,29.148,0,0,0-19.97413-6.33771,31.91147,31.91147,0,0,0-19.88531,6.02752,18.068,18.068,0,0,0-7.904,14.77371l-10.5485-.08881-.19207-.5762a24.81966,24.81966,0,0,1,10.59269-20.68311,43.3314,43.3314,0,0,1,28.4099-9.15963,41.72055,41.72055,0,0,1,27.61212,8.73132,30.75858,30.75858,0,0,1,10.445,25.01179V189.7012a88.19225,88.19225,0,0,0,.62061,10.63709,66.47882,66.47882,0,0,0,2.06831,10.253Zm-37.673-8.15512a41.10276,41.10276,0,0,0,21.85038-5.79127A34.37684,34.37684,0,0,0,230.32211,181.886V160.15378H207.21587a42.24037,42.24037,0,0,0-24.96761,6.66278,19.7669,19.7669,0,0,0-9.337,16.54648,17.72832,17.72832,0,0,0,5.80615,13.73945A22.75108,22.75108,0,0,0,194.77647,202.451Z"/></g><g id="Tracé_1122" data-name="Tracé 1122"><path d="M267.83259,159.62222a67.33653,67.33653,0,0,1,10.578-39.72644A34.156,34.156,0,0,1,307.958,104.98906a36.10683,36.10683,0,0,1,19.058,4.8607,38.84157,38.84157,0,0,1,13.29625,13.6362l1.32958-16.56137h9.67676V209.277a43.96641,43.96641,0,0,1-11.06541,31.63039,40.58256,40.58256,0,0,1-30.81794,11.61229,75.35052,75.35052,0,0,1-15.89657-1.83183A62.551,62.551,0,0,1,278.765,245.709l2.95469-9.67676a59.08729,59.08729,0,0,0,12.94188,4.63888,63.944,63.944,0,0,0,14.58165,1.58071,28.91149,28.91149,0,0,0,22.84023-8.73132A35.36854,35.36854,0,0,0,339.81,209.277V196.24676a36.58024,36.58024,0,0,1-13.29625,12.12943,39.59285,39.59285,0,0,1-18.77733,4.26962,34.76311,34.76311,0,0,1-29.2963-13.9022,59.67114,59.67114,0,0,1-10.578-37.06728Zm11.50882,2.0239a52.26913,52.26913,0,0,0,7.66751,29.99062,25.79507,25.79507,0,0,0,22.81071,11.1984,31.83628,31.83628,0,0,0,18.54108-5.12625,33.15058,33.15058,0,0,0,11.44954-14.13845V135.48193a36.60788,36.60788,0,0,0-10.97682-14.90671,29.135,29.135,0,0,0-18.82174-5.80615,25.29327,25.29327,0,0,0-22.91395,12.528,60.57321,60.57321,0,0,0-7.74145,32.33959Z"/></g><g id="Groupe_2265" data-name="Groupe 2265"><g id="Tracé_1123" data-name="Tracé 1123"><path d="M202.651,362.967h.57619L223.157,267.33689h27.30192L217.88282,406.8747H191.9107l-25.57334-92.09944h-.57619l-25.588,92.09944H114.14155L81.462,267.33689h27.40517l20.01832,95.54175.5762.08882,26.16418-95.63012H176.309Z"/></g><g id="Tracé_1124" data-name="Tracé 1124"><path d="M306.36256,408.88418a46.63972,46.63972,0,0,1-35.84095-14.38958,51.353,51.353,0,0,1-13.42926-36.506v-3.84131a56.79042,56.79042,0,0,1,12.69053-38.04248,47.27611,47.27611,0,0,1,66.65889-2.216,48.75241,48.75241,0,0,1,11.59741,34.20118v15.26109H286.12264l-.19206.56131a27.00578,27.00578,0,0,0,6.85507,16.8125,21.42156,21.42156,0,0,0,16.53183,6.57441,53.93888,53.93888,0,0,0,15.42385-1.87648,71.56331,71.56331,0,0,0,13.42925-5.90939l7.564,17.29987a51.59389,51.59389,0,0,1-16.576,8.61319,71.8185,71.8185,0,0,1-22.79583,3.45718Zm-2.482-86.07148a14.58123,14.58123,0,0,0-12.27686,5.90939,31.0247,31.0247,0,0,0-5.555,15.61592l.28066.48738H320.634v-2.49686a22.48487,22.48487,0,0,0-4.181-14.22727,15.01077,15.01077,0,0,0-12.58727-5.27413Z"/></g><g id="Tracé_1125" data-name="Tracé 1125"><path d="M457.86682,357.89981a60.57172,60.57172,0,0,1-10.34156,37.06729,34.96932,34.96932,0,0,1-29.902,13.9022,31.7352,31.7352,0,0,1-15.76357-3.79668,32.50213,32.50213,0,0,1-11.44954-11.0654l-2.11272,12.85306H364.33454V257.35039h27.8779v56.83424a31.67464,31.67464,0,0,1,10.78474-9.58794,30.10666,30.10666,0,0,1,14.41912-3.36836A34.34844,34.34844,0,0,1,447.51038,316.135a68.49032,68.49032,0,0,1,10.34156,39.72645Zm-27.8779-2.0239a54.66476,54.66476,0,0,0-4.43216-24.14028,15.6159,15.6159,0,0,0-15.18737-8.86432,20.68341,20.68341,0,0,0-11.02122,2.76286,19.04234,19.04234,0,0,0-7.09132,7.84493v44.15882a17.92041,17.92041,0,0,0,7.13572,7.239,22.90257,22.90257,0,0,0,11.16888,2.51173,15.89626,15.89626,0,0,0,15.143-7.66774,44.86866,44.86866,0,0,0,4.314-21.74668Z"/></g></g></g></g></svg>