<svg id="ds44-icons" xmlns="http://www.w3.org/2000/svg" viewBox="0 0 480 480"><title>magweb</title><g id="magweb"><g id="Groupe_2266" data-name="Groupe 2266"><g id="Tracé_1120" data-name="Tracé 1120"><path d="M26,71.07,77.21,193.91h.58L129.25,71.07h15.14V210.61H133V149l1-61.06-.58-.2L81.54,210.59H73.65L21.94,88.31l-.57.1L22.42,149v61.62H11V71.07Z"/></g><g id="Tracé_1121" data-name="Tracé 1121"><path d="M243.48,210.61q-1.15-5.28-1.63-9.1a61.15,61.15,0,0,1-.5-7.76A45.84,45.84,0,0,1,226,207.27a43.58,43.58,0,0,1-21.57,5.36,32.51,32.51,0,0,1-23.52-8A28.51,28.51,0,0,1,172.55,183,26.71,26.71,0,0,1,185,160a57.69,57.69,0,0,1,33.49-8.64h22.9V138.54a22.15,22.15,0,0,0-7.14-17.45,29.14,29.14,0,0,0-20-6.33,31.89,31.89,0,0,0-19.89,6,18.07,18.07,0,0,0-7.9,14.78l-10.55-.09-.19-.58a24.82,24.82,0,0,1,10.59-20.68,43.35,43.35,0,0,1,28.41-9.16,41.73,41.73,0,0,1,27.61,8.73,30.74,30.74,0,0,1,10.45,25V189.7a87.93,87.93,0,0,0,.62,10.64,66.48,66.48,0,0,0,2.07,10.25Zm-37.68-8.16a41.15,41.15,0,0,0,21.85-5.79,34.41,34.41,0,0,0,13.7-14.77V160.15H218.24a42.2,42.2,0,0,0-25,6.67,19.74,19.74,0,0,0-9.34,16.54,17.72,17.72,0,0,0,5.8,13.74A22.77,22.77,0,0,0,205.8,202.45Z"/></g><g id="Tracé_1122" data-name="Tracé 1122"><path d="M278.86,159.62a67.33,67.33,0,0,1,10.58-39.72A34.15,34.15,0,0,1,319,105,36.06,36.06,0,0,1,338,109.85a38.78,38.78,0,0,1,13.3,13.64l1.33-16.57h9.68V209.28a44,44,0,0,1-11.07,31.63,40.59,40.59,0,0,1-30.82,11.61,75.11,75.11,0,0,1-15.89-1.83,62.63,62.63,0,0,1-14.78-5l3-9.68a59,59,0,0,0,12.94,4.64,63.3,63.3,0,0,0,14.58,1.58,28.9,28.9,0,0,0,22.84-8.73,35.38,35.38,0,0,0,7.73-24.24v-13a36.8,36.8,0,0,1-13.3,12.13,39.71,39.71,0,0,1-18.78,4.27,34.75,34.75,0,0,1-29.29-13.91,59.66,59.66,0,0,1-10.58-37.06Zm11.51,2a52.26,52.26,0,0,0,7.67,30,25.79,25.79,0,0,0,22.81,11.2,31.88,31.88,0,0,0,18.54-5.13,33.18,33.18,0,0,0,11.45-14.14V135.48a36.48,36.48,0,0,0-11-14.9A29.07,29.07,0,0,0,321,114.77a25.3,25.3,0,0,0-22.92,12.53,60.69,60.69,0,0,0-7.74,32.34Z"/></g><g id="Groupe_2265" data-name="Groupe 2265"><g id="Tracé_1123" data-name="Tracé 1123"><path d="M213.68,363h.57l19.93-95.63h27.31L228.91,406.87h-26l-25.58-92.09h-.57L151.2,406.87h-26L92.49,267.34h27.4l20,95.54.58.09,26.16-95.63h20.69Z"/></g><g id="Tracé_1124" data-name="Tracé 1124"><path d="M317.39,408.88a46.63,46.63,0,0,1-35.84-14.39A51.34,51.34,0,0,1,268.12,358v-3.84a56.78,56.78,0,0,1,12.69-38,47.28,47.28,0,0,1,66.66-2.21,48.78,48.78,0,0,1,11.6,34.2v15.26H297.15l-.19.56a27,27,0,0,0,6.85,16.81,21.41,21.41,0,0,0,16.53,6.58,53.94,53.94,0,0,0,15.43-1.88,70.8,70.8,0,0,0,13.43-5.91l7.56,17.3a51.51,51.51,0,0,1-16.57,8.62,71.76,71.76,0,0,1-22.8,3.45Zm-2.48-86.07a14.58,14.58,0,0,0-12.28,5.91,31.08,31.08,0,0,0-5.55,15.62l.28.49h34.3v-2.5a22.47,22.47,0,0,0-4.18-14.23,15,15,0,0,0-12.59-5.27Z"/></g><g id="Tracé_1125" data-name="Tracé 1125"><path d="M468.89,357.9A60.52,60.52,0,0,1,458.55,395a35,35,0,0,1-29.9,13.9,31.72,31.72,0,0,1-15.76-3.8A32.43,32.43,0,0,1,401.44,394l-2.12,12.85h-24V257.35h27.88v56.83A31.68,31.68,0,0,1,414,304.6a30,30,0,0,1,14.42-3.37,34.35,34.35,0,0,1,30.1,14.91,68.48,68.48,0,0,1,10.34,39.72Zm-27.87-2a54.64,54.64,0,0,0-4.44-24.14,15.6,15.6,0,0,0-15.18-8.87,20.74,20.74,0,0,0-11,2.76,19.14,19.14,0,0,0-7.1,7.85v44.16a18,18,0,0,0,7.14,7.24,22.9,22.9,0,0,0,11.17,2.51,15.9,15.9,0,0,0,15.14-7.67A44.85,44.85,0,0,0,441.05,358Z"/></g></g></g></g></svg>