<?xml version="1.0" encoding="utf-8"?>
<!-- Generator: Adobe Illustrator 23.1.1, SVG Export Plug-In . SVG Version: 6.00 Build 0)  -->
<svg version="1.1" id="Calque_1" xmlns="http://www.w3.org/2000/svg" xmlns:xlink="http://www.w3.org/1999/xlink" x="0px" y="0px"
	 viewBox="0 0 480 480" style="enable-background:new 0 0 480 480;" xml:space="preserve">
<title>magweb</title>
<g>
	<g id="ds44-icons">
		<g id="magweb">
			<g id="Groupe_2266">
				<g id="Tracé_1120">
					<path d="M25.9,71.1l51.3,122.8h0.6l51.5-122.8h15.1v139.5H133V149l1-61.1l-0.6-0.2L81.5,210.6h-7.9L21.9,88.3l-0.6,0.1l1,60.6
						v61.6H11V71.1H25.9z"/>
				</g>
				<g id="Tracé_1121">
					<path d="M243.5,210.6c-0.8-3.5-1.3-6.5-1.6-9.1c-0.3-2.6-0.5-5.2-0.5-7.8c-4,5.6-9.3,10.2-15.3,13.5c-6.6,3.6-14,5.5-21.6,5.4
						c-8.6,0.5-17.1-2.4-23.5-8.1c-5.7-5.7-8.8-13.5-8.4-21.6c-0.2-9.3,4.6-18,12.4-23c10-6.2,21.7-9.3,33.5-8.6h22.9v-12.8
						c0.3-6.6-2.3-13-7.1-17.4c-5.6-4.5-12.8-6.8-20-6.3c-7.1-0.3-14.1,1.9-19.9,6c-4.9,3.3-7.8,8.9-7.9,14.8l-10.5-0.1l-0.2-0.6
						c-0.1-8.2,3.9-16,10.6-20.7c8.1-6.3,18.2-9.6,28.4-9.2c10-0.5,19.7,2.6,27.6,8.7c7.2,6.3,11,15.5,10.4,25v50.9
						c0,3.6,0.2,7.1,0.6,10.6c0.4,3.5,1.1,6.9,2.1,10.3L243.5,210.6z M205.8,202.5c7.7,0.1,15.3-1.9,21.9-5.8
						c5.9-3.4,10.7-8.6,13.7-14.8v-21.7h-23.1c-8.8-0.4-17.5,1.9-25,6.7c-5.7,3.6-9.3,9.8-9.3,16.5c-0.2,5.2,1.9,10.2,5.8,13.7
						C194.2,200.9,200,202.8,205.8,202.5z"/>
				</g>
				<g id="Tracé_1122">
					<path d="M278.9,159.6c-0.7-14,3-27.9,10.6-39.7c6.6-9.7,17.8-15.4,29.5-14.9c6.7-0.2,13.3,1.5,19.1,4.9
						c5.5,3.4,10.1,8.1,13.3,13.6l1.3-16.6h9.7v102.4c0.6,11.6-3.3,23-11.1,31.6c-8.2,8.1-19.4,12.3-30.8,11.6
						c-5.3,0-10.7-0.7-15.9-1.8c-5.1-1-10.1-2.7-14.8-5l3-9.7c4.1,2,8.5,3.6,12.9,4.6c4.8,1.1,9.7,1.6,14.6,1.6
						c8.5,0.6,16.9-2.6,22.8-8.7c5.5-6.8,8.2-15.5,7.7-24.2v-13c-3.4,5.1-7.9,9.3-13.3,12.1c-5.8,2.9-12.3,4.4-18.8,4.3
						c-11.5,0.5-22.4-4.7-29.3-13.9c-7.5-10.8-11.2-23.9-10.6-37.1L278.9,159.6z M290.4,161.6c-0.5,10.5,2.1,21,7.7,30
						c5.1,7.5,13.8,11.7,22.8,11.2c6.6,0.2,13-1.5,18.5-5.1c5.1-3.6,9-8.5,11.4-14.1v-48.1c-2.3-5.8-6.1-11-11-14.9
						c-5.4-4.1-12.1-6.1-18.8-5.8c-9.4-0.4-18.2,4.4-22.9,12.5c-5.5,9.8-8.2,21-7.7,32.3L290.4,161.6z"/>
				</g>
				<g id="Groupe_2265">
					<g id="Tracé_1123">
						<path d="M213.7,363h0.6l19.9-95.6h27.3l-32.6,139.5h-26l-25.6-92.1h-0.6l-25.6,92.1h-26L92.5,267.3h27.4l20,95.5l0.6,0.1
							l26.2-95.6h20.7L213.7,363z"/>
					</g>
					<g id="Tracé_1124">
						<path d="M317.4,408.9c-13.5,0.6-26.5-4.6-35.8-14.4c-9.1-9.9-13.9-23-13.4-36.5v-3.8c-0.5-13.8,4-27.3,12.7-38
							c17.8-19,47.6-19.9,66.7-2.2c8.1,9.5,12.3,21.7,11.6,34.2v15.3h-61.9l-0.2,0.6c0.3,6.2,2.7,12.2,6.9,16.8
							c4.3,4.5,10.3,6.9,16.5,6.6c5.2,0.1,10.4-0.5,15.4-1.9c4.7-1.5,9.2-3.5,13.4-5.9l7.6,17.3c-5,3.9-10.6,6.8-16.6,8.6
							C332.8,407.8,325.1,409,317.4,408.9L317.4,408.9z M314.9,322.8c-4.8-0.2-9.4,2-12.3,5.9c-3.2,4.6-5.2,10-5.6,15.6l0.3,0.5
							h34.3v-2.5c0.3-5.1-1.2-10.1-4.2-14.2C324.4,324.4,319.7,322.5,314.9,322.8L314.9,322.8z"/>
					</g>
					<g id="Tracé_1125">
						<path d="M468.9,357.9c0.7,13.2-3,26.2-10.3,37.1c-7,9.3-18.2,14.6-29.9,13.9c-5.5,0.1-10.9-1.2-15.8-3.8
							c-4.7-2.7-8.6-6.5-11.4-11.1l-2.1,12.9h-24V257.4h27.9v56.8c2.8-4,6.5-7.3,10.8-9.6c4.5-2.3,9.4-3.5,14.4-3.4
							c11.9-0.6,23.3,5,30.1,14.9c7.4,11.9,11,25.7,10.3,39.7L468.9,357.9z M441,355.9c0.4-8.3-1.1-16.5-4.4-24.1
							c-2.8-5.8-8.8-9.3-15.2-8.9c-3.9-0.1-7.7,0.8-11,2.8c-3.1,1.9-5.5,4.6-7.1,7.8v44.2c1.6,3.1,4.1,5.6,7.1,7.2
							c3.5,1.8,7.3,2.6,11.2,2.5c6.1,0.6,12-2.4,15.1-7.7c3.2-6.8,4.7-14.3,4.3-21.7L441,355.9z"/>
					</g>
				</g>
			</g>
		</g>
	</g>
</g>
</svg>
