<svg id="ds44-icons" xmlns="http://www.w3.org/2000/svg" viewBox="0 0 418.59 480"><title>mail</title><g id="mail"><path d="M344.72,67.64H73.87A74,74,0,0,0,0,141.51v197a74,74,0,0,0,73.87,73.87H344.72a74,74,0,0,0,73.87-73.87v-197A74,74,0,0,0,344.72,67.64ZM73.87,104.57H344.72a36.75,36.75,0,0,1,28.85,14.16c-.3.18-.64.21-.93.42L208.57,237.33,41.84,132.79a18.24,18.24,0,0,0-3.36-1.27A36.89,36.89,0,0,1,73.87,104.57ZM344.72,375.43H73.87a37,37,0,0,1-36.94-36.94V173.3L199.48,275.23a18.49,18.49,0,0,0,20.61-.68L381.65,158.17V338.49A37,37,0,0,1,344.72,375.43Z"/></g></svg>