<?xml version="1.0" encoding="utf-8"?>
<!-- Generator: Adobe Illustrator 23.1.1, SVG Export Plug-In . SVG Version: 6.00 Build 0)  -->
<svg version="1.1" id="Calque_1" xmlns="http://www.w3.org/2000/svg" xmlns:xlink="http://www.w3.org/1999/xlink" x="0px" y="0px"
	 viewBox="0 0 480 480" style="enable-background:new 0 0 480 480;" xml:space="preserve">
<title>mail</title>
<g>
	<g id="ds44-icons">
		<g id="mail">
			<path d="M375.4,67.6H104.6c-40.8,0-73.8,33.1-73.9,73.9v197c0,40.8,33.1,73.8,73.9,73.9h270.9c40.8,0,73.8-33.1,73.9-73.9v-197
				C449.2,100.7,416.2,67.7,375.4,67.6z M104.6,104.6h270.9c11.3,0,21.9,5.3,28.8,14.2c-0.3,0.2-0.6,0.2-0.9,0.4L239.3,237.3
				L72.5,132.8c-1.1-0.5-2.2-1-3.4-1.3C73.6,115.6,88.1,104.6,104.6,104.6z M375.4,375.4H104.6c-20.4,0-36.9-16.5-36.9-36.9V173.3
				l162.5,101.9c6.4,4,14.5,3.7,20.6-0.7l161.6-116.4v180.3C412.3,358.9,395.8,375.4,375.4,375.4z"/>
		</g>
	</g>
</g>
</svg>
