<svg xmlns="http://www.w3.org/2000/svg" viewBox="0 0 20 20"><defs><style>.cls-1{fill:none;}</style></defs><title>mail</title><g id="Calque_2" data-name="Calque 2"><g id="sources_non_vectorisés_" data-name="sources (non vectorisés)"><g id="mail"><path d="M15.5,3H4.5a3,3,0,0,0-3,3v8a3,3,0,0,0,3,3h11a3,3,0,0,0,3-3V6A3,3,0,0,0,15.5,3ZM4.5,4.5h11a1.49,1.49,0,0,1,1.17.57l0,0L10,9.89,3.2,5.65a.59.59,0,0,0-.14-.06A1.51,1.51,0,0,1,4.5,4.5Zm11,11H4.5A1.5,1.5,0,0,1,3,14V7.29l6.6,4.14a.71.71,0,0,0,.4.11.72.72,0,0,0,.44-.14L17,6.68V14A1.5,1.5,0,0,1,15.5,15.5Z"/><rect class="cls-1" width="20" height="20"/></g></g></g></svg>