<svg id="ds44-icons" xmlns="http://www.w3.org/2000/svg" width="418.5885" height="480" viewBox="0 0 418.5885 480"><title>mail</title><g id="mail"><path d="M344.71994,67.64H73.86856A73.94933,73.94933,0,0,0,0,141.50859V338.49141A73.94933,73.94933,0,0,0,73.86856,412.36H344.71994a73.94933,73.94933,0,0,0,73.86856-73.86856V141.50859A73.94933,73.94933,0,0,0,344.71994,67.64ZM73.86856,104.57431H344.71994a36.73676,36.73676,0,0,1,28.84589,14.15243c-.29607.18786-.64022.2119-.92877.4193L208.57288,237.33092,41.83961,132.792a17.54365,17.54365,0,0,0-3.36039-1.26991A36.87376,36.87376,0,0,1,73.86856,104.57431ZM344.71994,375.42569H73.86856a36.97467,36.97467,0,0,1-36.93428-36.93428V173.30309L199.48358,275.227a18.48434,18.48434,0,0,0,20.60721-.67328L381.65422,158.16629V338.49141A36.97467,36.97467,0,0,1,344.71994,375.42569Z"/></g></svg>