<svg id="ds44-icons" xmlns="http://www.w3.org/2000/svg" viewBox="0 0 480 480"><title>mail</title><g id="mail"><path d="M375.43,67.64H104.57a74,74,0,0,0-73.86,73.87v197a74,74,0,0,0,73.86,73.87H375.43a74,74,0,0,0,73.86-73.87v-197A74,74,0,0,0,375.43,67.64ZM104.57,104.57H375.43a36.73,36.73,0,0,1,28.84,14.16c-.29.18-.64.21-.93.42L239.28,237.33,72.55,132.79a18.33,18.33,0,0,0-3.37-1.27A36.89,36.89,0,0,1,104.57,104.57ZM375.43,375.43H104.57a37,37,0,0,1-36.93-36.94V173.3L230.19,275.23a18.49,18.49,0,0,0,20.61-.68L412.36,158.17V338.49A37,37,0,0,1,375.43,375.43Z"/></g></svg>