<svg id="ds44-icons" xmlns="http://www.w3.org/2000/svg" viewBox="0 0 467.64 480"><title>map</title><g id="map"><path d="M459.73,10.49a18.5,18.5,0,0,0-17-2.15L305.67,59.11,161.78,8.24A18.48,18.48,0,0,0,149,8.43L11.81,61.53A18.45,18.45,0,0,0,0,78.74V454.23a18.49,18.49,0,0,0,25.75,17l130.19-56,143.12,56.34a18.57,18.57,0,0,0,11.18.75L453.6,437a18.49,18.49,0,0,0,14-17.94V25.65A18.48,18.48,0,0,0,459.73,10.49ZM172.79,51.31,295.47,94.67V430.44L172.79,382.15ZM36.93,91.39,135.86,53.1V383.34c0,.1,0,.18,0,.27l-99,42.58ZM430.71,404.57l-98.3,24.22V91a17.37,17.37,0,0,0-.46-2.28l98.76-36.58Z"/></g></svg>