<svg id="ds44-icons" xmlns="http://www.w3.org/2000/svg" width="467.64183" height="480" viewBox="0 0 467.64183 480"><title>map</title><g id="map"><path d="M459.73078,10.4882a18.51162,18.51162,0,0,0-16.9763-2.1521L305.66963,59.10871,161.77984,8.23992a18.43595,18.43595,0,0,0-12.81639.19237l-137.157,53.093A18.46227,18.46227,0,0,0,0,78.74207V454.22855a18.491,18.491,0,0,0,25.753,16.97631l130.18372-56.00257L299.05705,471.5415a18.61929,18.61929,0,0,0,6.75686,1.27442,18.40205,18.40205,0,0,0,4.42442-.529l143.36078-35.29917a18.49023,18.49023,0,0,0,14.04272-17.93814V25.64905A18.47768,18.47768,0,0,0,459.73078,10.4882Zm-286.938,40.82067L295.47423,94.67239V430.43528L172.79279,382.1499ZM36.93428,91.39014l98.92423-38.28685V383.34167c0,.09618.05411.17433.05411.27051l-98.97834,42.579ZM430.70756,404.57407l-98.29905,24.21107V91.04148a17.15288,17.15288,0,0,0-.46288-2.28585l98.76193-36.57209Z"/></g></svg>