<?xml version="1.0" encoding="utf-8"?>
<!-- Generator: Adobe Illustrator 23.1.1, SVG Export Plug-In . SVG Version: 6.00 Build 0)  -->
<svg version="1.1" id="Calque_1" xmlns="http://www.w3.org/2000/svg" xmlns:xlink="http://www.w3.org/1999/xlink" x="0px" y="0px"
	 viewBox="0 0 480 480" style="enable-background:new 0 0 480 480;" xml:space="preserve">
<title>map</title>
<g>
	<g id="ds44-icons">
		<g id="map">
			<path d="M465.9,10.5c-5-3.4-11.3-4.3-17-2.2L311.8,59.1L168,8.2c-4.2-1.5-8.7-1.4-12.8,0.2L18,61.5c-7.1,2.7-11.8,9.6-11.8,17.2
				v375.5c0,10.2,8.3,18.5,18.5,18.5c2.5,0,4.9-0.5,7.2-1.5l130.2-56l143.1,56.3c2.2,0.8,4.4,1.3,6.8,1.3c1.5,0,3-0.2,4.4-0.5
				L459.8,437c8.2-2,14-9.4,14-17.9V25.6C473.8,19.6,470.9,13.9,465.9,10.5z M179,51.3l122.7,43.4v335.8L179,382.1V51.3z M43.1,91.4
				L142,53.1v330.2c0,0.1,0.1,0.2,0.1,0.3l-99,42.6L43.1,91.4z M436.9,404.6l-98.3,24.2V91c-0.1-0.8-0.3-1.5-0.5-2.3l98.8-36.6
				V404.6z"/>
		</g>
	</g>
</g>
</svg>
