<svg id="ds44-icons" xmlns="http://www.w3.org/2000/svg" viewBox="0 0 480 480"><title>map</title><g id="map"><path d="M465.91,10.49a18.5,18.5,0,0,0-17-2.15L311.85,59.11,168,8.24a18.48,18.48,0,0,0-12.82.19L18,61.53A18.45,18.45,0,0,0,6.18,78.74V454.23a18.49,18.49,0,0,0,25.75,17l130.19-56,143.12,56.34a18.57,18.57,0,0,0,11.18.75L459.78,437a18.49,18.49,0,0,0,14-17.94V25.65A18.48,18.48,0,0,0,465.91,10.49ZM179,51.31,301.65,94.67V430.44L179,382.15ZM43.11,91.39,142,53.1V383.34c0,.1.05.18.05.27l-99,42.58ZM436.89,404.57l-98.3,24.22V91a15.9,15.9,0,0,0-.47-2.28l98.77-36.58Z"/></g></svg>