<svg xmlns="http://www.w3.org/2000/svg" viewBox="0 0 18.99 19.63"><defs><style>.cls-1{fill:none;}</style></defs><title>map</title><g id="Calque_2" data-name="Calque 2"><g id="sources_non_vectorisés_" data-name="sources (non vectorisés)"><g id="map"><path d="M18.67.47A.74.74,0,0,0,18,.38L12.41,2.44,6.57.38a.72.72,0,0,0-.52,0L.48,2.54a.75.75,0,0,0-.48.7V18.49a.73.73,0,0,0,.34.62.78.78,0,0,0,.71.07L6.33,16.9l5.82,2.29a.62.62,0,0,0,.27,0,.55.55,0,0,0,.18,0l5.82-1.43a.76.76,0,0,0,.57-.73v-16A.75.75,0,0,0,18.67.47ZM7,2.12l5,1.77V17.52l-5-2ZM1.5,3.75l4-1.55V15.61h0l-4,1.73Zm16,12.72-4,1V3.74a.36.36,0,0,0,0-.1l4-1.48Z"/><rect class="cls-1" width="18.99" height="19.63"/></g></g></g></svg>