<?xml version="1.0" encoding="utf-8"?>
<!-- Generator: Adobe Illustrator 23.1.1, SVG Export Plug-In . SVG Version: 6.00 Build 0)  -->
<svg version="1.1" id="Calque_1" xmlns="http://www.w3.org/2000/svg" xmlns:xlink="http://www.w3.org/1999/xlink" x="0px" y="0px"
	 viewBox="0 0 480 480" style="enable-background:new 0 0 480 480;" xml:space="preserve">
<title>marker</title>
<g>
	<g id="ds44-icons">
		<g id="marker">
			<g id="Groupe_2231">
				<g id="Tracé_1080">
					<path d="M240,419.6h-0.4c-5.2-0.1-10.2-2.5-13.6-6.5l-12-13.9c-5.2-6-14.6-17.9-28.1-35.8c-12.8-16.8-24.6-34.2-35.5-52.3
						c-11.1-18.7-20.5-38.2-28.3-58.5c-8.1-19.2-12.6-39.6-13.3-60.4c-0.6-35.1,13.3-68.9,38.5-93.5c24.5-24.6,57.8-38.5,92.6-38.4
						h0.2c34.7-0.1,68,13.7,92.6,38.3c24.7,24.7,38.6,58.2,38.6,93.2c-0.6,20.9-5.1,41.5-13.2,60.8c-8,20.7-18,40.5-29.7,59.3
						c-11.3,17.9-22.5,34.7-33.4,50.4c-11.3,16-20.6,28.4-28.5,37.9l-12.9,13.7C250,417.5,245.1,419.6,240,419.6z M240.1,97.3h-0.2
						c-25,0-49,9.9-66.6,27.7c-0.1,0.1-0.1,0.2-0.2,0.2c-17.8,17.4-27.7,41.3-27.4,66.1c0.6,16.4,4.2,32.5,10.6,47.5
						c7.1,18.5,15.7,36.4,25.8,53.4c10.2,16.9,21.3,33.2,33.3,48.9c11.7,15.5,20,26.2,25.1,32.2c6.2-7.7,14.5-18.9,24.2-32.5
						c10.7-15.1,21.4-31.4,32.4-48.7c10.6-16.9,19.6-34.8,26.8-53.5c6.4-15.1,10-31.2,10.5-47.6c-0.1-24.9-10.1-48.8-27.7-66.4
						C288.9,107.1,265,97.2,240.1,97.3L240.1,97.3z"/>
				</g>
				<g id="Tracé_1081">
					<path d="M211.6,220.1c15.7,15.7,41.1,15.7,56.8,0c15.7-15.7,15.7-41.1,0-56.8s-41.1-15.7-56.8,0c-7.5,7.5-11.8,17.7-11.8,28.4
						C199.7,202.4,203.9,212.7,211.6,220.1z"/>
				</g>
			</g>
		</g>
	</g>
</g>
</svg>
