<svg id="ds44-icons" xmlns="http://www.w3.org/2000/svg" viewBox="0 0 262.4 480"><title>marker</title><g id="marker"><g id="Groupe_2231" data-name="Groupe 2231"><g id="Tracé_1080" data-name="Tracé 1080"><path d="M131.25,419.63h-.45a18.46,18.46,0,0,1-13.59-6.47l-12-13.85q-7.82-9-28.08-35.8a596.5,596.5,0,0,1-35.51-52.26,387.15,387.15,0,0,1-28.3-58.5A169.08,169.08,0,0,1,0,192.31,127.73,127.73,0,0,1,38.49,98.82a130.36,130.36,0,0,1,92.56-38.45h.23a130.24,130.24,0,0,1,92.55,38.26,131.89,131.89,0,0,1,38.57,93.15,169.26,169.26,0,0,1-13.16,60.84,350.3,350.3,0,0,1-29.73,59.28q-17,26.91-33.45,50.35c-11.29,16-20.62,28.4-28.52,37.9l-12.85,13.68A18.49,18.49,0,0,1,131.25,419.63Zm0-322.32h-.16A93.57,93.57,0,0,0,64.54,125c-.07.07-.14.15-.23.23a90.51,90.51,0,0,0-27.37,66.15A132.76,132.76,0,0,0,47.57,238.9a353.9,353.9,0,0,0,25.77,53.41,563.26,563.26,0,0,0,33.27,48.9q17.48,23.24,25.1,32.25c6.24-7.72,14.55-18.85,24.16-32.49q16-22.68,32.35-48.71A313.11,313.11,0,0,0,215,238.79a132.68,132.68,0,0,0,10.5-47.63,94.59,94.59,0,0,0-27.71-66.37A93.61,93.61,0,0,0,131.27,97.31Z"/></g><g id="Tracé_1081" data-name="Tracé 1081"><path d="M102.82,220.11a40.14,40.14,0,1,0-11.74-28.36A38.5,38.5,0,0,0,102.82,220.11Z"/></g></g></g></svg>