<svg id="ds44-icons" xmlns="http://www.w3.org/2000/svg" viewBox="0 0 480 480"><title>marker</title><g id="marker"><g id="Groupe_2231" data-name="Groupe 2231"><g id="Tracé_1080" data-name="Tracé 1080"><path d="M240,419.63h-.44A18.46,18.46,0,0,1,226,413.16l-12-13.85q-7.82-9-28.08-35.8a594.3,594.3,0,0,1-35.51-52.26,386.2,386.2,0,0,1-28.3-58.5,169.09,169.09,0,0,1-13.33-60.44,127.78,127.78,0,0,1,38.48-93.49,130.36,130.36,0,0,1,92.56-38.45h.23a130.24,130.24,0,0,1,92.55,38.26,131.93,131.93,0,0,1,38.57,93.15A169.48,169.48,0,0,1,358,252.62,350.36,350.36,0,0,1,328.3,311.9q-16.95,26.91-33.44,50.35c-11.29,16-20.62,28.4-28.52,37.9l-12.85,13.68A18.49,18.49,0,0,1,240,419.63Zm0-322.32h-.16A93.57,93.57,0,0,0,173.34,125l-.23.23a90.51,90.51,0,0,0-27.37,66.15,133,133,0,0,0,10.62,47.51,353.94,353.94,0,0,0,25.78,53.41,558.81,558.81,0,0,0,33.27,48.9q17.47,23.24,25.1,32.25c6.24-7.72,14.55-18.85,24.16-32.49q16-22.68,32.35-48.71a313.11,313.11,0,0,0,26.76-53.47,132.68,132.68,0,0,0,10.5-47.63,94.59,94.59,0,0,0-27.71-66.37A93.63,93.63,0,0,0,240.07,97.31Z"/></g><g id="Tracé_1081" data-name="Tracé 1081"><path d="M211.62,220.11a40.15,40.15,0,1,0-11.74-28.36A38.46,38.46,0,0,0,211.62,220.11Z"/></g></g></g></svg>