<svg id="ds44-icons" xmlns="http://www.w3.org/2000/svg" width="262.40332" height="480" viewBox="0 0 262.40332 480"><title>marker</title><g id="marker"><g id="Groupe_2231" data-name="Groupe 2231"><g id="Tracé_1080" data-name="Tracé 1080"><path d="M131.24547,419.6278h-.44484a18.432,18.432,0,0,1-13.58585-6.46831L105.228,399.30914Q97.41911,390.328,77.15455,363.505A594.25756,594.25756,0,0,1,41.639,311.25358a387.21569,387.21569,0,0,1-28.30185-58.50332,169.12,169.12,0,0,1-13.32135-60.439A127.77528,127.77528,0,0,1,38.489,98.82136,130.35082,130.35082,0,0,1,131.05311,60.3722h.22843A130.24248,130.24248,0,0,1,223.83365,98.629,131.9451,131.9451,0,0,1,262.403,191.78225,169.37961,169.37961,0,0,1,249.238,252.618a349.99436,349.99436,0,0,1-29.73257,59.28481q-16.95226,26.9072-33.44765,50.35181c-11.28948,16.01447-20.61923,28.398-28.51826,37.89611l-12.85246,13.682A18.50274,18.50274,0,0,1,131.24547,419.6278Zm.024-322.32132h-.1563a93.59973,93.59973,0,0,0-66.57067,27.70071c-.07214.07214-.14427.1563-.22843.22843A90.54843,90.54843,0,0,0,36.938,191.3855a133.05822,133.05822,0,0,0,10.62823,47.51441A353.21567,353.21567,0,0,0,73.3433,292.30553a560.80832,560.80832,0,0,0,33.2673,48.90906Q124.08585,364.4428,131.71437,373.46c6.23987-7.71869,14.54768-18.85187,24.154-32.48582q15.97839-22.68716,32.35356-48.71669a313.73678,313.73678,0,0,0,26.76292-53.46574,132.70789,132.70789,0,0,0,10.496-47.63464A94.61426,94.61426,0,0,0,197.768,124.79078,93.59987,93.59987,0,0,0,131.26952,97.30648Z"/></g><g id="Tracé_1081" data-name="Tracé 1081"><path d="M102.82431,220.11341a40.13542,40.13542,0,1,0-11.74485-28.36573A38.50643,38.50643,0,0,0,102.82431,220.11341Z"/></g></g></g></svg>