<svg xmlns="http://www.w3.org/2000/svg" viewBox="0 0 20 20"><defs><style>.cls-1{fill:none;}</style></defs><title>marker</title><g id="Calque_2" data-name="Calque 2"><g id="sources_non_vectorisés_" data-name="sources (non vectorisés)"><g id="marker"><g id="Groupe_2231" data-name="Groupe 2231"><g id="Tracé_1080" data-name="Tracé 1080"><path d="M10,16.84h0a.74.74,0,0,1-.55-.26L8.94,16c-.21-.25-.59-.73-1.14-1.46a25.47,25.47,0,0,1-1.44-2.12,16.3,16.3,0,0,1-1.15-2.38,7,7,0,0,1-.54-2.45,5.23,5.23,0,0,1,1.56-3.8A5.31,5.31,0,0,1,10,2.25h0A5.29,5.29,0,0,1,13.76,3.8a5.39,5.39,0,0,1,1.57,3.79,6.88,6.88,0,0,1-.54,2.47,13.93,13.93,0,0,1-1.21,2.41c-.45.72-.91,1.41-1.35,2s-.84,1.15-1.16,1.54l-.52.56A.76.76,0,0,1,10,16.84ZM10,3.75h0a3.77,3.77,0,0,0-2.7,1.13h0A3.68,3.68,0,0,0,6.17,7.57,5.41,5.41,0,0,0,6.6,9.5a14,14,0,0,0,1.05,2.17,21.76,21.76,0,0,0,1.35,2c.47.63.81,1.06,1,1.31.25-.32.59-.77,1-1.32s.87-1.28,1.31-2A13,13,0,0,0,13.4,9.5a5.3,5.3,0,0,0,.43-1.94A3.84,3.84,0,0,0,10,3.75Z"/></g><g id="Tracé_1081" data-name="Tracé 1081"><path d="M8.85,8.74a1.63,1.63,0,1,0-.48-1.15A1.53,1.53,0,0,0,8.85,8.74Z"/></g></g><g id="Rectangle_903" data-name="Rectangle 903"><rect class="cls-1" width="20" height="20"/></g></g></g></g></svg>