<svg id="ds44-icons" xmlns="http://www.w3.org/2000/svg" width="350" height="480" viewBox="0 0 350 480"><g id="Tracé_1080" data-name="Tracé 1080"><path d="M174.3763,471.68043,161.07845,456.095c-3.76807-4.4165-8.81836-10.23291-15.21289-17.59716-6.90674-7.95362-18.78614-23.11914-35.30762-45.07422a753.77756,753.77756,0,0,1-44.708-65.72852l-.09521-.15918a485.74876,485.74876,0,0,1-35.25537-72.8706A210.95913,210.95913,0,0,1,13.826,179.42164l-.00879-.35839A156.64361,156.64361,0,0,1,61.08577,64.72291C123.81087,1.9153,225.94222,1.782,288.82552,64.46022A162.168,162.168,0,0,1,336.202,178.90944l-.00927.54736a208.93524,208.93524,0,0,1-16.1709,74.31787A440.71893,440.71893,0,0,1,282.616,328.40309c-14.19042,22.56543-28.39111,43.95019-42.22363,63.58643-13.9497,19.80371-26.01953,35.83886-35.874,47.66064l-.74268.83789ZM97.33724,308.74489a717.57443,717.57443,0,0,0,42.52685,62.50439c19.99854,26.5752,29.38623,38.12793,33.75,43.15332q1.04151,1.19971,2.03662,2.34522l.99219-1.05225c9.15869-11.02539,20.49561-26.11719,33.70557-44.87012,13.46484-19.11474,27.30664-39.96093,41.1416-61.96a403.89518,403.89518,0,0,0,34.3501-68.58935l.19824-.49219a172.325,172.325,0,0,0,13.41406-61.22266A125.18312,125.18312,0,0,0,262.88216,90.489,123.54962,123.54962,0,0,0,175.0931,54.2068c-.07129,0-.13916.00049-.21.00049A123.55207,123.55207,0,0,0,87.00325,90.77711l-.21972.2168a119.75919,119.75919,0,0,0-36.22364,87.31934A174.3485,174.3485,0,0,0,64.44222,240.575l.251.62012A448.84082,448.84082,0,0,0,97.33724,308.74489ZM73.98909,77.80543h0Z"/></g><g id="Tracé_1081" data-name="Tracé 1081"><path d="M139.05821,214.80582A50.84509,50.84509,0,1,0,124.17939,178.871,48.78143,48.78143,0,0,0,139.05821,214.80582Z"/></g></svg>