<svg id="ds44-icons" xmlns="http://www.w3.org/2000/svg" width="403.55957" height="480" viewBox="0 0 403.55957 480"><title>parking</title><path d="M346.54883,436.90723H57.01074A57.07578,57.07578,0,0,1,0,379.896V100.104A57.07579,57.07579,0,0,1,57.01074,43.09277H346.54883A57.07578,57.07578,0,0,1,403.55957,100.104V379.896A57.07578,57.07578,0,0,1,346.54883,436.90723ZM57.01074,79.09277A21.03516,21.03516,0,0,0,36,100.104V379.896a21.03516,21.03516,0,0,0,21.01074,21.01123H346.54883A21.03516,21.03516,0,0,0,367.55957,379.896V100.104a21.03516,21.03516,0,0,0-21.01074-21.01124Z"/><path d="M169.93852,277.93091v69.57715c0,9.457-8.44434,18.23877-18.57617,18.23877-9.79492,0-18.57715-8.44385-18.57715-18.23877V144.51831c0-10.8081,9.79492-20.26514,21.2793-20.26514h49.64941c59.78223,0,81.06055,37.15284,81.06055,77.34571,0,48.97412-31.749,76.332-81.06055,76.332Zm0-34.45069h33.77539c28.709,0,43.9082-13.51025,43.9082-42.21923,0-20.94043-8.10644-42.21924-43.9082-42.21924H169.93852Z"/></svg>