<svg id="ds44-icons" xmlns="http://www.w3.org/2000/svg" viewBox="0 0 480 480"><title>parking</title><path d="M384.77,436.91H95.23a57.08,57.08,0,0,1-57-57V100.1a57.08,57.08,0,0,1,57-57H384.77a57.08,57.08,0,0,1,57,57V379.9A57.08,57.08,0,0,1,384.77,436.91ZM95.23,79.09a21,21,0,0,0-21,21V379.9a21,21,0,0,0,21,21H384.77a21,21,0,0,0,21-21V100.1a21,21,0,0,0-21-21Z"/><path d="M208.16,277.93v69.58c0,9.46-8.45,18.24-18.58,18.24-9.79,0-18.57-8.45-18.57-18.24v-203c0-10.81,9.79-20.27,21.27-20.27h49.65c59.79,0,81.06,37.16,81.06,77.35,0,49-31.74,76.33-81.06,76.33Zm0-34.45h33.77c28.71,0,43.91-13.51,43.91-42.22,0-20.94-8.1-42.22-43.91-42.22H208.16Z"/></svg>