<?xml version="1.0" encoding="utf-8"?>
<!-- Generator: Adobe Illustrator 23.1.1, SVG Export Plug-In . SVG Version: 6.00 Build 0)  -->
<svg version="1.1" id="Calque_1" xmlns="http://www.w3.org/2000/svg" xmlns:xlink="http://www.w3.org/1999/xlink" x="0px" y="0px"
	 viewBox="0 0 480 480" style="enable-background:new 0 0 480 480;" xml:space="preserve">
<title>pdf</title>
<g>
	<g id="ds44-icons">
		<g id="pdf">
			<path d="M388.5,153.1L290,54.6c-3.5-3.5-8.2-5.4-13.1-5.4H153.8c-37.4,0-67.7,30.3-67.7,67.7v246.2c0,37.4,30.3,67.7,67.7,67.7
				h172.4c37.4,0,67.7-30.3,67.7-67.7v-197C393.9,161.2,391.9,156.5,388.5,153.1z M290.7,107.6l47.8,47.8h-47.8V107.6z M326.2,393.9
				H153.8c-17,0-30.8-13.8-30.8-30.8V116.9c0-17,13.8-30.8,30.8-30.8h100v87.7c0,10.2,8.3,18.5,18.5,18.5H357v170.8
				C356.9,380.1,343.2,393.9,326.2,393.9L326.2,393.9z"/>
			<g>
				<path d="M167.9,286.7v20.8c0,4-3.6,7.5-7.9,7.5c-4.2,0-7.9-3.4-7.9-7.5v-65.4c0-4.4,4.1-8.2,8.8-8.2h16.7
					c21.3,0,28.9,12.7,28.9,26.5c0,16.8-11.3,26.2-28.9,26.2L167.9,286.7z M167.9,272.2h9.6c8.5,0,13-3.8,13-11.9
					c0-5.9-2.4-12-13-12h-9.6V272.2z"/>
				<path d="M238.3,313.9h-12.8c-4.8,0-8.8-3.8-8.8-8.2V242c0-4.4,4.1-8.2,8.8-8.2h12.8c25.6,0,34.5,14.1,34.5,29.8v19.5
					C272.8,299.2,264.1,313.9,238.3,313.9z M256.9,263.6c0-8.6-4.4-15.4-16.7-15.4h-7.7v51.3h7.7c12.5,0,16.7-7.4,16.7-16.4V263.6z"
					/>
				<path d="M299.9,307.6c0,3.9-3.6,7.3-7.9,7.3c-4.4,0-7.9-3.4-7.9-7.3v-65.8c0-4,3.7-8.1,8.7-8.1h30.8c4.3,0,7.9,3.4,7.9,7.4
					c0,4.1-3.6,7-7.9,7h-23.6v18.4h21.4c4,0,7.8,3.1,7.8,7.2c0,4.1-3.4,7.3-7.8,7.3h-21.4V307.6z"/>
			</g>
		</g>
	</g>
</g>
</svg>
