<svg id="ds44-icons" xmlns="http://www.w3.org/2000/svg" viewBox="0 0 307.79 480"><title>pdf</title><g id="pdf"><path d="M302.38,153.07l-98.5-98.49a18.47,18.47,0,0,0-13-5.41H67.71A67.78,67.78,0,0,0,0,116.89V363.11a67.78,67.78,0,0,0,67.71,67.72H240.07a67.79,67.79,0,0,0,67.72-67.72v-197A18.51,18.51,0,0,0,302.38,153.07Zm-97.74-45.5,47.78,47.78H204.64Zm35.43,286.32H67.71a30.81,30.81,0,0,1-30.78-30.78V116.89A30.81,30.81,0,0,1,67.71,86.11h100v87.7a18.47,18.47,0,0,0,18.46,18.47h84.68V363.11A30.8,30.8,0,0,1,240.07,393.89Z"/><path d="M81.74,286.67v20.75c0,4-3.63,7.48-7.94,7.48s-7.94-3.39-7.94-7.48V242.07c0-4.43,4.08-8.17,8.85-8.17H91.39c21.33,0,28.94,12.71,28.94,26.55,0,16.8-11.35,26.22-28.94,26.22Zm0-14.42h9.65c8.51,0,13-3.76,13-11.91,0-5.9-2.38-12-13-12H81.74Z"/><path d="M152.2,313.89H139.38c-4.77,0-8.85-3.75-8.85-8.17V242c0-4.42,4.08-8.18,8.85-8.18H152.2c25.64,0,34.49,14.07,34.49,29.84v19.52C186.69,299.15,178,313.89,152.2,313.89Zm18.61-50.27c0-8.62-4.42-15.42-16.68-15.42h-7.71v51.29h7.71c12.48,0,16.68-7.38,16.68-16.35Z"/><path d="M213.8,307.64c0,3.87-3.63,7.26-7.94,7.26s-7.94-3.39-7.94-7.26v-65.8c0-4,3.74-8.06,8.73-8.06H237.4c4.31,0,7.94,3.41,7.94,7.39s-3.63,7-7.94,7H213.8v18.37h21.45c4,0,7.83,3.08,7.83,7.17s-3.4,7.26-7.83,7.26H213.8Z"/></g></svg>