<svg id="ds44-icons" xmlns="http://www.w3.org/2000/svg" width="390" height="480" viewBox="0 0 390 480"><g id="pdf"><path d="M88.17868,299.22587v30.01361c0,5.73841-5.25151,10.816-11.4942,10.816-6.0688,0-11.47682-4.90373-11.47682-10.816V234.71226c0-6.39919,5.89491-11.80721,12.79839-11.80721h24.1187c30.84828,0,41.85559,18.3803,41.85559,38.39516,0,24.29259-16.41532,37.92566-41.85559,37.92566Zm0-20.86694h13.94607c12.31149,0,18.86719-5.4254,18.86719-17.21522,0-8.538-3.443-17.4065-18.86719-17.4065H88.17868Z"/><path d="M190.07888,338.59482H171.54209c-6.90348,0-12.79839-5.4254-12.79839-11.8246V234.55576c0-6.39919,5.89491-11.8246,12.79839-11.8246h18.53679c37.091,0,49.88937,20.34526,49.88937,43.15978v28.22253C239.96825,317.27577,227.32636,338.59482,190.07888,338.59482Zm26.91835-72.70388c0-12.468-6.3992-22.31023-24.1187-22.31023H181.71472v74.18195h11.16381c18.0499,0,24.1187-10.67691,24.1187-23.64919Z"/><path d="M279.1807,329.55248c0,5.5993-5.25152,10.503-11.49421,10.503-6.39919,0-11.47681-4.90373-11.47681-10.503V234.38187c0-5.73841,5.408-11.65071,12.62449-11.65071h44.48135c6.22531,0,11.47682,4.92112,11.47682,10.67692,0,5.89491-5.25151,10.17263-11.47682,10.17263H279.1807v26.57056h31.02217c5.73841,0,11.32032,4.45162,11.32032,10.36391,0,5.87752-4.92112,10.503-11.32032,10.503H279.1807Z"/></g><g id="Tracé_1085" data-name="Tracé 1085"><path d="M301.85579,472.08717H88.14388A79.52568,79.52568,0,0,1,8.70833,392.65162V87.3484A79.52568,79.52568,0,0,1,88.14388,7.91286H240.79524a18.37609,18.37609,0,0,1,12.99317,5.38183L375.9095,135.41578a18.3761,18.3761,0,0,1,5.38184,12.99317V392.65162A79.52568,79.52568,0,0,1,301.85579,472.08717ZM88.14388,44.66286A42.73361,42.73361,0,0,0,45.45833,87.3484V392.65162a42.73392,42.73392,0,0,0,42.68555,42.68555H301.85579a42.73392,42.73392,0,0,0,42.68555-42.68555V156.02028L233.18392,44.66286Z"/></g><g id="Tracé_1086" data-name="Tracé 1086"><path d="M349.63558,176.30983H235.02474a18.37473,18.37473,0,0,1-18.375-18.375V43.44655a18.375,18.375,0,0,1,36.75,0v96.11328h96.23584a18.375,18.375,0,0,1,0,36.75Z"/></g></svg>