<svg id="ds44-icons" xmlns="http://www.w3.org/2000/svg" width="307.78566" height="480" viewBox="0 0 307.78566 480"><title>pdf</title><g id="pdf"><path d="M302.37536,153.0746,203.884,54.58319a18.4747,18.4747,0,0,0-13.05684-5.4103H67.71284A67.78174,67.78174,0,0,0,0,116.88574V363.11426a67.78174,67.78174,0,0,0,67.71284,67.71285h172.36a67.78174,67.78174,0,0,0,67.71285-67.71285V166.13144A18.4747,18.4747,0,0,0,302.37536,153.0746Zm-97.734-45.50659,47.77892,47.77891H204.64139Zm35.43142,286.32482h-172.36a30.80707,30.80707,0,0,1-30.77856-30.77857V116.88574A30.80707,30.80707,0,0,1,67.71284,86.10717h99.99428v87.70689a18.4719,18.4719,0,0,0,18.46713,18.46714h84.67713V363.11426A30.80707,30.80707,0,0,1,240.07281,393.89283Z"/><path d="M81.74451,286.67281V307.4243c0,3.96755-3.63091,7.47823-7.94712,7.47823-4.196,0-7.9351-3.39046-7.9351-7.47823V242.06793c0-4.42441,4.07575-8.16353,8.84884-8.16353H91.38686c21.32858,0,28.93906,12.70818,28.93906,26.54651,0,16.796-11.34959,26.2219-28.93906,26.2219Zm0-14.42745h9.64235c8.51219,0,13.04482-3.75114,13.04482-11.90265,0-5.90323-2.38053-12.0349-13.04482-12.0349H81.74451Z"/><path d="M152.19857,313.8926H139.38218c-4.77308,0-8.84883-3.75113-8.84883-8.17555V241.95973c0-4.42442,4.07575-8.17556,8.84883-8.17556h12.81639c25.6448,0,34.49363,14.06677,34.49363,29.84078v19.51313C186.6922,299.15256,177.95157,313.8926,152.19857,313.8926ZM170.81,263.625c0-8.6204-4.42441-15.42535-16.67573-15.42535h-7.71868v51.2896h7.71868c12.47975,0,16.67573-7.382,16.67573-16.35112Z"/><path d="M213.80379,307.64071c0,3.87136-3.63091,7.26182-7.94712,7.26182-4.42442,0-7.9351-3.39046-7.9351-7.26182V241.8395c0-3.96755,3.73912-8.05533,8.72861-8.05533H237.4047c4.30419,0,7.9351,3.40248,7.9351,7.38205,0,4.07575-3.63091,7.03338-7.9351,7.03338H213.80379v18.371h21.44882c3.96755,0,7.82689,3.07786,7.82689,7.16563,0,4.06374-3.40247,7.26182-7.82689,7.26182H213.80379Z"/></g></svg>