<svg id="ds44-icons" xmlns="http://www.w3.org/2000/svg" viewBox="0 0 480 480"><title>pdf</title><g id="pdf"><path d="M388.48,153.07,290,54.58a18.48,18.48,0,0,0-13.06-5.41H153.82a67.78,67.78,0,0,0-67.71,67.72V363.11a67.78,67.78,0,0,0,67.71,67.72H326.18a67.78,67.78,0,0,0,67.71-67.72v-197A18.47,18.47,0,0,0,388.48,153.07Zm-97.73-45.5,47.78,47.78H290.75Zm35.43,286.32H153.82A30.8,30.8,0,0,1,123,363.11V116.89a30.8,30.8,0,0,1,30.78-30.78h100v87.7a18.48,18.48,0,0,0,18.47,18.47H357V363.11A30.8,30.8,0,0,1,326.18,393.89Z"/><path d="M167.85,286.67v20.75c0,4-3.63,7.48-7.95,7.48s-7.93-3.39-7.93-7.48V242.07c0-4.43,4.08-8.17,8.85-8.17h16.67c21.33,0,28.94,12.71,28.94,26.55,0,16.8-11.35,26.22-28.94,26.22Zm0-14.42h9.64c8.52,0,13-3.76,13-11.91,0-5.9-2.38-12-13-12h-9.64Z"/><path d="M238.31,313.89H225.49c-4.77,0-8.85-3.75-8.85-8.17V242c0-4.42,4.08-8.18,8.85-8.18h12.82c25.64,0,34.49,14.07,34.49,29.84v19.52C272.8,299.15,264.06,313.89,238.31,313.89Zm18.61-50.27c0-8.62-4.43-15.42-16.68-15.42h-7.72v51.29h7.72c12.48,0,16.68-7.38,16.68-16.35Z"/><path d="M299.91,307.64c0,3.87-3.63,7.26-8,7.26s-7.93-3.39-7.93-7.26v-65.8c0-4,3.74-8.06,8.73-8.06h30.75c4.31,0,7.94,3.41,7.94,7.39s-3.63,7-7.94,7h-23.6v18.37h21.45c4,0,7.83,3.08,7.83,7.17s-3.41,7.26-7.83,7.26H299.91Z"/></g></svg>