<?xml version="1.0" encoding="utf-8"?>
<!-- Generator: Adobe Illustrator 23.1.1, SVG Export Plug-In . SVG Version: 6.00 Build 0)  -->
<svg version="1.1" id="Calque_1" xmlns="http://www.w3.org/2000/svg" xmlns:xlink="http://www.w3.org/1999/xlink" x="0px" y="0px"
	 viewBox="0 0 480 480" style="enable-background:new 0 0 480 480;" xml:space="preserve">
<title>phone</title>
<g>
	<g id="ds44-icons">
		<g id="phone">
			<g id="Tracé_1084">
				<path d="M429.4,446.8c-0.4,0-0.9,0-1.3,0C110,423.7,30.1,178,32.2,51.3c0.2-10.1,8.4-18.2,18.5-18.2h101.8
					c8,0,15.1,5.1,17.6,12.8l31.9,98.3c1.8,5.4,0.9,11.3-2.3,16.1c-11.9,17.6-24.9,37.2-31.5,47.5c22.4,44.1,58.4,79.7,102.7,101.5
					l40.3-32.1c4.4-3.5,10.3-4.8,15.8-3.5l106.7,25.4c8.3,2,14.2,9.4,14.2,18v111.3C447.8,438.6,439.6,446.8,429.4,446.8z
					 M69.8,70.1c4.7,68.8,42.4,306.5,341.1,338.1v-76.6l-83.7-20L285,345.3c-5.4,4.2-12.6,5.2-18.9,2.5
					c-60.1-26.2-108.4-73.6-135.6-133.2c-0.4-0.8-0.7-1.6-0.9-2.4c-2.8-9.4-2.9-9.8,34.4-65.1l-25-76.9H69.8z"/>
			</g>
		</g>
	</g>
</g>
</svg>
