<svg id="ds44-icons" xmlns="http://www.w3.org/2000/svg" viewBox="0 0 480 480"><title>phone</title><g id="phone"><g id="Tracé_1084" data-name="Tracé 1084"><path d="M429.36,446.83c-.45,0-.89,0-1.34-.05C110,423.7,30.08,178,32.22,51.32A18.47,18.47,0,0,1,50.68,33.17H152.45A18.48,18.48,0,0,1,170,45.93l31.93,98.27a18.45,18.45,0,0,1-2.27,16.06c-11.92,17.64-24.95,37.2-31.55,47.51A228.25,228.25,0,0,0,270.87,309.26l40.31-32.12A18.34,18.34,0,0,1,327,273.63l106.67,25.44a18.44,18.44,0,0,1,14.18,18V428.36a18.48,18.48,0,0,1-18.46,18.47ZM69.78,70.1c4.65,68.82,42.39,306.47,341.11,338.09V331.6l-83.73-20L285,345.26a18.53,18.53,0,0,1-18.89,2.48A265.61,265.61,0,0,1,130.5,214.51a23,23,0,0,1-.91-2.39c-2.82-9.4-2.94-9.79,34.43-65.08L139,70.1Z"/></g></g></svg>