<svg xmlns="http://www.w3.org/2000/svg" viewBox="0 0 20 20"><defs><style>.cls-1{fill:none;}</style></defs><title>phone</title><g id="Calque_2" data-name="Calque 2"><g id="sources_non_vectorisés_" data-name="sources (non vectorisés)"><g id="phone"><g id="Tracé_1084" data-name="Tracé 1084"><path d="M17.88,18.55h-.06C4.91,17.61,1.66,7.63,1.75,2.49a.75.75,0,0,1,.75-.74H6.63a.75.75,0,0,1,.72.52l1.29,4a.75.75,0,0,1-.09.65c-.48.72-1,1.51-1.28,1.93A9.24,9.24,0,0,0,11.44,13l1.64-1.3a.71.71,0,0,1,.64-.14l4.33,1a.75.75,0,0,1,.58.73V17.8a.76.76,0,0,1-.24.55A.74.74,0,0,1,17.88,18.55ZM3.28,3.25C3.46,6,5,15.7,17.13,17V13.87l-3.4-.81L12,14.42a.73.73,0,0,1-.76.11A10.82,10.82,0,0,1,5.74,9.11L5.7,9c-.11-.38-.11-.4,1.4-2.65l-1-3.12Z"/></g><g id="Rectangle_912" data-name="Rectangle 912"><rect class="cls-1" width="20" height="20"/></g></g></g></g></svg>