<svg id="ds44-icons" xmlns="http://www.w3.org/2000/svg" width="415.64833" height="480" viewBox="0 0 415.64833 480"><title>phone</title><g id="phone"><g id="Tracé_1084" data-name="Tracé 1084"><path d="M397.18119,446.82956c-.44485,0-.8897-.024-1.33454-.04809C77.85357,423.69754-2.09857,178.01.0415,51.325A18.46948,18.46948,0,0,1,18.50864,33.17044H120.27028A18.473,18.473,0,0,1,137.8357,45.92671l31.93276,98.275a18.47463,18.47463,0,0,1-2.27232,16.06257c-11.9267,17.63756-24.94747,37.19878-31.548,47.50239A228.26165,228.26165,0,0,0,238.69562,309.2638l40.3127-32.12513a18.35593,18.35593,0,0,1,15.786-3.51068l106.667,25.44041a18.44542,18.44542,0,0,1,14.187,17.96217V428.36242a18.48426,18.48426,0,0,1-18.46714,18.46714ZM37.601,70.10472C42.25383,138.92367,79.99364,376.56786,378.71405,408.188V331.6023l-83.72732-19.958-42.21232,33.616a18.51828,18.51828,0,0,1-18.88794,2.47671A265.56535,265.56535,0,0,1,98.32853,214.5115a21.30257,21.30257,0,0,1-.91374-2.39255c-2.82538-9.40189-2.94561-9.78662,34.43352-65.07984L106.85275,70.10472Z"/></g></g></svg>