<svg id="ds44-icons" xmlns="http://www.w3.org/2000/svg" viewBox="0 0 415.65 480"><title>phone</title><g id="phone"><g id="Tracé_1084" data-name="Tracé 1084"><path d="M397.18,446.83c-.44,0-.89,0-1.33-.05C77.85,423.7-2.1,178,0,51.32A18.47,18.47,0,0,1,18.51,33.17H120.27a18.48,18.48,0,0,1,17.57,12.76l31.93,98.27a18.51,18.51,0,0,1-2.27,16.06c-11.93,17.64-24.95,37.2-31.55,47.51A228.25,228.25,0,0,0,238.7,309.26L279,277.14a18.32,18.32,0,0,1,15.78-3.51l106.67,25.44a18.44,18.44,0,0,1,14.19,18V428.36a18.48,18.48,0,0,1-18.47,18.47ZM37.6,70.1C42.25,138.92,80,376.57,378.71,408.19V331.6l-83.72-20-42.22,33.62a18.51,18.51,0,0,1-18.88,2.48A265.53,265.53,0,0,1,98.33,214.51a23.09,23.09,0,0,1-.92-2.39c-2.82-9.4-2.94-9.79,34.44-65.08l-25-76.94Z"/></g></g></svg>