<?xml version="1.0" encoding="utf-8"?>
<!-- Generator: Adobe Illustrator 23.1.1, SVG Export Plug-In . SVG Version: 6.00 Build 0)  -->
<svg version="1.1" id="Calque_1" xmlns="http://www.w3.org/2000/svg" xmlns:xlink="http://www.w3.org/1999/xlink" x="0px" y="0px"
	 viewBox="0 0 480 480" style="enable-background:new 0 0 480 480;" xml:space="preserve">
<title>plus</title>
<g>
	<g id="ds44-icons">
		<g id="plus">
			<path d="M412.4,221.5H258.5V67.6c0-10.2-8.3-18.5-18.5-18.5c-10.2,0-18.5,8.3-18.5,18.5c0,0,0,0,0,0v153.9H67.6
				c-10.2,0-18.5,8.3-18.5,18.5c0,10.2,8.3,18.5,18.5,18.5c0,0,0,0,0,0h153.9v153.9c0,10.2,8.3,18.5,18.5,18.5
				c10.2,0,18.5-8.3,18.5-18.5c0,0,0,0,0,0V258.5h153.9c10.2,0,18.5-8.3,18.5-18.5C430.8,229.8,422.6,221.5,412.4,221.5
				C412.4,221.5,412.4,221.5,412.4,221.5L412.4,221.5z"/>
		</g>
	</g>
</g>
</svg>
