<svg xmlns="http://www.w3.org/2000/svg" viewBox="0 0 20 20"><defs><style>.cls-1{fill:none;}</style></defs><title>position</title><g id="Calque_2" data-name="Calque 2"><g id="sources_non_vectorisés_" data-name="sources (non vectorisés)"><g id="position"><circle cx="10" cy="10" r="2.5"/><path d="M18,9.25H16.45a6.5,6.5,0,0,0-5.7-5.7V2a.75.75,0,0,0-1.5,0V3.55a6.49,6.49,0,0,0-5.7,5.7H2a.75.75,0,0,0,0,1.5H3.55a6.49,6.49,0,0,0,5.7,5.7V18a.75.75,0,0,0,1.5,0V16.45a6.5,6.5,0,0,0,5.7-5.7H18a.75.75,0,0,0,0-1.5ZM10,15a5,5,0,1,1,5-5A5,5,0,0,1,10,15Z"/><g id="Rectangle_934" data-name="Rectangle 934"><rect class="cls-1" width="20" height="20"/></g></g></g></g></svg>