<svg id="ds44-icons" xmlns="http://www.w3.org/2000/svg" viewBox="0 0 480 480"><title>position</title><g id="position"><path d="M240,178.44a61.65,61.65,0,1,0,61.64,61.65A61.65,61.65,0,0,0,240,178.44Z"/><path d="M437,221.53H398.89A160.24,160.24,0,0,0,258.47,81.11V43a18.47,18.47,0,0,0-36.94,0V81.11A160.24,160.24,0,0,0,81.11,221.53H43a18.47,18.47,0,0,0,0,36.94H81.11A160.24,160.24,0,0,0,221.53,398.89V437a18.47,18.47,0,0,0,36.94,0V398.89A160.24,160.24,0,0,0,398.89,258.47H437a18.47,18.47,0,0,0,0-36.94ZM240,363.11A123.11,123.11,0,1,1,363.11,240,123.25,123.25,0,0,1,240,363.11Z"/></g></svg>