<svg id="ds44-icons" xmlns="http://www.w3.org/2000/svg" width="430.89992" height="480" viewBox="0 0 430.89992 480"><g id="position"><path d="M215.462,178.44287a61.6428,61.6428,0,1,0,61.6413,61.64279A61.64388,61.64388,0,0,0,215.462,178.44287Z"/><path d="M412.43278,221.53286H374.34431A160.24792,160.24792,0,0,0,233.9171,81.10565V43.01718a18.46714,18.46714,0,0,0-36.93428,0V81.10565A160.24792,160.24792,0,0,0,56.55561,221.53286H18.46714a18.46714,18.46714,0,1,0,0,36.93428H56.55561A160.24792,160.24792,0,0,0,196.98282,398.89435v38.08847a18.46714,18.46714,0,0,0,36.93428,0V398.89435A160.24792,160.24792,0,0,0,374.34431,258.46714h38.08847a18.46714,18.46714,0,1,0,0-36.93428ZM215.45,363.11426A123.11426,123.11426,0,1,1,338.56422,240,123.25918,123.25918,0,0,1,215.45,363.11426Z"/></g></svg>