<?xml version="1.0" encoding="utf-8"?>
<!-- Generator: Adobe Illustrator 23.1.1, SVG Export Plug-In . SVG Version: 6.00 Build 0)  -->
<svg version="1.1" id="Calque_1" xmlns="http://www.w3.org/2000/svg" xmlns:xlink="http://www.w3.org/1999/xlink" x="0px" y="0px"
	 viewBox="0 0 480 480" style="enable-background:new 0 0 480 480;" xml:space="preserve">
<title>position</title>
<g>
	<g id="ds44-icons">
		<g id="position">
			<g>
				<path d="M240,178.4c-34,0-61.6,27.6-61.6,61.6s27.6,61.6,61.6,61.6c34,0,61.6-27.6,61.6-61.6c0,0,0,0,0,0
					C301.7,206,274.1,178.4,240,178.4z"/>
				<path d="M437,221.5h-38.1c-8.7-73.7-66.8-131.8-140.4-140.4V43c0-10.2-8.3-18.5-18.5-18.5c-10.2,0-18.5,8.3-18.5,18.5v38.1
					c-73.7,8.7-131.8,66.8-140.4,140.4H43c-10.2,0-18.5,8.3-18.5,18.5c0,10.2,8.3,18.5,18.5,18.5h38.1
					c8.7,73.7,66.8,131.8,140.4,140.4V437c0,10.2,8.3,18.5,18.5,18.5c10.2,0,18.5-8.3,18.5-18.5v-38.1
					c73.7-8.7,131.8-66.8,140.4-140.4H437c10.2,0,18.5-8.3,18.5-18.5C455.5,229.8,447.2,221.5,437,221.5
					C437,221.5,437,221.5,437,221.5z M240,363.1c-68,0-123.1-55.1-123.1-123.1S172,116.9,240,116.9S363.1,172,363.1,240c0,0,0,0,0,0
					C363,308,308,363,240,363.1z"/>
			</g>
		</g>
	</g>
</g>
</svg>
