<?xml version="1.0" encoding="utf-8"?>
<!-- Generator: Adobe Illustrator 23.1.1, SVG Export Plug-In . SVG Version: 6.00 Build 0)  -->
<svg version="1.1" id="Calque_1" xmlns="http://www.w3.org/2000/svg" xmlns:xlink="http://www.w3.org/1999/xlink" x="0px" y="0px"
	 viewBox="0 0 480 480" style="enable-background:new 0 0 480 480;" xml:space="preserve">
<title>print</title>
<g>
	<g id="ds44-icons">
		<g id="print">
			<g id="Rectangle_941">
				<path d="M337.9,141.4H139.5c-9.8,0-17.7-7.9-17.7-17.7V36.6c0-9.8,7.9-17.7,17.7-17.7h198.3c9.8,0,17.7,7.9,17.7,17.7v87.1
					C355.6,133.5,347.7,141.4,337.9,141.4z M157.3,105.9h162.9V54.4H157.3L157.3,105.9z"/>
			</g>
			<path d="M390.1,153.7H89.5C43.6,154.8,6.9,193,7.7,238.5v134.4c0,9.8,7.9,17.7,17.7,17.7H121c0.3,0,0.5-0.2,0.8-0.2v52.9
				c0,9.8,7.9,17.7,17.7,17.7h198.3c9.8,0,17.7-7.9,17.7-17.7v-52.7h98.9c9.8,0,17.7-7.9,17.7-17.7V238.8
				C473,193,436.4,154.8,390.1,153.7z M320.2,425.6H157.3V303.9h162.9V425.6z M436.8,355.2h-81.2v-69c0-9.8-7.9-17.7-17.7-17.7
				H139.5c-9.8,0-17.7,7.9-17.7,17.7v69.2c-0.3,0-0.5-0.2-0.8-0.2H43.2v-117c-0.5-26.4,20.7-48.4,46.7-49.1h299.8
				c26.6,0.7,47.6,22.8,47.1,49.4L436.8,355.2z"/>
			<g id="Ellipse_35">
				<ellipse cx="384.4" cy="242.7" rx="22.6" ry="21.9"/>
			</g>
		</g>
	</g>
</g>
</svg>
