<svg id="ds44-icons" xmlns="http://www.w3.org/2000/svg" viewBox="0 0 480 480"><title>print</title><g id="print"><g id="Rectangle_941" data-name="Rectangle 941"><path d="M336.86,142.44H140.59A17.55,17.55,0,0,1,123,124.89V38.75a17.54,17.54,0,0,1,17.55-17.54H336.86A17.54,17.54,0,0,1,354.4,38.75v86.14A17.55,17.55,0,0,1,336.86,142.44ZM158.13,107.35H319.31V56.29H158.13Z"/></g><path d="M388.53,154.6H91c-45.39,1.06-81.67,38.85-80.89,83.93v133A17.55,17.55,0,0,0,27.69,389.1h94.55c.29,0,.52-.15.8-.16v52.31a17.54,17.54,0,0,0,17.55,17.54H336.86a17.54,17.54,0,0,0,17.54-17.54V389.1h97.91a17.55,17.55,0,0,0,17.54-17.54V238.81C470.61,193.45,434.31,155.67,388.53,154.6ZM319.31,423.71H158.13V303.23H319.31ZM434.76,354H354.4V285.69a17.55,17.55,0,0,0-17.54-17.55H140.59A17.55,17.55,0,0,0,123,285.69v68.48c-.28,0-.51-.16-.8-.16h-77V238.23c-.46-26.17,20.46-47.94,46.21-48.54H388.12a48,48,0,0,1,46.64,48.84Z"/><g id="Ellipse_35" data-name="Ellipse 35"><ellipse cx="382.87" cy="242.67" rx="22.36" ry="21.71"/></g></g></svg>