<svg id="ds44-icons" xmlns="http://www.w3.org/2000/svg" viewBox="0 0 459.7 480"><title>print</title><g id="print"><g id="Rectangle_941" data-name="Rectangle 941"><path d="M326.71,142.44H130.44a17.55,17.55,0,0,1-17.55-17.55V38.75a17.54,17.54,0,0,1,17.55-17.54H326.71a17.54,17.54,0,0,1,17.54,17.54v86.14A17.55,17.55,0,0,1,326.71,142.44ZM148,107.35H309.16V56.29H148Z"/></g><path d="M378.38,154.6H80.89C35.5,155.66-.78,193.45,0,238.53v133A17.55,17.55,0,0,0,17.54,389.1h94.55c.29,0,.52-.15.8-.16v52.31a17.54,17.54,0,0,0,17.55,17.54H326.71a17.54,17.54,0,0,0,17.54-17.54V389.1h97.91a17.55,17.55,0,0,0,17.54-17.54V238.81C460.46,193.45,424.16,155.67,378.38,154.6ZM309.16,423.71H148V303.23H309.16ZM424.61,354H344.25V285.69a17.55,17.55,0,0,0-17.54-17.55H130.44a17.55,17.55,0,0,0-17.55,17.55v68.48c-.28,0-.51-.16-.8-.16h-77V238.23c-.46-26.17,20.47-47.94,46.21-48.54H378a48,48,0,0,1,46.64,48.84Z"/><g id="Ellipse_35" data-name="Ellipse 35"><ellipse cx="372.72" cy="242.67" rx="22.36" ry="21.71"/></g></g></svg>