<svg id="ds44-icons" xmlns="http://www.w3.org/2000/svg" width="459.70193" height="480" viewBox="0 0 459.70193 480"><g id="print"><g id="Rectangle_941" data-name="Rectangle 941"><path d="M326.70726,142.43555H130.4362a17.54831,17.54831,0,0,1-17.54379-17.54378V38.74906A17.54832,17.54832,0,0,1,130.4362,21.20527H326.70726a17.54832,17.54832,0,0,1,17.54379,17.54379v86.14271A17.54831,17.54831,0,0,1,326.70726,142.43555ZM147.98,107.348h161.1835V56.29284H147.98Z"/></g><path d="M378.37918,154.5997H80.88872C35.49875,155.66192-.77668,193.445,0,238.5266V371.55553a17.5483,17.5483,0,0,0,17.54378,17.54378h94.54911c.28555,0,.51969-.14848.79952-.16133v52.313a17.54832,17.54832,0,0,0,17.54379,17.54379H326.70726a17.54832,17.54832,0,0,0,17.54379-17.54379V389.09931h97.90709a17.54831,17.54831,0,0,0,17.54379-17.54378V238.81214C460.45576,193.445,424.15749,155.67334,378.37918,154.5997Zm-69.2157,269.10746H147.98V303.23072h161.1835Zm115.45088-69.69542H344.25105V285.68693a17.54831,17.54831,0,0,0-17.54379-17.54378H130.4362a17.54831,17.54831,0,0,0-17.54379,17.54378v68.48614c-.27983-.01284-.514-.16133-.79952-.16133H35.08757V238.22963c-.45687-26.16719,20.46774-47.937,46.21233-48.54237H377.968a47.96868,47.96868,0,0,1,46.64636,48.83934Z"/><g id="Ellipse_35" data-name="Ellipse 35"><ellipse cx="372.72456" cy="242.67305" rx="22.36247" ry="21.70751"/></g></g></svg>