<svg xmlns="http://www.w3.org/2000/svg" viewBox="0 0 21.4 20.61"><defs><style>.cls-1{fill:none;}</style></defs><title>print</title><g id="Calque_2" data-name="Calque 2"><g id="sources_non_vectorisés_" data-name="sources (non vectorisés)"><g id="print"><g id="Rectangle_941" data-name="Rectangle 941"><path d="M14.93,6.16H6.54a.74.74,0,0,1-.75-.75V1.73A.75.75,0,0,1,6.54,1h8.39a.76.76,0,0,1,.75.75V5.41A.75.75,0,0,1,14.93,6.16ZM7.29,4.66h6.89V2.48H7.29Z"/></g><path d="M17.14,6.68H4.42A3.56,3.56,0,0,0,1,10.27V16a.76.76,0,0,0,.75.75H5.79v2.24a.75.75,0,0,0,.75.75h8.39a.76.76,0,0,0,.75-.75V16.71h4.18a.75.75,0,0,0,.75-.75V10.28A3.56,3.56,0,0,0,17.14,6.68Zm-3,11.51H7.29V13h6.89Zm4.93-3H15.68V12.29a.75.75,0,0,0-.75-.75H6.54a.74.74,0,0,0-.75.75v2.93H2.46v-5a2.05,2.05,0,0,1,2-2.08H17.12a2,2,0,0,1,2,2.09Z"/><g id="Ellipse_35" data-name="Ellipse 35"><ellipse cx="16.9" cy="10.45" rx="0.96" ry="0.93"/></g><g id="Rectangle_943" data-name="Rectangle 943"><rect class="cls-1" width="21.4" height="20.61"/></g></g></g></g></svg>