<?xml version="1.0" encoding="utf-8"?>
<!-- Generator: Adobe Illustrator 23.1.1, SVG Export Plug-In . SVG Version: 6.00 Build 0)  -->
<svg version="1.1" id="Calque_1" xmlns="http://www.w3.org/2000/svg" xmlns:xlink="http://www.w3.org/1999/xlink" x="0px" y="0px"
	 viewBox="0 0 480 480" style="enable-background:new 0 0 480 480;" xml:space="preserve">
<title>star-empty</title>
<g>
	<g id="ds44-icons">
		<g id="star-empty">
			<g id="Tracé_1099">
				<path d="M374,454c-3.1,0-6.2-0.9-8.9-2.6l-124.1-78.6L114,451.5c-7.8,4.8-18,2.4-22.9-5.4c-2.3-3.8-3.1-8.3-2-12.6L122.2,296
					L12.8,201.2c-6.9-6-7.7-16.5-1.7-23.4c2.8-3.2,6.7-5.2,10.9-5.7l149.5-14.9l54.5-121.5c2.7-6,8.6-9.8,15.2-9.8h0.2
					c6.6,0.1,12.5,4,15.1,10.1l51.3,121.2L458,172.1c9.1,0.9,15.8,9.1,14.9,18.2c-0.4,4.3-2.5,8.2-5.8,11L354.7,296l35.4,137.2
					c2.3,8.9-3.1,17.9-11.9,20.2C376.8,453.8,375.4,454,374,454L374,454z M63.7,201.3l87.9,76.2c4.7,4.1,6.7,10.4,5.3,16.4
					l-26,108.1l101.6-62.9c5.4-3.3,12.2-3.3,17.6,0.1l97.4,61.7l-27.5-106.7c-1.6-6.2,0.5-12.7,5.4-16.8l90.2-76.1l-120.8-11.9
					c-6-0.6-11.3-4.5-13.6-10.1l-40.3-95.2l-42.9,95.5c-2.4,5.4-7.6,9.1-13.5,9.7L63.7,201.3z"/>
			</g>
		</g>
	</g>
</g>
</svg>
