<?xml version="1.0" encoding="utf-8"?>
<!-- Generator: Adobe Illustrator 23.1.1, SVG Export Plug-In . SVG Version: 6.00 Build 0)  -->
<svg version="1.1" id="Calque_1" xmlns="http://www.w3.org/2000/svg" xmlns:xlink="http://www.w3.org/1999/xlink" x="0px" y="0px"
	 viewBox="0 0 480 480" style="enable-background:new 0 0 480 480;" xml:space="preserve">
<title>star-full</title>
<g>
	<g id="ds44-icons">
		<g id="star-full">
			<path d="M472.2,183.7c-2-6.4-7.6-11-14.2-11.6l-150.2-14.8L256.5,36.1C253.9,30,248,26,241.4,26c-5.7,0.3-12.6,3.8-15.3,9.8
				l-54.5,121.5L22.1,172.1c-9.1,0.9-15.8,9-14.9,18.2c0.4,4.2,2.4,8.1,5.7,10.9L122.2,296L89.1,433.5c-2.1,8.9,3.4,17.9,12.3,20
				c4.3,1,8.8,0.3,12.6-2l127.1-78.7l124.1,78.6c2.7,1.7,5.7,2.6,8.9,2.6c9.2,0,16.6-7.4,16.6-16.6c0-1.4-0.2-2.8-0.5-4.1L354.7,296
				L467,201.3C472.1,197,474.1,190.1,472.2,183.7z"/>
		</g>
	</g>
</g>
</svg>
