<svg id="ds44-icons" xmlns="http://www.w3.org/2000/svg" width="466.28031" height="480" viewBox="0 0 466.28031 480"><title>star-full</title><g id="star-full"><path d="M465.52665,183.64235A16.59547,16.59547,0,0,0,451.30839,172.021l-150.298-14.84585L249.67753,35.898a16.62259,16.62259,0,0,0-15.12719-10.13889c-5.67.34626-12.63845,3.7872-15.34359,9.81427L164.62769,157.15355,14.97894,172.03186a16.61773,16.61773,0,0,0-9.24078,29.09656L115.22088,296.025,82.13152,433.72782a16.62455,16.62455,0,0,0,24.909,18.00546l127.18521-78.73061,124.17709,78.644a16.76422,16.76422,0,0,0,8.89452,2.5753,16.62609,16.62609,0,0,0,16.101-20.77553L347.95012,296.06827l112.42593-94.79918A16.591,16.591,0,0,0,465.52665,183.64235Z"/></g></svg>