<svg id="ds44-icons" xmlns="http://www.w3.org/2000/svg" viewBox="0 0 466.28 480"><title>star-full</title><g id="star-full"><path d="M465.53,183.64A16.61,16.61,0,0,0,451.31,172L301,157.18,249.68,35.9a16.63,16.63,0,0,0-15.13-10.14c-5.67.35-12.64,3.79-15.34,9.81L164.63,157.15,15,172a16.62,16.62,0,0,0-9.24,29.1L115.22,296,82.13,433.73a16.62,16.62,0,0,0,24.91,18L234.23,373,358.4,451.65a16.76,16.76,0,0,0,8.9,2.57,16.62,16.62,0,0,0,16.1-20.77L348,296.07l112.43-94.8A16.61,16.61,0,0,0,465.53,183.64Z"/></g></svg>