<svg xmlns="http://www.w3.org/2000/svg" viewBox="0 0 21.05 19.34"><defs><style>.cls-1{fill:none;}</style></defs><title>star-full</title><g id="Calque_2" data-name="Calque 2"><g id="sources_non_vectorisés_" data-name="sources (non vectorisés)"><g id="star-full"><path d="M21,7.12a.76.76,0,0,0-.64-.52l-6.79-.67L11.27.46A.75.75,0,0,0,10.58,0a.85.85,0,0,0-.69.44L7.43,5.93.68,6.6A.74.74,0,0,0,0,7.12a.71.71,0,0,0,.22.79L5.2,12.2,3.71,18.41a.75.75,0,0,0,1.12.81l5.74-3.55,5.6,3.55a.76.76,0,0,0,.4.11.74.74,0,0,0,.73-.93l-1.6-6.2,5.07-4.28A.74.74,0,0,0,21,7.12Z"/><rect class="cls-1" width="21.05" height="19.33"/></g></g></g></svg>