<svg id="ds44-icons" xmlns="http://www.w3.org/2000/svg" width="466.28031" height="480" viewBox="0 0 466.28031 480"><g id="star-empty"><g id="Tracé_1099" data-name="Tracé 1099"><path d="M367.29733,454.222a16.76422,16.76422,0,0,1-8.89452-2.5753l-124.17709-78.644L107.04051,451.73328a16.62455,16.62455,0,0,1-24.909-18.00546L115.22088,296.025,5.73816,201.12842a16.61773,16.61773,0,0,1,9.24078-29.09656l149.64875-14.87831L219.20675,35.5734a16.64358,16.64358,0,0,1,15.17046-9.81427h.17313A16.62259,16.62259,0,0,1,249.67753,35.898L301.0104,157.17519l150.298,14.84585a16.62954,16.62954,0,0,1,9.06766,29.24805L347.95012,296.06827l35.44825,137.37821a16.62609,16.62609,0,0,1-16.101,20.77553ZM56.68149,201.29073l87.94975,76.2527a16.59958,16.59958,0,0,1,5.28045,16.42565L123.899,402.21826l101.6919-62.95419a16.62359,16.62359,0,0,1,17.63756.08656L340.722,401.09292,313.1511,294.25042a16.63838,16.63838,0,0,1,5.38866-16.85848l90.30864-76.15531L287.91749,189.2907a16.6165,16.6165,0,0,1-13.65558-10.06315L233.92275,83.96308l-42.89282,95.58909a16.618,16.618,0,0,1-13.52574,9.72771Z"/></g></g></svg>