<svg id="ds44-icons" xmlns="http://www.w3.org/2000/svg" viewBox="0 0 480 480"><title>star-full</title><g id="star-full"><path d="M472.39,183.64A16.61,16.61,0,0,0,458.17,172l-150.3-14.84L256.54,35.9a16.63,16.63,0,0,0-15.13-10.14c-5.67.35-12.64,3.79-15.34,9.81L171.49,157.15,21.84,172a16.62,16.62,0,0,0-9.24,29.1L122.08,296,89,433.73a16.62,16.62,0,0,0,24.91,18L241.09,373l124.17,78.65a16.76,16.76,0,0,0,8.9,2.57,16.62,16.62,0,0,0,16.1-20.77L354.81,296.07l112.43-94.8A16.61,16.61,0,0,0,472.39,183.64Z"/></g></svg>