<svg id="ds44-icons" xmlns="http://www.w3.org/2000/svg" viewBox="0 0 466.28 480"><title>star-empty</title><g id="star-empty"><g id="Tracé_1099" data-name="Tracé 1099"><path d="M367.3,454.22a16.76,16.76,0,0,1-8.9-2.57L234.23,373,107,451.73a16.62,16.62,0,0,1-24.91-18L115.22,296,5.74,201.13A16.62,16.62,0,0,1,15,172l149.65-14.88L219.21,35.57a16.64,16.64,0,0,1,15.17-9.81h.17A16.63,16.63,0,0,1,249.68,35.9L301,157.18,451.31,172a16.63,16.63,0,0,1,9.07,29.25L348,296.07,383.4,433.45a16.62,16.62,0,0,1-16.1,20.77ZM56.68,201.29l87.95,76.25A16.6,16.6,0,0,1,149.91,294l-26,108.25,101.69-63a16.63,16.63,0,0,1,17.64.09l97.49,61.74L313.15,294.25a16.64,16.64,0,0,1,5.39-16.86l90.31-76.15-120.93-12a16.64,16.64,0,0,1-13.66-10.06L233.92,84,191,179.55a16.63,16.63,0,0,1-13.53,9.73Z"/></g></g></svg>