<svg id="ds44-icons" xmlns="http://www.w3.org/2000/svg" viewBox="0 0 480 480"><title>star-empty</title><g id="star-empty"><g id="Tracé_1099" data-name="Tracé 1099"><path d="M374.16,454.22a16.76,16.76,0,0,1-8.9-2.57L241.09,373,113.9,451.73a16.62,16.62,0,0,1-24.91-18L122.08,296,12.6,201.13A16.62,16.62,0,0,1,21.84,172l149.65-14.88L226.07,35.57a16.64,16.64,0,0,1,15.17-9.81h.17A16.63,16.63,0,0,1,256.54,35.9l51.33,121.28L458.17,172a16.63,16.63,0,0,1,9.07,29.25l-112.43,94.8,35.45,137.38a16.62,16.62,0,0,1-16.1,20.77ZM63.54,201.29l88,76.25A16.6,16.6,0,0,1,156.77,294l-26,108.25,101.69-63a16.63,16.63,0,0,1,17.64.09l97.49,61.74L320,294.25a16.64,16.64,0,0,1,5.39-16.86l90.31-76.15-120.93-12a16.64,16.64,0,0,1-13.66-10.06L240.78,84l-42.89,95.59a16.63,16.63,0,0,1-13.53,9.73Z"/></g></g></svg>