<svg xmlns="http://www.w3.org/2000/svg" viewBox="0 0 21.05 19.34"><defs><style>.cls-1{fill:none;}</style></defs><title>star-empty</title><g id="Calque_2" data-name="Calque 2"><g id="sources_non_vectorisés_" data-name="sources (non vectorisés)"><g id="star-empty"><g id="Tracé_1099" data-name="Tracé 1099"><path d="M16.57,19.33a.76.76,0,0,1-.4-.11l-5.6-3.55L4.83,19.22a.75.75,0,0,1-1.12-.81L5.2,12.2.26,7.91A.71.71,0,0,1,0,7.12.74.74,0,0,1,.68,6.6l6.75-.67L9.89.44A.75.75,0,0,1,10.58,0h0a.75.75,0,0,1,.69.46l2.31,5.47,6.79.67a.76.76,0,0,1,.64.52.74.74,0,0,1-.24.8L15.7,12.2l1.6,6.2a.74.74,0,0,1-.28.79A.73.73,0,0,1,16.57,19.33ZM2.56,7.92l4,3.44a.77.77,0,0,1,.24.74L5.59,17l4.59-2.84a.75.75,0,0,1,.8,0l4.4,2.79-1.25-4.82a.77.77,0,0,1,.24-.77l4.08-3.43L13,7.38a.74.74,0,0,1-.61-.45l-1.82-4.3L8.62,6.94A.74.74,0,0,1,8,7.38Z"/></g><rect class="cls-1" width="21.05" height="19.33"/></g></g></g></svg>