<svg id="ds44-icons" xmlns="http://www.w3.org/2000/svg" width="359.3833" height="480" viewBox="0 0 359.3833 480"><title>summary</title><path d="M87.33545,124.28378H340.9165a18.46713,18.46713,0,0,0,0-36.93426H87.33545a18.46713,18.46713,0,0,0,0,36.93426Z"/><path d="M18.46729,87.34952a18.46713,18.46713,0,1,0,18.46679,18.4671A18.47176,18.47176,0,0,0,18.46729,87.34952Z"/><path d="M340.9165,176.80505H87.33545a18.46717,18.46717,0,0,0,0,36.93433H340.9165a18.46717,18.46717,0,0,0,0-36.93433Z"/><path d="M18.46729,176.80505a18.46717,18.46717,0,1,0,18.46679,18.46717A18.47181,18.47181,0,0,0,18.46729,176.80505Z"/><path d="M340.9165,266.26065H87.33545a18.46714,18.46714,0,0,0,0,36.93427H340.9165a18.46714,18.46714,0,0,0,0-36.93427Z"/><path d="M18.46729,266.26065a18.46714,18.46714,0,1,0,18.46679,18.46716A18.47177,18.47177,0,0,0,18.46729,266.26065Z"/><path d="M340.9165,355.71622H87.33545a18.46713,18.46713,0,0,0,0,36.93426H340.9165a18.46713,18.46713,0,0,0,0-36.93426Z"/><path d="M18.46729,355.71622a18.46713,18.46713,0,1,0,18.46679,18.46716A18.47177,18.47177,0,0,0,18.46729,355.71622Z"/></svg>