<svg id="ds44-icons" xmlns="http://www.w3.org/2000/svg" viewBox="0 0 480 480"><title>summary</title><path d="M147.64,124.28H401.22a18.47,18.47,0,1,0,0-36.93H147.64a18.47,18.47,0,0,0,0,36.93Z"/><path d="M78.78,87.35a18.47,18.47,0,1,0,18.46,18.47A18.47,18.47,0,0,0,78.78,87.35Z"/><path d="M401.22,176.81H147.64a18.47,18.47,0,0,0,0,36.93H401.22a18.47,18.47,0,1,0,0-36.93Z"/><path d="M78.78,176.81a18.47,18.47,0,1,0,18.46,18.46A18.47,18.47,0,0,0,78.78,176.81Z"/><path d="M401.22,266.26H147.64a18.47,18.47,0,0,0,0,36.93H401.22a18.47,18.47,0,1,0,0-36.93Z"/><path d="M78.78,266.26a18.47,18.47,0,1,0,18.46,18.47A18.47,18.47,0,0,0,78.78,266.26Z"/><path d="M401.22,355.72H147.64a18.47,18.47,0,0,0,0,36.93H401.22a18.47,18.47,0,1,0,0-36.93Z"/><path d="M78.78,355.72a18.47,18.47,0,1,0,18.46,18.46A18.47,18.47,0,0,0,78.78,355.72Z"/></svg>