<svg id="ds44-icons" xmlns="http://www.w3.org/2000/svg" viewBox="0 0 359.38 480"><title>summary</title><path d="M87.34,124.28H340.92a18.47,18.47,0,0,0,0-36.93H87.34a18.47,18.47,0,1,0,0,36.93Z"/><path d="M18.47,87.35a18.47,18.47,0,1,0,18.46,18.47A18.47,18.47,0,0,0,18.47,87.35Z"/><path d="M340.92,176.81H87.34a18.47,18.47,0,1,0,0,36.93H340.92a18.47,18.47,0,0,0,0-36.93Z"/><path d="M18.47,176.81a18.47,18.47,0,1,0,18.46,18.46A18.47,18.47,0,0,0,18.47,176.81Z"/><path d="M340.92,266.26H87.34a18.47,18.47,0,1,0,0,36.93H340.92a18.47,18.47,0,0,0,0-36.93Z"/><path d="M18.47,266.26a18.47,18.47,0,1,0,18.46,18.47A18.47,18.47,0,0,0,18.47,266.26Z"/><path d="M340.92,355.72H87.34a18.47,18.47,0,1,0,0,36.93H340.92a18.47,18.47,0,0,0,0-36.93Z"/><path d="M18.47,355.72a18.47,18.47,0,1,0,18.46,18.46A18.47,18.47,0,0,0,18.47,355.72Z"/></svg>