<svg id="ds44-icons" xmlns="http://www.w3.org/2000/svg" viewBox="0 0 455.45 480"><title>tag</title><g id="tag"><g id="Tracé_1108" data-name="Tracé 1108"><path d="M274,418.52H67.16A68.48,68.48,0,0,1,0,348.66V131C-.87,93.79,29,62.42,66.6,61.48H273.9a66.47,66.47,0,0,1,53.24,26.89c4.16,4.91,76.27,85.28,123.57,137.88a18.46,18.46,0,0,1,.05,24.64c-33,37-119.85,134.44-125.83,141.7a65.5,65.5,0,0,1-50.28,25.93ZM67.06,98.42c-16.81.42-30.52,14.83-30.11,32.11V349a31.52,31.52,0,0,0,30.61,32.56H273.64a29.14,29.14,0,0,0,22.24-11.78c6.83-8.3,86.49-97.72,116.31-131.16-30.52-33.95-108.28-120.52-114.1-127.48-6.16-8.29-15-12.74-24.19-12.74Z"/></g></g></svg>