<svg xmlns="http://www.w3.org/2000/svg" viewBox="0 0 20 20"><defs><style>.cls-1{fill:none;}</style></defs><title>tag</title><g id="Calque_2" data-name="Calque 2"><g id="sources_non_vectorisés_" data-name="sources (non vectorisés)"><g id="tag"><g id="Rectangle_954" data-name="Rectangle 954"><rect class="cls-1" width="20" height="20"/></g><g id="Tracé_1108" data-name="Tracé 1108"><path d="M11.88,17.25H3.48A2.79,2.79,0,0,1,.75,14.41V5.57a2.77,2.77,0,0,1,2.7-2.82h8.42A2.73,2.73,0,0,1,14,3.84c.16.2,3.09,3.47,5,5.6a.75.75,0,0,1,0,1c-1.34,1.5-4.87,5.46-5.11,5.76a2.68,2.68,0,0,1-2,1.05Zm-8.41-13a1.27,1.27,0,0,0-1.22,1.3v8.88a1.28,1.28,0,0,0,1.24,1.32h8.37a1.22,1.22,0,0,0,.91-.48c.27-.34,3.51-4,4.72-5.33-1.24-1.37-4.4-4.89-4.63-5.17a1.22,1.22,0,0,0-1-.52Z"/></g></g></g></g></svg>