<svg id="ds44-icons" xmlns="http://www.w3.org/2000/svg" width="455.44901" height="480" viewBox="0 0 455.44901 480"><title>tag</title><g id="tag"><g id="Tracé_1108" data-name="Tracé 1108"><path d="M273.9967,418.51568H67.15512A68.47441,68.47441,0,0,1,.01937,348.66276V130.96453C-.87032,93.78979,28.99451,62.4221,66.60207,61.48432H273.90052a66.46347,66.46347,0,0,1,53.2373,26.88315c4.15991,4.91736,76.27313,85.27827,123.57113,137.87836a18.45938,18.45938,0,0,1,.04809,24.6469c-32.96673,36.95832-119.844,134.43981-125.83143,141.70163a65.461,65.461,0,0,1-50.27967,25.92132ZM67.05894,98.4186c-16.808.4208-30.51407,14.83623-30.10529,32.1131V349.02345A31.51834,31.51834,0,0,0,67.5639,381.5814H273.636A29.15852,29.15852,0,0,0,295.87834,369.799c6.829-8.29578,86.49258-97.72194,116.30931-131.15757-30.51406-33.9526-108.278-120.51732-114.0971-127.47856-6.15572-8.29579-14.95646-12.74425-24.19-12.74425Z"/></g></g></svg>