<svg id="ds44-icons" xmlns="http://www.w3.org/2000/svg" viewBox="0 0 480 480"><title>tag</title><g id="tag"><g id="Tracé_1108" data-name="Tracé 1108"><path d="M286.27,418.52H79.43a68.49,68.49,0,0,1-67.14-69.86V131c-.88-37.17,29-68.54,66.59-69.48h207.3a66.47,66.47,0,0,1,53.23,26.89c4.16,4.91,76.28,85.28,123.57,137.88a18.45,18.45,0,0,1,0,24.64c-33,37-119.84,134.44-125.83,141.7a65.5,65.5,0,0,1-50.28,25.93ZM79.33,98.42c-16.8.42-30.51,14.83-30.1,32.11V349a31.51,31.51,0,0,0,30.61,32.56H285.91a29.13,29.13,0,0,0,22.24-11.78c6.83-8.3,86.5-97.72,116.31-131.16C394,204.69,316.19,118.12,310.37,111.16c-6.16-8.29-15-12.74-24.19-12.74Z"/></g></g></svg>