<?xml version="1.0" encoding="utf-8"?>
<!-- Generator: Adobe Illustrator 23.1.1, SVG Export Plug-In . SVG Version: 6.00 Build 0)  -->
<svg version="1.1" id="Calque_1" xmlns="http://www.w3.org/2000/svg" xmlns:xlink="http://www.w3.org/1999/xlink" x="0px" y="0px"
	 viewBox="0 0 480 480" style="enable-background:new 0 0 480 480;" xml:space="preserve">
<title>tag</title>
<g>
	<g id="ds44-icons">
		<g id="tag">
			<g id="Tracé_1108">
				<path d="M286.3,418.5H79.4c-37.8-0.7-67.9-32-67.1-69.8c0,0,0,0,0-0.1V131c-0.9-37.2,29-68.5,66.6-69.5h207.3
					c21,0,40.7,10,53.2,26.9c4.2,4.9,76.3,85.3,123.6,137.9c6.3,7,6.3,17.6,0,24.6c-33,37-119.8,134.4-125.8,141.7
					c-12,15.8-30.5,25.3-50.3,25.9L286.3,418.5z M79.3,98.4c-16.8,0.4-30.5,14.8-30.1,32.1V349c-0.6,17.4,13.1,32,30.4,32.6
					c0.1,0,0.1,0,0.2,0h206.1c8.8-0.4,17-4.7,22.2-11.8c6.8-8.3,86.5-97.7,116.3-131.2c-30.5-34-108.3-120.5-114.1-127.5
					c-6.2-8.3-15-12.7-24.2-12.7L79.3,98.4z"/>
			</g>
		</g>
	</g>
</g>
</svg>
