<svg xmlns="http://www.w3.org/2000/svg" viewBox="0 0 20 20"><defs><style>.cls-1{fill:none;}</style></defs><title>time</title><g id="Calque_2" data-name="Calque 2"><g id="sources_non_vectorisés_" data-name="sources (non vectorisés)"><g id="time"><path d="M10,18a8,8,0,1,1,8-8A8,8,0,0,1,10,18ZM10,3.5A6.5,6.5,0,1,0,16.5,10,6.51,6.51,0,0,0,10,3.5Z"/><path d="M13.86,13.65a.75.75,0,0,1-.38-.1L9.4,11.12A.73.73,0,0,1,9,10.48V5.94a.75.75,0,1,1,1.5,0v4.11l3.71,2.21a.73.73,0,0,1,.26,1A.72.72,0,0,1,13.86,13.65Z"/><rect class="cls-1" width="20" height="20"/></g></g></g></svg>