<?xml version="1.0" encoding="utf-8"?>
<!-- Generator: Adobe Illustrator 23.1.1, SVG Export Plug-In . SVG Version: 6.00 Build 0)  -->
<svg version="1.1" id="Calque_1" xmlns="http://www.w3.org/2000/svg" xmlns:xlink="http://www.w3.org/1999/xlink" x="0px" y="0px"
	 viewBox="0 0 480 480" style="enable-background:new 0 0 480 480;" xml:space="preserve">
<title>time</title>
<g>
	<g id="ds44-icons">
		<g id="time">
			<path d="M240,437c-108.6,0-197-88.4-197-197S131.4,43,240,43s197,88.4,197,197S348.6,437,240,437z M240,80
				c-88.2,0-160,71.8-160,160s71.8,160,160,160s160-71.8,160-160S328.2,80,240,80L240,80z"/>
			<path d="M335,329.9c-3.3,0-6.6-0.9-9.4-2.6l-100.4-59.6c-5.6-3.3-9-9.4-9-15.9V139.9c0-10.2,8.3-18.5,18.5-18.5
				c10.2,0,18.5,8.3,18.5,18.5c0,0,0,0,0,0v101.4l91.3,54.2c8.8,5.2,11.6,16.5,6.4,25.3C347.6,326.5,341.5,329.9,335,329.9z"/>
		</g>
	</g>
</g>
</svg>
