<svg id="ds44-icons" xmlns="http://www.w3.org/2000/svg" width="393.96564" height="480" viewBox="0 0 393.96564 480"><g id="time"><path d="M196.98282,436.98282C88.36815,436.98282,0,348.61467,0,240S88.36815,43.01718,196.98282,43.01718,393.96564,131.38533,393.96564,240,305.59749,436.98282,196.98282,436.98282Zm0-357.03136C108.7349,79.95146,36.93428,151.75208,36.93428,240S108.7349,400.04854,196.98282,400.04854,357.03136,328.24792,357.03136,240,285.23074,79.95146,196.98282,79.95146Z"/><path d="M292.01164,329.90708a18.38346,18.38346,0,0,1-9.40189-2.59695l-100.391-59.60942a18.44713,18.44713,0,0,1-9.04121-15.8702V139.94562a18.46714,18.46714,0,0,1,36.93428,0v101.3769l91.34983,54.24722a18.46488,18.46488,0,0,1-9.45,34.33734Z"/></g></svg>