<svg id="ds44-icons" xmlns="http://www.w3.org/2000/svg" width="456.97712" height="480" viewBox="0 0 456.97712 480"><title>tripadvisor</title><path d="M280.07766,108.843a242.92946,242.92946,0,0,1,37.58262,8.8128,257.38381,257.38381,0,0,1,60.99017,27.79063,9.317,9.317,0,0,0,4.66286,1.35222c22.475.09327,44.90331.04663,67.33164.09327,1.81853,0,3.59041.18651,5.40891.27977a3.676,3.676,0,0,1,0,.74606c-1.02584,1.632-2.09829,3.21737-3.17074,4.80274-7.60045,11.70377-14.12845,23.92045-17.952,37.39611a4.34772,4.34772,0,0,0,.46628,4.10331c20.00367,28.7232,26.34515,60.24412,17.99862,94.18972-7.32069,29.79567-24.38674,53.0167-50.35886,69.47658-18.55817,11.7504-39.02812,17.34583-60.94356,17.48571a106.35456,106.35456,0,0,1-27.32433-3.49714,115.06106,115.06106,0,0,1-56.14082-33.10629c-2.05166-2.19155-3.96342-4.42971-6.155-6.901-8.16,12.17005-16.22674,24.20024-24.48,36.46355-8.20663-12.26331-16.13349-24.1536-24.06034-35.95062a4.16494,4.16494,0,0,0-.7927.41967,2.444,2.444,0,0,0-.46628.5129c-18.69806,22.102-42.24549,35.62424-70.92207,40.14719a110.62056,110.62056,0,0,1-47.23475-2.65783A114.62453,114.62453,0,0,1,1.51847,277.96484c-3.9168-20.56319.83931-40.427,2.05166-45.22972A114.46855,114.46855,0,0,1,21.38224,194.08a4.33923,4.33923,0,0,0,.51291-3.31063c-3.40388-12.4032-9.23245-23.68731-16.04023-34.50515-1.72525-2.75108-3.82354-5.31565-5.73531-7.92685v-.93257a9.17173,9.17173,0,0,0,1.11908.13988q34.48184,0,68.917-.04664a5.96675,5.96675,0,0,0,2.98423-.9792,247.20467,247.20467,0,0,1,51.43131-24.94629,274.24683,274.24683,0,0,1,39.91406-10.81783,325.41461,325.41461,0,0,1,39.68092-5.22239C236.80634,102.96782,262.77847,106.41834,280.07766,108.843ZM251.30782,260.57241c0,50.45213,40.93988,91.6718,91.20551,91.48527,50.4521-.18652,91.20548-40.24048,91.15887-91.25212-.04662-52.55042-42.66515-92.09144-93.11728-91.06561C290.75561,170.76577,251.72749,210.913,251.30782,260.57241ZM114.49958,169.36692c-49.09989-.41966-91.85829,40.52023-91.019,92.69761a91.33385,91.33385,0,0,0,92.0448,89.48025c49.98584-.41967,90.17966-41.26629,90.27293-90.69258A91.035,91.035,0,0,0,114.49958,169.36692Zm4.523-23.78058c27.744,1.67863,52.08411,11.37737,72.64733,30.07543,20.51657,18.65143,32.54674,41.96572,36.92984,69.38333,4.47634-27.0912,16.22673-50.12572,36.37028-68.63727,20.19017-18.51155,44.20389-28.21028,71.48161-30.26194-32.36025-14.40823-66.49234-20.51657-101.60368-21.16937C194.88724,124.1372,156.09228,130.0124,119.02256,145.58634Z"/><path d="M342.3268,202.98612a56.49373,56.49373,0,1,1-56.6071,56.42058C285.7197,227.41949,312.11149,202.4732,342.3268,202.98612Zm36.83658,56.4672a36.93009,36.93009,0,0,0-73.85968-.13988,36.93,36.93,0,1,0,73.85968.13988Z"/><path d="M113.28724,202.98612a56.5034,56.5034,0,1,1-56.65373,56.374C56.63352,227.13972,83.21181,202.4732,113.28724,202.98612Zm36.79,56.32732a36.849,36.849,0,0,0-37.30286-36.74332c-19.957.04663-36.65006,16.87955-36.60343,36.8832a37.256,37.256,0,0,0,37.06972,36.92983C133.38415,296.42977,150.12381,279.59687,150.07719,259.31344Z"/><path d="M342.3268,240.70864a18.72174,18.72174,0,1,1-18.74469,18.88458A18.75562,18.75562,0,0,1,342.3268,240.70864Z"/><path d="M113.194,240.52213a18.88471,18.88471,0,1,1,.04663,37.76914,18.88472,18.88472,0,1,1-.04663-37.76914Z"/></svg>