<svg id="ds44-icons" xmlns="http://www.w3.org/2000/svg" viewBox="0 0 456.98 480"><title>tripadvisor</title><path d="M280.08,108.84a242.61,242.61,0,0,1,37.58,8.82,257.29,257.29,0,0,1,61,27.79,9.29,9.29,0,0,0,4.66,1.35c22.48.09,44.91,0,67.33.09,1.82,0,3.6.19,5.41.28a3.47,3.47,0,0,1,0,.75c-1,1.63-2.09,3.22-3.17,4.8-7.6,11.7-14.13,23.92-17.95,37.4a4.34,4.34,0,0,0,.47,4.1c20,28.72,26.34,60.24,18,94.19-7.32,29.8-24.39,53-50.36,69.48-18.56,11.75-39,17.34-61,17.48a105.82,105.82,0,0,1-27.32-3.5,115,115,0,0,1-56.14-33.1c-2.05-2.19-4-4.43-6.16-6.9-8.16,12.17-16.22,24.2-24.48,36.46-8.2-12.26-16.13-24.15-24.06-35.95a4.16,4.16,0,0,0-.79.42,2.52,2.52,0,0,0-.47.51c-18.69,22.1-42.24,35.63-70.92,40.15a110.57,110.57,0,0,1-47.23-2.66A114.6,114.6,0,0,1,1.52,278c-3.92-20.56.84-40.42,2.05-45.22a114.49,114.49,0,0,1,17.81-38.66,4.37,4.37,0,0,0,.52-3.31c-3.41-12.4-9.24-23.69-16-34.51C4.13,153.51,2,151,.12,148.34v-.94a8.57,8.57,0,0,0,1.12.14q34.49,0,68.92,0a6,6,0,0,0,3-1,247.34,247.34,0,0,1,51.43-25,276.23,276.23,0,0,1,39.92-10.82,327.41,327.41,0,0,1,39.68-5.22C236.81,103,262.78,106.42,280.08,108.84ZM251.31,260.57c0,50.45,40.94,91.67,91.2,91.49,50.46-.19,91.21-40.24,91.16-91.25,0-52.55-42.66-92.1-93.12-91.07C290.76,170.77,251.73,210.91,251.31,260.57ZM114.5,169.37c-49.1-.42-91.86,40.52-91,92.69a91.33,91.33,0,0,0,92.05,89.48c50-.41,90.18-41.26,90.27-90.69A91,91,0,0,0,114.5,169.37ZM119,145.59c27.75,1.67,52.09,11.37,72.65,30.07s32.55,42,36.93,69.39c4.48-27.1,16.23-50.13,36.37-68.64s44.2-28.21,71.48-30.26C304.09,131.74,270,125.63,234.85,125,194.89,124.14,156.09,130,119,145.59Z"/><path d="M342.33,203a56.49,56.49,0,1,1-56.61,56.42C285.72,227.42,312.11,202.47,342.33,203Zm36.83,56.46a36.93,36.93,0,0,0-73.86-.14,36.93,36.93,0,1,0,73.86.14Z"/><path d="M113.29,203a56.5,56.5,0,1,1-56.66,56.37C56.63,227.14,83.21,202.47,113.29,203Zm36.79,56.32a36.85,36.85,0,0,0-37.31-36.74c-20,.05-36.65,16.88-36.6,36.88a37.25,37.25,0,0,0,37.07,36.93C133.38,296.43,150.12,279.6,150.08,259.31Z"/><path d="M342.33,240.71a18.72,18.72,0,1,1-18.75,18.88A18.76,18.76,0,0,1,342.33,240.71Z"/><path d="M113.19,240.52a18.89,18.89,0,1,1,0,37.77,18.89,18.89,0,1,1,0-37.77Z"/></svg>