<svg id="ds44-icons" xmlns="http://www.w3.org/2000/svg" viewBox="0 0 407.68 480"><title>twitter</title><g id="twitter"><path d="M366.34,157.13v10.36a244.41,244.41,0,0,1-15.53,84A237.16,237.16,0,0,1,230.15,384.11a230.21,230.21,0,0,1-101.94,21.51,250.89,250.89,0,0,1-34.64-2.4,227.29,227.29,0,0,1-33.24-7.09,215.67,215.67,0,0,1-31.27-11.95A207,207,0,0,1,0,368.23c3.17.24,6.49.46,10,.58s6.77.21,10,.21a171.89,171.89,0,0,0,55.93-9.16,155.25,155.25,0,0,0,48.38-26.68,78.11,78.11,0,0,1-49-16.53,85.68,85.68,0,0,1-29.87-41.6,33,33,0,0,0,7.76,1.38c2.52.14,5.32.21,8.17.21a107.59,107.59,0,0,0,11.35-.6c3.54-.41,7.23-1,10.94-1.78a82.33,82.33,0,0,1-47.87-29.07,80.65,80.65,0,0,1-19.11-52.95v-1.6a83.55,83.55,0,0,0,17.73,7.57A69,69,0,0,0,54.05,201a83.09,83.09,0,0,1-37.42-69.28,76.86,76.86,0,0,1,3.19-21.93A91.36,91.36,0,0,1,28.58,89.5a222.93,222.93,0,0,0,34.23,34.64,239.12,239.12,0,0,0,87.21,45,230.83,230.83,0,0,0,50.58,8,79.63,79.63,0,0,1-1.78-9.56,76.33,76.33,0,0,1-.6-9.56,85.21,85.21,0,0,1,6.38-32.65,88,88,0,0,1,18.12-26.49,82.7,82.7,0,0,1,26.47-17.73,79.12,79.12,0,0,1,32.66-6.77,81,81,0,0,1,34,7.09,88.83,88.83,0,0,1,27.28,19.11A180.82,180.82,0,0,0,371,92.78a151.1,151.1,0,0,0,25.49-12.14,84.38,84.38,0,0,1-14.34,26.27,88.64,88.64,0,0,1-22.3,19.91,184.21,184.21,0,0,0,24.29-4.77,132.31,132.31,0,0,0,23.5-8.76,188.92,188.92,0,0,1-18.91,23.49A191.35,191.35,0,0,1,366.34,157.13Z"/></g></svg>