<svg id="ds44-icons" xmlns="http://www.w3.org/2000/svg" width="407.68384" height="480" viewBox="0 0 407.68384 480"><title>twitter</title><g id="twitter"><path d="M366.34107,157.13317v10.35368a244.29846,244.29846,0,0,1-15.53025,84.0327A237.13679,237.13679,0,0,1,230.151,384.11073a230.188,230.188,0,0,1-101.93861,21.50484,250.00035,250.00035,0,0,1-34.6413-2.39352,226.6905,226.6905,0,0,1-33.24085-7.09127A216.05806,216.05806,0,0,1,29.05707,384.1816,207.46153,207.46153,0,0,1,0,368.2261c3.17341.24833,6.48857.461,9.94574.58485s6.77234.21263,9.96333.21263A171.97157,171.97157,0,0,0,75.84232,359.858a155.14163,155.14163,0,0,0,48.381-26.68141,78.12773,78.12773,0,0,1-48.96587-16.523,85.76971,85.76971,0,0,1-29.8724-41.60841,32.64955,32.64955,0,0,0,7.76512,1.38287c2.51742.14175,5.3186.21262,8.1728.21262a104.9997,104.9997,0,0,0,11.3462-.60271c3.54563-.40793,7.23329-.99278,10.93853-1.77295A82.36413,82.36413,0,0,1,35.741,245.19005a80.6465,80.6465,0,0,1-19.11133-52.95489v-1.59549a83.20517,83.20517,0,0,0,17.72846,7.57008,69.05353,69.05353,0,0,0,19.69618,2.7836,83.09337,83.09337,0,0,1-37.42464-69.28261,76.77758,76.77758,0,0,1,3.191-21.93009,90.98,90.98,0,0,1,8.75792-20.28157,222.71384,222.71384,0,0,0,34.23364,34.64157,239.0166,239.0166,0,0,0,87.20638,44.99472,230.4886,230.4886,0,0,0,50.57922,7.96017,77.96143,77.96143,0,0,1-1.773-9.55567,74.93813,74.93813,0,0,1-.60271-9.55566,85.09764,85.09764,0,0,1,6.38225-32.656,87.80851,87.80851,0,0,1,18.11854-26.4861,82.53353,82.53353,0,0,1,26.46851-17.72845,78.90516,78.90516,0,0,1,32.65573-6.77207,80.97576,80.97576,0,0,1,34.0386,7.09128,88.63957,88.63957,0,0,1,27.28412,19.11132,181.05315,181.05315,0,0,0,27.86924-7.76485,150.53265,150.53265,0,0,0,25.49358-12.144,84.42637,84.42637,0,0,1-14.34242,26.27347,88.64618,88.64618,0,0,1-22.30232,19.90881,183.75446,183.75446,0,0,0,24.28789-4.76918,132.31973,132.31973,0,0,0,23.508-8.75764,188.97569,188.97569,0,0,1-18.91629,23.49042A191.00318,191.00318,0,0,1,366.34107,157.13317Z"/></g></svg>