<svg xmlns="http://www.w3.org/2000/svg" viewBox="0 0 20 20"><defs><style>.cls-1{fill:none;}</style></defs><title>twitter</title><g id="Calque_2" data-name="Calque 2"><g id="sources_non_vectorisés_" data-name="sources (non vectorisés)"><g id="twitter"><rect class="cls-1" width="20" height="20"/><path d="M16.85,6.87v.42a10,10,0,0,1-.63,3.42,9.66,9.66,0,0,1-4.9,5.38A9.26,9.26,0,0,1,7.18,17a11.12,11.12,0,0,1-1.41-.09,8.76,8.76,0,0,1-1.35-.29,8.53,8.53,0,0,1-1.27-.49A9,9,0,0,1,2,15.45l.4,0h.41a7,7,0,0,0,2.27-.37A6.24,6.24,0,0,0,7,14a3.17,3.17,0,0,1-2-.67,3.46,3.46,0,0,1-1.22-1.69,1.8,1.8,0,0,0,.32.06h.33a3.55,3.55,0,0,0,.46,0,3.5,3.5,0,0,0,.45-.07,3.32,3.32,0,0,1-1.95-1.18A3.24,3.24,0,0,1,2.65,8.3V8.23a2.9,2.9,0,0,0,.72.31,2.42,2.42,0,0,0,.8.11A3.36,3.36,0,0,1,2.65,5.84,3,3,0,0,1,2.78,5a3.49,3.49,0,0,1,.35-.82,9.2,9.2,0,0,0,1.39,1.4A9.73,9.73,0,0,0,8.06,7.36a9.51,9.51,0,0,0,2.06.32,2.32,2.32,0,0,1-.07-.38,2.56,2.56,0,0,1,0-.39,3.54,3.54,0,0,1,.26-1.33A3.6,3.6,0,0,1,11,4.51a3.11,3.11,0,0,1,1.07-.72,3.21,3.21,0,0,1,1.33-.28,3.32,3.32,0,0,1,1.38.29,3.88,3.88,0,0,1,1.11.77A7.57,7.57,0,0,0,17,4.26a6.09,6.09,0,0,0,1-.49,3.14,3.14,0,0,1-.58,1.06,3.47,3.47,0,0,1-.9.81,8.08,8.08,0,0,0,1-.19,5.56,5.56,0,0,0,1-.36,7.9,7.9,0,0,1-.77,1A7.84,7.84,0,0,1,16.85,6.87Z"/></g></g></g></svg>