<svg id="ds44-icons" xmlns="http://www.w3.org/2000/svg" viewBox="0 0 480 480"><title>twitter</title><g id="twitter"><path d="M402.5,157.13v10.36a244.41,244.41,0,0,1-15.53,84A237.16,237.16,0,0,1,266.31,384.11a230.21,230.21,0,0,1-101.94,21.51,250.89,250.89,0,0,1-34.64-2.4,227.29,227.29,0,0,1-33.24-7.09,215.23,215.23,0,0,1-31.27-11.95,207,207,0,0,1-29.06-15.95c3.17.24,6.49.46,9.94.58s6.78.21,10,.21A171.89,171.89,0,0,0,112,359.86a155.36,155.36,0,0,0,48.38-26.68,78.11,78.11,0,0,1-49-16.53,85.76,85.76,0,0,1-29.88-41.6,33.09,33.09,0,0,0,7.77,1.38c2.52.14,5.32.21,8.17.21a107.59,107.59,0,0,0,11.35-.6c3.54-.41,7.23-1,10.94-1.78A82.3,82.3,0,0,1,71.9,245.19a80.6,80.6,0,0,1-19.11-52.95v-1.6a83.12,83.12,0,0,0,17.73,7.57A69,69,0,0,0,90.21,201a83.06,83.06,0,0,1-37.42-69.28A76.86,76.86,0,0,1,56,109.78,90.44,90.44,0,0,1,64.74,89.5,222.93,222.93,0,0,0,99,124.14a239,239,0,0,0,87.21,45,230.83,230.83,0,0,0,50.58,8,77.7,77.7,0,0,1-1.78-9.56,76.33,76.33,0,0,1-.6-9.56,85.21,85.21,0,0,1,6.38-32.65,87.85,87.85,0,0,1,18.12-26.49,82.7,82.7,0,0,1,26.47-17.73A79.12,79.12,0,0,1,318,74.34a81,81,0,0,1,34,7.09,88.87,88.87,0,0,1,27.29,19.11,180.82,180.82,0,0,0,27.87-7.76,151.1,151.1,0,0,0,25.49-12.14,84.38,84.38,0,0,1-14.34,26.27,88.81,88.81,0,0,1-22.3,19.91,184.07,184.07,0,0,0,24.28-4.77,132.11,132.11,0,0,0,23.51-8.76,188.92,188.92,0,0,1-18.91,23.49A191.35,191.35,0,0,1,402.5,157.13Z"/></g></svg>