<?xml version="1.0" encoding="utf-8"?>
<!-- Generator: Adobe Illustrator 23.1.1, SVG Export Plug-In . SVG Version: 6.00 Build 0)  -->
<svg version="1.1" id="Calque_1" xmlns="http://www.w3.org/2000/svg" xmlns:xlink="http://www.w3.org/1999/xlink" x="0px" y="0px"
	 viewBox="0 0 480 480" style="enable-background:new 0 0 480 480;" xml:space="preserve">
<title>twitter</title>
<g>
	<g id="ds44-icons">
		<g id="twitter">
			<path d="M402.5,157.1v10.4c-0.2,28.7-5.5,57.2-15.5,84c-21.3,58.3-64.6,105.9-120.7,132.6c-31.9,14.9-66.8,22.2-101.9,21.5
				c-11.6,0-23.2-0.8-34.6-2.4c-11.2-1.5-22.4-3.9-33.2-7.1c-10.7-3.2-21.2-7.2-31.3-11.9c-10.1-4.5-19.8-9.9-29.1-16
				c3.2,0.2,6.5,0.5,9.9,0.6s6.8,0.2,10,0.2c19,0.1,37.9-3,55.9-9.2c17.6-5.9,34-15,48.4-26.7c-17.7,0.2-35-5.6-49-16.5
				c-14-10.5-24.4-25-29.9-41.6c2.5,0.8,5.1,1.2,7.8,1.4c2.5,0.1,5.3,0.2,8.2,0.2c3.8,0,7.6-0.2,11.3-0.6c3.5-0.4,7.2-1,10.9-1.8
				c-18.9-3.8-35.8-14.1-47.9-29.1c-12.5-14.8-19.3-33.6-19.1-53v-1.6c5.6,3.2,11.5,5.7,17.7,7.6c6.4,1.9,13,2.8,19.7,2.8
				c-23.3-15.3-37.4-41.4-37.4-69.3c0-7.4,1.1-14.8,3.2-21.9c2.1-7.1,5-13.9,8.8-20.3c10.1,12.8,21.6,24.4,34.2,34.6
				c25.6,20.9,55.3,36.2,87.2,45c16.5,4.5,33.5,7.2,50.6,8c-0.8-3.1-1.4-6.3-1.8-9.6c-0.4-3.2-0.6-6.4-0.6-9.6
				c0-11.2,2.1-22.3,6.4-32.7c4.4-9.9,10.5-18.8,18.1-26.5c7.6-7.6,16.6-13.6,26.5-17.7c10.3-4.6,21.4-6.9,32.7-6.8
				c11.7-0.1,23.3,2.3,34,7.1c10.2,4.6,19.5,11.1,27.3,19.1c9.5-1.8,18.8-4.4,27.9-7.8c8.9-3.2,17.4-7.3,25.5-12.1
				c-3.2,9.5-8,18.4-14.3,26.3c-6.3,7.9-13.8,14.6-22.3,19.9c8.2-1,16.3-2.6,24.3-4.8c8.1-2.2,16-5.1,23.5-8.8
				c-5.7,8.3-12,16.2-18.9,23.5C418,144.1,410.5,151,402.5,157.1z"/>
		</g>
	</g>
</g>
</svg>
