<svg id="ds44-icons" xmlns="http://www.w3.org/2000/svg" width="400.69343" height="480" viewBox="0 0 400.69343 480"><title>user</title><g id="user"><g id="Groupe_2252" data-name="Groupe 2252"><g id="Tracé_1109" data-name="Tracé 1109"><path d="M381.93926,448.68108H18.58386A18.44376,18.44376,0,0,1,.16481,431.44027c-.21641-3.07785-4.37632-75.64794,46.62472-129.99134,35.27512-37.60756,87.35823-56.67585,154.80657-56.67585h.8416c68.04949.1563,120.06045,19.50111,154.6142,57.46936,49.5583,54.46363,43.54686,126.62494,43.28236,129.6547A18.47445,18.47445,0,0,1,381.93926,448.68108ZM37.58,411.7468H363.35189c-1.4187-20.67935-7.91105-56.57966-33.85642-84.9296-27.316-29.79269-70.09338-44.96556-127.15395-45.10984h-.74542c-56.84416,0-99.862,15.14883-127.87532,45.01365C46.93381,355.23928,39.52771,390.94722,37.58,411.7468Z"/></g><path d="M203.135,228.30174a98.49141,98.49141,0,1,1,98.49141-98.49141A98.59653,98.59653,0,0,1,203.135,228.30174Zm0-160.04854a61.55713,61.55713,0,1,0,61.55713,61.55713A61.62186,61.62186,0,0,0,203.135,68.2532Z"/></g></g></svg>