<?xml version="1.0" encoding="utf-8"?>
<!-- Generator: Adobe Illustrator 23.1.1, SVG Export Plug-In . SVG Version: 6.00 Build 0)  -->
<svg version="1.1" id="Calque_1" xmlns="http://www.w3.org/2000/svg" xmlns:xlink="http://www.w3.org/1999/xlink" x="0px" y="0px"
	 viewBox="0 0 480 480" style="enable-background:new 0 0 480 480;" xml:space="preserve">
<title>user</title>
<g>
	<g id="ds44-icons">
		<g id="user">
			<g id="Groupe_2252">
				<g id="Tracé_1109">
					<path d="M421.6,448.7H58.2c-9.7,0-17.8-7.5-18.4-17.2c-0.2-3.1-4.4-75.6,46.6-130c35.3-37.6,87.4-56.7,154.8-56.7h0.8
						c68,0.2,120.1,19.5,154.6,57.5c49.6,54.5,43.5,126.6,43.3,129.7C439.1,441.4,431.1,448.7,421.6,448.7z M77.2,411.7H403
						c-1.4-20.7-7.9-56.6-33.9-84.9c-27.3-29.8-70.1-45-127.2-45.1h-0.7c-56.8,0-99.9,15.1-127.9,45
						C86.6,355.2,79.2,390.9,77.2,411.7z"/>
				</g>
				<path d="M242.8,228.3c-54.4,0-98.5-44.1-98.5-98.5s44.1-98.5,98.5-98.5s98.5,44.1,98.5,98.5
					C341.2,184.2,297.2,228.2,242.8,228.3z M242.8,68.3c-34,0-61.6,27.6-61.6,61.6s27.6,61.6,61.6,61.6s61.6-27.6,61.6-61.6
					C304.3,95.8,276.8,68.3,242.8,68.3z"/>
			</g>
		</g>
	</g>
</g>
</svg>
