<svg id="ds44-icons" xmlns="http://www.w3.org/2000/svg" width="340" height="480" viewBox="0 0 340 480"><path d="M296.40179,286.51748c-28.00341-30.77-69.97412-46.437-124.74658-46.56543-.22656-.00049-.44629-.001-.67285-.001-54.27441,0-96.28613,15.44141-124.86279,45.89648C4.78851,329.89589,8.16644,388.72841,8.3305,391.21132a18.37466,18.37466,0,0,0,18.335,17.16358H313.20209a18.37541,18.37541,0,0,0,18.29785-16.6919C331.727,389.21328,336.6015,330.68886,296.40179,286.51748ZM45.97894,371.6249c2.11426-16.29053,8.47266-41.11182,27.19727-60.90332,21.35986-22.57715,54.25976-34.02,97.8081-34.02.19239,0,.39209,0,.585.00049,43.853.103,76.62647,11.63769,97.4087,34.28369,18.15625,19.78418,23.78271,44.54443,25.42578,60.63916Z"/><path d="M172.19769,224.58681a81.481,81.481,0,1,0-81.48095-81.481A81.57329,81.57329,0,0,0,172.19769,224.58681Zm0-126.21191a44.731,44.731,0,1,1-44.73095,44.731A44.78185,44.78185,0,0,1,172.19769,98.3749Z"/></svg>