<svg id="ds44-icons" xmlns="http://www.w3.org/2000/svg" viewBox="0 0 480 480"><title>user</title><g id="user"><g id="Groupe_2252" data-name="Groupe 2252"><g id="Tracé_1109" data-name="Tracé 1109"><path d="M421.59,448.68H58.24a18.44,18.44,0,0,1-18.42-17.24c-.22-3.08-4.38-75.65,46.62-130,35.28-37.61,87.36-56.68,154.81-56.68h.84c68,.16,120.06,19.5,154.62,57.47C446.26,356.71,440.25,428.87,440,431.9A18.47,18.47,0,0,1,421.59,448.68ZM77.23,411.75H403c-1.42-20.68-7.92-56.58-33.86-84.93-27.32-29.8-70.09-45-127.16-45.11h-.74c-56.84,0-99.86,15.15-127.88,45C86.59,355.24,79.18,391,77.23,411.75Z"/></g><path d="M242.79,228.3a98.49,98.49,0,1,1,98.49-98.49A98.59,98.59,0,0,1,242.79,228.3Zm0-160a61.56,61.56,0,1,0,61.56,61.56A61.63,61.63,0,0,0,242.79,68.25Z"/></g></g></svg>