<svg id="ds44-icons" xmlns="http://www.w3.org/2000/svg" viewBox="0 0 400.69 480"><title>user</title><g id="user"><g id="Groupe_2252" data-name="Groupe 2252"><g id="Tracé_1109" data-name="Tracé 1109"><path d="M381.94,448.68H18.58A18.45,18.45,0,0,1,.16,431.44c-.21-3.08-4.37-75.65,46.63-130,35.27-37.61,87.36-56.68,154.81-56.68h.84c68.05.16,120.06,19.5,154.61,57.47,49.56,54.47,43.55,126.63,43.28,129.66A18.47,18.47,0,0,1,381.94,448.68ZM37.58,411.75H363.35c-1.42-20.68-7.91-56.58-33.85-84.93-27.32-29.8-70.1-45-127.16-45.11h-.74c-56.85,0-99.87,15.15-127.88,45C46.93,355.24,39.53,391,37.58,411.75Z"/></g><path d="M203.14,228.3a98.49,98.49,0,1,1,98.49-98.49A98.6,98.6,0,0,1,203.14,228.3Zm0-160a61.56,61.56,0,1,0,61.55,61.56A61.62,61.62,0,0,0,203.14,68.25Z"/></g></g></svg>