<svg xmlns="http://www.w3.org/2000/svg" viewBox="0 0 20 20"><defs><style>.cls-1{fill:none;}</style></defs><title>user</title><g id="Calque_2" data-name="Calque 2"><g id="sources_non_vectorisés_" data-name="sources (non vectorisés)"><g id="user"><g id="Rectangle_956" data-name="Rectangle 956"><rect class="cls-1" width="20" height="20"/></g><g id="Groupe_2252" data-name="Groupe 2252"><g id="Tracé_1109" data-name="Tracé 1109"><path d="M17.76,19H3a.75.75,0,0,1-.75-.7A7.58,7.58,0,0,1,4.15,13a8.23,8.23,0,0,1,6.29-2.3h0c2.77,0,4.88.79,6.28,2.33a7.48,7.48,0,0,1,1.76,5.27A.75.75,0,0,1,17.76,19Zm-14-1.5H17A5.72,5.72,0,0,0,15.63,14a6.7,6.7,0,0,0-5.16-1.83h0A6.82,6.82,0,0,0,5.24,14,5.92,5.92,0,0,0,3.78,17.45Z"/></g><path d="M10.5,10a4,4,0,1,1,4-4A4,4,0,0,1,10.5,10Zm0-6.5A2.5,2.5,0,1,0,13,6,2.5,2.5,0,0,0,10.5,3.5Z"/></g></g></g></g></svg>