<svg id="ds44-icons" xmlns="http://www.w3.org/2000/svg" viewBox="0 0 455 480"><title>user-group</title><g id="Groupe_2252" data-name="Groupe 2252"><g id="Tracé_1109" data-name="Tracé 1109"><path d="M159.65,414.16a18,18,0,0,1-18-18V287.49c-.48-5.89-2.35-16.34-9.47-24.12-7.9-8.61-21.39-13-40.07-13.06h-.27c-18.65,0-32.26,4.44-40.47,13.19-7.41,7.89-9.62,18.27-10.27,24.23V395.4a18,18,0,0,1-36,0V286.82c0-.56,0-1.12.07-1.68,1-10.39,4.86-30.21,20-46.28,15.28-16.29,37.73-24.55,66.72-24.55h.32c29.2.08,51.58,8.4,66.56,24.75,14.76,16.13,18.17,36.07,18.88,46.53,0,.41.05.82.05,1.23V396.16A18,18,0,0,1,159.65,414.16Z"/></g><path d="M92.49,209.85a49,49,0,1,1,49-49A49,49,0,0,1,92.49,209.85Zm0-61.92a13,13,0,1,0,13,13A13,13,0,0,0,92.49,147.93Z"/></g><g id="Groupe_2252-2" data-name="Groupe 2252"><g id="Tracé_1109-2" data-name="Tracé 1109"><path d="M432.75,414.16a18,18,0,0,1-18-18V287.49c-.47-5.89-2.35-16.34-9.47-24.12-7.9-8.61-21.38-13-40.07-13.06H365c-18.65,0-32.27,4.44-40.48,13.19-7.41,7.89-9.62,18.27-10.27,24.23V395.4a18,18,0,0,1-36,0V286.82a15.74,15.74,0,0,1,.08-1.68c1-10.39,4.85-30.21,20-46.28C313.5,222.57,336,214.31,365,214.31h.31c29.2.08,51.58,8.4,66.56,24.75,14.76,16.13,18.17,36.07,18.89,46.53,0,.41,0,.82,0,1.23V396.16A18,18,0,0,1,432.75,414.16Z"/></g><path d="M365.59,209.85a49,49,0,1,1,49-49A49,49,0,0,1,365.59,209.85Zm0-61.92a13,13,0,1,0,13,13A13,13,0,0,0,365.59,147.93Z"/></g><g id="user"><g id="Groupe_2252-3" data-name="Groupe 2252"><g id="Tracé_1109-3" data-name="Tracé 1109"><path d="M296.2,332.17a18,18,0,0,1-18-18V241.39c-.47-5.89-2.35-16.33-9.47-24.11-7.9-8.61-21.38-13-40.07-13.06h-.26c-18.65,0-32.27,4.44-40.48,13.19-7.41,7.89-9.62,18.27-10.27,24.23v72.53a18,18,0,0,1-36,0V240.73a15.74,15.74,0,0,1,.08-1.68c1-10.39,4.85-30.21,20-46.28,15.27-16.29,37.72-24.55,66.72-24.55h.31c29.2.08,51.58,8.4,66.56,24.75C310,209.1,313.44,229,314.16,239.5c0,.41,0,.82,0,1.23v73.44A18,18,0,0,1,296.2,332.17Z"/></g><path d="M229,163.76a49,49,0,1,1,49-49A49,49,0,0,1,229,163.76Zm0-61.92a13,13,0,1,0,13,13A13,13,0,0,0,229,101.84Z"/></g></g></svg>