<svg id="ds44-icons" xmlns="http://www.w3.org/2000/svg" width="455" height="480" viewBox="0 0 455 480"><g id="Groupe_2252" data-name="Groupe 2252"><g id="Tracé_1109" data-name="Tracé 1109"><path d="M159.6465,414.16455a18,18,0,0,1-18-18V287.48682c-.47168-5.89161-2.35009-16.333-9.47021-24.11231-7.89893-8.61523-21.38232-13.01367-40.06445-13.06055h-.26709c-18.65039,0-32.26709,4.43555-40.47217,13.18262-7.41455,7.89356-9.625,18.27149-10.27686,24.23145v107.6709a18,18,0,0,1-36,0V286.82178q0-.84082.07862-1.67774c.97265-10.38965,4.85791-30.21777,19.9497-46.28515C40.398,222.57471,62.84865,214.314,91.84475,214.314h.3125c29.19824.07422,51.57861,8.39844,66.56494,24.74317,14.75928,16.12793,18.16455,36.07617,18.88232,46.53223q.04174.61522.042,1.23242V396.16455A17.99995,17.99995,0,0,1,159.6465,414.16455Z"/></g><path d="M92.48977,209.85107a48.96289,48.96289,0,1,1,48.96289-48.96289A49.01857,49.01857,0,0,1,92.48977,209.85107Zm0-61.92578a12.96289,12.96289,0,1,0,12.96289,12.96289A12.97764,12.97764,0,0,0,92.48977,147.92529Z"/></g><g id="Groupe_2252-2" data-name="Groupe 2252"><g id="Tracé_1109-2" data-name="Tracé 1109"><path d="M432.74855,414.16455a18,18,0,0,1-18-18V287.48682c-.47167-5.89161-2.35009-16.333-9.47021-24.11231-7.89893-8.61523-21.38232-13.01367-40.06445-13.06055h-.26709c-18.65039,0-32.26709,4.43555-40.47217,13.18262-7.415,7.89453-9.62549,18.27246-10.27734,24.23145v107.6709a18,18,0,0,1-36,0V286.82178q0-.84082.07861-1.67774c.97265-10.38965,4.85791-30.21679,19.95019-46.28515C313.5,222.57471,335.9507,214.314,364.9468,214.314h.3125c29.19824.07422,51.57861,8.39844,66.56494,24.74317,14.75928,16.12793,18.16455,36.07617,18.88232,46.53223q.04174.61522.042,1.23242V396.16455A17.99995,17.99995,0,0,1,432.74855,414.16455Z"/></g><path d="M365.59182,209.85107a48.96289,48.96289,0,1,1,48.96289-48.96289A49.01857,49.01857,0,0,1,365.59182,209.85107Zm0-61.92578a12.96289,12.96289,0,1,0,12.96289,12.96289A12.97764,12.97764,0,0,0,365.59182,147.92529Z"/></g><g id="user"><g id="Groupe_2252-3" data-name="Groupe 2252"><g id="Tracé_1109-3" data-name="Tracé 1109"><path d="M296.19729,332.17334a17.99995,17.99995,0,0,1-18-18V241.394c-.4712-5.89062-2.34913-16.3291-9.46924-24.10937-7.89893-8.61524-21.38282-13.01367-40.06543-13.06055h-.26709c-18.65039,0-32.2666,4.43555-40.47168,13.18262-7.415,7.89355-9.62549,18.27148-10.27735,24.23047v72.53613a18,18,0,0,1-36,0V240.731q0-.84083.07862-1.67871c.97265-10.38868,4.8584-30.2168,19.95068-46.28418,15.27344-16.28321,37.72412-24.54395,66.71973-24.54395h.3125c29.19873.07422,51.57959,8.39844,66.56592,24.74414,14.75976,16.127,18.16455,36.0752,18.88134,46.53125q.04176.61524.042,1.23145v73.44238A18,18,0,0,1,296.19729,332.17334Z"/></g><path d="M229.04055,163.76025a48.9624,48.9624,0,1,1,48.96289-48.96191A49.01733,49.01733,0,0,1,229.04055,163.76025Zm0-61.9248a12.9624,12.9624,0,1,0,12.96289,12.96289A12.97755,12.97755,0,0,0,229.04055,101.83545Z"/></g></g></svg>