<svg id="ds44-icons" xmlns="http://www.w3.org/2000/svg" width="424.71997" height="480" viewBox="0 0 424.71997 480"><path d="M49.24585,67.64005A49.29442,49.29442,0,0,0,0,116.88571V363.11423A49.30217,49.30217,0,0,0,49.24585,412.36H375.47437A49.302,49.302,0,0,0,424.72,363.11423V67.64005Zm338.53979,92.24981-59.90686-55.31555h59.90686ZM36.93433,116.88571a12.28357,12.28357,0,0,1,4.9215-9.82605l57.30823,52.91608H36.93433Zm119.99389,43.09L96.92834,104.57431h57.71094l60,55.40143Zm115.47522,0-60-55.40143h57.71118l59.99988,55.40143Zm115.3822,203.13849a12.32739,12.32739,0,0,1-12.31127,12.31146H49.24585a12.32752,12.32752,0,0,1-12.31152-12.31146V196.91H387.78564Z"/><path d="M192.24243,339.30283,252.10449,301.855a18.5038,18.5038,0,0,0,0-31.37433l-59.86206-37.44781A18.50372,18.50372,0,0,0,163.92529,248.72v74.89569A18.50375,18.50375,0,0,0,192.24243,339.30283Z"/></svg>