<svg id="ds44-icons" xmlns="http://www.w3.org/2000/svg" viewBox="0 0 480 480"><title>video</title><path d="M76.89,67.64a49.3,49.3,0,0,0-49.25,49.25V363.11a49.31,49.31,0,0,0,49.25,49.25H403.11a49.31,49.31,0,0,0,49.25-49.25V67.64Zm338.54,92.25-59.91-55.32h59.91Zm-350.86-43a12.28,12.28,0,0,1,4.93-9.83L126.8,160H64.57Zm120,43.09-60-55.41h57.71l60,55.41ZM300,160l-60-55.41h57.71l60,55.41ZM415.43,363.11a12.33,12.33,0,0,1-12.32,12.32H76.89a12.33,12.33,0,0,1-12.32-12.32V196.91H415.43Z"/><path d="M219.88,339.3l59.86-37.44a18.51,18.51,0,0,0,0-31.38L219.88,233a18.5,18.5,0,0,0-28.31,15.69v74.9A18.5,18.5,0,0,0,219.88,339.3Z"/></svg>