<svg id="ds44-icons" xmlns="http://www.w3.org/2000/svg" width="351.67834" height="480" viewBox="0 0 351.67834 480"><title>webcam</title><path d="M273.13929,347.09311a175.15741,175.15741,0,0,0,77.66552-145.46564c0-96.59961-78.59033-175.18945-175.19043-175.18945S.4242,105.02786.4242,201.62747A175.15773,175.15773,0,0,0,78.09,347.09323L18.25745,419.8804a18.00024,18.00024,0,0,0,13.905,29.43066H319.06653a18.00007,18.00007,0,0,0,13.90479-29.43066ZM36.4242,201.62747c0-76.749,62.44043-139.18945,139.19018-139.18945,76.75,0,139.19043,62.44043,139.19043,139.18945,0,76.75-62.44043,139.19043-139.19043,139.19043C98.86463,340.8179,36.4242,278.37747,36.4242,201.62747ZM70.25965,413.31106l40.2998-49.025a175.122,175.122,0,0,0,130.11011-.00012l40.2998,49.02508Z"/><circle cx="175.61463" cy="201.6279" r="60.77026"/></svg>