<svg id="ds44-icons" xmlns="http://www.w3.org/2000/svg" viewBox="0 0 351.68 480"><title>webcam</title><path d="M273.14,347.09A175.13,175.13,0,0,0,350.8,201.63c0-96.6-78.59-175.19-175.19-175.19S.42,105,.42,201.63A175.14,175.14,0,0,0,78.09,347.09L18.26,419.88a18,18,0,0,0,13.9,29.43H319.07A18,18,0,0,0,333,419.88ZM36.42,201.63c0-76.75,62.44-139.19,139.19-139.19S314.8,124.88,314.8,201.63,252.36,340.82,175.61,340.82,36.42,278.38,36.42,201.63ZM70.26,413.31l40.3-49a175.15,175.15,0,0,0,130.11,0l40.3,49Z"/><circle cx="175.61" cy="201.63" r="60.77"/></svg>