<svg id="ds44-icons" xmlns="http://www.w3.org/2000/svg" viewBox="0 0 407.84 480"><title>youtube</title><g id="youtube"><g id="Tracé_1119" data-name="Tracé 1119"><path d="M403.85,158.79q4,41,4,65.32v31.06q0,25.08-4,66.09a98.08,98.08,0,0,1-16,40.61,49.89,49.89,0,0,1-23.69,14.56,136.25,136.25,0,0,1-17.72,3q-21.12,1.56-46.21,2.37-24.67.83-46.18,1.21t-35.84.39H186.88q-17.13-.4-40-.8t-46.09-1.19q-23.05-.79-35.46-2-6.8-1.21-20.1-3.41a46.55,46.55,0,0,1-25.28-14.18A91.23,91.23,0,0,1,4,321.21q-4-41-4-66.1V224.05q0-24.7,4-65.31a91.92,91.92,0,0,1,16-40.61,45,45,0,0,1,23.7-14.93,163.22,163.22,0,0,1,17.73-2.59Q82.47,99,107.54,98.22q24.71-.8,46.2-1.19t35.83-.41h28.67q14.34,0,35.84.41t46.19,1.19q25.1.8,46.2,2.39,6,.8,17.73,3a46,46,0,0,1,23.68,14.54A88.7,88.7,0,0,1,403.85,158.79Zm-131.4,77.27L162.53,178.7V293.39l96.36-50.17Z"/></g></g></svg>