<svg xmlns="http://www.w3.org/2000/svg" viewBox="0 0 20 20"><defs><style>.cls-1{fill:none;}</style></defs><title>youtube</title><g id="Calque_2" data-name="Calque 2"><g id="sources_non_vectorisés_" data-name="sources (non vectorisés)"><g id="youtube"><g id="Tracé_1119" data-name="Tracé 1119"><path d="M18.37,6.74c.11,1.12.16,2,.16,2.66v1.26c0,.68-.05,1.57-.16,2.68A3.94,3.94,0,0,1,17.72,15a2,2,0,0,1-1,.59,4.51,4.51,0,0,1-.72.12c-.57.05-1.2.08-1.88.1l-1.87,0-1.46,0H9.56l-1.63,0-1.87,0c-.62,0-1.1,0-1.44-.09l-.82-.13a1.88,1.88,0,0,1-1-.58,3.7,3.7,0,0,1-.65-1.65C2,12.23,2,11.34,2,10.66V9.4c0-.67.05-1.56.16-2.66a3.7,3.7,0,0,1,.65-1.65,1.74,1.74,0,0,1,1-.6,6,6,0,0,1,.72-.11l1.87-.1,1.88,0,1.46,0h1.16l1.46,0,1.87,0,1.88.1.72.12a1.93,1.93,0,0,1,1,.59A3.7,3.7,0,0,1,18.37,6.74ZM13,9.88,8.57,7.55v4.66l3.91-2Z"/></g><g id="Rectangle_970" data-name="Rectangle 970"><rect class="cls-1" width="20" height="20"/></g></g></g></g></svg>