<?xml version="1.0" encoding="utf-8"?>
<!-- Generator: Adobe Illustrator 23.1.1, SVG Export Plug-In . SVG Version: 6.00 Build 0)  -->
<svg version="1.1" id="Calque_1" xmlns="http://www.w3.org/2000/svg" xmlns:xlink="http://www.w3.org/1999/xlink" x="0px" y="0px"
	 viewBox="0 0 480 480" style="enable-background:new 0 0 480 480;" xml:space="preserve">
<title>youtube</title>
<g>
	<g id="ds44-icons">
		<g id="youtube">
			<g id="Tracé_1119">
				<path d="M440,158.8c2.6,27.3,4,49.1,4,65.3v31.1c0,16.7-1.3,38.8-4,66.1c-2.2,14.6-7.7,28.4-16,40.6c-6.4,7-14.6,12-23.7,14.6
					c-5.8,1.4-11.8,2.4-17.7,3c-14.1,1-29.5,1.8-46.2,2.4c-16.5,0.5-31.8,0.9-46.2,1.2c-14.3,0.3-26.3,0.4-35.8,0.4H223
					c-11.4-0.3-24.8-0.5-40-0.8c-15.3-0.3-30.6-0.7-46.1-1.2c-15.4-0.5-27.2-1.2-35.5-2c-4.5-0.8-11.2-1.9-20.1-3.4
					c-9.7-1.9-18.6-6.9-25.3-14.2c-8.5-12-14-26-16-40.6c-2.6-27.3-4-49.4-4-66.1v-31.1c0-16.5,1.3-38.2,4-65.3
					c2-14.6,7.5-28.6,16-40.6c6.1-7.4,14.4-12.6,23.7-14.9c5.9-1.2,11.8-2.1,17.7-2.6c14.1-1.1,29.5-1.9,46.2-2.4
					c16.5-0.5,31.9-0.9,46.2-1.2c14.3-0.3,26.3-0.4,35.8-0.4h28.7c9.6,0,21.5,0.1,35.8,0.4c14.3,0.3,29.7,0.7,46.2,1.2
					c16.7,0.5,32.1,1.3,46.2,2.4c4,0.5,9.9,1.5,17.7,3c9.2,2.3,17.5,7.4,23.7,14.5C432.6,130.1,438.1,144.1,440,158.8z M308.5,236.1
					l-109.9-57.4v114.7l96.4-50.2L308.5,236.1z"/>
			</g>
		</g>
	</g>
</g>
</svg>
