<svg id="ds44-icons" xmlns="http://www.w3.org/2000/svg" width="407.84317" height="480" viewBox="0 0 407.84317 480"><g id="youtube"><g id="Tracé_1119" data-name="Tracé 1119"><path d="M403.85416,158.79445q3.953,41.00571,3.989,65.31146v31.0605q0,25.08564-3.989,66.09162a98.1453,98.1453,0,0,1-15.9555,40.61562A49.957,49.957,0,0,1,364.21347,376.429a135.66728,135.66728,0,0,1-17.72845,2.97837q-21.11477,1.5606-46.20013,2.37566-24.67826.81559-46.18282,1.20541-21.50511.39036-35.847.39008H186.87537q-17.126-.40821-40.01292-.798-22.88716-.39034-46.09409-1.18756-23.047-.79774-35.4569-1.98557-6.7902-1.20515-20.10412-3.40362a46.605,46.605,0,0,1-25.28068-14.18255,91.2127,91.2127,0,0,1-15.9555-40.61562Q-.00054,280.19984,0,255.11393v-31.0605Q0,199.34029,3.97116,158.742a91.96265,91.96265,0,0,1,15.9555-40.61562,44.99664,44.99664,0,0,1,23.703-14.92755,162.80782,162.80782,0,0,1,17.72845-2.58828Q82.47291,99.015,107.541,98.217q24.69611-.79775,46.20013-1.18756,21.5043-.38953,35.82914-.40793h28.667q14.34162,0,35.847.40793,21.50511.40821,46.18282,1.18756,25.10351.79776,46.20013,2.39352,5.95674.79775,17.72846,2.97837a46.09557,46.09557,0,0,1,23.68518,14.53746A88.79849,88.79849,0,0,1,403.85416,158.79445ZM272.45108,236.05508,162.53445,178.70379V293.38906l96.35411-50.17129Z"/></g></g></svg>