<svg id="ds44-icons" xmlns="http://www.w3.org/2000/svg" viewBox="0 0 480 480"><title>youtube</title><g id="youtube"><g id="Tracé_1119" data-name="Tracé 1119"><path d="M439.93,158.79q4,41,4,65.32v31.06q0,25.08-4,66.09A98.08,98.08,0,0,1,424,361.87a49.94,49.94,0,0,1-23.69,14.56,136.4,136.4,0,0,1-17.73,3q-21.1,1.56-46.2,2.37-24.67.83-46.18,1.21t-35.85.39H223q-17.12-.4-40-.8t-46.09-1.19q-23.05-.79-35.46-2-6.8-1.21-20.1-3.41A46.55,46.55,0,0,1,56,361.82a91.12,91.12,0,0,1-16-40.61q-4-41-4-66.1V224.05q0-24.7,4-65.31a91.8,91.8,0,0,1,16-40.61,45,45,0,0,1,23.7-14.93,162.86,162.86,0,0,1,17.73-2.59q21.11-1.59,46.18-2.39,24.69-.8,46.2-1.19t35.83-.41h28.67q14.34,0,35.84.41t46.19,1.19q25.09.8,46.2,2.39,6,.8,17.72,3A46,46,0,0,1,424,118.13,88.7,88.7,0,0,1,439.93,158.79Zm-131.4,77.27L198.61,178.7V293.39L295,243.22Z"/></g></g></svg>