<?xml version="1.0" encoding="utf-8"?>
<!-- Generator: Adobe Illustrator 24.3.0, SVG Export Plug-In . SVG Version: 6.00 Build 0)  -->
<svg version="1.1" id="Calque_1" xmlns="http://www.w3.org/2000/svg" xmlns:xlink="http://www.w3.org/1999/xlink" x="0px" y="0px"
	 viewBox="0 0 219 61.9" style="enable-background:new 0 0 219 61.9;" xml:space="preserve">
<style type="text/css">
	.st0{fill:#004461;}
	.st1{fill:#AFCA00;}
	.st2{fill:#FFFFFF;}
	.st3{enable-background:new    ;}
</style>
<g transform="translate(913 1603)">
	<path class="st0" d="M-853.8-1589.6c-0.5-0.3-1.1-0.4-1.7-0.4c-0.8,0-1.6,0.3-2.2,1c-0.6,0.6-0.9,1.4-0.8,2.2v0.4L-853.8-1589.6z"
		/>
	<path class="st0" d="M-803.9-1570.9c-0.5-0.3-1.1-0.4-1.7-0.4c-0.8,0-1.6,0.3-2.2,1c-0.6,0.6-0.9,1.4-0.8,2.2v0.4L-803.9-1570.9z"
		/>
	<path class="st0" d="M-878.5-1583.9c0.8,0,1.6-0.3,2.2-0.8c0.6-0.6,0.9-1.4,1-2.2c0-0.8-0.3-1.6-1-2.2c-0.6-0.6-1.4-0.9-2.2-1
		c-1.7,0-3.1,1.4-3,3.1c0,0,0,0.1,0,0.1c0,0.8,0.3,1.6,0.8,2.2C-880.1-1584.2-879.4-1583.9-878.5-1583.9z"/>
	<path class="st0" d="M-829.1-1571.4c-1.7,0-3.1,1.4-3,3.1c0,0,0,0.1,0,0.1c0,0.8,0.3,1.6,0.8,2.2c0.6,0.6,1.4,0.9,2.2,0.8
		c0.8,0,1.6-0.3,2.2-0.8c0.6-0.6,0.9-1.4,1-2.2C-826-1570-827.4-1571.4-829.1-1571.4z"/>
	<path class="st0" d="M-863.9-1565.3c0.8,0,1.6-0.3,2.2-0.8c0.6-0.6,0.9-1.4,1-2.2c0-0.8-0.3-1.6-1-2.2c-0.6-0.6-1.4-0.9-2.2-1
		c-1.7,0-3.1,1.4-3,3.1c0,0,0,0.1,0,0.1c0,0.8,0.3,1.6,0.8,2.2C-865.5-1565.6-864.7-1565.3-863.9-1565.3z"/>
	<path class="st0" d="M-826.1-1557.6v-6.1c-0.9,0.7-2,1.1-3.2,1.1c-1.5,0-2.9-0.6-3.9-1.7c-2.2-2.2-2.2-5.8,0-8c2.2-2.2,5.8-2.2,8,0
		c1.1,1.1,1.7,2.5,1.7,4v10.7h-0.3c9.3,0.1,19.9,0.6,32.5,1.4v-33.4c-45.7-17.7-100.8-16.7-121.8-3.9l17.4,52.3
		c2.9-1.8,5.7-3.5,8.6-5l0,0C-873.3-1553.4-859-1557.9-826.1-1557.6z M-809.5-1572.3c1.1-1.1,2.5-1.7,4-1.7c1.1,0,2.3,0.3,3.2,1
		c0.9,0.6,1.6,1.5,2.1,2.5l0.1,0.3l-6.9,4.6c0.5,0.3,1.1,0.4,1.7,0.4c0.8,0,1.6-0.3,2.2-1c0.3-0.3,0.5-0.6,0.6-1h2.8
		c-0.3,1-0.8,2-1.5,2.8c-2.2,2.2-5.8,2.2-8,0c-1.1-1.1-1.7-2.5-1.7-4C-811.1-1569.9-810.6-1571.3-809.5-1572.3L-809.5-1572.3z
		 M-821.9-1573.8h2.6v6.4c0,1.2,1.1,2.2,2.3,2.1c1.2,0,2.1-1,2.1-2.1v-6.4h2.6v6.4c0,1.3-0.6,2.5-1.5,3.3c-1.8,1.8-4.8,1.8-6.7,0
		c-0.9-0.9-1.4-2.1-1.4-3.3v-6.4H-821.9z M-875.5-1571.3h-1.7v8.3h-2.6v-8.3h-1.7v-2.6h1.7v-3.6h2.6v3.6h1.7L-875.5-1571.3z
		 M-871.1-1562.9h-2.6v-14.7h2.6V-1562.9z M-839.1-1577.5h2.6v2.6h-2.6V-1577.5z M-839.1-1573.8h2.6v10.9h-2.6V-1573.8z
		 M-846.2-1573.8h1.7v-3.6h2.6v3.6h1.7v2.6h-1.7v8.3h-2.6v-8.3h-1.7V-1573.8z M-847-1569.2v6.4h-2.6v-6.4c0-1.2-1.1-2.2-2.3-2.1
		c-1.2,0-2.1,1-2.1,2.1v6.4h-2.6v-6.4c0-1.2,0.5-2.4,1.4-3.3c1.6-1.8,4.3-2,6.2-0.5c0.2,0.1,0.3,0.3,0.5,0.5
		C-847.6-1571.8-846.9-1570.5-847-1569.2L-847-1569.2z M-859.4-1591c1.1-1.1,2.5-1.7,4-1.7c1.1,0,2.3,0.3,3.2,1
		c0.9,0.6,1.6,1.5,2.1,2.5l0.1,0.3l-6.9,4.6c0.5,0.3,1.1,0.4,1.7,0.4c0.8,0,1.6-0.3,2.2-1c0.3-0.3,0.5-0.6,0.6-1h2.8
		c-0.3,1-0.8,2-1.5,2.8c-2.2,2.2-5.8,2.2-8,0c-1.1-1.1-1.7-2.5-1.7-4C-861.1-1588.5-860.5-1590-859.4-1591z M-866.6-1587.8
		c0-1.3,0.6-2.6,1.5-3.5c0.9-0.9,2.2-1.4,3.5-1.4h0.3v2.6h-0.3c-0.6,0-1.2,0.2-1.7,0.7c-0.4,0.4-0.7,0.9-0.7,1.5v6.4h-2.6
		L-866.6-1587.8L-866.6-1587.8z M-863.9-1574.1c3.1,0,5.7,2.5,5.7,5.7c0,0,0,0,0,0v5.5h-2.6v-0.8c-0.9,0.7-2,1.1-3.2,1.1
		c-1.5,0-2.9-0.6-3.9-1.7c-2.2-2.2-2.2-5.8,0-8C-866.8-1573.4-865.4-1574-863.9-1574.1L-863.9-1574.1z M-871.2-1596.1h2.5v2.6h-2.6
		v-2.6H-871.2z M-871.2-1592.5h2.5v10.9h-2.6v-10.9L-871.2-1592.5z M-882.6-1591c2.2-2.2,5.8-2.2,8,0c1.1,1.1,1.7,2.5,1.7,4
		c0,3.1-2.5,5.7-5.7,5.7s-5.7-2.5-5.7-5.7C-884.2-1588.4-883.6-1589.9-882.6-1591z M-893.1-1596.1h2.8v11.9h6v2.8h-8.7V-1596.1z
		 M-891.1-1562.9h-2.9l5.1-14.7h3l5.3,14.7h-2.9l-0.8-2.5h-5.8L-891.1-1562.9z"/>
	<path class="st0" d="M-889.3-1567.7h4l-1.9-5.5L-889.3-1567.7z"/>
	<path class="st1" d="M-887-1546h95.6v-10.2C-846.7-1559.5-866.1-1557.2-887-1546z"/>
	<path class="st1" d="M-791.1-1556.2"/>
	<path class="st1" d="M-791.3-1556.2L-791.3-1556.2c-12.6-0.8-23.3-1.2-32.5-1.4h-2.2c-32.9-0.3-47.2,4.2-60.9,11.6l0,0
		C-866.1-1557.2-846.7-1559.5-791.3-1556.2z"/>
	<path class="st2" d="M-878.5-1581.3c3.1,0,5.7-2.5,5.7-5.7c0,0,0,0,0,0c0-3.1-2.5-5.7-5.7-5.7s-5.7,2.5-5.7,5.7
		c0,1.5,0.6,2.9,1.7,4C-881.5-1581.8-880-1581.2-878.5-1581.3z M-880.8-1589.2c0.6-0.6,1.4-0.9,2.2-1c0.8,0.1,1.6,0.4,2.2,1
		c0.6,0.6,0.9,1.4,1,2.2c0,1.7-1.4,3.1-3.1,3c0,0-0.1,0-0.1,0c-0.8,0-1.6-0.3-2.2-0.8c-0.6-0.6-0.9-1.4-0.8-2.2
		C-881.6-1587.8-881.3-1588.5-880.8-1589.2z"/>
	<rect x="-871.2" y="-1592.5" class="st2" width="2.6" height="10.9"/>
	<path class="st2" d="M-864-1587.8c0-0.6,0.2-1.1,0.7-1.5c0.4-0.4,1-0.7,1.7-0.7h0.3v-2.6h-0.3c-1.3,0-2.5,0.5-3.5,1.4
		c-1,0.9-1.5,2.1-1.5,3.5v6.4h2.6L-864-1587.8L-864-1587.8z"/>
	<path class="st2" d="M-877.2-1577.5h-2.6v3.7h-1.7v2.5h1.7v8.4h2.6v-8.4h1.7v-2.5h-1.7V-1577.5z"/>
	<rect x="-873.7" y="-1577.5" class="st2" width="2.6" height="14.7"/>
	<path class="st2" d="M-867.9-1564.4c1,1.1,2.4,1.7,3.9,1.7c1.2,0,2.3-0.4,3.2-1.1v1h2.6v-5.5c0-3.1-2.5-5.7-5.7-5.7
		s-5.7,2.5-5.7,5.7C-869.5-1566.9-868.9-1565.4-867.9-1564.4z M-865.9-1570.5c0.6-0.6,1.4-0.9,2.2-1c0.8,0,1.6,0.3,2.2,1
		c0.6,0.6,0.9,1.4,1,2.2c0,1.7-1.4,3.1-3.1,3c0,0-0.1,0-0.1,0c-0.8,0-1.6-0.3-2.2-0.8c-0.6-0.6-0.9-1.4-0.8-2.2
		C-867-1569.1-866.6-1570-865.9-1570.5z"/>
	<path class="st2" d="M-855.1-1572.5c-0.9,0.9-1.4,2.1-1.4,3.3v6.4h2.6v-6.4c0-1.2,1.1-2.2,2.3-2.1c1.2,0,2.1,1,2.1,2.1v6.4h2.6
		v-6.4c0-1.3-0.6-2.5-1.5-3.3c-0.9-0.9-2.1-1.5-3.3-1.5C-853-1574.1-854.3-1573.5-855.1-1572.5z"/>
	<path class="st2" d="M-844.5-1562.9h2.6v-8.4h1.7v-2.5h-1.7v-3.7h-2.6v3.7h-1.7v2.5h1.7V-1562.9z"/>
	<rect x="-839.1" y="-1573.8" class="st2" width="2.6" height="10.9"/>
	<rect x="-839.1" y="-1577.5" class="st2" width="2.6" height="2.6"/>
	<path class="st2" d="M-823.5-1568.4c0-3.1-2.5-5.7-5.7-5.7c-3.1,0-5.7,2.5-5.7,5.7c0,1.5,0.6,2.9,1.7,4c1,1.1,2.4,1.7,3.9,1.7
		c1.2,0,2.3-0.4,3.2-1.1v6.1h2.5v-10.7H-823.5z M-827.1-1566.2c-0.6,0.6-1.4,0.9-2.2,0.8c-0.8,0-1.6-0.3-2.2-0.8
		c-0.6-0.6-0.9-1.4-0.8-2.2c0-0.8,0.3-1.6,0.8-2.2c0.6-0.6,1.4-0.9,2.2-1c0.8,0,1.6,0.3,2.2,1c0.6,0.6,0.9,1.4,1,2.2
		C-826.1-1567.5-826.4-1566.7-827.1-1566.2L-827.1-1566.2z"/>
	<path class="st2" d="M-826.1-1557.6L-826.1-1557.6z"/>
	<path class="st2" d="M-817.1-1562.7c1.3,0,2.5-0.5,3.3-1.4c0.9-0.9,1.5-2.1,1.5-3.3v-6.4h-2.6v6.4c0,1.2-1.1,2.2-2.3,2.1
		c-1.2,0-2.1-1-2.1-2.1v-6.4h-2.6v6.4c0,1.2,0.5,2.4,1.4,3.3C-819.6-1563.2-818.4-1562.7-817.1-1562.7z"/>
	<path class="st2" d="M-855.3-1581.3c1.5,0,3-0.6,4-1.7c0.7-0.8,1.2-1.7,1.5-2.8h-2.8c-0.1,0.4-0.3,0.7-0.6,1c-0.5,0.7-1.4,1-2.2,1
		c-0.6,0-1.1-0.1-1.7-0.4l6.9-4.6l-0.1-0.4c-0.4-1-1.1-1.9-2.1-2.5c-0.9-0.7-2-1-3.2-1c-3.1,0-5.7,2.5-5.7,5.7c0,0,0,0,0,0
		c0,1.5,0.6,3,1.7,4C-858.3-1581.8-856.8-1581.2-855.3-1581.3z M-857.5-1589.2c0.6-0.6,1.4-1,2.2-1c0.6,0,1.1,0.1,1.7,0.4l-4.6,3
		v-0.4C-858.4-1587.8-858.1-1588.7-857.5-1589.2z"/>
	<path class="st2" d="M-805.5-1562.7c1.5,0,3-0.6,4-1.7c0.7-0.8,1.2-1.7,1.5-2.8h-2.8c-0.1,0.4-0.3,0.7-0.6,1c-0.5,0.7-1.4,1-2.2,1
		c-0.6,0-1.1-0.1-1.7-0.4l6.9-4.6l-0.1-0.3c-0.4-1-1.1-1.9-2.1-2.5c-0.9-0.7-2-1-3.2-1c-3.1,0-5.7,2.5-5.7,5.7c0,1.5,0.6,2.9,1.7,4
		C-808.4-1563.3-807-1562.7-805.5-1562.7z M-807.7-1570.5c0.6-0.6,1.4-1,2.2-1c0.6,0,1.1,0.1,1.7,0.4l-4.6,3v-0.4
		C-808.5-1569.2-808.2-1569.9-807.7-1570.5z"/>
	<path class="st2" d="M-884.4-1584.2h-6.1v-11.9h-2.6v14.7h8.7V-1584.2z"/>
	<path class="st2" d="M-883.5-1562.9h2.9l-5.1-14.7h-3l-5.1,14.7h2.9l0.8-2.5h5.8L-883.5-1562.9z M-889.3-1567.7l2.1-5.5l2.1,5.5
		H-889.3z"/>
	<rect x="-871.2" y="-1596.1" class="st2" width="2.6" height="2.6"/>
</g>
<g class="st3">
	<path d="M148.9,31l-1.1-2.7h-5.6l-1.2,2.7H139l5.2-11.4h1.7L151,31H148.9z M142.9,26.7h4.2l-2.1-4.9L142.9,26.7z"/>
	<path d="M159.6,26v5h-2v-4.9c0-0.6-0.1-1.1-0.4-1.4c-0.2-0.3-0.6-0.4-1.1-0.4c-0.6,0-1.1,0.2-1.5,0.6c-0.4,0.4-0.6,0.9-0.6,1.5V31
		h-2v-5.8c0-0.9,0-1.6-0.1-2.3h1.9l0.1,1.3c0.3-0.5,0.7-0.9,1.1-1.1s1-0.4,1.6-0.4C158.6,22.7,159.6,23.8,159.6,26z"/>
	<path d="M161.6,19.3h2.2v2h-2.2V19.3z M161.7,31v-8.1h2V31H161.7z"/>
	<path d="M177.5,23.5c0.4,0.5,0.7,1.4,0.7,2.5v5h-2v-4.9c0-0.6-0.1-1.1-0.3-1.4c-0.2-0.3-0.6-0.4-1-0.4c-0.6,0-1,0.2-1.3,0.6
		c-0.3,0.4-0.5,0.9-0.5,1.6V31h-2v-4.9c0-0.6-0.1-1.1-0.3-1.4c-0.2-0.3-0.6-0.4-1-0.4c-0.6,0-1,0.2-1.3,0.6
		c-0.3,0.4-0.5,0.9-0.5,1.6V31h-2v-5.8c0-0.9,0-1.6-0.1-2.3h1.9l0.1,1.3c0.2-0.5,0.6-0.8,1-1.1c0.4-0.3,1-0.4,1.5-0.4
		c1.2,0,2,0.5,2.4,1.5c0.3-0.5,0.6-0.9,1.1-1.1c0.5-0.3,1-0.4,1.6-0.4C176.4,22.7,177,23,177.5,23.5z"/>
	<path d="M188,22.9V31h-2v-1.3c-0.2,0.4-0.6,0.8-1.1,1c-0.5,0.3-1,0.4-1.6,0.4c-0.7,0-1.3-0.2-1.9-0.5c-0.5-0.3-1-0.8-1.3-1.5
		c-0.3-0.6-0.4-1.4-0.4-2.2s0.2-1.6,0.5-2.2s0.7-1.1,1.3-1.5c0.5-0.4,1.2-0.5,1.9-0.5c0.6,0,1.1,0.1,1.6,0.4c0.5,0.3,0.8,0.6,1.1,1
		v-1.2H188z M185.5,28.9c0.4-0.5,0.5-1.1,0.5-1.9c0-0.9-0.2-1.5-0.5-2c-0.4-0.5-0.9-0.7-1.6-0.7c-0.7,0-1.2,0.2-1.5,0.7
		c-0.4,0.5-0.6,1.1-0.6,2c0,0.8,0.2,1.5,0.6,1.9c0.4,0.4,0.9,0.7,1.6,0.7C184.6,29.6,185.1,29.3,185.5,28.9z"/>
	<path d="M192.7,24.4V28c0,0.9,0.4,1.4,1.3,1.4c0.2,0,0.5,0,0.8-0.1v1.6c-0.4,0.1-0.8,0.2-1.3,0.2c-0.9,0-1.6-0.3-2.1-0.8
		c-0.5-0.5-0.7-1.2-0.7-2.2v-3.7h-1.6v-1.5h1.6v-2l2-0.7v2.6h2.1v1.5H192.7z"/>
	<path d="M196.1,19.3h2.2v2h-2.2V19.3z M196.3,31v-8.1h2V31H196.3z"/>
	<path d="M201.9,30.6c-0.6-0.3-1.1-0.8-1.4-1.5s-0.5-1.4-0.5-2.2s0.2-1.6,0.5-2.2c0.3-0.6,0.8-1.1,1.4-1.5c0.6-0.3,1.3-0.5,2.2-0.5
		c0.8,0,1.5,0.2,2.1,0.5c0.6,0.3,1.1,0.8,1.4,1.5c0.3,0.6,0.5,1.4,0.5,2.2s-0.2,1.6-0.5,2.2s-0.8,1.1-1.4,1.5
		c-0.6,0.3-1.3,0.5-2.1,0.5C203.3,31.1,202.6,31,201.9,30.6z M205.6,28.9c0.4-0.4,0.5-1.1,0.5-2c0-0.9-0.2-1.5-0.5-2
		c-0.4-0.5-0.9-0.7-1.5-0.7c-0.7,0-1.2,0.2-1.6,0.7c-0.4,0.5-0.5,1.1-0.5,2c0,0.9,0.2,1.5,0.5,2c0.4,0.4,0.9,0.7,1.5,0.7
		C204.8,29.6,205.3,29.3,205.6,28.9z"/>
	<path d="M217.4,26v5h-2v-4.9c0-0.6-0.1-1.1-0.4-1.4c-0.2-0.3-0.6-0.4-1.1-0.4c-0.6,0-1.1,0.2-1.5,0.6c-0.4,0.4-0.6,0.9-0.6,1.5V31
		h-2v-5.8c0-0.9,0-1.6-0.1-2.3h1.9l0.1,1.3c0.3-0.5,0.7-0.9,1.1-1.1s1-0.4,1.6-0.4C216.5,22.7,217.4,23.8,217.4,26z"/>
</g>
<g class="st3">
	<path d="M139.6,47.1l0.6-1.4c0.9,0.6,1.9,1,3,1c0.5,0,0.9-0.1,1.1-0.2c0.3-0.2,0.4-0.4,0.4-0.7c0-0.2-0.1-0.4-0.3-0.6
		c-0.2-0.1-0.5-0.3-0.9-0.4l-1.3-0.3c-1.5-0.3-2.2-1.1-2.2-2.3c0-0.5,0.1-0.9,0.4-1.3s0.7-0.7,1.2-0.9c0.5-0.2,1.1-0.3,1.7-0.3
		c0.6,0,1.1,0.1,1.7,0.3c0.5,0.2,1,0.4,1.4,0.8l-0.6,1.4c-0.8-0.6-1.6-0.9-2.5-0.9c-0.5,0-0.8,0.1-1.1,0.3s-0.4,0.4-0.4,0.7
		c0,0.2,0.1,0.4,0.2,0.6s0.4,0.3,0.8,0.4l1.4,0.3c0.8,0.2,1.4,0.5,1.8,0.8c0.4,0.4,0.6,0.9,0.6,1.5c0,0.7-0.3,1.3-0.9,1.8
		c-0.6,0.4-1.4,0.7-2.4,0.7C141.6,48.1,140.4,47.8,139.6,47.1z"/>
	<path d="M154.6,40.2c0.5,0.4,1,0.9,1.3,1.5c0.3,0.6,0.5,1.4,0.5,2.2s-0.1,1.6-0.4,2.2c-0.3,0.6-0.7,1.1-1.3,1.5
		c-0.5,0.3-1.2,0.5-1.9,0.5c-0.6,0-1.1-0.1-1.6-0.4c-0.5-0.2-0.8-0.6-1.1-1v4.8h-2v-9.2c0-0.9,0-1.6-0.1-2.3h1.9l0.2,1.4
		c0.2-0.5,0.6-0.9,1-1.2c0.5-0.3,1-0.4,1.7-0.4C153.4,39.7,154,39.9,154.6,40.2z M153.7,45.9c0.4-0.4,0.5-1.1,0.5-1.9
		c0-0.8-0.2-1.5-0.5-2s-0.9-0.7-1.5-0.7c-0.7,0-1.2,0.2-1.6,0.7c-0.4,0.5-0.5,1.1-0.5,2c0,0.8,0.2,1.5,0.5,1.9
		c0.4,0.5,0.9,0.7,1.6,0.7S153.4,46.3,153.7,45.9z"/>
	<path d="M159.5,47.6c-0.6-0.3-1.1-0.8-1.4-1.5s-0.5-1.4-0.5-2.2s0.2-1.6,0.5-2.2c0.3-0.6,0.8-1.1,1.4-1.5c0.6-0.3,1.3-0.5,2.2-0.5
		c0.8,0,1.5,0.2,2.1,0.5c0.6,0.3,1.1,0.8,1.4,1.5c0.3,0.6,0.5,1.4,0.5,2.2s-0.2,1.6-0.5,2.2s-0.8,1.1-1.4,1.5
		c-0.6,0.3-1.3,0.5-2.1,0.5C160.9,48.1,160.1,48,159.5,47.6z M163.2,45.9c0.4-0.4,0.5-1.1,0.5-2c0-0.9-0.2-1.5-0.5-2
		s-0.9-0.7-1.5-0.7c-0.7,0-1.2,0.2-1.6,0.7s-0.5,1.1-0.5,2c0,0.9,0.2,1.5,0.5,2c0.4,0.4,0.9,0.7,1.5,0.7
		C162.4,46.6,162.9,46.3,163.2,45.9z"/>
	<path d="M172.6,39.9l0,1.8c-0.3-0.1-0.7-0.2-1.1-0.2c-0.7,0-1.2,0.2-1.6,0.6s-0.5,0.9-0.5,1.6V48h-2v-5.8c0-0.9,0-1.6-0.1-2.3h1.9
		l0.2,1.4c0.2-0.5,0.5-0.9,1-1.2c0.4-0.3,0.9-0.4,1.5-0.4C172.2,39.7,172.4,39.8,172.6,39.9z"/>
	<path d="M177,41.4V45c0,0.9,0.4,1.4,1.3,1.4c0.2,0,0.5,0,0.8-0.1v1.6c-0.4,0.1-0.8,0.2-1.3,0.2c-0.9,0-1.6-0.3-2.1-0.8
		c-0.5-0.5-0.7-1.2-0.7-2.2v-3.7h-1.6v-1.5h1.6v-2l2-0.7v2.6h2.1v1.5H177z"/>
	<path d="M180.4,36.3h2.2v2h-2.2V36.3z M180.6,48v-8.1h2V48H180.6z"/>
	<path d="M190.4,39.9h2l-3.5,8.1h-1.7l-3.5-8.1h2.1l2.3,5.8L190.4,39.9z"/>
	<path d="M200.4,44.1h-5.6c0,0.9,0.3,1.5,0.6,1.9c0.4,0.4,1,0.6,1.7,0.6c0.9,0,1.7-0.3,2.5-0.9l0.6,1.4c-0.4,0.3-0.9,0.6-1.4,0.7
		c-0.6,0.2-1.1,0.3-1.7,0.3c-1.3,0-2.4-0.4-3.1-1.1c-0.8-0.7-1.1-1.8-1.1-3.1c0-0.8,0.2-1.6,0.5-2.2c0.3-0.6,0.8-1.1,1.4-1.5
		c0.6-0.4,1.3-0.5,2-0.5c1.1,0,2,0.4,2.6,1.1c0.6,0.7,1,1.7,1,3V44.1z M195.5,41.6c-0.3,0.3-0.6,0.8-0.6,1.4h3.8
		c-0.1-0.6-0.2-1.1-0.6-1.4c-0.3-0.3-0.7-0.5-1.3-0.5S195.8,41.3,195.5,41.6z"/>
</g>
</svg>
