<svg width="103" height="103" xmlns="http://www.w3.org/2000/svg" x="0px" y="0px"
	 viewBox="0 0 102.9 102" style="enable-background:new 0 0 102.9 102;" xml:space="preserve">
<style type="text/css">
	.st0{fill:none;}
</style>
<g>
	<path class="st0" d="M58.2,78.1l0.1,4.1c5.2-1.5,10.6-2.6,16-3.2c4.8-0.4,9.5-1.5,14-3.2l0.1-4.2c-4.6,1.9-9.5,3.1-14.5,3.6
		C68.6,75.8,63.4,76.7,58.2,78.1z"/>
	<path class="st0" d="M58.2,47.7l0.1,4.1c5.2-1.5,10.6-2.6,16-3.2c4.8-0.4,9.5-1.5,14-3.2l0.1-4.2c-4.6,1.9-9.5,3.1-14.5,3.6
		C68.6,45.4,63.4,46.4,58.2,47.7z"/>
	<path class="st0" d="M58.2,55.3l0.1,4.1c5.2-1.5,10.6-2.6,16-3.2c4.8-0.4,9.5-1.5,14-3.2l0.1-4.2c-4.6,1.9-9.5,3.1-14.5,3.6
		C68.6,53,63.4,54,58.2,55.3z"/>
	<path class="st0" d="M59.7,21.3c-1.1-0.2-2.1,1.1-2.4,2.8c-0.3,1.7,0.4,3.2,1.4,3.4c1.1,0.2,2.1-1.1,2.4-2.8
		C61.4,23,60.7,21.5,59.7,21.3z"/>
	<path class="st0" d="M50.8,32.4c-2.1-0.4-4-1.5-5.5-3c0,0,2.1,5.2,5.7,5.5c2.4,0.1,4.6-0.9,6.1-2.8C55,32.6,52.9,32.7,50.8,32.4z"
		/>
	<path class="st0" d="M58.2,85.6l0.1,4.1c5.2-1.5,10.6-2.6,16-3.2c4.8-0.4,9.5-1.5,14-3.2l0.1-4.2c-4.6,1.8-9.5,3.1-14.5,3.6
		C68.6,83.4,63.4,84.3,58.2,85.6z"/>
	<path class="st0" d="M46.6,22.8c0.3-1.7-0.4-3.2-1.4-3.4c-1.1-0.2-2.1,1.1-2.4,2.8c-0.3,1.7,0.4,3.2,1.4,3.4
		C45.2,25.7,46.3,24.5,46.6,22.8z"/>
	<path class="st0" d="M58.2,62.9l0.1,4.1c5.2-1.5,10.6-2.6,16-3.2c4.8-0.4,9.5-1.5,14-3.2l0.1-4.2c-4.6,1.8-9.5,3.1-14.5,3.6
		C68.6,60.6,63.4,61.5,58.2,62.9z"/>
	<path class="st0" d="M17.1,63c-0.6,0-7.2-0.3-7.2-0.3l-0.2,0.5c-0.8,2.2-1.3,4.4-1.4,6.7c0,2.4,0.3,4.8,0.9,7.1
		c0.2,0.7,0.8,0.6,2.1,0.5c0,0,4.1,0.1,4.8,0.1c0.8,1.2,3.6,5.3,7.1,6.9c1.5,0.7,5,0.6,5.8,0.5c0.2,0.1,0.4,0.2,0.6,0.3l0,0
		c2.4,1.1,5.4,1.3,6.6-0.1c0.5-0.5,0.8-1.1,0.9-1.8c0-0.1,0-0.2-0.1-0.3c0.1,0,0.1,0,0.1,0c1.1-0.1,2.1-0.7,2.8-1.6
		c0.5-0.7,0.8-1.5,0.9-2.3c0-0.1-0.1-0.2-0.1-0.3c1-0.3,1.8-1.1,2.2-2.1c0.2-0.5,0.3-1.1,0.3-1.6c0-0.3-0.1-0.7-0.3-1
		c1.1-0.7,1.7-1.9,1.8-3.2c0-0.3,0-0.6-0.1-0.9c-0.5-2.3-3.6-4.6-9.4-7.3c-1-0.5-2.1-0.8-3.2-1.1c1.6-1.9,4.4-5.8,4.4-10.2
		c0-4.3-4.2-7.5-5.8-7.6c-0.5-0.1-1,0.3-1.1,0.8c0,0,0,0,0,0l0,0.4c-0.2,5.7-1.1,7-1.3,7.4c-0.5,0.5-1,0.9-1.6,1.3L23.8,56
		C22.2,57.4,18.1,61.9,17.1,63z M35,84.4c-0.6,0.7-2.9,0.7-4.9-0.2l0,0c-0.2-0.1-0.4-0.2-0.6-0.3c0,0-0.1,0-0.1-0.1l-0.2-0.1l-0.1,0
		c-2.1-1-4.2-2.2-4.4-2.7c-0.1-0.6,0.2-1.3,0.7-1.6c2.2,1.4,4.6,2.5,7.1,3.4c0.8,0.3,1.7,0.4,2.5,0.5l0,0c0.1,0,0.3,0.1,0.4,0.2
		C35.6,83.5,35.6,83.8,35,84.4L35,84.4z M38.6,80.9c-0.5,0.5-1.2,0.9-1.9,0.9l0,0c-1.2,0.2-2.4,0.1-3.6-0.3c-3.1-1.1-7.4-3.2-7.6-4
		c-0.1-0.8,0.3-1.6,0.9-2c1.6,1.4,5.3,2.8,8.4,3.9c1.5,0.4,3,0.4,4.5,0.1C39.1,80,38.9,80.5,38.6,80.9L38.6,80.9z M41.4,76.6
		c-0.2,0.7-1.3,1.2-2,1.4c-1.4,0.3-2.8,0.3-4.2,0c-4.9-1.6-8.2-3.3-8.3-4c-0.1-1.6,1.9-2.3,2-2.4c1.1,0.9,3.2,1.8,6.4,2.9l1.1,0.4
		c1.5,0.6,3.2,0.7,4.8,0.3l0,0.1c0,0,0.1,0,0.1-0.1c0,0,0.2-0.1,0.4-0.1c0,0,0,0.1,0,0.1C41.7,75.7,41.6,76.2,41.4,76.6L41.4,76.6z
		 M27.3,55.1c0.8-0.4,1.5-1,2-1.7c0.7-1.1,1.4-3.5,1.5-7.8c1.2,0.4,4.1,2.7,4.1,6c0,4.8-4.1,9.4-4.9,10.2l0.5,1.2
		c1.4,0.2,2.7,0.6,4,1.2c6.6,3,8.3,5.1,8.6,6.3c0,0.2,0.1,0.4,0.1,0.6c0,1.5-1.3,2.3-2,2.7c-1.4,0.5-2.9,0.4-4.3-0.2l-1.1-0.4
		c-4-1.4-6.1-2.5-6.3-3c0.2-1.9,1.4-2.3,2.6-2.4c1.3-0.1,4.3,1.3,5.7,2.3l0.9-1.1c-0.4-0.3-4.5-2.9-6.7-2.6
		c-2.4,0.3-3.6,1.5-3.8,3.7c0,0.1,0,0.2,0,0.3c-0.8,0.4-2.7,1.5-2.6,3.7c0,0.1,0,0.2,0.1,0.3c-1.1,0.8-1.7,2.1-1.5,3.5
		c0.1,0.2,0.2,0.5,0.4,0.7c-0.9,0.7-1.3,1.8-1,2.9c0.2,0.7,1.3,1.5,2.7,2.3c-0.8,0-1.6-0.1-2.4-0.4C20,81.7,17,76.7,17,76.6
		l-0.2-0.3l-5.6-0.1c0,0-0.5,0-0.8,0c-0.4-1.9-0.7-3.7-0.7-5.6c0-0.2,0-0.4,0-0.6c0.1-2,0.5-3.9,1.2-5.8c0.9,0,6.9,0.3,6.9,0.3
		l0.2-0.2c0-0.1,5.1-5.6,6.8-7.1L27.3,55.1z"/>
	<path d="M35.2,83.4L35.2,83.4c-0.9-0.1-1.7-0.2-2.5-0.5c-2.5-0.9-4.9-2-7.1-3.4c-0.6,0.3-0.8,1-0.7,1.6c0.3,0.5,2.3,1.7,4.4,2.7
		l0.1,0l0.2,0.1c0,0,0.1,0,0.1,0.1c0.2,0.1,0.4,0.2,0.6,0.3l0,0c2,0.9,4.3,1,4.9,0.2c0.6-0.7,0.5-0.9,0.5-0.9
		C35.4,83.4,35.3,83.4,35.2,83.4z"/>
	<path d="M76.9,37.6c-7.8,0.8-15.6,2-23.3,3.6v54.1c8-1.6,16-2.8,24.1-3.6C88,91,94.3,87.2,95.7,86.1c0-3.3,0.2-46.1,0.2-53.3
		C89.9,35.5,83.5,37.1,76.9,37.6z M88.3,83.4c-4.5,1.7-9.2,2.7-14,3.2c-5.4,0.6-10.8,1.7-16,3.2l-0.1-4.1c5.2-1.3,10.4-2.3,15.8-2.8
		c5-0.6,9.8-1.8,14.5-3.6L88.3,83.4z M88.3,75.8c-4.5,1.7-9.2,2.7-14,3.2c-5.4,0.6-10.8,1.7-16,3.2l-0.1-4.1
		c5.2-1.3,10.4-2.3,15.8-2.8c5-0.6,9.8-1.8,14.5-3.6L88.3,75.8z M88.3,60.6c-4.5,1.7-9.2,2.7-14,3.2c-5.4,0.6-10.8,1.7-16,3.2
		l-0.1-4.1c5.2-1.3,10.4-2.3,15.8-2.8c5-0.6,9.8-1.8,14.5-3.6L88.3,60.6z M88.3,53c-4.5,1.7-9.2,2.7-14,3.2
		c-5.4,0.6-10.8,1.7-16,3.2l-0.1-4.1c5.2-1.3,10.4-2.3,15.8-2.8c5-0.6,9.8-1.8,14.5-3.6L88.3,53z M88.3,45.4
		c-4.5,1.7-9.2,2.7-14,3.2c-5.4,0.6-10.8,1.7-16,3.2l-0.1-4.1c5.2-1.3,10.4-2.3,15.8-2.8c5-0.6,9.8-1.8,14.5-3.6L88.3,45.4z"/>
	<path d="M17.9,64.2l-0.2,0.2c0,0-6-0.2-6.9-0.3C10.2,66,9.8,68,9.7,70c0,0.2,0,0.4,0,0.6c0.1,1.9,0.3,3.8,0.7,5.6
		c0.3,0,0.8,0,0.8,0l5.6,0.1l0.2,0.3c0,0.1,3,5,6.7,6.7c0.8,0.3,1.6,0.4,2.4,0.4c-1.4-0.8-2.5-1.6-2.7-2.3c-0.2-1.1,0.2-2.2,1-2.9
		c-0.2-0.2-0.3-0.4-0.4-0.7c-0.2-1.3,0.4-2.7,1.5-3.5c0-0.1,0-0.2-0.1-0.3c-0.1-2.2,1.8-3.3,2.6-3.7c0-0.1,0-0.2,0-0.3
		c0.2-2.2,1.5-3.5,3.8-3.7c2.2-0.2,6.3,2.3,6.7,2.6l-0.9,1.1c-1.4-1.1-4.4-2.5-5.7-2.3c-1.2,0.1-2.4,0.5-2.6,2.4
		c0.2,0.6,2.3,1.6,6.3,3l1.1,0.4c1.4,0.6,2.9,0.6,4.3,0.2c0.7-0.4,2-1.2,2-2.7c0-0.2,0-0.4-0.1-0.6c-0.3-1.2-2-3.3-8.6-6.3
		c-1.3-0.6-2.6-1-4-1.2l-0.5-1.2C30.9,61,35,56.5,35,51.6c0-3.3-3-5.6-4.1-6c-0.2,4.2-0.8,6.6-1.5,7.8c-0.5,0.7-1.2,1.3-2,1.7
		l-2.5,2C23,58.6,18,64.1,17.9,64.2z"/>
	<path d="M6.7,32.8C6.7,36,6.7,45.7,6.8,56c0.1,13.6,0.1,28.3,0.1,30.2c1.4,1.1,7.8,4.8,18.4,5.7c8,0.7,16,1.9,23.9,3.4V41.1
		c-7.6-1.6-15.3-2.7-23-3.5C19.4,37.1,12.8,35.5,6.7,32.8z M28.1,52.6c0.3-0.4,1.2-1.8,1.3-7.4l0-0.4c0.1-0.5,0.6-0.9,1.1-0.8
		c0,0,0,0,0,0c1.7,0.1,5.8,3.3,5.8,7.6c0,4.4-2.8,8.3-4.4,10.2c1.1,0.2,2.2,0.6,3.2,1.1c5.8,2.6,8.9,5,9.4,7.3
		c0.1,0.3,0.1,0.6,0.1,0.9c-0.1,1.3-0.7,2.5-1.8,3.2c0.2,0.3,0.3,0.6,0.3,1c0,0.6-0.1,1.1-0.3,1.6c-0.4,1-1.2,1.8-2.2,2.1
		c0,0.1,0.1,0.2,0.1,0.3c-0.1,0.8-0.4,1.6-0.9,2.3c-0.7,0.9-1.7,1.5-2.8,1.6c0,0,0,0-0.1,0c0,0.1,0.1,0.2,0.1,0.3
		c-0.1,0.7-0.4,1.3-0.9,1.8c-1.2,1.4-4.2,1.2-6.6,0.1l0,0c-0.2-0.1-0.4-0.2-0.6-0.3c-0.8,0-4.3,0.1-5.8-0.5
		c-3.5-1.6-6.3-5.7-7.1-6.9c-0.7,0-4.7-0.1-4.8-0.1c-1.3,0.1-1.9,0.1-2.1-0.5c-0.6-2.3-0.9-4.7-0.9-7.1c0.1-2.3,0.6-4.6,1.4-6.7
		l0.2-0.5c0,0,6.6,0.2,7.2,0.3c1-1,5.1-5.5,6.7-7l2.7-2.1C27.1,53.5,27.6,53.1,28.1,52.6z"/>
	<path d="M34.8,79.4c-3.1-1-6.8-2.4-8.4-3.9c-0.6,0.5-1,1.2-0.9,2c0.3,0.8,4.5,2.9,7.6,4c1.1,0.4,2.4,0.5,3.6,0.3l0,0
		c0.7,0,1.4-0.4,1.9-0.9c0.3-0.4,0.5-0.9,0.7-1.5C37.8,79.8,36.2,79.7,34.8,79.4z"/>
	<path d="M41.3,75.3c0,0-0.1,0.1-0.1,0.1l0-0.1c-1.6,0.4-3.3,0.3-4.8-0.3l-1.1-0.4c-3.2-1.1-5.3-2-6.4-2.9c-0.1,0-2.1,0.7-2,2.4
		c0.2,0.7,3.4,2.4,8.3,4c1.4,0.3,2.8,0.3,4.2,0c0.7-0.2,1.8-0.7,2-1.4c0.1-0.4,0.2-0.8,0.2-1.3c0,0,0-0.1,0-0.1
		C41.5,75.2,41.3,75.3,41.3,75.3z"/>
	<path d="M68,30.7C69.9,18.9,63.9,8,54.5,6.5c-9-1.4-17.3,6.8-19.2,19.1c-0.5,2.8-0.5,5.7-0.1,8.6c8,1.1,14.6,2.5,16.5,2.9
		c1.8-0.4,7.9-1.7,15.5-2.8C67.6,33.1,67.8,31.9,68,30.7z M42.7,22.2c0.3-1.7,1.3-3,2.4-2.8c1.1,0.2,1.7,1.7,1.4,3.4
		c-0.3,1.7-1.4,3-2.4,2.8C43.1,25.4,42.5,23.9,42.7,22.2z M51,34.8c-3.6-0.3-5.7-5.5-5.7-5.5c1.5,1.5,3.4,2.6,5.5,3
		c2.1,0.3,4.3,0.2,6.4-0.3C55.7,33.9,53.4,35,51,34.8z M61.1,24.7c-0.3,1.7-1.4,3-2.4,2.8c-1.1-0.2-1.7-1.7-1.4-3.4
		c0.3-1.7,1.3-3,2.4-2.8C60.7,21.5,61.4,23,61.1,24.7z"/>
</g>
</svg>
