<svg xmlns="http://www.w3.org/2000/svg" width="150" height="150" viewBox="0 0 150 150"><rect x="101.0159" y="67.8007" width="9.18894" height="8.81989" transform="translate(-20.12808 95.82782) rotate(-45)" style="fill:none"/><polygon points="101.827 59.102 105.741 63.016 109.655 59.102 101.827 59.102" style="fill:none"/><polygon points="73.787 59.363 81.418 59.363 77.603 56.104 73.787 59.363" style="fill:none"/><polygon points="104.319 98.159 97.081 90.921 95.443 107.035 104.319 98.159" style="fill:none"/><rect x="100.27238" y="83.56249" width="10.66737" height="11.02502" transform="translate(-32.05461 100.75977) rotate(-44.99815)" style="fill:none"/><polygon points="104.066 79.992 98.734 74.66 97.528 86.529 104.066 79.992" style="fill:none"/><polygon points="65.762 113.705 65.762 119.979 78.036 119.979 78.036 113.705 70.762 113.705 65.762 113.705" style="fill:none"/><rect x="28.94092" y="47.51434" width="6.27344" height="6.27393" style="fill:none"/><polygon points="37.214 53.788 42.214 53.788 49.488 53.788 49.488 47.514 37.214 47.514 37.214 53.788" style="fill:none"/><polygon points="51.488 53.788 56.488 53.788 57.762 53.788 57.762 47.514 51.488 47.514 51.488 53.788" style="fill:none"/><polygon points="63.762 113.705 56.488 113.705 51.488 113.705 51.488 119.979 63.762 119.979 63.762 113.705" style="fill:none"/><polygon points="49.488 113.705 42.214 113.705 37.214 113.705 37.214 119.979 49.488 119.979 49.488 113.705" style="fill:none"/><rect x="28.94092" y="113.70526" width="6.27344" height="6.27344" style="fill:none"/><polygon points="114.384 90.921 107.147 98.159 116.022 107.034 114.384 90.921" style="fill:none"/><polygon points="102.019 42.354 109.446 42.354 108.783 35.839 102.682 35.839 102.019 42.354" style="fill:none"/><path d="M116.30078,110.14081,105.73267,99.57269,95.12286,110.183l-.15606,1.535h21.53125l-.15766-1.55085C116.32831,110.15613,116.31244,110.15247,116.30078,110.14081Z" style="fill:none"/><path d="M75.48047,31.218l-2.727,2.6206h4.78381c.02277-.00152.04212-.01318.06531-.01318s.04254.01166.06531.01318h45.296l-15.0791-9.02929Z" style="fill:none"/><polygon points="107.155 64.43 112.203 69.478 111.272 60.313 107.155 64.43" style="fill:none"/><polygon points="106.894 79.992 113.994 87.092 112.684 74.202 106.894 79.992" style="fill:none"/><polygon points="101.412 48.322 110.052 48.322 109.649 44.354 101.816 44.354 101.412 48.322" style="fill:none"/><polygon points="101.209 50.322 100.52 57.102 110.945 57.102 110.256 50.322 101.209 50.322" style="fill:none"/><polygon points="93.86 113.718 91.096 113.718 91.096 121.25 120.369 121.25 120.369 113.718 117.604 113.718 93.86 113.718" style="fill:none"/><polygon points="100.195 60.298 99.26 69.497 104.327 64.43 100.195 60.298" style="fill:none"/><rect x="71.76221" y="88.88397" width="6.27393" height="6.27344" style="fill:none"/><polygon points="65.762 97.157 65.762 103.432 70.762 103.432 78.036 103.432 78.036 97.157 70.762 97.157 65.762 97.157" style="fill:none"/><polygon points="42.214 97.157 37.214 97.157 37.214 103.432 42.214 103.432 49.488 103.432 49.488 97.157 42.214 97.157" style="fill:none"/><polygon points="56.488 97.157 51.488 97.157 51.488 103.432 56.488 103.432 63.762 103.432 63.762 97.157 56.488 97.157" style="fill:none"/><rect x="28.94092" y="97.15741" width="6.27344" height="6.27441" style="fill:none"/><rect x="28.94092" y="80.60956" width="6.27344" height="6.27441" style="fill:none"/><polygon points="41.214 95.157 41.214 88.884 36.214 88.884 28.941 88.884 28.941 95.157 36.214 95.157 41.214 95.157" style="fill:none"/><polygon points="64.762 105.432 57.488 105.432 57.488 111.705 64.762 111.705 69.762 111.705 69.762 105.432 64.762 105.432" style="fill:none"/><polygon points="50.488 105.432 43.214 105.432 43.214 111.705 50.488 111.705 55.488 111.705 55.488 105.432 50.488 105.432" style="fill:none"/><polygon points="28.941 62.062 36.214 62.062 41.214 62.062 41.214 55.788 36.214 55.788 28.941 55.788 28.941 62.062" style="fill:none"/><polygon points="50.488 62.062 55.488 62.062 55.488 55.788 50.488 55.788 43.214 55.788 43.214 62.062 50.488 62.062" style="fill:none"/><polygon points="36.214 105.432 28.941 105.432 28.941 111.705 36.214 111.705 41.214 111.705 41.214 105.432 36.214 105.432" style="fill:none"/><polygon points="57.488 72.336 57.488 78.61 64.762 78.61 69.762 78.61 69.762 72.336 58.762 72.336 57.488 72.336" style="fill:none"/><polygon points="65.762 80.61 65.762 86.884 70.762 86.884 78.036 86.884 78.036 80.61 70.762 80.61 65.762 80.61" style="fill:none"/><rect x="71.76221" y="105.43182" width="6.27393" height="6.27344" style="fill:none"/><polygon points="43.214 72.336 43.214 78.61 50.488 78.61 55.488 78.61 55.488 72.336 50.488 72.336 43.214 72.336" style="fill:none"/><polygon points="42.214 64.063 37.214 64.063 37.214 70.336 42.214 70.336 49.488 70.336 49.488 64.063 42.214 64.063" style="fill:none"/><polygon points="41.214 78.61 41.214 72.336 36.214 72.336 28.941 72.336 28.941 78.61 36.214 78.61 41.214 78.61" style="fill:none"/><polygon points="57.488 55.788 57.488 62.062 58.762 62.062 63.762 62.062 63.762 55.788 58.762 55.788 57.488 55.788" style="fill:none"/><polygon points="51.488 64.063 51.488 70.336 56.488 70.336 57.762 70.336 57.762 64.063 56.488 64.063 51.488 64.063" style="fill:none"/><rect x="28.94092" y="64.06268" width="6.27344" height="6.27344" style="fill:none"/><polygon points="51.488 80.61 51.488 86.884 56.488 86.884 63.762 86.884 63.762 80.61 56.488 80.61 51.488 80.61" style="fill:none"/><polygon points="43.214 88.884 43.214 95.157 50.488 95.157 55.488 95.157 55.488 88.884 50.488 88.884 43.214 88.884" style="fill:none"/><polygon points="37.214 80.61 37.214 86.884 42.214 86.884 49.488 86.884 49.488 80.61 42.214 80.61 37.214 80.61" style="fill:none"/><polygon points="57.488 88.884 57.488 95.157 64.762 95.157 69.762 95.157 69.762 88.884 64.762 88.884 57.488 88.884" style="fill:none"/><path d="M79.03613,78.60956H71.76221V71.33612a.99974.99974,0,0,0-1-1h-11V64.06268h5a1.00047,1.00047,0,0,0,1-1.00049V54.78827a1.00005,1.00005,0,0,0-1-1h-5V46.51434a1.00006,1.00006,0,0,0-1-1H27.94092a1.00005,1.00005,0,0,0-1,1V120.9787a.99974.99974,0,0,0,1,1H79.03613a.99942.99942,0,0,0,1-1V79.60956A.99942.99942,0,0,0,79.03613,78.60956Zm-14.27392,33.0957H57.48828v-6.27344H69.76221v6.27344Zm-14.27393,0H43.21436v-6.27344H55.48828v6.27344Zm-14.27392,0H28.94092v-6.27344H41.21436v6.27344Zm0-55.917h5v6.27392H28.94092V55.78827Zm14.27392,0h5v6.27392H43.21436V55.78827ZM78.03613,88.884v6.27344H71.76221V88.884Zm0,14.54785H65.76221V97.15741H78.03613Zm-21.54785,0h-5V97.15741H63.76221v6.27441Zm-14.27392,0h-5V97.15741H49.48828v6.27441Zm-13.27344,0V97.15741h6.27344v6.27441Zm0-14.54785H41.21436v6.27344H28.94092Zm0-8.27441h6.27344V86.884H28.94092Zm0-8.27344H41.21436v6.27344H28.94092Zm0-8.27344h6.27344v6.27344H28.94092ZM55.48828,95.15741H43.21436V88.884H55.48828Zm-6-8.27344H37.21436V80.60956H49.48828Zm20.27393,8.27344H57.48828V88.884H69.76221Zm-6-8.27344H51.48828V80.60956H63.76221Zm-8.27393-8.27441H43.21436V72.33612H55.48828ZM42.21436,70.33612h-5V64.06268H49.48828v6.27344Zm29.54785,35.0957h6.27392v6.27344H71.76221ZM78.03613,86.884H65.76221V80.60956H78.03613Zm-8.27392-8.27441H57.48828V72.33612H69.76221Zm-12-8.27344H51.48828V64.06268h6.27393Zm6-8.27393H57.48828V55.78827h6.27393Zm-6-8.27392H51.48828V47.51434h6.27393Zm-8.27393,0H37.21436V47.51434H49.48828ZM28.94092,47.51434h6.27344v6.27393H28.94092Zm0,66.19092h6.27344v6.27344H28.94092Zm8.27344,0H49.48828v6.27344H37.21436Zm14.27392,0H63.76221v6.27344H51.48828Zm26.54785,6.27344H65.76221v-6.27344H78.03613Z"/><path d="M127.09375,33.98065,108.582,22.89569a1.00017,1.00017,0,0,0-.708-.123l-33.06884,6.54a1.002,1.002,0,0,0-.499.25977l-4.72949,4.54492a1,1,0,0,0,.69287,1.72119h6.333V54.32745l-6.17578,5.27527a1,1,0,0,0,.64941,1.76026H84.12793a.99974.99974,0,0,0,.64941-1.76026l-6.1748-5.27521V35.83856h22.06872L97.01562,71.79419a.98289.98289,0,0,0-.09643.94842L92.9566,111.718H90.0957a.99942.99942,0,0,0-1,1v9.53222a.99942.99942,0,0,0,1,1h31.27344a.99942.99942,0,0,0,1-1V112.718a.99942.99942,0,0,0-1-1h-2.8609l-5.447-53.57489a.97516.97516,0,0,0-.01758-.173l-.85968-8.45593a.95164.95164,0,0,0,.03864-.19171.98317.98317,0,0,0-.10114-.42285l-.56219-5.5296.00317-.01581c0-.017-.00885-.03119-.0097-.048l-.75922-7.46765h15.7865a.99993.99993,0,0,0,.51367-1.85791ZM73.78662,59.363l3.81592-3.25928L81.418,59.363Zm26.4082.93457,4.13208,4.13208-5.06738,5.067Zm1.63233-1.1958h7.828L105.741,63.01562Zm3.91382,6.74194,6.23657,6.23657-6.49774,6.49738L99.24316,72.341Zm-1.6753,14.148-6.53784,6.53747L98.7345,74.66046ZM97.08124,90.92126l7.23736,7.23737-8.87567,8.876Zm.85528-1.97283,7.54322-7.54273,7.79565,7.79565-7.54279,7.54316Zm16.44709,1.9729,1.63818,16.11236-8.87512-8.87512ZM106.89386,79.9917l5.78986-5.78955,1.31054,12.88995Zm.26123-15.562,4.11652-4.11627.93182,9.16461Zm-6.63531-7.32794.68927-6.7793h9.04675l.68927,6.7793Zm9.53271-8.7793h-8.64014l.40351-3.96826H109.649Zm10.31665,72.92773H91.0957V113.718h29.27344ZM94.9668,111.718l.15606-1.535,10.60981-10.61029,10.56811,10.56812c.01166.01166.02753.01532.03961.0263l.15766,1.55085Zm14.47888-69.36377h-7.42651l.66247-6.51563h6.10156Zm.24084-8.51563H77.66785c-.02277-.00152-.04212-.01318-.06531-.01318s-.04254.01166-.06531.01318H72.75342l2.727-2.6206,32.4043-6.40869,15.0791,9.02929Z"/></svg>
