<svg xmlns="http://www.w3.org/2000/svg" width="150" height="150" viewBox="0 0 150 150"><path d="M82.77124,105.53918l.10968,4.644a107.54052,107.54052,0,0,1,17.97821-3.63111,59.38791,59.38791,0,0,0,15.70715-3.54242l.14618-4.7171a62.52014,62.52014,0,0,1-16.25012,4.0697A119.87248,119.87248,0,0,0,82.77124,105.53918Z" style="fill:none"/><path d="M82.77124,71.44128l.10968,4.64661a107.408,107.408,0,0,1,17.97821-3.63373,59.45093,59.45093,0,0,0,15.70715-3.53979l.14618-4.71973A62.34593,62.34593,0,0,1,100.46234,68.267,119.67284,119.67284,0,0,0,82.77124,71.44128Z" style="fill:none"/><path d="M82.77124,79.96448l.10968,4.6466a107.845,107.845,0,0,1,17.97821-3.63116,59.38654,59.38654,0,0,0,15.70715-3.54236l.14618-4.7171a62.52014,62.52014,0,0,1-16.25012,4.0697A120.44983,120.44983,0,0,0,82.77124,79.96448Z" style="fill:none"/><path d="M84.42889,41.84393c-1.18774-.18792-2.399,1.21912-2.70184,3.14563-.30542,1.92652.415,3.639,1.60022,3.82691,1.18774.19061,2.399-1.22168,2.70441-3.1482C86.33453,43.74438,85.61664,42.0293,84.42889,41.84393Z" style="fill:none"/><path d="M74.41266,54.24622a11.62691,11.62691,0,0,1-6.145-3.38318s2.38074,5.86053,6.45569,6.14764a8.072,8.072,0,0,0,6.842-3.14557A19.507,19.507,0,0,1,74.41266,54.24622Z" style="fill:none"/><path d="M82.77124,114.06219l.10968,4.644a107.83956,107.83956,0,0,1,17.97821-3.63111,59.38511,59.38511,0,0,0,15.70715-3.54242l.14618-4.71447a62.57573,62.57573,0,0,1-16.25012,4.06707A119.883,119.883,0,0,0,82.77124,114.06219Z" style="fill:none"/><path d="M69.71643,43.4364c.3028-1.92395-.41247-3.63635-1.60284-3.82171-1.18775-.188-2.399,1.219-2.70185,3.14556-.30542,1.92395.41248,3.639,1.59766,3.827C68.19971,46.77515,69.41357,45.36548,69.71643,43.4364Z" style="fill:none"/><path d="M82.77124,88.49023l.10968,4.64405a107.84337,107.84337,0,0,1,17.97821-3.63117,59.56787,59.56787,0,0,0,15.70715-3.53979l.14618-4.7171a62.57723,62.57723,0,0,1-16.25012,4.06713A119.88714,119.88714,0,0,0,82.77124,88.49023Z" style="fill:none"/><path d="M36.6236,88.59723c-.67353-.02606-8.10547-.3028-8.10547-.3028l-.21668.50647a24.38671,24.38671,0,0,0-1.61065,7.5755,33.7174,33.7174,0,0,0,.97631,8.02979c.19056.74139.8667.69958,2.32331.59259.05481,0,4.63879.12006,5.37231.1383.86145,1.35224,4.00446,5.96235,7.98017,7.80268,1.6394.757,5.56811.63959,6.50787.59778.24017.11493.483.22973.72052.33679l.00781-.01831c2.647,1.22693,6.06671,1.47754,7.40589-.11481a3.35186,3.35186,0,0,0,.958-2.05444,1.54788,1.54788,0,0,0-.06787-.34461c.06787-.01043.10706-.02087.12274-.0235a4.353,4.353,0,0,0,3.1247-1.74115,5.60641,5.60641,0,0,0,.97632-2.60266c0-.12005-.07569-.201-.09925-.3106a4.05618,4.05618,0,0,0,2.49823-2.34681,7.00743,7.00743,0,0,0,.31849-1.84558,2.1051,2.1051,0,0,0-.295-1.07556,4.67159,4.67159,0,0,0,1.997-3.64679,4.54333,4.54333,0,0,0-.12268-1.0285c-.58215-2.53479-4.03058-5.21308-10.53583-8.1864a17.65927,17.65927,0,0,0-3.56067-1.18775c1.843-2.16668,4.97553-6.52093,4.97553-11.473,0-4.87372-4.67011-8.40832-6.56531-8.53363a1.05765,1.05765,0,0,0-1.21643.8902l-.01831.4046c-.19836,6.35645-1.21905,7.88617-1.50879,8.34564a10.87916,10.87916,0,0,1-1.74383,1.4253L44.1861,80.76849C42.351,82.37915,37.69647,87.4278,36.6236,88.59723Zm20.13971,24.118c-.68134.80927-3.31006.757-5.54206-.27411l.0105-.0235c-.21149-.09655-.42554-.19836-.64221-.30017-.04175-.02612-.09137-.04437-.13574-.07049l-.20624-.12531-.06525.00525c-2.33636-1.12775-4.66748-2.46954-4.952-2.99683a1.78184,1.78184,0,0,1,.84057-1.80383,41.00362,41.00362,0,0,0,8.00885,3.80347,10.14316,10.14316,0,0,0,2.81934.53772l-.00263.0235a.849.849,0,0,1,.44635.18011C57.34277,111.67371,57.3924,111.96606,56.76331,112.71527Zm3.98089-3.95221a3.05749,3.05749,0,0,1-2.12225,1.01807l-.00525-.01569a7.89049,7.89049,0,0,1-4.02271-.34717c-3.49017-1.19036-8.28039-3.5711-8.58581-4.46649a2.47621,2.47621,0,0,1,1.03375-2.25543c1.843,1.60541,5.89966,3.1795,9.43683,4.33594a11.53136,11.53136,0,0,0,4.999.1018A5.30053,5.30053,0,0,1,60.7442,108.76306Zm3.21875-4.88678c-.22455.78052-1.46448,1.33393-2.25024,1.59235a10.93661,10.93661,0,0,1-4.738.04437c-5.5368-1.809-9.16009-3.746-9.34283-4.50043-.08875-1.84033,2.11969-2.63391,2.23718-2.67309,1.23474,1.00506,3.63373,2.01007,7.184,3.28918l1.21124.44379a8.54233,8.54233,0,0,0,5.35669.37848l.03394.07049c.04437-.01306.1018-.05218.14618-.07049,0,0,.25842-.09137.39941-.14356a.40651.40651,0,0,1,.01825.154A5.46194,5.46194,0,0,1,63.963,103.87628ZM48.06787,79.76086A7.5915,7.5915,0,0,0,50.31543,77.837c.78314-1.23737,1.5611-3.96271,1.736-8.70588,1.30524.48291,4.62573,3.015,4.62573,6.7428,0,5.40888-4.56567,10.50183-5.47931,11.46771l.50641,1.34443a15.71514,15.71514,0,0,1,4.49256,1.30261c7.39807,3.38055,9.32721,5.7221,9.64306,7.09259a2.97045,2.97045,0,0,1,.07831.65783c0,1.65766-1.49316,2.63135-2.29455,3.0412a6.72608,6.72608,0,0,1-4.7876-.19842l-1.24-.45423c-4.47955-1.61584-6.86029-2.76446-7.09784-3.41967.20361-2.18494,1.54278-2.54779,2.87933-2.694,1.43054-.16187,4.80585,1.41748,6.41913,2.6261L60.7547,95.361C60.277,95.0033,55.72693,92.14484,53.2,92.42157c-2.66528.29761-4.09845,1.689-4.30462,4.195a1.419,1.419,0,0,0,.04956.37854c-.90845.41241-3.02814,1.6289-2.908,4.11145a1.43213,1.43213,0,0,0,.06262.30023,4.0265,4.0265,0,0,0-1.64716,3.8974,1.90881,1.90881,0,0,0,.42023.75183,3.28939,3.28939,0,0,0-1.17731,3.29956c.17493.73877,1.42536,1.66028,3.00464,2.5661a8.7995,8.7995,0,0,1-2.68616-.43335c-4.12976-1.9082-7.47631-7.48938-7.51287-7.54681L36.279,103.563l-6.30163-.16443s-.509.01825-.89277.03394a32.23011,32.23011,0,0,1-.81182-6.333c0-.21924.00518-.43592.01562-.64215a23.43378,23.43378,0,0,1,1.2948-6.52613c.98938.03913,7.71912.29236,7.71912.29236l.25061-.27148c.05481-.06262,5.71692-6.25208,7.6878-7.97754Z" style="fill:none"/><path d="M56.89642,111.491l.00263-.0235a10.14316,10.14316,0,0,1-2.81934-.53772,41.00362,41.00362,0,0,1-8.00885-3.80347,1.78184,1.78184,0,0,0-.84057,1.80383c.28454.52729,2.61566,1.86908,4.952,2.99683l.06525-.00525.20624.12531c.04437.02612.094.04437.13574.07049.21667.10181.43072.20362.64221.30017l-.0105.0235c2.232,1.03113,4.86072,1.08338,5.54206.27411.62909-.74921.57946-1.04156.57946-1.04419A.849.849,0,0,0,56.89642,111.491Z"/><path d="M103.78143,60.14978a229.30664,229.30664,0,0,0-26.12109,4.08185V125a266.3355,266.3355,0,0,1,27.05646-3.99542c11.56036-.95526,18.65637-5.14588,20.14337-6.3714.01764-3.73145.218-51.786.24969-59.87555A64.77215,64.77215,0,0,1,103.78143,60.14978Zm12.78485,51.38287a59.38511,59.38511,0,0,1-15.70715,3.54242,107.83956,107.83956,0,0,0-17.97821,3.63111l-.10968-4.644a119.883,119.883,0,0,1,17.6911-3.17694,62.57573,62.57573,0,0,0,16.25012-4.06707Zm0-8.523a59.38791,59.38791,0,0,1-15.70715,3.54242,107.54052,107.54052,0,0,0-17.97821,3.63111l-.10968-4.644a119.87248,119.87248,0,0,1,17.6911-3.17694,62.52014,62.52014,0,0,0,16.25012-4.0697Zm0-17.04632a59.56787,59.56787,0,0,1-15.70715,3.53979,107.84337,107.84337,0,0,0-17.97821,3.63117l-.10968-4.64405a119.88714,119.88714,0,0,1,17.6911-3.17688,62.57723,62.57723,0,0,0,16.25012-4.06713Zm0-8.52576a59.38654,59.38654,0,0,1-15.70715,3.54236,107.845,107.845,0,0,0-17.97821,3.63116l-.10968-4.6466a120.44983,120.44983,0,0,1,17.6911-3.17432,62.52014,62.52014,0,0,0,16.25012-4.0697Zm0-8.52319a59.45093,59.45093,0,0,1-15.70715,3.53979,107.408,107.408,0,0,0-17.97821,3.63373l-.10968-4.64661a119.67284,119.67284,0,0,1,17.6911-3.17431,62.34593,62.34593,0,0,0,16.25012-4.07233Z"/><path d="M37.55292,89.95209l-.25061.27148s-6.72974-.25323-7.71912-.29236a23.43378,23.43378,0,0,0-1.2948,6.52613c-.01044.20623-.01562.42291-.01562.64215a32.23011,32.23011,0,0,0,.81182,6.333c.38373-.01569.89277-.03394.89277-.03394l6.30163.16443.22193.37854c.03656.05743,3.38311,5.63861,7.51287,7.54681a8.7995,8.7995,0,0,0,2.68616.43335c-1.57928-.90582-2.82971-1.82733-3.00464-2.5661a3.28939,3.28939,0,0,1,1.17731-3.29956,1.90881,1.90881,0,0,1-.42023-.75183,4.0265,4.0265,0,0,1,1.64716-3.8974,1.43213,1.43213,0,0,1-.06262-.30023c-.12012-2.48255,1.99957-3.699,2.908-4.11145a1.419,1.419,0,0,1-.04956-.37854c.20617-2.50605,1.63934-3.8974,4.30462-4.195,2.52692-.27673,7.077,2.58173,7.55469,2.93939l-.95807,1.27912c-1.61328-1.20862-4.98859-2.788-6.41913-2.6261-1.33655.14618-2.67572.509-2.87933,2.694.23755.65521,2.61829,1.80383,7.09784,3.41967l1.24.45423a6.72608,6.72608,0,0,0,4.7876.19842c.80139-.40985,2.29455-1.38354,2.29455-3.0412a2.97045,2.97045,0,0,0-.07831-.65783c-.31585-1.37049-2.245-3.712-9.64306-7.09259A15.71514,15.71514,0,0,0,51.70422,88.686l-.50641-1.34443c.91364-.96588,5.47931-6.05883,5.47931-11.46771,0-3.72778-3.32049-6.25989-4.62573-6.7428-.17486,4.74317-.95282,7.46851-1.736,8.70588a7.5915,7.5915,0,0,1-2.24756,1.92388l-2.82715,2.21369C43.26984,83.7,37.60773,89.88947,37.55292,89.95209Z"/><path d="M24.89014,54.72217c.01526,3.59436.06213,14.47351.11187,26.00744.066,15.31983.13709,31.79456.14557,33.88764,1.52851,1.229,8.80695,5.43017,20.6203,6.38733a269.18607,269.18607,0,0,1,26.8274,3.83948V64.05981a241.14889,241.14889,0,0,0-25.85657-3.90734A67.04534,67.04534,0,0,1,24.89014,54.72217ZM48.96588,76.98071c.28974-.45947,1.31043-1.98919,1.50879-8.34564l.01831-.4046a1.05765,1.05765,0,0,1,1.21643-.8902c1.8952.12531,6.56531,3.65991,6.56531,8.53363,0,4.952-3.13251,9.30628-4.97553,11.473a17.65927,17.65927,0,0,1,3.56067,1.18775c6.50525,2.97332,9.95368,5.65161,10.53583,8.1864a4.54333,4.54333,0,0,1,.12268,1.0285,4.67159,4.67159,0,0,1-1.997,3.64679,2.1051,2.1051,0,0,1,.295,1.07556,7.00743,7.00743,0,0,1-.31849,1.84558,4.05618,4.05618,0,0,1-2.49823,2.34681c.02356.10961.09925.19055.09925.3106a5.60641,5.60641,0,0,1-.97632,2.60266,4.353,4.353,0,0,1-3.1247,1.74115c-.01568.00263-.05487.01307-.12274.0235a1.54788,1.54788,0,0,1,.06787.34461,3.35186,3.35186,0,0,1-.958,2.05444c-1.33918,1.59235-4.75885,1.34174-7.40589.11481l-.00781.01831c-.23755-.10706-.48035-.22186-.72052-.33679-.93976.04181-4.86847.15924-6.50787-.59778-3.97571-1.84033-7.11872-6.45044-7.98017-7.80268-.73352-.01824-5.3175-.1383-5.37231-.1383-1.45661.107-2.13275.1488-2.32331-.59259a33.7174,33.7174,0,0,1-.97631-8.02979,24.38671,24.38671,0,0,1,1.61065-7.5755l.21668-.50647s7.43194.27674,8.10547.3028c1.07287-1.16943,5.72735-6.21808,7.5625-7.82874L47.22205,78.406A10.87916,10.87916,0,0,0,48.96588,76.98071Z"/><path d="M56.47876,107.03229c-3.53717-1.15644-7.59387-2.73053-9.43683-4.33594a2.47621,2.47621,0,0,0-1.03375,2.25543c.30542.89539,5.09564,3.27613,8.58581,4.46649a7.89049,7.89049,0,0,0,4.02271.34717l.00525.01569a3.05749,3.05749,0,0,0,2.12225-1.01807,5.30053,5.30053,0,0,0,.73358-1.629A11.53136,11.53136,0,0,1,56.47876,107.03229Z"/><path d="M63.80109,102.45093c-.04438.01831-.10181.05743-.14618.07049l-.03394-.07049a8.54233,8.54233,0,0,1-5.35669-.37848l-1.21124-.44379c-3.55023-1.27911-5.94922-2.28412-7.184-3.28918-.11749.03918-2.32593.83276-2.23718,2.67309.18274.75446,3.806,2.69141,9.34283,4.50043a10.93661,10.93661,0,0,0,4.738-.04437c.78576-.25842,2.02569-.81183,2.25024-1.59235a5.46194,5.46194,0,0,0,.2558-1.41492.40651.40651,0,0,0-.01825-.154C64.05951,102.35956,63.80109,102.45093,63.80109,102.45093Z"/><path d="M93.8313,52.39819c2.1073-13.35272-4.70557-25.563-15.18726-27.21893C68.53229,23.58411,59.26044,32.78931,57.077,46.59241a33.07326,33.07326,0,0,0-.11115,9.65814c9.025,1.24707,16.38532,2.80151,18.58411,3.2843,2.05731-.46,8.92376-1.9389,17.39062-3.16553A33.75944,33.75944,0,0,0,93.8313,52.39819ZM65.41174,42.76025c.30286-1.92651,1.5141-3.33355,2.70185-3.14556,1.19037.18536,1.90564,1.89776,1.60284,3.82171-.30286,1.92908-1.51672,3.33875-2.707,3.15082C65.82422,46.39923,65.10632,44.6842,65.41174,42.76025Zm9.31159,14.25043c-4.075-.28711-6.45569-6.14764-6.45569-6.14764a11.62691,11.62691,0,0,0,6.145,3.38318,19.507,19.507,0,0,0,7.15265-.38111A8.072,8.072,0,0,1,74.72333,57.01068ZM86.03168,45.66827c-.30542,1.92652-1.51667,3.33881-2.70441,3.1482-1.18518-.18793-1.90564-1.90039-1.60022-3.82691.3028-1.92651,1.5141-3.33355,2.70184-3.14563C85.61664,42.0293,86.33453,43.74438,86.03168,45.66827Z"/></svg>
