<svg xmlns="http://www.w3.org/2000/svg" width="150" height="150" viewBox="0 0 150 150"><path d="M41.99127,79.96576A33.34458,33.34458,0,0,1,54.86664,48.39758L44.47473,33.77484A51.23691,51.23691,0,0,0,24.33765,83.166Z" style="fill:none"/><path d="M79.66016,76.83807a1.35393,1.35393,0,0,0-1.20313.56055,2.77175,2.77175,0,0,0-.38281,1.57129,3.091,3.091,0,0,0,.38281,1.68066,1.51108,1.51108,0,0,0,2.39258,0,3.00017,3.00017,0,0,0,.39648-1.68066,2.69246,2.69246,0,0,0-.39648-1.57129A1.3586,1.3586,0,0,0,79.66016,76.83807Z" style="fill:none"/><path d="M46.10443,32.615,56.495,47.23584A33.17237,33.17237,0,0,1,74,41.64569V23.70575A51.01006,51.01006,0,0,0,46.10443,32.615Z" style="fill:none"/><path d="M106.37988,75.00018A31.37988,31.37988,0,1,0,75,106.38007,31.41567,31.41567,0,0,0,106.37988,75.00018ZM67.2793,71.631a4.27193,4.27193,0,0,1-.793-1.44824,5.79536,5.79536,0,0,1-.27344-1.81836,5.97369,5.97369,0,0,1,.25977-1.79,4.109,4.109,0,0,1,.77929-1.44824,3.64089,3.64089,0,0,1,1.29785-.96973,4.266,4.266,0,0,1,1.79-.35547,4.17828,4.17828,0,0,1,1.77735.35547,3.686,3.686,0,0,1,1.28418.96973,4.29616,4.29616,0,0,1,.792,1.44824,5.708,5.708,0,0,1,.27344,1.79,5.79536,5.79536,0,0,1-.27344,1.81836,4.28681,4.28681,0,0,1-.792,1.44824,3.70042,3.70042,0,0,1-1.28418.97071,4.63042,4.63042,0,0,1-3.55371,0A3.68229,3.68229,0,0,1,67.2793,71.631Zm4.3457,11.083a1.26136,1.26136,0,0,1-.71094.62891,1.64439,1.64439,0,0,1-.98437.02734,1.29648,1.29648,0,0,1-.751-.66992,1.39213,1.39213,0,0,1-.0957-.99707l.1084-.27344,9.21093-16.97363a1.34374,1.34374,0,0,1,.72461-.58692,1.57486,1.57486,0,0,1,.94336-.01367,1.27583,1.27583,0,0,1,.76563.57324,1.12617,1.12617,0,0,1,.13672.92969A1.96117,1.96117,0,0,0,80.918,65.55a.36854.36854,0,0,1-.082.16406ZM83.51367,80.842a4.24617,4.24617,0,0,1-.793,1.44824,3.67579,3.67579,0,0,1-1.2832.97071,4.19624,4.19624,0,0,1-1.77734.35546,4.27027,4.27027,0,0,1-1.78907-.35546,3.64679,3.64679,0,0,1-1.29882-.97071A4.07673,4.07673,0,0,1,75.793,80.842a6.05921,6.05921,0,0,1-.25977-1.81738,5.69917,5.69917,0,0,1,.27344-1.79,4.2599,4.2599,0,0,1,.793-1.44922,3.66292,3.66292,0,0,1,1.28516-.96973,4.58205,4.58205,0,0,1,3.53906,0,3.63714,3.63714,0,0,1,1.29687.96973,4.2599,4.2599,0,0,1,.793,1.44922,5.72756,5.72756,0,0,1,.27344,1.79A5.81756,5.81756,0,0,1,83.51367,80.842Z" style="fill:none"/><path d="M71.5293,69.99139a3.00153,3.00153,0,0,0,.39648-1.68164,2.69667,2.69667,0,0,0-.39648-1.57129,1.55747,1.55747,0,0,0-2.3916,0,2.76824,2.76824,0,0,0-.38282,1.57129,3.08375,3.08375,0,0,0,.38282,1.68164,1.51161,1.51161,0,0,0,2.3916,0Z" style="fill:none"/><path d="M90.1889,104.70874A33.35021,33.35021,0,0,1,42.34937,81.93439l-17.659,3.20117a51.28282,51.28282,0,0,0,74.14038,35.29437Z" style="fill:none"/><path d="M76,23.70575V41.64569A33.36213,33.36213,0,0,1,91.94037,103.745l8.63928,15.71655A51.29129,51.29129,0,0,0,76,23.70575Z" style="fill:none"/><path d="M75,21.68036A53.00764,53.00764,0,0,0,44.26636,31.47a.42747.42747,0,0,0-.27094.19275A53.14659,53.14659,0,0,0,22.53552,84.446c.00244.02179-.00525.04206-.00134.06391.00433.02386.01862.04254.02454.06567a53.28356,53.28356,0,0,0,78.02691,37.18891.97727.97727,0,0,0,.098-.03876c.02619-.01434.04126-.03906.06562-.05536A53.30739,53.30739,0,0,0,75,21.68036Zm0,84.69971a31.37989,31.37989,0,1,1,31.37988-31.37989A31.41567,31.41567,0,0,1,75,106.38007ZM56.495,47.23584,46.10443,32.615A51.01006,51.01006,0,0,1,74,23.70575V41.64569A33.17237,33.17237,0,0,0,56.495,47.23584Zm-12.02027-13.461L54.86664,48.39758A33.34458,33.34458,0,0,0,41.99127,79.96576L24.33765,83.166A51.23691,51.23691,0,0,1,44.47473,33.77484ZM24.69037,85.13556l17.659-3.20117A33.35021,33.35021,0,0,0,90.1889,104.70874l8.64185,15.72119A51.28282,51.28282,0,0,1,24.69037,85.13556Zm75.88928,34.326L91.94037,103.745A33.36213,33.36213,0,0,0,76,41.64569V23.70575a51.29129,51.29129,0,0,1,24.57965,95.7558Z"/><path d="M80.918,65.55a1.96117,1.96117,0,0,1,.05469-.19141,1.12617,1.12617,0,0,0-.13672-.92969,1.27583,1.27583,0,0,0-.76563-.57324,1.57486,1.57486,0,0,0-.94336.01367,1.34374,1.34374,0,0,0-.72461.58692L69.19141,81.42987l-.1084.27344a1.39213,1.39213,0,0,0,.0957.99707,1.29648,1.29648,0,0,0,.751.66992,1.64439,1.64439,0,0,0,.98437-.02734,1.26136,1.26136,0,0,0,.71094-.62891l9.21094-17A.36854.36854,0,0,0,80.918,65.55Z"/><path d="M82.7207,75.78534a3.63714,3.63714,0,0,0-1.29687-.96973,4.58205,4.58205,0,0,0-3.53906,0,3.66292,3.66292,0,0,0-1.28516.96973,4.2599,4.2599,0,0,0-.793,1.44922,5.69917,5.69917,0,0,0-.27344,1.79A6.05921,6.05921,0,0,0,75.793,80.842a4.07673,4.07673,0,0,0,.7793,1.44824,3.64679,3.64679,0,0,0,1.29882.97071,4.27027,4.27027,0,0,0,1.78907.35546,4.19624,4.19624,0,0,0,1.77734-.35546,3.67579,3.67579,0,0,0,1.2832-.97071,4.24617,4.24617,0,0,0,.793-1.44824,5.81756,5.81756,0,0,0,.27344-1.81738,5.72756,5.72756,0,0,0-.27344-1.79A4.2599,4.2599,0,0,0,82.7207,75.78534Zm-1.87109,4.86523a1.51108,1.51108,0,0,1-2.39258,0,3.091,3.091,0,0,1-.38281-1.68066,2.77175,2.77175,0,0,1,.38281-1.57129,1.55677,1.55677,0,0,1,2.39258,0,2.69246,2.69246,0,0,1,.39648,1.57129A3.00017,3.00017,0,0,1,80.84961,80.65057Z"/><path d="M72.11719,72.60175a3.70042,3.70042,0,0,0,1.28418-.97071,4.28681,4.28681,0,0,0,.792-1.44824,5.79536,5.79536,0,0,0,.27344-1.81836,5.708,5.708,0,0,0-.27344-1.79,4.29616,4.29616,0,0,0-.792-1.44824,3.686,3.686,0,0,0-1.28418-.96973,4.17828,4.17828,0,0,0-1.77735-.35547,4.266,4.266,0,0,0-1.79.35547,3.64089,3.64089,0,0,0-1.29785.96973,4.109,4.109,0,0,0-.77929,1.44824,5.97369,5.97369,0,0,0-.25977,1.79,5.79536,5.79536,0,0,0,.27344,1.81836,4.27193,4.27193,0,0,0,.793,1.44824,3.68229,3.68229,0,0,0,1.28418.97071,4.63042,4.63042,0,0,0,3.55371,0ZM69.1377,69.99139a3.08375,3.08375,0,0,1-.38282-1.68164,2.76824,2.76824,0,0,1,.38282-1.57129,1.55747,1.55747,0,0,1,2.3916,0,2.69667,2.69667,0,0,1,.39648,1.57129,3.00153,3.00153,0,0,1-.39648,1.68164,1.51161,1.51161,0,0,1-2.3916,0Z"/></svg>
