<svg xmlns="http://www.w3.org/2000/svg" width="150" height="150" viewBox="0 0 150 150">
    <path style="fill:none" d="M127.77051,79.10565l-.26465-.125a13.517,13.517,0,0,1-6.8916-7.73437l-.09278-.2666-.27734-.05762a13.57673,13.57673,0,0,1-9.416-7.39942,12.94392,12.94392,0,0,1-.50976-10.58447l.22754-.56787-.60156-.10937a13.6446,13.6446,0,0,1-9.07813-6.39209l-.10059-.168-.18847-.05469A36.94578,36.94578,0,0,0,90.25,44.16473a37.67655,37.67655,0,1,0-.10059,75.353A37.73427,37.73427,0,0,0,127.791,79.39764Zm-67.44043.50189a1.72629,1.72629,0,0,1-2.44135-2.44134,2.09064,2.09064,0,0,1,2.44135,0A1.68571,1.68571,0,0,1,60.33008,79.60754ZM69.921,55.89172a1.7263,1.7263,0,1,1,0,2.44135A1.68573,1.68573,0,0,1,69.921,55.89172Zm2.44135,41.67707a3.8364,3.8364,0,1,1,3.83636-3.83637A3.87043,3.87043,0,0,1,72.36237,97.56879Zm7.67273,13.25293a1.72627,1.72627,0,1,1,0-2.44135A1.68556,1.68556,0,0,1,80.0351,110.82172ZM91.54425,83.09515a1.72629,1.72629,0,1,1,0-2.44134A1.68571,1.68571,0,0,1,91.54425,83.09515Zm4.53394-22.14636a3.87048,3.87048,0,0,1-3.83643-3.83636,3.81475,3.81475,0,0,1,2.267-3.48761c2.44134-1.04633,5.23144.17437,5.40582,3.13885A3.85544,3.85544,0,0,1,96.07819,60.94879Zm6.80084,49.87293a1.7263,1.7263,0,1,1,0-2.44135A1.68563,1.68563,0,0,1,102.879,110.82172Zm5.40582-33.8299a1.72629,1.72629,0,1,1,0-2.44134A1.6829,1.6829,0,0,1,108.28485,76.99182Zm4.70825,22.3208a3.8364,3.8364,0,1,1,3.83637-3.83642A3.87043,3.87043,0,0,1,112.9931,99.31262Z"/>
    <path style="fill:none" d="M50.19238,81.87421A39.99936,39.99936,0,0,1,83.95117,42.26044l1.06641-.17285-.82227-.70118a37.57026,37.57026,0,1,0-25.62988,66.273l1.10059.04492-.69043-.85839A39.95263,39.95263,0,0,1,50.19238,81.87421ZM31.38281,75.24805a1.72627,1.72627,0,1,1,0-2.44135A1.68564,1.68564,0,0,1,31.38281,75.24805Zm11.33478,19.705a1.72629,1.72629,0,1,1,0-2.44134A1.68571,1.68571,0,0,1,42.71759,94.95306Zm0-31.21417a3.93711,3.93711,0,0,1-5.23144-1.39508,3.61031,3.61031,0,0,1,1.39508-5.23138,3.82843,3.82843,0,1,1,3.83636,6.62646Zm5.75458-21.27447a1.72647,1.72647,0,1,1-2.44135-2.44135,1.68573,1.68573,0,0,1,2.44135,0,1.68573,1.68573,0,0,1,0,2.44135Z"/>
    <path style="fill:#ffffff" d="M72.36237,58.33307a1.7263,1.7263,0,1,0-2.44135,0A1.68573,1.68573,0,0,0,72.36237,58.33307Z"/>
    <path style="fill:#ffffff" d="M89.10291,80.65381a1.72629,1.72629,0,1,0,2.44134,0A1.68571,1.68571,0,0,0,89.10291,80.65381Z"/>
    <path style="fill:#ffffff" d="M57.88873,77.1662a1.72629,1.72629,0,1,0,2.44135,0A2.09064,2.09064,0,0,0,57.88873,77.1662Z"/>
    <path style="fill:#ffffff" d="M108.28485,74.55048a1.72629,1.72629,0,1,0,0,2.44134A1.68571,1.68571,0,0,0,108.28485,74.55048Z"/>
    <circle style="fill:#ffffff" cx="101.65836" cy="109.60104" r="1.72629"/>
    <path style="fill:#ffffff" d="M77.59381,108.38037a1.72627,1.72627,0,1,0,2.44129,0A1.68563,1.68563,0,0,0,77.59381,108.38037Z"/>
    <path style="fill:#ffffff" d="M72.36237,89.896a3.8364,3.8364,0,1,0,3.83636,3.83642A3.87044,3.87044,0,0,0,72.36237,89.896Z"/>
    <path style="fill:#ffffff" d="M112.9931,91.63983a3.8364,3.8364,0,1,0,3.83637,3.83637A3.87042,3.87042,0,0,0,112.9931,91.63983Z"/>
    <path style="fill:#ffffff" d="M94.50873,53.62482a3.81475,3.81475,0,0,0-2.267,3.48761,3.844,3.844,0,1,0,7.67279-.34876C99.74017,53.79919,96.95007,52.57849,94.50873,53.62482Z"/>
    <path style="fill:#ffffff" d="M38.88123,57.11243a3.61031,3.61031,0,0,0-1.39508,5.23138,3.93711,3.93711,0,0,0,5.23144,1.39508,3.82843,3.82843,0,1,0-3.83636-6.62646Z"/>
    <path style="fill:#ffffff" d="M46.03082,40.02307a1.744,1.744,0,1,0,2.44135,0A1.68573,1.68573,0,0,0,46.03082,40.02307Z"/>
    <path style="fill:#ffffff" d="M40.27625,92.51172a1.72629,1.72629,0,1,0,2.44134,0A1.68571,1.68571,0,0,0,40.27625,92.51172Z"/>
    <path style="fill:#ffffff" d="M28.94153,72.8067a1.72627,1.72627,0,1,0,2.44128,0A1.68563,1.68563,0,0,0,28.94153,72.8067Z"/>
    <path style="fill:#ffffff" d="M129.55176,77.28339a10.4597,10.4597,0,0,1-6.58106-7.49414,1.05085,1.05085,0,0,0-1.13183-.84375,10.51816,10.51816,0,0,1-8.60059-6.21338,10.96945,10.96945,0,0,1,.541-10.57618,1.21181,1.21181,0,0,0,.0205-1.23584,1.30988,1.30988,0,0,0-1.15527-.63183,11.20807,11.20807,0,0,1-9.86426-6.03076c-.72168-1.44385-8.21191-2.36524-13.05175-2.36524-.42872,0-.80762.00879-1.12207.02539l-.22266.01172-.15723-.15771A39.55764,39.55764,0,0,0,60.05762,30.1413a40.59561,40.59561,0,0,0-20.2295,5.43261,39.48772,39.48772,0,0,0-18.5996,24.45752,40.08884,40.08884,0,0,0,3.957,30.4795,40.57521,40.57521,0,0,0,34.668,19.67871h.001q.92139,0,1.84863-.041l.21973-.01074.15625.15625a39.68548,39.68548,0,0,0,28.24414,11.71094,40.163,40.163,0,0,0,39.957-43.793A1.03083,1.03083,0,0,0,129.55176,77.28339Zm-70.98633,30.376a37.64573,37.64573,0,1,1,25.62988-66.273l.82227.70118-1.06641.17285a40.054,40.054,0,0,0-24.97558,64.58545l.69043.85839Zm59.50488-.51172A37.65951,37.65951,0,0,1,52.50586,81.8703,37.95793,37.95793,0,0,1,90.25,44.16473a36.94578,36.94578,0,0,1,10.32715,1.48145l.18847.05469.10059.168a13.6446,13.6446,0,0,0,9.07813,6.39209l.60156.10937-.22754.56787a12.94392,12.94392,0,0,0,.50976,10.58447,13.57673,13.57673,0,0,0,9.416,7.39942l.27734.05762.09278.2666a13.517,13.517,0,0,0,6.8916,7.73437l.26465.125.02051.292A37.63159,37.63159,0,0,1,118.07031,107.14764Z"/>
</svg>
