<svg xmlns="http://www.w3.org/2000/svg" viewBox="0 0 228.21 39.83"><defs><style>.cls-1{fill:#fff;}</style></defs><title>logo-chateau-de-chateaubriant-blanc</title><g id="Calque_2" data-name="Calque 2"><g id="Calque_1-2" data-name="Calque 1"><path class="cls-1" d="M50.15,8.19c0-4.63,3-8.09,7.6-8.09A7.08,7.08,0,0,1,62,1.31,6,6,0,0,1,64.4,5.6H60.85a3,3,0,0,0-3.12-2.54c-2.65,0-4,2.19-4,5.13s1.54,5.1,4,5.1A3.06,3.06,0,0,0,61,10.46h3.56a6.26,6.26,0,0,1-1.87,4,6.68,6.68,0,0,1-4.92,1.75c-4.52,0-7.6-3.42-7.6-8"/><path class="cls-1" d="M69,6.37h.06a3.63,3.63,0,0,1,3.34-1.89c2.43,0,3.85,1.62,3.85,4.1v7.29H73V9.21a1.79,1.79,0,0,0-1.85-2A2.19,2.19,0,0,0,69,9.62v6.25H65.77V.37H69V4.65c0,.1,0,1,0,1.72"/><path class="cls-1" d="M84.73,11.89V10.46a6.77,6.77,0,0,1-1.92.62c-1.44.31-2.13.67-2.13,1.63S81.41,14,82.31,14a2.19,2.19,0,0,0,2.42-2.13M81.33,0h3.19l2.27,3.08H84L83,1.46h0l-1,1.62H79.08Zm3.35,14.52h0a3.68,3.68,0,0,1-3.35,1.65c-2.19,0-3.79-1.17-3.79-3.36,0-2.46,1.93-3.08,4.35-3.37,2-.27,2.79-.59,2.79-1.42S84.12,6.69,83,6.69s-1.86.58-1.94,1.45H78c.08-1.89,1.62-3.66,4.91-3.66a6.09,6.09,0,0,1,3.19.67,3.53,3.53,0,0,1,1.69,3.31v5.68c0,.88.12,1.36.42,1.55v.18H85.06a3.27,3.27,0,0,1-.38-1.35"/><path class="cls-1" d="M89,4.79h1.67V1.25h3.21V4.79H96V6.87H93.87v5.5c0,.84.46,1.07,1.23,1.07.21,0,.54,0,.75,0H96v2.43a10.15,10.15,0,0,1-1.9.17c-2.06,0-3.46-.67-3.46-2.92V6.87H89Z"/><path class="cls-1" d="M100.06,9.27h4.73c-.11-1.54-1-2.48-2.28-2.48-1.5,0-2.25,1-2.45,2.48m-3.23,1.08a5.58,5.58,0,0,1,5.68-5.87,5.43,5.43,0,0,1,3.82,1.42,7,7,0,0,1,1.79,5.27H100c.2,1.66,1.1,2.66,2.68,2.66a2.05,2.05,0,0,0,2-1.08h3.17c-.56,2-2.37,3.46-5.23,3.46a5.58,5.58,0,0,1-5.85-5.86"/><path class="cls-1" d="M116.14,11.89V10.46a6.77,6.77,0,0,1-1.92.62c-1.44.31-2.12.67-2.12,1.63s.72,1.31,1.62,1.31a2.19,2.19,0,0,0,2.42-2.13m0,2.63h0a3.68,3.68,0,0,1-3.35,1.65c-2.19,0-3.79-1.17-3.79-3.36,0-2.46,1.94-3.08,4.35-3.37,2-.27,2.79-.59,2.79-1.42s-.52-1.33-1.64-1.33-1.86.58-1.94,1.45h-3c.08-1.89,1.62-3.66,4.92-3.66a6.07,6.07,0,0,1,3.18.67,3.53,3.53,0,0,1,1.69,3.31v5.68c0,.88.13,1.36.42,1.55v.18h-3.19a3.15,3.15,0,0,1-.37-1.35"/><path class="cls-1" d="M128.26,15.87V14.29h-.06a3.61,3.61,0,0,1-3.34,1.9c-2.52,0-3.89-1.63-3.89-4.07V4.79h3.27V11.5c0,1.23.6,1.94,1.77,1.94a2.15,2.15,0,0,0,2.13-2.38V4.79h3.22V15.87Z"/><path class="cls-1" d="M58.74,33.93c0-2.55-1.45-4.52-3.31-4.52a2.29,2.29,0,0,0-1.71.73c-.76.79-1,1.91-1,4.26s.4,3.62,1.4,4.29a2.14,2.14,0,0,0,1.27.4c2-.07,3.4-2.11,3.4-5.16M56.22,23.24A35.91,35.91,0,0,0,60,23.07l.27,0h.33V37.43c0,1,.5,1.52,1.38,1.52h.74v.36H60.76a7.25,7.25,0,0,0-1.76.21h-.24V36.64c-.35.79-1.31,2.88-3.61,2.88s-4.58-2.5-4.58-5.28S52.65,29,55.19,29c1.55,0,2.62.76,3.55,2.57V25.05a1.34,1.34,0,0,0-1.43-1.45H56.22Z"/><path class="cls-1" d="M70.17,33.38c.52,0,.69-.19.69-.81,0-2-1-3.26-2.55-3.26a2.23,2.23,0,0,0-2,1.57,6.25,6.25,0,0,0-.43,2.5ZM73,35.45a5.64,5.64,0,0,1-.66,1.81,4.39,4.39,0,0,1-3.81,2.26c-2.72,0-4.79-2.38-4.79-5.4,0-2.86,2-5.17,4.53-5.17s4.38,2.05,4.64,4.88h-7.1c0,1.6,0,5.22,3,5.22,1.88,0,3.35-1.38,3.85-3.6Z"/><path class="cls-1" d="M92.54,33.43a6.92,6.92,0,0,1-.64,2.83,6,6,0,0,1-5.14,3.57c-3.86,0-7.17-3.83-7.17-8.28,0-5.52,3.91-8.6,6.67-8.6a5.05,5.05,0,0,1,4.36,2.72A7.85,7.85,0,0,0,92,23h.36l.14,7.26h-.35a12.55,12.55,0,0,0-2.81-5.59,4.11,4.11,0,0,0-2.88-1.31c-2.88,0-4.36,2.93-4.36,8.67,0,3.16.52,5,1.86,6.3a3.75,3.75,0,0,0,2.71,1.15,5.62,5.62,0,0,0,5-3.43,7.34,7.34,0,0,0,.57-2.57Z"/><path class="cls-1" d="M104.54,37.78c0,.86.26,1.17.95,1.17h.79v.36H101V39h.83c.71,0,1-.31,1-1.17V32.36c0-1.74-.69-2.79-1.83-2.79-1.69,0-3.07,2.55-3.07,5.67v2.54c0,.86.26,1.17,1,1.17h.77v.36H94.33V39h.83c.72,0,1-.31,1-1.17V25a1.26,1.26,0,0,0-1.29-1.34H94.5v-.38A21.3,21.3,0,0,0,97.31,23h.61v9.16C98.85,30,99.85,29,101.31,29a3,3,0,0,1,2.07.86,4.68,4.68,0,0,1,1.16,3.43Z"/><path class="cls-1" d="M114.26,33.64a11.81,11.81,0,0,1-1.41.5c-1.07.31-2.9.84-2.9,2.81,0,1.19.66,2,1.59,2,1.45,0,2.72-1.6,2.72-3.43ZM112,23.86h1.81l2.45,3.45h-.5l-2.88-2.26L110,27.31h-.47ZM118.61,35c0,3-.76,4.54-2.26,4.54-1,0-1.62-.76-1.93-2.47-.78,1.76-1.76,2.47-3.35,2.47a2.85,2.85,0,0,1-3-2.62,2.31,2.31,0,0,1,.74-1.66A5.77,5.77,0,0,1,112,33.91a12.56,12.56,0,0,0,2.31-.72V31.48c0-1.29-.81-2-2.31-2-1,0-2.15.55-2.15,1.05,0,.16.1.26.41.42.55.29.74.57.74,1.05a1,1,0,0,1-1,1,1.31,1.31,0,0,1-1.19-1.36c0-1.5,1.59-2.66,3.66-2.66,2.41,0,3.62,1.09,3.62,3.23v4.55c0,1.17.33,1.9.86,1.9.81,0,1.19-.92,1.33-3.23l0-.48Z"/><path class="cls-1" d="M119.45,29.57c2.4-.83,3.11-2.69,3.45-4.9h.47v4.66h3.31V30h-3.33v7.14c0,1,.57,1.67,1.4,1.67,1.62,0,2.41-1.57,2.43-4.93h.34c0,2.57-.34,3.86-1.22,4.74a2.88,2.88,0,0,1-2.07.83,2.51,2.51,0,0,1-2.69-2.83V30h-2.09Z"/><path class="cls-1" d="M135.68,33.38c.52,0,.69-.19.69-.81,0-2-1-3.26-2.55-3.26a2.21,2.21,0,0,0-2,1.57,6.25,6.25,0,0,0-.43,2.5Zm2.86,2.07a5.87,5.87,0,0,1-.67,1.81,4.39,4.39,0,0,1-3.81,2.26c-2.71,0-4.78-2.38-4.78-5.4,0-2.86,2-5.17,4.52-5.17s4.38,2.05,4.64,4.88h-7.09c0,1.6,0,5.22,3,5.22,1.88,0,3.36-1.38,3.86-3.6Z"/><path class="cls-1" d="M146.49,33.64a11.21,11.21,0,0,1-1.41.5c-1.07.31-2.9.84-2.9,2.81,0,1.19.67,2,1.59,2,1.46,0,2.72-1.6,2.72-3.43ZM150.84,35c0,3-.76,4.54-2.26,4.54-1,0-1.62-.76-1.93-2.47-.78,1.76-1.76,2.47-3.35,2.47a2.85,2.85,0,0,1-3-2.62,2.31,2.31,0,0,1,.74-1.66,5.81,5.81,0,0,1,3.12-1.33,12.56,12.56,0,0,0,2.31-.72V31.48c0-1.29-.81-2-2.31-2-1,0-2.14.55-2.14,1.05,0,.16.09.26.4.42.55.29.74.57.74,1.05a1,1,0,0,1-1,1A1.32,1.32,0,0,1,141,31.69c0-1.5,1.59-2.66,3.67-2.66,2.4,0,3.61,1.09,3.61,3.23v4.55c0,1.17.34,1.9.86,1.9.81,0,1.19-.92,1.33-3.23l0-.48Z"/><path class="cls-1" d="M151.68,29.33a15.14,15.14,0,0,0,2.62-.16,4.8,4.8,0,0,1,.64-.1h.55V36.9c0,1.27.54,2,1.52,2,1.74,0,3.21-2.31,3.21-5V30.83c0-.81-.38-1.14-1.28-1.14h-1.21v-.36h1.42a11.46,11.46,0,0,0,2-.23,1,1,0,0,1,.23,0H162v8.6c0,.92.36,1.28,1.29,1.28h.47v.36h-2.42s-.26,0-.53,0l-.62.05v-2.9c-.92,2-2.16,3-3.69,3a2.89,2.89,0,0,1-2.83-3.07V30.64a1,1,0,0,0-1-.95h-1Z"/><path class="cls-1" d="M168.94,34.38c0,2,.31,3.14,1.07,3.93a2.5,2.5,0,0,0,1.78.81c2.53,0,2.69-2.91,2.69-5.29,0-4.14-1.54-4.52-2.57-4.52-1.81.05-3,2.05-3,5.07M167.18,25a1.25,1.25,0,0,0-1.41-1.33h-.62v-.39a30.46,30.46,0,0,0,3.31-.26H169v8.48c.72-1.72,1.77-2.6,3.1-2.6,2.31,0,4.52,2.5,4.52,5.1,0,2.88-2.26,5.54-4.69,5.54-1.5,0-2.73-1-3.59-2.73a7.53,7.53,0,0,0-.81,2.64h-.33Z"/><path class="cls-1" d="M180.91,30.76a1,1,0,0,0-1.19-1.07H179v-.36c.9,0,1.73,0,2.07-.07l1.28-.16h.31v2.71c.6-1.36,1.22-2.81,2.76-2.81a1.81,1.81,0,0,1,1.93,1.88,1.17,1.17,0,0,1-1,1.29,1,1,0,0,1-1-1.07,1.26,1.26,0,0,1,.54-1c.19-.17.27-.27.27-.36s-.24-.36-.67-.36a2.11,2.11,0,0,0-1.36.55c-1.35,1.33-1.4,3.31-1.45,4.86v3c0,.86.24,1.17.95,1.17h.76v.36h-5.3V39H180c.71,0,.95-.31.95-1.17Z"/><path class="cls-1" d="M189.43,24.6a1.17,1.17,0,1,1,1.17,1.16,1.17,1.17,0,0,1-1.17-1.16m2.1,4.5c0,1.64,0,3.26,0,4.88,0,4,0,4.16.11,4.52.08.17.17.45.86.45h.76v.36H188V39h.84c.71,0,1-.31,1-1.16v-7a1,1,0,0,0-1.19-1.07h-.72v-.36c.91,0,1.74,0,2.07-.07l1.29-.16Z"/><path class="cls-1" d="M201.55,33.64a11.6,11.6,0,0,1-1.4.5c-1.07.31-2.91.84-2.91,2.81,0,1.19.67,2,1.6,2,1.45,0,2.71-1.6,2.71-3.43ZM205.91,35c0,3-.76,4.54-2.26,4.54-1,0-1.62-.76-1.93-2.47-.79,1.76-1.76,2.47-3.36,2.47a2.84,2.84,0,0,1-3-2.62,2.34,2.34,0,0,1,.73-1.66,5.81,5.81,0,0,1,3.12-1.33,12.56,12.56,0,0,0,2.31-.72V31.48c0-1.29-.81-2-2.31-2-1,0-2.14.55-2.14,1.05,0,.16.1.26.4.42.55.29.74.57.74,1.05a1,1,0,0,1-1,1,1.32,1.32,0,0,1-1.19-1.36c0-1.5,1.6-2.66,3.67-2.66,2.4,0,3.62,1.09,3.62,3.23v4.55c0,1.17.33,1.9.85,1.9.81,0,1.19-.92,1.34-3.23l0-.48Z"/><path class="cls-1" d="M210.69,32.07A4.12,4.12,0,0,1,214.34,29a3.34,3.34,0,0,1,2.14.81,4.63,4.63,0,0,1,1.07,3.24v4.72c0,.85.26,1.16.95,1.16h.79v.36H214V39h.84c.71,0,1-.31,1-1.16V32.48c0-2-.55-2.86-1.76-2.86-1.93,0-3.31,2.12-3.31,5.09v3.08c0,.85.24,1.16,1,1.16h.76v.36h-5.3V39h.83c.71,0,1-.31,1-1.16v-7c0-.67-.43-1-1.21-1H207v-.36h.81c.17,0,1.43-.09,1.69-.11l.72-.12h.47Z"/><path class="cls-1" d="M220.14,29.57c2.41-.83,3.12-2.69,3.46-4.9h.47v4.66h3.31V30h-3.33v7.14c0,1,.57,1.67,1.4,1.67,1.62,0,2.41-1.57,2.43-4.93h.33c0,2.57-.33,3.86-1.21,4.74a2.89,2.89,0,0,1-2.07.83,2.51,2.51,0,0,1-2.69-2.83V30h-2.1Z"/><path class="cls-1" d="M27.9,39.37H22.32V19.65a2.66,2.66,0,0,0-2.75-3,2.69,2.69,0,0,0-2.83,3V39.37H11.16V19.58a8.41,8.41,0,0,1,8.41-8.4,8.26,8.26,0,0,1,5.93,2.48,8.39,8.39,0,0,1,2.4,5.92Z"/><path class="cls-1" d="M19.16.31C8,.31,0,9.05,0,19.8V39.38H5.6V19.66c0-7,5.2-14.14,13.56-14.14A14.49,14.49,0,0,1,33.48,19.66V39.38h5.59V19.8A19.61,19.61,0,0,0,19.16.31"/></g></g></svg>