<svg xmlns="http://www.w3.org/2000/svg" viewBox="0 0 253.83 44.75"><defs><style>.cls-1{fill:#fff;}</style></defs><title>logo-grand-patrimoine-blanc</title><g id="Calque_2" data-name="Calque 2"><g id="Calque_1-2" data-name="Calque 1"><path class="cls-1" d="M62,13.69H62a4.75,4.75,0,0,1-4.46,2.43A7,7,0,0,1,52.25,14a8.47,8.47,0,0,1-2.06-5.88,8.21,8.21,0,0,1,2.69-6.41A7.24,7.24,0,0,1,57.77,0C61.69,0,64,2.08,64.54,5H61a3,3,0,0,0-3.12-2.1c-2.75,0-4.09,2.23-4.09,5.14s1.59,5.15,4.13,5.15a3.24,3.24,0,0,0,3.52-3v-.07H58.31V7.48h6.48v8.29H62.34Z"/><path class="cls-1" d="M69.65,6.67h.06A3.17,3.17,0,0,1,72.79,4.5a2,2,0,0,1,.69.08V7.44H73.4a4,4,0,0,0-.69-.07c-1.77,0-2.94,1.09-2.94,3.25v5.15H66.5V4.69h3.15Z"/><path class="cls-1" d="M81.42,11.79V10.35A7.09,7.09,0,0,1,79.5,11c-1.44.31-2.13.66-2.13,1.62s.73,1.32,1.63,1.32a2.19,2.19,0,0,0,2.42-2.13m0,2.63h0A3.67,3.67,0,0,1,78,16.06c-2.19,0-3.79-1.17-3.79-3.35,0-2.46,1.93-3.09,4.35-3.38,2-.27,2.79-.58,2.79-1.41s-.52-1.34-1.64-1.34S77.83,7.17,77.75,8h-3c.08-1.89,1.62-3.66,4.91-3.66A6.09,6.09,0,0,1,82.83,5a3.54,3.54,0,0,1,1.69,3.31V14c0,.88.12,1.35.42,1.54v.19H81.75a3.27,3.27,0,0,1-.38-1.35"/><path class="cls-1" d="M89.5,6.37h.06a3.6,3.6,0,0,1,3.42-2c2.43,0,3.85,1.63,3.85,4.11v7.29H93.58V9.1a1.79,1.79,0,0,0-1.85-2A2.19,2.19,0,0,0,89.6,9.52v6.25H86.33V4.69H89.5Z"/><path class="cls-1" d="M106.14,10.23c0-2-.81-3.38-2.5-3.38s-2.31,1.38-2.31,3.36.77,3.29,2.29,3.29,2.52-1.33,2.52-3.27m-8.15,0c0-3.4,1.92-5.86,4.8-5.86a3.71,3.71,0,0,1,3.29,1.86h0c0-.69-.08-1.63-.08-2.56V.27h3.27v15.5h-3.15V14.15h0a3.5,3.5,0,0,1-3.38,2c-2.87,0-4.75-2.23-4.75-5.89"/><path class="cls-1" d="M119.53,7.58h3a2.06,2.06,0,0,0,2.32-2.16,2,2,0,0,0-2.29-2.13h-3ZM115.93.27h6.89A5.62,5.62,0,0,1,127,1.71a5.09,5.09,0,0,1,1.48,3.71c0,2.93-2,5-5.21,5h-3.71v5.38h-3.6Z"/><path class="cls-1" d="M136.36,11.79V10.35a6.9,6.9,0,0,1-1.91.63c-1.44.31-2.13.66-2.13,1.62s.73,1.32,1.63,1.32a2.19,2.19,0,0,0,2.41-2.13m0,2.63h0a3.67,3.67,0,0,1-3.35,1.64c-2.19,0-3.79-1.17-3.79-3.35,0-2.46,1.93-3.09,4.35-3.38,2-.27,2.79-.58,2.79-1.41s-.52-1.34-1.64-1.34-1.86.59-1.94,1.46h-3c.08-1.89,1.62-3.66,4.91-3.66a6.09,6.09,0,0,1,3.19.66,3.54,3.54,0,0,1,1.69,3.31V14c0,.88.12,1.35.41,1.54v.19H136.7a3.27,3.27,0,0,1-.38-1.35"/><path class="cls-1" d="M140.63,4.69h1.67V1.15h3.21V4.69h2.17V6.77h-2.17v5.5c0,.83.46,1.06,1.23,1.06.21,0,.54,0,.75,0h.16v2.44a10.85,10.85,0,0,1-1.89.17c-2.06,0-3.46-.67-3.46-2.92V6.77h-1.67Z"/><path class="cls-1" d="M152.13,6.67h.06a3.17,3.17,0,0,1,3.09-2.17,2,2,0,0,1,.69.08V7.44h-.09a4,4,0,0,0-.69-.07c-1.77,0-2.93,1.09-2.93,3.25v5.15H149V4.69h3.14Z"/><path class="cls-1" d="M157.13,4.69h3.27V15.77h-3.27Zm0-4.42h3.31V3.12h-3.31Z"/><path class="cls-1" d="M162.17,4.69h3.15V6.42h.06a3.53,3.53,0,0,1,3.33-2,3.09,3.09,0,0,1,3,2.1h0a4,4,0,0,1,3.52-2.1c2.46,0,3.73,1.62,3.73,4.08v7.31H175.8V9c0-1.21-.59-1.94-1.65-1.94s-1.89,1-1.89,2.4v6.31H169V9c0-1.21-.54-1.94-1.62-1.94s-1.92,1-1.92,2.4v6.31h-3.27Z"/><path class="cls-1" d="M188.61,10.25c0-2.1-.92-3.54-2.55-3.54s-2.54,1.44-2.54,3.54.88,3.5,2.54,3.5,2.55-1.42,2.55-3.5m-8.4,0a5.86,5.86,0,1,1,11.71,0,5.86,5.86,0,1,1-11.71,0"/><path class="cls-1" d="M193.17,4.69h3.27V15.77h-3.27Zm0-4.42h3.31V3.12h-3.31Z"/><path class="cls-1" d="M201.37,6.37h.07a3.59,3.59,0,0,1,3.41-2c2.44,0,3.86,1.63,3.86,4.11v7.29h-3.25V9.1a1.79,1.79,0,0,0-1.86-2,2.19,2.19,0,0,0-2.12,2.44v6.25h-3.27V4.69h3.16Z"/><path class="cls-1" d="M213.1,9.17h4.73c-.1-1.55-1-2.48-2.27-2.48-1.5,0-2.25,1-2.46,2.48m-3.23,1.08a5.6,5.6,0,0,1,5.69-5.88,5.47,5.47,0,0,1,3.81,1.42,7.06,7.06,0,0,1,1.79,5.27h-8.08c.21,1.67,1.1,2.67,2.69,2.67a2.08,2.08,0,0,0,2-1.08H221c-.57,1.95-2.38,3.45-5.23,3.45a5.58,5.58,0,0,1-5.86-5.85"/><path class="cls-1" d="M58.74,33.82c0-2.54-1.45-4.52-3.31-4.52a2.3,2.3,0,0,0-1.71.74c-.76.79-1,1.9-1,4.26s.41,3.62,1.41,4.29a2.16,2.16,0,0,0,1.26.4c2-.07,3.4-2.12,3.4-5.17M56.22,23.14A35.91,35.91,0,0,0,60,23l.27,0h.33V37.32c0,1,.5,1.53,1.38,1.53h.74v.35H60.76a7.21,7.21,0,0,0-1.76.22h-.24V36.54c-.35.78-1.3,2.88-3.61,2.88s-4.57-2.5-4.57-5.29,2.07-5.23,4.61-5.23c1.55,0,2.62.76,3.55,2.57V25a1.35,1.35,0,0,0-1.43-1.46H56.22Z"/><path class="cls-1" d="M70.17,33.28c.52,0,.69-.19.69-.81,0-2-1-3.26-2.55-3.26a2.23,2.23,0,0,0-2,1.57,6.1,6.1,0,0,0-.42,2.5ZM73,35.35a5.64,5.64,0,0,1-.66,1.81,4.39,4.39,0,0,1-3.81,2.26c-2.71,0-4.79-2.38-4.79-5.4,0-2.86,2-5.17,4.53-5.17s4.38,2,4.64,4.88H65.84c0,1.59,0,5.21,3,5.21,1.88,0,3.35-1.38,3.85-3.59Z"/><path class="cls-1" d="M79.71,38.85h2.05c.76,0,1.12-.41,1.19-1.38V24.85c0-.88-.43-1.38-1.16-1.38H79.74v-.36h8.43v.36H86.52c-.76,0-1.19.5-1.19,1.38V37.59c0,.81.34,1.21,1,1.21H88c2.72,0,5.07-2.38,5.81-5.88h.31L94,39.2H79.71Z"/><path class="cls-1" d="M104,34c0-3.24-1-4.84-3-4.84s-3.12,1.55-3.12,5c0,3.23,1,4.83,3,4.83,2.22,0,3.14-1.48,3.14-5m-8.14.14c0-2.81,2.36-5.36,4.95-5.36A5.21,5.21,0,0,1,106,34.11a5.07,5.07,0,1,1-10.14,0"/><path class="cls-1" d="M109,24.49a1.17,1.17,0,1,1,1.17,1.17A1.17,1.17,0,0,1,109,24.49m2.1,4.5c0,1.65,0,3.26,0,4.88,0,4.05,0,4.17.12,4.53.08.16.17.45.86.45h.76v.35h-5.26v-.35h.83c.72,0,1-.31,1-1.17v-7c0-.67-.43-1.07-1.19-1.07h-.72v-.36c.91,0,1.74-.05,2.07-.07l1.29-.17Z"/><path class="cls-1" d="M116.64,30.66c0-.67-.43-1.07-1.19-1.07h-.72v-.36c.91,0,1.74-.05,2.07-.07l1.29-.17h.31v2.72c.59-1.36,1.21-2.81,2.76-2.81a1.81,1.81,0,0,1,1.93,1.88,1.17,1.17,0,0,1-1,1.28,1,1,0,0,1-1-1.07,1.29,1.29,0,0,1,.55-1c.19-.16.26-.26.26-.35,0-.24-.24-.36-.66-.36a2.06,2.06,0,0,0-1.36.55c-1.36,1.33-1.41,3.3-1.45,4.85v3c0,.86.23,1.17,1,1.17h.76v.35h-5.31v-.35h.84c.71,0,1-.31,1-1.17Z"/><path class="cls-1" d="M130.44,33.28c.53,0,.69-.19.69-.81,0-2-1-3.26-2.54-3.26a2.21,2.21,0,0,0-2,1.57,6.25,6.25,0,0,0-.43,2.5Zm2.86,2.07a5.4,5.4,0,0,1-.67,1.81,4.37,4.37,0,0,1-3.8,2.26C126.11,39.42,124,37,124,34c0-2.86,2-5.17,4.52-5.17s4.38,2,4.65,4.88h-7.1c0,1.59,0,5.21,3,5.21,1.88,0,3.36-1.38,3.86-3.59Z"/><rect class="cls-1" x="135.25" y="33.51" width="5.07" height="0.98"/><path class="cls-1" d="M149.89,25.45,147,33.23h5.5Zm-7.64,13.4c2.29-.05,2.91-1.72,3.53-3.38l4.66-12.57h.91l4.71,13.83c.67,1.9.88,2.12,2.14,2.12h.43v.35h-7.45v-.35h2c.55,0,.88-.24.88-.67a2.09,2.09,0,0,0-.12-.69l-1.21-3.62h-6l-.17.43a10.24,10.24,0,0,0-.72,2.69c0,1.14,1,1.86,2.58,1.86h.59v.35h-6.81Z"/><path class="cls-1" d="M159.58,29.47c2.41-.83,3.12-2.69,3.45-4.91h.48v4.67h3.31v.67h-3.33V37c0,1,.57,1.66,1.4,1.66,1.62,0,2.41-1.57,2.43-4.92h.33c0,2.57-.33,3.85-1.21,4.73a2.9,2.9,0,0,1-2.07.84,2.51,2.51,0,0,1-2.69-2.84V29.9h-2.1Z"/><path class="cls-1" d="M170.94,25c0-.88-.33-1.31-1-1.31H169v-.38c.84,0,1.69-.07,2-.1L172.2,23h.55c-.05,4.19-.05,7.05-.05,9,0,6.47,0,6.33.29,6.61a1,1,0,0,0,.71.22h.76v.35h-5.31v-.35H170c.71,0,.95-.31.95-1.17Z"/><path class="cls-1" d="M182.65,33.54a13.62,13.62,0,0,1-1.4.5c-1.08.31-2.91.83-2.91,2.81,0,1.19.67,2,1.6,2,1.45,0,2.71-1.6,2.71-3.43ZM187,34.87c0,3.05-.77,4.55-2.26,4.55-1,0-1.62-.76-1.93-2.48-.79,1.76-1.76,2.48-3.36,2.48a2.84,2.84,0,0,1-3-2.62,2.36,2.36,0,0,1,.73-1.67,5.89,5.89,0,0,1,3.12-1.33,12.67,12.67,0,0,0,2.31-.71V31.37c0-1.28-.81-2-2.31-2-1,0-2.14.55-2.14,1.05,0,.17.09.26.4.43.55.29.74.57.74,1a1,1,0,0,1-1,1,1.31,1.31,0,0,1-1.19-1.35c0-1.5,1.6-2.67,3.67-2.67,2.4,0,3.62,1.1,3.62,3.24v4.55c0,1.16.33,1.9.85,1.9.81,0,1.19-.93,1.34-3.24l0-.47Z"/><path class="cls-1" d="M191.79,32a4.11,4.11,0,0,1,3.64-3,3.29,3.29,0,0,1,2.15.81A4.63,4.63,0,0,1,198.65,33v4.71c0,.86.26,1.17.95,1.17h.79v.35h-5.34v-.35h.84c.71,0,1-.31,1-1.17V32.37c0-2-.55-2.85-1.76-2.85-1.93,0-3.31,2.12-3.31,5.09v3.07c0,.86.24,1.17.95,1.17h.76v.35h-5.31v-.35H189c.71,0,1-.31,1-1.17v-7c0-.67-.43-1.05-1.21-1.05h-.65v-.36h.81c.17,0,1.43-.09,1.69-.12l.72-.12h.47Z"/><path class="cls-1" d="M201.24,29.47c2.41-.83,3.12-2.69,3.46-4.91h.47v4.67h3.31v.67h-3.33V37c0,1,.57,1.66,1.4,1.66,1.62,0,2.41-1.57,2.43-4.92h.33c0,2.57-.33,3.85-1.21,4.73a2.9,2.9,0,0,1-2.07.84,2.51,2.51,0,0,1-2.69-2.84V29.9h-2.1Z"/><path class="cls-1" d="M212.19,24.49a1.17,1.17,0,1,1,1.17,1.17,1.17,1.17,0,0,1-1.17-1.17m2.1,4.5c0,1.65,0,3.26,0,4.88,0,4.05,0,4.17.12,4.53.08.16.17.45.86.45H216v.35h-5.26v-.35h.83c.72,0,1-.31,1-1.17v-7c0-.67-.43-1.07-1.19-1.07h-.72v-.36c.91,0,1.74-.05,2.07-.07L214,29Z"/><path class="cls-1" d="M226.62,33.75c0-2.95-1.24-4.69-3.33-4.69a2.47,2.47,0,0,0-1.76.74c-.77.76-1.08,2.05-1.08,4.41,0,2.57.77,4.73,2.69,4.73,2.15-.07,3.48-2.09,3.48-5.19m1.69-4.95c-.05,4.19-.05,7-.05,8.86,0,6.38,0,6.23.29,6.52a1,1,0,0,0,.71.21H230v.36h-5.3v-.36h.83c.71,0,.95-.31.95-1.16v-6.5c-.83,1.81-2,2.69-3.55,2.69-2.33,0-4.5-2.62-4.5-5.41s2.24-5.33,4.81-5.33c1.62,0,2.91,1,3.74,2.86a5.59,5.59,0,0,0,.93-2.74Z"/><path class="cls-1" d="M230.76,29.23a14.15,14.15,0,0,0,2.62-.17A4.25,4.25,0,0,1,234,29h.55V36.8c0,1.26.55,2,1.52,2,1.74,0,3.22-2.31,3.22-5V30.73c0-.81-.38-1.14-1.29-1.14h-1.21v-.36h1.43a10.67,10.67,0,0,0,2-.24l.24,0h.62v8.59c0,.93.35,1.29,1.28,1.29h.48v.35h-2.43a5.2,5.2,0,0,1-.52,0l-.62.05V36.37c-.93,2-2.17,3-3.69,3a2.88,2.88,0,0,1-2.83-3.07V30.54a1,1,0,0,0-1-.95h-1Z"/><path class="cls-1" d="M251,33.28c.53,0,.69-.19.69-.81,0-2-1-3.26-2.54-3.26a2.21,2.21,0,0,0-2.05,1.57,6.25,6.25,0,0,0-.43,2.5Zm2.86,2.07a5.4,5.4,0,0,1-.67,1.81,4.38,4.38,0,0,1-3.81,2.26c-2.71,0-4.78-2.38-4.78-5.4,0-2.86,2-5.17,4.52-5.17s4.38,2,4.64,4.88h-7.09c0,1.59,0,5.21,3,5.21,1.88,0,3.36-1.38,3.86-3.59Z"/><rect class="cls-1" x="7.43" y="0.26" width="24.18" height="6.7"/><rect class="cls-1" x="7.44" y="32.63" width="24.18" height="6.7"/><polyline class="cls-1" points="0 7.71 6.7 7.71 6.7 31.89 0 31.89"/><polyline class="cls-1" points="32.37 7.71 39.06 7.71 39.06 31.89 32.37 31.89"/></g></g></svg>