<svg xmlns="http://www.w3.org/2000/svg" viewBox="0 0 150.82 39.83"><defs><style>.cls-1{fill:#fff;}</style></defs><title>logo-chateau-de-clisson-blanc</title><g id="Calque_2" data-name="Calque 2"><g id="Calque_1-2" data-name="Calque 1"><path class="cls-1" d="M50.15,8.19c0-4.63,3-8.09,7.6-8.09A7.08,7.08,0,0,1,62,1.31,6,6,0,0,1,64.4,5.6H60.85a3,3,0,0,0-3.12-2.54c-2.65,0-4,2.19-4,5.13s1.54,5.1,4,5.1A3.06,3.06,0,0,0,61,10.46h3.56a6.26,6.26,0,0,1-1.87,4,6.68,6.68,0,0,1-4.92,1.75c-4.52,0-7.6-3.42-7.6-8"/><path class="cls-1" d="M69,6.37h.06a3.63,3.63,0,0,1,3.34-1.89c2.43,0,3.85,1.62,3.85,4.1v7.29H73V9.21a1.79,1.79,0,0,0-1.85-2A2.19,2.19,0,0,0,69,9.62v6.25H65.77V.37H69V4.65c0,.1,0,1,0,1.72"/><path class="cls-1" d="M84.73,11.89V10.46a6.77,6.77,0,0,1-1.92.62c-1.44.31-2.13.67-2.13,1.63S81.41,14,82.31,14a2.19,2.19,0,0,0,2.42-2.13M81.33,0h3.19l2.27,3.08H84L83,1.46h0l-1,1.62H79.08Zm3.35,14.52h0a3.68,3.68,0,0,1-3.35,1.65c-2.19,0-3.79-1.17-3.79-3.36,0-2.46,1.93-3.08,4.35-3.37,2-.27,2.79-.59,2.79-1.42S84.12,6.69,83,6.69s-1.86.58-1.94,1.45H78c.08-1.89,1.62-3.66,4.91-3.66a6.19,6.19,0,0,1,3.19.66,3.56,3.56,0,0,1,1.69,3.32v5.68c0,.88.12,1.36.42,1.55v.18H85.06a3.27,3.27,0,0,1-.38-1.35"/><path class="cls-1" d="M89,4.79h1.67V1.25h3.21V4.79H96V6.87H93.87v5.5c0,.84.46,1.07,1.23,1.07.21,0,.54,0,.75,0H96v2.43a10.15,10.15,0,0,1-1.9.17c-2.06,0-3.46-.67-3.46-2.92V6.87H89Z"/><path class="cls-1" d="M100.06,9.27h4.72c-.1-1.54-1-2.48-2.27-2.48-1.5,0-2.25,1-2.45,2.48m-3.23,1.08a5.58,5.58,0,0,1,5.68-5.87,5.43,5.43,0,0,1,3.82,1.42,7,7,0,0,1,1.79,5.27H100c.21,1.66,1.11,2.66,2.69,2.66a2.05,2.05,0,0,0,2-1.08h3.17c-.56,2-2.38,3.46-5.23,3.46a5.58,5.58,0,0,1-5.85-5.86"/><path class="cls-1" d="M116.14,11.89V10.46a6.77,6.77,0,0,1-1.92.62c-1.44.31-2.12.67-2.12,1.63s.72,1.31,1.62,1.31a2.19,2.19,0,0,0,2.42-2.13m0,2.63h0a3.68,3.68,0,0,1-3.35,1.65c-2.19,0-3.79-1.17-3.79-3.36,0-2.46,1.94-3.08,4.35-3.37,2-.27,2.79-.59,2.79-1.42s-.52-1.33-1.64-1.33-1.86.58-1.94,1.45h-3c.08-1.89,1.62-3.66,4.92-3.66a6.18,6.18,0,0,1,3.18.66,3.56,3.56,0,0,1,1.69,3.32v5.68c0,.88.13,1.36.42,1.55v.18h-3.19a3.15,3.15,0,0,1-.37-1.35"/><path class="cls-1" d="M128.26,15.87V14.29h-.06a3.61,3.61,0,0,1-3.34,1.9c-2.52,0-3.89-1.63-3.89-4.07V4.79h3.27V11.5c0,1.23.6,1.94,1.77,1.94a2.15,2.15,0,0,0,2.13-2.38V4.79h3.22V15.87Z"/><path class="cls-1" d="M58.74,33.93c0-2.55-1.45-4.52-3.31-4.52a2.29,2.29,0,0,0-1.71.73c-.76.79-1,1.91-1,4.26s.4,3.62,1.4,4.29a2.14,2.14,0,0,0,1.27.4c2-.07,3.4-2.11,3.4-5.16M56.22,23.24A35.91,35.91,0,0,0,60,23.07l.27,0h.33V37.43c0,1,.5,1.52,1.38,1.52h.74v.36H60.76a7.25,7.25,0,0,0-1.76.21h-.24V36.64c-.35.79-1.31,2.88-3.61,2.88s-4.58-2.5-4.58-5.28S52.65,29,55.19,29c1.55,0,2.62.76,3.55,2.57V25.05a1.34,1.34,0,0,0-1.43-1.45H56.22Z"/><path class="cls-1" d="M70.17,33.38c.52,0,.69-.19.69-.81,0-2-1-3.26-2.55-3.26a2.23,2.23,0,0,0-2,1.57,6.25,6.25,0,0,0-.43,2.5ZM73,35.45a5.64,5.64,0,0,1-.66,1.81,4.39,4.39,0,0,1-3.81,2.26c-2.72,0-4.79-2.38-4.79-5.4,0-2.86,2-5.17,4.53-5.17s4.38,2.05,4.64,4.88h-7.1c0,1.6,0,5.22,3,5.22,1.88,0,3.35-1.38,3.85-3.6Z"/><path class="cls-1" d="M92.54,33.43a6.92,6.92,0,0,1-.64,2.83,6,6,0,0,1-5.14,3.57c-3.86,0-7.17-3.83-7.17-8.28,0-5.52,3.91-8.6,6.67-8.6a5.05,5.05,0,0,1,4.36,2.72A7.85,7.85,0,0,0,92,23h.36l.14,7.26h-.35a12.55,12.55,0,0,0-2.81-5.59,4.11,4.11,0,0,0-2.88-1.31c-2.88,0-4.36,2.93-4.36,8.67,0,3.16.52,5,1.86,6.3a3.75,3.75,0,0,0,2.71,1.15,5.62,5.62,0,0,0,5-3.43,7.34,7.34,0,0,0,.57-2.57Z"/><path class="cls-1" d="M95.83,25.07c0-.88-.33-1.31-1-1.31h-.88v-.38c.83,0,1.69-.07,2-.09l1.19-.14h.55c0,4.19,0,7,0,9,0,6.47,0,6.33.29,6.62a1,1,0,0,0,.71.21h.76v.36H94V39h.84c.71,0,1-.31,1-1.16Z"/><path class="cls-1" d="M102.11,24.6a1.17,1.17,0,1,1,1.17,1.16,1.17,1.17,0,0,1-1.17-1.16m2.1,4.5c0,1.64,0,3.26,0,4.88,0,4,0,4.16.11,4.52.08.17.17.45.86.45h.76v.36h-5.26V39h.84c.71,0,1-.31,1-1.16v-7a1,1,0,0,0-1.19-1.07h-.72v-.36c.91,0,1.74,0,2.07-.07l1.29-.16Z"/><path class="cls-1" d="M108.21,35A5.77,5.77,0,0,0,109.68,38a3.81,3.81,0,0,0,2.69,1.12,2,2,0,0,0,2.17-1.76c0-1.09-.71-1.67-3-2.38a6.62,6.62,0,0,1-3-1.52,2.43,2.43,0,0,1-.66-1.79,2.75,2.75,0,0,1,2.73-2.81c1.07,0,1.65.26,2.86,1.31a2,2,0,0,0,.76-1.19h.38v4h-.33a4.74,4.74,0,0,0-1.17-2.59,3.35,3.35,0,0,0-2.38-1.15A1.89,1.89,0,0,0,108.66,31c0,1.19,1.5,1.66,2.83,2,2.36.69,3.93,1.48,3.93,3.46a3,3,0,0,1-3.21,3A4.13,4.13,0,0,1,109.09,38a5.88,5.88,0,0,0-.93,1.54h-.31V35Z"/><path class="cls-1" d="M117.64,35A5.77,5.77,0,0,0,119.11,38a3.81,3.81,0,0,0,2.69,1.12A2,2,0,0,0,124,37.38c0-1.09-.72-1.67-3-2.38a6.55,6.55,0,0,1-3-1.52,2.44,2.44,0,0,1-.67-1.79A2.76,2.76,0,0,1,120,28.88c1.07,0,1.64.26,2.86,1.31a2,2,0,0,0,.76-1.19H124v4h-.33a4.82,4.82,0,0,0-1.17-2.59,3.37,3.37,0,0,0-2.38-1.15A1.88,1.88,0,0,0,118.09,31c0,1.19,1.5,1.66,2.83,2,2.36.69,3.93,1.48,3.93,3.46a3,3,0,0,1-3.22,3A4.12,4.12,0,0,1,118.52,38a5.88,5.88,0,0,0-.93,1.54h-.31V35Z"/><path class="cls-1" d="M134.8,34.12c0-3.24-1-4.83-3-4.83s-3.12,1.54-3.12,5c0,3.24,1,4.83,3,4.83,2.21,0,3.14-1.47,3.14-5m-8.14.14a5.36,5.36,0,0,1,5-5.35,5.21,5.21,0,0,1,5.19,5.3,5.07,5.07,0,1,1-10.14,0"/><path class="cls-1" d="M142.23,32.07A4.11,4.11,0,0,1,145.87,29a3.32,3.32,0,0,1,2.14.81,4.54,4.54,0,0,1,1.07,3.24v4.72c0,.85.26,1.16,1,1.16h.78v.36h-5.33V39h.83c.72,0,1-.31,1-1.16V32.48c0-2-.54-2.86-1.76-2.86-1.93,0-3.31,2.12-3.31,5.09v3.08c0,.85.24,1.16,1,1.16h.76v.36h-5.31V39h.83c.72,0,.95-.31.95-1.16v-7c0-.67-.42-1-1.21-1h-.64v-.36h.81c.16,0,1.43-.09,1.69-.11l.71-.12h.48Z"/><rect class="cls-1" x="14.14" y="0.37" width="10.79" height="5.95"/><rect class="cls-1" x="14.14" y="33.48" width="10.79" height="5.95"/><rect class="cls-1" y="14.51" width="5.95" height="10.79"/><rect class="cls-1" x="33.11" y="14.51" width="5.95" height="10.79"/><rect class="cls-1" x="2.31" y="4.97" width="10.52" height="5.95" transform="translate(-3.4 7.68) rotate(-44.99)"/><rect class="cls-1" x="28.52" y="2.68" width="5.95" height="10.53" transform="translate(3.62 24.61) rotate(-45.03)"/><rect class="cls-1" x="4.59" y="26.6" width="5.95" height="10.52" transform="translate(-20.32 14.69) rotate(-45.01)"/><rect class="cls-1" x="26.24" y="28.89" width="10.53" height="5.95" transform="translate(-13.31 31.58) rotate(-44.97)"/></g></g></svg>