<?xml version="1.0" encoding="utf-8"?>
<!-- Generator: Adobe Illustrator 24.1.2, SVG Export Plug-In . SVG Version: 6.00 Build 0)  -->
<svg version="1.1" id="calques" xmlns="http://www.w3.org/2000/svg" xmlns:xlink="http://www.w3.org/1999/xlink" x="0px" y="0px"
	 viewBox="0 0 833.3 200" style="enable-background:new 0 0 833.3 200;" xml:space="preserve">
<style type="text/css">
	.st0{enable-background:new    ;}
	.st1{fill:#004461;}
	.st2{fill:#AFCA00;}
	.st3{fill:#FFFFFF;}
</style>
<g id="Handicap">
	<g class="st0">
		<path d="M454.5,106.2l-3.5-8.3h-17.3l-3.6,8.3h-6.5l16-35.5h5.2l16.1,35.5H454.5z M435.8,92.9h13.1l-6.5-15.2L435.8,92.9z"/>
	</g>
	<g class="st0">
		<path d="M480.4,80.8l0,5.7c-1.1-0.4-2.2-0.6-3.3-0.6c-2.1,0-3.7,0.6-4.9,1.8c-1.1,1.2-1.7,2.9-1.7,4.9v13.6h-6.2v-18
			c0-2.7-0.1-5-0.4-7.1h5.8l0.5,4.4c0.6-1.6,1.6-2.9,3-3.7c1.4-0.9,2.9-1.3,4.6-1.3C478.8,80.4,479.7,80.6,480.4,80.8z"/>
	</g>
	<g class="st0">
		<path d="M487.9,105c-1.9-1.1-3.4-2.6-4.4-4.5c-1-1.9-1.5-4.2-1.5-6.9s0.5-4.9,1.6-6.9c1.1-2,2.6-3.5,4.6-4.7
			c2-1.1,4.3-1.7,6.9-1.7c1.8,0,3.5,0.3,5.2,0.8c1.7,0.6,3,1.3,4,2.3l-1.7,4.4c-1.1-0.9-2.2-1.5-3.4-2c-1.2-0.4-2.4-0.7-3.5-0.7
			c-2.3,0-4,0.7-5.3,2.1c-1.3,1.4-1.9,3.4-1.9,6.1c0,2.7,0.6,4.7,1.9,6.1s3,2.1,5.3,2.1c1.2,0,2.3-0.2,3.5-0.7
			c1.2-0.5,2.3-1.1,3.4-2l1.7,4.4c-1.1,1-2.4,1.8-4.1,2.3s-3.5,0.8-5.3,0.8C492.1,106.6,489.9,106.1,487.9,105z"/>
		<path d="M531.8,90.8v15.4h-6.2V91.1c0-2-0.4-3.4-1.1-4.4c-0.8-0.9-1.9-1.4-3.5-1.4c-1.9,0-3.4,0.6-4.6,1.8
			c-1.2,1.2-1.7,2.8-1.7,4.8v14.3h-6.2V69.5h6.2v15.1c0.9-1.4,2-2.4,3.4-3.2c1.4-0.7,3-1.1,4.8-1.1
			C528.8,80.4,531.8,83.8,531.8,90.8z"/>
		<path d="M538.1,69.6h6.9v6.1h-6.9V69.6z M538.5,106.2V81h6.2v25.2H538.5z"/>
	</g>
	<g class="st0">
		<path d="M569.1,81.1h6.2l-11,25.1h-5.4L548,81.1h6.5l7.2,18L569.1,81.1z"/>
	</g>
	<g class="st0">
		<path d="M600.1,93.9h-17.3c0.1,2.7,0.8,4.7,2,6c1.2,1.3,3,1.9,5.4,1.9c2.8,0,5.3-0.9,7.7-2.7l1.8,4.3c-1.2,1-2.7,1.7-4.4,2.3
			s-3.5,0.9-5.3,0.9c-4.1,0-7.4-1.2-9.7-3.5c-2.4-2.3-3.5-5.5-3.5-9.6c0-2.6,0.5-4.8,1.5-6.8c1-2,2.5-3.5,4.3-4.7
			c1.9-1.1,4-1.7,6.3-1.7c3.5,0,6.2,1.1,8.2,3.4c2,2.2,3,5.3,3,9.2V93.9z M585,86.3c-1,1-1.7,2.4-2,4.3h11.7
			c-0.2-1.9-0.8-3.3-1.7-4.3c-0.9-1-2.3-1.4-3.9-1.4C587.4,84.9,586,85.4,585,86.3z"/>
		<path d="M603.8,103.4l1.7-4.4c2.7,2,5.8,3,9.2,3c1.5,0,2.6-0.2,3.5-0.7c0.8-0.5,1.2-1.2,1.2-2.1c0-0.8-0.3-1.4-0.8-1.8
			c-0.6-0.4-1.5-0.8-2.9-1.2l-4.2-0.9c-4.6-1-6.9-3.3-6.9-7c0-1.5,0.4-2.9,1.3-4.1c0.9-1.2,2.1-2.1,3.6-2.8c1.6-0.7,3.4-1,5.4-1
			c1.8,0,3.5,0.3,5.2,0.8c1.7,0.5,3.1,1.3,4.4,2.4l-1.8,4.2c-2.5-1.9-5.1-2.8-7.8-2.8c-1.4,0-2.5,0.3-3.3,0.8
			c-0.8,0.5-1.2,1.3-1.2,2.2c0,0.7,0.2,1.3,0.7,1.7c0.5,0.4,1.3,0.8,2.5,1.1l4.3,0.9c2.5,0.6,4.3,1.4,5.5,2.6
			c1.1,1.2,1.7,2.7,1.7,4.6c0,2.3-0.9,4.2-2.8,5.5s-4.4,2-7.6,2C610.1,106.6,606.5,105.5,603.8,103.4z"/>
	</g>
	<g class="st0">
		<path d="M451,119.4V156h-6.1v-4c-0.8,1.4-1.9,2.5-3.3,3.3c-1.4,0.8-3.1,1.2-4.9,1.2c-2.2,0-4.1-0.5-5.8-1.6c-1.7-1.1-3-2.6-4-4.7
			c-0.9-2-1.4-4.3-1.4-6.9c0-2.6,0.5-4.9,1.4-6.8c0.9-2,2.2-3.5,3.9-4.6c1.7-1.1,3.6-1.6,5.8-1.6c1.8,0,3.4,0.4,4.8,1.1
			c1.4,0.7,2.5,1.8,3.3,3.2v-15.1H451z M443.2,149.4c1.1-1.4,1.7-3.5,1.7-6.1c0-2.6-0.6-4.7-1.7-6.1c-1.1-1.4-2.7-2.1-4.8-2.1
			c-2.1,0-3.7,0.7-4.9,2.1c-1.1,1.4-1.7,3.4-1.7,6c0,2.6,0.6,4.7,1.7,6.1c1.1,1.5,2.7,2.2,4.8,2.2
			C440.4,151.6,442,150.8,443.2,149.4z"/>
		<path d="M479.8,143.8h-17.3c0.1,2.7,0.8,4.7,2,6c1.2,1.3,3,1.9,5.4,1.9c2.8,0,5.3-0.9,7.7-2.7l1.8,4.3c-1.2,1-2.7,1.7-4.4,2.3
			s-3.5,0.9-5.3,0.9c-4.1,0-7.4-1.2-9.7-3.5c-2.4-2.3-3.5-5.5-3.5-9.6c0-2.6,0.5-4.8,1.5-6.8c1-2,2.5-3.5,4.3-4.7
			c1.9-1.1,4-1.7,6.3-1.7c3.5,0,6.2,1.1,8.2,3.4c2,2.2,3,5.3,3,9.2V143.8z M464.7,136.2c-1,1-1.7,2.4-2,4.3h11.7
			c-0.2-1.9-0.8-3.3-1.7-4.3c-0.9-1-2.3-1.4-3.9-1.4C467.1,134.7,465.7,135.2,464.7,136.2z M470.6,127.6h-4l5-10.3h6.4L470.6,127.6z
			"/>
		<path d="M505.2,131.9c1.7,1.1,3,2.7,3.9,4.7c0.9,2,1.4,4.3,1.4,6.9c0,2.6-0.5,4.9-1.4,6.8c-0.9,2-2.2,3.5-3.9,4.5
			c-1.7,1.1-3.6,1.6-5.8,1.6c-1.8,0-3.5-0.4-4.9-1.2c-1.4-0.8-2.5-1.9-3.3-3.3v14.8h-6.2V138c0-2.7-0.1-5-0.4-7.1h5.8l0.5,4.3
			c0.7-1.6,1.7-2.8,3.2-3.7c1.5-0.9,3.2-1.3,5.2-1.3C501.6,130.2,503.5,130.8,505.2,131.9z M502.6,149.5c1.1-1.4,1.7-3.4,1.7-6
			c0-2.6-0.6-4.7-1.7-6.2c-1.1-1.5-2.7-2.2-4.8-2.2c-2.1,0-3.8,0.7-4.9,2.1c-1.1,1.4-1.7,3.5-1.7,6.1c0,2.6,0.6,4.6,1.7,6.1
			c1.1,1.4,2.7,2.1,4.8,2.1S501.5,150.9,502.6,149.5z"/>
		<path d="M540.1,130.9V156h-6.1v-4c-0.8,1.4-1.9,2.5-3.3,3.3c-1.4,0.8-3.1,1.2-4.9,1.2c-2.2,0-4.1-0.5-5.8-1.6
			c-1.7-1.1-3-2.6-3.9-4.5c-0.9-2-1.4-4.2-1.4-6.8c0-2.6,0.5-4.9,1.4-6.9c0.9-2,2.3-3.6,4-4.7c1.7-1.1,3.6-1.7,5.8-1.7
			c1.8,0,3.5,0.4,4.9,1.2c1.4,0.8,2.5,1.9,3.3,3.3v-3.8H540.1z M532.2,149.4c1.1-1.4,1.7-3.4,1.7-6c0-2.7-0.6-4.7-1.7-6.1
			c-1.1-1.4-2.7-2.1-4.8-2.1c-2.1,0-3.7,0.7-4.8,2.2c-1.1,1.5-1.7,3.5-1.7,6.2c0,2.6,0.6,4.6,1.7,6c1.1,1.4,2.8,2.1,4.9,2.1
			C529.5,151.6,531.1,150.8,532.2,149.4z"/>
	</g>
	<g class="st0">
		<path d="M562.9,130.7l0,5.7c-1.1-0.4-2.2-0.6-3.3-0.6c-2.1,0-3.7,0.6-4.9,1.8s-1.7,2.9-1.7,4.9V156h-6.2v-18c0-2.7-0.1-5-0.4-7.1
			h5.8l0.5,4.4c0.6-1.6,1.6-2.9,3-3.7c1.4-0.9,2.9-1.3,4.6-1.3C561.3,130.3,562.2,130.4,562.9,130.7z"/>
	</g>
	<g class="st0">
		<path d="M576.6,135.6v11.3c0,3,1.4,4.4,4.1,4.4c0.8,0,1.6-0.1,2.5-0.4v4.9c-1.1,0.4-2.4,0.6-4,0.6c-2.9,0-5.1-0.8-6.6-2.4
			c-1.5-1.6-2.3-3.9-2.3-6.9v-11.6h-4.8v-4.7h4.8v-6.1l6.2-2.1v8.2h6.7v4.7H576.6z"/>
		<path d="M609.6,143.8h-17.3c0.1,2.7,0.8,4.7,2,6c1.2,1.3,3,1.9,5.4,1.9c2.8,0,5.3-0.9,7.7-2.7l1.8,4.3c-1.2,1-2.7,1.7-4.4,2.3
			s-3.5,0.9-5.3,0.9c-4.1,0-7.4-1.2-9.7-3.5c-2.4-2.3-3.5-5.5-3.5-9.6c0-2.6,0.5-4.8,1.5-6.8c1-2,2.5-3.5,4.3-4.7
			c1.9-1.1,4-1.7,6.3-1.7c3.5,0,6.2,1.1,8.2,3.4c2,2.2,3,5.3,3,9.2V143.8z M594.5,136.2c-1,1-1.7,2.4-2,4.3h11.7
			c-0.2-1.9-0.8-3.3-1.7-4.3c-0.9-1-2.3-1.4-3.9-1.4C596.9,134.7,595.5,135.2,594.5,136.2z"/>
		<path d="M651,132.8c1.4,1.7,2.1,4.3,2.1,7.8V156h-6.2v-15.2c0-2-0.3-3.4-1-4.3c-0.6-0.9-1.7-1.3-3.2-1.3c-1.7,0-3.1,0.6-4.1,1.8
			c-1,1.2-1.5,2.9-1.5,5V156h-6.2v-15.2c0-2-0.3-3.4-1-4.3c-0.7-0.9-1.8-1.3-3.2-1.3c-1.7,0-3.1,0.6-4.1,1.8c-1,1.2-1.5,2.9-1.5,5
			V156h-6.2v-18c0-2.7-0.1-5-0.4-7.1h5.8l0.4,4c0.7-1.5,1.8-2.6,3.2-3.4c1.4-0.8,3-1.2,4.8-1.2c3.9,0,6.4,1.6,7.5,4.8
			c0.8-1.5,1.9-2.7,3.4-3.5c1.5-0.8,3.1-1.3,5-1.3C647.4,130.2,649.6,131.1,651,132.8z"/>
		<path d="M681.7,143.8h-17.3c0.1,2.7,0.8,4.7,2,6c1.2,1.3,3,1.9,5.4,1.9c2.8,0,5.3-0.9,7.7-2.7l1.8,4.3c-1.2,1-2.7,1.7-4.4,2.3
			s-3.5,0.9-5.3,0.9c-4.1,0-7.4-1.2-9.7-3.5c-2.4-2.3-3.5-5.5-3.5-9.6c0-2.6,0.5-4.8,1.5-6.8c1-2,2.5-3.5,4.3-4.7
			c1.9-1.1,4-1.7,6.3-1.7c3.5,0,6.2,1.1,8.2,3.4c2,2.2,3,5.3,3,9.2V143.8z M666.6,136.2c-1,1-1.7,2.4-2,4.3h11.7
			c-0.2-1.9-0.8-3.3-1.7-4.3c-0.9-1-2.3-1.4-3.9-1.4C669,134.7,667.6,135.2,666.6,136.2z"/>
		<path d="M710.4,140.6V156h-6.2v-15.1c0-2-0.4-3.4-1.1-4.4c-0.8-0.9-1.9-1.4-3.5-1.4c-1.9,0-3.4,0.6-4.6,1.8
			c-1.2,1.2-1.7,2.8-1.7,4.8V156H687v-18c0-2.7-0.1-5-0.4-7.1h5.8l0.4,4.1c0.9-1.5,2-2.7,3.5-3.5c1.5-0.8,3.1-1.2,5-1.2
			C707.4,130.2,710.4,133.7,710.4,140.6z"/>
		<path d="M725,135.6v11.3c0,3,1.4,4.4,4.1,4.4c0.8,0,1.6-0.1,2.5-0.4v4.9c-1.1,0.4-2.4,0.6-4,0.6c-2.9,0-5.1-0.8-6.6-2.4
			c-1.5-1.6-2.3-3.9-2.3-6.9v-11.6h-4.8v-4.7h4.8v-6.1l6.2-2.1v8.2h6.7v4.7H725z"/>
		<path d="M760,130.9V156h-6.1v-4c-0.8,1.4-1.9,2.5-3.3,3.3c-1.4,0.8-3.1,1.2-4.9,1.2c-2.2,0-4.1-0.5-5.8-1.6
			c-1.7-1.1-3-2.6-3.9-4.5c-0.9-2-1.4-4.2-1.4-6.8c0-2.6,0.5-4.9,1.4-6.9c0.9-2,2.3-3.6,4-4.7c1.7-1.1,3.6-1.7,5.8-1.7
			c1.8,0,3.5,0.4,4.9,1.2c1.4,0.8,2.5,1.9,3.3,3.3v-3.8H760z M752.2,149.4c1.1-1.4,1.7-3.4,1.7-6c0-2.7-0.6-4.7-1.7-6.1
			c-1.1-1.4-2.7-2.1-4.8-2.1c-2.1,0-3.7,0.7-4.8,2.2c-1.1,1.5-1.7,3.5-1.7,6.2c0,2.6,0.6,4.6,1.7,6c1.1,1.4,2.8,2.1,4.9,2.1
			C749.4,151.6,751,150.8,752.2,149.4z"/>
		<path d="M766.8,156v-36.7h6.2V156H766.8z"/>
		<path d="M801.8,143.8h-17.3c0.1,2.7,0.8,4.7,2,6c1.2,1.3,3,1.9,5.4,1.9c2.8,0,5.3-0.9,7.7-2.7l1.8,4.3c-1.2,1-2.7,1.7-4.4,2.3
			s-3.5,0.9-5.3,0.9c-4.1,0-7.4-1.2-9.7-3.5c-2.4-2.3-3.5-5.5-3.5-9.6c0-2.6,0.5-4.8,1.5-6.8c1-2,2.5-3.5,4.3-4.7
			c1.9-1.1,4-1.7,6.3-1.7c3.5,0,6.2,1.1,8.2,3.4c2,2.2,3,5.3,3,9.2V143.8z M786.7,136.2c-1,1-1.7,2.4-2,4.3h11.7
			c-0.2-1.9-0.8-3.3-1.7-4.3c-0.9-1-2.3-1.4-3.9-1.4C789.1,134.7,787.7,135.2,786.7,136.2z"/>
		<path d="M805.4,153.2l1.7-4.4c2.7,2,5.8,3,9.2,3c1.5,0,2.6-0.2,3.5-0.7s1.2-1.2,1.2-2.1c0-0.8-0.3-1.4-0.8-1.8
			c-0.6-0.4-1.5-0.8-2.9-1.2l-4.2-0.9c-4.6-1-6.9-3.3-6.9-7c0-1.5,0.4-2.9,1.3-4.1c0.9-1.2,2.1-2.1,3.6-2.8c1.6-0.7,3.4-1,5.4-1
			c1.8,0,3.5,0.3,5.2,0.8c1.7,0.5,3.1,1.3,4.4,2.4l-1.8,4.2c-2.5-1.9-5.1-2.8-7.8-2.8c-1.4,0-2.5,0.3-3.3,0.8
			c-0.8,0.5-1.2,1.3-1.2,2.2c0,0.7,0.2,1.3,0.7,1.7s1.3,0.8,2.5,1.1l4.3,0.9c2.5,0.6,4.3,1.4,5.5,2.6c1.1,1.2,1.7,2.7,1.7,4.6
			c0,2.3-0.9,4.2-2.8,5.5s-4.4,2-7.6,2C811.8,156.4,808.1,155.4,805.4,153.2z"/>
	</g>
</g>
<path class="st1" d="M189.2,45.2c-1.5-0.9-3.3-1.4-5.1-1.4c-2.5,0-5,1-6.8,2.8c-1.8,1.8-2.8,4.3-2.8,6.8c-0.1,0.4-0.1,0.8,0,1.2
	L189.2,45.2z"/>
<path class="st1" d="M345.3,103.5c-1.5-1-3.3-1.5-5-1.4c-2.6-0.1-5,0.9-6.8,2.8c-1.8,1.8-2.9,4.2-2.8,6.8c0,0.4,0,0.8,0,1.2
	L345.3,103.5z"/>
<path class="st1" d="M111.6,62.9c2.5,0,5-1,6.8-2.8c1.9-1.7,2.9-4.2,2.8-6.8c0-5.3-4.3-9.6-9.6-9.5c-2.5,0-4.9,1-6.7,2.8
	c-3.9,3.6-4.1,9.7-0.5,13.5c1.9,2,4.5,3.1,7.3,3.1L111.6,62.9z"/>
<path class="st1" d="M266.1,102.1c-2.5,0-5,1-6.8,2.8c-3.7,3.7-3.8,9.7-0.1,13.4c0,0,0.1,0.1,0.1,0.1c3.7,3.7,9.7,3.8,13.4,0.1
	c0,0,0.1-0.1,0.1-0.1c1.8-1.8,2.8-4.2,2.8-6.8c0-2.5-1-5-2.8-6.8C271,103.1,268.6,102,266.1,102.1z"/>
<path class="st1" d="M157.5,121.2c5.3,0,9.6-4.3,9.6-9.6c0-2.6-1.1-5-2.9-6.8c-3.7-3.7-9.8-3.8-13.5,0c0,0,0,0,0,0
	c-3.7,3.8-3.7,9.8,0,13.5c1.8,1.8,4.2,2.8,6.7,2.8H157.5z"/>
<path class="st1" d="M275.6,145.1V126c-6.8,5-16.3,4.2-22.1-1.9c-3.3-3.3-5.1-7.8-5-12.4c0-9.8,8-17.8,17.8-17.8
	c9.8,0,17.8,8,17.8,17.8v33.2H283c29,0.4,62.6,1.8,101.8,4.5V45C242.1-10.1,69.6-7.4,3.7,33.1l54.6,163.8
	c9.1-5.5,17.9-10.7,26.7-15.4l0,0C127.9,158.2,172.5,144.3,275.6,145.1z M327.7,99.1c3.3-3.4,7.8-5.3,12.6-5.3c3.5,0,6.9,1,9.9,3
	c2.9,2,5.2,4.8,6.6,8v0.7L335,119.8c1.5,0.9,3.3,1.4,5,1.4c2.6,0.1,5.2-1,6.9-2.9c0.7-0.8,1.4-1.8,1.8-2.8h8.6
	c-0.7,3.2-2.3,6.2-4.6,8.5c-3.2,3.6-7.8,5.6-12.6,5.5c-4.7,0.1-9.2-1.8-12.6-5.1c-3.4-3.2-5.3-7.8-5.2-12.5
	C322.3,107.1,324.2,102.5,327.7,99.1z M288.9,94.4h8.2v19.8c0.1,3.8,3.1,6.9,6.9,7c1.9,0,3.6-0.8,4.9-2.1c1.3-1.3,2.1-3,2-4.9V94.5
	h8.3v19.8c0,4-1.7,7.8-4.6,10.5c-5.5,5.8-14.7,6.1-20.6,0.6c-0.2-0.2-0.4-0.4-0.6-0.6c-2.9-2.7-4.5-6.5-4.5-10.5L288.9,94.4z
	 M121.2,102.5h-5.5v26.2h-8v-26.2h-5.3v-8.1h5.3V83.4h8.1v11.1h5.5L121.2,102.5z M135,128.7h-8.3V83h8.1L135,128.7z M235.4,83.1h8.1
	v8.1h-8.3L235.4,83.1z M235.4,94.1h8.1v34.3h-8.3L235.4,94.1z M213.2,94.1h5.3V83.1h7.8v11.1h5.3v8.1h-5.3v26.2h-8.1v-25.9h-5.3
	L213.2,94.1z M210.9,108.7v19.8h-8.5V109c0-3.9-3.1-7-7-7c-3.9,0-7,3.1-7,7l0,0v19.8h-8.1V109c0-4,1.6-7.8,4.5-10.6
	c2.8-2.9,6.6-4.5,10.6-4.5c4,0,7.8,1.6,10.5,4.5c2.9,2.8,4.6,6.6,4.6,10.6L210.9,108.7z M172.2,40.5c3.2-3.4,7.8-5.3,12.5-5.2
	c3.5,0,7,1,9.9,3c2.9,2,5.3,4.7,6.6,8l0.3,0.7l-22.4,14.2c1.5,0.9,3.3,1.4,5.1,1.4c2.5,0.1,5-1,6.7-2.9c0.8-0.8,1.4-1.8,1.9-2.9h8.6
	c-0.7,3.2-2.3,6.2-4.7,8.6c-3.2,3.5-7.8,5.4-12.6,5.3c-4.7,0.1-9.3-1.8-12.6-5.1c-3.4-3.3-5.3-7.8-5.2-12.5c0-4.6,1.9-9.1,5.2-12.3
	L172.2,40.5z M148.8,50.7c-0.1-4.1,1.7-8,4.7-10.7c3-2.9,6.9-4.5,11.1-4.4h0.9v8.1h-1.3c-2-0.1-4,0.6-5.5,2c-1.4,1.3-2.2,3.1-2.2,5
	v19.8h-7.8V50.7z M157.5,93.9c4.7,0,9.3,1.9,12.6,5.3c3.4,3.3,5.3,7.8,5.2,12.5v17.1h-8.1V126c-6.8,4.9-16.3,4.1-22.1-1.9
	c-6.8-7.1-6.6-18.4,0.5-25.2c3.3-3.2,7.7-4.9,12.2-5H157.5z M134.3,24.6h8.1v8.1h-8.1V24.6z M134.3,36.1h8.1v34.4h-8.1V36.1z
	 M99,40.8c3.3-3.4,7.8-5.2,12.6-5.2c9.8,0.1,17.7,7.9,17.8,17.7c-0.1,9.8-8.2,17.7-18,17.6c-4.6,0-9-1.9-12.3-5.1
	C92.1,59,92.1,47.8,99,40.8C99,40.8,99,40.8,99,40.8z M65.8,24.8h8.5V62H93v8.5H66L65.8,24.8z M72,128.7h-8.8L79.4,83h9.5l16.2,45.7
	H96l-2.8-7.6H75L72,128.7z"/>
<polygon class="st1" points="77.8,113.5 90.4,113.5 84.1,96.2 "/>
<path class="st2" d="M84.9,181.5h299.7v-31.7C211.4,139.2,150.4,146.7,84.9,181.5z"/>
<path class="st2" d="M385.3,149.8L385.3,149.8z"/>
<path class="st2" d="M384.6,149.8L384.6,149.8c-39.3-2.7-72.8-4.1-101.8-4.5h-7.1c-103.1-1.1-147.8,12.8-190.9,36.2l0,0
	C150.4,146.7,211.4,139.2,384.6,149.8z"/>
<path class="st3" d="M111.6,71c9.8,0,17.7-7.9,17.8-17.7c-0.1-9.8-8-17.7-17.8-17.7c-4.7,0-9.3,1.8-12.6,5.2c-6.9,6.9-6.9,18.1,0,25
	c0,0,0,0,0,0C102.3,69.2,106.9,71.1,111.6,71z M104.8,46.6c3.8-3.7,9.8-3.7,13.5,0c1.8,1.8,2.8,4.2,2.8,6.7c0.1,2.6-1,5-2.8,6.8
	c-3.5,4-9.5,4.5-13.5,1c-4-3.5-4.5-9.5-1-13.5C104.1,47.2,104.5,46.9,104.8,46.6z"/>
<rect x="134.3" y="36.1" class="st3" width="8.1" height="34.4"/>
<path class="st3" d="M156.9,50.7c-0.1-1.9,0.7-3.7,2.2-5c1.5-1.4,3.5-2.1,5.5-2h0.9v-8.1h-1.3c-4.1-0.1-8.1,1.5-11.1,4.4
	c-3,2.7-4.8,6.6-4.7,10.7v19.8h8.1L156.9,50.7z"/>
<polygon class="st3" points="115.7,83.1 107.6,83.1 107.6,94.4 102.3,94.4 102.3,102.5 107.6,102.5 107.6,128.7 115.7,128.7 
	115.7,102.5 121,102.5 121,94.4 115.7,94.4 "/>
<rect x="126.7" y="83" class="st3" width="8.1" height="45.7"/>
<path class="st3" d="M144.8,124c5.9,6.1,15.3,6.9,22.1,1.9v2.8h8.4v-17.1c0.1-4.7-1.8-9.2-5.2-12.5c-7.2-6.7-18.4-6.3-25.1,0.9
	C138.7,106.8,138.6,117.2,144.8,124z M150.8,104.9c3.7-3.7,9.8-3.8,13.5,0c0,0,0,0,0,0c1.8,1.8,2.9,4.2,2.8,6.8
	c0,5.3-4.3,9.6-9.6,9.6c-5.3,0-9.6-4.3-9.5-9.6C148,109.1,149,106.7,150.8,104.9z"/>
<path class="st3" d="M184.8,98.4c-2.9,2.7-4.5,6.6-4.5,10.6v19.8h8.1V109c0-3.9,3.1-7,7-7c3.9,0,7,3.1,7,7l0,0v19.8h8.1V109
	c0-4-1.7-7.8-4.6-10.6c-2.7-2.9-6.5-4.5-10.5-4.5C191.4,93.9,187.6,95.5,184.8,98.4z"/>
<polygon class="st3" points="218.1,128.8 226.3,128.8 226.3,102.5 231.6,102.5 231.6,94.4 226.3,94.4 226.3,83.1 218.1,83.1 
	218.1,94.4 212.9,94.4 212.9,102.5 218.1,102.5 "/>
<rect x="235.2" y="94.4" class="st3" width="8.1" height="34.4"/>
<rect x="235.2" y="83.1" class="st3" width="8.1" height="8.1"/>
<path class="st3" d="M283.8,111.6c-0.1-9.8-8-17.7-17.8-17.8c-9.8,0-17.8,8-17.8,17.8c0,4.6,1.8,9.1,5,12.4
	c5.9,6.1,15.3,6.9,22.1,1.9v19.1h8.4V111.6z M272.8,118.4c-3.7,3.7-9.7,3.8-13.4,0.1c0,0-0.1-0.1-0.1-0.1c-3.7-3.7-3.8-9.7-0.1-13.4
	c0,0,0.1-0.1,0.1-0.1c1.8-1.8,4.2-2.9,6.8-2.8c2.5,0,5,1,6.8,2.8c1.8,1.8,2.9,4.2,2.8,6.8C275.6,114.2,274.6,116.6,272.8,118.4
	L272.8,118.4z"/>
<path class="st3" d="M275.6,145.1L275.6,145.1z"/>
<path class="st3" d="M303.9,129.3c4,0,7.8-1.7,10.6-4.5c2.9-2.7,4.6-6.5,4.6-10.5V94.5h-8.2v19.8c0,1.8-0.7,3.6-2,4.9
	c-1.3,1.3-3.1,2.1-4.9,2.1c-3.8-0.2-6.7-3.3-6.8-7V94.5h-8.4v19.8c0,4,1.6,7.8,4.5,10.5C296.1,127.7,299.9,129.3,303.9,129.3z"/>
<path class="st3" d="M184.2,71c4.7,0.1,9.3-1.8,12.6-5.3c2.3-2.4,3.9-5.3,4.7-8.6h-8.6c-0.4,1.1-1.1,2-1.9,2.9
	c-1.7,1.9-4.2,3-6.7,2.9c-1.8,0-3.6-0.5-5.1-1.4l21.8-14.2l-0.3-0.7c-1.4-3.3-3.7-6-6.6-8c-2.9-2-6.3-3-9.9-3
	c-4.7-0.1-9.3,1.8-12.5,5.2c-3.4,3.3-5.2,7.8-5.2,12.6c-0.1,4.7,1.8,9.2,5.2,12.5C174.9,69.2,179.4,71.1,184.2,71z M177.3,46.6
	c1.8-1.8,4.2-2.9,6.8-2.8c1.8,0,3.6,0.5,5.1,1.4l-14.5,9.4c-0.1-0.4-0.1-0.8,0-1.2C174.6,50.8,175.5,48.4,177.3,46.6z"/>
<path class="st3" d="M340.3,129.3c4.8,0.1,9.4-1.9,12.6-5.5c2.3-2.4,3.9-5.3,4.6-8.5h-8.6c-0.5,1-1.1,2-1.8,2.8
	c-1.7,1.9-4.2,3-6.8,2.9c-1.8,0-3.5-0.5-5-1.4l21.8-14v-0.7c-1.4-3.2-3.7-6-6.6-8c-2.9-2-6.3-3-9.9-3c-4.7-0.1-9.3,1.8-12.6,5.3
	c-3.4,3.3-5.2,7.9-5.1,12.6c-0.1,4.7,1.8,9.3,5.2,12.5C331.3,127.4,335.7,129.3,340.3,129.3z M333.5,104.9c1.7-1.9,4.2-2.9,6.8-2.8
	c1.8,0,3.5,0.5,5,1.4l-14.5,9.4c0-0.4,0-0.8,0-1.2C330.7,109.1,331.7,106.7,333.5,104.9z"/>
<polygon class="st3" points="93.2,62 74.4,62 74.4,24.8 66,24.8 66,70.5 93.2,70.5 "/>
<path class="st3" d="M96,128.7h9.1L88.9,83h-9.5l-16.2,45.7h9l2.8-7.6h18.2L96,128.7z M77.8,113.5l6.3-17.3l6.3,17.3L77.8,113.5z"/>
<rect x="134.3" y="24.6" class="st3" width="8.1" height="8.1"/>
</svg>
