<?xml version="1.0" encoding="utf-8"?>
<!-- Generator: Adobe Illustrator 24.1.2, SVG Export Plug-In . SVG Version: 6.00 Build 0)  -->
<svg version="1.1" id="calques" xmlns="http://www.w3.org/2000/svg" xmlns:xlink="http://www.w3.org/1999/xlink" x="0px" y="0px"
	 viewBox="0 0 583.3 200" style="enable-background:new 0 0 583.3 200;" xml:space="preserve">
<style type="text/css">
	.st0{enable-background:new    ;}
	.st1{fill:#004461;}
	.st2{fill:#AFCA00;}
	.st3{fill:#FFFFFF;}
</style>
<g id="Handicap">
	<g class="st0">
		<path d="M456.1,126.7h-6.8l-4.5-11.8c-0.4-1.1-1-1.9-1.8-2.3c-0.8-0.4-1.9-0.6-3.2-0.6h-6.4v14.8h-6.4V91.2h15.2
			c4,0,7.1,0.9,9.2,2.6c2.1,1.8,3.1,4.3,3.1,7.6c0,2.4-0.6,4.4-1.9,6c-1.2,1.6-3,2.8-5.3,3.5c2.1,0.4,3.6,1.9,4.5,4.4L456.1,126.7z
			 M441.2,106.9c2.4,0,4.2-0.4,5.4-1.3c1.2-0.9,1.7-2.3,1.7-4.1c0-1.8-0.6-3.1-1.7-4c-1.1-0.9-3-1.3-5.4-1.3h-8v10.8H441.2z"/>
		<path d="M485.6,101.5v25.2h-6.1v-4c-0.8,1.4-1.9,2.5-3.3,3.3c-1.4,0.8-3.1,1.2-4.9,1.2c-2.2,0-4.1-0.5-5.8-1.6s-3-2.6-3.9-4.5
			c-0.9-2-1.4-4.2-1.4-6.8s0.5-4.9,1.4-6.9c0.9-2,2.3-3.6,4-4.7c1.7-1.1,3.6-1.7,5.8-1.7c1.8,0,3.5,0.4,4.9,1.2
			c1.4,0.8,2.5,1.9,3.3,3.3v-3.8H485.6z M477.7,120c1.1-1.4,1.7-3.4,1.7-6c0-2.7-0.6-4.7-1.7-6.1c-1.1-1.4-2.7-2.1-4.8-2.1
			c-2.1,0-3.7,0.7-4.8,2.2c-1.1,1.5-1.7,3.5-1.7,6.2c0,2.6,0.6,4.6,1.7,6c1.1,1.4,2.8,2.1,4.9,2.1C475,122.2,476.6,121.5,477.7,120z
			"/>
		<path d="M515.8,111.2v15.5h-6.2v-15.2c0-2-0.4-3.4-1.1-4.4c-0.8-0.9-1.9-1.4-3.5-1.4c-1.9,0-3.4,0.6-4.6,1.8
			c-1.2,1.2-1.7,2.8-1.7,4.8v14.3h-6.2v-18c0-2.7-0.1-5-0.4-7.1h5.8l0.4,4.1c0.9-1.5,2-2.7,3.5-3.5c1.5-0.8,3.1-1.2,5-1.2
			C512.8,100.8,515.8,104.3,515.8,111.2z"/>
		<path d="M546.5,90v36.7h-6.1v-4c-0.8,1.4-1.9,2.5-3.3,3.3c-1.4,0.8-3.1,1.2-4.9,1.2c-2.2,0-4.1-0.5-5.8-1.6c-1.7-1.1-3-2.7-4-4.7
			c-0.9-2-1.4-4.3-1.4-6.9s0.5-4.9,1.4-6.8c0.9-2,2.2-3.5,3.9-4.6c1.7-1.1,3.6-1.6,5.8-1.6c1.8,0,3.4,0.4,4.8,1.1
			c1.4,0.7,2.5,1.8,3.3,3.2V90H546.5z M538.6,120c1.1-1.4,1.7-3.5,1.7-6.1s-0.6-4.7-1.7-6.1c-1.1-1.4-2.7-2.1-4.8-2.1
			c-2.1,0-3.7,0.7-4.9,2.1c-1.1,1.4-1.7,3.4-1.7,6c0,2.6,0.6,4.7,1.7,6.1c1.1,1.5,2.8,2.2,4.8,2.2S537.5,121.5,538.6,120z"/>
		<path d="M557.9,125.5c-1.9-1.1-3.4-2.6-4.5-4.6c-1-2-1.6-4.3-1.6-7c0-2.7,0.5-5,1.6-7c1-2,2.5-3.5,4.5-4.6
			c1.9-1.1,4.2-1.6,6.8-1.6c2.5,0,4.8,0.5,6.7,1.6c1.9,1.1,3.4,2.6,4.5,4.6c1,2,1.6,4.3,1.6,7c0,2.7-0.5,5-1.6,7s-2.5,3.5-4.5,4.6
			s-4.2,1.6-6.7,1.6C562.1,127.1,559.9,126.5,557.9,125.5z M569.5,120.1c1.1-1.4,1.7-3.4,1.7-6.2c0-2.7-0.6-4.7-1.7-6.2
			c-1.1-1.4-2.7-2.1-4.8-2.1c-2.1,0-3.7,0.7-4.8,2.1c-1.1,1.4-1.7,3.5-1.7,6.2c0,2.7,0.6,4.8,1.7,6.2c1.1,1.4,2.7,2.1,4.8,2.1
			C566.8,122.2,568.4,121.5,569.5,120.1z"/>
	</g>
</g>
<path class="st1" d="M188.6,45.2c-1.5-0.9-3.3-1.4-5.1-1.4c-2.5,0-5,1-6.8,2.8c-1.8,1.8-2.8,4.3-2.8,6.8c-0.1,0.4-0.1,0.8,0,1.2
	L188.6,45.2z"/>
<path class="st1" d="M344.8,103.5c-1.5-1-3.3-1.5-5-1.4c-2.6-0.1-5,0.9-6.8,2.8c-1.8,1.8-2.9,4.3-2.8,6.8c0,0.4,0,0.8,0,1.2
	L344.8,103.5z"/>
<path class="st1" d="M111,62.9c2.5,0,5-1,6.8-2.8c1.9-1.7,2.9-4.2,2.8-6.8c0-5.3-4.3-9.6-9.6-9.5c-2.5,0-4.9,1-6.7,2.8
	c-3.9,3.6-4.1,9.7-0.5,13.5c1.9,2,4.5,3.1,7.3,3.1L111,62.9z"/>
<path class="st1" d="M265.5,102.1c-2.5,0-5,1-6.8,2.8c-3.7,3.7-3.8,9.7-0.1,13.4c0,0,0.1,0.1,0.1,0.1c3.7,3.7,9.7,3.8,13.4,0.1
	c0,0,0.1-0.1,0.1-0.1c1.8-1.8,2.8-4.2,2.8-6.8c0-2.5-1-5-2.8-6.8C270.5,103.1,268.1,102,265.5,102.1z"/>
<path class="st1" d="M156.9,121.2c5.3,0,9.6-4.3,9.6-9.6c0-2.6-1.1-5-2.9-6.8c-3.7-3.7-9.8-3.8-13.6,0c0,0,0,0,0,0
	c-3.7,3.8-3.7,9.8,0,13.6c1.8,1.8,4.2,2.8,6.7,2.8H156.9z"/>
<path class="st1" d="M275.1,145.1V126c-6.8,5-16.3,4.2-22.2-1.9c-3.3-3.3-5.1-7.8-5-12.4c0-9.8,8-17.8,17.8-17.8
	c9.8,0,17.8,8,17.8,17.8v33.2h-1.1c29,0.4,62.6,1.8,101.9,4.5V44.9C241.6-10.2,69-7.5,3,33.1L57.6,197c9.1-5.5,18-10.7,26.7-15.4
	l0,0C127.2,158.2,171.9,144.3,275.1,145.1z M327.2,99.1c3.3-3.4,7.8-5.3,12.6-5.3c3.5,0,6.9,1,9.9,3c2.9,2,5.2,4.8,6.6,8v0.7
	l-21.8,14.2c1.5,0.9,3.3,1.4,5,1.4c2.6,0.1,5.2-1,6.9-2.9c0.7-0.8,1.4-1.8,1.8-2.8h8.6c-0.7,3.2-2.3,6.2-4.6,8.5
	c-3.2,3.6-7.8,5.6-12.6,5.5c-4.7,0.1-9.2-1.8-12.6-5.1c-3.4-3.2-5.3-7.8-5.2-12.5C321.8,107.1,323.7,102.5,327.2,99.1z M288.4,94.4
	h8.2v19.8c0.1,3.8,3.1,6.9,6.9,7c1.9,0,3.6-0.8,4.9-2.1c1.3-1.3,2.1-3,2-4.9V94.5h8.3v19.8c0,4-1.7,7.8-4.6,10.5
	c-5.5,5.8-14.8,6.1-20.6,0.6c-0.2-0.2-0.4-0.4-0.6-0.6c-2.9-2.7-4.5-6.5-4.5-10.5L288.4,94.4z M120.5,102.6H115v26.2h-8v-26.2h-5.3
	v-8.1h5.3V83.4h8.1v11.1h5.5L120.5,102.6z M134.4,128.8h-8.3V83h8.1L134.4,128.8z M234.8,83h8.1v8.1h-8.3L234.8,83z M234.8,94.1h8.1
	v34.3h-8.3L234.8,94.1z M212.7,94.1h5.3V83h7.8v11.1h5.3v8.1h-5.3v26.2h-8.1v-25.9h-5.3L212.7,94.1z M210.3,108.7v19.8h-8.5V109
	c0-3.9-3.1-7-7-7c-3.9,0-7,3.1-7,7l0,0v19.8h-8.1V109c0-4,1.6-7.8,4.5-10.6c2.8-2.9,6.6-4.5,10.6-4.5c4,0,7.8,1.6,10.5,4.5
	c2.9,2.8,4.6,6.6,4.6,10.6L210.3,108.7z M171.6,40.5c3.2-3.4,7.8-5.3,12.5-5.2c3.5,0,7,1,9.9,3c2.9,2,5.3,4.7,6.6,8l0.3,0.7
	l-22.4,14.2c1.5,0.9,3.3,1.4,5.1,1.4c2.6,0.1,5-1,6.7-2.9c0.8-0.8,1.4-1.8,1.9-2.9h8.6c-0.7,3.2-2.3,6.2-4.7,8.6
	c-3.2,3.5-7.8,5.4-12.6,5.3c-4.7,0.1-9.3-1.8-12.6-5.1c-3.4-3.3-5.3-7.8-5.2-12.5c0-4.6,1.9-9.1,5.2-12.4L171.6,40.5z M148.2,50.7
	c-0.1-4.1,1.7-8,4.7-10.7c3-2.9,6.9-4.5,11.1-4.4h0.9v8.1h-1.3c-2-0.1-4,0.6-5.5,2c-1.4,1.3-2.2,3.1-2.2,5v19.8h-7.8V50.7z
	 M156.9,93.9c4.7,0,9.3,1.9,12.6,5.3c3.4,3.3,5.3,7.8,5.2,12.5v17.1h-8.1V126c-6.8,4.9-16.3,4.1-22.2-1.9
	c-6.8-7.1-6.6-18.4,0.5-25.2c3.3-3.2,7.7-4.9,12.2-5H156.9z M133.7,24.5h8.1v8.1h-8.1V24.5z M133.7,36.1h8.1v34.4h-8.1V36.1z
	 M98.4,40.8c3.3-3.4,7.9-5.3,12.6-5.2c9.8,0.1,17.7,8,17.8,17.7c-0.1,9.9-8.2,17.8-18,17.7c-4.6,0-9-1.9-12.3-5.1
	C91.5,58.9,91.4,47.7,98.4,40.8C98.3,40.8,98.4,40.8,98.4,40.8z M65.1,24.8h8.5V62h18.8v8.5H65.3L65.1,24.8z M71.4,128.8h-8.8
	L78.8,83h9.5l16.2,45.8h-9.1l-2.8-7.6H74.3L71.4,128.8z"/>
<polygon class="st1" points="77.2,113.5 89.8,113.5 83.5,96.2 "/>
<path class="st2" d="M84.3,181.6h299.8v-31.7C210.8,139.2,149.8,146.7,84.3,181.6z"/>
<path class="st2" d="M384.9,149.9L384.9,149.9z"/>
<path class="st2" d="M384.1,149.9L384.1,149.9c-39.3-2.7-72.9-4.1-101.9-4.5h-7.1c-103.2-1.1-147.9,12.9-191,36.2l0,0
	C149.8,146.7,210.8,139.2,384.1,149.9z"/>
<path class="st3" d="M111,71c9.8,0,17.7-7.9,17.8-17.7c-0.1-9.8-8-17.7-17.8-17.7c-4.7,0-9.3,1.8-12.6,5.2c-6.9,6.9-6.9,18.1,0,25
	c0,0,0,0,0,0C101.7,69.2,106.2,71,111,71z M104.2,46.5c3.8-3.7,9.8-3.7,13.6,0c1.8,1.8,2.8,4.2,2.8,6.7c0.1,2.6-1,5-2.8,6.8
	c-3.5,4-9.5,4.5-13.5,1c-4-3.5-4.5-9.5-1-13.5C103.5,47.2,103.8,46.8,104.2,46.5z"/>
<rect x="133.7" y="36.1" class="st3" width="8.1" height="34.4"/>
<path class="st3" d="M156.3,50.7c-0.1-1.9,0.7-3.7,2.2-5c1.5-1.4,3.5-2.1,5.5-2h0.9v-8.1h-1.3c-4.1-0.1-8.1,1.5-11.1,4.4
	c-3,2.7-4.8,6.6-4.7,10.7v19.8h8.1L156.3,50.7z"/>
<polygon class="st3" points="115.1,83 107,83 107,94.4 101.7,94.4 101.7,102.6 107,102.6 107,128.8 115.1,128.8 115.1,102.6 
	120.4,102.6 120.4,94.4 115.1,94.4 "/>
<rect x="126.1" y="83" class="st3" width="8.1" height="45.8"/>
<path class="st3" d="M144.2,124c5.9,6.1,15.3,6.9,22.2,1.9v2.8h8.4v-17.1c0.1-4.7-1.8-9.3-5.2-12.5c-7.2-6.7-18.4-6.3-25.1,0.9
	C138.1,106.8,138,117.2,144.2,124z M150.2,104.9c3.7-3.7,9.8-3.8,13.6,0c0,0,0,0,0,0c1.8,1.8,2.9,4.2,2.8,6.8c0,5.3-4.3,9.6-9.6,9.6
	c-5.3,0-9.6-4.3-9.5-9.6C147.4,109.1,148.4,106.7,150.2,104.9z"/>
<path class="st3" d="M184.2,98.4c-2.9,2.8-4.6,6.6-4.5,10.6v19.8h8.1V109c0-3.9,3.1-7,7-7c3.9,0,7,3.1,7,7l0,0v19.8h8.1V109
	c0-4-1.7-7.8-4.6-10.6c-2.7-2.9-6.5-4.5-10.5-4.5C190.8,93.9,187,95.5,184.2,98.4z"/>
<polygon class="st3" points="217.5,128.8 225.7,128.8 225.7,102.6 231,102.6 231,94.4 225.7,94.4 225.7,83 217.5,83 217.5,94.4 
	212.3,94.4 212.3,102.6 217.5,102.6 "/>
<rect x="234.7" y="94.4" class="st3" width="8.1" height="34.4"/>
<rect x="234.7" y="83" class="st3" width="8.1" height="8.1"/>
<path class="st3" d="M283.3,111.6c-0.1-9.8-8-17.7-17.8-17.8c-9.8,0-17.8,8-17.8,17.8c0,4.6,1.8,9.1,5,12.4
	c5.9,6.1,15.3,6.9,22.2,1.9v19.1h8.4V111.6z M272.2,118.4c-3.7,3.7-9.7,3.8-13.4,0.1c0,0-0.1-0.1-0.1-0.1c-3.7-3.7-3.8-9.7-0.1-13.4
	c0,0,0.1-0.1,0.1-0.1c1.8-1.8,4.2-2.9,6.8-2.8c2.5,0,5,1,6.8,2.8c1.8,1.8,2.9,4.2,2.8,6.8C275.1,114.2,274.1,116.6,272.2,118.4
	L272.2,118.4z"/>
<path class="st3" d="M275.1,145.2L275.1,145.2z"/>
<path class="st3" d="M303.4,129.3c4,0,7.8-1.7,10.6-4.5c2.9-2.7,4.6-6.5,4.6-10.5V94.5h-8.2v19.8c0,1.8-0.7,3.6-2,4.9
	c-1.3,1.3-3.1,2.1-4.9,2.1c-3.8-0.2-6.7-3.3-6.8-7V94.5h-8.4v19.8c0,4,1.6,7.8,4.5,10.5C295.6,127.7,299.4,129.3,303.4,129.3z"/>
<path class="st3" d="M183.6,71c4.8,0.1,9.3-1.8,12.6-5.3c2.3-2.4,3.9-5.3,4.7-8.6h-8.6c-0.4,1.1-1.1,2-1.9,2.9
	c-1.7,1.9-4.2,3-6.7,2.9c-1.8,0-3.6-0.5-5.1-1.4l21.8-14.2l-0.3-0.7c-1.4-3.3-3.7-6-6.6-8c-2.9-2-6.3-3-9.9-3
	c-4.7-0.1-9.3,1.8-12.5,5.2c-3.4,3.3-5.3,7.9-5.2,12.6c-0.1,4.7,1.8,9.3,5.2,12.5C174.3,69.2,178.9,71,183.6,71z M176.7,46.5
	c1.8-1.8,4.2-2.9,6.8-2.8c1.8,0,3.6,0.5,5.1,1.4l-14.5,9.4c-0.1-0.4-0.1-0.8,0-1.2C174,50.8,174.9,48.4,176.7,46.5z"/>
<path class="st3" d="M339.8,129.3c4.8,0.1,9.4-2,12.6-5.5c2.3-2.4,3.9-5.3,4.6-8.5h-8.6c-0.5,1-1.1,2-1.8,2.8
	c-1.7,1.9-4.2,3-6.8,2.9c-1.8,0-3.5-0.5-5-1.4l21.8-14v-0.7c-1.4-3.2-3.7-6-6.6-8c-2.9-2-6.3-3-9.9-3c-4.7-0.1-9.3,1.8-12.6,5.3
	c-3.4,3.3-5.2,7.9-5.2,12.6c-0.1,4.7,1.8,9.3,5.2,12.5C330.8,127.4,335.2,129.3,339.8,129.3z M333,104.9c1.7-1.9,4.2-2.9,6.8-2.8
	c1.8,0,3.5,0.5,5,1.4l-14.5,9.4c0-0.4,0-0.8,0-1.2C330.2,109.1,331.2,106.7,333,104.9z"/>
<polygon class="st3" points="92.6,62 73.8,62 73.8,24.8 65.3,24.8 65.3,70.5 92.6,70.5 "/>
<path class="st3" d="M95.3,128.8h9.1L88.2,83h-9.5l-16.2,45.8h9l2.8-7.6h18.2L95.3,128.8z M77.2,113.5l6.3-17.3l6.3,17.3L77.2,113.5
	z"/>
<rect x="133.7" y="24.5" class="st3" width="8.1" height="8.1"/>
</svg>
