<?xml version="1.0" encoding="utf-8"?>
<!-- Generator: Adobe Illustrator 24.1.2, SVG Export Plug-In . SVG Version: 6.00 Build 0)  -->
<svg version="1.1" id="calques" xmlns="http://www.w3.org/2000/svg" xmlns:xlink="http://www.w3.org/1999/xlink" x="0px" y="0px"
	 viewBox="0 0 733.3 200" style="enable-background:new 0 0 733.3 200;" xml:space="preserve">
<style type="text/css">
	.st0{enable-background:new    ;}
	.st1{fill:#004461;}
	.st2{fill:#AFCA00;}
	.st3{fill:#FFFFFF;}
</style>
<g id="Handicap">
	<g class="st0">
		<path d="M432.4,124.7c-2.5-1.5-4.5-3.6-5.8-6.3s-2.1-5.9-2.1-9.6c0-3.7,0.7-6.9,2-9.6c1.4-2.7,3.3-4.8,5.8-6.3
			c2.5-1.5,5.5-2.2,8.9-2.2c3.4,0,6.4,0.7,8.9,2.2c2.5,1.5,4.5,3.5,5.8,6.3c1.3,2.7,2,5.9,2,9.6c0,3.7-0.7,6.9-2,9.6
			c-1.4,2.7-3.3,4.8-5.8,6.3c-2.5,1.5-5.5,2.2-8.9,2.2C437.9,126.9,434.9,126.2,432.4,124.7z M448.9,118.5c1.8-2.2,2.7-5.5,2.7-9.7
			c0-4.2-0.9-7.4-2.7-9.6c-1.8-2.2-4.4-3.3-7.6-3.3c-3.3,0-5.8,1.1-7.6,3.3c-1.8,2.2-2.7,5.4-2.7,9.6c0,4.2,0.9,7.4,2.7,9.7
			c1.8,2.2,4.4,3.4,7.6,3.4C444.5,121.8,447.1,120.7,448.9,118.5z"/>
		<path d="M484.2,102.4c1.7,1.1,3,2.6,3.9,4.5c0.9,1.9,1.4,4.2,1.4,6.8s-0.5,4.9-1.4,6.9c-0.9,2-2.2,3.5-3.9,4.6
			c-1.7,1.1-3.6,1.6-5.7,1.6c-1.9,0-3.5-0.4-4.9-1.2c-1.4-0.8-2.5-1.9-3.2-3.3v4.1h-6.1V90h6.1v15.2c0.8-1.4,1.9-2.5,3.3-3.2
			c1.4-0.8,3-1.2,4.9-1.2C480.6,100.8,482.5,101.4,484.2,102.4z M481.5,119.9c1.1-1.5,1.7-3.5,1.7-6.1c0-2.6-0.6-4.6-1.7-6
			s-2.7-2.1-4.8-2.1c-2.1,0-3.7,0.7-4.8,2.1c-1.1,1.4-1.7,3.4-1.7,6c0,2.6,0.6,4.7,1.7,6.1s2.7,2.1,4.9,2.1
			C478.8,122,480.4,121.3,481.5,119.9z"/>
		<path d="M493.2,123.7l1.7-4.4c2.7,2,5.7,3,9.2,3c1.5,0,2.6-0.2,3.4-0.7c0.8-0.5,1.2-1.2,1.2-2.1c0-0.8-0.3-1.4-0.8-1.8
			c-0.6-0.4-1.5-0.8-2.9-1.2l-4.2-0.9c-4.6-1-6.8-3.3-6.8-7c0-1.5,0.4-2.9,1.3-4c0.9-1.2,2.1-2.1,3.6-2.8c1.6-0.7,3.4-1,5.4-1
			c1.8,0,3.5,0.3,5.2,0.8c1.7,0.5,3.1,1.3,4.4,2.4l-1.8,4.2c-2.5-1.8-5.1-2.8-7.7-2.8c-1.4,0-2.5,0.3-3.3,0.8
			c-0.8,0.5-1.2,1.3-1.2,2.2c0,0.7,0.2,1.3,0.7,1.7c0.5,0.4,1.3,0.8,2.5,1.1l4.3,0.9c2.5,0.6,4.3,1.4,5.4,2.6
			c1.1,1.2,1.7,2.7,1.7,4.6c0,2.3-0.9,4.1-2.8,5.5c-1.9,1.4-4.4,2-7.6,2C499.5,126.9,495.9,125.8,493.2,123.7z"/>
		<path d="M541.6,114.3h-17.2c0.1,2.7,0.8,4.7,2,5.9c1.2,1.3,3,1.9,5.4,1.9c2.7,0,5.3-0.9,7.6-2.7l1.8,4.3c-1.2,1-2.7,1.7-4.4,2.3
			c-1.7,0.6-3.5,0.9-5.3,0.9c-4.1,0-7.3-1.2-9.7-3.5c-2.3-2.3-3.5-5.5-3.5-9.5c0-2.5,0.5-4.8,1.5-6.8c1-2,2.5-3.5,4.3-4.6
			c1.8-1.1,3.9-1.7,6.3-1.7c3.4,0,6.2,1.1,8.2,3.3c2,2.2,3,5.3,3,9.2V114.3z M526.5,106.7c-1,1-1.7,2.4-2,4.2h11.6
			c-0.2-1.9-0.8-3.3-1.7-4.3c-0.9-1-2.2-1.4-3.9-1.4C528.9,105.3,527.6,105.8,526.5,106.7z"/>
	</g>
	<g class="st0">
		<path d="M562.7,101.3l0,5.6c-1.1-0.4-2.1-0.6-3.3-0.6c-2.1,0-3.7,0.6-4.8,1.8c-1.1,1.2-1.7,2.8-1.7,4.9v13.5h-6.1v-17.9
			c0-2.6-0.1-5-0.4-7.1h5.8l0.5,4.4c0.6-1.6,1.6-2.9,3-3.7c1.4-0.9,2.9-1.3,4.6-1.3C561.2,100.9,562.1,101,562.7,101.3z"/>
	</g>
	<g class="st0">
		<path d="M585.3,101.5h6.1l-11,25H575l-10.8-25h6.5l7.2,17.9L585.3,101.5z"/>
	</g>
	<g class="st0">
		<path d="M618.1,101.5v25H612v-4c-0.8,1.4-1.9,2.5-3.3,3.2c-1.4,0.8-3,1.2-4.9,1.2c-2.2,0-4.1-0.5-5.8-1.6c-1.7-1.1-3-2.6-3.9-4.5
			c-0.9-1.9-1.4-4.2-1.4-6.8s0.5-4.9,1.4-6.9c0.9-2,2.3-3.6,3.9-4.7c1.7-1.1,3.6-1.7,5.7-1.7c1.8,0,3.4,0.4,4.9,1.2s2.5,1.9,3.3,3.2
			v-3.8H618.1z M610.4,119.9c1.1-1.4,1.7-3.4,1.7-6c0-2.6-0.6-4.7-1.7-6.1c-1.1-1.4-2.7-2.1-4.8-2.1c-2,0-3.6,0.7-4.8,2.2
			c-1.1,1.5-1.7,3.5-1.7,6.1c0,2.6,0.6,4.6,1.7,5.9s2.8,2.1,4.8,2.1C607.6,122,609.2,121.3,610.4,119.9z"/>
		<path d="M632.8,106.1v11.2c0,2.9,1.4,4.4,4.1,4.4c0.8,0,1.6-0.1,2.5-0.4v4.9c-1.1,0.4-2.4,0.6-4,0.6c-2.8,0-5-0.8-6.5-2.4
			c-1.5-1.6-2.3-3.9-2.3-6.8v-11.5h-4.8v-4.7h4.8v-6.1l6.2-2.1v8.2h6.6v4.7H632.8z"/>
		<path d="M648.3,125.3c-1.9-1.1-3.4-2.6-4.5-4.5c-1-2-1.6-4.3-1.6-6.9c0-2.6,0.5-4.9,1.6-6.9c1-2,2.5-3.5,4.5-4.5s4.2-1.6,6.7-1.6
			c2.5,0,4.7,0.5,6.6,1.6s3.4,2.6,4.4,4.5c1,2,1.6,4.3,1.6,6.9c0,2.6-0.5,4.9-1.6,6.9s-2.5,3.5-4.4,4.5c-1.9,1.1-4.1,1.6-6.6,1.6
			C652.5,126.9,650.2,126.4,648.3,125.3z M659.8,120c1.1-1.4,1.7-3.4,1.7-6.1c0-2.7-0.6-4.7-1.7-6.1c-1.1-1.4-2.7-2.1-4.8-2.1
			c-2.1,0-3.7,0.7-4.8,2.1c-1.1,1.4-1.7,3.4-1.7,6.1c0,2.7,0.6,4.8,1.7,6.1c1.1,1.4,2.7,2.1,4.8,2.1
			C657.1,122,658.7,121.3,659.8,120z"/>
		<path d="M672.6,90.1h6.9v6.1h-6.9V90.1z M673,126.5v-25h6.1v25H673z"/>
	</g>
	<g class="st0">
		<path d="M701.9,101.3l0,5.6c-1.1-0.4-2.1-0.6-3.3-0.6c-2.1,0-3.7,0.6-4.8,1.8c-1.1,1.2-1.7,2.8-1.7,4.9v13.5h-6.1v-17.9
			c0-2.6-0.1-5-0.4-7.1h5.8l0.5,4.4c0.6-1.6,1.6-2.9,3-3.7c1.4-0.9,2.9-1.3,4.6-1.3C700.4,100.9,701.2,101,701.9,101.3z"/>
	</g>
	<g class="st0">
		<path d="M726.8,114.3h-17.2c0.1,2.7,0.8,4.7,2,5.9c1.2,1.3,3,1.9,5.4,1.9c2.7,0,5.3-0.9,7.6-2.7l1.8,4.3c-1.2,1-2.7,1.7-4.4,2.3
			c-1.7,0.6-3.5,0.9-5.3,0.9c-4.1,0-7.3-1.2-9.7-3.5c-2.3-2.3-3.5-5.5-3.5-9.5c0-2.5,0.5-4.8,1.5-6.8c1-2,2.5-3.5,4.3-4.6
			c1.8-1.1,3.9-1.7,6.3-1.7c3.4,0,6.2,1.1,8.2,3.3c2,2.2,3,5.3,3,9.2V114.3z M711.7,106.7c-1,1-1.7,2.4-2,4.2h11.6
			c-0.2-1.9-0.8-3.3-1.7-4.3c-0.9-1-2.2-1.4-3.9-1.4C714.1,105.3,712.8,105.8,711.7,106.7z"/>
	</g>
</g>
<path class="st1" d="M188.7,45.5c-1.5-0.9-3.3-1.4-5.1-1.4c-2.5,0-5,1-6.7,2.8c-1.8,1.8-2.8,4.2-2.8,6.8c-0.1,0.4-0.1,0.8,0,1.2
	L188.7,45.5z"/>
<path class="st1" d="M344,103.5c-1.5-1-3.2-1.5-5-1.4c-2.5-0.1-5,0.9-6.7,2.8c-1.8,1.8-2.8,4.2-2.8,6.8c0,0.4,0,0.8,0,1.2L344,103.5
	z"/>
<path class="st1" d="M111.5,63.1c2.5,0,5-1,6.7-2.8c1.8-1.7,2.9-4.2,2.8-6.7c0-5.3-4.3-9.5-9.6-9.5c-2.5,0-4.9,1-6.7,2.8
	c-3.9,3.6-4.1,9.6-0.5,13.5c1.9,2,4.5,3.1,7.2,3.1L111.5,63.1z"/>
<path class="st1" d="M265.2,102c-2.5,0-5,1-6.7,2.8c-3.7,3.6-3.8,9.6-0.1,13.3c0,0,0.1,0.1,0.1,0.1c3.6,3.7,9.6,3.8,13.3,0.1
	c0,0,0.1-0.1,0.1-0.1c1.8-1.8,2.8-4.2,2.8-6.7c0-2.5-1-5-2.8-6.7C270.1,103,267.7,102,265.2,102z"/>
<path class="st1" d="M157.3,121.1c5.3,0,9.6-4.3,9.6-9.5c0-2.5-1-5-2.9-6.7c-3.7-3.7-9.7-3.7-13.5,0c0,0,0,0,0,0
	c-3.7,3.7-3.7,9.8,0,13.5c1.8,1.8,4.2,2.8,6.7,2.8H157.3z"/>
<path class="st1" d="M274.7,144.8v-19c-6.8,5-16.2,4.1-22-1.9c-3.2-3.3-5.1-7.7-5-12.3c0-9.8,7.9-17.7,17.7-17.7
	c9.8,0,17.7,7.9,17.7,17.7v33h-1c28.9,0.4,62.2,1.8,101.3,4.5V45.3C241.4-9.5,69.8-6.8,4.2,33.5l54.3,162.9
	c9.1-5.5,17.8-10.7,26.5-15.3l0,0C127.7,157.9,172.2,144.1,274.7,144.8z M326.5,99.1c3.3-3.4,7.8-5.3,12.5-5.2c3.5,0,6.9,1,9.8,3
	c2.9,2,5.2,4.8,6.6,8v0.7l-21.6,14.1c1.5,0.9,3.2,1.4,5,1.4c2.6,0.1,5.1-1,6.9-2.9c0.7-0.8,1.4-1.8,1.8-2.8h8.6
	c-0.7,3.2-2.3,6.1-4.6,8.5c-3.2,3.6-7.8,5.6-12.6,5.5c-4.7,0.1-9.2-1.8-12.5-5.1c-3.4-3.2-5.3-7.7-5.2-12.4
	C321.1,107.1,323,102.4,326.5,99.1z M287.9,94.4h8.1v19.7c0.1,3.8,3.1,6.8,6.9,6.9c1.9,0,3.6-0.8,4.9-2.1c1.3-1.3,2.1-3,2-4.8V94.5
	h8.2v19.7c0,4-1.7,7.8-4.6,10.5c-5.5,5.8-14.7,6.1-20.5,0.6c-0.2-0.2-0.4-0.4-0.6-0.6c-2.9-2.7-4.5-6.5-4.5-10.5L287.9,94.4z
	 M121.1,102.5h-5.5v26h-8v-26h-5.2v-8h5.2v-11h8.1v11h5.5L121.1,102.5z M134.8,128.6h-8.3V83.1h8.1L134.8,128.6z M234.7,83.2h8v8.1
	h-8.2L234.7,83.2z M234.7,94.2h8v34.1h-8.2L234.7,94.2z M212.6,94.2h5.2v-11h7.7v11h5.2v8.1h-5.2v26h-8.1v-25.8h-5.2L212.6,94.2z
	 M210.3,108.6v19.7h-8.5v-19.4c0-3.8-3.1-6.9-6.9-6.9c-3.8,0-6.9,3.1-6.9,6.9l0,0v19.7h-8.1v-19.7c0-4,1.6-7.8,4.5-10.5
	c2.7-2.9,6.5-4.5,10.5-4.5c4,0,7.7,1.6,10.5,4.5c2.9,2.7,4.5,6.5,4.6,10.5L210.3,108.6z M171.8,40.9c3.2-3.4,7.7-5.3,12.4-5.2
	c3.5,0,6.9,1,9.8,3c2.9,1.9,5.2,4.7,6.6,7.9l0.3,0.7l-22.3,14.2c1.5,0.9,3.3,1.4,5.1,1.4c2.5,0.1,5-1,6.7-2.9
	c0.8-0.8,1.4-1.8,1.9-2.9h8.6c-0.7,3.2-2.3,6.2-4.6,8.5c-3.2,3.5-7.8,5.4-12.5,5.2c-4.7,0.1-9.2-1.8-12.6-5.1
	c-3.4-3.2-5.3-7.8-5.2-12.4c0-4.6,1.9-9,5.2-12.3L171.8,40.9z M148.6,51c-0.1-4.1,1.7-7.9,4.7-10.6c2.9-2.9,6.9-4.5,11-4.4h0.9v8.1
	h-1.3c-2-0.1-4,0.6-5.5,2c-1.4,1.3-2.2,3.1-2.1,5v19.7h-7.7V51z M157.3,93.9c4.7,0,9.2,1.8,12.5,5.2c3.4,3.2,5.3,7.8,5.2,12.4v17
	h-8.1v-2.8c-6.8,4.9-16.2,4.1-22-1.9c-6.8-7.1-6.6-18.3,0.5-25.1c3.3-3.1,7.6-4.9,12.2-4.9H157.3z M134.2,25h8.1v8.1h-8.1V25z
	 M134.2,36.5h8.1v34.2h-8.1V36.5z M99,41.1c3.3-3.4,7.8-5.2,12.5-5.2c9.7,0.1,17.6,7.9,17.7,17.6c-0.1,9.8-8.1,17.6-17.9,17.5
	c-4.6,0-9-1.9-12.3-5.1C92.2,59.2,92.2,48.1,99,41.1C99,41.2,99,41.2,99,41.1z M66,25.2h8.4v37h18.7v8.4H66.2L66,25.2z M72.2,128.6
	h-8.8l16.1-45.5H89l16.1,45.5h-9l-2.8-7.6H75.2L72.2,128.6z"/>
<polygon class="st1" points="78,113.4 90.5,113.4 84.2,96.2 "/>
<path class="st2" d="M85.1,181.1h298v-31.5C210.8,138.9,150.1,146.4,85.1,181.1z"/>
<path class="st2" d="M383.8,149.6L383.8,149.6z"/>
<path class="st2" d="M383.1,149.6L383.1,149.6c-39-2.6-72.4-4.1-101.3-4.5h-7.1c-102.5-1-147,12.8-189.8,36l0,0
	C150.1,146.4,210.8,138.9,383.1,149.6z"/>
<path class="st3" d="M111.5,71.1c9.7,0,17.6-7.8,17.7-17.6c-0.1-9.7-8-17.6-17.7-17.6c-4.7,0-9.2,1.8-12.5,5.2
	c-6.9,6.8-6.9,18,0,24.8c0,0,0,0,0,0C102.3,69.4,106.9,71.2,111.5,71.1z M104.8,46.9c3.7-3.7,9.8-3.7,13.5,0
	c1.8,1.8,2.8,4.2,2.8,6.7c0.1,2.5-1,5-2.8,6.7c-3.4,4-9.5,4.4-13.4,1c-4-3.4-4.4-9.5-1-13.4C104.1,47.5,104.5,47.2,104.8,46.9z"/>
<rect x="134.2" y="36.5" class="st3" width="8.1" height="34.2"/>
<path class="st3" d="M156.6,51c-0.1-1.9,0.7-3.7,2.1-5c1.5-1.4,3.5-2.1,5.5-2h0.9V36h-1.3c-4.1-0.1-8.1,1.5-11,4.4
	c-3,2.7-4.7,6.6-4.7,10.6v19.7h8.1L156.6,51z"/>
<polygon class="st3" points="115.7,83.2 107.6,83.2 107.6,94.4 102.4,94.4 102.4,102.5 107.6,102.5 107.6,128.6 115.7,128.6 
	115.7,102.5 120.9,102.5 120.9,94.4 115.7,94.4 "/>
<rect x="126.6" y="83.1" class="st3" width="8.1" height="45.5"/>
<path class="st3" d="M144.6,123.9c5.8,6,15.2,6.8,22,1.9v2.8h8.3v-17c0.1-4.7-1.8-9.2-5.2-12.4c-7.2-6.6-18.3-6.2-25,0.9
	C138.5,106.7,138.5,117.1,144.6,123.9z M150.5,104.8c3.7-3.7,9.7-3.7,13.5,0c0,0,0,0,0,0c1.8,1.7,2.8,4.2,2.8,6.7
	c0,5.3-4.3,9.5-9.6,9.5c-5.3,0-9.5-4.3-9.5-9.6C147.8,109,148.8,106.6,150.5,104.8z"/>
<path class="st3" d="M184.4,98.4c-2.9,2.7-4.5,6.5-4.5,10.5v19.7h8.1v-19.7c0-3.8,3.1-6.9,6.9-6.9c3.8,0,6.9,3.1,6.9,6.9l0,0v19.7
	h8.1v-19.7c0-4-1.7-7.8-4.6-10.5c-2.7-2.9-6.5-4.5-10.5-4.5C190.9,93.9,187.1,95.5,184.4,98.4z"/>
<polygon class="st3" points="217.5,128.6 225.6,128.6 225.6,102.5 230.9,102.5 230.9,94.4 225.6,94.4 225.6,83.2 217.5,83.2 
	217.5,94.4 212.3,94.4 212.3,102.5 217.5,102.5 "/>
<rect x="234.5" y="94.4" class="st3" width="8.1" height="34.2"/>
<rect x="234.5" y="83.2" class="st3" width="8.1" height="8.1"/>
<path class="st3" d="M282.9,111.6c-0.1-9.7-8-17.6-17.7-17.7c-9.8,0-17.7,7.9-17.7,17.7c0,4.6,1.8,9,5,12.3c5.8,6.1,15.2,6.9,22,1.9
	v19h8.3V111.6z M271.8,118.3c-3.6,3.7-9.6,3.8-13.3,0.1c0,0-0.1-0.1-0.1-0.1c-3.7-3.6-3.8-9.6-0.1-13.3c0,0,0.1-0.1,0.1-0.1
	c1.7-1.8,4.2-2.8,6.7-2.8c2.5,0,5,1,6.7,2.8c1.8,1.7,2.8,4.2,2.8,6.7C274.7,114.1,273.7,116.5,271.8,118.3L271.8,118.3z"/>
<path class="st3" d="M274.7,144.9L274.7,144.9z"/>
<path class="st3" d="M302.8,129.1c4,0,7.8-1.6,10.5-4.5c2.9-2.7,4.6-6.5,4.6-10.5V94.5h-8.1v19.7c0,1.8-0.7,3.6-2,4.8
	c-1.3,1.3-3,2.1-4.9,2.1c-3.7-0.2-6.7-3.2-6.7-7V94.5h-8.3v19.7c0,4,1.6,7.7,4.5,10.5C295,127.5,298.8,129.1,302.8,129.1z"/>
<path class="st3" d="M183.7,71.1c4.7,0.1,9.3-1.8,12.5-5.2c2.3-2.4,3.9-5.3,4.6-8.5h-8.6c-0.4,1.1-1.1,2-1.9,2.9
	c-1.7,1.9-4.1,2.9-6.7,2.9c-1.8,0-3.5-0.5-5.1-1.4l21.7-14.1l-0.3-0.7c-1.4-3.2-3.7-6-6.6-7.9c-2.9-2-6.3-3-9.8-3
	c-4.7-0.1-9.2,1.8-12.4,5.2c-3.4,3.3-5.2,7.8-5.2,12.5c-0.1,4.7,1.8,9.2,5.2,12.4C174.5,69.4,179,71.2,183.7,71.1z M176.9,46.9
	c1.7-1.8,4.2-2.8,6.7-2.8c1.8,0,3.5,0.5,5.1,1.4l-14.4,9.4c-0.1-0.4-0.1-0.8,0-1.2C174.2,51.1,175.1,48.7,176.9,46.9z"/>
<path class="st3" d="M339,129.1c4.8,0.1,9.4-1.9,12.6-5.5c2.3-2.4,3.8-5.3,4.6-8.5h-8.6c-0.5,1-1.1,2-1.8,2.8
	c-1.7,1.9-4.2,3-6.7,2.9c-1.8,0-3.5-0.5-5-1.4l21.6-13.9v-0.7c-1.4-3.2-3.7-6-6.6-8c-2.9-2-6.3-3-9.8-3c-4.7-0.1-9.2,1.8-12.5,5.2
	c-3.3,3.3-5.2,7.8-5.1,12.5c-0.1,4.7,1.8,9.2,5.2,12.4C330,127.3,334.4,129.1,339,129.1z M332.2,104.8c1.7-1.9,4.2-2.9,6.7-2.8
	c1.8,0,3.5,0.5,5,1.4l-14.4,9.4c0-0.4,0-0.8,0-1.2C329.5,109.1,330.5,106.6,332.2,104.8z"/>
<polygon class="st3" points="93.3,62.2 74.6,62.2 74.6,25.2 66.2,25.2 66.2,70.7 93.3,70.7 "/>
<path class="st3" d="M96,128.6h9L89,83.1h-9.4l-16.1,45.5h8.9l2.8-7.6h18.1L96,128.6z M78,113.4l6.3-17.2l6.3,17.2L78,113.4z"/>
<rect x="134.2" y="25" class="st3" width="8.1" height="8.1"/>
</svg>
