<svg id="Calque_1" data-name="Calque 1" xmlns="http://www.w3.org/2000/svg" width="430" height="90" viewBox="0 0 430 90"><path d="M83.24669,42.11989A40.1565,40.1565,0,1,1,43.089,1.96069,40.15753,40.15753,0,0,1,83.24669,42.11989Z" style="fill:#afca0b"/><path d="M92.57339,30.73119a1.99785,1.99785,0,0,0-1.4537-.9512.88319.88319,0,0,0-.2944-.0449c-.9512,0-4.4551,1.3144-10.5664,3.6396-3.4268,1.3037-7.311,2.7803-10.5156,3.8877l-.7671.2657c-5.1665,1.79-10.0469,3.4814-16.4526,3.5156l-.1241.001c-3.8842,0-6.5219-1.1612-7.851-3.4541l1.0087-.4659c2.8838-1.331,7.0425-5.1123,7.2569-9.3466a3.88026,3.88026,0,0,0-2.3794-4.0342,2.75235,2.75235,0,0,0-.9805-.166,6.828,6.828,0,0,0-3.7456,1.4355,13.63992,13.63992,0,0,0-4.2891,6.8135,14.03434,14.03434,0,0,0-.3959,3.6289c-.0005.0723-.0005.1426-.0015.2109a13.23589,13.23589,0,0,1-3.0488.3125,18.6189,18.6189,0,0,1-2.1846-.1269,17.26825,17.26825,0,0,1-11.7739-5.9883,53.1129,53.1129,0,0,1-7.0035-9.5527l-1.0781-1.7286a51.23388,51.23388,0,0,1-4.4248-8.9091l-.6157-1.4795c-.9678-2.3086-1.7192-4.7686-2.0288-5.7813a1.70926,1.70926,0,0,0-1.709-1.2031,2.43416,2.43416,0,0,0-1.8379.875,2.77737,2.77737,0,0,0-.5376,2.3144,57.04982,57.04982,0,0,0,3.1152,10.5684c.3975,1.0869.8345,2.2852,1.3189,3.6504.9409,2.6543,2.189,5.8584,3.5107,9.252,1.9385,4.9765,4.1358,10.6171,5.9004,15.9033a106.80446,106.80446,0,0,1,4.6846,19.0263,43.66312,43.66312,0,0,0,1.0859,4.6905c.0015.3554.0196.7138.0376,1.0771a12.52181,12.52181,0,0,1-.0175,2.166,2.84175,2.84175,0,0,0,1.1474,2.0498,2.28068,2.28068,0,0,0,1.6919.2334c.1162-.0185.2334-.0371.3438-.0478a1.89973,1.89973,0,0,0,1.2133-1.0733,4.42306,4.42306,0,0,0-1.1391-3.79c-.9307-3.2373-1.7876-6.8936-2.6924-11.4941a124.32819,124.32819,0,0,0-5.7793-18.917l-.541-1.4795c-2.2398-6.1338-4.1548-10.9365-5.8447-15.1739-.98-2.458-1.9058-4.7783-2.7212-6.9355A77.72146,77.72146,0,0,1,7.68029,6.573a75.43278,75.43278,0,0,0,8.1235,16.5527c3.3765,5.125,6.1831,9.0147,11.5782,12.3994,2.934,1.8428,7.9682,2.9268,12.7299,2.7022l.1035-.0078c.1421-.0118.4082-.0323.6954-.0323a6.29913,6.29913,0,0,1,.7348.0577c.1319.2167.2486.4208.3614.6171a10.60423,10.60423,0,0,0,1.4028,2.0186,8.8006,8.8006,0,0,0,2.1777,1.5225,17.31783,17.31783,0,0,0,7.6196,1.5283,25.69349,25.69349,0,0,0,3.5879-.251,50.46411,50.46411,0,0,0,5.5713-1.1982c.5767-.1475,1.167-.2979,1.8365-.4649l9.3916-3.3584c2.0512-.7754,4.0986-1.6074,6.0781-2.4121,3.248-1.3193,6.5986-2.6816,10.0478-3.8223a.8877.8877,0,0,1-.185.1534,92.91237,92.91237,0,0,1-14.5308,6.8925c-1.9414.7891-3.9497,1.6045-5.8887,2.4512l-1.7534.7666a68.27324,68.27324,0,0,1-9.3457,3.4785l-.1264.0235c-2.4278.4384-3.8599.8701-3.9961,1.7793l-.1485.9912c-1.4829,9.8906-2.8833,19.2324-3.0635,29.9414l.0196.2822.1596.1621a1.04064,1.04064,0,0,0,.7525.2393c.3227,0,1.6001-.1231,1.9599-.7227a1.74536,1.74536,0,0,0,.2007-1.0976c-.0068-.1211-.0151-.2559-.0102-.4102.3174-8.7881.7334-17.3574,2.313-25.5879.0947-.4971.144-.8926.185-1.2256a3.46828,3.46828,0,0,1,.2075-1.001c13.4893-4.5966,19.0372-7.1484,31.2935-12.9423,3.3228-1.5762,4.0478-1.9619,4.6592-3.4766A2.77214,2.77214,0,0,0,92.57339,30.73119Zm-48.814,4.3056a7.81533,7.81533,0,0,1,.0508-1.1533,10.90569,10.90569,0,0,1,1.4409-4.0322c1.5337-2.5264,2.9814-3.167,3.5327-3.3252a1.87962,1.87962,0,0,1,.5239-.0781,1.04555,1.04555,0,0,1,.7886.3008,1.90136,1.90136,0,0,1,.3628,1.4091C50.37949,29.81909,46.588,34.51629,43.75939,35.03679Z" style="fill:#004563"/><path d="M266.917,19.97779l22.8457,68.5268c28.126-17.001,46.8467-25.8681,136.875-19.7666V25.03239c-59.6621-23.165-132.0801-22.0566-159.7207-5.0546" style="fill:#004563"/><path d="M314.90436,31.259a4.00163,4.00163,0,1,1-5.666-5.6523,4.00173,4.00173,0,1,1,5.666,5.6523m-2.833-10.2578a7.4555,7.4555,0,0,0-7.42482,7.4258,7.43173,7.43173,0,1,0,12.67382-5.2344,7.19921,7.19921,0,0,0-5.249-2.1914" style="fill:#fff"/><rect x="321.59774" y="21.22189" width="3.4023" height="14.3848" style="fill:#fff"/><rect x="321.59774" y="16.46989" width="3.4023" height="3.4073" style="fill:#fff"/><path d="M329.60354,22.87419a5.91358,5.91358,0,0,0-1.9668,4.4561v8.2744h3.4209v-8.2744a2.63944,2.63944,0,0,1,.9043-2.0732,3.14291,3.14291,0,0,1,2.2276-.8379h.3877v-3.42l-.3897.002a6.59305,6.59305,0,0,0-4.584,1.873" style="fill:#fff"/><polygon points="313.824 40.855 310.406 40.855 310.406 45.607 308.214 45.607 308.214 49.025 310.406 49.025 310.406 59.995 313.824 59.995 313.824 49.025 316.028 49.025 316.028 45.607 313.824 45.607 313.824 40.855" style="fill:#fff"/><rect x="318.40144" y="40.85859" width="3.4053" height="19.1363" style="fill:#fff"/><path d="M334.15244,55.64429a3.9603,3.9603,0,1,1,1.1845-2.8301,3.85182,3.85182,0,0,1-1.1845,2.8301m-2.834-10.2554a7.44933,7.44933,0,0,0-5.33008,12.6313,7.09995,7.09995,0,0,0,9.34858.7989v1.1758h3.419v-7.1807a7.47832,7.47832,0,0,0-7.4375-7.4253" style="fill:#fff"/><path d="M347.15244,45.38889a6.50938,6.50938,0,0,0-6.3252,6.3276v8.2784h3.414v-8.2784a2.91029,2.91029,0,0,1,5.8203,0v8.2784h3.42482v-8.2784a6.54772,6.54772,0,0,0-6.33392-6.3276" style="fill:#fff"/><polygon points="360.069 40.859 356.649 40.859 356.649 45.607 354.462 45.607 354.462 49.026 356.649 49.026 356.649 59.995 360.069 59.995 360.069 49.026 362.274 49.026 362.274 45.607 360.069 45.607 360.069 40.859" style="fill:#fff"/><rect x="363.80374" y="45.60669" width="3.4043" height="14.3882" style="fill:#fff"/><rect x="363.80374" y="40.85859" width="3.4043" height="3.4024" style="fill:#fff"/><path d="M379.54594,55.64429a3.94864,3.94864,0,1,1,1.1895-2.8301,3.82393,3.82393,0,0,1-1.1895,2.8301m-2.8291-10.2554a7.44616,7.44616,0,0,0-7.4219,7.4253,7.283,7.283,0,0,0,2.0889,5.206,7.104,7.104,0,0,0,9.3516.7989v8.0341h3.4238v-14.039a7.47984,7.47984,0,0,0-7.4424-7.4253" style="fill:#fff"/><path d="M395.46394,53.90789a2.91128,2.91128,0,0,1-5.8223,0v-8.2993h-3.4189v8.2993a6.48932,6.48932,0,0,0,6.3291,6.3018,6.12288,6.12288,0,0,0,4.4101-1.8916,6.01617,6.01617,0,0,0,1.9209-4.4102v-8.2993h-3.4189Z" style="fill:#fff"/><path d="M338.41414,28.45239a3.89146,3.89146,0,0,1,1.164-2.8496,3.7925,3.7925,0,0,1,2.8291-1.1817,3.90983,3.90983,0,0,1,2.1192.6035l-6.0674,3.9356a3.38108,3.38108,0,0,1-.0449-.5078m6.8555,2.7656a3.62948,3.62948,0,0,1-2.82328,1.2168,3.91222,3.91222,0,0,1-2.11912-.6055l9.1162-5.9238-.1328-.3027a7.68772,7.68772,0,0,0-2.78128-3.3496,7.29034,7.29034,0,0,0-4.12212-1.252,7.14078,7.14078,0,0,0-5.25088,2.1934,7.23608,7.23608,0,0,0-2.16122,5.2578,7.07744,7.07744,0,0,0,2.1817,5.2383,7.27493,7.27493,0,0,0,5.26952,2.1357,7.02336,7.02336,0,0,0,5.26468-2.2188,7.49973,7.49973,0,0,0,1.94432-3.5742h-3.62112a4.42292,4.42292,0,0,1-.7646,1.1846" style="fill:#fff"/><path d="M403.76864,52.83659a3.89027,3.89027,0,0,1,1.1631-2.8447,3.76911,3.76911,0,0,1,2.8291-1.1865,3.91675,3.91675,0,0,1,2.1191.6035l-6.0674,3.9375a2.98768,2.98768,0,0,1-.0439-.5098m7.6191,1.5801a4.57022,4.57022,0,0,1-.7646,1.1895,3.63551,3.63551,0,0,1-2.8243,1.2129,3.886,3.886,0,0,1-2.121-.5996l9.1142-5.9268-.126-.3027a7.70184,7.70184,0,0,0-2.7871-3.3501,7.2478,7.2478,0,0,0-4.1181-1.251,7.14594,7.14594,0,0,0-5.252,2.187,7.25634,7.25634,0,0,0-2.1611,5.2607,7.06974,7.06974,0,0,0,2.1777,5.2383,7.263,7.263,0,0,0,5.2734,2.1348,7.02176,7.02176,0,0,0,5.2666-2.2168,7.50613,7.50613,0,0,0,1.9385-3.5762Z" style="fill:#fff"/><polygon points="296.532 16.485 292.98 16.485 292.98 35.607 304.371 35.607 304.371 32.064 296.532 32.064 296.532 16.485" style="fill:#fff"/><path d="M297.93754,53.59839l2.6426-7.2398,2.6377,7.2398Zm7.6035,6.3818h3.8077l-6.7823-19.1323h-3.959l-6.7568,19.1323h3.7539l1.167-3.1836h7.6123Z" style="fill:#fff"/><path d="M300.86724,82.06319h125.7656V68.74c-77.8359-5.2793-102.3672.6367-125.7656,13.3232" style="fill:#afca0b"/><rect x="246.79984" y="7.52069" width="1.4336" height="74.6831" style="fill:#004563"/><path d="M117.70178,27.26664l3.69971,20.86621h.09863l3.69922-20.86621h13.12159V62.48735h-8.583V36.24418h-.09864L124.7555,62.48735h-6.60987l-4.88379-26.24317h-.09863V62.48735h-8.583V27.26664Z" style="fill:#004563"/><path d="M155.63538,27.26664a11.28732,11.28732,0,0,1,6.21533,1.45508,9.03275,9.03275,0,0,1,3.32959,3.89649,16.61618,16.61618,0,0,1,1.35645,5.624q.24682,3.18164.24707,6.63476,0,3.45264-.24707,6.63477a16.61047,16.61047,0,0,1-1.35645,5.623,9.0298,9.0298,0,0,1-3.32959,3.89746,11.279,11.279,0,0,1-6.21533,1.45508H142.31653V27.26664ZM153.317,55.877a5.05667,5.05667,0,0,0,2.12109-.37011,2.52042,2.52042,0,0,0,1.2085-1.55371,12.69021,12.69021,0,0,0,.54248-3.3545q.123-2.16942.12353-5.72168,0-3.55224-.12353-5.72265a12.71205,12.71205,0,0,0-.54248-3.35449,2.526,2.526,0,0,0-1.2085-1.55371A5.07209,5.07209,0,0,0,153.317,33.876h-1.8252V55.877Z" style="fill:#004563"/><path d="M184.048,27.26664a11.29894,11.29894,0,0,1,4.53808.83789,8.76107,8.76107,0,0,1,3.18164,2.29395,9.22184,9.22184,0,0,1,1.8501,3.42871,14.88218,14.88218,0,0,1,.5918,4.292q0,5.47413-2.93506,8.21289-2.93554,2.7378-8.60791,2.73731h-3.20606v13.418h-9.17529V27.26664ZM181.18665,42.46a3.332,3.332,0,0,0,2.63916-1.03613,4.84286,4.84286,0,0,0,.9126-3.25586q0-4.292-3.55176-4.292h-1.72608V42.46Z" style="fill:#004563"/><path d="M206.29456,27.26664V40.19047h5.62353V27.26664h9.17481V62.48735h-9.17481V47.98442h-5.62353V62.48735h-9.17529V27.26664Z" style="fill:#004563"/></svg>