<svg id="calques" xmlns="http://www.w3.org/2000/svg" viewBox="0 0 150 36"><defs><style>.cls-1,.cls-2{isolation:isolate;}.cls-2{font-size:9px;font-family:Muli-Bold, Muli;font-weight:700;}.cls-3{letter-spacing:-0.01em;}.cls-4{letter-spacing:-0.01em;}.cls-5{letter-spacing:0.05em;}.cls-6{letter-spacing:0em;}.cls-7{fill:#004461;}.cls-8{fill:#afca00;}.cls-9{fill:#fff;}</style></defs><title>logo-cd44-archives-departementales</title><g id="Handicap" class="cls-1"><text class="cls-2" transform="translate(75.83 19.12)">A<tspan class="cls-3" x="6.75" y="0">r</tspan><tspan x="10.19" y="0">chi</tspan><tspan class="cls-4" x="22.49" y="0">v</tspan><tspan x="27.3" y="0">es</tspan><tspan x="0" y="9">dépa</tspan><tspan class="cls-5" x="21.65" y="9">r</tspan><tspan class="cls-6" x="25.6" y="9">tementales</tspan></text></g><path class="cls-7" d="M33.5,8.1a1.78,1.78,0,0,0-.92-.26,1.65,1.65,0,0,0-1.22.51,1.68,1.68,0,0,0-.5,1.23.86.86,0,0,0,0,.22Z"/><path class="cls-7" d="M61.7,18.63a1.63,1.63,0,0,0-.91-.26,1.59,1.59,0,0,0-1.22.51,1.68,1.68,0,0,0-.51,1.23,1.8,1.8,0,0,0,0,.22Z"/><path class="cls-7" d="M19.49,11.3a1.65,1.65,0,0,0,1.22-.51,1.62,1.62,0,0,0,.51-1.22,1.73,1.73,0,0,0-2.95-1.22,1.73,1.73,0,0,0,1.22,3Z"/><path class="cls-7" d="M47.39,18.37a1.65,1.65,0,0,0-1.22.51,1.71,1.71,0,0,0,0,2.44,1.71,1.71,0,0,0,2.44,0,1.69,1.69,0,0,0,.51-1.22,1.65,1.65,0,0,0-.51-1.22A1.69,1.69,0,0,0,47.39,18.37Z"/><path class="cls-7" d="M27.79,21.83a1.74,1.74,0,0,0,1.74-1.73A1.65,1.65,0,0,0,29,18.88a1.73,1.73,0,0,0-2.45,0,1.73,1.73,0,0,0,1.22,2.95Z"/><path class="cls-7" d="M49.12,26.14V22.69a3.05,3.05,0,0,1-4-.35,3.14,3.14,0,0,1-.91-2.24,3.21,3.21,0,0,1,6.42,0v6h-.19c5.24.07,11.3.33,18.39.81V8.06C43.07-1.89,11.91-1.4,0,5.92L9.86,35.5c1.65-1,3.24-1.94,4.82-2.78h0C22.43,28.51,30.5,26,49.12,26.14Zm9.4-8.3a3.07,3.07,0,0,1,2.27-.95,3.16,3.16,0,0,1,1.78.54,3.41,3.41,0,0,1,1.2,1.45l0,.13-3.93,2.56a1.72,1.72,0,0,0,.91.26A1.58,1.58,0,0,0,62,21.3a2,2,0,0,0,.33-.51h1.56a3.28,3.28,0,0,1-.83,1.54,3,3,0,0,1-2.28,1,3.14,3.14,0,0,1-2.27-.92,3,3,0,0,1-.94-2.26A3.11,3.11,0,0,1,58.52,17.84Zm-7-.85H53v3.58a1.28,1.28,0,0,0,1.25,1.26,1.23,1.23,0,0,0,.89-.38,1.19,1.19,0,0,0,.37-.88V17H57v3.58a2.59,2.59,0,0,1-.83,1.9,2.63,2.63,0,0,1-3.82,0,2.62,2.62,0,0,1-.82-1.9Zm-30.3,1.47h-1v4.73H18.77V18.46h-.95V17h.95v-2h1.47v2h1Zm2.5,4.73H22.22V14.93h1.47Zm18.13-8.25h1.46v1.47H41.82Zm0,2h1.46v6.2H41.82Zm-4,0h.95v-2H40.2v2h.95v1.47H40.2v4.73H38.73V18.46h-.95Zm-.42,2.63v3.57H35.89V19.62a1.26,1.26,0,0,0-2.52,0v3.57H31.9V19.62a2.62,2.62,0,0,1,.82-1.91,2.66,2.66,0,0,1,1.91-.82,2.62,2.62,0,0,1,1.9.82A2.65,2.65,0,0,1,37.36,19.62Zm-7-12.31a3,3,0,0,1,2.26-.94,3.11,3.11,0,0,1,1.78.54,3.26,3.26,0,0,1,1.2,1.44l.06.13L31.68,11a1.73,1.73,0,0,0,.92.26,1.56,1.56,0,0,0,1.21-.52,1.73,1.73,0,0,0,.34-.52h1.56a3.24,3.24,0,0,1-.84,1.55,3,3,0,0,1-2.27.95,3.16,3.16,0,0,1-2.28-.92,3.06,3.06,0,0,1-.94-2.26A3.14,3.14,0,0,1,30.32,7.31ZM26.21,9.1a2.54,2.54,0,0,1,.85-1.93,2.8,2.8,0,0,1,2-.8h.17V7.84H29a1.38,1.38,0,0,0-1,.36,1.16,1.16,0,0,0-.39.9v3.57H26.21Zm1.58,7.79a3.11,3.11,0,0,1,2.27.95A3.06,3.06,0,0,1,31,20.1v3.09H29.53v-.5a3.07,3.07,0,0,1-4-.35,3.22,3.22,0,0,1,2.3-5.45ZM23.6,4.38h1.47V5.85H23.6Zm0,2.08h1.47v6.21H23.6Zm-6.38.85a3.14,3.14,0,0,1,2.27-.94,3.23,3.23,0,0,1,3.21,3.2,3.22,3.22,0,0,1-5.48,2.26,3.19,3.19,0,0,1,0-4.52Zm-6-2.89h1.53v6.72h3.39v1.53H11.25Zm1.13,18.77H10.76l2.92-8.26h1.71l2.92,8.26H16.67l-.5-1.38H12.88Z"/><polygon class="cls-7" points="13.39 20.43 15.67 20.43 14.53 17.31 13.39 20.43"/><path class="cls-8" d="M14.68,32.72H68.8V27C37.51,25.07,26.5,26.43,14.68,32.72Z"/><path class="cls-8" d="M68.93,27h0Z"/><path class="cls-8" d="M68.8,27h0c-7.09-.48-13.15-.74-18.39-.81H49.12C30.5,26,22.43,28.51,14.65,32.72h0C26.5,26.43,37.51,25.07,68.8,27Z"/><path class="cls-9" d="M19.49,12.76A3.21,3.21,0,0,0,22.7,9.57a3.23,3.23,0,0,0-3.21-3.2,3.14,3.14,0,0,0-2.27.94,3.19,3.19,0,0,0,0,4.52A3.13,3.13,0,0,0,19.49,12.76ZM18.27,8.35a1.73,1.73,0,0,1,2.95,1.22,1.62,1.62,0,0,1-.51,1.22,1.73,1.73,0,1,1-2.44-2.44Z"/><rect class="cls-9" x="23.6" y="6.46" width="1.47" height="6.21"/><path class="cls-9" d="M27.68,9.1a1.16,1.16,0,0,1,.39-.9,1.38,1.38,0,0,1,1-.36h.17V6.37H29a2.8,2.8,0,0,0-2,.8,2.54,2.54,0,0,0-.85,1.93v3.57h1.47Z"/><polygon class="cls-9" points="20.24 14.94 18.77 14.94 18.77 16.99 17.82 16.99 17.82 18.46 18.77 18.46 18.77 23.19 20.24 23.19 20.24 18.46 21.19 18.46 21.19 16.99 20.24 16.99 20.24 14.94"/><rect class="cls-9" x="22.22" y="14.93" width="1.47" height="8.26"/><path class="cls-9" d="M25.49,22.34a3.07,3.07,0,0,0,4,.35v.5H31V20.1a3.06,3.06,0,0,0-.94-2.26,3.21,3.21,0,0,0-4.57,4.5Zm1.08-3.46a1.73,1.73,0,0,1,2.45,0,1.65,1.65,0,0,1,.51,1.22,1.74,1.74,0,0,1-1.74,1.73,1.73,1.73,0,0,1-1.22-2.95Z"/><path class="cls-9" d="M32.72,17.71a2.62,2.62,0,0,0-.82,1.91v3.57h1.47V19.62a1.26,1.26,0,0,1,2.52,0v3.57h1.47V19.62a2.65,2.65,0,0,0-.83-1.91,2.62,2.62,0,0,0-1.9-.82A2.66,2.66,0,0,0,32.72,17.71Z"/><polygon class="cls-9" points="38.73 23.2 40.2 23.2 40.2 18.46 41.16 18.46 41.16 16.99 40.2 16.99 40.2 14.94 38.73 14.94 38.73 16.99 37.78 16.99 37.78 18.46 38.73 18.46 38.73 23.2"/><rect class="cls-9" x="41.82" y="16.99" width="1.47" height="6.21"/><rect class="cls-9" x="41.82" y="14.94" width="1.47" height="1.47"/><path class="cls-9" d="M50.6,20.1a3.24,3.24,0,0,0-3.21-3.21,3.21,3.21,0,0,0-2.3,5.45,3.05,3.05,0,0,0,4,.35v3.45H50.6Zm-2,1.22a1.71,1.71,0,0,1-2.44,0,1.71,1.71,0,0,1,0-2.44,1.65,1.65,0,0,1,1.22-.51,1.69,1.69,0,0,1,1.22.51,1.65,1.65,0,0,1,.51,1.22A1.69,1.69,0,0,1,48.61,21.32Z"/><path class="cls-9" d="M49.12,26.15h0Z"/><path class="cls-9" d="M54.22,23.29a2.66,2.66,0,0,0,1.91-.82,2.59,2.59,0,0,0,.83-1.9V17H55.48v3.58a1.19,1.19,0,0,1-.37.88,1.23,1.23,0,0,1-.89.38A1.28,1.28,0,0,1,53,20.57V17H51.49v3.58a2.62,2.62,0,0,0,.82,1.9A2.66,2.66,0,0,0,54.22,23.29Z"/><path class="cls-9" d="M32.6,12.76a3,3,0,0,0,2.27-.95,3.24,3.24,0,0,0,.84-1.55H34.15a1.73,1.73,0,0,1-.34.52,1.56,1.56,0,0,1-1.21.52,1.73,1.73,0,0,1-.92-.26l3.94-2.56-.06-.13a3.26,3.26,0,0,0-1.2-1.44,3.11,3.11,0,0,0-1.78-.54,3,3,0,0,0-2.26.94,3.14,3.14,0,0,0-.94,2.27,3.06,3.06,0,0,0,.94,2.26A3.16,3.16,0,0,0,32.6,12.76ZM31.36,8.35a1.65,1.65,0,0,1,1.22-.51,1.78,1.78,0,0,1,.92.26L30.88,9.8a.86.86,0,0,1,0-.22A1.68,1.68,0,0,1,31.36,8.35Z"/><path class="cls-9" d="M60.8,23.29a3,3,0,0,0,2.28-1,3.28,3.28,0,0,0,.83-1.54H62.35a2,2,0,0,1-.33.51,1.58,1.58,0,0,1-1.22.53,1.72,1.72,0,0,1-.91-.26L63.82,19l0-.13a3.41,3.41,0,0,0-1.2-1.45,3.16,3.16,0,0,0-1.78-.54,3.07,3.07,0,0,0-2.27.95,3.11,3.11,0,0,0-.93,2.27,3,3,0,0,0,.94,2.26A3.14,3.14,0,0,0,60.8,23.29Zm-1.23-4.41a1.59,1.59,0,0,1,1.22-.51,1.63,1.63,0,0,1,.91.26l-2.62,1.7a1.8,1.8,0,0,1,0-.22A1.68,1.68,0,0,1,59.57,18.88Z"/><polygon class="cls-9" points="16.17 11.14 12.78 11.14 12.78 4.42 11.25 4.42 11.25 12.67 16.17 12.67 16.17 11.14"/><path class="cls-9" d="M16.67,23.19h1.64l-2.92-8.26H13.68l-2.92,8.26h1.62l.5-1.38h3.29Zm-3.28-2.75,1.14-3.13,1.14,3.13Z"/><rect class="cls-9" x="23.6" y="4.38" width="1.47" height="1.47"/></svg>