<svg xmlns="http://www.w3.org/2000/svg" viewBox="0 0 124.11 39.76"><title>logomusee-dobree-noir</title><g id="Calque_2" data-name="Calque 2"><g id="Calque_1-2" data-name="Calque 1"><path d="M50.79.6h4.77L57.5,7.06c.56,1.94,1.17,5.52,1.17,5.52h.06S59.31,9,59.88,7.06L61.77.6h4.84V16.1H63.33V9.17c0-2,.25-5.59.25-5.59h0s-.66,3.32-1.21,5.15l-2.2,7.37H57.21L55,8.73c-.54-1.83-1.21-5.15-1.21-5.15h0S54,7.21,54,9.17V16.1H50.79Z"/><path d="M75.79,16.1V14.52h-.06a3.61,3.61,0,0,1-3.34,1.9c-2.52,0-3.89-1.63-3.89-4.07V5h3.27v6.71c0,1.23.6,1.94,1.77,1.94a2.15,2.15,0,0,0,2.13-2.38V5h3.22V16.1Z"/><path d="M80,12.69H83a2,2,0,0,0,2.25,1.62c1.17,0,1.83-.48,1.83-1.27,0-1-1.31-1.12-2.85-1.41-2-.38-4-.88-4-3.46,0-2.27,2.06-3.46,4.67-3.46C88,4.71,89.58,6,89.87,8h-3C86.62,7.19,86,6.79,85,6.79s-1.65.42-1.65,1.13,1.21,1,2.73,1.23c2,.35,4.23.87,4.23,3.66,0,2.4-2.13,3.65-5,3.65-3.21,0-5.15-1.54-5.31-3.77"/><path d="M96.5,0h3.81L97.83,3.35H95.39ZM94.2,9.5h4.73C98.83,8,98,7,96.66,7c-1.5,0-2.25,1-2.46,2.48M91,10.58a5.59,5.59,0,0,1,5.69-5.87,5.42,5.42,0,0,1,3.81,1.41,7.08,7.08,0,0,1,1.8,5.27H94.18c.21,1.67,1.11,2.67,2.69,2.67a2.05,2.05,0,0,0,2-1.08h3.17c-.57,2-2.38,3.46-5.23,3.46A5.58,5.58,0,0,1,91,10.58"/><path d="M106.22,9.5H111C110.85,8,110,7,108.68,7c-1.5,0-2.25,1-2.46,2.48M103,10.58a5.59,5.59,0,0,1,5.69-5.87,5.46,5.46,0,0,1,3.81,1.41,7,7,0,0,1,1.79,5.27H106.2c.21,1.67,1.11,2.67,2.69,2.67a2.05,2.05,0,0,0,2-1.08h3.17c-.57,2-2.38,3.46-5.23,3.46A5.58,5.58,0,0,1,103,10.58"/><path d="M56.93,23.88a.61.61,0,0,0-.64.69V38.25c0,.55.26.88.69.88h2.26c3.29,0,5.31-2.81,5.31-7.35,0-3.33-.52-5.29-1.79-6.62a4.39,4.39,0,0,0-3.35-1.28Zm-6.52-.43h8.9a8.25,8.25,0,0,1,8,8.19,8.26,8.26,0,0,1-8.26,7.9H50.43v-.36h2.26c.77,0,1.19-.5,1.19-1.38V25.18c0-.88-.42-1.38-1.16-1.38H50.41Z"/><path d="M77.48,34.35c0-3.24-1-4.83-3-4.83s-3.11,1.54-3.11,5c0,3.24,1,4.83,3,4.83,2.22,0,3.15-1.47,3.15-5m-8.14.14a5.35,5.35,0,0,1,5-5.35,5.21,5.21,0,0,1,5.19,5.3,5.07,5.07,0,1,1-10.14.05"/><path d="M84.81,34.61c0,2,.31,3.14,1.07,3.93a2.5,2.5,0,0,0,1.79.81c2.52,0,2.69-2.91,2.69-5.29,0-4.14-1.55-4.52-2.58-4.52-1.8.05-3,2.05-3,5.07m-1.76-9.4a1.26,1.26,0,0,0-1.41-1.34H81v-.38a30.28,30.28,0,0,0,3.31-.26h.53v8.48c.71-1.72,1.76-2.6,3.09-2.6,2.31,0,4.52,2.5,4.52,5.1,0,2.88-2.26,5.54-4.69,5.54-1.5,0-2.73-1-3.59-2.74a7.82,7.82,0,0,0-.81,2.65h-.33Z"/><path d="M96.78,31c0-.67-.42-1.07-1.19-1.07h-.71v-.36c.9,0,1.74,0,2.07-.07l1.29-.16h.3V32c.6-1.36,1.22-2.81,2.77-2.81a1.81,1.81,0,0,1,1.92,1.88,1.18,1.18,0,0,1-1,1.29,1,1,0,0,1-1-1.08,1.29,1.29,0,0,1,.55-1c.19-.16.26-.26.26-.35s-.24-.36-.67-.36a2.13,2.13,0,0,0-1.36.55c-1.35,1.33-1.4,3.31-1.45,4.85v3c0,.86.24,1.17,1,1.17h.77v.36H95v-.36h.83c.72,0,1-.31,1-1.17Z"/><path d="M108.3,27.52h-.47l1.36-2.29c.61-1.07,1-1.38,1.45-1.38a.72.72,0,0,1,.74.69c0,.43-.29.67-1,1.24Zm2.29,6.09c.52,0,.69-.19.69-.81,0-2-1-3.26-2.55-3.26a2.21,2.21,0,0,0-2,1.57,6.25,6.25,0,0,0-.43,2.5Zm2.86,2.07a5.87,5.87,0,0,1-.67,1.81A4.39,4.39,0,0,1,109,39.75c-2.71,0-4.78-2.38-4.78-5.4,0-2.86,2-5.17,4.52-5.17s4.38,2.05,4.64,4.88h-7.09c0,1.6-.05,5.22,2.95,5.22,1.88,0,3.36-1.38,3.86-3.6Z"/><path d="M121.25,33.61c.53,0,.7-.19.7-.81,0-2-1-3.26-2.55-3.26a2.22,2.22,0,0,0-2.05,1.57,6.25,6.25,0,0,0-.43,2.5Zm2.86,2.07a5.4,5.4,0,0,1-.67,1.81,4.37,4.37,0,0,1-3.8,2.26c-2.72,0-4.79-2.38-4.79-5.4,0-2.86,2-5.17,4.52-5.17s4.38,2.05,4.65,4.88h-7.1c0,1.6,0,5.22,3,5.22,1.88,0,3.36-1.38,3.86-3.6Z"/><rect y="6.55" width="5.21" height="27.16"/><path d="M19.53,10.32a14.29,14.29,0,0,1,0,19.62,14.29,14.29,0,0,1,0-19.62M33.11,5.81V.6H30a19.54,19.54,0,0,0-10.46,3A19.51,19.51,0,0,0,9.07.6H6V5.81H9.07a14.4,14.4,0,0,1,6.24,1.41,19.52,19.52,0,0,0,0,25.82,14.27,14.27,0,0,1-6.24,1.42H6v5.2H9.07a19.51,19.51,0,0,0,10.46-3,19.54,19.54,0,0,0,10.46,3h3.12v-5.2H30A14.27,14.27,0,0,1,23.75,33a19.52,19.52,0,0,0,0-25.82A14.4,14.4,0,0,1,30,5.81Z"/><rect x="33.86" y="6.55" width="5.21" height="27.16"/></g></g></svg>