<svg xmlns="http://www.w3.org/2000/svg" viewBox="0 0 177.44 44.49"><defs><style>.cls-1{fill:#fff;}</style></defs><title>logo-laboratoire-arc-antique-blanc</title><g id="Calque_2" data-name="Calque 2"><g id="Calque_1-2" data-name="Calque 1"><polygon class="cls-1" points="50.79 0.01 54.34 0.01 54.34 12.46 61.48 12.46 61.48 15.51 50.79 15.51 50.79 0.01"/><path class="cls-1" d="M69.52,11.53V10.09a6.77,6.77,0,0,1-1.92.62c-1.43.32-2.12.67-2.12,1.63s.73,1.31,1.62,1.31a2.19,2.19,0,0,0,2.42-2.12m0,2.62h0a3.7,3.7,0,0,1-3.36,1.65c-2.18,0-3.79-1.17-3.79-3.36,0-2.46,1.94-3.08,4.36-3.37,2-.27,2.79-.59,2.79-1.42s-.52-1.33-1.65-1.33-1.85.58-1.94,1.46h-3c.09-1.9,1.63-3.67,4.92-3.67a6.13,6.13,0,0,1,3.19.67,3.54,3.54,0,0,1,1.68,3.31v5.69c0,.87.13,1.35.42,1.54v.18H69.85a3.25,3.25,0,0,1-.37-1.35"/><path class="cls-1" d="M82.41,9.94c0-2-.77-3.35-2.31-3.35-1.71,0-2.5,1.46-2.5,3.37s.94,3.27,2.52,3.27,2.29-1.29,2.29-3.29m-4.79,3.94h0V15.5H74.44V0h3.27V3.4c0,.94-.07,1.9-.11,2.56h.06A3.77,3.77,0,0,1,81,4.11c2.87,0,4.77,2.46,4.77,5.85,0,3.67-1.88,5.9-4.75,5.9a3.53,3.53,0,0,1-3.38-2"/><path class="cls-1" d="M94.85,10c0-2.1-.92-3.54-2.54-3.54S89.77,7.88,89.77,10s.87,3.5,2.54,3.5,2.54-1.41,2.54-3.5m-8.4,0a5.86,5.86,0,1,1,11.71,0,5.86,5.86,0,1,1-11.71,0"/><path class="cls-1" d="M102.56,6.4h.06a3.18,3.18,0,0,1,3.08-2.17,2,2,0,0,1,.69.09V7.17h-.08a4,4,0,0,0-.69-.06c-1.77,0-2.94,1.08-2.94,3.25v5.15H99.41V4.42h3.15Z"/><path class="cls-1" d="M114.33,11.53V10.09a6.77,6.77,0,0,1-1.92.62c-1.44.32-2.13.67-2.13,1.63s.73,1.31,1.63,1.31a2.19,2.19,0,0,0,2.42-2.12m0,2.62h0a3.68,3.68,0,0,1-3.35,1.65c-2.19,0-3.79-1.17-3.79-3.36,0-2.46,1.93-3.08,4.35-3.37,2-.27,2.79-.59,2.79-1.42s-.52-1.33-1.64-1.33-1.86.58-1.94,1.46h-3c.08-1.9,1.62-3.67,4.91-3.67a6.09,6.09,0,0,1,3.19.67,3.53,3.53,0,0,1,1.69,3.31v5.69c0,.87.12,1.35.42,1.54v.18h-3.19a3.22,3.22,0,0,1-.38-1.35"/><path class="cls-1" d="M118.59,4.42h1.67V.88h3.21V4.42h2.17V6.5h-2.17V12c0,.84.46,1.07,1.23,1.07.21,0,.54,0,.75,0h.17v2.43a10.15,10.15,0,0,1-1.9.17c-2.06,0-3.46-.67-3.46-2.92V6.5h-1.67Z"/><path class="cls-1" d="M134.82,10c0-2.1-.91-3.54-2.54-3.54s-2.54,1.44-2.54,3.54.87,3.5,2.54,3.5,2.54-1.41,2.54-3.5m-8.39,0a5.85,5.85,0,1,1,11.7,0,5.85,5.85,0,1,1-11.7,0"/><path class="cls-1" d="M139.38,4.42h3.27V15.51h-3.27Zm0-4.41h3.31V2.86h-3.31Z"/><path class="cls-1" d="M147.57,6.4h.06a3.19,3.19,0,0,1,3.09-2.17,1.87,1.87,0,0,1,.68.09V7.17h-.08a4,4,0,0,0-.69-.06c-1.77,0-2.94,1.08-2.94,3.25v5.15h-3.27V4.42h3.15Z"/><path class="cls-1" d="M155.28,8.9H160c-.11-1.54-1-2.48-2.28-2.48-1.5,0-2.25,1-2.45,2.48M152.05,10a5.58,5.58,0,0,1,5.68-5.87,5.43,5.43,0,0,1,3.82,1.42,7,7,0,0,1,1.79,5.27h-8.08c.2,1.66,1.1,2.66,2.68,2.66a2.05,2.05,0,0,0,2-1.08h3.17c-.56,2-2.37,3.46-5.23,3.46A5.58,5.58,0,0,1,152.05,10"/><path class="cls-1" d="M57.62,25.18,54.74,33h5.5ZM50,38.58c2.29,0,2.9-1.71,3.52-3.38l4.67-12.57h.9l4.72,13.83c.66,1.91.88,2.12,2.14,2.12h.43v.36H58.91v-.36h2c.55,0,.88-.24.88-.67a2.44,2.44,0,0,0-.12-.69l-1.21-3.61h-6l-.16.42a10.34,10.34,0,0,0-.72,2.69c0,1.15,1,1.86,2.57,1.86h.6v.36H50Z"/><path class="cls-1" d="M69.74,30.39a1,1,0,0,0-1.19-1.07h-.72V29c.91,0,1.74,0,2.08-.08l1.28-.16h.31v2.71c.6-1.36,1.21-2.81,2.76-2.81a1.81,1.81,0,0,1,1.93,1.88,1.17,1.17,0,0,1-1,1.29,1,1,0,0,1-1-1.07,1.27,1.27,0,0,1,.55-1c.19-.17.26-.26.26-.36s-.24-.36-.66-.36a2.11,2.11,0,0,0-1.36.55c-1.36,1.33-1.4,3.31-1.45,4.86v3c0,.85.24,1.16,1,1.16h.76v.36H68v-.36h.84c.71,0,.95-.31.95-1.16Z"/><path class="cls-1" d="M86.09,35.08a4.46,4.46,0,0,1-.31,1.64,3.91,3.91,0,0,1-3.52,2.41c-2.5,0-4.69-2.43-4.69-5.14s2.19-5.31,4.74-5.31c1.83,0,3.64,1.52,3.64,3.05a1.26,1.26,0,0,1-1.21,1.42,1.16,1.16,0,0,1-1.07-1.26,1,1,0,0,1,.71-1c.31-.14.4-.26.4-.45,0-.62-1.28-1.34-2.42-1.34-2,0-2.79,1.43-2.79,4.72s1,4.9,2.86,4.9,3.19-1.52,3.31-3.64Z"/><path class="cls-1" d="M88.21,28.3c1.62-.91,2.45-2,2.45-3.26,0-.31-.11-.53-.33-.53a.44.44,0,0,0-.26.12.92.92,0,0,1-.64.24,1,1,0,0,1-1-1.05,1.05,1.05,0,0,1,1.12-1.09c.86,0,1.48.9,1.48,2.14,0,1.57-.91,2.83-2.69,3.76Z"/><path class="cls-1" d="M101.76,25.18,98.88,33h5.5Zm-7.64,13.4c2.28,0,2.9-1.71,3.52-3.38l4.67-12.57h.9l4.71,13.83c.67,1.91.88,2.12,2.15,2.12h.42v.36H103v-.36h2c.54,0,.88-.24.88-.67a2.44,2.44,0,0,0-.12-.69l-1.22-3.61h-6l-.17.42a10.61,10.61,0,0,0-.71,2.69c0,1.15,1,1.86,2.57,1.86h.59v.36h-6.8Z"/><path class="cls-1" d="M115.4,31.7a4.09,4.09,0,0,1,3.64-3,3.31,3.31,0,0,1,2.14.8,4.54,4.54,0,0,1,1.07,3.24v4.72c0,.85.27,1.16,1,1.16H124v.36h-5.33v-.36h.83c.72,0,1-.31,1-1.16V32.11c0-2-.54-2.86-1.76-2.86-1.92,0-3.31,2.12-3.31,5.09v3.08c0,.85.24,1.16,1,1.16h.76v.36h-5.31v-.36h.83c.72,0,1-.31,1-1.16v-7c0-.67-.43-1.05-1.22-1.05h-.64V29h.81c.16,0,1.43-.09,1.69-.11l.71-.12h.48Z"/><path class="cls-1" d="M124.85,29.2c2.4-.83,3.12-2.69,3.45-4.9h.48V29h3.31v.66h-3.34v7.14a1.47,1.47,0,0,0,1.41,1.67c1.62,0,2.4-1.57,2.43-4.93h.33c0,2.57-.33,3.86-1.21,4.74a2.9,2.9,0,0,1-2.08.83,2.51,2.51,0,0,1-2.69-2.83V29.63h-2.09Z"/><path class="cls-1" d="M135.8,24.23A1.17,1.17,0,1,1,137,25.39a1.17,1.17,0,0,1-1.17-1.16m2.1,4.5c0,1.64,0,3.26,0,4.88,0,4,0,4.16.12,4.52.07.17.17.45.86.45h.76v.36h-5.26v-.36h.83c.72,0,.95-.31.95-1.16v-7c0-.66-.42-1.07-1.19-1.07h-.71V29c.9,0,1.74,0,2.07-.07l1.29-.16Z"/><path class="cls-1" d="M150.23,33.49c0-3-1.24-4.69-3.34-4.69a2.47,2.47,0,0,0-1.76.74c-.76.76-1.07,2-1.07,4.4,0,2.57.76,4.74,2.69,4.74,2.14-.07,3.48-2.1,3.48-5.19m1.69-5c0,4.19,0,7,0,8.85,0,6.38,0,6.24.28,6.52a1,1,0,0,0,.72.22h.76v.36h-5.31v-.36h.84c.71,0,1-.31,1-1.17v-6.5c-.84,1.81-2,2.69-3.55,2.69-2.33,0-4.5-2.62-4.5-5.4s2.24-5.33,4.81-5.33c1.62,0,2.9,1,3.74,2.85a5.65,5.65,0,0,0,.93-2.73Z"/><path class="cls-1" d="M154.37,29A14.26,14.26,0,0,0,157,28.8a4.8,4.8,0,0,1,.64-.1h.55v7.84c0,1.26.54,2,1.52,2,1.74,0,3.21-2.3,3.21-5v-3c0-.81-.38-1.15-1.28-1.15h-1.22V29h1.43a11.56,11.56,0,0,0,2-.24,1,1,0,0,1,.23,0h.62v8.6c0,.93.36,1.28,1.29,1.28h.47v.36h-2.42l-.53,0-.62,0v-2.9c-.92,2-2.16,3-3.69,3a2.89,2.89,0,0,1-2.83-3.07V30.27a1,1,0,0,0-1-.95h-1Z"/><path class="cls-1" d="M174.58,33c.52,0,.69-.19.69-.81,0-2-1-3.26-2.55-3.26a2.21,2.21,0,0,0-2,1.57,6.07,6.07,0,0,0-.43,2.5Zm2.86,2.07a5.87,5.87,0,0,1-.67,1.81A4.39,4.39,0,0,1,173,39.15c-2.71,0-4.78-2.38-4.78-5.4,0-2.86,2-5.17,4.52-5.17s4.38,2.05,4.64,4.88h-7.09c0,1.6-.05,5.22,2.95,5.22,1.88,0,3.35-1.38,3.85-3.6Z"/><path class="cls-1" d="M29.78,39h-6v-.73A14.57,14.57,0,0,1,38.4,23.81h.67v6H38.4a8.58,8.58,0,0,0-8.62,8.51Z"/><rect class="cls-1" x="28.65" width="10.42" height="5.95"/><rect class="cls-1" x="17.86" y="5.95" width="10.79" height="5.95"/><rect class="cls-1" y="28.65" width="5.95" height="10.36"/><rect class="cls-1" x="5.95" y="17.86" width="5.95" height="10.79"/><path class="cls-1" d="M39.06,11.91H28.65v5.95H17.86V28.65h-6V39h6V35.92A18.06,18.06,0,0,1,36,17.86h3.07Z"/><rect class="cls-1" x="11.91" y="11.9" width="5.95" height="5.95"/></g></g></svg>