<svg xmlns="http://www.w3.org/2000/svg" viewBox="0 0 308.15 48.06"><defs><style>.cls-1{fill:#fff;}</style></defs><title>logo-eglise-du-vieux-bourg-de-st-sulpice-des-landes-blanc</title><g id="Calque_2" data-name="Calque 2"><g id="Calque_1-2" data-name="Calque 1"><polygon class="cls-1" points="26.41 7.67 22.32 7.67 22.32 3.58 17.11 3.58 17.11 7.67 13.02 7.67 13.02 12.88 17.11 12.88 17.11 16.97 22.32 16.97 22.32 12.88 26.41 12.88 26.41 7.67"/><polygon class="cls-1" points="26.41 33.34 22.32 33.34 22.32 29.25 17.11 29.25 17.11 33.34 13.02 33.34 13.02 38.55 17.11 38.55 17.11 42.64 22.32 42.64 22.32 38.55 26.41 38.55 26.41 33.34"/><polygon class="cls-1" points="4.09 16.6 4.09 20.69 0 20.69 0 25.9 4.09 25.9 4.09 29.99 9.3 29.99 9.3 25.9 13.39 25.9 13.39 20.69 9.3 20.69 9.3 16.6 4.09 16.6"/><polygon class="cls-1" points="29.76 16.6 29.76 20.69 25.67 20.69 25.67 25.9 29.76 25.9 29.76 29.99 34.97 29.99 34.97 25.9 39.06 25.9 39.06 20.69 34.97 20.69 34.97 16.6 29.76 16.6"/><path class="cls-1" d="M56.27,0h3.94L57.94,2.73H55.38ZM50.79,3.58H62.42v3H54.34V9.62h7v2.82h-7V16h8.22v3H50.79Z"/><path class="cls-1" d="M71.65,13c0-1.65-.82-2.87-2.42-2.87-1.44,0-2.33,1.12-2.33,2.89s.89,2.88,2.35,2.88c1.67,0,2.4-1.25,2.4-2.9m-7.71,6.44h3.18c.21.66.84,1.12,2.11,1.12,1.54,0,2.31-.79,2.31-2.14v-.23c0-.56,0-1.09.06-1.46h-.08a3.23,3.23,0,0,1-3,1.62c-2.56,0-4.83-1.89-4.83-5.25s1.93-5.45,4.66-5.45a3.2,3.2,0,0,1,3.19,1.73h0V8h3.13V18.1a4.59,4.59,0,0,1-1.44,3.63,6,6,0,0,1-4,1.21c-3,0-5-1.28-5.33-3.46"/><rect class="cls-1" x="76.54" y="3.58" width="3.29" height="15.5"/><path class="cls-1" d="M81.62,8h3.27V19.08H81.62Zm0-4.42h3.31V6.44H81.6Z"/><path class="cls-1" d="M86,15.67H89a2,2,0,0,0,2.25,1.62c1.16,0,1.83-.48,1.83-1.27,0-1-1.31-1.13-2.85-1.42-2-.37-4-.87-4-3.46,0-2.27,2.06-3.45,4.66-3.45C94,7.69,95.58,9,95.87,11h-3C92.62,10.17,92,9.77,91,9.77s-1.64.42-1.64,1.12,1.21,1,2.73,1.23c2,.36,4.23.88,4.23,3.67,0,2.4-2.13,3.65-5,3.65-3.21,0-5.15-1.55-5.32-3.77"/><path class="cls-1" d="M100.2,12.48h4.73c-.1-1.54-1-2.48-2.27-2.48-1.5,0-2.25,1-2.46,2.48M97,13.56a5.59,5.59,0,0,1,5.69-5.87,5.46,5.46,0,0,1,3.81,1.41,7,7,0,0,1,1.79,5.27h-8.08c.21,1.67,1.11,2.67,2.69,2.67a2.07,2.07,0,0,0,2-1.08h3.17c-.57,2-2.38,3.46-5.23,3.46A5.58,5.58,0,0,1,97,13.56"/><path class="cls-1" d="M121.76,13.54c0-2-.81-3.37-2.5-3.37S117,11.54,117,13.52s.77,3.29,2.29,3.29,2.52-1.33,2.52-3.27m-8.14,0c0-3.4,1.91-5.85,4.79-5.85a3.7,3.7,0,0,1,3.29,1.85h0c0-.69-.08-1.62-.08-2.56V3.58h3.27v15.5h-3.15V17.46h0a3.48,3.48,0,0,1-3.37,2c-2.88,0-4.75-2.23-4.75-5.9"/><path class="cls-1" d="M133.91,19.08V17.5h-.07a3.6,3.6,0,0,1-3.33,1.89c-2.52,0-3.89-1.62-3.89-4.06V8h3.27v6.71c0,1.23.6,1.94,1.77,1.94a2.14,2.14,0,0,0,2.12-2.38V8H137V19.08Z"/><path class="cls-1" d="M142.51,3.58h3.69L148.49,11c.52,1.71,1.06,4.56,1.06,4.56h0s.54-2.85,1-4.56l2.27-7.46h3.59l-5.13,15.5h-3.73Z"/><path class="cls-1" d="M157.38,8h3.27V19.08h-3.27Zm0-4.42h3.31V6.44h-3.31Z"/><path class="cls-1" d="M165.13,12.48h4.73c-.11-1.54-1-2.48-2.27-2.48-1.5,0-2.25,1-2.46,2.48m-3.23,1.08a5.58,5.58,0,0,1,5.69-5.87A5.46,5.46,0,0,1,171.4,9.1a7.07,7.07,0,0,1,1.79,5.27h-8.08c.21,1.67,1.1,2.67,2.69,2.67a2.08,2.08,0,0,0,2-1.08H173c-.56,2-2.37,3.46-5.23,3.46a5.58,5.58,0,0,1-5.85-5.86"/><path class="cls-1" d="M181.65,19.08V17.5h-.06a3.62,3.62,0,0,1-3.34,1.89c-2.52,0-3.89-1.62-3.89-4.06V8h3.27v6.71c0,1.23.6,1.94,1.77,1.94a2.14,2.14,0,0,0,2.12-2.38V8h3.23V19.08Z"/><path class="cls-1" d="M189.69,13.27,186.17,8h3.73l.64,1a25.32,25.32,0,0,1,1.17,2.35h0S192.38,10,192.88,9l.6-1h3.46l-3.4,5.21,3.9,5.87h-3.79l-.86-1.41c-.52-.94-1.2-2.46-1.2-2.46h-.05a27.27,27.27,0,0,1-1.29,2.46l-.89,1.41h-3.57Z"/><rect class="cls-1" x="198.23" y="12.14" width="5.9" height="2.83"/><path class="cls-1" d="M213,16.29a2.34,2.34,0,0,0,1.64-.56,1.92,1.92,0,0,0,.57-1.42,2,2,0,0,0-2.27-2h-3.57v4Zm-.31-6.48c1.2,0,2-.58,2-1.73s-.77-1.75-2-1.75h-3.36V9.81Zm-6.84-6.23h7.34a5.48,5.48,0,0,1,3.62,1.06,3.76,3.76,0,0,1,1.31,3,3.09,3.09,0,0,1-2.5,3.11v.08a3.72,3.72,0,0,1,3.11,3.77,4.08,4.08,0,0,1-1.52,3.38,5.9,5.9,0,0,1-3.84,1.14h-7.52Z"/><path class="cls-1" d="M227.91,13.56c0-2.1-.91-3.54-2.54-3.54s-2.54,1.44-2.54,3.54.87,3.5,2.54,3.5,2.54-1.42,2.54-3.5m-8.39,0a5.86,5.86,0,1,1,11.71,0,5.86,5.86,0,1,1-11.71,0"/><path class="cls-1" d="M239.68,19.08V17.5h-.06a3.6,3.6,0,0,1-3.33,1.89c-2.53,0-3.9-1.62-3.9-4.06V8h3.27v6.71c0,1.23.6,1.94,1.77,1.94a2.14,2.14,0,0,0,2.13-2.38V8h3.23V19.08Z"/><path class="cls-1" d="M247.7,10h.06a3.19,3.19,0,0,1,3.09-2.17,1.68,1.68,0,0,1,.68.09v2.85h-.08a4,4,0,0,0-.69-.06c-1.77,0-2.93,1.08-2.93,3.25v5.14h-3.27V8h3.14Z"/><path class="cls-1" d="M260.22,13c0-1.65-.81-2.87-2.42-2.87-1.43,0-2.33,1.12-2.33,2.89s.9,2.88,2.35,2.88c1.67,0,2.4-1.25,2.4-2.9m-7.71,6.44h3.19c.21.66.83,1.12,2.1,1.12,1.55,0,2.32-.79,2.32-2.14v-.23c0-.56,0-1.09.06-1.46h-.08a3.24,3.24,0,0,1-3,1.62c-2.57,0-4.84-1.89-4.84-5.25s1.94-5.45,4.67-5.45a3.21,3.21,0,0,1,3.19,1.73h0V8h3.12V18.1a4.62,4.62,0,0,1-1.43,3.63,6.06,6.06,0,0,1-4,1.21c-3.05,0-5-1.28-5.34-3.46"/><path class="cls-1" d="M58.74,37.14c0-2.55-1.45-4.53-3.31-4.53a2.3,2.3,0,0,0-1.71.74c-.76.79-1,1.91-1,4.26s.41,3.62,1.41,4.29a2.16,2.16,0,0,0,1.26.4c2-.07,3.4-2.12,3.4-5.16M56.22,26.45A35.91,35.91,0,0,0,60,26.28l.27,0h.33V40.64c0,1,.5,1.52,1.38,1.52h.74v.36H60.76a7.25,7.25,0,0,0-1.76.21h-.24V39.85c-.35.79-1.3,2.88-3.61,2.88s-4.57-2.5-4.57-5.28,2.07-5.24,4.61-5.24c1.55,0,2.62.76,3.55,2.57V28.26a1.34,1.34,0,0,0-1.43-1.45H56.22Z"/><path class="cls-1" d="M70.17,36.59c.52,0,.69-.19.69-.81,0-2-1-3.26-2.55-3.26a2.23,2.23,0,0,0-2,1.57,6.1,6.1,0,0,0-.42,2.5ZM73,38.66a5.64,5.64,0,0,1-.66,1.81,4.39,4.39,0,0,1-3.81,2.26c-2.71,0-4.79-2.38-4.79-5.4,0-2.86,2-5.17,4.53-5.17s4.38,2.05,4.64,4.88H65.84c0,1.6,0,5.21,3,5.21,1.88,0,3.35-1.38,3.85-3.59Z"/><path class="cls-1" d="M80.33,35.38c.41,2,1.45,7.28,6.22,7.28A3.17,3.17,0,0,0,90,39.54c0-2.31-2.76-3.38-4.83-4.16a13.87,13.87,0,0,1-3.45-1.69,5.24,5.24,0,0,1-.45-.41,4.29,4.29,0,0,1-1.19-2.81,4.24,4.24,0,0,1,4.26-4.33c1.64,0,2.83.59,4.31,2.19a4.77,4.77,0,0,0,1.16-2h.41v6.19h-.38A7.51,7.51,0,0,0,89,29.73a5.39,5.39,0,0,0-4.67-3.26,3,3,0,0,0-3.16,2.76c0,1.79,1.92,2.67,4.45,3.57a14.56,14.56,0,0,1,3.52,1.69A5,5,0,0,1,91,38.35,4.54,4.54,0,0,1,86.35,43a5.7,5.7,0,0,1-4.68-2.78,11.66,11.66,0,0,0-1.31,2.61H80V35.38Z"/><path class="cls-1" d="M92.66,32.78c2.41-.83,3.12-2.69,3.46-4.9h.47v4.66H99.9v.67H96.57v7.14c0,1,.57,1.67,1.4,1.67,1.62,0,2.41-1.57,2.43-4.93h.33c0,2.57-.33,3.86-1.21,4.74a2.94,2.94,0,0,1-2.07.83,2.51,2.51,0,0,1-2.69-2.83V33.21h-2.1Z"/><rect class="cls-1" x="103.04" y="36.83" width="5.07" height="0.98"/><path class="cls-1" d="M111.09,35.38c.41,2,1.45,7.28,6.21,7.28a3.17,3.17,0,0,0,3.43-3.12c0-2.31-2.76-3.38-4.83-4.16a13.69,13.69,0,0,1-3.45-1.69,4.08,4.08,0,0,1-.45-.41,4.3,4.3,0,0,1-1.2-2.81,4.24,4.24,0,0,1,4.26-4.33c1.65,0,2.84.59,4.31,2.19a4.9,4.9,0,0,0,1.17-2H121v6.19h-.39a7.32,7.32,0,0,0-.81-2.79,5.36,5.36,0,0,0-4.66-3.26,3,3,0,0,0-3.17,2.76c0,1.79,1.93,2.67,4.45,3.57a14.68,14.68,0,0,1,3.53,1.69,5,5,0,0,1,1.9,3.86A4.54,4.54,0,0,1,117.11,43a5.72,5.72,0,0,1-4.69-2.78,12.12,12.12,0,0,0-1.31,2.61h-.4V35.38Z"/><path class="cls-1" d="M123.42,32.54a15,15,0,0,0,2.62-.16,3.6,3.6,0,0,1,.64-.1h.55v7.83c0,1.26.55,2,1.52,2,1.74,0,3.22-2.31,3.22-5V34c0-.81-.38-1.14-1.29-1.14h-1.21v-.36h1.43a10.67,10.67,0,0,0,2-.24l.24,0h.62v8.59c0,.93.35,1.29,1.28,1.29h.48v.36h-2.43l-.52,0-.62.05V39.68c-.93,2-2.17,3-3.69,3a2.89,2.89,0,0,1-2.84-3.07V33.85a1,1,0,0,0-1-1h-1Z"/><path class="cls-1" d="M138.75,28.28c0-.88-.33-1.31-1-1.31h-.88v-.38c.83,0,1.69-.07,2-.09l1.19-.15h.55c-.05,4.19-.05,7-.05,9,0,6.47,0,6.33.29,6.62a1,1,0,0,0,.71.21h.77v.36H137v-.36h.83c.71,0,.95-.31.95-1.17Z"/><path class="cls-1" d="M153.34,36.85c0-3-.85-4.45-2.57-4.45-1.9,0-3.26,2.12-3.26,5.09,0,2.69,1.43,4.86,3.26,4.86s2.57-1.79,2.57-5.5m-5.83-2.09c.79-1.86,1.86-2.74,3.34-2.74,2.38,0,4.45,2.5,4.45,5.33s-2.07,5.38-4.48,5.38c-1.4,0-2.43-.86-3.31-2.76,0,1.24,0,2.48,0,3.69,0,3.17,0,3.26.12,3.62,0,.14.14.43.85.43h.77v.35h-5.31v-.35h.83c.72,0,.95-.31.95-1.17V34c0-.81-.47-1.24-1.35-1.24h-1.07v-.36h.59a30.47,30.47,0,0,0,3.21-.26h.43Z"/><path class="cls-1" d="M158.44,27.81A1.17,1.17,0,1,1,159.61,29a1.17,1.17,0,0,1-1.17-1.16m2.09,4.49c0,1.65,0,3.27,0,4.88,0,4,0,4.17.12,4.53.07.16.17.45.86.45h.76v.36H157v-.36h.83c.71,0,1-.31,1-1.17V34c0-.67-.43-1.07-1.19-1.07h-.71v-.36c.9,0,1.74,0,2.07-.07l1.28-.17Z"/><path class="cls-1" d="M173,38.66a4.72,4.72,0,0,1-.31,1.64,3.91,3.91,0,0,1-3.52,2.41c-2.5,0-4.69-2.43-4.69-5.14s2.19-5.31,4.74-5.31c1.83,0,3.64,1.52,3.64,3a1.27,1.27,0,0,1-1.22,1.43,1.17,1.17,0,0,1-1.07-1.26,1,1,0,0,1,.72-1c.31-.15.4-.26.4-.46,0-.61-1.28-1.33-2.43-1.33-1.95,0-2.78,1.43-2.78,4.71s1,4.91,2.85,4.91,3.19-1.52,3.31-3.64Z"/><path class="cls-1" d="M181.08,36.59c.52,0,.69-.19.69-.81,0-2-1-3.26-2.55-3.26a2.23,2.23,0,0,0-2.05,1.57,6.1,6.1,0,0,0-.42,2.5Zm2.85,2.07a5.64,5.64,0,0,1-.66,1.81,4.39,4.39,0,0,1-3.81,2.26c-2.71,0-4.79-2.38-4.79-5.4,0-2.86,2-5.17,4.53-5.17s4.38,2.05,4.64,4.88h-7.09c0,1.6-.05,5.21,2.95,5.21,1.88,0,3.35-1.38,3.85-3.59Z"/><rect class="cls-1" x="185.89" y="36.83" width="5.07" height="0.98"/><path class="cls-1" d="M201.65,37.14c0-2.55-1.46-4.53-3.31-4.53a2.33,2.33,0,0,0-1.72.74c-.76.79-1,1.91-1,4.26s.4,3.62,1.4,4.29a2.18,2.18,0,0,0,1.26.4c2-.07,3.41-2.12,3.41-5.16m-2.53-10.69a36,36,0,0,0,3.74-.17l.26,0h.34V40.64c0,1,.5,1.52,1.38,1.52h.73v.36h-1.9a7.25,7.25,0,0,0-1.76.21h-.24V39.85c-.36.79-1.31,2.88-3.62,2.88s-4.57-2.5-4.57-5.28,2.07-5.24,4.62-5.24c1.55,0,2.62.76,3.55,2.57V28.26a1.34,1.34,0,0,0-1.43-1.45h-1.1Z"/><path class="cls-1" d="M213.07,36.59c.53,0,.69-.19.69-.81,0-2-1-3.26-2.54-3.26a2.21,2.21,0,0,0-2.05,1.57,6.25,6.25,0,0,0-.43,2.5Zm2.86,2.07a5.4,5.4,0,0,1-.67,1.81,4.38,4.38,0,0,1-3.81,2.26c-2.71,0-4.78-2.38-4.78-5.4,0-2.86,2-5.17,4.52-5.17s4.38,2.05,4.64,4.88h-7.09c0,1.6-.05,5.21,2.95,5.21,1.88,0,3.36-1.38,3.86-3.59Z"/><path class="cls-1" d="M217.86,38.16a5.77,5.77,0,0,0,1.47,3.07A3.81,3.81,0,0,0,222,42.35a2,2,0,0,0,2.17-1.76c0-1.1-.71-1.67-2.95-2.38a6.49,6.49,0,0,1-3.05-1.53,2.39,2.39,0,0,1-.66-1.78,2.75,2.75,0,0,1,2.73-2.81c1.07,0,1.65.26,2.86,1.31a2,2,0,0,0,.76-1.19h.38v4h-.33a4.81,4.81,0,0,0-1.17-2.6,3.39,3.39,0,0,0-2.38-1.14,1.89,1.89,0,0,0-2.07,1.72c0,1.19,1.5,1.66,2.83,2,2.36.69,3.93,1.48,3.93,3.45a3,3,0,0,1-3.21,3,4.1,4.1,0,0,1-3.12-1.55,6.19,6.19,0,0,0-.93,1.55h-.31V38.16Z"/><rect class="cls-1" x="227.31" y="36.83" width="5.07" height="0.98"/><path class="cls-1" d="M234.74,42.16h2c.77,0,1.12-.41,1.19-1.38V28.16c0-.88-.42-1.38-1.16-1.38h-2.05v-.36h8.43v.36h-1.64c-.77,0-1.19.5-1.19,1.38V40.9c0,.81.33,1.21,1,1.21H243c2.72,0,5.08-2.38,5.81-5.88h.31L249,42.52H234.74Z"/><path class="cls-1" d="M257.35,36.85a11.6,11.6,0,0,1-1.4.5c-1.07.31-2.91.83-2.91,2.81,0,1.19.67,2.05,1.6,2.05,1.45,0,2.71-1.6,2.71-3.43Zm4.36,1.33c0,3-.76,4.55-2.26,4.55-1,0-1.62-.76-1.93-2.47-.79,1.76-1.76,2.47-3.36,2.47a2.84,2.84,0,0,1-3-2.62,2.33,2.33,0,0,1,.73-1.66A5.8,5.8,0,0,1,255,37.11a12.67,12.67,0,0,0,2.31-.71V34.69c0-1.29-.81-2-2.31-2-1,0-2.14.54-2.14,1,0,.17.1.26.41.43.54.29.73.57.73,1.05a1,1,0,0,1-1,1,1.32,1.32,0,0,1-1.19-1.36c0-1.5,1.6-2.67,3.67-2.67,2.4,0,3.62,1.1,3.62,3.24V40c0,1.16.33,1.9.85,1.9.81,0,1.19-.93,1.34-3.24l.05-.47Z"/><path class="cls-1" d="M266.49,35.28a4.12,4.12,0,0,1,3.65-3.05,3.34,3.34,0,0,1,2.14.81,4.63,4.63,0,0,1,1.07,3.24V41c0,.86.26,1.17.95,1.17h.79v.36h-5.33v-.36h.83c.71,0,1-.31,1-1.17V35.68c0-2-.55-2.85-1.76-2.85-1.93,0-3.31,2.12-3.31,5.09V41c0,.86.24,1.17.95,1.17h.76v.36h-5.3v-.36h.83c.71,0,1-.31,1-1.17V34c0-.67-.43-1.05-1.21-1.05h-.65v-.36h.81c.17,0,1.43-.09,1.69-.12l.72-.12h.47Z"/><path class="cls-1" d="M284.73,37.14c0-2.55-1.45-4.53-3.31-4.53a2.3,2.3,0,0,0-1.71.74c-.77.79-1,1.91-1,4.26s.4,3.62,1.4,4.29a2.21,2.21,0,0,0,1.26.4c2.05-.07,3.41-2.12,3.41-5.16m-2.52-10.69a35.91,35.91,0,0,0,3.73-.17l.26,0h.34V40.64c0,1,.5,1.52,1.38,1.52h.74v.36h-1.91a7.25,7.25,0,0,0-1.76.21h-.24V39.85c-.35.79-1.31,2.88-3.62,2.88s-4.57-2.5-4.57-5.28,2.07-5.24,4.62-5.24c1.55,0,2.62.76,3.55,2.57V28.26a1.34,1.34,0,0,0-1.43-1.45h-1.09Z"/><path class="cls-1" d="M296.16,36.59c.52,0,.69-.19.69-.81,0-2-1-3.26-2.55-3.26a2.22,2.22,0,0,0-2.05,1.57,6.25,6.25,0,0,0-.43,2.5ZM299,38.66a5.64,5.64,0,0,1-.66,1.81,4.4,4.4,0,0,1-3.81,2.26c-2.72,0-4.79-2.38-4.79-5.4,0-2.86,2-5.17,4.53-5.17s4.38,2.05,4.64,4.88h-7.1c0,1.6,0,5.21,3,5.21,1.88,0,3.35-1.38,3.85-3.59Z"/><path class="cls-1" d="M300.94,38.16a5.7,5.7,0,0,0,1.48,3.07,3.79,3.79,0,0,0,2.69,1.12,2,2,0,0,0,2.16-1.76c0-1.1-.71-1.67-2.95-2.38a6.49,6.49,0,0,1-3.05-1.53,2.39,2.39,0,0,1-.66-1.78,2.75,2.75,0,0,1,2.74-2.81c1.07,0,1.64.26,2.85,1.31a2,2,0,0,0,.76-1.19h.38v4H307a4.81,4.81,0,0,0-1.16-2.6,3.41,3.41,0,0,0-2.39-1.14,1.89,1.89,0,0,0-2.07,1.72c0,1.19,1.5,1.66,2.84,2,2.35.69,3.92,1.48,3.92,3.45a3,3,0,0,1-3.21,3,4.13,4.13,0,0,1-3.12-1.55,6.88,6.88,0,0,0-.93,1.55h-.31V38.16Z"/></g></g></svg>