<?xml version="1.0" encoding="utf-8"?>
<!-- Generator: Adobe Illustrator 24.1.2, SVG Export Plug-In . SVG Version: 6.00 Build 0)  -->
<svg version="1.1" id="calques" xmlns="http://www.w3.org/2000/svg" xmlns:xlink="http://www.w3.org/1999/xlink" x="0px" y="0px"
	 viewBox="0 0 123 36" style="enable-background:new 0 0 123 36;" xml:space="preserve">
<style type="text/css">
	.st0{enable-background:new    ;}
	.st1{fill:#004461;}
	.st2{fill:#AFCA00;}
	.st3{fill:#FFFFFF;}
</style>
<g id="Handicap">
	<g class="st0">
		<path d="M76.5,19.1v-6.4h1.2v5.5h3v1H76.5z"/>
	</g>
	<g class="st0">
		<path d="M82,12.7v0.8c0,0.3-0.1,0.6-0.2,0.9c-0.1,0.3-0.3,0.5-0.5,0.8l-0.5-0.4c0.3-0.3,0.4-0.6,0.5-0.8h-0.6v-1.3H82z"/>
	</g>
	<g class="st0">
		<path d="M87.2,14.6v4.5h-1.1v-0.7c-0.1,0.3-0.3,0.4-0.6,0.6c-0.3,0.1-0.6,0.2-0.9,0.2c-0.4,0-0.7-0.1-1.1-0.3s-0.5-0.5-0.7-0.8
			c-0.2-0.4-0.3-0.8-0.3-1.2c0-0.5,0.1-0.9,0.3-1.2c0.2-0.4,0.4-0.6,0.7-0.8c0.3-0.2,0.7-0.3,1-0.3c0.3,0,0.6,0.1,0.9,0.2
			c0.3,0.1,0.5,0.3,0.6,0.6v-0.7H87.2z M85.8,17.9c0.2-0.3,0.3-0.6,0.3-1.1c0-0.5-0.1-0.8-0.3-1.1c-0.2-0.3-0.5-0.4-0.9-0.4
			c-0.4,0-0.7,0.1-0.9,0.4c-0.2,0.3-0.3,0.6-0.3,1.1c0,0.5,0.1,0.8,0.3,1.1c0.2,0.3,0.5,0.4,0.9,0.4C85.3,18.3,85.6,18.2,85.8,17.9z
			"/>
		<path d="M92.8,14.6V19c0,0.7-0.2,1.2-0.6,1.6c-0.4,0.4-1,0.5-1.7,0.5c-0.7,0-1.3-0.1-1.9-0.4l0.2-0.9c0.6,0.3,1.1,0.4,1.6,0.4
			c0.8,0,1.2-0.4,1.2-1.2v-0.9c-0.1,0.2-0.3,0.4-0.6,0.6c-0.3,0.2-0.6,0.2-0.9,0.2c-0.4,0-0.7-0.1-1.1-0.3c-0.3-0.2-0.5-0.5-0.7-0.8
			c-0.2-0.3-0.3-0.7-0.3-1.2c0-0.4,0.1-0.8,0.3-1.2c0.2-0.3,0.4-0.6,0.7-0.8c0.3-0.2,0.7-0.3,1.1-0.3c0.3,0,0.6,0.1,0.9,0.2
			c0.3,0.1,0.5,0.3,0.6,0.6v-0.7H92.8z M91.4,17.7c0.2-0.2,0.3-0.6,0.3-1c0-0.4-0.1-0.8-0.3-1c-0.2-0.2-0.5-0.4-0.9-0.4
			c-0.4,0-0.7,0.1-0.9,0.4s-0.3,0.6-0.3,1c0,0.4,0.1,0.8,0.3,1s0.5,0.4,0.9,0.4S91.1,18,91.4,17.7z"/>
		<path d="M98,16.9h-3.1c0,0.5,0.1,0.8,0.4,1.1c0.2,0.2,0.5,0.3,1,0.3c0.5,0,1-0.2,1.4-0.5l0.3,0.8c-0.2,0.2-0.5,0.3-0.8,0.4
			c-0.3,0.1-0.6,0.2-1,0.2c-0.7,0-1.3-0.2-1.8-0.6s-0.6-1-0.6-1.7c0-0.5,0.1-0.9,0.3-1.2c0.2-0.4,0.4-0.6,0.8-0.8s0.7-0.3,1.1-0.3
			c0.6,0,1.1,0.2,1.5,0.6s0.5,1,0.5,1.7V16.9z M95.3,15.5c-0.2,0.2-0.3,0.4-0.4,0.8H97c0-0.3-0.1-0.6-0.3-0.8s-0.4-0.3-0.7-0.3
			C95.7,15.3,95.4,15.4,95.3,15.5z"/>
		<path d="M103.2,16.3v2.8H102v-2.7c0-0.4-0.1-0.6-0.2-0.8s-0.4-0.2-0.6-0.2c-0.3,0-0.6,0.1-0.8,0.3s-0.3,0.5-0.3,0.9v2.6h-1.1v-3.3
			c0-0.5,0-0.9-0.1-1.3h1.1l0.1,0.7c0.2-0.3,0.4-0.5,0.6-0.6c0.3-0.2,0.6-0.2,0.9-0.2C102.6,14.5,103.2,15.1,103.2,16.3z"/>
		<path d="M108.7,12.5v6.6h-1.1v-0.7c-0.1,0.3-0.3,0.4-0.6,0.6s-0.6,0.2-0.9,0.2c-0.4,0-0.7-0.1-1-0.3c-0.3-0.2-0.5-0.5-0.7-0.8
			s-0.3-0.8-0.3-1.2c0-0.5,0.1-0.9,0.3-1.2c0.2-0.4,0.4-0.6,0.7-0.8c0.3-0.2,0.7-0.3,1.1-0.3c0.3,0,0.6,0.1,0.9,0.2
			c0.3,0.1,0.5,0.3,0.6,0.6v-2.7H108.7z M107.3,17.9c0.2-0.3,0.3-0.6,0.3-1.1s-0.1-0.8-0.3-1.1c-0.2-0.3-0.5-0.4-0.9-0.4
			c-0.4,0-0.7,0.1-0.9,0.4s-0.3,0.6-0.3,1.1c0,0.5,0.1,0.8,0.3,1.1s0.5,0.4,0.9,0.4S107.1,18.2,107.3,17.9z"/>
		<path d="M114.3,14.6v4.5h-1.1v-0.7c-0.1,0.3-0.3,0.4-0.6,0.6c-0.3,0.1-0.6,0.2-0.9,0.2c-0.4,0-0.7-0.1-1.1-0.3s-0.5-0.5-0.7-0.8
			c-0.2-0.4-0.3-0.8-0.3-1.2c0-0.5,0.1-0.9,0.3-1.2c0.2-0.4,0.4-0.6,0.7-0.8c0.3-0.2,0.7-0.3,1-0.3c0.3,0,0.6,0.1,0.9,0.2
			c0.3,0.1,0.5,0.3,0.6,0.6v-0.7H114.3z M112.9,17.9c0.2-0.3,0.3-0.6,0.3-1.1c0-0.5-0.1-0.8-0.3-1.1c-0.2-0.3-0.5-0.4-0.9-0.4
			c-0.4,0-0.7,0.1-0.9,0.4c-0.2,0.3-0.3,0.6-0.3,1.1c0,0.5,0.1,0.8,0.3,1.1c0.2,0.3,0.5,0.4,0.9,0.4
			C112.4,18.3,112.7,18.2,112.9,17.9z"/>
	</g>
	<g class="st0">
		<path d="M80.8,21.5v6.6h-1.1v-0.7c-0.1,0.3-0.3,0.4-0.6,0.6s-0.6,0.2-0.9,0.2c-0.4,0-0.7-0.1-1-0.3c-0.3-0.2-0.5-0.5-0.7-0.8
			s-0.3-0.8-0.3-1.2c0-0.5,0.1-0.9,0.3-1.2c0.2-0.4,0.4-0.6,0.7-0.8c0.3-0.2,0.7-0.3,1.1-0.3c0.3,0,0.6,0.1,0.9,0.2
			c0.3,0.1,0.5,0.3,0.6,0.6v-2.7H80.8z M79.4,26.9c0.2-0.3,0.3-0.6,0.3-1.1s-0.1-0.8-0.3-1.1c-0.2-0.3-0.5-0.4-0.9-0.4
			c-0.4,0-0.7,0.1-0.9,0.4s-0.3,0.6-0.3,1.1c0,0.5,0.1,0.8,0.3,1.1s0.5,0.4,0.9,0.4S79.2,27.2,79.4,26.9z"/>
		<path d="M86,25.9h-3.1c0,0.5,0.1,0.8,0.4,1.1c0.2,0.2,0.5,0.3,1,0.3c0.5,0,1-0.2,1.4-0.5l0.3,0.8c-0.2,0.2-0.5,0.3-0.8,0.4
			c-0.3,0.1-0.6,0.2-1,0.2c-0.7,0-1.3-0.2-1.8-0.6s-0.6-1-0.6-1.7c0-0.5,0.1-0.9,0.3-1.2c0.2-0.4,0.4-0.6,0.8-0.8s0.7-0.3,1.1-0.3
			c0.6,0,1.1,0.2,1.5,0.6s0.5,1,0.5,1.7V25.9z M83.3,24.5c-0.2,0.2-0.3,0.4-0.4,0.8H85c0-0.3-0.1-0.6-0.3-0.8s-0.4-0.3-0.7-0.3
			C83.7,24.3,83.4,24.4,83.3,24.5z"/>
		<path d="M86.6,27.6l0.3-0.8c0.5,0.4,1,0.5,1.7,0.5c0.3,0,0.5,0,0.6-0.1c0.1-0.1,0.2-0.2,0.2-0.4c0-0.1-0.1-0.2-0.2-0.3
			c-0.1-0.1-0.3-0.2-0.5-0.2L88,26.1c-0.8-0.2-1.2-0.6-1.2-1.3c0-0.3,0.1-0.5,0.2-0.7c0.2-0.2,0.4-0.4,0.7-0.5
			c0.3-0.1,0.6-0.2,1-0.2c0.3,0,0.6,0,0.9,0.1c0.3,0.1,0.6,0.2,0.8,0.4l-0.3,0.8c-0.5-0.3-0.9-0.5-1.4-0.5c-0.3,0-0.5,0-0.6,0.1
			c-0.1,0.1-0.2,0.2-0.2,0.4c0,0.1,0,0.2,0.1,0.3s0.2,0.1,0.4,0.2l0.8,0.2c0.5,0.1,0.8,0.3,1,0.5c0.2,0.2,0.3,0.5,0.3,0.8
			c0,0.4-0.2,0.8-0.5,1s-0.8,0.4-1.4,0.4C87.8,28.2,87.1,28,86.6,27.6z"/>
		<path d="M93.6,27.6l0.3-0.8c0.5,0.4,1,0.5,1.7,0.5c0.3,0,0.5,0,0.6-0.1c0.1-0.1,0.2-0.2,0.2-0.4c0-0.1-0.1-0.2-0.2-0.3
			c-0.1-0.1-0.3-0.2-0.5-0.2L95,26.1c-0.8-0.2-1.2-0.6-1.2-1.3c0-0.3,0.1-0.5,0.2-0.7c0.2-0.2,0.4-0.4,0.7-0.5
			c0.3-0.1,0.6-0.2,1-0.2c0.3,0,0.6,0,0.9,0.1c0.3,0.1,0.6,0.2,0.8,0.4L97,24.8c-0.5-0.3-0.9-0.5-1.4-0.5c-0.3,0-0.5,0-0.6,0.1
			c-0.1,0.1-0.2,0.2-0.2,0.4c0,0.1,0,0.2,0.1,0.3s0.2,0.1,0.4,0.2l0.8,0.2c0.5,0.1,0.8,0.3,1,0.5c0.2,0.2,0.3,0.5,0.3,0.8
			c0,0.4-0.2,0.8-0.5,1s-0.8,0.4-1.4,0.4C94.8,28.2,94.1,28,93.6,27.6z"/>
		<path d="M99.3,27.9c-0.4-0.2-0.6-0.5-0.8-0.8c-0.2-0.4-0.3-0.8-0.3-1.3s0.1-0.9,0.3-1.3c0.2-0.4,0.5-0.6,0.8-0.8
			c0.4-0.2,0.8-0.3,1.2-0.3c0.5,0,0.9,0.1,1.2,0.3c0.3,0.2,0.6,0.5,0.8,0.8c0.2,0.4,0.3,0.8,0.3,1.3s-0.1,0.9-0.3,1.3
			c-0.2,0.4-0.5,0.6-0.8,0.8c-0.3,0.2-0.8,0.3-1.2,0.3C100,28.2,99.6,28.1,99.3,27.9z M101.4,26.9c0.2-0.2,0.3-0.6,0.3-1.1
			c0-0.5-0.1-0.9-0.3-1.1c-0.2-0.3-0.5-0.4-0.9-0.4c-0.4,0-0.7,0.1-0.9,0.4s-0.3,0.6-0.3,1.1c0,0.5,0.1,0.9,0.3,1.1s0.5,0.4,0.9,0.4
			C100.9,27.3,101.2,27.2,101.4,26.9z"/>
	</g>
	<g class="st0">
		<path d="M106.6,23.5l0,1c-0.2-0.1-0.4-0.1-0.6-0.1c-0.4,0-0.7,0.1-0.9,0.3c-0.2,0.2-0.3,0.5-0.3,0.9v2.5h-1.1v-3.3
			c0-0.5,0-0.9-0.1-1.3h1.1l0.1,0.8c0.1-0.3,0.3-0.5,0.5-0.7c0.2-0.2,0.5-0.2,0.8-0.2C106.4,23.5,106.5,23.5,106.6,23.5z"/>
	</g>
	<g class="st0">
		<path d="M109.1,24.4v2c0,0.5,0.2,0.8,0.7,0.8c0.1,0,0.3,0,0.5-0.1v0.9c-0.2,0.1-0.4,0.1-0.7,0.1c-0.5,0-0.9-0.1-1.2-0.4
			c-0.3-0.3-0.4-0.7-0.4-1.2v-2.1h-0.9v-0.8h0.9v-1.1l1.1-0.4v1.5h1.2v0.8H109.1z"/>
		<path d="M111,21.5h1.3v1.1H111V21.5z M111.1,28.1v-4.5h1.1v4.5H111.1z"/>
		<path d="M117.4,25.9h-3.1c0,0.5,0.1,0.8,0.4,1.1c0.2,0.2,0.5,0.3,1,0.3c0.5,0,1-0.2,1.4-0.5l0.3,0.8c-0.2,0.2-0.5,0.3-0.8,0.4
			c-0.3,0.1-0.6,0.2-1,0.2c-0.7,0-1.3-0.2-1.8-0.6s-0.6-1-0.6-1.7c0-0.5,0.1-0.9,0.3-1.2c0.2-0.4,0.4-0.6,0.8-0.8s0.7-0.3,1.1-0.3
			c0.6,0,1.1,0.2,1.5,0.6s0.5,1,0.5,1.7V25.9z M114.7,24.5c-0.2,0.2-0.3,0.4-0.4,0.8h2.1c0-0.3-0.1-0.6-0.3-0.8s-0.4-0.3-0.7-0.3
			C115.1,24.3,114.9,24.4,114.7,24.5z"/>
		<path d="M118.1,27.6l0.3-0.8c0.5,0.4,1,0.5,1.7,0.5c0.3,0,0.5,0,0.6-0.1c0.1-0.1,0.2-0.2,0.2-0.4c0-0.1-0.1-0.2-0.2-0.3
			c-0.1-0.1-0.3-0.2-0.5-0.2l-0.8-0.2c-0.8-0.2-1.2-0.6-1.2-1.3c0-0.3,0.1-0.5,0.2-0.7c0.2-0.2,0.4-0.4,0.7-0.5
			c0.3-0.1,0.6-0.2,1-0.2c0.3,0,0.6,0,0.9,0.1c0.3,0.1,0.6,0.2,0.8,0.4l-0.3,0.8c-0.5-0.3-0.9-0.5-1.4-0.5c-0.3,0-0.5,0-0.6,0.1
			c-0.1,0.1-0.2,0.2-0.2,0.4c0,0.1,0,0.2,0.1,0.3s0.2,0.1,0.4,0.2l0.8,0.2c0.5,0.1,0.8,0.3,1,0.5c0.2,0.2,0.3,0.5,0.3,0.8
			c0,0.4-0.2,0.8-0.5,1s-0.8,0.4-1.4,0.4C119.2,28.2,118.6,28,118.1,27.6z"/>
	</g>
</g>
<path class="st1" d="M33.5,8.1c-0.3-0.2-0.6-0.3-0.9-0.3c-0.5,0-0.9,0.2-1.2,0.5c-0.3,0.3-0.5,0.8-0.5,1.2c0,0.1,0,0.1,0,0.2
	L33.5,8.1z"/>
<path class="st1" d="M61.7,18.6c-0.3-0.2-0.6-0.3-0.9-0.3c-0.5,0-0.9,0.2-1.2,0.5c-0.3,0.3-0.5,0.8-0.5,1.2c0,0.1,0,0.1,0,0.2
	L61.7,18.6z"/>
<path class="st1" d="M19.5,11.3c0.5,0,0.9-0.2,1.2-0.5c0.3-0.3,0.5-0.8,0.5-1.2c0-1-0.8-1.7-1.7-1.7c-0.5,0-0.9,0.2-1.2,0.5
	c-0.7,0.6-0.7,1.7-0.1,2.4C18.5,11.2,19,11.4,19.5,11.3L19.5,11.3z"/>
<path class="st1" d="M47.4,18.4c-0.5,0-0.9,0.2-1.2,0.5c-0.7,0.7-0.7,1.7,0,2.4c0,0,0,0,0,0c0.7,0.7,1.7,0.7,2.4,0c0,0,0,0,0,0
	c0.3-0.3,0.5-0.8,0.5-1.2c0-0.5-0.2-0.9-0.5-1.2C48.3,18.6,47.8,18.4,47.4,18.4z"/>
<path class="st1" d="M27.8,21.8c1,0,1.7-0.8,1.7-1.7c0-0.5-0.2-0.9-0.5-1.2c-0.7-0.7-1.8-0.7-2.4,0c0,0,0,0,0,0
	c-0.7,0.7-0.7,1.8,0,2.4C26.9,21.6,27.3,21.8,27.8,21.8L27.8,21.8z"/>
<path class="st1" d="M49.1,26.1v-3.4c-1.2,0.9-2.9,0.8-4-0.4c-0.6-0.6-0.9-1.4-0.9-2.2c0-1.8,1.4-3.2,3.2-3.2c1.8,0,3.2,1.4,3.2,3.2
	v6h-0.2c5.2,0.1,11.3,0.3,18.4,0.8V8.1C43.1-1.9,11.9-1.4,0,5.9l9.9,29.6c1.6-1,3.2-1.9,4.8-2.8l0,0C22.4,28.5,30.5,26,49.1,26.1z
	 M58.5,17.8c0.6-0.6,1.4-1,2.3-1c0.6,0,1.3,0.2,1.8,0.5c0.5,0.4,0.9,0.9,1.2,1.5V19l-3.9,2.6c0.3,0.2,0.6,0.3,0.9,0.3
	c0.5,0,0.9-0.2,1.3-0.5c0.1-0.2,0.2-0.3,0.3-0.5h1.6c-0.1,0.6-0.4,1.1-0.8,1.5c-0.6,0.6-1.4,1-2.3,1c-0.9,0-1.7-0.3-2.3-0.9
	c-0.6-0.6-1-1.4-0.9-2.3C57.5,19.3,57.9,18.4,58.5,17.8z M51.5,17H53v3.6c0,0.7,0.6,1.2,1.2,1.3c0.3,0,0.7-0.1,0.9-0.4
	c0.2-0.2,0.4-0.5,0.4-0.9V17H57v3.6c0,0.7-0.3,1.4-0.8,1.9c-1,1.1-2.7,1.1-3.7,0.1c0,0-0.1-0.1-0.1-0.1c-0.5-0.5-0.8-1.2-0.8-1.9
	L51.5,17z M21.2,18.5h-1v4.7h-1.4v-4.7h-1V17h1v-2h1.5v2h1L21.2,18.5z M23.7,23.2h-1.5v-8.3h1.5L23.7,23.2z M41.8,14.9h1.5v1.5h-1.5
	L41.8,14.9z M41.8,16.9h1.5v6.2h-1.5L41.8,16.9z M37.8,16.9h1v-2h1.4v2h1v1.5h-1v4.7h-1.5v-4.7h-1L37.8,16.9z M37.4,19.6v3.6h-1.5
	v-3.5c0-0.7-0.6-1.3-1.3-1.3c-0.7,0-1.3,0.6-1.3,1.3l0,0v3.6h-1.5v-3.6c0-0.7,0.3-1.4,0.8-1.9c0.5-0.5,1.2-0.8,1.9-0.8
	c0.7,0,1.4,0.3,1.9,0.8C37.1,18.2,37.4,18.9,37.4,19.6L37.4,19.6z M30.4,7.3c0.6-0.6,1.4-1,2.3-0.9c0.6,0,1.3,0.2,1.8,0.5
	c0.5,0.4,0.9,0.9,1.2,1.4l0.1,0.1l-4,2.6c0.3,0.2,0.6,0.3,0.9,0.3c0.5,0,0.9-0.2,1.2-0.5c0.1-0.2,0.3-0.3,0.3-0.5h1.6
	c-0.1,0.6-0.4,1.1-0.8,1.6c-0.6,0.6-1.4,1-2.3,0.9c-0.9,0-1.7-0.3-2.3-0.9c-0.6-0.6-1-1.4-0.9-2.3c0-0.8,0.3-1.6,0.9-2.2L30.4,7.3z
	 M26.2,9.1c0-0.7,0.3-1.4,0.9-1.9c0.5-0.5,1.3-0.8,2-0.8h0.2v1.5H29c-0.4,0-0.7,0.1-1,0.4c-0.3,0.2-0.4,0.6-0.4,0.9v3.6h-1.4V9.1z
	 M27.8,16.9c0.9,0,1.7,0.3,2.3,1c0.6,0.6,1,1.4,0.9,2.3v3.1h-1.5v-0.5c-1.2,0.9-2.9,0.7-4-0.4c-1.2-1.3-1.2-3.3,0.1-4.6
	C26.2,17.2,27,16.9,27.8,16.9L27.8,16.9z M23.6,4.4h1.5v1.5h-1.5V4.4z M23.6,6.5h1.5v6.2h-1.5V6.5z M17.2,7.3
	c0.6-0.6,1.4-0.9,2.3-0.9c1.8,0,3.2,1.4,3.2,3.2c0,1.8-1.5,3.2-3.3,3.2c-0.8,0-1.6-0.3-2.2-0.9C16,10.6,16,8.6,17.2,7.3
	C17.2,7.3,17.2,7.3,17.2,7.3z M11.2,4.4h1.5v6.7h3.4v1.5h-4.9L11.2,4.4z M12.4,23.2h-1.6l2.9-8.3h1.7l2.9,8.3h-1.6l-0.5-1.4h-3.3
	L12.4,23.2z"/>
<polygon class="st1" points="13.4,20.4 15.7,20.4 14.5,17.3 "/>
<path class="st2" d="M14.7,32.7h54.1V27C37.5,25.1,26.5,26.4,14.7,32.7z"/>
<path class="st2" d="M68.9,27L68.9,27z"/>
<path class="st2" d="M68.8,27L68.8,27c-7.1-0.5-13.2-0.7-18.4-0.8h-1.3c-18.6-0.2-26.7,2.3-34.5,6.5l0,0
	C26.5,26.4,37.5,25.1,68.8,27z"/>
<path class="st3" d="M19.5,12.8c1.8,0,3.2-1.4,3.2-3.2c0-1.8-1.4-3.2-3.2-3.2c-0.9,0-1.7,0.3-2.3,0.9c-1.2,1.2-1.3,3.3,0,4.5
	c0,0,0,0,0,0C17.8,12.4,18.6,12.8,19.5,12.8z M18.3,8.4c0.7-0.7,1.8-0.7,2.4,0c0.3,0.3,0.5,0.8,0.5,1.2c0,0.5-0.2,0.9-0.5,1.2
	c-0.6,0.7-1.7,0.8-2.4,0.2c-0.7-0.6-0.8-1.7-0.2-2.4C18.1,8.5,18.2,8.4,18.3,8.4z"/>
<rect x="23.6" y="6.5" class="st3" width="1.5" height="6.2"/>
<path class="st3" d="M27.7,9.1c0-0.3,0.1-0.7,0.4-0.9c0.3-0.2,0.6-0.4,1-0.4h0.2V6.4H29c-0.7,0-1.5,0.3-2,0.8
	c-0.5,0.5-0.9,1.2-0.9,1.9v3.6h1.5L27.7,9.1z"/>
<polygon class="st3" points="20.2,14.9 18.8,14.9 18.8,17 17.8,17 17.8,18.5 18.8,18.5 18.8,23.2 20.2,23.2 20.2,18.5 21.2,18.5 
	21.2,17 20.2,17 "/>
<rect x="22.2" y="14.9" class="st3" width="1.5" height="8.3"/>
<path class="st3" d="M25.5,22.3c1.1,1.1,2.8,1.2,4,0.4v0.5H31v-3.1c0-0.9-0.3-1.7-0.9-2.3c-1.3-1.2-3.3-1.1-4.5,0.2
	C24.4,19.2,24.4,21.1,25.5,22.3z M26.6,18.9c0.7-0.7,1.8-0.7,2.4,0c0,0,0,0,0,0c0.3,0.3,0.5,0.8,0.5,1.2c0,1-0.8,1.7-1.7,1.7
	c-1,0-1.7-0.8-1.7-1.7C26.1,19.6,26.2,19.2,26.6,18.9z"/>
<path class="st3" d="M32.7,17.7c-0.5,0.5-0.8,1.2-0.8,1.9v3.6h1.5v-3.6c0-0.7,0.6-1.3,1.3-1.3c0.7,0,1.3,0.6,1.3,1.3l0,0v3.6h1.5
	v-3.6c0-0.7-0.3-1.4-0.8-1.9c-0.5-0.5-1.2-0.8-1.9-0.8C33.9,16.9,33.2,17.2,32.7,17.7z"/>
<polygon class="st3" points="38.7,23.2 40.2,23.2 40.2,18.5 41.2,18.5 41.2,17 40.2,17 40.2,14.9 38.7,14.9 38.7,17 37.8,17 
	37.8,18.5 38.7,18.5 "/>
<rect x="41.8" y="17" class="st3" width="1.5" height="6.2"/>
<rect x="41.8" y="14.9" class="st3" width="1.5" height="1.5"/>
<path class="st3" d="M50.6,20.1c0-1.8-1.4-3.2-3.2-3.2c-1.8,0-3.2,1.4-3.2,3.2c0,0.8,0.3,1.6,0.9,2.2c1.1,1.1,2.8,1.3,4,0.4v3.5h1.5
	V20.1z M48.6,21.3c-0.7,0.7-1.7,0.7-2.4,0c0,0,0,0,0,0c-0.7-0.7-0.7-1.7,0-2.4c0,0,0,0,0,0c0.3-0.3,0.8-0.5,1.2-0.5
	c0.5,0,0.9,0.2,1.2,0.5c0.3,0.3,0.5,0.8,0.5,1.2C49.1,20.6,48.9,21,48.6,21.3L48.6,21.3z"/>
<path class="st3" d="M49.1,26.1L49.1,26.1z"/>
<path class="st3" d="M54.2,23.3c0.7,0,1.4-0.3,1.9-0.8c0.5-0.5,0.8-1.2,0.8-1.9V17h-1.5v3.6c0,0.3-0.1,0.7-0.4,0.9
	c-0.2,0.2-0.6,0.4-0.9,0.4c-0.7,0-1.2-0.6-1.2-1.3V17h-1.5v3.6c0,0.7,0.3,1.4,0.8,1.9C52.8,23,53.5,23.3,54.2,23.3z"/>
<path class="st3" d="M32.6,12.8c0.9,0,1.7-0.3,2.3-0.9c0.4-0.4,0.7-1,0.8-1.6h-1.6c-0.1,0.2-0.2,0.4-0.3,0.5
	c-0.3,0.3-0.7,0.5-1.2,0.5c-0.3,0-0.6-0.1-0.9-0.3l3.9-2.6l-0.1-0.1c-0.3-0.6-0.7-1.1-1.2-1.4c-0.5-0.4-1.1-0.5-1.8-0.5
	c-0.9,0-1.7,0.3-2.3,0.9c-0.6,0.6-0.9,1.4-0.9,2.3c0,0.9,0.3,1.7,0.9,2.3C30.9,12.4,31.7,12.8,32.6,12.8z M31.4,8.4
	c0.3-0.3,0.8-0.5,1.2-0.5c0.3,0,0.6,0.1,0.9,0.3l-2.6,1.7c0-0.1,0-0.1,0-0.2C30.9,9.1,31,8.7,31.4,8.4z"/>
<path class="st3" d="M60.8,23.3c0.9,0,1.7-0.4,2.3-1c0.4-0.4,0.7-1,0.8-1.5h-1.6c-0.1,0.2-0.2,0.4-0.3,0.5c-0.3,0.3-0.8,0.5-1.2,0.5
	c-0.3,0-0.6-0.1-0.9-0.3l3.9-2.5v-0.1c-0.3-0.6-0.7-1.1-1.2-1.5c-0.5-0.4-1.1-0.5-1.8-0.5c-0.9,0-1.7,0.3-2.3,1
	c-0.6,0.6-0.9,1.4-0.9,2.3c0,0.9,0.3,1.7,0.9,2.3C59.2,23,60,23.3,60.8,23.3z M59.6,18.9c0.3-0.3,0.8-0.5,1.2-0.5
	c0.3,0,0.6,0.1,0.9,0.3l-2.6,1.7c0-0.1,0-0.1,0-0.2C59.1,19.7,59.2,19.2,59.6,18.9z"/>
<polygon class="st3" points="16.2,11.1 12.8,11.1 12.8,4.4 11.2,4.4 11.2,12.7 16.2,12.7 "/>
<path class="st3" d="M16.7,23.2h1.6l-2.9-8.3h-1.7l-2.9,8.3h1.6l0.5-1.4h3.3L16.7,23.2z M13.4,20.4l1.1-3.1l1.1,3.1L13.4,20.4z"/>
<rect x="23.6" y="4.4" class="st3" width="1.5" height="1.5"/>
</svg>
