<svg xmlns="http://www.w3.org/2000/svg" viewBox="0 0 218.16 81.07"><defs><style>.cls-1{fill:#afca0b;}.cls-2{fill:#004563;}</style></defs><g id="Calque_2" data-name="Calque 2"><g id="Calque_1-2" data-name="Calque 1"><path class="cls-1" d="M80.31,40.91A40.16,40.16,0,1,1,40.16.75,40.16,40.16,0,0,1,80.31,40.91Z"/><path class="cls-2" d="M89.64,29.52a2,2,0,0,0-1.45-.95,1,1,0,0,0-.3,0c-1,0-4.45,1.31-10.56,3.64C73.9,33.47,70,35,66.81,36.05l-.77.27c-5.16,1.79-10,3.48-16.45,3.52h-.12c-3.89,0-6.53-1.16-7.86-3.46l1-.46c2.89-1.33,7.05-5.12,7.26-9.35a3.87,3.87,0,0,0-2.38-4,2.73,2.73,0,0,0-1-.17,6.79,6.79,0,0,0-3.75,1.44,13.59,13.59,0,0,0-4.28,6.81,13.89,13.89,0,0,0-.4,3.63v.21a13.06,13.06,0,0,1-3.05.31,17.6,17.6,0,0,1-2.18-.13,17.27,17.27,0,0,1-11.78-6,53.34,53.34,0,0,1-7-9.56L13,17.37a51.64,51.64,0,0,1-4.43-8.9L8,7c-1-2.31-1.72-4.77-2-5.79A1.71,1.71,0,0,0,4.22,0,2.44,2.44,0,0,0,2.38.88a2.78,2.78,0,0,0-.53,2.31A56.24,56.24,0,0,0,5,13.76c.4,1.09.84,2.28,1.32,3.65.94,2.65,2.19,5.86,3.51,9.25,1.94,5,4.14,10.62,5.9,15.91a107.21,107.21,0,0,1,4.69,19,41.91,41.91,0,0,0,1.08,4.69c0,.36,0,.72,0,1.08a12.11,12.11,0,0,1,0,2.17,2.83,2.83,0,0,0,1.15,2,2.27,2.27,0,0,0,1.69.24l.34,0a1.91,1.91,0,0,0,1.22-1.07,4.42,4.42,0,0,0-1.14-3.79C23.81,63.66,23,60,22.05,55.4a124.69,124.69,0,0,0-5.78-18.91L15.73,35c-2.24-6.14-4.16-10.94-5.85-15.18-1-2.46-1.9-4.78-2.72-6.93A76.65,76.65,0,0,1,4.75,5.37a75.89,75.89,0,0,0,8.12,16.55c3.38,5.12,6.18,9,11.58,12.4,2.93,1.84,8,2.92,12.73,2.7h.1c.14,0,.41,0,.7,0a4.49,4.49,0,0,1,.73.06c.13.21.25.42.36.61a10.16,10.16,0,0,0,1.41,2,8.88,8.88,0,0,0,2.17,1.53,17.27,17.27,0,0,0,7.62,1.52,25.38,25.38,0,0,0,3.59-.25,48,48,0,0,0,5.57-1.2l1.84-.46,9.39-3.36c2-.77,4.1-1.61,6.08-2.41,3.25-1.32,6.6-2.68,10.05-3.82a.9.9,0,0,1-.19.15,92.82,92.82,0,0,1-14.53,6.89c-1.94.79-3.95,1.61-5.89,2.45l-1.75.77A67.75,67.75,0,0,1,55.08,45L55,45c-2.43.44-3.86.87-4,1.78l-.15,1C49.33,57.64,47.93,67,47.75,77.69l0,.29.16.16a1.07,1.07,0,0,0,.75.24c.32,0,1.6-.13,2-.72a1.69,1.69,0,0,0,.2-1.1c0-.12,0-.26,0-.41.32-8.79.73-17.36,2.31-25.59.1-.5.15-.89.19-1.23a3.43,3.43,0,0,1,.21-1c13.49-4.59,19-7.15,31.29-12.94,3.32-1.58,4-2,4.66-3.48A2.78,2.78,0,0,0,89.64,29.52ZM40.83,33.83a6.29,6.29,0,0,1,.05-1.15,11,11,0,0,1,1.44-4c1.53-2.52,3-3.16,3.53-3.32a1.88,1.88,0,0,1,.52-.08,1,1,0,0,1,.79.3A1.88,1.88,0,0,1,47.53,27C47.45,28.61,43.65,33.31,40.83,33.83Z"/><path class="cls-2" d="M114.77,26.06l3.7,20.86h.1l3.7-20.86h13.12V61.28H126.8V35h-.09l-4.89,26.24h-6.61L110.33,35h-.1V61.28h-8.58V26.06Z"/><path class="cls-2" d="M152.7,26.06a11.35,11.35,0,0,1,6.22,1.45,9.08,9.08,0,0,1,3.33,3.9A16.76,16.76,0,0,1,163.6,37q.26,3.19.25,6.64t-.25,6.63a16.82,16.82,0,0,1-1.35,5.63,9,9,0,0,1-3.33,3.89,11.27,11.27,0,0,1-6.22,1.46H139.38V26.06Zm-2.32,28.61a5.1,5.1,0,0,0,2.12-.37,2.48,2.48,0,0,0,1.21-1.55,12.76,12.76,0,0,0,.55-3.36c.08-1.45.12-3.35.12-5.72s0-4.28-.12-5.72a12.76,12.76,0,0,0-.55-3.36A2.48,2.48,0,0,0,152.5,33a5,5,0,0,0-2.12-.37h-1.82v22Z"/><path class="cls-2" d="M181.11,26.06a11.2,11.2,0,0,1,4.54.84,8.73,8.73,0,0,1,3.18,2.29,9.09,9.09,0,0,1,1.85,3.43,14.82,14.82,0,0,1,.6,4.29q0,5.48-2.94,8.21t-8.61,2.74h-3.2V61.28h-9.18V26.06Zm-2.86,15.19a3.31,3.31,0,0,0,2.64-1A4.81,4.81,0,0,0,181.8,37q0-4.29-3.55-4.29h-1.72v8.58Z"/><path class="cls-2" d="M203.36,26.06V39H209V26.06h9.18V61.28H209V46.78h-5.62v14.5h-9.17V26.06Z"/></g></g></svg>