<svg xmlns="http://www.w3.org/2000/svg" viewBox="0 0 253.84 45.08"><title>logo-pole-archeologique-de-loire-atlantique-noir</title><g id="Calque_2" data-name="Calque 2"><g id="Calque_1-2" data-name="Calque 1"><path d="M54.41,7.92h3a2.06,2.06,0,0,0,2.31-2.17,2,2,0,0,0-2.29-2.12h-3ZM50.8.6h6.9A5.59,5.59,0,0,1,61.84,2a5.09,5.09,0,0,1,1.48,3.71c0,2.94-2,5-5.21,5h-3.7V16.1H50.8Z"/><path d="M72.34,10.58c0-2.1-.92-3.54-2.54-3.54s-2.54,1.44-2.54,3.54.87,3.5,2.54,3.5,2.54-1.41,2.54-3.5M68.15.23h3.19l2.27,3.08H70.8l-1-1.62h0l-1,1.62H65.9ZM64,10.58a5.85,5.85,0,1,1,11.7,0,5.85,5.85,0,1,1-11.7,0"/><rect x="76.94" y="0.6" width="3.29" height="15.5"/><path d="M84.73,9.5h4.73C89.36,8,88.48,7,87.19,7c-1.5,0-2.25,1-2.46,2.48m-3.22,1.08a5.58,5.58,0,0,1,5.68-5.87A5.47,5.47,0,0,1,91,6.12a7.11,7.11,0,0,1,1.79,5.27H84.71c.21,1.67,1.11,2.67,2.69,2.67a2.05,2.05,0,0,0,2-1.08h3.17c-.56,2-2.38,3.46-5.23,3.46a5.58,5.58,0,0,1-5.85-5.86"/><path d="M103.15,10.6h4l-.94-2.89a34,34,0,0,1-1-4.13h0s-.54,2.61-1,4.13Zm.23-10h3.68l5.61,15.5h-3.75l-1-3h-5.62l-1,3H97.79Z"/><path d="M116.75,7h.06a3.19,3.19,0,0,1,3.09-2.17,1.68,1.68,0,0,1,.68.09V7.77h-.08a4,4,0,0,0-.69-.06c-1.77,0-2.93,1.08-2.93,3.25V16.1H113.6V5h3.15Z"/><path d="M121.23,10.58A5.58,5.58,0,0,1,127,4.71c3,0,4.79,1.69,5.19,4.1H129a1.92,1.92,0,0,0-2-1.66c-1.65,0-2.48,1.35-2.48,3.43S125.37,14,127,14a2,2,0,0,0,2.08-2h3.15c-.11,2.52-2.11,4.48-5.19,4.48a5.63,5.63,0,0,1-5.83-5.88"/><path d="M136.62,6.6h.06A3.64,3.64,0,0,1,140,4.71c2.44,0,3.85,1.62,3.85,4.1V16.1h-3.25V9.44a1.78,1.78,0,0,0-1.85-2,2.2,2.2,0,0,0-2.13,2.43V16.1h-3.27V.6h3.27V4.88c0,.1,0,1,0,1.72"/><path d="M150.56,0h3.81l-2.48,3.35h-2.44Zm-2.29,9.5H153C152.89,8,152,7,150.72,7c-1.5,0-2.25,1-2.45,2.48M145,10.58a5.58,5.58,0,0,1,5.68-5.87,5.47,5.47,0,0,1,3.82,1.41,7.07,7.07,0,0,1,1.79,5.27h-8.08c.2,1.67,1.1,2.67,2.68,2.67A2.05,2.05,0,0,0,153,13h3.17c-.56,2-2.37,3.46-5.23,3.46A5.58,5.58,0,0,1,145,10.58"/><path d="M165.45,10.58c0-2.1-.91-3.54-2.54-3.54s-2.54,1.44-2.54,3.54.87,3.5,2.54,3.5,2.54-1.41,2.54-3.5m-8.39,0a5.85,5.85,0,1,1,11.7,0,5.85,5.85,0,1,1-11.7,0"/><rect x="170.06" y="0.6" width="3.29" height="15.5"/><path d="M183,10.58c0-2.1-.91-3.54-2.54-3.54s-2.54,1.44-2.54,3.54.87,3.5,2.54,3.5,2.54-1.41,2.54-3.5m-8.39,0a5.85,5.85,0,1,1,11.7,0,5.85,5.85,0,1,1-11.7,0"/><path d="M195.09,10.06c0-1.64-.81-2.87-2.41-2.87-1.44,0-2.34,1.12-2.34,2.89s.9,2.88,2.36,2.88c1.66,0,2.39-1.25,2.39-2.9m-7.7,6.44h3.18c.21.67.84,1.12,2.11,1.12,1.54,0,2.31-.79,2.31-2.14v-.23c0-.56,0-1.08.06-1.46H195a3.25,3.25,0,0,1-3,1.63c-2.56,0-4.83-1.9-4.83-5.25s1.93-5.46,4.66-5.46A3.21,3.21,0,0,1,195,6.44h0V5h3.13v10.1a4.62,4.62,0,0,1-1.44,3.63,6.06,6.06,0,0,1-4,1.21c-3,0-5-1.27-5.33-3.46"/><path d="M200,5h3.27V16.1H200Zm0-4.42h3.32V3.46h-3.32Z"/><path d="M207.69,9.5h4.73c-.1-1.54-1-2.48-2.27-2.48-1.5,0-2.25,1-2.46,2.48m-3.22,1.08a5.58,5.58,0,0,1,5.68-5.87A5.42,5.42,0,0,1,214,6.12a7.08,7.08,0,0,1,1.8,5.27h-8.09c.21,1.67,1.11,2.67,2.69,2.67a2.05,2.05,0,0,0,2-1.08h3.17c-.56,2-2.38,3.46-5.23,3.46a5.58,5.58,0,0,1-5.85-5.86"/><path d="M58.75,34.16c0-2.55-1.45-4.53-3.31-4.53a2.3,2.3,0,0,0-1.71.74c-.76.79-1,1.91-1,4.26s.4,3.62,1.4,4.29a2.21,2.21,0,0,0,1.27.4c2-.07,3.4-2.12,3.4-5.16M56.23,23.47A35.91,35.91,0,0,0,60,23.3l.27,0h.33V37.66c0,1,.5,1.52,1.38,1.52h.74v.36H60.77a7.25,7.25,0,0,0-1.76.21h-.24V36.87c-.35.79-1.31,2.88-3.61,2.88s-4.58-2.5-4.58-5.28,2.08-5.24,4.62-5.24c1.55,0,2.62.76,3.55,2.57V25.28a1.34,1.34,0,0,0-1.43-1.45H56.23Z"/><path d="M70.18,33.61c.52,0,.69-.19.69-.81,0-2-1-3.26-2.55-3.26a2.22,2.22,0,0,0-2,1.57,6.25,6.25,0,0,0-.43,2.5ZM73,35.68a5.64,5.64,0,0,1-.66,1.81,4.4,4.4,0,0,1-3.81,2.26c-2.72,0-4.79-2.38-4.79-5.4,0-2.86,2-5.17,4.53-5.17s4.38,2.05,4.64,4.88h-7.1c0,1.6,0,5.22,3,5.22,1.88,0,3.35-1.38,3.85-3.6Z"/><path d="M79.72,39.18h2c.76,0,1.12-.4,1.19-1.38V25.18c0-.88-.43-1.38-1.17-1.38h-2v-.35h8.42v.35H86.53c-.76,0-1.19.5-1.19,1.38V37.92c0,.81.33,1.21,1,1.21H88c2.71,0,5.07-2.38,5.81-5.88h.31L94,39.54H79.72Z"/><path d="M104.05,34.35c0-3.24-1-4.83-3-4.83-2.17,0-3.12,1.54-3.12,5,0,3.24,1,4.83,3,4.83,2.21,0,3.14-1.47,3.14-5m-8.14.14a5.36,5.36,0,0,1,5-5.35,5.2,5.2,0,0,1,5.19,5.3,5.07,5.07,0,1,1-10.14.05"/><path d="M109.05,24.83A1.17,1.17,0,1,1,110.22,26a1.17,1.17,0,0,1-1.17-1.16m2.1,4.5c0,1.64,0,3.26,0,4.88,0,4,0,4.16.12,4.52.07.16.17.45.86.45h.76v.36H107.6v-.36h.83c.72,0,.95-.31.95-1.17V31c0-.66-.42-1.07-1.19-1.07h-.71v-.36c.91,0,1.74,0,2.07-.07l1.29-.16Z"/><path d="M116.65,31c0-.67-.43-1.07-1.19-1.07h-.72v-.36c.91,0,1.74,0,2.07-.07l1.29-.16h.31V32c.59-1.36,1.21-2.81,2.76-2.81a1.81,1.81,0,0,1,1.93,1.88,1.18,1.18,0,0,1-1,1.29,1,1,0,0,1-1-1.08,1.29,1.29,0,0,1,.55-1c.19-.16.26-.26.26-.35s-.24-.36-.67-.36a2.08,2.08,0,0,0-1.35.55c-1.36,1.33-1.41,3.31-1.46,4.85v3c0,.86.24,1.17,1,1.17h.76v.36h-5.31v-.36h.83c.72,0,1-.31,1-1.17Z"/><path d="M130.45,33.61c.53,0,.69-.19.69-.81,0-2-1-3.26-2.54-3.26a2.21,2.21,0,0,0-2,1.57,6.25,6.25,0,0,0-.43,2.5Zm2.86,2.07a5.63,5.63,0,0,1-.67,1.81,4.39,4.39,0,0,1-3.81,2.26c-2.71,0-4.78-2.38-4.78-5.4,0-2.86,2-5.17,4.52-5.17s4.38,2.05,4.64,4.88h-7.09c0,1.6-.05,5.22,2.95,5.22,1.88,0,3.36-1.38,3.86-3.6Z"/><rect x="135.26" y="33.85" width="5.07" height="0.98"/><path d="M149.9,25.78,147,33.56h5.5Zm-7.64,13.4c2.29,0,2.9-1.71,3.52-3.38l4.67-12.57h.9l4.72,13.83c.66,1.91.88,2.12,2.14,2.12h.43v.36h-7.45v-.36h2c.55,0,.88-.24.88-.67a2.44,2.44,0,0,0-.12-.69l-1.21-3.61h-6l-.16.42a10.34,10.34,0,0,0-.72,2.69c0,1.15,1,1.86,2.57,1.86h.6v.36h-6.81Z"/><path d="M159.59,29.8c2.41-.83,3.12-2.69,3.45-4.9h.48v4.66h3.31v.67H163.5v7.14c0,1,.57,1.67,1.4,1.67,1.62,0,2.4-1.57,2.43-4.93h.33c0,2.57-.33,3.86-1.21,4.74a2.89,2.89,0,0,1-2.07.83,2.5,2.5,0,0,1-2.69-2.83V30.23h-2.1Z"/><path d="M171,25.3c0-.88-.34-1.31-1-1.31H169v-.38c.84,0,1.69-.07,2-.09l1.19-.15h.55c0,4.19,0,7.05,0,9,0,6.47,0,6.33.28,6.62a1,1,0,0,0,.72.21h.76v.36h-5.31v-.36H170c.72,0,1-.31,1-1.17Z"/><path d="M182.66,33.87a11.21,11.21,0,0,1-1.41.5c-1.07.31-2.9.84-2.9,2.81,0,1.19.67,2,1.59,2,1.46,0,2.72-1.6,2.72-3.43ZM187,35.21c0,3-.76,4.54-2.26,4.54-1,0-1.62-.76-1.92-2.47-.79,1.76-1.77,2.47-3.36,2.47a2.85,2.85,0,0,1-3-2.62,2.3,2.3,0,0,1,.74-1.66,5.88,5.88,0,0,1,3.12-1.34,12.67,12.67,0,0,0,2.31-.71V31.71c0-1.29-.81-2-2.31-2-1,0-2.14.54-2.14,1,0,.17.09.27.4.43.55.29.74.57.74,1a1,1,0,0,1-1,1.05,1.32,1.32,0,0,1-1.19-1.36c0-1.5,1.59-2.67,3.67-2.67,2.4,0,3.61,1.1,3.61,3.24V37c0,1.16.34,1.9.86,1.9.81,0,1.19-.93,1.33-3.23l.05-.48Z"/><path d="M191.8,32.3a4.11,4.11,0,0,1,3.64-3,3.37,3.37,0,0,1,2.15.81,4.63,4.63,0,0,1,1.07,3.24V38c0,.86.26,1.17,1,1.17h.78v.36h-5.33v-.36h.83c.72,0,1-.31,1-1.17v-5.3c0-2-.55-2.86-1.76-2.86-1.93,0-3.31,2.12-3.31,5.09V38c0,.86.23,1.17.95,1.17h.76v.36h-5.31v-.36H189c.71,0,.95-.31.95-1.17V31c0-.67-.43-1-1.22-1h-.64v-.36h.81c.17,0,1.43-.09,1.69-.11l.71-.12h.48Z"/><path d="M201.25,29.8c2.41-.83,3.12-2.69,3.45-4.9h.48v4.66h3.31v.67h-3.33v7.14c0,1,.57,1.67,1.4,1.67,1.62,0,2.4-1.57,2.43-4.93h.33c0,2.57-.33,3.86-1.21,4.74a2.89,2.89,0,0,1-2.07.83,2.5,2.5,0,0,1-2.69-2.83V30.23h-2.1Z"/><path d="M212.2,24.83A1.17,1.17,0,1,1,213.37,26a1.17,1.17,0,0,1-1.17-1.16m2.1,4.5c0,1.64,0,3.26,0,4.88,0,4,0,4.16.12,4.52.07.16.17.45.86.45H216v.36h-5.26v-.36h.83c.72,0,.95-.31.95-1.17V31c0-.66-.42-1.07-1.19-1.07h-.71v-.36c.91,0,1.74,0,2.07-.07l1.29-.16Z"/><path d="M226.63,34.09c0-3-1.24-4.69-3.34-4.69a2.47,2.47,0,0,0-1.76.74c-.76.76-1.07,2-1.07,4.4,0,2.57.76,4.74,2.69,4.74,2.14-.08,3.48-2.1,3.48-5.19m1.69-5c0,4.19,0,7,0,8.85,0,6.38,0,6.24.29,6.52a1,1,0,0,0,.71.22H230v.35h-5.31v-.35h.84c.71,0,.95-.31.95-1.17v-6.5c-.83,1.81-2,2.69-3.55,2.69-2.33,0-4.5-2.62-4.5-5.4S220.7,29,223.27,29c1.62,0,2.91,1,3.74,2.85a5.65,5.65,0,0,0,.93-2.73Z"/><path d="M230.77,29.56a15.08,15.08,0,0,0,2.62-.16,5.06,5.06,0,0,1,.64-.1h.55v7.83c0,1.26.55,2,1.52,2,1.74,0,3.22-2.31,3.22-5V31.06c0-.81-.38-1.14-1.29-1.14h-1.21v-.36h1.43a11.46,11.46,0,0,0,2-.23,1,1,0,0,1,.24,0h.62v8.6c0,.92.35,1.28,1.28,1.28h.48v.36h-2.43l-.52,0-.62,0V36.7c-.93,2-2.17,3-3.69,3a2.89,2.89,0,0,1-2.84-3.07V30.87a1,1,0,0,0-1-.95h-1Z"/><path d="M251,33.61c.52,0,.69-.19.69-.81,0-2-1-3.26-2.55-3.26a2.21,2.21,0,0,0-2,1.57,6.25,6.25,0,0,0-.43,2.5Zm2.86,2.07a5.87,5.87,0,0,1-.67,1.81,4.39,4.39,0,0,1-3.81,2.26c-2.71,0-4.78-2.38-4.78-5.4,0-2.86,2-5.17,4.52-5.17s4.38,2.05,4.64,4.88h-7.09c0,1.6-.05,5.22,2.95,5.22,1.88,0,3.36-1.38,3.86-3.6Z"/><rect x="16.74" y="22.92" width="5.58" height="5.58"/><rect y="34.08" width="5.58" height="5.58"/><rect x="11.16" y="34.08" width="5.58" height="5.58"/><rect x="22.32" y="34.08" width="5.58" height="5.58"/><rect x="33.49" y="34.08" width="5.58" height="5.58"/><rect y="0.6" width="39.06" height="5.58"/><rect y="11.76" width="16.74" height="5.58"/><rect x="22.32" y="11.76" width="16.74" height="5.58"/><rect y="22.92" width="11.16" height="5.58"/><rect x="27.9" y="22.92" width="11.16" height="5.58"/></g></g></svg>